<?xml version="1.0" encoding="UTF-8" standalone="yes"?>
<svg xmlns="http://www.w3.org/2000/svg" height="452" width="452">
<script type="text/ecmascript">
      <![CDATA[
        var shown = 1;
        function click() {
             var seq = document.getElementById("seq");
             if (shown==1) {
               seq.setAttribute("style", "visibility: hidden");
               shown = 0;
             } else {
               seq.setAttribute("style", "visibility: visible");
               shown = 1;
             }
         }
        ]]>
</script>
  <rect style="stroke: white; fill: white" height="452" x="0" y="0" width="452" onclick="click(evt)" />
  <g transform="scale(0.262065,0.262065) translate(481.510071,707.108032)">
    <polyline style="stroke: black; fill: none; stroke-width: 1.5" id="outline" points="
      120.580,105.867
      120.219,120.863
      119.858,135.858
      112.360,135.678
      111.206,120.722
      121.212,108.784
      119.828,93.633
      108.385,84.168
      119.681,73.354
      121.332,57.804
      112.559,44.860
      97.504,40.633
      83.275,47.120
      76.591,61.257
      80.608,76.370
      93.430,85.322
      83.574,96.431
      84.532,111.614
      96.251,121.876
      97.405,136.832
      74.359,155.511
      64.604,178.615
      52.024,170.445
      44.665,156.439
      29.777,155.996
      17.198,147.825
      4.618,139.655
      -7.962,131.485
      -20.541,123.315
      -33.121,115.144
      -45.701,106.974
      -46.300,84.277
      -72.086,70.326
      -83.069,60.109
      -94.051,49.892
      -105.034,39.675
      -116.016,29.459
      -126.999,19.242
      -137.965,9.007
      -148.915,-1.245
      -144.036,-10.978
      -143.760,-22.932
      -149.014,-34.858
      -159.618,-44.169
      -174.187,-48.477
      -184.064,-59.766
      -193.942,-71.055
      -197.178,-79.457
      -203.869,-82.364
      -213.782,-93.621
      -223.696,-104.878
      -208.586,-123.725
      -209.143,-153.265
      -231.482,-180.255
      -236.892,-194.246
      -233.834,-210.357
      -246.433,-220.855
      -261.728,-214.939
      -263.985,-198.696
      -250.883,-188.835
      -245.472,-174.845
      -251.889,-170.964
      -259.652,-183.799
      -267.415,-196.634
      -280.250,-188.871
      -272.487,-176.036
      -264.725,-163.201
      -271.142,-159.320
      -281.020,-170.609
      -290.897,-181.898
      -283.478,-188.168
      -277.604,-196.882
      -274.034,-207.616
      -273.400,-219.719
      -276.146,-232.358
      -282.469,-244.567
      -292.295,-255.326
      -305.254,-263.632
      -313.485,-276.172
      -321.716,-288.712
      -329.946,-301.252
      -323.161,-314.960
      -324.141,-330.124
      -332.524,-342.677
      -345.975,-349.305
      -360.837,-348.317
      -355.221,-362.782
      -359.213,-377.777
      -371.277,-387.536
      -386.775,-388.306
      -399.747,-379.792
      -405.206,-365.266
      -401.052,-350.316
      -388.883,-340.688
      -373.377,-340.086
      -380.197,-326.844
      -379.467,-311.866
      -371.284,-299.181
      -357.762,-292.249
      -342.486,-293.022
      -334.256,-280.481
      -326.025,-267.941
      -317.794,-255.401
      -323.625,-250.683
      -337.626,-256.065
      -335.285,-241.248
      -341.116,-236.530
      -351.663,-247.196
      -362.210,-257.862
      -372.756,-268.528
      -383.286,-279.211
      -393.799,-289.911
      -387.010,-303.446
      -384.986,-318.452
      -387.946,-333.301
      -395.570,-346.384
      -407.031,-356.280
      -421.084,-361.917
      -436.207,-362.682
      -450.758,-358.494
      -463.159,-349.805
      -472.065,-337.559
      -476.510,-323.084
      -476.012,-307.951
      -470.624,-293.800
      -460.931,-282.166
      -447.986,-274.313
      -433.190,-271.090
      -418.151,-272.849
      -404.499,-279.398
      -393.986,-268.699
      -391.569,-261.815
      -383.422,-257.981
      -372.876,-247.315
      -362.329,-236.649
      -351.782,-225.983
      -356.711,-220.331
      -366.571,-209.026
      -371.500,-203.374
      -371.842,-216.762
      -379.685,-227.378
      -392.014,-231.516
      -404.301,-227.890
      -413.392,-242.201
      -429.660,-237.427
      -429.576,-220.473
      -413.261,-215.860
      -411.497,-199.078
      -397.834,-188.607
      -380.499,-191.373
      -363.170,-168.847
      -339.976,-158.687
      -317.831,-160.854
      -302.186,-172.020
      -292.309,-160.731
      -282.431,-149.443
      -287.186,-143.643
      -301.987,-146.079
      -296.696,-132.043
      -301.451,-126.243
      -314.458,-133.715
      -322.215,-148.163
      -338.613,-148.399
      -346.782,-134.179
      -338.319,-120.132
      -321.930,-120.708
      -308.924,-113.236
      -300.507,-99.551
      -289.329,-89.506
      -276.679,-83.517
      -263.853,-81.590
      -252.031,-83.353
      -242.175,-88.116
      -234.953,-94.964
      -225.040,-83.707
      -215.126,-72.450
      -205.230,-61.177
      -195.353,-49.888
      -185.476,-38.600
      -189.510,-32.277
      -202.155,-40.346
      -214.800,-48.415
      -227.445,-56.484
      -235.513,-43.839
      -222.869,-35.771
      -210.224,-27.702
      -197.579,-19.632
      -201.614,-13.310
      -216.013,-17.513
      -230.412,-21.716
      -244.811,-25.919
      -249.399,-35.603
      -258.337,-41.111
      -268.614,-40.866
      -276.919,-35.184
      -291.345,-39.295
      -305.770,-43.405
      -320.196,-47.515
      -334.622,-51.626
      -345.639,-63.773
      -361.608,-60.042
      -366.102,-44.271
      -354.497,-32.683
      -338.732,-37.200
      -324.307,-33.090
      -309.881,-28.979
      -295.455,-24.869
      -281.029,-20.758
      -268.475,-5.958
      -249.014,-11.520
      -234.615,-7.317
      -220.216,-3.114
      -205.817,1.089
      -181.637,17.250
      -159.167,9.705
      -148.217,19.957
      -145.516,26.733
      -137.216,30.224
      -126.233,40.441
      -115.251,50.658
      -104.268,60.875
      -93.286,71.092
      -82.303,81.309
      -84.828,88.371
      -98.952,83.321
      -113.077,78.271
      -127.201,73.222
      -132.251,87.346
      -118.127,92.396
      -104.002,97.445
      -89.878,102.495
      -92.403,109.557
      -107.373,110.495
      -122.344,111.433
      -137.315,112.371
      -152.285,113.309
      -167.273,113.911
      -182.271,114.176
      -197.269,114.440
      -202.680,100.281
      -212.611,88.829
      -225.861,81.466
      -240.831,79.082
      -255.713,81.965
      -268.709,89.767
      -278.251,101.545
      -283.186,115.878
      -282.919,131.034
      -277.481,145.183
      -267.529,156.617
      -254.265,163.956
      -239.291,166.312
      -224.415,163.401
      -211.433,155.575
      -201.913,143.780
      -197.004,129.438
      -182.006,129.173
      -167.008,128.909
      -180.576,135.306
      -190.675,146.397
      -195.776,160.503
      -195.108,175.488
      -188.772,189.084
      -177.726,199.232
      -163.643,204.397
      -148.655,203.796
      -135.031,197.521
      -124.833,186.520
      -119.606,172.461
      -120.139,157.470
      -126.354,143.818
      -137.308,133.571
      -151.347,128.280
      -136.377,127.342
      -121.406,126.404
      -106.435,125.466
      -91.465,124.528
      -68.873,129.873
      -53.871,119.554
      -41.291,127.724
      -28.712,135.894
      -16.132,144.064
      -3.552,152.235
      9.027,160.405
      21.607,168.575
      28.066,181.996
      43.854,183.024
      56.434,191.195
      53.005,202.545
      52.484,214.390
      54.902,225.997
      60.109,236.649
      67.785,245.686
      59.514,258.200
      51.243,270.714
      42.972,283.227
      39.200,278.873
      33.972,275.334
      27.483,272.998
      20.023,272.204
      11.960,273.219
      3.727,276.226
      -4.199,281.306
      -15.149,291.558
      -26.098,301.810
      -37.048,312.062
      -52.410,315.846
      -56.413,330.193
      -67.362,340.445
      -85.434,344.271
      -89.745,361.338
      -102.309,352.241
      -116.403,345.774
      -131.484,342.185
      -146.971,341.610
      -162.267,344.069
      -176.785,349.466
      -189.965,357.592
      -201.301,368.132
      -210.358,380.678
      -216.789,394.748
      -220.348,409.798
      -220.899,425.248
      -218.424,440.504
      -213.019,454.979
      -204.893,468.116
      -215.909,478.297
      -226.924,488.479
      -237.939,498.660
      -248.954,508.842
      -259.970,519.023
      -270.985,529.205
      -282.000,539.387
      -288.121,534.862
      -296.085,532.436
      -305.120,532.804
      -314.212,536.370
      -322.209,543.160
      -327.966,552.790
      -339.490,562.393
      -351.013,571.996
      -366.568,574.887
      -371.392,588.979
      -382.915,598.581
      -400.369,596.708
      -413.477,607.867
      -414.377,624.718
      -425.931,634.284
      -437.485,643.849
      -453.195,642.119
      -465.474,652.068
      -467.038,667.795
      -456.960,679.969
      -441.217,681.367
      -429.151,671.160
      -427.920,655.403
      -416.366,645.838
      -404.812,636.272
      -392.354,639.262
      -380.254,634.497
      -372.967,623.493
      -373.312,610.105
      -361.789,600.502
      -347.058,598.298
      -341.410,583.519
      -329.887,573.917
      -318.364,564.314
      -313.005,569.561
      -323.501,580.278
      -333.996,590.995
      -344.491,601.711
      -354.987,612.428
      -365.482,623.145
      -375.978,633.861
      -365.261,644.356
      -354.766,633.640
      -344.270,622.923
      -333.775,612.207
      -323.279,601.490
      -312.784,590.773
      -302.289,580.057
      -296.930,585.304
      -312.389,590.778
      -315.111,606.950
      -302.297,617.183
      -287.128,610.951
      -285.209,594.665
      -266.356,572.704
      -271.819,550.402
      -260.803,540.220
      -249.788,530.039
      -238.773,519.857
      -227.758,509.676
      -216.742,499.494
      -205.727,489.312
      -194.712,479.131
      -183.056,487.781
      -170.007,494.147
      -156.007,498.009
      -141.531,499.236
      -127.073,497.783
      -113.122,493.700
      -100.155,487.123
      -88.613,478.274
      -78.889,467.454
      -71.315,455.028
      -66.149,441.420
      -63.569,427.090
      -63.663,412.526
      -66.431,398.223
      -71.780,384.667
      -79.528,372.321
      -67.513,372.465
      -58.289,364.155
      -57.110,351.394
      -46.160,341.142
      -31.582,338.092
      -26.796,323.012
      -15.846,312.759
      -4.897,302.507
      6.053,292.255
      12.458,296.157
      4.655,308.968
      17.465,316.771
      25.268,303.961
      31.674,307.863
      27.586,322.295
      23.499,336.727
      19.412,351.160
      8.207,362.329
      12.184,376.683
      8.627,380.155
      6.853,384.222
      6.800,388.137
      8.127,391.274
      4.179,405.746
      -10.180,411.323
      -18.406,424.137
      -17.519,439.160
      -8.070,450.642
      -12.018,465.113
      -15.966,479.585
      -19.914,494.056
      -34.661,498.588
      -44.599,510.388
      -46.556,525.691
      -39.910,539.613
      -26.779,547.712
      -11.355,547.403
      1.441,538.786
      7.526,524.609
      4.958,509.397
      -5.443,498.004
      -1.495,483.533
      2.453,469.062
      6.401,454.591
      20.373,449.498
      28.766,437.007
      28.187,421.791
      18.650,409.694
      22.598,395.223
      26.616,380.771
      37.529,370.633
      33.844,355.247
      37.932,340.815
      42.019,326.382
      46.106,311.950
      43.000,326.625
      42.526,341.617
      44.700,356.459
      49.452,370.686
      56.634,383.855
      66.023,395.553
      77.325,405.416
      90.187,413.134
      104.206,418.468
      118.946,421.251
      133.945,421.395
      148.736,418.896
      162.855,413.832
      175.862,406.361
      187.351,396.717
      196.963,385.201
      204.397,372.173
      209.421,358.040
      211.879,343.242
      211.693,328.243
      208.869,313.512
      203.496,299.507
      195.741,286.667
      185.847,275.393
      174.123,266.037
      160.934,258.891
      146.694,254.179
      131.846,252.047
      116.855,252.563
      102.188,255.710
      88.305,261.390
      75.639,269.425
      64.585,279.565
      55.486,291.498
      63.757,278.984
      72.028,266.471
      80.298,253.957
      129.497,263.617
      173.137,220.121
      176.102,234.825
      179.066,249.529
      168.718,257.016
      161.956,267.797
      159.739,280.282
      162.355,292.642
      169.389,303.080
      179.786,310.093
      192.009,312.686
      195.068,327.371
      198.127,342.056
      201.186,356.740
      192.316,369.821
      195.375,385.326
      208.548,394.057
      224.021,390.834
      232.612,377.569
      229.226,362.132
      215.870,353.681
      212.811,338.997
      209.752,324.312
      206.693,309.627
      219.991,298.529
      225.794,282.114
      222.389,264.947
      210.641,251.855
      193.771,246.565
      190.806,231.861
      187.841,217.156
      193.149,211.857
      202.800,223.340
      207.607,237.549
      222.212,240.968
      232.828,230.371
      229.433,215.760
      215.231,210.929
      203.764,201.259
      209.071,195.960
      223.771,198.949
      238.465,201.960
      253.155,204.996
      260.808,209.740
      267.896,208.017
      282.596,211.006
      297.295,213.994
      311.994,216.982
      326.694,219.971
      338.676,230.302
      352.689,225.255
      367.389,228.244
      369.500,249.162
      378.623,268.082
      393.647,282.731
      412.754,291.356
      433.639,292.931
      453.785,287.281
      470.771,275.098
      482.560,257.861
      496.876,262.340
      511.191,266.819
      525.507,271.299
      539.822,275.778
      524.742,298.581
      532.098,333.522
      567.588,362.127
      580.759,369.305
      593.930,376.483
      607.101,383.661
      620.272,390.839
      633.443,398.018
      646.614,405.196
      659.785,412.374
      672.944,419.573
      686.092,426.794
      683.172,436.260
      684.906,447.408
      692.040,457.885
      704.143,465.087
      713.276,476.986
      722.409,488.885
      731.543,500.784
      727.008,515.624
      732.095,530.284
      744.846,539.126
      760.358,538.752
      772.668,529.304
      777.040,514.416
      771.795,499.812
      758.949,491.108
      743.442,491.651
      734.309,479.752
      725.176,467.853
      716.043,455.954
      720.685,450.063
      732.466,459.348
      744.247,468.633
      756.028,477.918
      765.312,466.137
      753.532,456.852
      741.751,447.567
      729.970,438.282
      734.613,432.392
      748.316,438.492
      762.020,444.591
      775.724,450.691
      789.428,456.790
      803.132,462.890
      816.836,468.990
      815.882,478.034
      817.028,487.042
      820.204,495.535
      825.236,503.060
      831.850,509.222
      839.690,513.694
      848.333,516.245
      857.316,516.744
      866.162,515.172
      874.397,511.618
      881.587,506.277
      887.351,499.441
      901.188,505.231
      907.792,511.352
      915.079,511.017
      928.935,516.763
      933.121,521.614
      938.334,523.443
      942.898,522.501
      956.791,528.158
      970.683,533.815
      984.576,539.471
      998.441,545.195
      1012.278,550.985
      1026.116,556.776
      1039.944,562.588
      1053.763,568.423
      1067.581,574.257
      1066.170,589.430
      1071.790,604.594
      1084.082,616.490
      1101.189,622.215
      1120.023,619.896
      1133.439,626.605
      1146.855,633.314
      1144.756,640.075
      1145.004,647.848
      1147.987,655.789
      1153.786,662.922
      1162.136,668.255
      1172.429,670.895
      1185.736,677.818
      1199.042,684.741
      1207.396,698.853
      1223.789,698.405
      1231.358,683.857
      1222.316,670.175
      1205.966,671.434
      1192.659,664.511
      1179.352,657.588
      1182.599,650.827
      1192.338,630.544
      1206.061,636.599
      1215.302,650.147
      1231.633,648.648
      1238.253,633.644
      1228.353,620.571
      1212.117,622.876
      1198.393,616.820
      1171.773,607.252
      1153.564,619.898
      1140.147,613.189
      1126.731,606.480
      1129.482,599.503
      1143.437,605.003
      1158.272,602.789
      1148.937,591.048
      1134.982,585.547
      1137.732,578.570
      1152.118,582.819
      1166.503,587.068
      1171.567,601.736
      1184.305,610.598
      1199.818,610.247
      1212.141,600.818
      1216.537,585.936
      1211.314,571.325
      1198.481,562.601
      1182.973,563.120
      1170.752,572.682
      1156.367,568.433
      1141.981,564.184
      1132.438,551.872
      1119.687,544.085
      1105.625,541.461
      1092.177,543.903
      1081.027,550.652
      1073.416,560.438
      1059.597,554.604
      1045.779,548.769
      1040.901,543.345
      1031.906,542.938
      1018.069,537.148
      1004.231,531.358
      1002.574,528.381
      999.455,526.015
      995.157,524.911
      990.233,525.579
      976.340,519.922
      962.448,514.265
      948.555,508.609
      934.681,502.907
      920.825,497.162
      906.979,491.394
      893.141,485.603
      891.774,464.726
      879.710,447.538
      860.400,439.091
      839.435,441.922
      822.935,455.286
      809.231,449.186
      795.527,443.086
      781.824,436.987
      768.120,430.887
      754.416,424.788
      740.712,418.688
      714.654,402.478
      693.312,413.646
      680.164,406.425
      675.869,400.529
      666.963,399.203
      653.792,392.025
      640.621,384.847
      627.450,377.668
      614.279,370.490
      601.108,363.312
      587.937,356.134
      574.766,348.956
      576.154,341.585
      590.895,344.361
      605.049,339.395
      593.671,329.620
      578.930,326.844
      580.318,319.474
      595.197,317.578
      610.077,315.681
      624.957,313.785
      639.836,311.889
      656.313,315.884
      664.713,301.158
      652.888,289.009
      637.940,297.009
      623.060,298.906
      608.181,300.802
      593.301,302.698
      578.421,304.594
      576.727,297.288
      591.340,293.900
      605.952,290.512
      620.564,287.124
      635.177,283.736
      649.789,280.348
      664.402,276.960
      675.362,266.719
      661.013,262.347
      646.401,265.735
      631.789,269.123
      617.176,272.511
      602.564,275.900
      587.952,279.288
      573.339,282.676
      571.645,275.370
      585.841,270.524
      600.037,265.679
      614.233,260.834
      628.429,255.988
      642.625,251.143
      656.820,246.298
      670.894,253.488
      685.905,248.541
      692.946,234.392
      687.841,219.435
      673.618,212.544
      658.716,217.807
      651.975,232.102
      637.779,236.947
      623.583,241.792
      609.388,246.638
      595.192,251.483
      580.996,256.328
      566.800,261.174
      578.783,252.151
      584.949,238.477
      583.777,223.523
      575.557,210.976
      562.314,203.931
      547.315,204.123
      534.259,211.507
      526.363,224.261
      525.576,239.240
      532.092,252.752
      544.302,261.462
      529.986,256.983
      515.671,252.504
      501.355,248.024
      487.040,243.545
      487.845,237.096
      487.949,230.598
      487.353,224.126
      486.061,217.757
      484.090,211.564
      481.462,205.620
      493.882,197.209
      506.302,188.798
      522.067,187.466
      528.267,173.923
      540.687,165.512
      553.107,157.101
      567.250,163.265
      582.476,160.781
      593.927,150.443
      597.949,135.549
      593.258,120.852
      581.352,111.042
      566.029,109.248
      552.180,116.044
      544.222,129.261
      544.696,144.681
      532.276,153.092
      519.856,161.503
      504.979,162.233
      497.891,176.378
      485.471,184.789
      473.051,193.200
      465.489,185.913
      456.770,180.048
      447.158,175.786
      436.945,173.257
      426.440,172.543
      415.965,173.666
      405.838,176.595
      396.369,181.242
      387.846,187.470
      380.530,195.089
      374.647,203.869
      370.377,213.544
      355.678,210.556
      344.747,200.438
      329.682,205.271
      314.983,202.283
      300.283,199.295
      285.584,196.306
      270.885,193.318
      256.190,190.306
      241.501,187.271
      235.661,182.898
      226.759,184.249
      212.060,181.261
      208.835,174.490
      223.167,170.065
      237.500,165.640
      251.833,161.215
      266.781,162.455
      279.019,153.780
      282.800,139.265
      276.350,125.722
      262.697,119.510
      248.250,123.545
      239.792,135.931
      227.323,144.270
      214.854,152.608
      202.386,160.947
      199.161,154.175
      206.106,140.880
      213.050,127.584
      226.297,118.934
      225.332,104.071
      232.276,90.775
      246.432,95.812
      261.151,98.829
      276.146,99.769
      291.126,98.612
      305.800,95.382
      319.881,90.141
      333.095,82.991
      345.186,74.071
      355.918,63.556
      365.082,51.649
      372.499,38.583
      378.026,24.611
      381.554,10.006
      383.016,-4.947
      382.382,-19.959
      379.664,-34.736
      374.917,-48.991
      368.232,-62.447
      359.739,-74.841
      349.604,-85.932
      338.024,-95.506
      325.224,-103.374
      311.453,-109.384
      296.980,-113.419
      282.087,-115.401
      267.062,-115.290
      252.200,-113.089
      237.788,-108.841
      224.107,-102.629
      211.425,-94.573
      199.987,-84.831
      190.016,-73.591
      181.706,-61.073
      175.220,-47.521
      170.683,-33.197
      168.184,-18.382
      167.771,-3.362
      169.452,11.568
      173.195,26.119
      178.927,40.008
      186.536,52.964
      195.874,64.734
      206.760,75.090
      218.981,83.831
      212.036,97.126
      199.286,104.825
      199.755,120.640
      192.810,133.935
      185.865,147.231
      178.708,144.991
      183.187,130.676
      187.666,116.360
      192.146,102.044
      196.625,87.729
      201.104,73.413
      205.584,59.098
      210.063,44.782
      195.747,40.303
      191.268,54.618
      186.789,68.934
      182.309,83.250
      177.830,97.565
      173.351,111.881
      168.871,126.196
      164.392,140.512
      157.234,138.272
      159.107,123.389
      160.979,108.507
      162.851,93.624
      164.724,78.741
      166.596,63.859
      168.468,48.976
      170.341,34.093
      172.213,19.211
      174.085,4.328
      184.419,-8.405
      178.307,-23.623
      162.036,-25.670
      152.345,-12.441
      159.203,2.456
      157.330,17.338
      155.458,32.221
      153.586,47.104
      151.713,61.986
      149.841,76.869
      147.969,91.752
      146.096,106.634
      144.224,121.517
      142.352,136.400
      134.854,136.219
      135.215,121.224
      135.576,106.228
      135.937,91.232
      136.298,76.237
      129.112,63.070
      121.302,75.876
    " />
    <g style="stroke: black; stroke-width: 1" id="pairs">
      <line id="4,20" x1="112.360" y1="135.678" x2="97.405" y2="136.832" />
      <line id="5,19" x1="111.206" y1="120.722" x2="96.251" y2="121.876" />
      <line id="8,16" x1="108.385" y1="84.168" x2="93.430" y2="85.322" />
      <line id="22,288" x1="64.604" y1="178.615" x2="56.434" y2="191.195" />
      <line id="23,287" x1="52.024" y1="170.445" x2="43.854" y2="183.024" />
      <line id="25,285" x1="29.777" y1="155.996" x2="21.607" y2="168.575" />
      <line id="26,284" x1="17.198" y1="147.825" x2=" 9.027" y2="160.405" />
      <line id="27,283" x1=" 4.618" y1="139.655" x2="-3.552" y2="152.235" />
      <line id="28,282" x1="-7.962" y1="131.485" x2="-16.132" y2="144.064" />
      <line id="29,281" x1="-20.541" y1="123.315" x2="-28.712" y2="135.894" />
      <line id="30,280" x1="-33.121" y1="115.144" x2="-41.291" y2="127.724" />
      <line id="31,279" x1="-45.701" y1="106.974" x2="-53.871" y2="119.554" />
      <line id="33,223" x1="-72.086" y1="70.326" x2="-82.303" y2="81.309" />
      <line id="34,222" x1="-83.069" y1="60.109" x2="-93.286" y2="71.092" />
      <line id="35,221" x1="-94.051" y1="49.892" x2="-104.268" y2="60.875" />
      <line id="36,220" x1="-105.034" y1="39.675" x2="-115.251" y2="50.658" />
      <line id="37,219" x1="-116.016" y1="29.459" x2="-126.233" y2="40.441" />
      <line id="38,218" x1="-126.999" y1="19.242" x2="-137.216" y2="30.224" />
      <line id="39,216" x1="-137.965" y1=" 9.007" x2="-148.217" y2="19.957" />
      <line id="40,215" x1="-148.915" y1="-1.245" x2="-159.167" y2=" 9.705" />
      <line id="45,179" x1="-174.187" y1="-48.477" x2="-185.476" y2="-38.600" />
      <line id="46,178" x1="-184.064" y1="-59.766" x2="-195.353" y2="-49.888" />
      <line id="47,177" x1="-193.942" y1="-71.055" x2="-205.230" y2="-61.177" />
      <line id="49,176" x1="-203.869" y1="-82.364" x2="-215.126" y2="-72.450" />
      <line id="50,175" x1="-213.782" y1="-93.621" x2="-225.040" y2="-83.707" />
      <line id="51,174" x1="-223.696" y1="-104.878" x2="-234.953" y2="-94.964" />
      <line id="54,61" x1="-231.482" y1="-180.255" x2="-245.472" y2="-174.845" />
      <line id="55,60" x1="-236.892" y1="-194.246" x2="-250.883" y2="-188.835" />
      <line id="68,156" x1="-271.142" y1="-159.320" x2="-282.431" y2="-149.443" />
      <line id="69,155" x1="-281.020" y1="-170.609" x2="-292.309" y2="-160.731" />
      <line id="70,154" x1="-290.897" y1="-181.898" x2="-302.186" y2="-172.020" />
      <line id="78,103" x1="-305.254" y1="-263.632" x2="-317.794" y2="-255.401" />
      <line id="79,102" x1="-313.485" y1="-276.172" x2="-326.025" y2="-267.941" />
      <line id="80,101" x1="-321.716" y1="-288.712" x2="-334.256" y2="-280.481" />
      <line id="81,100" x1="-329.946" y1="-301.252" x2="-342.486" y2="-293.022" />
      <line id="86,95" x1="-360.837" y1="-348.317" x2="-373.377" y2="-340.086" />
      <line id="107,136" x1="-341.116" y1="-236.530" x2="-351.782" y2="-225.983" />
      <line id="108,135" x1="-351.663" y1="-247.196" x2="-362.329" y2="-236.649" />
      <line id="109,134" x1="-362.210" y1="-257.862" x2="-372.876" y2="-247.315" />
      <line id="110,133" x1="-372.756" y1="-268.528" x2="-383.422" y2="-257.981" />
      <line id="111,131" x1="-383.286" y1="-279.211" x2="-393.986" y2="-268.699" />
      <line id="112,130" x1="-393.799" y1="-289.911" x2="-404.499" y2="-279.398" />
      <line id="139,150" x1="-371.500" y1="-203.374" x2="-380.499" y2="-191.373" />
      <line id="143,147" x1="-404.301" y1="-227.890" x2="-413.261" y2="-215.860" />
      <line id="160,167" x1="-301.451" y1="-126.243" x2="-308.924" y2="-113.236" />
      <line id="161,166" x1="-314.458" y1="-133.715" x2="-321.930" y2="-120.708" />
      <line id="188,213" x1="-201.614" y1="-13.310" x2="-205.817" y2=" 1.089" />
      <line id="189,212" x1="-216.013" y1="-17.513" x2="-220.216" y2="-3.114" />
      <line id="190,211" x1="-230.412" y1="-21.716" x2="-234.615" y2="-7.317" />
      <line id="191,210" x1="-244.811" y1="-25.919" x2="-249.014" y2="-11.520" />
      <line id="195,208" x1="-276.919" y1="-35.184" x2="-281.029" y2="-20.758" />
      <line id="196,207" x1="-291.345" y1="-39.295" x2="-295.455" y2="-24.869" />
      <line id="197,206" x1="-305.770" y1="-43.405" x2="-309.881" y2="-28.979" />
      <line id="198,205" x1="-320.196" y1="-47.515" x2="-324.307" y2="-33.090" />
      <line id="199,204" x1="-334.622" y1="-51.626" x2="-338.732" y2="-37.200" />
      <line id="232,277" x1="-92.403" y1="109.557" x2="-91.465" y2="124.528" />
      <line id="233,276" x1="-107.373" y1="110.495" x2="-106.435" y2="125.466" />
      <line id="234,275" x1="-122.344" y1="111.433" x2="-121.406" y2="126.404" />
      <line id="235,274" x1="-137.315" y1="112.371" x2="-136.377" y2="127.342" />
      <line id="236,273" x1="-152.285" y1="113.309" x2="-151.347" y2="128.280" />
      <line id="237,258" x1="-167.273" y1="113.911" x2="-167.008" y2="128.909" />
      <line id="238,257" x1="-182.271" y1="114.176" x2="-182.006" y2="129.173" />
      <line id="239,256" x1="-197.269" y1="114.440" x2="-197.004" y2="129.438" />
      <line id="293,504" x1="67.785" y1="245.686" x2="80.298" y2="253.957" />
      <line id="294,503" x1="59.514" y1="258.200" x2="72.028" y2="266.471" />
      <line id="295,502" x1="51.243" y1="270.714" x2="63.757" y2="278.984" />
      <line id="296,501" x1="42.972" y1="283.227" x2="55.486" y2="291.498" />
      <line id="303,421" x1="-4.199" y1="281.306" x2=" 6.053" y2="292.255" />
      <line id="304,420" x1="-15.149" y1="291.558" x2="-4.897" y2="302.507" />
      <line id="305,419" x1="-26.098" y1="301.810" x2="-15.846" y2="312.759" />
      <line id="306,418" x1="-37.048" y1="312.062" x2="-26.796" y2="323.012" />
      <line id="308,416" x1="-56.413" y1="330.193" x2="-46.160" y2="341.142" />
      <line id="309,415" x1="-67.362" y1="340.445" x2="-57.110" y2="351.394" />
      <line id="311,412" x1="-89.745" y1="361.338" x2="-79.528" y2="372.321" />
      <line id="326,396" x1="-204.893" y1="468.116" x2="-194.712" y2="479.131" />
      <line id="327,395" x1="-215.909" y1="478.297" x2="-205.727" y2="489.312" />
      <line id="328,394" x1="-226.924" y1="488.479" x2="-216.742" y2="499.494" />
      <line id="329,393" x1="-237.939" y1="498.660" x2="-227.758" y2="509.676" />
      <line id="330,392" x1="-248.954" y1="508.842" x2="-238.773" y2="519.857" />
      <line id="331,391" x1="-259.970" y1="519.023" x2="-249.788" y2="530.039" />
      <line id="332,390" x1="-270.985" y1="529.205" x2="-260.803" y2="540.220" />
      <line id="333,389" x1="-282.000" y1="539.387" x2="-271.819" y2="550.402" />
      <line id="339,367" x1="-327.966" y1="552.790" x2="-318.364" y2="564.314" />
      <line id="340,366" x1="-339.490" y1="562.393" x2="-329.887" y2="573.917" />
      <line id="341,365" x1="-351.013" y1="571.996" x2="-341.410" y2="583.519" />
      <line id="343,363" x1="-371.392" y1="588.979" x2="-361.789" y2="600.502" />
      <line id="344,362" x1="-382.915" y1="598.581" x2="-373.312" y2="610.105" />
      <line id="347,358" x1="-414.377" y1="624.718" x2="-404.812" y2="636.272" />
      <line id="348,357" x1="-425.931" y1="634.284" x2="-416.366" y2="645.838" />
      <line id="349,356" x1="-437.485" y1="643.849" x2="-427.920" y2="655.403" />
      <line id="382,387" x1="-296.930" y1="585.304" x2="-285.209" y2="594.665" />
      <line id="426,467" x1="31.674" y1="307.863" x2="46.106" y2="311.950" />
      <line id="427,466" x1="27.586" y1="322.295" x2="42.019" y2="326.382" />
      <line id="428,465" x1="23.499" y1="336.727" x2="37.932" y2="340.815" />
      <line id="429,464" x1="19.412" y1="351.160" x2="33.844" y2="355.247" />
      <line id="431,462" x1="12.184" y1="376.683" x2="26.616" y2="380.771" />
      <line id="435,461" x1=" 8.127" y1="391.274" x2="22.598" y2="395.223" />
      <line id="436,460" x1=" 4.179" y1="405.746" x2="18.650" y2="409.694" />
      <line id="440,456" x1="-8.070" y1="450.642" x2=" 6.401" y2="454.591" />
      <line id="441,455" x1="-12.018" y1="465.113" x2=" 2.453" y2="469.062" />
      <line id="442,454" x1="-15.966" y1="479.585" x2="-1.495" y2="483.533" />
      <line id="443,453" x1="-19.914" y1="494.056" x2="-5.443" y2="498.004" />
      <line id="506,535" x1="173.137" y1="220.121" x2="187.841" y2="217.156" />
      <line id="507,534" x1="176.102" y1="234.825" x2="190.806" y2="231.861" />
      <line id="508,533" x1="179.066" y1="249.529" x2="193.771" y2="246.565" />
      <line id="515,528" x1="192.009" y1="312.686" x2="206.693" y2="309.627" />
      <line id="516,527" x1="195.068" y1="327.371" x2="209.752" y2="324.312" />
      <line id="517,526" x1="198.127" y1="342.056" x2="212.811" y2="338.997" />
      <line id="518,525" x1="201.186" y1="356.740" x2="215.870" y2="353.681" />
      <line id="544,862" x1="209.071" y1="195.960" x2="212.060" y2="181.261" />
      <line id="545,861" x1="223.771" y1="198.949" x2="226.759" y2="184.249" />
      <line id="546,859" x1="238.465" y1="201.960" x2="241.501" y2="187.271" />
      <line id="547,858" x1="253.155" y1="204.996" x2="256.190" y2="190.306" />
      <line id="549,857" x1="267.896" y1="208.017" x2="270.885" y2="193.318" />
      <line id="550,856" x1="282.596" y1="211.006" x2="285.584" y2="196.306" />
      <line id="551,855" x1="297.295" y1="213.994" x2="300.283" y2="199.295" />
      <line id="552,854" x1="311.994" y1="216.982" x2="314.983" y2="202.283" />
      <line id="553,853" x1="326.694" y1="219.971" x2="329.682" y2="205.271" />
      <line id="555,851" x1="352.689" y1="225.255" x2="355.678" y2="210.556" />
      <line id="556,850" x1="367.389" y1="228.244" x2="370.377" y2="213.544" />
      <line id="564,810" x1="482.560" y1="257.861" x2="487.040" y2="243.545" />
      <line id="565,809" x1="496.876" y1="262.340" x2="501.355" y2="248.024" />
      <line id="566,808" x1="511.191" y1="266.819" x2="515.671" y2="252.504" />
      <line id="567,807" x1="525.507" y1="271.299" x2="529.986" y2="256.983" />
      <line id="568,806" x1="539.822" y1="275.778" x2="544.302" y2="261.462" />
      <line id="571,742" x1="567.588" y1="362.127" x2="574.766" y2="348.956" />
      <line id="572,741" x1="580.759" y1="369.305" x2="587.937" y2="356.134" />
      <line id="573,740" x1="593.930" y1="376.483" x2="601.108" y2="363.312" />
      <line id="574,739" x1="607.101" y1="383.661" x2="614.279" y2="370.490" />
      <line id="575,738" x1="620.272" y1="390.839" x2="627.450" y2="377.668" />
      <line id="576,737" x1="633.443" y1="398.018" x2="640.621" y2="384.847" />
      <line id="577,736" x1="646.614" y1="405.196" x2="653.792" y2="392.025" />
      <line id="578,735" x1="659.785" y1="412.374" x2="666.963" y2="399.203" />
      <line id="579,733" x1="672.944" y1="419.573" x2="680.164" y2="406.425" />
      <line id="580,732" x1="686.092" y1="426.794" x2="693.312" y2="413.646" />
      <line id="584,599" x1="704.143" y1="465.087" x2="716.043" y2="455.954" />
      <line id="585,598" x1="713.276" y1="476.986" x2="725.176" y2="467.853" />
      <line id="586,597" x1="722.409" y1="488.885" x2="734.309" y2="479.752" />
      <line id="587,596" x1="731.543" y1="500.784" x2="743.442" y2="491.651" />
      <line id="608,730" x1="734.613" y1="432.392" x2="740.712" y2="418.688" />
      <line id="609,729" x1="748.316" y1="438.492" x2="754.416" y2="424.788" />
      <line id="610,728" x1="762.020" y1="444.591" x2="768.120" y2="430.887" />
      <line id="611,727" x1="775.724" y1="450.691" x2="781.824" y2="436.987" />
      <line id="612,726" x1="789.428" y1="456.790" x2="795.527" y2="443.086" />
      <line id="613,725" x1="803.132" y1="462.890" x2="809.231" y2="449.186" />
      <line id="614,724" x1="816.836" y1="468.990" x2="822.935" y2="455.286" />
      <line id="626,719" x1="887.351" y1="499.441" x2="893.141" y2="485.603" />
      <line id="627,718" x1="901.188" y1="505.231" x2="906.979" y2="491.394" />
      <line id="629,717" x1="915.079" y1="511.017" x2="920.825" y2="497.162" />
      <line id="630,716" x1="928.935" y1="516.763" x2="934.681" y2="502.907" />
      <line id="633,715" x1="942.898" y1="522.501" x2="948.555" y2="508.609" />
      <line id="634,714" x1="956.791" y1="528.158" x2="962.448" y2="514.265" />
      <line id="635,713" x1="970.683" y1="533.815" x2="976.340" y2="519.922" />
      <line id="636,712" x1="984.576" y1="539.471" x2="990.233" y2="525.579" />
      <line id="637,708" x1="998.441" y1="545.195" x2="1004.231" y2="531.358" />
      <line id="638,707" x1="1012.278" y1="550.985" x2="1018.069" y2="537.148" />
      <line id="639,706" x1="1026.116" y1="556.776" x2="1031.906" y2="542.938" />
      <line id="640,704" x1="1039.944" y1="562.588" x2="1045.779" y2="548.769" />
      <line id="641,703" x1="1053.763" y1="568.423" x2="1059.597" y2="554.604" />
      <line id="642,702" x1="1067.581" y1="574.257" x2="1073.416" y2="560.438" />
      <line id="647,677" x1="1120.023" y1="619.896" x2="1126.731" y2="606.480" />
      <line id="648,676" x1="1133.439" y1="626.605" x2="1140.147" y2="613.189" />
      <line id="649,675" x1="1146.855" y1="633.314" x2="1153.564" y2="619.898" />
      <line id="655,664" x1="1172.429" y1="670.895" x2="1179.352" y2="657.588" />
      <line id="656,663" x1="1185.736" y1="677.818" x2="1192.659" y2="664.511" />
      <line id="657,662" x1="1199.042" y1="684.741" x2="1205.966" y2="671.434" />
      <line id="666,673" x1="1192.338" y1="630.544" x2="1198.393" y2="616.820" />
      <line id="667,672" x1="1206.061" y1="636.599" x2="1212.117" y2="622.876" />
      <line id="683,696" x1="1137.732" y1="578.570" x2="1141.981" y2="564.184" />
      <line id="684,695" x1="1152.118" y1="582.819" x2="1156.367" y2="568.433" />
      <line id="685,694" x1="1166.503" y1="587.068" x2="1170.752" y2="572.682" />
      <line id="748,760" x1="580.318" y1="319.474" x2="578.421" y2="304.594" />
      <line id="749,759" x1="595.197" y1="317.578" x2="593.301" y2="302.698" />
      <line id="750,758" x1="610.077" y1="315.681" x2="608.181" y2="300.802" />
      <line id="751,757" x1="624.957" y1="313.785" x2="623.060" y2="298.906" />
      <line id="752,756" x1="639.836" y1="311.889" x2="637.940" y2="297.009" />
      <line id="776,795" x1="571.645" y1="275.370" x2="566.800" y2="261.174" />
      <line id="777,794" x1="585.841" y1="270.524" x2="580.996" y2="256.328" />
      <line id="778,793" x1="600.037" y1="265.679" x2="595.192" y2="251.483" />
      <line id="779,792" x1="614.233" y1="260.834" x2="609.388" y2="246.638" />
      <line id="780,791" x1="628.429" y1="255.988" x2="623.583" y2="241.792" />
      <line id="781,790" x1="642.625" y1="251.143" x2="637.779" y2="236.947" />
      <line id="782,789" x1="656.820" y1="246.298" x2="651.975" y2="232.102" />
      <line id="816,838" x1="481.462" y1="205.620" x2="473.051" y2="193.200" />
      <line id="817,837" x1="493.882" y1="197.209" x2="485.471" y2="184.789" />
      <line id="818,836" x1="506.302" y1="188.798" x2="497.891" y2="176.378" />
      <line id="820,834" x1="528.267" y1="173.923" x2="519.856" y2="161.503" />
      <line id="821,833" x1="540.687" y1="165.512" x2="532.276" y2="153.092" />
      <line id="822,832" x1="553.107" y1="157.101" x2="544.696" y2="144.681" />
      <line id="877,931" x1="199.161" y1="154.175" x2="185.865" y2="147.231" />
      <line id="878,930" x1="206.106" y1="140.880" x2="192.810" y2="133.935" />
      <line id="879,929" x1="213.050" y1="127.584" x2="199.755" y2="120.640" />
      <line id="881,927" x1="225.332" y1="104.071" x2="212.036" y2="97.126" />
      <line id="882,926" x1="232.276" y1="90.775" x2="218.981" y2="83.831" />
      <line id="948,971" x1="157.234" y1="138.272" x2="142.352" y2="136.400" />
      <line id="949,970" x1="159.107" y1="123.389" x2="144.224" y2="121.517" />
      <line id="950,969" x1="160.979" y1="108.507" x2="146.096" y2="106.634" />
      <line id="951,968" x1="162.851" y1="93.624" x2="147.969" y2="91.752" />
      <line id="952,967" x1="164.724" y1="78.741" x2="149.841" y2="76.869" />
      <line id="953,966" x1="166.596" y1="63.859" x2="151.713" y2="61.986" />
      <line id="954,965" x1="168.468" y1="48.976" x2="153.586" y2="47.104" />
      <line id="955,964" x1="170.341" y1="34.093" x2="155.458" y2="32.221" />
      <line id="956,963" x1="172.213" y1="19.211" x2="157.330" y2="17.338" />
      <line id="957,962" x1="174.085" y1=" 4.328" x2="159.203" y2=" 2.456" />
    </g>
    <g style="font-family: SansSerif" transform="translate(-4.6, 4)" id="seq">
      <text x="120.580" y="105.867">A</text>
      <text x="120.219" y="120.863">A</text>
      <text x="119.858" y="135.858">A</text>
      <text x="112.360" y="135.678">A</text>
      <text x="111.206" y="120.722">G</text>
      <text x="121.212" y="108.784">A</text>
      <text x="119.828" y="93.633">C</text>
      <text x="108.385" y="84.168">U</text>
      <text x="119.681" y="73.354">U</text>
      <text x="121.332" y="57.804">A</text>
      <text x="112.559" y="44.860">G</text>
      <text x="97.504" y="40.633">U</text>
      <text x="83.275" y="47.120">C</text>
      <text x="76.591" y="61.257">C</text>
      <text x="80.608" y="76.370">U</text>
      <text x="93.430" y="85.322">A</text>
      <text x="83.574" y="96.431">A</text>
      <text x="84.532" y="111.614">C</text>
      <text x="96.251" y="121.876">C</text>
      <text x="97.405" y="136.832">U</text>
      <text x="74.359" y="155.511">U</text>
      <text x="64.604" y="178.615">A</text>
      <text x="52.024" y="170.445">C</text>
      <text x="44.665" y="156.439">C</text>
      <text x="29.777" y="155.996">G</text>
      <text x="17.198" y="147.825">U</text>
      <text x="4.618" y="139.655">U</text>
      <text x="-7.962" y="131.485">A</text>
      <text x="-20.541" y="123.315">A</text>
      <text x="-33.121" y="115.144">U</text>
      <text x="-45.701" y="106.974">U</text>
      <text x="-46.300" y="84.277">C</text>
      <text x="-72.086" y="70.326">U</text>
      <text x="-83.069" y="60.109">C</text>
      <text x="-94.051" y="49.892">G</text>
      <text x="-105.034" y="39.675">C</text>
      <text x="-116.016" y="29.459">U</text>
      <text x="-126.999" y="19.242">A</text>
      <text x="-137.965" y="9.007">A</text>
      <text x="-148.915" y="-1.245">A</text>
      <text x="-144.036" y="-10.978">C</text>
      <text x="-143.760" y="-22.932">A</text>
      <text x="-149.014" y="-34.858">U</text>
      <text x="-159.618" y="-44.169">A</text>
      <text x="-174.187" y="-48.477">U</text>
      <text x="-184.064" y="-59.766">A</text>
      <text x="-193.942" y="-71.055">C</text>
      <text x="-197.178" y="-79.457">A</text>
      <text x="-203.869" y="-82.364">U</text>
      <text x="-213.782" y="-93.621">G</text>
      <text x="-223.696" y="-104.878">C</text>
      <text x="-208.586" y="-123.725">A</text>
      <text x="-209.143" y="-153.265">A</text>
      <text x="-231.482" y="-180.255">G</text>
      <text x="-236.892" y="-194.246">U</text>
      <text x="-233.834" y="-210.357">A</text>
      <text x="-246.433" y="-220.855">U</text>
      <text x="-261.728" y="-214.939">C</text>
      <text x="-263.985" y="-198.696">U</text>
      <text x="-250.883" y="-188.835">G</text>
      <text x="-245.472" y="-174.845">C</text>
      <text x="-251.889" y="-170.964">G</text>
      <text x="-259.652" y="-183.799">U</text>
      <text x="-267.415" y="-196.634">C</text>
      <text x="-280.250" y="-188.871">C</text>
      <text x="-272.487" y="-176.036">C</text>
      <text x="-264.725" y="-163.201">A</text>
      <text x="-271.142" y="-159.320">G</text>
      <text x="-281.020" y="-170.609">U</text>
      <text x="-290.897" y="-181.898">G</text>
      <text x="-283.478" y="-188.168">U</text>
      <text x="-277.604" y="-196.882">A</text>
      <text x="-274.034" y="-207.616">A</text>
      <text x="-273.400" y="-219.719">A</text>
      <text x="-276.146" y="-232.358">U</text>
      <text x="-282.469" y="-244.567">G</text>
      <text x="-292.295" y="-255.326">C</text>
      <text x="-305.254" y="-263.632">C</text>
      <text x="-313.485" y="-276.172">C</text>
      <text x="-321.716" y="-288.712">U</text>
      <text x="-329.946" y="-301.252">U</text>
      <text x="-323.161" y="-314.960">A</text>
      <text x="-324.141" y="-330.124">G</text>
      <text x="-332.524" y="-342.677">U</text>
      <text x="-345.975" y="-349.305">C</text>
      <text x="-360.837" y="-348.317">U</text>
      <text x="-355.221" y="-362.782">C</text>
      <text x="-359.213" y="-377.777">U</text>
      <text x="-371.277" y="-387.536">U</text>
      <text x="-386.775" y="-388.306">A</text>
      <text x="-399.747" y="-379.792">A</text>
      <text x="-405.206" y="-365.266">U</text>
      <text x="-401.052" y="-350.316">A</text>
      <text x="-388.883" y="-340.688">A</text>
      <text x="-373.377" y="-340.086">G</text>
      <text x="-380.197" y="-326.844">A</text>
      <text x="-379.467" y="-311.866">C</text>
      <text x="-371.284" y="-299.181">A</text>
      <text x="-357.762" y="-292.249">A</text>
      <text x="-342.486" y="-293.022">A</text>
      <text x="-334.256" y="-280.481">A</text>
      <text x="-326.025" y="-267.941">G</text>
      <text x="-317.794" y="-255.401">G</text>
      <text x="-323.625" y="-250.683">A</text>
      <text x="-337.626" y="-256.065">G</text>
      <text x="-335.285" y="-241.248">C</text>
      <text x="-341.116" y="-236.530">G</text>
      <text x="-351.663" y="-247.196">G</text>
      <text x="-362.210" y="-257.862">G</text>
      <text x="-372.756" y="-268.528">U</text>
      <text x="-383.286" y="-279.211">A</text>
      <text x="-393.799" y="-289.911">U</text>
      <text x="-387.010" y="-303.446">C</text>
      <text x="-384.986" y="-318.452">A</text>
      <text x="-387.946" y="-333.301">G</text>
      <text x="-395.570" y="-346.384">G</text>
      <text x="-407.031" y="-356.280">C</text>
      <text x="-421.084" y="-361.917">A</text>
      <text x="-436.207" y="-362.682">C</text>
      <text x="-450.758" y="-358.494">A</text>
      <text x="-463.159" y="-349.805">C</text>
      <text x="-472.065" y="-337.559">G</text>
      <text x="-476.510" y="-323.084">C</text>
      <text x="-476.012" y="-307.951">A</text>
      <text x="-470.624" y="-293.800">C</text>
      <text x="-460.931" y="-282.166">U</text>
      <text x="-447.986" y="-274.313">G</text>
      <text x="-433.190" y="-271.090">U</text>
      <text x="-418.151" y="-272.849">C</text>
      <text x="-404.499" y="-279.398">G</text>
      <text x="-393.986" y="-268.699">U</text>
      <text x="-391.569" y="-261.815">A</text>
      <text x="-383.422" y="-257.981">G</text>
      <text x="-372.876" y="-247.315">C</text>
      <text x="-362.329" y="-236.649">C</text>
      <text x="-351.782" y="-225.983">C</text>
      <text x="-356.711" y="-220.331">A</text>
      <text x="-366.571" y="-209.026">A</text>
      <text x="-371.500" y="-203.374">G</text>
      <text x="-371.842" y="-216.762">A</text>
      <text x="-379.685" y="-227.378">C</text>
      <text x="-392.014" y="-231.516">A</text>
      <text x="-404.301" y="-227.890">C</text>
      <text x="-413.392" y="-242.201">C</text>
      <text x="-429.660" y="-237.427">U</text>
      <text x="-429.576" y="-220.473">U</text>
      <text x="-413.261" y="-215.860">G</text>
      <text x="-411.497" y="-199.078">C</text>
      <text x="-397.834" y="-188.607">U</text>
      <text x="-380.499" y="-191.373">U</text>
      <text x="-363.170" y="-168.847">A</text>
      <text x="-339.976" y="-158.687">G</text>
      <text x="-317.831" y="-160.854">C</text>
      <text x="-302.186" y="-172.020">C</text>
      <text x="-292.309" y="-160.731">A</text>
      <text x="-282.431" y="-149.443">C</text>
      <text x="-287.186" y="-143.643">A</text>
      <text x="-301.987" y="-146.079">C</text>
      <text x="-296.696" y="-132.043">C</text>
      <text x="-301.451" y="-126.243">C</text>
      <text x="-314.458" y="-133.715">C</text>
      <text x="-322.215" y="-148.163">C</text>
      <text x="-338.613" y="-148.399">A</text>
      <text x="-346.782" y="-134.179">C</text>
      <text x="-338.319" y="-120.132">G</text>
      <text x="-321.930" y="-120.708">G</text>
      <text x="-308.924" y="-113.236">G</text>
      <text x="-300.507" y="-99.551">C</text>
      <text x="-289.329" y="-89.506">A</text>
      <text x="-276.679" y="-83.517">C</text>
      <text x="-263.853" y="-81.590">U</text>
      <text x="-252.031" y="-83.353">C</text>
      <text x="-242.175" y="-88.116">A</text>
      <text x="-234.953" y="-94.964">G</text>
      <text x="-225.040" y="-83.707">C</text>
      <text x="-215.126" y="-72.450">A</text>
      <text x="-205.230" y="-61.177">G</text>
      <text x="-195.353" y="-49.888">U</text>
      <text x="-185.476" y="-38.600">A</text>
      <text x="-189.510" y="-32.277">A</text>
      <text x="-202.155" y="-40.346">U</text>
      <text x="-214.800" y="-48.415">U</text>
      <text x="-227.445" y="-56.484">A</text>
      <text x="-235.513" y="-43.839">A</text>
      <text x="-222.869" y="-35.771">C</text>
      <text x="-210.224" y="-27.702">A</text>
      <text x="-197.579" y="-19.632">U</text>
      <text x="-201.614" y="-13.310">U</text>
      <text x="-216.013" y="-17.513">A</text>
      <text x="-230.412" y="-21.716">A</text>
      <text x="-244.811" y="-25.919">G</text>
      <text x="-249.399" y="-35.603">C</text>
      <text x="-258.337" y="-41.111">A</text>
      <text x="-268.614" y="-40.866">A</text>
      <text x="-276.919" y="-35.184">U</text>
      <text x="-291.345" y="-39.295">A</text>
      <text x="-305.770" y="-43.405">A</text>
      <text x="-320.196" y="-47.515">G</text>
      <text x="-334.622" y="-51.626">C</text>
      <text x="-345.639" y="-63.773">G</text>
      <text x="-361.608" y="-60.042">U</text>
      <text x="-366.102" y="-44.271">A</text>
      <text x="-354.497" y="-32.683">A</text>
      <text x="-338.732" y="-37.200">G</text>
      <text x="-324.307" y="-33.090">C</text>
      <text x="-309.881" y="-28.979">U</text>
      <text x="-295.455" y="-24.869">U</text>
      <text x="-281.029" y="-20.758">G</text>
      <text x="-268.475" y="-5.958">A</text>
      <text x="-249.014" y="-11.520">C</text>
      <text x="-234.615" y="-7.317">U</text>
      <text x="-220.216" y="-3.114">U</text>
      <text x="-205.817" y="1.089">A</text>
      <text x="-181.637" y="17.250">G</text>
      <text x="-159.167" y="9.705">U</text>
      <text x="-148.217" y="19.957">U</text>
      <text x="-145.516" y="26.733">A</text>
      <text x="-137.216" y="30.224">U</text>
      <text x="-126.233" y="40.441">A</text>
      <text x="-115.251" y="50.658">G</text>
      <text x="-104.268" y="60.875">C</text>
      <text x="-93.286" y="71.092">G</text>
      <text x="-82.303" y="81.309">A</text>
      <text x="-84.828" y="88.371">U</text>
      <text x="-98.952" y="83.321">U</text>
      <text x="-113.077" y="78.271">C</text>
      <text x="-127.201" y="73.222">C</text>
      <text x="-132.251" y="87.346">U</text>
      <text x="-118.127" y="92.396">A</text>
      <text x="-104.002" y="97.445">C</text>
      <text x="-89.878" y="102.495">A</text>
      <text x="-92.403" y="109.557">G</text>
      <text x="-107.373" y="110.495">G</text>
      <text x="-122.344" y="111.433">G</text>
      <text x="-137.315" y="112.371">U</text>
      <text x="-152.285" y="113.309">U</text>
      <text x="-167.273" y="113.911">G</text>
      <text x="-182.271" y="114.176">G</text>
      <text x="-197.269" y="114.440">U</text>
      <text x="-202.680" y="100.281">A</text>
      <text x="-212.611" y="88.829">A</text>
      <text x="-225.861" y="81.466">A</text>
      <text x="-240.831" y="79.082">U</text>
      <text x="-255.713" y="81.965">C</text>
      <text x="-268.709" y="89.767">U</text>
      <text x="-278.251" y="101.545">U</text>
      <text x="-283.186" y="115.878">G</text>
      <text x="-282.919" y="131.034">U</text>
      <text x="-277.481" y="145.183">G</text>
      <text x="-267.529" y="156.617">C</text>
      <text x="-254.265" y="163.956">C</text>
      <text x="-239.291" y="166.312">A</text>
      <text x="-224.415" y="163.401">G</text>
      <text x="-211.433" y="155.575">C</text>
      <text x="-201.913" y="143.780">C</text>
      <text x="-197.004" y="129.438">A</text>
      <text x="-182.006" y="129.173">C</text>
      <text x="-167.008" y="128.909">C</text>
      <text x="-180.576" y="135.306">G</text>
      <text x="-190.675" y="146.397">C</text>
      <text x="-195.776" y="160.503">G</text>
      <text x="-195.108" y="175.488">G</text>
      <text x="-188.772" y="189.084">U</text>
      <text x="-177.726" y="199.232">C</text>
      <text x="-163.643" y="204.397">A</text>
      <text x="-148.655" y="203.796">U</text>
      <text x="-135.031" y="197.521">A</text>
      <text x="-124.833" y="186.520">C</text>
      <text x="-119.606" y="172.461">A</text>
      <text x="-120.139" y="157.470">A</text>
      <text x="-126.354" y="143.818">G</text>
      <text x="-137.308" y="133.571">A</text>
      <text x="-151.347" y="128.280">G</text>
      <text x="-136.377" y="127.342">A</text>
      <text x="-121.406" y="126.404">C</text>
      <text x="-106.435" y="125.466">C</text>
      <text x="-91.465" y="124.528">C</text>
      <text x="-68.873" y="129.873">A</text>
      <text x="-53.871" y="119.554">A</text>
      <text x="-41.291" y="127.724">A</text>
      <text x="-28.712" y="135.894">U</text>
      <text x="-16.132" y="144.064">U</text>
      <text x="-3.552" y="152.235">A</text>
      <text x="9.027" y="160.405">A</text>
      <text x="21.607" y="168.575">C</text>
      <text x="28.066" y="181.996">U</text>
      <text x="43.854" y="183.024">G</text>
      <text x="56.434" y="191.195">U</text>
      <text x="53.005" y="202.545">A</text>
      <text x="52.484" y="214.390">U</text>
      <text x="54.902" y="225.997">G</text>
      <text x="60.109" y="236.649">C</text>
      <text x="67.785" y="245.686">G</text>
      <text x="59.514" y="258.200">G</text>
      <text x="51.243" y="270.714">C</text>
      <text x="42.972" y="283.227">G</text>
      <text x="39.200" y="278.873">U</text>
      <text x="33.972" y="275.334">A</text>
      <text x="27.483" y="272.998">A</text>
      <text x="20.023" y="272.204">A</text>
      <text x="11.960" y="273.219">G</text>
      <text x="3.727" y="276.226">A</text>
      <text x="-4.199" y="281.306">G</text>
      <text x="-15.149" y="291.558">U</text>
      <text x="-26.098" y="301.810">G</text>
      <text x="-37.048" y="312.062">G</text>
      <text x="-52.410" y="315.846">U</text>
      <text x="-56.413" y="330.193">G</text>
      <text x="-67.362" y="340.445">U</text>
      <text x="-85.434" y="344.271">C</text>
      <text x="-89.745" y="361.338">A</text>
      <text x="-102.309" y="352.241">U</text>
      <text x="-116.403" y="345.774">G</text>
      <text x="-131.484" y="342.185">C</text>
      <text x="-146.971" y="341.610">U</text>
      <text x="-162.267" y="344.069">A</text>
      <text x="-176.785" y="349.466">U</text>
      <text x="-189.965" y="357.592">C</text>
      <text x="-201.301" y="368.132">U</text>
      <text x="-210.358" y="380.678">U</text>
      <text x="-216.789" y="394.748">A</text>
      <text x="-220.348" y="409.798">G</text>
      <text x="-220.899" y="425.248">A</text>
      <text x="-218.424" y="440.504">G</text>
      <text x="-213.019" y="454.979">G</text>
      <text x="-204.893" y="468.116">C</text>
      <text x="-215.909" y="478.297">U</text>
      <text x="-226.924" y="488.479">A</text>
      <text x="-237.939" y="498.660">A</text>
      <text x="-248.954" y="508.842">G</text>
      <text x="-259.970" y="519.023">A</text>
      <text x="-270.985" y="529.205">U</text>
      <text x="-282.000" y="539.387">C</text>
      <text x="-288.121" y="534.862">A</text>
      <text x="-296.085" y="532.436">A</text>
      <text x="-305.120" y="532.804">A</text>
      <text x="-314.212" y="536.370">A</text>
      <text x="-322.209" y="543.160">C</text>
      <text x="-327.966" y="552.790">G</text>
      <text x="-339.490" y="562.393">C</text>
      <text x="-351.013" y="571.996">A</text>
      <text x="-366.568" y="574.887">A</text>
      <text x="-371.392" y="588.979">C</text>
      <text x="-382.915" y="598.581">U</text>
      <text x="-400.369" y="596.708">G</text>
      <text x="-413.477" y="607.867">A</text>
      <text x="-414.377" y="624.718">G</text>
      <text x="-425.931" y="634.284">C</text>
      <text x="-437.485" y="643.849">U</text>
      <text x="-453.195" y="642.119">G</text>
      <text x="-465.474" y="652.068">U</text>
      <text x="-467.038" y="667.795">C</text>
      <text x="-456.960" y="679.969">A</text>
      <text x="-441.217" y="681.367">U</text>
      <text x="-429.151" y="671.160">A</text>
      <text x="-427.920" y="655.403">A</text>
      <text x="-416.366" y="645.838">G</text>
      <text x="-404.812" y="636.272">C</text>
      <text x="-392.354" y="639.262">C</text>
      <text x="-380.254" y="634.497">C</text>
      <text x="-372.967" y="623.493">A</text>
      <text x="-373.312" y="610.105">A</text>
      <text x="-361.789" y="600.502">G</text>
      <text x="-347.058" y="598.298">A</text>
      <text x="-341.410" y="583.519">U</text>
      <text x="-329.887" y="573.917">G</text>
      <text x="-318.364" y="564.314">C</text>
      <text x="-313.005" y="569.561">C</text>
      <text x="-323.501" y="580.278">C</text>
      <text x="-333.996" y="590.995">C</text>
      <text x="-344.491" y="601.711">U</text>
      <text x="-354.987" y="612.428">A</text>
      <text x="-365.482" y="623.145">A</text>
      <text x="-375.978" y="633.861">G</text>
      <text x="-365.261" y="644.356">A</text>
      <text x="-354.766" y="633.640">C</text>
      <text x="-344.270" y="622.923">C</text>
      <text x="-333.775" y="612.207">A</text>
      <text x="-323.279" y="601.490">A</text>
      <text x="-312.784" y="590.773">C</text>
      <text x="-302.289" y="580.057">C</text>
      <text x="-296.930" y="585.304">U</text>
      <text x="-312.389" y="590.778">U</text>
      <text x="-315.111" y="606.950">A</text>
      <text x="-302.297" y="617.183">A</text>
      <text x="-287.128" y="610.951">A</text>
      <text x="-285.209" y="594.665">A</text>
      <text x="-266.356" y="572.704">C</text>
      <text x="-271.819" y="550.402">G</text>
      <text x="-260.803" y="540.220">A</text>
      <text x="-249.788" y="530.039">U</text>
      <text x="-238.773" y="519.857">C</text>
      <text x="-227.758" y="509.676">U</text>
      <text x="-216.742" y="499.494">U</text>
      <text x="-205.727" y="489.312">A</text>
      <text x="-194.712" y="479.131">G</text>
      <text x="-183.056" y="487.781">U</text>
      <text x="-170.007" y="494.147">G</text>
      <text x="-156.007" y="498.009">C</text>
      <text x="-141.531" y="499.236">C</text>
      <text x="-127.073" y="497.783">C</text>
      <text x="-113.122" y="493.700">C</text>
      <text x="-100.155" y="487.123">A</text>
      <text x="-88.613" y="478.274">C</text>
      <text x="-78.889" y="467.454">G</text>
      <text x="-71.315" y="455.028">A</text>
      <text x="-66.149" y="441.420">C</text>
      <text x="-63.569" y="427.090">U</text>
      <text x="-63.663" y="412.526">U</text>
      <text x="-66.431" y="398.223">A</text>
      <text x="-71.780" y="384.667">U</text>
      <text x="-79.528" y="372.321">U</text>
      <text x="-67.513" y="372.465">A</text>
      <text x="-58.289" y="364.155">A</text>
      <text x="-57.110" y="351.394">A</text>
      <text x="-46.160" y="341.142">C</text>
      <text x="-31.582" y="338.092">C</text>
      <text x="-26.796" y="323.012">C</text>
      <text x="-15.846" y="312.759">C</text>
      <text x="-4.897" y="302.507">A</text>
      <text x="6.053" y="292.255">C</text>
      <text x="12.458" y="296.157">G</text>
      <text x="4.655" y="308.968">A</text>
      <text x="17.465" y="316.771">A</text>
      <text x="25.268" y="303.961">A</text>
      <text x="31.674" y="307.863">G</text>
      <text x="27.586" y="322.295">C</text>
      <text x="23.499" y="336.727">U</text>
      <text x="19.412" y="351.160">A</text>
      <text x="8.207" y="362.329">A</text>
      <text x="12.184" y="376.683">G</text>
      <text x="8.627" y="380.155">G</text>
      <text x="6.853" y="384.222">C</text>
      <text x="6.800" y="388.137">C</text>
      <text x="8.127" y="391.274">C</text>
      <text x="4.179" y="405.746">A</text>
      <text x="-10.180" y="411.323">A</text>
      <text x="-18.406" y="424.137">A</text>
      <text x="-17.519" y="439.160">C</text>
      <text x="-8.070" y="450.642">U</text>
      <text x="-12.018" y="465.113">G</text>
      <text x="-15.966" y="479.585">G</text>
      <text x="-19.914" y="494.056">G</text>
      <text x="-34.661" y="498.588">A</text>
      <text x="-44.599" y="510.388">U</text>
      <text x="-46.556" y="525.691">U</text>
      <text x="-39.910" y="539.613">A</text>
      <text x="-26.779" y="547.712">G</text>
      <text x="-11.355" y="547.403">A</text>
      <text x="1.441" y="538.786">U</text>
      <text x="7.526" y="524.609">A</text>
      <text x="4.958" y="509.397">C</text>
      <text x="-5.443" y="498.004">C</text>
      <text x="-1.495" y="483.533">C</text>
      <text x="2.453" y="469.062">C</text>
      <text x="6.401" y="454.591">A</text>
      <text x="20.373" y="449.498">C</text>
      <text x="28.766" y="437.007">U</text>
      <text x="28.187" y="421.791">A</text>
      <text x="18.650" y="409.694">U</text>
      <text x="22.598" y="395.223">G</text>
      <text x="26.616" y="380.771">C</text>
      <text x="37.529" y="370.633">C</text>
      <text x="33.844" y="355.247">U</text>
      <text x="37.932" y="340.815">A</text>
      <text x="42.019" y="326.382">G</text>
      <text x="46.106" y="311.950">C</text>
      <text x="43.000" y="326.625">C</text>
      <text x="42.526" y="341.617">C</text>
      <text x="44.700" y="356.459">U</text>
      <text x="49.452" y="370.686">A</text>
      <text x="56.634" y="383.855">A</text>
      <text x="66.023" y="395.553">A</text>
      <text x="77.325" y="405.416">U</text>
      <text x="90.187" y="413.134">C</text>
      <text x="104.206" y="418.468">C</text>
      <text x="118.946" y="421.251">U</text>
      <text x="133.945" y="421.395">G</text>
      <text x="148.736" y="418.896">A</text>
      <text x="162.855" y="413.832">U</text>
      <text x="175.862" y="406.361">G</text>
      <text x="187.351" y="396.717">C</text>
      <text x="196.963" y="385.201">U</text>
      <text x="204.397" y="372.173">U</text>
      <text x="209.421" y="358.040">A</text>
      <text x="211.879" y="343.242">C</text>
      <text x="211.693" y="328.243">U</text>
      <text x="208.869" y="313.512">C</text>
      <text x="203.496" y="299.507">U</text>
      <text x="195.741" y="286.667">A</text>
      <text x="185.847" y="275.393">C</text>
      <text x="174.123" y="266.037">C</text>
      <text x="160.934" y="258.891">A</text>
      <text x="146.694" y="254.179">A</text>
      <text x="131.846" y="252.047">A</text>
      <text x="116.855" y="252.563">G</text>
      <text x="102.188" y="255.710">C</text>
      <text x="88.305" y="261.390">A</text>
      <text x="75.639" y="269.425">U</text>
      <text x="64.585" y="279.565">C</text>
      <text x="55.486" y="291.498">C</text>
      <text x="63.757" y="278.984">G</text>
      <text x="72.028" y="266.471">C</text>
      <text x="80.298" y="253.957">C</text>
      <text x="129.497" y="263.617">U</text>
      <text x="173.137" y="220.121">G</text>
      <text x="176.102" y="234.825">A</text>
      <text x="179.066" y="249.529">G</text>
      <text x="168.718" y="257.016">A</text>
      <text x="161.956" y="267.797">A</text>
      <text x="159.739" y="280.282">C</text>
      <text x="162.355" y="292.642">U</text>
      <text x="169.389" y="303.080">A</text>
      <text x="179.786" y="310.093">C</text>
      <text x="192.009" y="312.686">G</text>
      <text x="195.068" y="327.371">A</text>
      <text x="198.127" y="342.056">G</text>
      <text x="201.186" y="356.740">C</text>
      <text x="192.316" y="369.821">G</text>
      <text x="195.375" y="385.326">C</text>
      <text x="208.548" y="394.057">A</text>
      <text x="224.021" y="390.834">A</text>
      <text x="232.612" y="377.569">A</text>
      <text x="229.226" y="362.132">C</text>
      <text x="215.870" y="353.681">G</text>
      <text x="212.811" y="338.997">C</text>
      <text x="209.752" y="324.312">U</text>
      <text x="206.693" y="309.627">U</text>
      <text x="219.991" y="298.529">A</text>
      <text x="225.794" y="282.114">A</text>
      <text x="222.389" y="264.947">A</text>
      <text x="210.641" y="251.855">A</text>
      <text x="193.771" y="246.565">C</text>
      <text x="190.806" y="231.861">U</text>
      <text x="187.841" y="217.156">C</text>
      <text x="193.149" y="211.857">U</text>
      <text x="202.800" y="223.340">A</text>
      <text x="207.607" y="237.549">A</text>
      <text x="222.212" y="240.968">G</text>
      <text x="232.828" y="230.371">G</text>
      <text x="229.433" y="215.760">A</text>
      <text x="215.231" y="210.929">C</text>
      <text x="203.764" y="201.259">U</text>
      <text x="209.071" y="195.960">U</text>
      <text x="223.771" y="198.949">G</text>
      <text x="238.465" y="201.960">G</text>
      <text x="253.155" y="204.996">C</text>
      <text x="260.808" y="209.740">G</text>
      <text x="267.896" y="208.017">G</text>
      <text x="282.596" y="211.006">U</text>
      <text x="297.295" y="213.994">G</text>
      <text x="311.994" y="216.982">C</text>
      <text x="326.694" y="219.971">C</text>
      <text x="338.676" y="230.302">C</text>
      <text x="352.689" y="225.255">C</text>
      <text x="367.389" y="228.244">A</text>
      <text x="369.500" y="249.162">A</text>
      <text x="378.623" y="268.082">A</text>
      <text x="393.647" y="282.731">C</text>
      <text x="412.754" y="291.356">C</text>
      <text x="433.639" y="292.931">C</text>
      <text x="453.785" y="287.281">A</text>
      <text x="470.771" y="275.098">C</text>
      <text x="482.560" y="257.861">C</text>
      <text x="496.876" y="262.340">U</text>
      <text x="511.191" y="266.819">A</text>
      <text x="525.507" y="271.299">G</text>
      <text x="539.822" y="275.778">A</text>
      <text x="524.742" y="298.581">G</text>
      <text x="532.098" y="333.522">G</text>
      <text x="567.588" y="362.127">A</text>
      <text x="580.759" y="369.305">G</text>
      <text x="593.930" y="376.483">C</text>
      <text x="607.101" y="383.661">C</text>
      <text x="620.272" y="390.839">U</text>
      <text x="633.443" y="398.018">G</text>
      <text x="646.614" y="405.196">U</text>
      <text x="659.785" y="412.374">U</text>
      <text x="672.944" y="419.573">C</text>
      <text x="686.092" y="426.794">U</text>
      <text x="683.172" y="436.260">A</text>
      <text x="684.906" y="447.408">U</text>
      <text x="692.040" y="457.885">A</text>
      <text x="704.143" y="465.087">A</text>
      <text x="713.276" y="476.986">U</text>
      <text x="722.409" y="488.885">C</text>
      <text x="731.543" y="500.784">G</text>
      <text x="727.008" y="515.624">A</text>
      <text x="732.095" y="530.284">U</text>
      <text x="744.846" y="539.126">A</text>
      <text x="760.358" y="538.752">C</text>
      <text x="772.668" y="529.304">C</text>
      <text x="777.040" y="514.416">C</text>
      <text x="771.795" y="499.812">C</text>
      <text x="758.949" y="491.108">A</text>
      <text x="743.442" y="491.651">C</text>
      <text x="734.309" y="479.752">G</text>
      <text x="725.176" y="467.853">A</text>
      <text x="716.043" y="455.954">U</text>
      <text x="720.685" y="450.063">A</text>
      <text x="732.466" y="459.348">C</text>
      <text x="744.247" y="468.633">A</text>
      <text x="756.028" y="477.918">C</text>
      <text x="765.312" y="466.137">C</text>
      <text x="753.532" y="456.852">C</text>
      <text x="741.751" y="447.567">G</text>
      <text x="729.970" y="438.282">A</text>
      <text x="734.613" y="432.392">C</text>
      <text x="748.316" y="438.492">C</text>
      <text x="762.020" y="444.591">A</text>
      <text x="775.724" y="450.691">U</text>
      <text x="789.428" y="456.790">U</text>
      <text x="803.132" y="462.890">C</text>
      <text x="816.836" y="468.990">C</text>
      <text x="815.882" y="478.034">U</text>
      <text x="817.028" y="487.042">U</text>
      <text x="820.204" y="495.535">G</text>
      <text x="825.236" y="503.060">C</text>
      <text x="831.850" y="509.222">C</text>
      <text x="839.690" y="513.694">A</text>
      <text x="848.333" y="516.245">G</text>
      <text x="857.316" y="516.744">A</text>
      <text x="866.162" y="515.172">G</text>
      <text x="874.397" y="511.618">C</text>
      <text x="881.587" y="506.277">A</text>
      <text x="887.351" y="499.441">G</text>
      <text x="901.188" y="505.231">C</text>
      <text x="907.792" y="511.352">C</text>
      <text x="915.079" y="511.017">U</text>
      <text x="928.935" y="516.763">A</text>
      <text x="933.121" y="521.614">U</text>
      <text x="938.334" y="523.443">A</text>
      <text x="942.898" y="522.501">U</text>
      <text x="956.791" y="528.158">A</text>
      <text x="970.683" y="533.815">C</text>
      <text x="984.576" y="539.471">C</text>
      <text x="998.441" y="545.195">G</text>
      <text x="1012.278" y="550.985">C</text>
      <text x="1026.116" y="556.776">C</text>
      <text x="1039.944" y="562.588">G</text>
      <text x="1053.763" y="568.423">U</text>
      <text x="1067.581" y="574.257">C</text>
      <text x="1066.170" y="589.430">G</text>
      <text x="1071.790" y="604.594">C</text>
      <text x="1084.082" y="616.490">C</text>
      <text x="1101.189" y="622.215">A</text>
      <text x="1120.023" y="619.896">G</text>
      <text x="1133.439" y="626.605">C</text>
      <text x="1146.855" y="633.314">U</text>
      <text x="1144.756" y="640.075">C</text>
      <text x="1145.004" y="647.848">A</text>
      <text x="1147.987" y="655.789">C</text>
      <text x="1153.786" y="662.922">C</text>
      <text x="1162.136" y="668.255">U</text>
      <text x="1172.429" y="670.895">C</text>
      <text x="1185.736" y="677.818">U</text>
      <text x="1199.042" y="684.741">U</text>
      <text x="1207.396" y="698.853">U</text>
      <text x="1223.789" y="698.405">U</text>
      <text x="1231.358" y="683.857">G</text>
      <text x="1222.316" y="670.175">A</text>
      <text x="1205.966" y="671.434">A</text>
      <text x="1192.659" y="664.511">A</text>
      <text x="1179.352" y="657.588">G</text>
      <text x="1182.599" y="650.827">C</text>
      <text x="1192.338" y="630.544">A</text>
      <text x="1206.061" y="636.599">C</text>
      <text x="1215.302" y="650.147">A</text>
      <text x="1231.633" y="648.648">G</text>
      <text x="1238.253" y="633.644">C</text>
      <text x="1228.353" y="620.571">A</text>
      <text x="1212.117" y="622.876">G</text>
      <text x="1198.393" y="616.820">U</text>
      <text x="1171.773" y="607.252">G</text>
      <text x="1153.564" y="619.898">A</text>
      <text x="1140.147" y="613.189">G</text>
      <text x="1126.731" y="606.480">C</text>
      <text x="1129.482" y="599.503">A</text>
      <text x="1143.437" y="605.003">C</text>
      <text x="1158.272" y="602.789">A</text>
      <text x="1148.937" y="591.048">A</text>
      <text x="1134.982" y="585.547">U</text>
      <text x="1137.732" y="578.570">A</text>
      <text x="1152.118" y="582.819">G</text>
      <text x="1166.503" y="587.068">C</text>
      <text x="1171.567" y="601.736">C</text>
      <text x="1184.305" y="610.598">C</text>
      <text x="1199.818" y="610.247">A</text>
      <text x="1212.141" y="600.818">A</text>
      <text x="1216.537" y="585.936">A</text>
      <text x="1211.314" y="571.325">C</text>
      <text x="1198.481" y="562.601">C</text>
      <text x="1182.973" y="563.120">C</text>
      <text x="1170.752" y="572.682">G</text>
      <text x="1156.367" y="568.433">C</text>
      <text x="1141.981" y="564.184">U</text>
      <text x="1132.438" y="551.872">A</text>
      <text x="1119.687" y="544.085">A</text>
      <text x="1105.625" y="541.461">U</text>
      <text x="1092.177" y="543.903">A</text>
      <text x="1081.027" y="550.652">A</text>
      <text x="1073.416" y="560.438">G</text>
      <text x="1059.597" y="554.604">A</text>
      <text x="1045.779" y="548.769">C</text>
      <text x="1040.901" y="543.345">A</text>
      <text x="1031.906" y="542.938">G</text>
      <text x="1018.069" y="537.148">G</text>
      <text x="1004.231" y="531.358">U</text>
      <text x="1002.574" y="528.381">C</text>
      <text x="999.455" y="526.015">G</text>
      <text x="995.157" y="524.911">A</text>
      <text x="990.233" y="525.579">G</text>
      <text x="976.340" y="519.922">G</text>
      <text x="962.448" y="514.265">U</text>
      <text x="948.555" y="508.609">A</text>
      <text x="934.681" y="502.907">U</text>
      <text x="920.825" y="497.162">A</text>
      <text x="906.979" y="491.394">G</text>
      <text x="893.141" y="485.603">C</text>
      <text x="891.774" y="464.726">C</text>
      <text x="879.710" y="447.538">U</text>
      <text x="860.400" y="439.091">A</text>
      <text x="839.435" y="441.922">U</text>
      <text x="822.935" y="455.286">G</text>
      <text x="809.231" y="449.186">G</text>
      <text x="795.527" y="443.086">A</text>
      <text x="781.824" y="436.987">A</text>
      <text x="768.120" y="430.887">U</text>
      <text x="754.416" y="424.788">G</text>
      <text x="740.712" y="418.688">G</text>
      <text x="714.654" y="402.478">G</text>
      <text x="693.312" y="413.646">A</text>
      <text x="680.164" y="406.425">G</text>
      <text x="675.869" y="400.529">A</text>
      <text x="666.963" y="399.203">A</text>
      <text x="653.792" y="392.025">A</text>
      <text x="640.621" y="384.847">U</text>
      <text x="627.450" y="377.668">G</text>
      <text x="614.279" y="370.490">G</text>
      <text x="601.108" y="363.312">G</text>
      <text x="587.937" y="356.134">C</text>
      <text x="574.766" y="348.956">U</text>
      <text x="576.154" y="341.585">A</text>
      <text x="590.895" y="344.361">C</text>
      <text x="605.049" y="339.395">A</text>
      <text x="593.671" y="329.620">U</text>
      <text x="578.930" y="326.844">U</text>
      <text x="580.318" y="319.474">U</text>
      <text x="595.197" y="317.578">U</text>
      <text x="610.077" y="315.681">C</text>
      <text x="624.957" y="313.785">U</text>
      <text x="639.836" y="311.889">A</text>
      <text x="656.313" y="315.884">G</text>
      <text x="664.713" y="301.158">C</text>
      <text x="652.888" y="289.009">A</text>
      <text x="637.940" y="297.009">U</text>
      <text x="623.060" y="298.906">A</text>
      <text x="608.181" y="300.802">G</text>
      <text x="593.301" y="302.698">A</text>
      <text x="578.421" y="304.594">A</text>
      <text x="576.727" y="297.288">G</text>
      <text x="591.340" y="293.900">A</text>
      <text x="605.952" y="290.512">C</text>
      <text x="620.564" y="287.124">C</text>
      <text x="635.177" y="283.736">C</text>
      <text x="649.789" y="280.348">C</text>
      <text x="664.402" y="276.960">C</text>
      <text x="675.362" y="266.719">C</text>
      <text x="661.013" y="262.347">C</text>
      <text x="646.401" y="265.735">A</text>
      <text x="631.789" y="269.123">C</text>
      <text x="617.176" y="272.511">G</text>
      <text x="602.564" y="275.900">G</text>
      <text x="587.952" y="279.288">A</text>
      <text x="573.339" y="282.676">A</text>
      <text x="571.645" y="275.370">G</text>
      <text x="585.841" y="270.524">G</text>
      <text x="600.037" y="265.679">G</text>
      <text x="614.233" y="260.834">G</text>
      <text x="628.429" y="255.988">G</text>
      <text x="642.625" y="251.143">C</text>
      <text x="656.820" y="246.298">G</text>
      <text x="670.894" y="253.488">U</text>
      <text x="685.905" y="248.541">G</text>
      <text x="692.946" y="234.392">A</text>
      <text x="687.841" y="219.435">A</text>
      <text x="673.618" y="212.544">A</text>
      <text x="658.716" y="217.807">U</text>
      <text x="651.975" y="232.102">C</text>
      <text x="637.779" y="236.947">G</text>
      <text x="623.583" y="241.792">C</text>
      <text x="609.388" y="246.638">C</text>
      <text x="595.192" y="251.483">C</text>
      <text x="580.996" y="256.328">C</text>
      <text x="566.800" y="261.174">C</text>
      <text x="578.783" y="252.151">A</text>
      <text x="584.949" y="238.477">A</text>
      <text x="583.777" y="223.523">A</text>
      <text x="575.557" y="210.976">A</text>
      <text x="562.314" y="203.931">G</text>
      <text x="547.315" y="204.123">G</text>
      <text x="534.259" y="211.507">C</text>
      <text x="526.363" y="224.261">G</text>
      <text x="525.576" y="239.240">G</text>
      <text x="532.092" y="252.752">A</text>
      <text x="544.302" y="261.462">U</text>
      <text x="529.986" y="256.983">U</text>
      <text x="515.671" y="252.504">U</text>
      <text x="501.355" y="248.024">A</text>
      <text x="487.040" y="243.545">G</text>
      <text x="487.845" y="237.096">C</text>
      <text x="487.949" y="230.598">A</text>
      <text x="487.353" y="224.126">G</text>
      <text x="486.061" y="217.757">U</text>
      <text x="484.090" y="211.564">A</text>
      <text x="481.462" y="205.620">A</text>
      <text x="493.882" y="197.209">A</text>
      <text x="506.302" y="188.798">G</text>
      <text x="522.067" y="187.466">C</text>
      <text x="528.267" y="173.923">A</text>
      <text x="540.687" y="165.512">G</text>
      <text x="553.107" y="157.101">G</text>
      <text x="567.250" y="163.265">A</text>
      <text x="582.476" y="160.781">U</text>
      <text x="593.927" y="150.443">A</text>
      <text x="597.949" y="135.549">A</text>
      <text x="593.258" y="120.852">U</text>
      <text x="581.352" y="111.042">A</text>
      <text x="566.029" y="109.248">A</text>
      <text x="552.180" y="116.044">U</text>
      <text x="544.222" y="129.261">G</text>
      <text x="544.696" y="144.681">C</text>
      <text x="532.276" y="153.092">C</text>
      <text x="519.856" y="161.503">U</text>
      <text x="504.979" y="162.233">A</text>
      <text x="497.891" y="176.378">C</text>
      <text x="485.471" y="184.789">U</text>
      <text x="473.051" y="193.200">U</text>
      <text x="465.489" y="185.913">U</text>
      <text x="456.770" y="180.048">A</text>
      <text x="447.158" y="175.786">A</text>
      <text x="436.945" y="173.257">G</text>
      <text x="426.440" y="172.543">U</text>
      <text x="415.965" y="173.666">U</text>
      <text x="405.838" y="176.595">G</text>
      <text x="396.369" y="181.242">G</text>
      <text x="387.846" y="187.470">C</text>
      <text x="380.530" y="195.089">C</text>
      <text x="374.647" y="203.869">C</text>
      <text x="370.377" y="213.544">U</text>
      <text x="355.678" y="210.556">G</text>
      <text x="344.747" y="200.438">A</text>
      <text x="329.682" y="205.271">G</text>
      <text x="314.983" y="202.283">G</text>
      <text x="300.283" y="199.295">C</text>
      <text x="285.584" y="196.306">A</text>
      <text x="270.885" y="193.318">C</text>
      <text x="256.190" y="190.306">G</text>
      <text x="241.501" y="187.271">U</text>
      <text x="235.661" y="182.898">A</text>
      <text x="226.759" y="184.249">C</text>
      <text x="212.060" y="181.261">A</text>
      <text x="208.835" y="174.490">U</text>
      <text x="223.167" y="170.065">A</text>
      <text x="237.500" y="165.640">C</text>
      <text x="251.833" y="161.215">C</text>
      <text x="266.781" y="162.455">G</text>
      <text x="279.019" y="153.780">C</text>
      <text x="282.800" y="139.265">C</text>
      <text x="276.350" y="125.722">C</text>
      <text x="262.697" y="119.510">G</text>
      <text x="248.250" y="123.545">U</text>
      <text x="239.792" y="135.931">C</text>
      <text x="227.323" y="144.270">A</text>
      <text x="214.854" y="152.608">C</text>
      <text x="202.386" y="160.947">C</text>
      <text x="199.161" y="154.175">C</text>
      <text x="206.106" y="140.880">U</text>
      <text x="213.050" y="127.584">C</text>
      <text x="226.297" y="118.934">C</text>
      <text x="225.332" y="104.071">U</text>
      <text x="232.276" y="90.775">C</text>
      <text x="246.432" y="95.812">A</text>
      <text x="261.151" y="98.829">U</text>
      <text x="276.146" y="99.769">A</text>
      <text x="291.126" y="98.612">A</text>
      <text x="305.800" y="95.382">G</text>
      <text x="319.881" y="90.141">C</text>
      <text x="333.095" y="82.991">U</text>
      <text x="345.186" y="74.071">A</text>
      <text x="355.918" y="63.556">C</text>
      <text x="365.082" y="51.649">U</text>
      <text x="372.499" y="38.583">U</text>
      <text x="378.026" y="24.611">A</text>
      <text x="381.554" y="10.006">C</text>
      <text x="383.016" y="-4.947">U</text>
      <text x="382.382" y="-19.959">C</text>
      <text x="379.664" y="-34.736">C</text>
      <text x="374.917" y="-48.991">U</text>
      <text x="368.232" y="-62.447">A</text>
      <text x="359.739" y="-74.841">U</text>
      <text x="349.604" y="-85.932">A</text>
      <text x="338.024" y="-95.506">C</text>
      <text x="325.224" y="-103.374">C</text>
      <text x="311.453" y="-109.384">C</text>
      <text x="296.980" y="-113.419">U</text>
      <text x="282.087" y="-115.401">A</text>
      <text x="267.062" y="-115.290">A</text>
      <text x="252.200" y="-113.089">U</text>
      <text x="237.788" y="-108.841">A</text>
      <text x="224.107" y="-102.629">C</text>
      <text x="211.425" y="-94.573">A</text>
      <text x="199.987" y="-84.831">C</text>
      <text x="190.016" y="-73.591">C</text>
      <text x="181.706" y="-61.073">A</text>
      <text x="175.220" y="-47.521">U</text>
      <text x="170.683" y="-33.197">C</text>
      <text x="168.184" y="-18.382">C</text>
      <text x="167.771" y="-3.362">A</text>
      <text x="169.452" y="11.568">G</text>
      <text x="173.195" y="26.119">C</text>
      <text x="178.927" y="40.008">U</text>
      <text x="186.536" y="52.964">G</text>
      <text x="195.874" y="64.734">A</text>
      <text x="206.760" y="75.090">A</text>
      <text x="218.981" y="83.831">G</text>
      <text x="212.036" y="97.126">A</text>
      <text x="199.286" y="104.825">U</text>
      <text x="199.755" y="120.640">G</text>
      <text x="192.810" y="133.935">A</text>
      <text x="185.865" y="147.231">G</text>
      <text x="178.708" y="144.991">G</text>
      <text x="183.187" y="130.676">U</text>
      <text x="187.666" y="116.360">A</text>
      <text x="192.146" y="102.044">A</text>
      <text x="196.625" y="87.729">G</text>
      <text x="201.104" y="73.413">U</text>
      <text x="205.584" y="59.098">C</text>
      <text x="210.063" y="44.782">G</text>
      <text x="195.747" y="40.303">U</text>
      <text x="191.268" y="54.618">A</text>
      <text x="186.789" y="68.934">A</text>
      <text x="182.309" y="83.250">C</text>
      <text x="177.830" y="97.565">A</text>
      <text x="173.351" y="111.881">A</text>
      <text x="168.871" y="126.196">G</text>
      <text x="164.392" y="140.512">G</text>
      <text x="157.234" y="138.272">U</text>
      <text x="159.107" y="123.389">A</text>
      <text x="160.979" y="108.507">A</text>
      <text x="162.851" y="93.624">G</text>
      <text x="164.724" y="78.741">U</text>
      <text x="166.596" y="63.859">G</text>
      <text x="168.468" y="48.976">U</text>
      <text x="170.341" y="34.093">A</text>
      <text x="172.213" y="19.211">C</text>
      <text x="174.085" y="4.328">C</text>
      <text x="184.419" y="-8.405">G</text>
      <text x="178.307" y="-23.623">G</text>
      <text x="162.036" y="-25.670">A</text>
      <text x="152.345" y="-12.441">A</text>
      <text x="159.203" y="2.456">G</text>
      <text x="157.330" y="17.338">G</text>
      <text x="155.458" y="32.221">U</text>
      <text x="153.586" y="47.104">G</text>
      <text x="151.713" y="61.986">U</text>
      <text x="149.841" y="76.869">A</text>
      <text x="147.969" y="91.752">C</text>
      <text x="146.096" y="106.634">U</text>
      <text x="144.224" y="121.517">U</text>
      <text x="142.352" y="136.400">A</text>
      <text x="134.854" y="136.219">G</text>
      <text x="135.215" y="121.224">C</text>
      <text x="135.576" y="106.228">A</text>
      <text x="135.937" y="91.232">U</text>
      <text x="136.298" y="76.237">A</text>
      <text x="129.112" y="63.070">C</text>
      <text x="121.302" y="75.876">C</text>
    </g>
  </g>
</svg>
