<?xml version="1.0" encoding="UTF-8" standalone="yes"?>
<svg xmlns="http://www.w3.org/2000/svg" height="452" width="452">
<script type="text/ecmascript">
      <![CDATA[
        var shown = 1;
        function click() {
             var seq = document.getElementById("seq");
             if (shown==1) {
               seq.setAttribute("style", "visibility: hidden");
               shown = 0;
             } else {
               seq.setAttribute("style", "visibility: visible");
               shown = 1;
             }
         }
        ]]>
</script>
  <rect style="stroke: white; fill: white" height="452" x="0" y="0" width="452" onclick="click(evt)" />
  <g transform="scale(1.699642,1.699642) translate(13.115578,17.346718)">
    <polyline style="stroke: black; fill: none; stroke-width: 1.5" id="outline" points="
      114.498,6.096
      113.806,21.080
      113.113,36.064
      112.420,51.048
      111.727,66.032
      111.035,81.016
      110.342,96.000
      93.289,96.799
      79.218,105.026
      70.982,118.191
      56.237,115.434
      41.493,112.678
      26.748,109.922
      12.290,101.068
      -0.221,112.510
      7.311,127.699
      23.992,124.666
      38.736,127.423
      53.481,130.179
      68.226,132.935
      70.181,142.350
      74.861,150.751
      81.836,157.370
      76.417,171.357
      70.999,185.344
      65.580,199.332
      50.721,204.206
      42.516,217.517
      44.838,232.982
      56.591,243.296
      72.226,243.592
      84.360,233.728
      87.264,218.362
      79.567,204.750
      84.986,190.763
      90.404,176.776
      95.823,162.789
      106.227,163.283
      116.495,160.353
      125.504,154.143
      132.213,145.169
      135.784,134.272
      135.685,122.542
      150.685,122.542
      165.685,122.542
      180.685,122.542
      195.685,122.542
      205.597,134.636
      220.974,137.479
      234.555,129.727
      239.928,115.042
      234.555,100.356
      220.974,92.605
      205.597,95.447
      195.685,107.542
      180.685,107.542
      165.685,107.542
      150.685,107.542
      135.685,107.542
      125.326,96.693
      126.019,81.709
      126.711,66.725
      127.404,51.741
      128.097,36.757
      128.790,21.773
      129.482,6.789
      132.560,-12.347
    " />
    <g style="stroke: black; stroke-width: 1" id="pairs">
      <line id="1,66" x1="114.498" y1=" 6.096" x2="129.482" y2=" 6.789" />
      <line id="2,65" x1="113.806" y1="21.080" x2="128.790" y2="21.773" />
      <line id="3,64" x1="113.113" y1="36.064" x2="128.097" y2="36.757" />
      <line id="4,63" x1="112.420" y1="51.048" x2="127.404" y2="51.741" />
      <line id="5,62" x1="111.727" y1="66.032" x2="126.711" y2="66.725" />
      <line id="6,61" x1="111.035" y1="81.016" x2="126.019" y2="81.709" />
      <line id="7,60" x1="110.342" y1="96.000" x2="125.326" y2="96.693" />
      <line id="10,20" x1="70.982" y1="118.191" x2="68.226" y2="132.935" />
      <line id="11,19" x1="56.237" y1="115.434" x2="53.481" y2="130.179" />
      <line id="12,18" x1="41.493" y1="112.678" x2="38.736" y2="127.423" />
      <line id="13,17" x1="26.748" y1="109.922" x2="23.992" y2="124.666" />
      <line id="23,37" x1="81.836" y1="157.370" x2="95.823" y2="162.789" />
      <line id="24,36" x1="76.417" y1="171.357" x2="90.404" y2="176.776" />
      <line id="25,35" x1="70.999" y1="185.344" x2="84.986" y2="190.763" />
      <line id="26,34" x1="65.580" y1="199.332" x2="79.567" y2="204.750" />
      <line id="43,59" x1="135.685" y1="122.542" x2="135.685" y2="107.542" />
      <line id="44,58" x1="150.685" y1="122.542" x2="150.685" y2="107.542" />
      <line id="45,57" x1="165.685" y1="122.542" x2="165.685" y2="107.542" />
      <line id="46,56" x1="180.685" y1="122.542" x2="180.685" y2="107.542" />
      <line id="47,55" x1="195.685" y1="122.542" x2="195.685" y2="107.542" />
    </g>
    <g style="font-family: SansSerif" transform="translate(-4.6, 4)" id="seq">
      <text x="114.498" y="6.096">G</text>
      <text x="113.806" y="21.080">A</text>
      <text x="113.113" y="36.064">C</text>
      <text x="112.420" y="51.048">U</text>
      <text x="111.727" y="66.032">C</text>
      <text x="111.035" y="81.016">U</text>
      <text x="110.342" y="96.000">G</text>
      <text x="93.289" y="96.799">U</text>
      <text x="79.218" y="105.026">A</text>
      <text x="70.982" y="118.191">G</text>
      <text x="56.237" y="115.434">U</text>
      <text x="41.493" y="112.678">G</text>
      <text x="26.748" y="109.922">A</text>
      <text x="12.290" y="101.068">A</text>
      <text x="-0.221" y="112.510">A</text>
      <text x="7.311" y="127.699">U</text>
      <text x="23.992" y="124.666">U</text>
      <text x="38.736" y="127.423">C</text>
      <text x="53.481" y="130.179">A</text>
      <text x="68.226" y="132.935">U</text>
      <text x="70.181" y="142.350">G</text>
      <text x="74.861" y="150.751">U</text>
      <text x="81.836" y="157.370">U</text>
      <text x="76.417" y="171.357">G</text>
      <text x="70.999" y="185.344">A</text>
      <text x="65.580" y="199.332">G</text>
      <text x="50.721" y="204.206">U</text>
      <text x="42.516" y="217.517">U</text>
      <text x="44.838" y="232.982">G</text>
      <text x="56.591" y="243.296">C</text>
      <text x="72.226" y="243.592">A</text>
      <text x="84.360" y="233.728">A</text>
      <text x="87.264" y="218.362">G</text>
      <text x="79.567" y="204.750">C</text>
      <text x="84.986" y="190.763">U</text>
      <text x="90.404" y="176.776">C</text>
      <text x="95.823" y="162.789">A</text>
      <text x="106.227" y="163.283">U</text>
      <text x="116.495" y="160.353">U</text>
      <text x="125.504" y="154.143">G</text>
      <text x="132.213" y="145.169">A</text>
      <text x="135.784" y="134.272">U</text>
      <text x="135.685" y="122.542">G</text>
      <text x="150.685" y="122.542">U</text>
      <text x="165.685" y="122.542">A</text>
      <text x="180.685" y="122.542">C</text>
      <text x="195.685" y="122.542">A</text>
      <text x="205.597" y="134.636">U</text>
      <text x="220.974" y="137.479">U</text>
      <text x="234.555" y="129.727">G</text>
      <text x="239.928" y="115.042">A</text>
      <text x="234.555" y="100.356">G</text>
      <text x="220.974" y="92.605">A</text>
      <text x="205.597" y="95.447">G</text>
      <text x="195.685" y="107.542">U</text>
      <text x="180.685" y="107.542">G</text>
      <text x="165.685" y="107.542">U</text>
      <text x="150.685" y="107.542">A</text>
      <text x="135.685" y="107.542">C</text>
      <text x="125.326" y="96.693">C</text>
      <text x="126.019" y="81.709">A</text>
      <text x="126.711" y="66.725">G</text>
      <text x="127.404" y="51.741">G</text>
      <text x="128.097" y="36.757">G</text>
      <text x="128.790" y="21.773">U</text>
      <text x="129.482" y="6.789">C</text>
      <text x="132.560" y="-12.347">U</text>
    </g>
  </g>
</svg>
