<?xml version="1.0" encoding="UTF-8" standalone="yes"?>
<svg xmlns="http://www.w3.org/2000/svg" height="452" width="452">
<script type="text/ecmascript">
      <![CDATA[
        var shown = 1;
        function click() {
             var seq = document.getElementById("seq");
             if (shown==1) {
               seq.setAttribute("style", "visibility: hidden");
               shown = 0;
             } else {
               seq.setAttribute("style", "visibility: visible");
               shown = 1;
             }
         }
        ]]>
</script>
  <rect style="stroke: white; fill: white" height="452" x="0" y="0" width="452" onclick="click(evt)" />
  <g transform="scale(1.593153,1.593153) translate(39.053986,38.383057)">
    <polyline style="stroke: black; fill: none; stroke-width: 1.5" id="outline" points="
      110.500,-14.916
      109.827,0.069
      109.154,15.054
      100.853,27.421
      107.964,41.554
      107.291,56.539
      106.618,71.524
      89.787,74.279
      76.954,84.145
      70.687,98.124
      55.703,97.451
      40.718,96.778
      25.733,96.105
      16.373,83.578
      1.139,80.048
      -12.776,87.183
      -18.802,101.613
      -14.094,116.524
      -0.874,124.878
      14.615,122.728
      25.060,111.090
      40.045,111.763
      55.030,112.436
      70.014,113.109
      76.947,127.089
      89.870,135.835
      88.525,150.775
      87.181,165.714
      85.836,180.654
      84.491,195.594
      71.557,204.382
      67.347,219.442
      73.850,233.664
      87.995,240.331
      103.103,236.296
      112.041,223.465
      110.588,207.895
      99.431,196.938
      100.776,181.999
      102.120,167.059
      103.465,152.119
      104.809,137.180
      115.064,134.836
      124.252,129.005
      131.186,120.153
      134.882,109.150
      134.688,97.181
      149.402,102.996
      160.975,93.620
      175.840,91.607
      190.704,89.593
      204.288,98.129
      219.382,92.695
      224.409,77.459
      215.510,64.110
      199.514,62.887
      188.690,74.729
      173.826,76.743
      158.962,78.756
      145.311,72.797
      132.675,82.317
      121.603,72.197
      122.276,57.212
      122.949,42.227
      131.297,28.788
      124.139,15.727
      124.812,0.742
      125.485,-14.243
      128.537,-33.383
    " />
    <g style="stroke: black; stroke-width: 1" id="pairs">
      <line id="1,68" x1="110.500" y1="-14.916" x2="125.485" y2="-14.243" />
      <line id="2,67" x1="109.827" y1=" 0.069" x2="124.812" y2=" 0.742" />
      <line id="3,66" x1="109.154" y1="15.054" x2="124.139" y2="15.727" />
      <line id="5,64" x1="107.964" y1="41.554" x2="122.949" y2="42.227" />
      <line id="6,63" x1="107.291" y1="56.539" x2="122.276" y2="57.212" />
      <line id="7,62" x1="106.618" y1="71.524" x2="121.603" y2="72.197" />
      <line id="10,24" x1="70.687" y1="98.124" x2="70.014" y2="113.109" />
      <line id="11,23" x1="55.703" y1="97.451" x2="55.030" y2="112.436" />
      <line id="12,22" x1="40.718" y1="96.778" x2="40.045" y2="111.763" />
      <line id="13,21" x1="25.733" y1="96.105" x2="25.060" y2="111.090" />
      <line id="26,42" x1="89.870" y1="135.835" x2="104.809" y2="137.180" />
      <line id="27,41" x1="88.525" y1="150.775" x2="103.465" y2="152.119" />
      <line id="28,40" x1="87.181" y1="165.714" x2="102.120" y2="167.059" />
      <line id="29,39" x1="85.836" y1="180.654" x2="100.776" y2="181.999" />
      <line id="30,38" x1="84.491" y1="195.594" x2="99.431" y2="196.938" />
      <line id="47,61" x1="134.688" y1="97.181" x2="132.675" y2="82.317" />
      <line id="49,59" x1="160.975" y1="93.620" x2="158.962" y2="78.756" />
      <line id="50,58" x1="175.840" y1="91.607" x2="173.826" y2="76.743" />
      <line id="51,57" x1="190.704" y1="89.593" x2="188.690" y2="74.729" />
    </g>
    <g style="font-family: SansSerif" transform="translate(-4.6, 4)" id="seq">
      <text x="110.500" y="-14.916">G</text>
      <text x="109.827" y="0.069">U</text>
      <text x="109.154" y="15.054">C</text>
      <text x="100.853" y="27.421">C</text>
      <text x="107.964" y="41.554">C</text>
      <text x="107.291" y="56.539">U</text>
      <text x="106.618" y="71.524">G</text>
      <text x="89.787" y="74.279">U</text>
      <text x="76.954" y="84.145">A</text>
      <text x="70.687" y="98.124">G</text>
      <text x="55.703" y="97.451">C</text>
      <text x="40.718" y="96.778">U</text>
      <text x="25.733" y="96.105">U</text>
      <text x="16.373" y="83.578">A</text>
      <text x="1.139" y="80.048">A</text>
      <text x="-12.776" y="87.183">U</text>
      <text x="-18.802" y="101.613">G</text>
      <text x="-14.094" y="116.524">A</text>
      <text x="-0.874" y="124.878">C</text>
      <text x="14.615" y="122.728">A</text>
      <text x="25.060" y="111.090">A</text>
      <text x="40.045" y="111.763">A</text>
      <text x="55.030" y="112.436">G</text>
      <text x="70.014" y="113.109">C</text>
      <text x="76.947" y="127.089">A</text>
      <text x="89.870" y="135.835">U</text>
      <text x="88.525" y="150.775">A</text>
      <text x="87.181" y="165.714">G</text>
      <text x="85.836" y="180.654">C</text>
      <text x="84.491" y="195.594">A</text>
      <text x="71.557" y="204.382">C</text>
      <text x="67.347" y="219.442">U</text>
      <text x="73.850" y="233.664">G</text>
      <text x="87.995" y="240.331">A</text>
      <text x="103.103" y="236.296">A</text>
      <text x="112.041" y="223.465">G</text>
      <text x="110.588" y="207.895">A</text>
      <text x="99.431" y="196.938">U</text>
      <text x="100.776" y="181.999">G</text>
      <text x="102.120" y="167.059">C</text>
      <text x="103.465" y="152.119">U</text>
      <text x="104.809" y="137.180">A</text>
      <text x="115.064" y="134.836">A</text>
      <text x="124.252" y="129.005">G</text>
      <text x="131.186" y="120.153">A</text>
      <text x="134.882" y="109.150">U</text>
      <text x="134.688" y="97.181">G</text>
      <text x="149.402" y="102.996">U</text>
      <text x="160.975" y="93.620">U</text>
      <text x="175.840" y="91.607">A</text>
      <text x="190.704" y="89.593">C</text>
      <text x="204.288" y="98.129">C</text>
      <text x="219.382" y="92.695">A</text>
      <text x="224.409" y="77.459">C</text>
      <text x="215.510" y="64.110">A</text>
      <text x="199.514" y="62.887">C</text>
      <text x="188.690" y="74.729">G</text>
      <text x="173.826" y="76.743">U</text>
      <text x="158.962" y="78.756">A</text>
      <text x="145.311" y="72.797">C</text>
      <text x="132.675" y="82.317">C</text>
      <text x="121.603" y="72.197">C</text>
      <text x="122.276" y="57.212">A</text>
      <text x="122.949" y="42.227">G</text>
      <text x="131.297" y="28.788">A</text>
      <text x="124.139" y="15.727">G</text>
      <text x="124.812" y="0.742">A</text>
      <text x="125.485" y="-14.243">C</text>
      <text x="128.537" y="-33.383">A</text>
    </g>
  </g>
</svg>
