<?xml version="1.0" encoding="UTF-8" standalone="yes"?>
<svg xmlns="http://www.w3.org/2000/svg" height="452" width="452">
<script type="text/ecmascript">
      <![CDATA[
        var shown = 1;
        function click() {
             var seq = document.getElementById("seq");
             if (shown==1) {
               seq.setAttribute("style", "visibility: hidden");
               shown = 0;
             } else {
               seq.setAttribute("style", "visibility: visible");
               shown = 1;
             }
         }
        ]]>
</script>
  <rect style="stroke: white; fill: white" height="452" x="0" y="0" width="452" onclick="click(evt)" />
  <g transform="scale(1.617717,1.617717) translate(19.739540,31.069763)">
    <polyline style="stroke: black; fill: none; stroke-width: 1.5" id="outline" points="
      112.612,-7.580
      111.958,7.405
      111.303,22.391
      110.649,37.377
      109.995,52.362
      109.340,67.348
      108.686,82.334
      92.484,83.822
      79.378,92.068
      71.839,104.685
      57.067,102.081
      42.295,99.476
      34.634,85.844
      19.984,80.374
      5.263,85.650
      -2.578,99.179
      0.163,114.575
      12.191,124.567
      27.829,124.438
      39.690,114.248
      54.463,116.853
      69.235,119.458
      73.289,132.688
      82.720,142.815
      77.590,156.910
      72.459,171.005
      67.329,185.101
      62.199,199.196
      47.443,204.374
      39.513,217.852
      42.152,233.265
      54.114,243.336
      69.752,243.311
      81.681,233.200
      84.269,217.778
      76.294,204.326
      81.424,190.231
      86.555,176.136
      91.685,162.040
      96.815,147.945
      106.801,148.230
      116.625,145.263
      125.229,139.184
      131.631,130.476
      135.036,119.933
      134.933,108.580
      149.918,107.926
      164.904,107.272
      179.890,106.618
      194.876,105.963
      204.429,118.190
      219.355,122.434
      233.913,117.063
      242.505,104.143
      241.828,88.640
      232.142,76.517
      217.172,72.436
      202.673,77.964
      194.221,90.978
      179.236,91.632
      164.250,92.286
      149.264,92.940
      134.278,93.595
      123.672,82.988
      124.326,68.002
      124.980,53.017
      125.635,38.031
      126.289,23.045
      126.943,8.060
      127.598,-6.926
      130.626,-26.070
    " />
    <g style="stroke: black; stroke-width: 1" id="pairs">
      <line id="1,70" x1="112.612" y1="-7.580" x2="127.598" y2="-6.926" />
      <line id="2,69" x1="111.958" y1=" 7.405" x2="126.943" y2=" 8.060" />
      <line id="3,68" x1="111.303" y1="22.391" x2="126.289" y2="23.045" />
      <line id="4,67" x1="110.649" y1="37.377" x2="125.635" y2="38.031" />
      <line id="5,66" x1="109.995" y1="52.362" x2="124.980" y2="53.017" />
      <line id="6,65" x1="109.340" y1="67.348" x2="124.326" y2="68.002" />
      <line id="7,64" x1="108.686" y1="82.334" x2="123.672" y2="82.988" />
      <line id="10,22" x1="71.839" y1="104.685" x2="69.235" y2="119.458" />
      <line id="11,21" x1="57.067" y1="102.081" x2="54.463" y2="116.853" />
      <line id="12,20" x1="42.295" y1="99.476" x2="39.690" y2="114.248" />
      <line id="24,40" x1="82.720" y1="142.815" x2="96.815" y2="147.945" />
      <line id="25,39" x1="77.590" y1="156.910" x2="91.685" y2="162.040" />
      <line id="26,38" x1="72.459" y1="171.005" x2="86.555" y2="176.136" />
      <line id="27,37" x1="67.329" y1="185.101" x2="81.424" y2="190.231" />
      <line id="28,36" x1="62.199" y1="199.196" x2="76.294" y2="204.326" />
      <line id="46,63" x1="134.933" y1="108.580" x2="134.278" y2="93.595" />
      <line id="47,62" x1="149.918" y1="107.926" x2="149.264" y2="92.940" />
      <line id="48,61" x1="164.904" y1="107.272" x2="164.250" y2="92.286" />
      <line id="49,60" x1="179.890" y1="106.618" x2="179.236" y2="91.632" />
      <line id="50,59" x1="194.876" y1="105.963" x2="194.221" y2="90.978" />
    </g>
    <g style="font-family: SansSerif" transform="translate(-4.6, 4)" id="seq">
      <text x="112.612" y="-7.580">C</text>
      <text x="111.958" y="7.405">A</text>
      <text x="111.303" y="22.391">U</text>
      <text x="110.649" y="37.377">U</text>
      <text x="109.995" y="52.362">A</text>
      <text x="109.340" y="67.348">A</text>
      <text x="108.686" y="82.334">G</text>
      <text x="92.484" y="83.822">A</text>
      <text x="79.378" y="92.068">A</text>
      <text x="71.839" y="104.685">G</text>
      <text x="57.067" y="102.081">C</text>
      <text x="42.295" y="99.476">U</text>
      <text x="34.634" y="85.844">A</text>
      <text x="19.984" y="80.374">U</text>
      <text x="5.263" y="85.650">G</text>
      <text x="-2.578" y="99.179">U</text>
      <text x="0.163" y="114.575">A</text>
      <text x="12.191" y="124.567">U</text>
      <text x="27.829" y="124.438">C</text>
      <text x="39.690" y="114.248">A</text>
      <text x="54.463" y="116.853">G</text>
      <text x="69.235" y="119.458">C</text>
      <text x="73.289" y="132.688">A</text>
      <text x="82.720" y="142.815">C</text>
      <text x="77.590" y="156.910">U</text>
      <text x="72.459" y="171.005">A</text>
      <text x="67.329" y="185.101">G</text>
      <text x="62.199" y="199.196">C</text>
      <text x="47.443" y="204.374">C</text>
      <text x="39.513" y="217.852">U</text>
      <text x="42.152" y="233.265">U</text>
      <text x="54.114" y="243.336">U</text>
      <text x="69.752" y="243.311">U</text>
      <text x="81.681" y="233.200">A</text>
      <text x="84.269" y="217.778">A</text>
      <text x="76.294" y="204.326">G</text>
      <text x="81.424" y="190.231">C</text>
      <text x="86.555" y="176.136">U</text>
      <text x="91.685" y="162.040">A</text>
      <text x="96.815" y="147.945">G</text>
      <text x="106.801" y="148.230">A</text>
      <text x="116.625" y="145.263">G</text>
      <text x="125.229" y="139.184">A</text>
      <text x="131.631" y="130.476">A</text>
      <text x="135.036" y="119.933">A</text>
      <text x="134.933" y="108.580">G</text>
      <text x="149.918" y="107.926">A</text>
      <text x="164.904" y="107.272">G</text>
      <text x="179.890" y="106.618">G</text>
      <text x="194.876" y="105.963">A</text>
      <text x="204.429" y="118.190">C</text>
      <text x="219.355" y="122.434">G</text>
      <text x="233.913" y="117.063">C</text>
      <text x="242.505" y="104.143">C</text>
      <text x="241.828" y="88.640">C</text>
      <text x="232.142" y="76.517">A</text>
      <text x="217.172" y="72.436">C</text>
      <text x="202.673" y="77.964">C</text>
      <text x="194.221" y="90.978">U</text>
      <text x="179.236" y="91.632">C</text>
      <text x="164.250" y="92.286">C</text>
      <text x="149.264" y="92.940">U</text>
      <text x="134.278" y="93.595">C</text>
      <text x="123.672" y="82.988">C</text>
      <text x="124.326" y="68.002">U</text>
      <text x="124.980" y="53.017">U</text>
      <text x="125.635" y="38.031">A</text>
      <text x="126.289" y="23.045">A</text>
      <text x="126.943" y="8.060">U</text>
      <text x="127.598" y="-6.926">G</text>
      <text x="130.626" y="-26.070">A</text>
    </g>
  </g>
</svg>
