<?xml version="1.0" encoding="UTF-8" standalone="yes"?>
<svg xmlns="http://www.w3.org/2000/svg" height="452" width="452">
<script type="text/ecmascript">
      <![CDATA[
        var shown = 1;
        function click() {
             var seq = document.getElementById("seq");
             if (shown==1) {
               seq.setAttribute("style", "visibility: hidden");
               shown = 0;
             } else {
               seq.setAttribute("style", "visibility: visible");
               shown = 1;
             }
         }
        ]]>
</script>
  <rect style="stroke: white; fill: white" height="452" x="0" y="0" width="452" onclick="click(evt)" />
  <g transform="scale(1.574727,1.574727) translate(39.001266,38.316589)">
    <polyline style="stroke: black; fill: none; stroke-width: 1.5" id="outline" points="
      110.477,-14.806
      109.840,0.180
      109.204,15.167
      108.567,30.153
      107.930,45.140
      107.294,60.126
      106.657,75.113
      89.847,77.843
      77.033,87.692
      70.790,101.653
      55.803,101.016
      40.817,100.380
      25.830,99.743
      18.137,86.371
      4.425,79.301
      -10.931,80.790
      -23.030,90.362
      -28.011,104.963
      -24.286,119.934
      -13.042,130.497
      2.132,133.283
      16.394,127.401
      25.193,114.730
      40.180,115.366
      55.166,116.003
      70.153,116.640
      77.110,130.546
      90.021,139.214
      88.748,154.160
      87.476,169.105
      86.204,184.051
      84.932,198.997
      72.041,207.848
      67.904,222.929
      74.476,237.119
      88.653,243.717
      103.741,239.609
      112.617,226.735
      111.089,211.172
      99.878,200.270
      101.150,185.324
      102.422,170.378
      103.694,155.432
      104.967,140.486
      115.119,138.121
      124.211,132.320
      131.079,123.543
      134.755,112.640
      134.596,100.775
      149.475,98.870
      164.353,96.964
      179.232,95.059
      194.110,93.154
      205.479,103.891
      221.092,104.758
      233.579,95.344
      237.042,80.095
      229.848,66.211
      215.392,60.247
      200.501,65.020
      192.205,78.275
      177.326,80.181
      162.448,82.086
      147.569,83.991
      132.691,85.896
      121.644,75.749
      122.280,60.763
      122.917,45.776
      123.554,30.790
      124.190,15.804
      124.827,0.817
      125.463,-14.169
      128.470,-33.317
    " />
    <g style="stroke: black; stroke-width: 1" id="pairs">
      <line id="1,72" x1="110.477" y1="-14.806" x2="125.463" y2="-14.169" />
      <line id="2,71" x1="109.840" y1=" 0.180" x2="124.827" y2=" 0.817" />
      <line id="3,70" x1="109.204" y1="15.167" x2="124.190" y2="15.804" />
      <line id="4,69" x1="108.567" y1="30.153" x2="123.554" y2="30.790" />
      <line id="5,68" x1="107.930" y1="45.140" x2="122.917" y2="45.776" />
      <line id="6,67" x1="107.294" y1="60.126" x2="122.280" y2="60.763" />
      <line id="7,66" x1="106.657" y1="75.113" x2="121.644" y2="75.749" />
      <line id="10,26" x1="70.790" y1="101.653" x2="70.153" y2="116.640" />
      <line id="11,25" x1="55.803" y1="101.016" x2="55.166" y2="116.003" />
      <line id="12,24" x1="40.817" y1="100.380" x2="40.180" y2="115.366" />
      <line id="13,23" x1="25.830" y1="99.743" x2="25.193" y2="114.730" />
      <line id="28,44" x1="90.021" y1="139.214" x2="104.967" y2="140.486" />
      <line id="29,43" x1="88.748" y1="154.160" x2="103.694" y2="155.432" />
      <line id="30,42" x1="87.476" y1="169.105" x2="102.422" y2="170.378" />
      <line id="31,41" x1="86.204" y1="184.051" x2="101.150" y2="185.324" />
      <line id="32,40" x1="84.932" y1="198.997" x2="99.878" y2="200.270" />
      <line id="49,65" x1="134.596" y1="100.775" x2="132.691" y2="85.896" />
      <line id="50,64" x1="149.475" y1="98.870" x2="147.569" y2="83.991" />
      <line id="51,63" x1="164.353" y1="96.964" x2="162.448" y2="82.086" />
      <line id="52,62" x1="179.232" y1="95.059" x2="177.326" y2="80.181" />
      <line id="53,61" x1="194.110" y1="93.154" x2="192.205" y2="78.275" />
    </g>
    <g style="font-family: SansSerif" transform="translate(-4.6, 4)" id="seq">
      <text x="110.477" y="-14.806">A</text>
      <text x="109.840" y="0.180">A</text>
      <text x="109.204" y="15.167">A</text>
      <text x="108.567" y="30.153">G</text>
      <text x="107.930" y="45.140">A</text>
      <text x="107.294" y="60.126">G</text>
      <text x="106.657" y="75.113">U</text>
      <text x="89.847" y="77.843">U</text>
      <text x="77.033" y="87.692">A</text>
      <text x="70.790" y="101.653">G</text>
      <text x="55.803" y="101.016">U</text>
      <text x="40.817" y="100.380">C</text>
      <text x="25.830" y="99.743">U</text>
      <text x="18.137" y="86.371">A</text>
      <text x="4.425" y="79.301">A</text>
      <text x="-10.931" y="80.790">C</text>
      <text x="-23.030" y="90.362">G</text>
      <text x="-28.011" y="104.963">A</text>
      <text x="-24.286" y="119.934">A</text>
      <text x="-13.042" y="130.497">C</text>
      <text x="2.132" y="133.283">A</text>
      <text x="16.394" y="127.401">A</text>
      <text x="25.193" y="114.730">A</text>
      <text x="40.180" y="115.366">G</text>
      <text x="55.166" y="116.003">A</text>
      <text x="70.153" y="116.640">C</text>
      <text x="77.110" y="130.546">A</text>
      <text x="90.021" y="139.214">G</text>
      <text x="88.748" y="154.160">U</text>
      <text x="87.476" y="169.105">U</text>
      <text x="86.204" y="184.051">G</text>
      <text x="84.932" y="198.997">A</text>
      <text x="72.041" y="207.848">U</text>
      <text x="67.904" y="222.929">U</text>
      <text x="74.476" y="237.119">U</text>
      <text x="88.653" y="243.717">C</text>
      <text x="103.741" y="239.609">G</text>
      <text x="112.617" y="226.735">G</text>
      <text x="111.089" y="211.172">C</text>
      <text x="99.878" y="200.270">U</text>
      <text x="101.150" y="185.324">C</text>
      <text x="102.422" y="170.378">A</text>
      <text x="103.694" y="155.432">A</text>
      <text x="104.967" y="140.486">C</text>
      <text x="115.119" y="138.121">A</text>
      <text x="124.211" y="132.320">A</text>
      <text x="131.079" y="123.543">A</text>
      <text x="134.755" y="112.640">U</text>
      <text x="134.596" y="100.775">C</text>
      <text x="149.475" y="98.870">A</text>
      <text x="164.353" y="96.964">U</text>
      <text x="179.232" y="95.059">A</text>
      <text x="194.110" y="93.154">G</text>
      <text x="205.479" y="103.891">U</text>
      <text x="221.092" y="104.758">C</text>
      <text x="233.579" y="95.344">C</text>
      <text x="237.042" y="80.095">A</text>
      <text x="229.848" y="66.211">A</text>
      <text x="215.392" y="60.247">C</text>
      <text x="200.501" y="65.020">C</text>
      <text x="192.205" y="78.275">C</text>
      <text x="177.326" y="80.181">U</text>
      <text x="162.448" y="82.086">A</text>
      <text x="147.569" y="83.991">U</text>
      <text x="132.691" y="85.896">G</text>
      <text x="121.644" y="75.749">A</text>
      <text x="122.280" y="60.763">C</text>
      <text x="122.917" y="45.776">U</text>
      <text x="123.554" y="30.790">C</text>
      <text x="124.190" y="15.804">U</text>
      <text x="124.827" y="0.817">U</text>
      <text x="125.463" y="-14.169">U</text>
      <text x="128.470" y="-33.317">C</text>
    </g>
  </g>
</svg>
