<?xml version="1.0" encoding="UTF-8" standalone="yes"?>
<svg xmlns="http://www.w3.org/2000/svg" height="452" width="452">
<script type="text/ecmascript">
      <![CDATA[
        var shown = 1;
        function click() {
             var seq = document.getElementById("seq");
             if (shown==1) {
               seq.setAttribute("style", "visibility: hidden");
               shown = 0;
             } else {
               seq.setAttribute("style", "visibility: visible");
               shown = 1;
             }
         }
        ]]>
</script>
  <rect style="stroke: white; fill: white" height="452" x="0" y="0" width="452" onclick="click(evt)" />
  <g transform="scale(1.703861,1.703861) translate(2.296097,30.057541)">
    <polyline style="stroke: black; fill: none; stroke-width: 1.5" id="outline" points="
      97.737,-6.627
      97.034,8.357
      96.331,23.340
      95.628,38.324
      94.925,53.307
      94.222,68.291
      85.664,70.703
      77.920,75.072
      71.429,81.148
      66.559,88.588
      52.055,84.762
      42.770,71.679
      26.744,70.926
      16.272,83.080
      19.387,98.818
      33.699,106.067
      48.230,99.266
      62.734,103.092
      65.601,119.650
      75.442,133.272
      68.044,146.320
      60.646,159.369
      53.248,172.418
      45.849,185.466
      30.439,188.124
      20.382,200.098
      20.427,215.736
      30.552,227.653
      45.977,230.222
      59.419,222.231
      64.530,207.452
      58.898,192.864
      66.296,179.816
      73.694,166.767
      81.093,153.719
      88.491,140.670
      100.331,142.487
      112.136,140.461
      122.692,134.799
      130.910,126.084
      135.945,115.216
      150.908,116.270
      165.871,117.324
      180.834,118.378
      195.797,119.432
      203.898,132.667
      218.244,138.580
      233.319,134.900
      243.325,123.040
      244.415,107.561
      236.171,94.415
      221.761,88.658
      206.728,92.502
      196.851,104.469
      181.888,103.415
      166.925,102.361
      151.962,101.307
      136.999,100.253
      127.893,80.364
      109.206,68.994
      109.909,54.010
      110.612,39.027
      111.315,24.043
      112.018,9.060
      112.721,-5.924
      115.812,-25.058
    " />
    <g style="stroke: black; stroke-width: 1" id="pairs">
      <line id="1,65" x1="97.737" y1="-6.627" x2="112.721" y2="-5.924" />
      <line id="2,64" x1="97.034" y1=" 8.357" x2="112.018" y2=" 9.060" />
      <line id="3,63" x1="96.331" y1="23.340" x2="111.315" y2="24.043" />
      <line id="4,62" x1="95.628" y1="38.324" x2="110.612" y2="39.027" />
      <line id="5,61" x1="94.925" y1="53.307" x2="109.909" y2="54.010" />
      <line id="6,60" x1="94.222" y1="68.291" x2="109.206" y2="68.994" />
      <line id="10,18" x1="66.559" y1="88.588" x2="62.734" y2="103.092" />
      <line id="11,17" x1="52.055" y1="84.762" x2="48.230" y2="99.266" />
      <line id="20,36" x1="75.442" y1="133.272" x2="88.491" y2="140.670" />
      <line id="21,35" x1="68.044" y1="146.320" x2="81.093" y2="153.719" />
      <line id="22,34" x1="60.646" y1="159.369" x2="73.694" y2="166.767" />
      <line id="23,33" x1="53.248" y1="172.418" x2="66.296" y2="179.816" />
      <line id="24,32" x1="45.849" y1="185.466" x2="58.898" y2="192.864" />
      <line id="41,58" x1="135.945" y1="115.216" x2="136.999" y2="100.253" />
      <line id="42,57" x1="150.908" y1="116.270" x2="151.962" y2="101.307" />
      <line id="43,56" x1="165.871" y1="117.324" x2="166.925" y2="102.361" />
      <line id="44,55" x1="180.834" y1="118.378" x2="181.888" y2="103.415" />
      <line id="45,54" x1="195.797" y1="119.432" x2="196.851" y2="104.469" />
    </g>
    <g style="font-family: SansSerif" transform="translate(-4.6, 4)" id="seq">
      <text x="97.737" y="-6.627">G</text>
      <text x="97.034" y="8.357">A</text>
      <text x="96.331" y="23.340">G</text>
      <text x="95.628" y="38.324">G</text>
      <text x="94.925" y="53.307">G</text>
      <text x="94.222" y="68.291">G</text>
      <text x="85.664" y="70.703">C</text>
      <text x="77.920" y="75.072">G</text>
      <text x="71.429" y="81.148">G</text>
      <text x="66.559" y="88.588">U</text>
      <text x="52.055" y="84.762">U</text>
      <text x="42.770" y="71.679">C</text>
      <text x="26.744" y="70.926">A</text>
      <text x="16.272" y="83.080">A</text>
      <text x="19.387" y="98.818">C</text>
      <text x="33.699" y="106.067">C</text>
      <text x="48.230" y="99.266">A</text>
      <text x="62.734" y="103.092">A</text>
      <text x="65.601" y="119.650">C</text>
      <text x="75.442" y="133.272">A</text>
      <text x="68.044" y="146.320">A</text>
      <text x="60.646" y="159.369">G</text>
      <text x="53.248" y="172.418">A</text>
      <text x="45.849" y="185.466">A</text>
      <text x="30.439" y="188.124">C</text>
      <text x="20.382" y="200.098">U</text>
      <text x="20.427" y="215.736">G</text>
      <text x="30.552" y="227.653">C</text>
      <text x="45.977" y="230.222">U</text>
      <text x="59.419" y="222.231">A</text>
      <text x="64.530" y="207.452">A</text>
      <text x="58.898" y="192.864">U</text>
      <text x="66.296" y="179.816">U</text>
      <text x="73.694" y="166.767">C</text>
      <text x="81.093" y="153.719">U</text>
      <text x="88.491" y="140.670">U</text>
      <text x="100.331" y="142.487">G</text>
      <text x="112.136" y="140.461">C</text>
      <text x="122.692" y="134.799">A</text>
      <text x="130.910" y="126.084">U</text>
      <text x="135.945" y="115.216">C</text>
      <text x="150.908" y="116.270">U</text>
      <text x="165.871" y="117.324">G</text>
      <text x="180.834" y="118.378">A</text>
      <text x="195.797" y="119.432">G</text>
      <text x="203.898" y="132.667">U</text>
      <text x="218.244" y="138.580">C</text>
      <text x="233.319" y="134.900">U</text>
      <text x="243.325" y="123.040">A</text>
      <text x="244.415" y="107.561">A</text>
      <text x="236.171" y="94.415">A</text>
      <text x="221.761" y="88.658">A</text>
      <text x="206.728" y="92.502">C</text>
      <text x="196.851" y="104.469">C</text>
      <text x="181.888" y="103.415">U</text>
      <text x="166.925" y="102.361">C</text>
      <text x="151.962" y="101.307">A</text>
      <text x="136.999" y="100.253">G</text>
      <text x="127.893" y="80.364">C</text>
      <text x="109.206" y="68.994">C</text>
      <text x="109.909" y="54.010">C</text>
      <text x="110.612" y="39.027">C</text>
      <text x="111.315" y="24.043">C</text>
      <text x="112.018" y="9.060">U</text>
      <text x="112.721" y="-5.924">U</text>
      <text x="115.812" y="-25.058">A</text>
    </g>
  </g>
</svg>
