<?xml version="1.0" encoding="UTF-8" standalone="yes"?>
<svg xmlns="http://www.w3.org/2000/svg" height="452" width="452">
<script type="text/ecmascript">
      <![CDATA[
        var shown = 1;
        function click() {
             var seq = document.getElementById("seq");
             if (shown==1) {
               seq.setAttribute("style", "visibility: hidden");
               shown = 0;
             } else {
               seq.setAttribute("style", "visibility: visible");
               shown = 1;
             }
         }
        ]]>
</script>
  <rect style="stroke: white; fill: white" height="452" x="0" y="0" width="452" onclick="click(evt)" />
  <g transform="scale(1.595051,1.595051) translate(26.807190,35.362938)">
    <polyline style="stroke: black; fill: none; stroke-width: 1.5" id="outline" points="
      111.620,-11.863
      110.975,3.123
      110.330,18.109
      109.684,33.095
      109.039,48.082
      108.394,63.068
      107.748,78.054
      91.437,80.073
      78.613,88.963
      71.777,102.059
      56.864,100.448
      41.951,98.837
      35.144,84.993
      21.921,77.045
      6.501,77.531
      -6.195,86.296
      -12.116,100.541
      -9.373,115.723
      1.159,126.996
      16.119,130.763
      30.734,125.822
      40.340,113.751
      55.253,115.361
      70.166,116.972
      75.536,130.264
      86.439,139.573
      83.236,154.227
      80.033,168.881
      76.830,183.535
      73.628,198.189
      59.695,205.291
      53.635,219.706
      58.308,234.629
      71.508,243.014
      87.002,240.900
      97.475,229.288
      97.981,213.658
      88.282,201.392
      91.484,186.738
      94.687,172.084
      97.890,157.430
      101.093,142.776
      111.909,141.496
      121.920,136.331
      129.736,127.707
      134.171,116.543
      134.422,104.160
      149.391,103.192
      164.360,102.224
      179.328,101.257
      194.297,100.289
      204.105,112.314
      219.116,116.245
      233.558,110.570
      241.878,97.473
      240.877,81.988
      230.940,70.070
      215.887,66.302
      201.507,72.133
      193.329,85.320
      178.361,86.288
      163.392,87.256
      148.423,88.223
      133.454,89.191
      122.734,78.699
      123.380,63.713
      124.025,48.727
      124.670,33.741
      125.316,18.755
      125.961,3.769
      126.606,-11.218
      129.624,-30.363
    " />
    <g style="stroke: black; stroke-width: 1" id="pairs">
      <line id="1,71" x1="111.620" y1="-11.863" x2="126.606" y2="-11.218" />
      <line id="2,70" x1="110.975" y1=" 3.123" x2="125.961" y2=" 3.769" />
      <line id="3,69" x1="110.330" y1="18.109" x2="125.316" y2="18.755" />
      <line id="4,68" x1="109.684" y1="33.095" x2="124.670" y2="33.741" />
      <line id="5,67" x1="109.039" y1="48.082" x2="124.025" y2="48.727" />
      <line id="6,66" x1="108.394" y1="63.068" x2="123.380" y2="63.713" />
      <line id="7,65" x1="107.748" y1="78.054" x2="122.734" y2="78.699" />
      <line id="10,24" x1="71.777" y1="102.059" x2="70.166" y2="116.972" />
      <line id="11,23" x1="56.864" y1="100.448" x2="55.253" y2="115.361" />
      <line id="12,22" x1="41.951" y1="98.837" x2="40.340" y2="113.751" />
      <line id="26,42" x1="86.439" y1="139.573" x2="101.093" y2="142.776" />
      <line id="27,41" x1="83.236" y1="154.227" x2="97.890" y2="157.430" />
      <line id="28,40" x1="80.033" y1="168.881" x2="94.687" y2="172.084" />
      <line id="29,39" x1="76.830" y1="183.535" x2="91.484" y2="186.738" />
      <line id="30,38" x1="73.628" y1="198.189" x2="88.282" y2="201.392" />
      <line id="47,64" x1="134.422" y1="104.160" x2="133.454" y2="89.191" />
      <line id="48,63" x1="149.391" y1="103.192" x2="148.423" y2="88.223" />
      <line id="49,62" x1="164.360" y1="102.224" x2="163.392" y2="87.256" />
      <line id="50,61" x1="179.328" y1="101.257" x2="178.361" y2="86.288" />
      <line id="51,60" x1="194.297" y1="100.289" x2="193.329" y2="85.320" />
    </g>
    <g style="font-family: SansSerif" transform="translate(-4.6, 4)" id="seq">
      <text x="111.620" y="-11.863">C</text>
      <text x="110.975" y="3.123">A</text>
      <text x="110.330" y="18.109">A</text>
      <text x="109.684" y="33.095">G</text>
      <text x="109.039" y="48.082">A</text>
      <text x="108.394" y="63.068">C</text>
      <text x="107.748" y="78.054">G</text>
      <text x="91.437" y="80.073">U</text>
      <text x="78.613" y="88.963">A</text>
      <text x="71.777" y="102.059">G</text>
      <text x="56.864" y="100.448">C</text>
      <text x="41.951" y="98.837">U</text>
      <text x="35.144" y="84.993">A</text>
      <text x="21.921" y="77.045">C</text>
      <text x="6.501" y="77.531">A</text>
      <text x="-6.195" y="86.296">A</text>
      <text x="-12.116" y="100.541">C</text>
      <text x="-9.373" y="115.723">A</text>
      <text x="1.159" y="126.996">C</text>
      <text x="16.119" y="130.763">A</text>
      <text x="30.734" y="125.822">A</text>
      <text x="40.340" y="113.751">A</text>
      <text x="55.253" y="115.361">G</text>
      <text x="70.166" y="116.972">C</text>
      <text x="75.536" y="130.264">A</text>
      <text x="86.439" y="139.573">U</text>
      <text x="83.236" y="154.227">U</text>
      <text x="80.033" y="168.881">C</text>
      <text x="76.830" y="183.535">A</text>
      <text x="73.628" y="198.189">G</text>
      <text x="59.695" y="205.291">C</text>
      <text x="53.635" y="219.706">U</text>
      <text x="58.308" y="234.629">U</text>
      <text x="71.508" y="243.014">A</text>
      <text x="87.002" y="240.900">C</text>
      <text x="97.475" y="229.288">A</text>
      <text x="97.981" y="213.658">C</text>
      <text x="88.282" y="201.392">C</text>
      <text x="91.484" y="186.738">U</text>
      <text x="94.687" y="172.084">G</text>
      <text x="97.890" y="157.430">A</text>
      <text x="101.093" y="142.776">A</text>
      <text x="111.909" y="141.496">A</text>
      <text x="121.920" y="136.331">G</text>
      <text x="129.736" y="127.707">A</text>
      <text x="134.171" y="116.543">U</text>
      <text x="134.422" y="104.160">A</text>
      <text x="149.391" y="103.192">U</text>
      <text x="164.360" y="102.224">C</text>
      <text x="179.328" y="101.257">U</text>
      <text x="194.297" y="100.289">G</text>
      <text x="204.105" y="112.314">A</text>
      <text x="219.116" y="116.245">C</text>
      <text x="233.558" y="110.570">A</text>
      <text x="241.878" y="97.473">U</text>
      <text x="240.877" y="81.988">C</text>
      <text x="230.940" y="70.070">U</text>
      <text x="215.887" y="66.302">A</text>
      <text x="201.507" y="72.133">C</text>
      <text x="193.329" y="85.320">C</text>
      <text x="178.361" y="86.288">A</text>
      <text x="163.392" y="87.256">G</text>
      <text x="148.423" y="88.223">A</text>
      <text x="133.454" y="89.191">U</text>
      <text x="122.734" y="78.699">C</text>
      <text x="123.380" y="63.713">G</text>
      <text x="124.025" y="48.727">U</text>
      <text x="124.670" y="33.741">C</text>
      <text x="125.316" y="18.755">U</text>
      <text x="125.961" y="3.769">U</text>
      <text x="126.606" y="-11.218">G</text>
      <text x="129.624" y="-30.363">A</text>
    </g>
  </g>
</svg>
