<?xml version="1.0" encoding="UTF-8" standalone="yes"?>
<svg xmlns="http://www.w3.org/2000/svg" height="452" width="452">
<script type="text/ecmascript">
      <![CDATA[
        var shown = 1;
        function click() {
             var seq = document.getElementById("seq");
             if (shown==1) {
               seq.setAttribute("style", "visibility: hidden");
               shown = 0;
             } else {
               seq.setAttribute("style", "visibility: visible");
               shown = 1;
             }
         }
        ]]>
</script>
  <rect style="stroke: white; fill: white" height="452" x="0" y="0" width="452" onclick="click(evt)" />
  <g transform="scale(1.595643,1.595643) translate(27.153587,35.236824)">
    <polyline style="stroke: black; fill: none; stroke-width: 1.5" id="outline" points="
      111.742,-11.759
      111.078,3.227
      110.415,18.212
      109.751,33.197
      109.088,48.183
      108.424,63.168
      107.761,78.153
      91.454,80.165
      78.622,89.036
      71.759,102.115
      56.851,100.459
      43.989,91.246
      30.486,97.531
      20.809,85.035
      5.121,83.124
      -7.272,92.932
      -9.016,108.640
      0.922,120.928
      16.647,122.507
      28.830,112.439
      40.625,121.534
      55.195,115.367
      70.104,117.023
      75.417,130.328
      86.265,139.686
      82.973,154.321
      79.682,168.955
      76.390,183.590
      73.099,198.224
      59.124,205.241
      52.976,219.619
      57.558,234.570
      70.707,243.035
      86.214,241.016
      96.757,229.466
      97.358,213.840
      87.733,201.516
      91.024,186.881
      94.316,172.247
      97.608,157.612
      100.899,142.978
      111.781,141.748
      121.867,136.594
      129.746,127.942
      134.217,116.722
      134.464,104.272
      149.431,103.278
      164.398,102.283
      179.365,101.288
      194.332,100.293
      205.025,111.704
      220.557,113.520
      233.594,104.885
      237.981,89.875
      231.646,75.578
      217.580,68.744
      202.426,72.601
      193.337,85.326
      178.370,86.321
      163.403,87.316
      148.436,88.311
      133.469,89.305
      122.746,78.817
      123.410,63.831
      124.073,48.846
      124.737,33.861
      125.400,18.876
      126.064,3.890
      126.727,-11.095
      129.768,-30.237
    " />
    <g style="stroke: black; stroke-width: 1" id="pairs">
      <line id="1,69" x1="111.742" y1="-11.759" x2="126.727" y2="-11.095" />
      <line id="2,68" x1="111.078" y1=" 3.227" x2="126.064" y2=" 3.890" />
      <line id="3,67" x1="110.415" y1="18.212" x2="125.400" y2="18.876" />
      <line id="4,66" x1="109.751" y1="33.197" x2="124.737" y2="33.861" />
      <line id="5,65" x1="109.088" y1="48.183" x2="124.073" y2="48.846" />
      <line id="6,64" x1="108.424" y1="63.168" x2="123.410" y2="63.831" />
      <line id="7,63" x1="107.761" y1="78.153" x2="122.746" y2="78.817" />
      <line id="10,23" x1="71.759" y1="102.115" x2="70.104" y2="117.023" />
      <line id="11,22" x1="56.851" y1="100.459" x2="55.195" y2="115.367" />
      <line id="13,20" x1="30.486" y1="97.531" x2="28.830" y2="112.439" />
      <line id="25,41" x1="86.265" y1="139.686" x2="100.899" y2="142.978" />
      <line id="26,40" x1="82.973" y1="154.321" x2="97.608" y2="157.612" />
      <line id="27,39" x1="79.682" y1="168.955" x2="94.316" y2="172.247" />
      <line id="28,38" x1="76.390" y1="183.590" x2="91.024" y2="186.881" />
      <line id="29,37" x1="73.099" y1="198.224" x2="87.733" y2="201.516" />
      <line id="46,62" x1="134.464" y1="104.272" x2="133.469" y2="89.305" />
      <line id="47,61" x1="149.431" y1="103.278" x2="148.436" y2="88.311" />
      <line id="48,60" x1="164.398" y1="102.283" x2="163.403" y2="87.316" />
      <line id="49,59" x1="179.365" y1="101.288" x2="178.370" y2="86.321" />
      <line id="50,58" x1="194.332" y1="100.293" x2="193.337" y2="85.326" />
    </g>
    <g style="font-family: SansSerif" transform="translate(-4.6, 4)" id="seq">
      <text x="111.742" y="-11.759">A</text>
      <text x="111.078" y="3.227">G</text>
      <text x="110.415" y="18.212">A</text>
      <text x="109.751" y="33.197">A</text>
      <text x="109.088" y="48.183">A</text>
      <text x="108.424" y="63.168">C</text>
      <text x="107.761" y="78.153">U</text>
      <text x="91.454" y="80.165">U</text>
      <text x="78.622" y="89.036">A</text>
      <text x="71.759" y="102.115">G</text>
      <text x="56.851" y="100.459">G</text>
      <text x="43.989" y="91.246">A</text>
      <text x="30.486" y="97.531">U</text>
      <text x="20.809" y="85.035">A</text>
      <text x="5.121" y="83.124">G</text>
      <text x="-7.272" y="92.932">C</text>
      <text x="-9.016" y="108.640">C</text>
      <text x="0.922" y="120.928">U</text>
      <text x="16.647" y="122.507">A</text>
      <text x="28.830" y="112.439">A</text>
      <text x="40.625" y="121.534">A</text>
      <text x="55.195" y="115.367">C</text>
      <text x="70.104" y="117.023">C</text>
      <text x="75.417" y="130.328">G</text>
      <text x="86.265" y="139.686">A</text>
      <text x="82.973" y="154.321">A</text>
      <text x="79.682" y="168.955">G</text>
      <text x="76.390" y="183.590">G</text>
      <text x="73.099" y="198.224">C</text>
      <text x="59.124" y="205.241">C</text>
      <text x="52.976" y="219.619">U</text>
      <text x="57.558" y="234.570">U</text>
      <text x="70.707" y="243.035">C</text>
      <text x="86.214" y="241.016">A</text>
      <text x="96.757" y="229.466">A</text>
      <text x="97.358" y="213.840">A</text>
      <text x="87.733" y="201.516">G</text>
      <text x="91.024" y="186.881">C</text>
      <text x="94.316" y="172.247">C</text>
      <text x="97.608" y="157.612">U</text>
      <text x="100.899" y="142.978">U</text>
      <text x="111.781" y="141.748">A</text>
      <text x="121.867" y="136.594">A</text>
      <text x="129.746" y="127.942">A</text>
      <text x="134.217" y="116.722">C</text>
      <text x="134.464" y="104.272">A</text>
      <text x="149.431" y="103.278">A</text>
      <text x="164.398" y="102.283">G</text>
      <text x="179.365" y="101.288">A</text>
      <text x="194.332" y="100.293">G</text>
      <text x="205.025" y="111.704">U</text>
      <text x="220.557" y="113.520">U</text>
      <text x="233.594" y="104.885">A</text>
      <text x="237.981" y="89.875">A</text>
      <text x="231.646" y="75.578">A</text>
      <text x="217.580" y="68.744">C</text>
      <text x="202.426" y="72.601">U</text>
      <text x="193.337" y="85.326">C</text>
      <text x="178.370" y="86.321">U</text>
      <text x="163.403" y="87.316">C</text>
      <text x="148.436" y="88.311">U</text>
      <text x="133.469" y="89.305">U</text>
      <text x="122.746" y="78.817">A</text>
      <text x="123.410" y="63.831">G</text>
      <text x="124.073" y="48.846">U</text>
      <text x="124.737" y="33.861">U</text>
      <text x="125.400" y="18.876">U</text>
      <text x="126.064" y="3.890">C</text>
      <text x="126.727" y="-11.095">U</text>
      <text x="129.768" y="-30.237">G</text>
    </g>
  </g>
</svg>
