<?xml version="1.0" encoding="UTF-8" standalone="yes"?>
<svg xmlns="http://www.w3.org/2000/svg" height="452" width="452">
<script type="text/ecmascript">
      <![CDATA[
        var shown = 1;
        function click() {
             var seq = document.getElementById("seq");
             if (shown==1) {
               seq.setAttribute("style", "visibility: hidden");
               shown = 0;
             } else {
               seq.setAttribute("style", "visibility: visible");
               shown = 1;
             }
         }
        ]]>
</script>
  <rect style="stroke: white; fill: white" height="452" x="0" y="0" width="452" onclick="click(evt)" />
  <g transform="scale(0.263145,0.263145) translate(463.240723,692.816040)">
    <polyline style="stroke: black; fill: none; stroke-width: 1.5" id="outline" points="
      121.316,126.126
      120.953,141.122
      120.591,156.117
      113.093,155.936
      111.934,140.981
      121.936,129.040
      120.548,113.889
      109.102,104.428
      120.395,93.611
      122.041,78.060
      113.263,65.118
      98.206,60.896
      83.980,67.387
      77.301,81.527
      81.323,96.638
      94.147,105.586
      84.295,116.698
      85.257,131.882
      96.979,142.140
      98.138,157.095
      74.045,175.734
      63.519,199.278
      60.152,184.069
      47.297,175.932
      32.819,179.235
      20.259,171.035
      7.699,162.836
      -4.862,154.636
      -17.422,146.436
      -29.982,138.236
      -42.543,130.036
      -43.079,107.374
      -68.831,93.377
      -79.913,83.269
      -90.996,73.160
      -102.078,63.052
      -113.160,52.943
      -124.242,42.834
      -135.308,32.708
      -146.358,22.564
      -141.567,12.723
      -141.441,0.708
      -146.884,-11.198
      -157.671,-20.388
      -172.366,-24.475
      -182.349,-35.671
      -192.332,-46.867
      -195.647,-55.238
      -202.365,-58.082
      -212.384,-69.245
      -222.403,-80.409
      -207.467,-99.511
      -208.392,-129.127
      -231.129,-155.882
      -236.561,-169.864
      -233.527,-185.980
      -246.142,-196.458
      -261.428,-190.520
      -263.661,-174.273
      -250.543,-164.432
      -245.111,-150.450
      -251.507,-146.534
      -259.340,-159.327
      -267.172,-172.119
      -279.965,-164.287
      -272.132,-151.494
      -264.300,-138.702
      -270.697,-134.785
      -280.679,-145.981
      -290.662,-157.176
      -283.967,-162.179
      -278.416,-169.448
      -274.709,-178.678
      -273.453,-189.363
      -275.112,-200.823
      -279.955,-212.243
      -288.026,-222.736
      -299.119,-231.397
      -307.460,-243.864
      -315.801,-256.331
      -324.142,-268.798
      -318.942,-283.298
      -323.228,-297.909
      -335.155,-307.087
      -350.020,-307.477
      -358.361,-319.944
      -366.703,-332.411
      -361.214,-346.925
      -365.338,-361.884
      -377.488,-371.536
      -392.992,-372.169
      -405.889,-363.541
      -411.219,-348.968
      -406.934,-334.055
      -394.680,-324.535
      -379.170,-324.070
      -370.828,-311.603
      -362.487,-299.136
      -367.799,-285.246
      -363.867,-270.720
      -351.997,-261.183
      -336.609,-260.457
      -328.268,-247.990
      -319.927,-235.522
      -311.586,-223.056
      -317.357,-218.266
      -326.937,-229.808
      -338.479,-220.227
      -328.899,-208.686
      -334.670,-203.896
      -339.117,-219.079
      -353.623,-222.456
      -364.324,-232.968
      -375.007,-243.497
      -368.436,-257.140
      -366.654,-272.176
      -369.853,-286.976
      -377.686,-299.935
      -389.304,-309.646
      -403.446,-315.056
      -418.579,-315.578
      -433.061,-311.156
      -445.321,-302.269
      -454.029,-289.882
      -458.241,-275.337
      -457.499,-260.213
      -451.885,-246.151
      -442.006,-234.675
      -428.936,-227.030
      -414.091,-224.046
      -399.082,-226.047
      -385.536,-232.814
      -374.853,-222.285
      -372.326,-215.441
      -364.118,-211.739
      -360.439,-197.306
      -345.165,-193.178
      -350.002,-187.446
      -359.674,-175.981
      -364.511,-170.249
      -365.076,-183.630
      -373.095,-194.113
      -385.491,-198.044
      -397.716,-194.214
      -409.894,-202.972
      -419.223,-217.129
      -435.408,-212.083
      -435.041,-195.134
      -418.652,-190.794
      -406.474,-182.036
      -404.430,-165.286
      -390.594,-155.044
      -373.308,-158.100
      -348.175,-136.110
      -320.329,-134.229
      -301.858,-147.193
      -291.875,-135.998
      -281.892,-124.802
      -286.570,-118.940
      -301.401,-121.179
      -295.925,-107.214
      -300.602,-101.352
      -313.735,-108.599
      -321.740,-122.912
      -338.139,-122.866
      -346.062,-108.508
      -337.359,-94.608
      -320.983,-95.466
      -307.850,-88.219
      -299.340,-74.553
      -288.078,-64.550
      -275.359,-58.623
      -262.483,-56.772
      -250.633,-58.619
      -240.773,-63.465
      -233.566,-70.390
      -223.547,-59.226
      -213.528,-48.063
      -203.527,-36.884
      -193.544,-25.688
      -183.561,-14.492
      -187.508,-8.115
      -200.263,-16.009
      -213.018,-23.903
      -225.773,-31.797
      -233.666,-19.042
      -220.912,-11.148
      -208.157,-3.254
      -195.402,4.640
      -199.349,11.017
      -213.822,7.076
      -228.296,3.136
      -242.769,-0.805
      -247.532,-10.404
      -256.568,-15.749
      -266.839,-15.317
      -275.039,-9.485
      -289.538,-13.332
      -304.036,-17.180
      -318.534,-21.027
      -333.032,-24.874
      -344.268,-36.819
      -360.167,-32.798
      -364.373,-16.948
      -352.560,-5.573
      -336.880,-10.376
      -322.381,-6.529
      -307.883,-2.681
      -293.385,1.166
      -278.887,5.013
      -266.066,19.583
      -246.709,13.668
      -232.236,17.609
      -217.763,21.550
      -203.290,25.490
      -178.925,41.392
      -156.502,33.613
      -145.452,43.758
      -142.685,50.507
      -134.351,53.917
      -123.269,64.025
      -112.186,74.134
      -101.104,84.242
      -90.022,94.351
      -78.940,104.460
      -81.452,111.526
      -95.585,106.502
      -100.609,120.636
      -86.476,125.660
      -88.988,132.727
      -103.964,133.572
      -118.940,134.418
      -133.916,135.263
      -148.893,136.108
      -163.884,136.616
      -178.883,136.785
      -193.882,136.954
      -199.204,122.760
      -209.061,111.245
      -222.264,103.798
      -237.218,101.319
      -252.118,104.107
      -265.164,111.826
      -274.781,123.543
      -279.807,137.844
      -279.636,153.001
      -274.289,167.185
      -264.410,178.682
      -251.193,186.105
      -236.234,188.556
      -221.340,185.741
      -208.308,177.998
      -198.713,166.263
      -193.713,151.953
      -178.714,151.784
      -163.715,151.615
      -177.322,157.927
      -187.490,168.955
      -192.680,183.029
      -192.105,198.018
      -185.854,211.653
      -174.872,221.870
      -160.822,227.123
      -145.830,226.616
      -132.167,220.426
      -121.900,209.490
      -116.585,195.463
      -117.024,180.470
      -123.153,166.779
      -134.043,156.463
      -148.047,151.084
      -133.071,150.239
      -118.095,149.394
      -103.119,148.548
      -88.143,147.703
      -65.631,152.897
      -50.743,142.596
      -38.182,150.796
      -25.622,158.996
      -13.062,167.196
      -0.501,175.396
      12.059,183.596
      24.619,191.796
      27.420,206.380
      40.041,214.875
      55.319,211.838
      52.072,221.665
      50.960,231.954
      52.031,242.247
      55.239,252.087
      60.440,261.034
      67.403,268.690
      59.264,281.290
      51.125,293.890
      42.986,306.490
      39.173,302.182
      33.917,298.703
      27.417,296.435
      19.964,295.712
      11.927,296.799
      3.739,299.872
      -4.127,305.006
      -15.012,315.327
      -25.897,325.648
      -36.781,335.969
      -52.647,331.106
      -68.700,334.922
      -80.544,346.274
      -84.984,361.970
      -80.892,377.662
      -91.810,387.948
      -103.345,380.118
      -116.247,374.850
      -129.954,372.373
      -143.871,372.789
      -157.393,376.080
      -169.934,382.099
      -180.951,390.582
      -189.965,401.160
      -196.589,413.371
      -200.537,426.683
      -201.639,440.518
      -199.851,454.276
      -195.253,467.357
      -188.046,479.197
      -198.897,489.553
      -209.749,499.909
      -220.600,510.265
      -231.452,520.621
      -242.303,530.977
      -253.155,541.333
      -264.006,551.689
      -266.989,543.922
      -273.299,537.098
      -282.578,532.325
      -294.139,530.577
      -307.012,532.603
      -318.508,542.239
      -330.004,551.874
      -341.499,561.510
      -357.046,564.445
      -361.830,578.550
      -373.326,588.186
      -390.785,586.363
      -403.861,597.558
      -404.713,614.412
      -416.240,624.010
      -427.767,633.609
      -443.481,631.923
      -455.732,641.907
      -457.252,657.638
      -447.139,669.783
      -431.393,671.136
      -419.355,660.895
      -418.168,645.136
      -406.642,635.537
      -395.115,625.939
      -382.649,628.894
      -370.562,624.094
      -363.306,613.069
      -363.690,599.682
      -352.194,590.046
      -337.470,587.800
      -331.864,573.006
      -320.368,563.370
      -308.872,553.734
      -297.376,544.099
      -291.934,549.259
      -302.255,560.144
      -312.576,571.029
      -322.897,581.914
      -333.218,592.798
      -343.539,603.683
      -353.859,614.568
      -364.180,625.453
      -353.295,635.773
      -342.975,624.889
      -332.654,614.004
      -322.333,603.119
      -312.012,592.234
      -301.691,581.350
      -291.370,570.465
      -281.049,559.580
      -275.607,564.741
      -291.287,566.713
      -300.915,579.246
      -298.777,594.905
      -286.142,604.400
      -270.507,602.096
      -261.147,589.362
      -263.615,573.752
      -253.650,562.540
      -242.799,552.184
      -231.947,541.828
      -221.096,531.472
      -210.244,521.116
      -199.393,510.760
      -188.541,500.404
      -177.690,490.048
      -164.202,498.821
      -148.995,504.101
      -132.956,505.575
      -117.024,503.155
      -102.131,496.976
      -89.151,487.397
      -78.846,474.974
      -71.821,460.434
      -68.491,444.623
      -69.055,428.467
      -73.485,412.911
      -81.524,398.866
      -70.606,388.580
      -57.881,393.348
      -44.275,392.189
      -32.426,385.272
      -24.653,373.885
      -22.508,360.199
      -26.460,346.854
      -15.576,336.533
      -4.691,326.212
      6.194,315.891
      12.634,319.735
      4.947,332.615
      17.827,340.302
      25.514,327.423
      31.954,331.266
      28.037,345.746
      24.120,360.225
      20.203,374.705
      16.285,389.184
      12.368,403.664
      8.853,407.177
      7.127,411.265
      7.119,415.180
      8.484,418.302
      4.706,432.819
      -9.586,438.565
      -17.660,451.475
      -16.596,466.487
      -7.012,477.857
      -10.789,492.373
      -14.567,506.890
      -18.344,521.407
      -33.036,526.113
      -42.834,538.029
      -44.611,553.354
      -37.800,567.197
      -24.575,575.140
      -9.155,574.650
      3.538,565.882
      9.456,551.635
      6.708,536.454
      -3.827,525.184
      -0.050,510.667
      3.727,496.151
      7.504,481.634
      21.415,476.377
      29.660,463.788
      28.902,448.580
      19.223,436.596
      23.000,422.079
      26.847,407.581
      30.765,393.101
      34.682,378.622
      38.599,364.143
      42.517,349.663
      46.434,335.184
      43.402,349.874
      42.932,364.867
      45.036,379.718
      49.653,393.990
      56.647,407.260
      65.810,419.136
      76.871,429.267
      89.505,437.354
      103.337,443.157
      117.959,446.505
      132.938,447.299
      147.831,445.516
      162.199,441.208
      175.617,434.503
      187.688,425.598
      198.056,414.758
      206.413,402.302
      212.514,388.598
      216.177,374.052
      217.294,359.094
      215.833,344.165
      211.836,329.707
      205.422,316.148
      196.780,303.887
      186.166,293.288
      173.894,284.664
      160.325,278.269
      145.862,274.293
      130.931,272.853
      115.974,273.991
      101.434,277.675
      87.739,283.794
      75.295,292.169
      64.469,302.552
      55.586,314.629
      63.725,302.029
      71.864,289.429
      80.003,276.830
      130.561,286.007
      174.439,241.034
      177.700,255.676
      180.960,270.317
      170.764,278.011
      164.221,288.927
      162.256,301.454
      165.121,313.758
      172.364,324.053
      182.900,330.855
      195.173,333.201
      198.527,347.821
      201.882,362.441
      205.237,377.061
      196.632,390.318
      200.004,405.758
      213.351,414.222
      228.755,410.687
      237.077,397.251
      233.380,381.886
      219.857,373.706
      216.502,359.086
      213.148,344.466
      209.793,329.846
      222.864,318.482
      228.335,301.953
      224.585,284.859
      212.575,272.006
      195.601,267.057
      192.341,252.416
      189.081,237.774
      194.311,232.399
      204.192,243.685
      209.144,257.843
      223.791,261.081
      234.251,250.330
      230.612,235.778
      216.323,231.216
      204.771,221.648
      210.001,216.272
      224.727,219.131
      239.447,222.013
      254.163,224.918
      261.858,229.594
      268.931,227.809
      283.656,230.667
      298.381,233.526
      313.107,236.384
      325.180,246.609
      339.148,241.439
      353.873,244.297
      368.598,247.155
      370.893,268.034
      380.174,286.855
      395.312,301.358
      414.475,309.809
      435.353,311.204
      455.431,305.387
      472.297,293.073
      483.931,275.754
      498.284,280.113
      512.636,284.471
      526.989,288.830
      541.342,293.188
      526.397,316.359
      534.463,351.531
      571.043,379.662
      584.403,386.482
      597.762,393.303
      611.122,400.124
      624.482,406.944
      637.841,413.765
      651.201,420.585
      664.560,427.406
      677.909,434.248
      691.247,441.112
      688.586,450.673
      690.633,461.784
      698.067,472.071
      710.380,478.936
      719.773,490.631
      729.166,502.326
      738.558,514.021
      734.352,528.957
      739.760,543.501
      752.703,552.061
      768.203,551.345
      780.301,541.628
      784.345,526.648
      778.780,512.163
      765.745,503.744
      750.253,504.628
      740.861,492.933
      731.468,481.238
      722.075,469.543
      726.561,463.533
      738.582,472.505
      750.603,481.477
      762.623,490.450
      777.520,492.210
      771.596,478.429
      759.575,469.457
      747.554,460.484
      735.534,451.512
      740.020,445.502
      753.904,451.180
      767.787,456.859
      781.670,462.538
      795.554,468.217
      809.437,473.896
      823.321,479.574
      822.571,488.151
      823.663,496.678
      826.541,504.767
      831.069,512.048
      837.036,518.189
      844.163,522.913
      852.122,526.007
      860.546,527.334
      869.048,526.837
      877.237,524.545
      884.741,520.568
      891.217,515.091
      896.372,508.371
      910.397,513.690
      917.204,519.584
      924.476,519.004
      938.518,524.278
      942.866,528.984
      948.138,530.635
      952.668,529.540
      966.744,534.723
      980.820,539.906
      994.896,545.090
      1008.947,550.341
      1022.972,555.660
      1036.997,560.979
      1051.014,566.321
      1065.022,571.685
      1079.030,577.049
      1078.135,592.257
      1084.268,607.216
      1096.960,618.680
      1114.254,623.809
      1132.995,620.835
      1146.649,627.047
      1144.812,638.861
      1148.251,651.339
      1157.116,662.086
      1170.474,668.739
      1186.374,669.446
      1199.884,675.964
      1202.511,691.257
      1213.649,702.060
      1229.015,704.221
      1242.700,696.907
      1249.443,682.931
      1246.649,667.667
      1235.395,656.985
      1220.006,654.992
      1206.401,662.454
      1192.891,655.936
      1195.908,649.070
      1201.943,635.337
      1204.961,628.471
      1214.696,641.668
      1230.960,639.566
      1237.021,624.329
      1226.645,611.630
      1210.505,614.533
      1196.083,601.526
      1178.611,597.657
      1162.971,602.506
      1152.860,613.393
      1139.206,607.182
      1141.707,600.111
      1155.849,605.112
      1170.597,602.373
      1160.850,590.971
      1146.709,585.969
      1149.209,578.899
      1163.732,582.652
      1178.255,586.406
      1184.825,600.596
      1199.001,607.197
      1214.090,603.090
      1222.967,590.217
      1221.440,574.654
      1210.231,563.750
      1194.632,562.654
      1182.008,571.883
      1167.486,568.130
      1152.963,564.376
      1142.998,552.434
      1129.997,545.119
      1115.875,542.996
      1102.543,545.901
      1091.653,553.019
      1084.394,563.041
      1070.386,557.677
      1056.378,552.313
      1051.320,547.056
      1042.316,546.954
      1028.291,541.635
      1014.266,536.316
      1012.509,533.396
      1009.312,531.137
      1004.979,530.179
      1000.079,531.014
      986.003,525.830
      971.927,520.647
      957.851,515.464
      943.792,510.235
      929.750,504.961
      915.716,499.665
      901.691,494.346
      899.643,473.035
      886.755,455.844
      866.731,447.847
      845.396,451.454
      829.000,465.691
      815.116,460.012
      801.233,454.333
      787.349,448.655
      773.466,442.976
      759.582,437.297
      745.699,431.618
      719.203,416.035
      698.110,427.774
      684.773,420.911
      680.320,415.132
      671.381,414.046
      658.021,407.226
      644.662,400.405
      631.302,393.585
      617.943,386.764
      604.583,379.943
      591.223,373.123
      577.864,366.302
      579.031,358.894
      592.402,365.693
      603.000,355.077
      596.179,341.718
      581.366,344.076
      582.533,336.668
      597.343,334.285
      612.152,331.903
      626.962,329.521
      641.771,327.138
      658.370,330.592
      666.284,315.599
      654.067,303.844
      639.389,312.329
      624.579,314.711
      609.770,317.093
      594.960,319.476
      580.151,321.858
      578.356,314.576
      592.920,310.986
      607.484,307.397
      622.048,303.807
      632.866,293.416
      618.458,289.243
      603.894,292.832
      589.330,296.422
      574.766,300.012
      572.971,292.730
      587.192,287.957
      601.412,283.184
      615.632,278.411
      629.853,273.638
      644.073,268.865
      658.293,264.092
      672.330,271.354
      687.366,266.484
      694.479,252.371
      689.450,237.388
      675.263,230.425
      660.334,235.612
      653.521,249.872
      639.300,254.645
      625.080,259.418
      610.859,264.191
      596.639,268.964
      582.419,273.737
      568.198,278.509
      580.166,269.467
      586.310,255.783
      585.113,240.831
      576.871,228.298
      563.617,221.274
      548.619,221.492
      535.574,228.897
      527.700,241.664
      526.938,256.645
      533.476,270.145
      545.701,278.836
      531.348,274.477
      516.995,270.118
      502.642,265.760
      488.289,261.401
      489.031,255.076
      489.100,248.709
      488.494,242.369
      487.221,236.130
      485.296,230.060
      482.739,224.227
      495.192,215.866
      507.646,207.505
      520.100,199.144
      532.553,190.783
      545.007,182.421
      557.460,174.060
      571.578,180.280
      586.814,177.858
      598.306,167.566
      602.388,152.688
      597.756,137.972
      585.889,128.114
      570.574,126.260
      556.697,133.000
      548.687,146.185
      549.099,161.607
      536.645,169.968
      524.192,178.329
      511.738,186.690
      499.285,195.051
      486.831,203.413
      474.378,211.774
      466.800,204.423
      458.049,198.507
      448.391,194.210
      438.124,191.666
      427.564,190.957
      417.035,192.106
      406.864,195.081
      397.363,199.791
      388.827,206.095
      381.520,213.799
      375.669,222.668
      371.456,232.430
      356.731,229.572
      342.006,226.713
      330.986,216.693
      315.965,221.659
      301.240,218.801
      286.514,215.942
      271.789,213.084
      257.069,210.202
      242.353,207.297
      236.475,202.976
      227.585,204.405
      212.860,201.547
      209.612,194.787
      223.905,190.236
      238.197,185.684
      252.490,181.133
      267.431,182.459
      279.693,173.819
      283.469,159.302
      276.973,145.782
      263.279,139.659
      248.871,143.833
      240.571,156.325
      228.086,164.639
      215.601,172.953
      203.116,181.266
      199.868,174.506
      206.839,161.224
      213.810,147.943
      227.074,139.319
      226.138,124.454
      233.108,111.172
      247.254,116.236
      261.967,119.283
      276.960,120.252
      291.943,119.125
      306.623,115.923
      320.714,110.710
      333.943,103.586
      346.051,94.690
      356.804,84.196
      365.991,72.307
      373.434,59.256
      378.988,45.295
      382.546,30.698
      384.036,15.747
      383.432,0.734
      380.744,-14.048
      376.025,-28.313
      369.366,-41.781
      360.898,-54.193
      350.785,-65.304
      339.223,-74.900
      326.439,-82.793
      312.681,-88.831
      298.216,-92.895
      283.326,-94.905
      268.301,-94.824
      253.434,-92.653
      239.014,-88.434
      225.321,-82.249
      212.623,-74.218
      201.166,-64.498
      191.173,-53.278
      182.838,-40.776
      176.325,-27.237
      171.760,-12.922
      169.232,1.888
      168.789,16.907
      170.441,31.841
      174.155,46.399
      179.860,60.299
      187.443,73.270
      196.758,85.059
      207.623,95.436
      219.827,104.201
      212.856,117.483
      200.090,125.157
      200.528,140.972
      193.557,154.254
      186.586,167.535
      179.431,165.287
      183.928,150.977
      188.425,136.667
      192.923,122.357
      197.420,108.047
      201.917,93.737
      206.414,79.427
      210.911,65.117
      196.601,60.620
      192.104,74.930
      187.607,89.240
      183.110,103.550
      178.613,117.860
      174.115,132.170
      169.618,146.480
      165.121,160.790
      157.966,158.541
      159.846,143.659
      161.726,128.778
      163.606,113.896
      165.486,99.014
      167.366,84.132
      169.246,69.251
      171.126,54.369
      173.006,39.487
      174.886,24.606
      185.227,11.877
      179.122,-3.343
      162.852,-5.398
      153.154,7.826
      160.004,22.726
      158.124,37.607
      156.244,52.489
      154.364,67.371
      152.484,82.252
      150.604,97.134
      148.724,112.016
      146.844,126.898
      144.964,141.779
      143.084,156.661
      135.587,156.480
      135.949,141.484
      136.312,126.489
      136.674,111.493
      137.036,96.497
      129.853,83.329
      122.041,96.135
    " />
    <g style="stroke: black; stroke-width: 1" id="pairs">
      <line id="4,20" x1="113.093" y1="155.936" x2="98.138" y2="157.095" />
      <line id="5,19" x1="111.934" y1="140.981" x2="96.979" y2="142.140" />
      <line id="8,16" x1="109.102" y1="104.428" x2="94.147" y2="105.586" />
      <line id="22,286" x1="63.519" y1="199.278" x2="55.319" y2="211.838" />
      <line id="25,283" x1="32.819" y1="179.235" x2="24.619" y2="191.796" />
      <line id="26,282" x1="20.259" y1="171.035" x2="12.059" y2="183.596" />
      <line id="27,281" x1=" 7.699" y1="162.836" x2="-0.501" y2="175.396" />
      <line id="28,280" x1="-4.862" y1="154.636" x2="-13.062" y2="167.196" />
      <line id="29,279" x1="-17.422" y1="146.436" x2="-25.622" y2="158.996" />
      <line id="30,278" x1="-29.982" y1="138.236" x2="-38.182" y2="150.796" />
      <line id="31,277" x1="-42.543" y1="130.036" x2="-50.743" y2="142.596" />
      <line id="33,225" x1="-68.831" y1="93.377" x2="-78.940" y2="104.460" />
      <line id="34,224" x1="-79.913" y1="83.269" x2="-90.022" y2="94.351" />
      <line id="35,223" x1="-90.996" y1="73.160" x2="-101.104" y2="84.242" />
      <line id="36,222" x1="-102.078" y1="63.052" x2="-112.186" y2="74.134" />
      <line id="37,221" x1="-113.160" y1="52.943" x2="-123.269" y2="64.025" />
      <line id="38,220" x1="-124.242" y1="42.834" x2="-134.351" y2="53.917" />
      <line id="39,218" x1="-135.308" y1="32.708" x2="-145.452" y2="43.758" />
      <line id="40,217" x1="-146.358" y1="22.564" x2="-156.502" y2="33.613" />
      <line id="45,181" x1="-172.366" y1="-24.475" x2="-183.561" y2="-14.492" />
      <line id="46,180" x1="-182.349" y1="-35.671" x2="-193.544" y2="-25.688" />
      <line id="47,179" x1="-192.332" y1="-46.867" x2="-203.527" y2="-36.884" />
      <line id="49,178" x1="-202.365" y1="-58.082" x2="-213.528" y2="-48.063" />
      <line id="50,177" x1="-212.384" y1="-69.245" x2="-223.547" y2="-59.226" />
      <line id="51,176" x1="-222.403" y1="-80.409" x2="-233.566" y2="-70.390" />
      <line id="54,61" x1="-231.129" y1="-155.882" x2="-245.111" y2="-150.450" />
      <line id="55,60" x1="-236.561" y1="-169.864" x2="-250.543" y2="-164.432" />
      <line id="68,158" x1="-270.697" y1="-134.785" x2="-281.892" y2="-124.802" />
      <line id="69,157" x1="-280.679" y1="-145.981" x2="-291.875" y2="-135.998" />
      <line id="70,156" x1="-290.662" y1="-157.176" x2="-301.858" y2="-147.193" />
      <line id="78,105" x1="-299.119" y1="-231.397" x2="-311.586" y2="-223.056" />
      <line id="79,104" x1="-307.460" y1="-243.864" x2="-319.927" y2="-235.522" />
      <line id="80,103" x1="-315.801" y1="-256.331" x2="-328.268" y2="-247.990" />
      <line id="81,102" x1="-324.142" y1="-268.798" x2="-336.609" y2="-260.457" />
      <line id="85,98" x1="-350.020" y1="-307.477" x2="-362.487" y2="-299.136" />
      <line id="86,97" x1="-358.361" y1="-319.944" x2="-370.828" y2="-311.603" />
      <line id="87,96" x1="-366.703" y1="-332.411" x2="-379.170" y2="-324.070" />
      <line id="110,137" x1="-334.670" y1="-203.896" x2="-345.165" y2="-193.178" />
      <line id="112,135" x1="-353.623" y1="-222.456" x2="-364.118" y2="-211.739" />
      <line id="113,133" x1="-364.324" y1="-232.968" x2="-374.853" y2="-222.285" />
      <line id="114,132" x1="-375.007" y1="-243.497" x2="-385.536" y2="-232.814" />
      <line id="140,153" x1="-364.511" y1="-170.249" x2="-373.308" y2="-158.100" />
      <line id="144,150" x1="-397.716" y1="-194.214" x2="-406.474" y2="-182.036" />
      <line id="145,149" x1="-409.894" y1="-202.972" x2="-418.652" y2="-190.794" />
      <line id="162,169" x1="-300.602" y1="-101.352" x2="-307.850" y2="-88.219" />
      <line id="163,168" x1="-313.735" y1="-108.599" x2="-320.983" y2="-95.466" />
      <line id="190,215" x1="-199.349" y1="11.017" x2="-203.290" y2="25.490" />
      <line id="191,214" x1="-213.822" y1=" 7.076" x2="-217.763" y2="21.550" />
      <line id="192,213" x1="-228.296" y1=" 3.136" x2="-232.236" y2="17.609" />
      <line id="193,212" x1="-242.769" y1="-0.805" x2="-246.709" y2="13.668" />
      <line id="197,210" x1="-275.039" y1="-9.485" x2="-278.887" y2=" 5.013" />
      <line id="198,209" x1="-289.538" y1="-13.332" x2="-293.385" y2=" 1.166" />
      <line id="199,208" x1="-304.036" y1="-17.180" x2="-307.883" y2="-2.681" />
      <line id="200,207" x1="-318.534" y1="-21.027" x2="-322.381" y2="-6.529" />
      <line id="201,206" x1="-333.032" y1="-24.874" x2="-336.880" y2="-10.376" />
      <line id="230,275" x1="-88.988" y1="132.727" x2="-88.143" y2="147.703" />
      <line id="231,274" x1="-103.964" y1="133.572" x2="-103.119" y2="148.548" />
      <line id="232,273" x1="-118.940" y1="134.418" x2="-118.095" y2="149.394" />
      <line id="233,272" x1="-133.916" y1="135.263" x2="-133.071" y2="150.239" />
      <line id="234,271" x1="-148.893" y1="136.108" x2="-148.047" y2="151.084" />
      <line id="235,256" x1="-163.884" y1="136.616" x2="-163.715" y2="151.615" />
      <line id="236,255" x1="-178.883" y1="136.785" x2="-178.714" y2="151.784" />
      <line id="237,254" x1="-193.882" y1="136.954" x2="-193.713" y2="151.953" />
      <line id="292,505" x1="67.403" y1="268.690" x2="80.003" y2="276.830" />
      <line id="293,504" x1="59.264" y1="281.290" x2="71.864" y2="289.429" />
      <line id="294,503" x1="51.125" y1="293.890" x2="63.725" y2="302.029" />
      <line id="295,502" x1="42.986" y1="306.490" x2="55.586" y2="314.629" />
      <line id="302,421" x1="-4.127" y1="305.006" x2=" 6.194" y2="315.891" />
      <line id="303,420" x1="-15.012" y1="315.327" x2="-4.691" y2="326.212" />
      <line id="304,419" x1="-25.897" y1="325.648" x2="-15.576" y2="336.533" />
      <line id="305,418" x1="-36.781" y1="335.969" x2="-26.460" y2="346.854" />
      <line id="310,412" x1="-80.892" y1="377.662" x2="-70.606" y2="388.580" />
      <line id="311,411" x1="-91.810" y1="387.948" x2="-81.524" y2="398.866" />
      <line id="325,399" x1="-188.046" y1="479.197" x2="-177.690" y2="490.048" />
      <line id="326,398" x1="-198.897" y1="489.553" x2="-188.541" y2="500.404" />
      <line id="327,397" x1="-209.749" y1="499.909" x2="-199.393" y2="510.760" />
      <line id="328,396" x1="-220.600" y1="510.265" x2="-210.244" y2="521.116" />
      <line id="329,395" x1="-231.452" y1="520.621" x2="-221.096" y2="531.472" />
      <line id="330,394" x1="-242.303" y1="530.977" x2="-231.947" y2="541.828" />
      <line id="331,393" x1="-253.155" y1="541.333" x2="-242.799" y2="552.184" />
      <line id="332,392" x1="-264.006" y1="551.689" x2="-253.650" y2="562.540" />
      <line id="337,367" x1="-307.012" y1="532.603" x2="-297.376" y2="544.099" />
      <line id="338,366" x1="-318.508" y1="542.239" x2="-308.872" y2="553.734" />
      <line id="339,365" x1="-330.004" y1="551.874" x2="-320.368" y2="563.370" />
      <line id="340,364" x1="-341.499" y1="561.510" x2="-331.864" y2="573.006" />
      <line id="342,362" x1="-361.830" y1="578.550" x2="-352.194" y2="590.046" />
      <line id="343,361" x1="-373.326" y1="588.186" x2="-363.690" y2="599.682" />
      <line id="346,357" x1="-404.713" y1="614.412" x2="-395.115" y2="625.939" />
      <line id="347,356" x1="-416.240" y1="624.010" x2="-406.642" y2="635.537" />
      <line id="348,355" x1="-427.767" y1="633.609" x2="-418.168" y2="645.136" />
      <line id="384,391" x1="-275.607" y1="564.741" x2="-263.615" y2="573.752" />
      <line id="426,467" x1="31.954" y1="331.266" x2="46.434" y2="335.184" />
      <line id="427,466" x1="28.037" y1="345.746" x2="42.517" y2="349.663" />
      <line id="428,465" x1="24.120" y1="360.225" x2="38.599" y2="364.143" />
      <line id="429,464" x1="20.203" y1="374.705" x2="34.682" y2="378.622" />
      <line id="430,463" x1="16.285" y1="389.184" x2="30.765" y2="393.101" />
      <line id="431,462" x1="12.368" y1="403.664" x2="26.847" y2="407.581" />
      <line id="435,461" x1=" 8.484" y1="418.302" x2="23.000" y2="422.079" />
      <line id="436,460" x1=" 4.706" y1="432.819" x2="19.223" y2="436.596" />
      <line id="440,456" x1="-7.012" y1="477.857" x2=" 7.504" y2="481.634" />
      <line id="441,455" x1="-10.789" y1="492.373" x2=" 3.727" y2="496.151" />
      <line id="442,454" x1="-14.567" y1="506.890" x2="-0.050" y2="510.667" />
      <line id="443,453" x1="-18.344" y1="521.407" x2="-3.827" y2="525.184" />
      <line id="507,536" x1="174.439" y1="241.034" x2="189.081" y2="237.774" />
      <line id="508,535" x1="177.700" y1="255.676" x2="192.341" y2="252.416" />
      <line id="509,534" x1="180.960" y1="270.317" x2="195.601" y2="267.057" />
      <line id="516,529" x1="195.173" y1="333.201" x2="209.793" y2="329.846" />
      <line id="517,528" x1="198.527" y1="347.821" x2="213.148" y2="344.466" />
      <line id="518,527" x1="201.882" y1="362.441" x2="216.502" y2="359.086" />
      <line id="519,526" x1="205.237" y1="377.061" x2="219.857" y2="373.706" />
      <line id="545,858" x1="210.001" y1="216.272" x2="212.860" y2="201.547" />
      <line id="546,857" x1="224.727" y1="219.131" x2="227.585" y2="204.405" />
      <line id="547,855" x1="239.447" y1="222.013" x2="242.353" y2="207.297" />
      <line id="548,854" x1="254.163" y1="224.918" x2="257.069" y2="210.202" />
      <line id="550,853" x1="268.931" y1="227.809" x2="271.789" y2="213.084" />
      <line id="551,852" x1="283.656" y1="230.667" x2="286.514" y2="215.942" />
      <line id="552,851" x1="298.381" y1="233.526" x2="301.240" y2="218.801" />
      <line id="553,850" x1="313.107" y1="236.384" x2="315.965" y2="221.659" />
      <line id="555,848" x1="339.148" y1="241.439" x2="342.006" y2="226.713" />
      <line id="556,847" x1="353.873" y1="244.297" x2="356.731" y2="229.572" />
      <line id="557,846" x1="368.598" y1="247.155" x2="371.456" y2="232.430" />
      <line id="565,806" x1="483.931" y1="275.754" x2="488.289" y2="261.401" />
      <line id="566,805" x1="498.284" y1="280.113" x2="502.642" y2="265.760" />
      <line id="567,804" x1="512.636" y1="284.471" x2="516.995" y2="270.118" />
      <line id="568,803" x1="526.989" y1="288.830" x2="531.348" y2="274.477" />
      <line id="569,802" x1="541.342" y1="293.188" x2="545.701" y2="278.836" />
      <line id="572,744" x1="571.043" y1="379.662" x2="577.864" y2="366.302" />
      <line id="573,743" x1="584.403" y1="386.482" x2="591.223" y2="373.123" />
      <line id="574,742" x1="597.762" y1="393.303" x2="604.583" y2="379.943" />
      <line id="575,741" x1="611.122" y1="400.124" x2="617.943" y2="386.764" />
      <line id="576,740" x1="624.482" y1="406.944" x2="631.302" y2="393.585" />
      <line id="577,739" x1="637.841" y1="413.765" x2="644.662" y2="400.405" />
      <line id="578,738" x1="651.201" y1="420.585" x2="658.021" y2="407.226" />
      <line id="579,737" x1="664.560" y1="427.406" x2="671.381" y2="414.046" />
      <line id="580,735" x1="677.909" y1="434.248" x2="684.773" y2="420.911" />
      <line id="581,734" x1="691.247" y1="441.112" x2="698.110" y2="427.774" />
      <line id="585,600" x1="710.380" y1="478.936" x2="722.075" y2="469.543" />
      <line id="586,599" x1="719.773" y1="490.631" x2="731.468" y2="481.238" />
      <line id="587,598" x1="729.166" y1="502.326" x2="740.861" y2="492.933" />
      <line id="588,597" x1="738.558" y1="514.021" x2="750.253" y2="504.628" />
      <line id="610,732" x1="740.020" y1="445.502" x2="745.699" y2="431.618" />
      <line id="611,731" x1="753.904" y1="451.180" x2="759.582" y2="437.297" />
      <line id="612,730" x1="767.787" y1="456.859" x2="773.466" y2="442.976" />
      <line id="613,729" x1="781.670" y1="462.538" x2="787.349" y2="448.655" />
      <line id="614,728" x1="795.554" y1="468.217" x2="801.233" y2="454.333" />
      <line id="615,727" x1="809.437" y1="473.896" x2="815.116" y2="460.012" />
      <line id="616,726" x1="823.321" y1="479.574" x2="829.000" y2="465.691" />
      <line id="629,721" x1="896.372" y1="508.371" x2="901.691" y2="494.346" />
      <line id="630,720" x1="910.397" y1="513.690" x2="915.716" y2="499.665" />
      <line id="632,719" x1="924.476" y1="519.004" x2="929.750" y2="504.961" />
      <line id="633,718" x1="938.518" y1="524.278" x2="943.792" y2="510.235" />
      <line id="636,717" x1="952.668" y1="529.540" x2="957.851" y2="515.464" />
      <line id="637,716" x1="966.744" y1="534.723" x2="971.927" y2="520.647" />
      <line id="638,715" x1="980.820" y1="539.906" x2="986.003" y2="525.830" />
      <line id="639,714" x1="994.896" y1="545.090" x2="1000.079" y2="531.014" />
      <line id="640,710" x1="1008.947" y1="550.341" x2="1014.266" y2="536.316" />
      <line id="641,709" x1="1022.972" y1="555.660" x2="1028.291" y2="541.635" />
      <line id="642,708" x1="1036.997" y1="560.979" x2="1042.316" y2="546.954" />
      <line id="643,706" x1="1051.014" y1="566.321" x2="1056.378" y2="552.313" />
      <line id="644,705" x1="1065.022" y1="571.685" x2="1070.386" y2="557.677" />
      <line id="645,704" x1="1079.030" y1="577.049" x2="1084.394" y2="563.041" />
      <line id="650,680" x1="1132.995" y1="620.835" x2="1139.206" y2="607.182" />
      <line id="651,679" x1="1146.649" y1="627.047" x2="1152.860" y2="613.393" />
      <line id="656,667" x1="1186.374" y1="669.446" x2="1192.891" y2="655.936" />
      <line id="657,666" x1="1199.884" y1="675.964" x2="1206.401" y2="662.454" />
      <line id="670,675" x1="1204.961" y1="628.471" x2="1210.505" y2="614.533" />
      <line id="686,698" x1="1149.209" y1="578.899" x2="1152.963" y2="564.376" />
      <line id="687,697" x1="1163.732" y1="582.652" x2="1167.486" y2="568.130" />
      <line id="688,696" x1="1178.255" y1="586.406" x2="1182.008" y2="571.883" />
      <line id="750,762" x1="582.533" y1="336.668" x2="580.151" y2="321.858" />
      <line id="751,761" x1="597.343" y1="334.285" x2="594.960" y2="319.476" />
      <line id="752,760" x1="612.152" y1="331.903" x2="609.770" y2="317.093" />
      <line id="753,759" x1="626.962" y1="329.521" x2="624.579" y2="314.711" />
      <line id="754,758" x1="641.771" y1="327.138" x2="639.389" y2="312.329" />
      <line id="772,791" x1="572.971" y1="292.730" x2="568.198" y2="278.509" />
      <line id="773,790" x1="587.192" y1="287.957" x2="582.419" y2="273.737" />
      <line id="774,789" x1="601.412" y1="283.184" x2="596.639" y2="268.964" />
      <line id="775,788" x1="615.632" y1="278.411" x2="610.859" y2="264.191" />
      <line id="776,787" x1="629.853" y1="273.638" x2="625.080" y2="259.418" />
      <line id="777,786" x1="644.073" y1="268.865" x2="639.300" y2="254.645" />
      <line id="778,785" x1="658.293" y1="264.092" x2="653.521" y2="249.872" />
      <line id="812,834" x1="482.739" y1="224.227" x2="474.378" y2="211.774" />
      <line id="813,833" x1="495.192" y1="215.866" x2="486.831" y2="203.413" />
      <line id="814,832" x1="507.646" y1="207.505" x2="499.285" y2="195.051" />
      <line id="815,831" x1="520.100" y1="199.144" x2="511.738" y2="186.690" />
      <line id="816,830" x1="532.553" y1="190.783" x2="524.192" y2="178.329" />
      <line id="817,829" x1="545.007" y1="182.421" x2="536.645" y2="169.968" />
      <line id="818,828" x1="557.460" y1="174.060" x2="549.099" y2="161.607" />
      <line id="873,927" x1="199.868" y1="174.506" x2="186.586" y2="167.535" />
      <line id="874,926" x1="206.839" y1="161.224" x2="193.557" y2="154.254" />
      <line id="875,925" x1="213.810" y1="147.943" x2="200.528" y2="140.972" />
      <line id="877,923" x1="226.138" y1="124.454" x2="212.856" y2="117.483" />
      <line id="878,922" x1="233.108" y1="111.172" x2="219.827" y2="104.201" />
      <line id="944,967" x1="157.966" y1="158.541" x2="143.084" y2="156.661" />
      <line id="945,966" x1="159.846" y1="143.659" x2="144.964" y2="141.779" />
      <line id="946,965" x1="161.726" y1="128.778" x2="146.844" y2="126.898" />
      <line id="947,964" x1="163.606" y1="113.896" x2="148.724" y2="112.016" />
      <line id="948,963" x1="165.486" y1="99.014" x2="150.604" y2="97.134" />
      <line id="949,962" x1="167.366" y1="84.132" x2="152.484" y2="82.252" />
      <line id="950,961" x1="169.246" y1="69.251" x2="154.364" y2="67.371" />
      <line id="951,960" x1="171.126" y1="54.369" x2="156.244" y2="52.489" />
      <line id="952,959" x1="173.006" y1="39.487" x2="158.124" y2="37.607" />
      <line id="953,958" x1="174.886" y1="24.606" x2="160.004" y2="22.726" />
    </g>
    <g style="font-family: SansSerif" transform="translate(-4.6, 4)" id="seq">
      <text x="121.316" y="126.126">A</text>
      <text x="120.953" y="141.122">A</text>
      <text x="120.591" y="156.117">G</text>
      <text x="113.093" y="155.936">A</text>
      <text x="111.934" y="140.981">G</text>
      <text x="121.936" y="129.040">A</text>
      <text x="120.548" y="113.889">C</text>
      <text x="109.102" y="104.428">U</text>
      <text x="120.395" y="93.611">U</text>
      <text x="122.041" y="78.060">A</text>
      <text x="113.263" y="65.118">G</text>
      <text x="98.206" y="60.896">U</text>
      <text x="83.980" y="67.387">C</text>
      <text x="77.301" y="81.527">C</text>
      <text x="81.323" y="96.638">C</text>
      <text x="94.147" y="105.586">A</text>
      <text x="84.295" y="116.698">A</text>
      <text x="85.257" y="131.882">C</text>
      <text x="96.979" y="142.140">C</text>
      <text x="98.138" y="157.095">U</text>
      <text x="74.045" y="175.734">U</text>
      <text x="63.519" y="199.278">A</text>
      <text x="60.152" y="184.069">C</text>
      <text x="47.297" y="175.932">U</text>
      <text x="32.819" y="179.235">G</text>
      <text x="20.259" y="171.035">U</text>
      <text x="7.699" y="162.836">U</text>
      <text x="-4.862" y="154.636">A</text>
      <text x="-17.422" y="146.436">G</text>
      <text x="-29.982" y="138.236">U</text>
      <text x="-42.543" y="130.036">U</text>
      <text x="-43.079" y="107.374">G</text>
      <text x="-68.831" y="93.377">U</text>
      <text x="-79.913" y="83.269">U</text>
      <text x="-90.996" y="73.160">G</text>
      <text x="-102.078" y="63.052">C</text>
      <text x="-113.160" y="52.943">U</text>
      <text x="-124.242" y="42.834">A</text>
      <text x="-135.308" y="32.708">G</text>
      <text x="-146.358" y="22.564">G</text>
      <text x="-141.567" y="12.723">A</text>
      <text x="-141.441" y="0.708">U</text>
      <text x="-146.884" y="-11.198">U</text>
      <text x="-157.671" y="-20.388">A</text>
      <text x="-172.366" y="-24.475">U</text>
      <text x="-182.349" y="-35.671">A</text>
      <text x="-192.332" y="-46.867">C</text>
      <text x="-195.647" y="-55.238">A</text>
      <text x="-202.365" y="-58.082">U</text>
      <text x="-212.384" y="-69.245">G</text>
      <text x="-222.403" y="-80.409">C</text>
      <text x="-207.467" y="-99.511">A</text>
      <text x="-208.392" y="-129.127">A</text>
      <text x="-231.129" y="-155.882">G</text>
      <text x="-236.561" y="-169.864">U</text>
      <text x="-233.527" y="-185.980">A</text>
      <text x="-246.142" y="-196.458">U</text>
      <text x="-261.428" y="-190.520">C</text>
      <text x="-263.661" y="-174.273">C</text>
      <text x="-250.543" y="-164.432">G</text>
      <text x="-245.111" y="-150.450">C</text>
      <text x="-251.507" y="-146.534">G</text>
      <text x="-259.340" y="-159.327">C</text>
      <text x="-267.172" y="-172.119">C</text>
      <text x="-279.965" y="-164.287">C</text>
      <text x="-272.132" y="-151.494">C</text>
      <text x="-264.300" y="-138.702">A</text>
      <text x="-270.697" y="-134.785">G</text>
      <text x="-280.679" y="-145.981">U</text>
      <text x="-290.662" y="-157.176">G</text>
      <text x="-283.967" y="-162.179">A</text>
      <text x="-278.416" y="-169.448">G</text>
      <text x="-274.709" y="-178.678">G</text>
      <text x="-273.453" y="-189.363">A</text>
      <text x="-275.112" y="-200.823">C</text>
      <text x="-279.955" y="-212.243">G</text>
      <text x="-288.026" y="-222.736">C</text>
      <text x="-299.119" y="-231.397">C</text>
      <text x="-307.460" y="-243.864">C</text>
      <text x="-315.801" y="-256.331">U</text>
      <text x="-324.142" y="-268.798">G</text>
      <text x="-318.942" y="-283.298">G</text>
      <text x="-323.228" y="-297.909">A</text>
      <text x="-335.155" y="-307.087">C</text>
      <text x="-350.020" y="-307.477">A</text>
      <text x="-358.361" y="-319.944">C</text>
      <text x="-366.703" y="-332.411">C</text>
      <text x="-361.214" y="-346.925">U</text>
      <text x="-365.338" y="-361.884">U</text>
      <text x="-377.488" y="-371.536">A</text>
      <text x="-392.992" y="-372.169">C</text>
      <text x="-405.889" y="-363.541">C</text>
      <text x="-411.219" y="-348.968">C</text>
      <text x="-406.934" y="-334.055">A</text>
      <text x="-394.680" y="-324.535">A</text>
      <text x="-379.170" y="-324.070">G</text>
      <text x="-370.828" y="-311.603">G</text>
      <text x="-362.487" y="-299.136">U</text>
      <text x="-367.799" y="-285.246">A</text>
      <text x="-363.867" y="-270.720">G</text>
      <text x="-351.997" y="-261.183">A</text>
      <text x="-336.609" y="-260.457">U</text>
      <text x="-328.268" y="-247.990">A</text>
      <text x="-319.927" y="-235.522">G</text>
      <text x="-311.586" y="-223.056">G</text>
      <text x="-317.357" y="-218.266">A</text>
      <text x="-326.937" y="-229.808">G</text>
      <text x="-338.479" y="-220.227">C</text>
      <text x="-328.899" y="-208.686">A</text>
      <text x="-334.670" y="-203.896">G</text>
      <text x="-339.117" y="-219.079">A</text>
      <text x="-353.623" y="-222.456">C</text>
      <text x="-364.324" y="-232.968">A</text>
      <text x="-375.007" y="-243.497">U</text>
      <text x="-368.436" y="-257.140">C</text>
      <text x="-366.654" y="-272.176">A</text>
      <text x="-369.853" y="-286.976">G</text>
      <text x="-377.686" y="-299.935">G</text>
      <text x="-389.304" y="-309.646">C</text>
      <text x="-403.446" y="-315.056">A</text>
      <text x="-418.579" y="-315.578">C</text>
      <text x="-433.061" y="-311.156">A</text>
      <text x="-445.321" y="-302.269">C</text>
      <text x="-454.029" y="-289.882">C</text>
      <text x="-458.241" y="-275.337">A</text>
      <text x="-457.499" y="-260.213">C</text>
      <text x="-451.885" y="-246.151">C</text>
      <text x="-442.006" y="-234.675">A</text>
      <text x="-428.936" y="-227.030">A</text>
      <text x="-414.091" y="-224.046">C</text>
      <text x="-399.082" y="-226.047">C</text>
      <text x="-385.536" y="-232.814">G</text>
      <text x="-374.853" y="-222.285">U</text>
      <text x="-372.326" y="-215.441">A</text>
      <text x="-364.118" y="-211.739">G</text>
      <text x="-360.439" y="-197.306">C</text>
      <text x="-345.165" y="-193.178">C</text>
      <text x="-350.002" y="-187.446">C</text>
      <text x="-359.674" y="-175.981">A</text>
      <text x="-364.511" y="-170.249">A</text>
      <text x="-365.076" y="-183.630">G</text>
      <text x="-373.095" y="-194.113">A</text>
      <text x="-385.491" y="-198.044">C</text>
      <text x="-397.716" y="-194.214">G</text>
      <text x="-409.894" y="-202.972">U</text>
      <text x="-419.223" y="-217.129">C</text>
      <text x="-435.408" y="-212.083">U</text>
      <text x="-435.041" y="-195.134">G</text>
      <text x="-418.652" y="-190.794">G</text>
      <text x="-406.474" y="-182.036">C</text>
      <text x="-404.430" y="-165.286">A</text>
      <text x="-390.594" y="-155.044">A</text>
      <text x="-373.308" y="-158.100">U</text>
      <text x="-348.175" y="-136.110">G</text>
      <text x="-320.329" y="-134.229">C</text>
      <text x="-301.858" y="-147.193">C</text>
      <text x="-291.875" y="-135.998">A</text>
      <text x="-281.892" y="-124.802">C</text>
      <text x="-286.570" y="-118.940">A</text>
      <text x="-301.401" y="-121.179">C</text>
      <text x="-295.925" y="-107.214">C</text>
      <text x="-300.602" y="-101.352">C</text>
      <text x="-313.735" y="-108.599">C</text>
      <text x="-321.740" y="-122.912">C</text>
      <text x="-338.139" y="-122.866">A</text>
      <text x="-346.062" y="-108.508">C</text>
      <text x="-337.359" y="-94.608">G</text>
      <text x="-320.983" y="-95.466">G</text>
      <text x="-307.850" y="-88.219">G</text>
      <text x="-299.340" y="-74.553">U</text>
      <text x="-288.078" y="-64.550">U</text>
      <text x="-275.359" y="-58.623">A</text>
      <text x="-262.483" y="-56.772">U</text>
      <text x="-250.633" y="-58.619">C</text>
      <text x="-240.773" y="-63.465">A</text>
      <text x="-233.566" y="-70.390">G</text>
      <text x="-223.547" y="-59.226">C</text>
      <text x="-213.528" y="-48.063">A</text>
      <text x="-203.527" y="-36.884">G</text>
      <text x="-193.544" y="-25.688">U</text>
      <text x="-183.561" y="-14.492">A</text>
      <text x="-187.508" y="-8.115">G</text>
      <text x="-200.263" y="-16.009">U</text>
      <text x="-213.018" y="-23.903">U</text>
      <text x="-225.773" y="-31.797">A</text>
      <text x="-233.666" y="-19.042">A</text>
      <text x="-220.912" y="-11.148">C</text>
      <text x="-208.157" y="-3.254">A</text>
      <text x="-195.402" y="4.640">U</text>
      <text x="-199.349" y="11.017">U</text>
      <text x="-213.822" y="7.076">A</text>
      <text x="-228.296" y="3.136">A</text>
      <text x="-242.769" y="-0.805">G</text>
      <text x="-247.532" y="-10.404">C</text>
      <text x="-256.568" y="-15.749">A</text>
      <text x="-266.839" y="-15.317">A</text>
      <text x="-275.039" y="-9.485">U</text>
      <text x="-289.538" y="-13.332">G</text>
      <text x="-304.036" y="-17.180">A</text>
      <text x="-318.534" y="-21.027">G</text>
      <text x="-333.032" y="-24.874">U</text>
      <text x="-344.268" y="-36.819">G</text>
      <text x="-360.167" y="-32.798">C</text>
      <text x="-364.373" y="-16.948">A</text>
      <text x="-352.560" y="-5.573">A</text>
      <text x="-336.880" y="-10.376">A</text>
      <text x="-322.381" y="-6.529">C</text>
      <text x="-307.883" y="-2.681">U</text>
      <text x="-293.385" y="1.166">U</text>
      <text x="-278.887" y="5.013">G</text>
      <text x="-266.066" y="19.583">A</text>
      <text x="-246.709" y="13.668">C</text>
      <text x="-232.236" y="17.609">U</text>
      <text x="-217.763" y="21.550">U</text>
      <text x="-203.290" y="25.490">A</text>
      <text x="-178.925" y="41.392">G</text>
      <text x="-156.502" y="33.613">C</text>
      <text x="-145.452" y="43.758">C</text>
      <text x="-142.685" y="50.507">A</text>
      <text x="-134.351" y="53.917">U</text>
      <text x="-123.269" y="64.025">A</text>
      <text x="-112.186" y="74.134">G</text>
      <text x="-101.104" y="84.242">C</text>
      <text x="-90.022" y="94.351">A</text>
      <text x="-78.940" y="104.460">A</text>
      <text x="-81.452" y="111.526">A</text>
      <text x="-95.585" y="106.502">U</text>
      <text x="-100.609" y="120.636">C</text>
      <text x="-86.476" y="125.660">A</text>
      <text x="-88.988" y="132.727">G</text>
      <text x="-103.964" y="133.572">A</text>
      <text x="-118.940" y="134.418">G</text>
      <text x="-133.916" y="135.263">U</text>
      <text x="-148.893" y="136.108">C</text>
      <text x="-163.884" y="136.616">G</text>
      <text x="-178.883" y="136.785">G</text>
      <text x="-193.882" y="136.954">U</text>
      <text x="-199.204" y="122.760">A</text>
      <text x="-209.061" y="111.245">A</text>
      <text x="-222.264" y="103.798">A</text>
      <text x="-237.218" y="101.319">U</text>
      <text x="-252.118" y="104.107">C</text>
      <text x="-265.164" y="111.826">C</text>
      <text x="-274.781" y="123.543">U</text>
      <text x="-279.807" y="137.844">G</text>
      <text x="-279.636" y="153.001">U</text>
      <text x="-274.289" y="167.185">G</text>
      <text x="-264.410" y="178.682">C</text>
      <text x="-251.193" y="186.105">C</text>
      <text x="-236.234" y="188.556">A</text>
      <text x="-221.340" y="185.741">G</text>
      <text x="-208.308" y="177.998">C</text>
      <text x="-198.713" y="166.263">C</text>
      <text x="-193.713" y="151.953">A</text>
      <text x="-178.714" y="151.784">C</text>
      <text x="-163.715" y="151.615">C</text>
      <text x="-177.322" y="157.927">G</text>
      <text x="-187.490" y="168.955">C</text>
      <text x="-192.680" y="183.029">G</text>
      <text x="-192.105" y="198.018">G</text>
      <text x="-185.854" y="211.653">U</text>
      <text x="-174.872" y="221.870">C</text>
      <text x="-160.822" y="227.123">A</text>
      <text x="-145.830" y="226.616">U</text>
      <text x="-132.167" y="220.426">A</text>
      <text x="-121.900" y="209.490">C</text>
      <text x="-116.585" y="195.463">A</text>
      <text x="-117.024" y="180.470">G</text>
      <text x="-123.153" y="166.779">G</text>
      <text x="-134.043" y="156.463">A</text>
      <text x="-148.047" y="151.084">G</text>
      <text x="-133.071" y="150.239">A</text>
      <text x="-118.095" y="149.394">C</text>
      <text x="-103.119" y="148.548">U</text>
      <text x="-88.143" y="147.703">C</text>
      <text x="-65.631" y="152.897">A</text>
      <text x="-50.743" y="142.596">A</text>
      <text x="-38.182" y="150.796">A</text>
      <text x="-25.622" y="158.996">U</text>
      <text x="-13.062" y="167.196">U</text>
      <text x="-0.501" y="175.396">A</text>
      <text x="12.059" y="183.596">A</text>
      <text x="24.619" y="191.796">C</text>
      <text x="27.420" y="206.380">U</text>
      <text x="40.041" y="214.875">U</text>
      <text x="55.319" y="211.838">U</text>
      <text x="52.072" y="221.665">A</text>
      <text x="50.960" y="231.954">U</text>
      <text x="52.031" y="242.247">A</text>
      <text x="55.239" y="252.087">A</text>
      <text x="60.440" y="261.034">C</text>
      <text x="67.403" y="268.690">G</text>
      <text x="59.264" y="281.290">G</text>
      <text x="51.125" y="293.890">C</text>
      <text x="42.986" y="306.490">G</text>
      <text x="39.173" y="302.182">U</text>
      <text x="33.917" y="298.703">A</text>
      <text x="27.417" y="296.435">A</text>
      <text x="19.964" y="295.712">A</text>
      <text x="11.927" y="296.799">G</text>
      <text x="3.739" y="299.872">A</text>
      <text x="-4.127" y="305.006">G</text>
      <text x="-15.012" y="315.327">U</text>
      <text x="-25.897" y="325.648">G</text>
      <text x="-36.781" y="335.969">G</text>
      <text x="-52.647" y="331.106">U</text>
      <text x="-68.700" y="334.922">C</text>
      <text x="-80.544" y="346.274">G</text>
      <text x="-84.984" y="361.970">C</text>
      <text x="-80.892" y="377.662">A</text>
      <text x="-91.810" y="387.948">U</text>
      <text x="-103.345" y="380.118">G</text>
      <text x="-116.247" y="374.850">C</text>
      <text x="-129.954" y="372.373">U</text>
      <text x="-143.871" y="372.789">A</text>
      <text x="-157.393" y="376.080">U</text>
      <text x="-169.934" y="382.099">C</text>
      <text x="-180.951" y="390.582">C</text>
      <text x="-189.965" y="401.160">A</text>
      <text x="-196.589" y="413.371">A</text>
      <text x="-200.537" y="426.683">G</text>
      <text x="-201.639" y="440.518">U</text>
      <text x="-199.851" y="454.276">A</text>
      <text x="-195.253" y="467.357">G</text>
      <text x="-188.046" y="479.197">C</text>
      <text x="-198.897" y="489.553">U</text>
      <text x="-209.749" y="499.909">A</text>
      <text x="-220.600" y="510.265">A</text>
      <text x="-231.452" y="520.621">G</text>
      <text x="-242.303" y="530.977">A</text>
      <text x="-253.155" y="541.333">U</text>
      <text x="-264.006" y="551.689">U</text>
      <text x="-266.989" y="543.922">A</text>
      <text x="-273.299" y="537.098">A</text>
      <text x="-282.578" y="532.325">A</text>
      <text x="-294.139" y="530.577">A</text>
      <text x="-307.012" y="532.603">A</text>
      <text x="-318.508" y="542.239">G</text>
      <text x="-330.004" y="551.874">C</text>
      <text x="-341.499" y="561.510">A</text>
      <text x="-357.046" y="564.445">A</text>
      <text x="-361.830" y="578.550">C</text>
      <text x="-373.326" y="588.186">U</text>
      <text x="-390.785" y="586.363">G</text>
      <text x="-403.861" y="597.558">A</text>
      <text x="-404.713" y="614.412">G</text>
      <text x="-416.240" y="624.010">C</text>
      <text x="-427.767" y="633.609">U</text>
      <text x="-443.481" y="631.923">G</text>
      <text x="-455.732" y="641.907">U</text>
      <text x="-457.252" y="657.638">C</text>
      <text x="-447.139" y="669.783">A</text>
      <text x="-431.393" y="671.136">U</text>
      <text x="-419.355" y="660.895">A</text>
      <text x="-418.168" y="645.136">A</text>
      <text x="-406.642" y="635.537">G</text>
      <text x="-395.115" y="625.939">C</text>
      <text x="-382.649" y="628.894">C</text>
      <text x="-370.562" y="624.094">C</text>
      <text x="-363.306" y="613.069">A</text>
      <text x="-363.690" y="599.682">A</text>
      <text x="-352.194" y="590.046">G</text>
      <text x="-337.470" y="587.800">A</text>
      <text x="-331.864" y="573.006">U</text>
      <text x="-320.368" y="563.370">G</text>
      <text x="-308.872" y="553.734">C</text>
      <text x="-297.376" y="544.099">U</text>
      <text x="-291.934" y="549.259">C</text>
      <text x="-302.255" y="560.144">A</text>
      <text x="-312.576" y="571.029">U</text>
      <text x="-322.897" y="581.914">A</text>
      <text x="-333.218" y="592.798">A</text>
      <text x="-343.539" y="603.683">G</text>
      <text x="-353.859" y="614.568">G</text>
      <text x="-364.180" y="625.453">C</text>
      <text x="-353.295" y="635.773">C</text>
      <text x="-342.975" y="624.889">U</text>
      <text x="-332.654" y="614.004">C</text>
      <text x="-322.333" y="603.119">C</text>
      <text x="-312.012" y="592.234">G</text>
      <text x="-301.691" y="581.350">U</text>
      <text x="-291.370" y="570.465">C</text>
      <text x="-281.049" y="559.580">C</text>
      <text x="-275.607" y="564.741">U</text>
      <text x="-291.287" y="566.713">C</text>
      <text x="-300.915" y="579.246">A</text>
      <text x="-298.777" y="594.905">A</text>
      <text x="-286.142" y="604.400">A</text>
      <text x="-270.507" y="602.096">G</text>
      <text x="-261.147" y="589.362">A</text>
      <text x="-263.615" y="573.752">A</text>
      <text x="-253.650" y="562.540">G</text>
      <text x="-242.799" y="552.184">A</text>
      <text x="-231.947" y="541.828">U</text>
      <text x="-221.096" y="531.472">C</text>
      <text x="-210.244" y="521.116">U</text>
      <text x="-199.393" y="510.760">U</text>
      <text x="-188.541" y="500.404">A</text>
      <text x="-177.690" y="490.048">G</text>
      <text x="-164.202" y="498.821">A</text>
      <text x="-148.995" y="504.101">A</text>
      <text x="-132.956" y="505.575">C</text>
      <text x="-117.024" y="503.155">A</text>
      <text x="-102.131" y="496.976">A</text>
      <text x="-89.151" y="487.397">C</text>
      <text x="-78.846" y="474.974">G</text>
      <text x="-71.821" y="460.434">A</text>
      <text x="-68.491" y="444.623">U</text>
      <text x="-69.055" y="428.467">C</text>
      <text x="-73.485" y="412.911">A</text>
      <text x="-81.524" y="398.866">A</text>
      <text x="-70.606" y="388.580">U</text>
      <text x="-57.881" y="393.348">U</text>
      <text x="-44.275" y="392.189">G</text>
      <text x="-32.426" y="385.272">A</text>
      <text x="-24.653" y="373.885">A</text>
      <text x="-22.508" y="360.199">U</text>
      <text x="-26.460" y="346.854">C</text>
      <text x="-15.576" y="336.533">C</text>
      <text x="-4.691" y="326.212">A</text>
      <text x="6.194" y="315.891">C</text>
      <text x="12.634" y="319.735">G</text>
      <text x="4.947" y="332.615">A</text>
      <text x="17.827" y="340.302">A</text>
      <text x="25.514" y="327.423">A</text>
      <text x="31.954" y="331.266">G</text>
      <text x="28.037" y="345.746">C</text>
      <text x="24.120" y="360.225">C</text>
      <text x="20.203" y="374.705">A</text>
      <text x="16.285" y="389.184">G</text>
      <text x="12.368" y="403.664">G</text>
      <text x="8.853" y="407.177">G</text>
      <text x="7.127" y="411.265">C</text>
      <text x="7.119" y="415.180">C</text>
      <text x="8.484" y="418.302">C</text>
      <text x="4.706" y="432.819">A</text>
      <text x="-9.586" y="438.565">A</text>
      <text x="-17.660" y="451.475">A</text>
      <text x="-16.596" y="466.487">C</text>
      <text x="-7.012" y="477.857">U</text>
      <text x="-10.789" y="492.373">G</text>
      <text x="-14.567" y="506.890">G</text>
      <text x="-18.344" y="521.407">G</text>
      <text x="-33.036" y="526.113">A</text>
      <text x="-42.834" y="538.029">U</text>
      <text x="-44.611" y="553.354">U</text>
      <text x="-37.800" y="567.197">A</text>
      <text x="-24.575" y="575.140">G</text>
      <text x="-9.155" y="574.650">A</text>
      <text x="3.538" y="565.882">U</text>
      <text x="9.456" y="551.635">A</text>
      <text x="6.708" y="536.454">C</text>
      <text x="-3.827" y="525.184">C</text>
      <text x="-0.050" y="510.667">C</text>
      <text x="3.727" y="496.151">C</text>
      <text x="7.504" y="481.634">A</text>
      <text x="21.415" y="476.377">C</text>
      <text x="29.660" y="463.788">U</text>
      <text x="28.902" y="448.580">A</text>
      <text x="19.223" y="436.596">U</text>
      <text x="23.000" y="422.079">G</text>
      <text x="26.847" y="407.581">C</text>
      <text x="30.765" y="393.101">C</text>
      <text x="34.682" y="378.622">U</text>
      <text x="38.599" y="364.143">G</text>
      <text x="42.517" y="349.663">G</text>
      <text x="46.434" y="335.184">C</text>
      <text x="43.402" y="349.874">C</text>
      <text x="42.932" y="364.867">C</text>
      <text x="45.036" y="379.718">U</text>
      <text x="49.653" y="393.990">A</text>
      <text x="56.647" y="407.260">A</text>
      <text x="65.810" y="419.136">A</text>
      <text x="76.871" y="429.267">U</text>
      <text x="89.505" y="437.354">C</text>
      <text x="103.337" y="443.157">U</text>
      <text x="117.959" y="446.505">U</text>
      <text x="132.938" y="447.299">G</text>
      <text x="147.831" y="445.516">A</text>
      <text x="162.199" y="441.208">U</text>
      <text x="175.617" y="434.503">G</text>
      <text x="187.688" y="425.598">C</text>
      <text x="198.056" y="414.758">U</text>
      <text x="206.413" y="402.302">C</text>
      <text x="212.514" y="388.598">U</text>
      <text x="216.177" y="374.052">A</text>
      <text x="217.294" y="359.094">C</text>
      <text x="215.833" y="344.165">A</text>
      <text x="211.836" y="329.707">U</text>
      <text x="205.422" y="316.148">U</text>
      <text x="196.780" y="303.887">A</text>
      <text x="186.166" y="293.288">C</text>
      <text x="173.894" y="284.664">C</text>
      <text x="160.325" y="278.269">U</text>
      <text x="145.862" y="274.293">G</text>
      <text x="130.931" y="272.853">A</text>
      <text x="115.974" y="273.991">G</text>
      <text x="101.434" y="277.675">C</text>
      <text x="87.739" y="283.794">G</text>
      <text x="75.295" y="292.169">U</text>
      <text x="64.469" y="302.552">C</text>
      <text x="55.586" y="314.629">C</text>
      <text x="63.725" y="302.029">G</text>
      <text x="71.864" y="289.429">C</text>
      <text x="80.003" y="276.830">C</text>
      <text x="130.561" y="286.007">C</text>
      <text x="174.439" y="241.034">G</text>
      <text x="177.700" y="255.676">A</text>
      <text x="180.960" y="270.317">G</text>
      <text x="170.764" y="278.011">A</text>
      <text x="164.221" y="288.927">A</text>
      <text x="162.256" y="301.454">C</text>
      <text x="165.121" y="313.758">U</text>
      <text x="172.364" y="324.053">A</text>
      <text x="182.900" y="330.855">C</text>
      <text x="195.173" y="333.201">G</text>
      <text x="198.527" y="347.821">A</text>
      <text x="201.882" y="362.441">G</text>
      <text x="205.237" y="377.061">C</text>
      <text x="196.632" y="390.318">A</text>
      <text x="200.004" y="405.758">C</text>
      <text x="213.351" y="414.222">A</text>
      <text x="228.755" y="410.687">A</text>
      <text x="237.077" y="397.251">A</text>
      <text x="233.380" y="381.886">C</text>
      <text x="219.857" y="373.706">G</text>
      <text x="216.502" y="359.086">C</text>
      <text x="213.148" y="344.466">U</text>
      <text x="209.793" y="329.846">U</text>
      <text x="222.864" y="318.482">A</text>
      <text x="228.335" y="301.953">A</text>
      <text x="224.585" y="284.859">A</text>
      <text x="212.575" y="272.006">A</text>
      <text x="195.601" y="267.057">C</text>
      <text x="192.341" y="252.416">U</text>
      <text x="189.081" y="237.774">C</text>
      <text x="194.311" y="232.399">U</text>
      <text x="204.192" y="243.685">A</text>
      <text x="209.144" y="257.843">A</text>
      <text x="223.791" y="261.081">G</text>
      <text x="234.251" y="250.330">G</text>
      <text x="230.612" y="235.778">A</text>
      <text x="216.323" y="231.216">C</text>
      <text x="204.771" y="221.648">U</text>
      <text x="210.001" y="216.272">U</text>
      <text x="224.727" y="219.131">G</text>
      <text x="239.447" y="222.013">G</text>
      <text x="254.163" y="224.918">C</text>
      <text x="261.858" y="229.594">G</text>
      <text x="268.931" y="227.809">G</text>
      <text x="283.656" y="230.667">U</text>
      <text x="298.381" y="233.526">G</text>
      <text x="313.107" y="236.384">C</text>
      <text x="325.180" y="246.609">C</text>
      <text x="339.148" y="241.439">C</text>
      <text x="353.873" y="244.297">C</text>
      <text x="368.598" y="247.155">A</text>
      <text x="370.893" y="268.034">A</text>
      <text x="380.174" y="286.855">A</text>
      <text x="395.312" y="301.358">C</text>
      <text x="414.475" y="309.809">C</text>
      <text x="435.353" y="311.204">C</text>
      <text x="455.431" y="305.387">A</text>
      <text x="472.297" y="293.073">C</text>
      <text x="483.931" y="275.754">C</text>
      <text x="498.284" y="280.113">U</text>
      <text x="512.636" y="284.471">A</text>
      <text x="526.989" y="288.830">G</text>
      <text x="541.342" y="293.188">A</text>
      <text x="526.397" y="316.359">G</text>
      <text x="534.463" y="351.531">G</text>
      <text x="571.043" y="379.662">A</text>
      <text x="584.403" y="386.482">G</text>
      <text x="597.762" y="393.303">C</text>
      <text x="611.122" y="400.124">C</text>
      <text x="624.482" y="406.944">U</text>
      <text x="637.841" y="413.765">G</text>
      <text x="651.201" y="420.585">U</text>
      <text x="664.560" y="427.406">U</text>
      <text x="677.909" y="434.248">C</text>
      <text x="691.247" y="441.112">U</text>
      <text x="688.586" y="450.673">G</text>
      <text x="690.633" y="461.784">U</text>
      <text x="698.067" y="472.071">A</text>
      <text x="710.380" y="478.936">A</text>
      <text x="719.773" y="490.631">U</text>
      <text x="729.166" y="502.326">C</text>
      <text x="738.558" y="514.021">G</text>
      <text x="734.352" y="528.957">A</text>
      <text x="739.760" y="543.501">U</text>
      <text x="752.703" y="552.061">A</text>
      <text x="768.203" y="551.345">A</text>
      <text x="780.301" y="541.628">U</text>
      <text x="784.345" y="526.648">C</text>
      <text x="778.780" y="512.163">C</text>
      <text x="765.745" y="503.744">A</text>
      <text x="750.253" y="504.628">C</text>
      <text x="740.861" y="492.933">G</text>
      <text x="731.468" y="481.238">A</text>
      <text x="722.075" y="469.543">U</text>
      <text x="726.561" y="463.533">A</text>
      <text x="738.582" y="472.505">C</text>
      <text x="750.603" y="481.477">U</text>
      <text x="762.623" y="490.450">A</text>
      <text x="777.520" y="492.210">C</text>
      <text x="771.596" y="478.429">C</text>
      <text x="759.575" y="469.457">U</text>
      <text x="747.554" y="460.484">G</text>
      <text x="735.534" y="451.512">A</text>
      <text x="740.020" y="445.502">C</text>
      <text x="753.904" y="451.180">C</text>
      <text x="767.787" y="456.859">A</text>
      <text x="781.670" y="462.538">U</text>
      <text x="795.554" y="468.217">U</text>
      <text x="809.437" y="473.896">C</text>
      <text x="823.321" y="479.574">C</text>
      <text x="822.571" y="488.151">U</text>
      <text x="823.663" y="496.678">U</text>
      <text x="826.541" y="504.767">G</text>
      <text x="831.069" y="512.048">C</text>
      <text x="837.036" y="518.189">A</text>
      <text x="844.163" y="522.913">C</text>
      <text x="852.122" y="526.007">G</text>
      <text x="860.546" y="527.334">A</text>
      <text x="869.048" y="526.837">A</text>
      <text x="877.237" y="524.545">U</text>
      <text x="884.741" y="520.568">C</text>
      <text x="891.217" y="515.091">A</text>
      <text x="896.372" y="508.371">G</text>
      <text x="910.397" y="513.690">C</text>
      <text x="917.204" y="519.584">C</text>
      <text x="924.476" y="519.004">U</text>
      <text x="938.518" y="524.278">A</text>
      <text x="942.866" y="528.984">C</text>
      <text x="948.138" y="530.635">A</text>
      <text x="952.668" y="529.540">U</text>
      <text x="966.744" y="534.723">A</text>
      <text x="980.820" y="539.906">C</text>
      <text x="994.896" y="545.090">C</text>
      <text x="1008.947" y="550.341">G</text>
      <text x="1022.972" y="555.660">C</text>
      <text x="1036.997" y="560.979">C</text>
      <text x="1051.014" y="566.321">G</text>
      <text x="1065.022" y="571.685">U</text>
      <text x="1079.030" y="577.049">C</text>
      <text x="1078.135" y="592.257">G</text>
      <text x="1084.268" y="607.216">C</text>
      <text x="1096.960" y="618.680">C</text>
      <text x="1114.254" y="623.809">A</text>
      <text x="1132.995" y="620.835">G</text>
      <text x="1146.649" y="627.047">C</text>
      <text x="1144.812" y="638.861">C</text>
      <text x="1148.251" y="651.339">C</text>
      <text x="1157.116" y="662.086">A</text>
      <text x="1170.474" y="668.739">C</text>
      <text x="1186.374" y="669.446">C</text>
      <text x="1199.884" y="675.964">U</text>
      <text x="1202.511" y="691.257">U</text>
      <text x="1213.649" y="702.060">U</text>
      <text x="1229.015" y="704.221">C</text>
      <text x="1242.700" y="696.907">C</text>
      <text x="1249.443" y="682.931">U</text>
      <text x="1246.649" y="667.667">G</text>
      <text x="1235.395" y="656.985">A</text>
      <text x="1220.006" y="654.992">C</text>
      <text x="1206.401" y="662.454">A</text>
      <text x="1192.891" y="655.936">G</text>
      <text x="1195.908" y="649.070">C</text>
      <text x="1201.943" y="635.337">C</text>
      <text x="1204.961" y="628.471">C</text>
      <text x="1214.696" y="641.668">A</text>
      <text x="1230.960" y="639.566">A</text>
      <text x="1237.021" y="624.329">C</text>
      <text x="1226.645" y="611.630">A</text>
      <text x="1210.505" y="614.533">G</text>
      <text x="1196.083" y="601.526">U</text>
      <text x="1178.611" y="597.657">G</text>
      <text x="1162.971" y="602.506">A</text>
      <text x="1152.860" y="613.393">G</text>
      <text x="1139.206" y="607.182">C</text>
      <text x="1141.707" y="600.111">G</text>
      <text x="1155.849" y="605.112">C</text>
      <text x="1170.597" y="602.373">A</text>
      <text x="1160.850" y="590.971">A</text>
      <text x="1146.709" y="585.969">U</text>
      <text x="1149.209" y="578.899">A</text>
      <text x="1163.732" y="582.652">G</text>
      <text x="1178.255" y="586.406">C</text>
      <text x="1184.825" y="600.596">C</text>
      <text x="1199.001" y="607.197">U</text>
      <text x="1214.090" y="603.090">A</text>
      <text x="1222.967" y="590.217">A</text>
      <text x="1221.440" y="574.654">C</text>
      <text x="1210.231" y="563.750">C</text>
      <text x="1194.632" y="562.654">C</text>
      <text x="1182.008" y="571.883">G</text>
      <text x="1167.486" y="568.130">C</text>
      <text x="1152.963" y="564.376">U</text>
      <text x="1142.998" y="552.434">A</text>
      <text x="1129.997" y="545.119">G</text>
      <text x="1115.875" y="542.996">U</text>
      <text x="1102.543" y="545.901">A</text>
      <text x="1091.653" y="553.019">A</text>
      <text x="1084.394" y="563.041">G</text>
      <text x="1070.386" y="557.677">A</text>
      <text x="1056.378" y="552.313">C</text>
      <text x="1051.320" y="547.056">A</text>
      <text x="1042.316" y="546.954">G</text>
      <text x="1028.291" y="541.635">G</text>
      <text x="1014.266" y="536.316">U</text>
      <text x="1012.509" y="533.396">C</text>
      <text x="1009.312" y="531.137">A</text>
      <text x="1004.979" y="530.179">A</text>
      <text x="1000.079" y="531.014">G</text>
      <text x="986.003" y="525.830">G</text>
      <text x="971.927" y="520.647">U</text>
      <text x="957.851" y="515.464">A</text>
      <text x="943.792" y="510.235">U</text>
      <text x="929.750" y="504.961">A</text>
      <text x="915.716" y="499.665">G</text>
      <text x="901.691" y="494.346">C</text>
      <text x="899.643" y="473.035">C</text>
      <text x="886.755" y="455.844">U</text>
      <text x="866.731" y="447.847">A</text>
      <text x="845.396" y="451.454">U</text>
      <text x="829.000" y="465.691">G</text>
      <text x="815.116" y="460.012">G</text>
      <text x="801.233" y="454.333">A</text>
      <text x="787.349" y="448.655">A</text>
      <text x="773.466" y="442.976">U</text>
      <text x="759.582" y="437.297">G</text>
      <text x="745.699" y="431.618">G</text>
      <text x="719.203" y="416.035">A</text>
      <text x="698.110" y="427.774">A</text>
      <text x="684.773" y="420.911">G</text>
      <text x="680.320" y="415.132">C</text>
      <text x="671.381" y="414.046">A</text>
      <text x="658.021" y="407.226">A</text>
      <text x="644.662" y="400.405">U</text>
      <text x="631.302" y="393.585">G</text>
      <text x="617.943" y="386.764">G</text>
      <text x="604.583" y="379.943">G</text>
      <text x="591.223" y="373.123">C</text>
      <text x="577.864" y="366.302">U</text>
      <text x="579.031" y="358.894">A</text>
      <text x="592.402" y="365.693">C</text>
      <text x="603.000" y="355.077">A</text>
      <text x="596.179" y="341.718">U</text>
      <text x="581.366" y="344.076">U</text>
      <text x="582.533" y="336.668">U</text>
      <text x="597.343" y="334.285">U</text>
      <text x="612.152" y="331.903">C</text>
      <text x="626.962" y="329.521">U</text>
      <text x="641.771" y="327.138">A</text>
      <text x="658.370" y="330.592">A</text>
      <text x="666.284" y="315.599">G</text>
      <text x="654.067" y="303.844">C</text>
      <text x="639.389" y="312.329">U</text>
      <text x="624.579" y="314.711">A</text>
      <text x="609.770" y="317.093">G</text>
      <text x="594.960" y="319.476">A</text>
      <text x="580.151" y="321.858">A</text>
      <text x="578.356" y="314.576">C</text>
      <text x="592.920" y="310.986">A</text>
      <text x="607.484" y="307.397">U</text>
      <text x="622.048" y="303.807">A</text>
      <text x="632.866" y="293.416">C</text>
      <text x="618.458" y="289.243">G</text>
      <text x="603.894" y="292.832">G</text>
      <text x="589.330" y="296.422">A</text>
      <text x="574.766" y="300.012">U</text>
      <text x="572.971" y="292.730">A</text>
      <text x="587.192" y="287.957">G</text>
      <text x="601.412" y="283.184">G</text>
      <text x="615.632" y="278.411">G</text>
      <text x="629.853" y="273.638">A</text>
      <text x="644.073" y="268.865">U</text>
      <text x="658.293" y="264.092">A</text>
      <text x="672.330" y="271.354">U</text>
      <text x="687.366" y="266.484">G</text>
      <text x="694.479" y="252.371">A</text>
      <text x="689.450" y="237.388">A</text>
      <text x="675.263" y="230.425">A</text>
      <text x="660.334" y="235.612">C</text>
      <text x="653.521" y="249.872">U</text>
      <text x="639.300" y="254.645">G</text>
      <text x="625.080" y="259.418">U</text>
      <text x="610.859" y="264.191">C</text>
      <text x="596.639" y="268.964">C</text>
      <text x="582.419" y="273.737">C</text>
      <text x="568.198" y="278.509">U</text>
      <text x="580.166" y="269.467">G</text>
      <text x="586.310" y="255.783">G</text>
      <text x="585.113" y="240.831">A</text>
      <text x="576.871" y="228.298">A</text>
      <text x="563.617" y="221.274">G</text>
      <text x="548.619" y="221.492">G</text>
      <text x="535.574" y="228.897">C</text>
      <text x="527.700" y="241.664">G</text>
      <text x="526.938" y="256.645">G</text>
      <text x="533.476" y="270.145">A</text>
      <text x="545.701" y="278.836">U</text>
      <text x="531.348" y="274.477">U</text>
      <text x="516.995" y="270.118">U</text>
      <text x="502.642" y="265.760">A</text>
      <text x="488.289" y="261.401">G</text>
      <text x="489.031" y="255.076">C</text>
      <text x="489.100" y="248.709">A</text>
      <text x="488.494" y="242.369">G</text>
      <text x="487.221" y="236.130">U</text>
      <text x="485.296" y="230.060">A</text>
      <text x="482.739" y="224.227">A</text>
      <text x="495.192" y="215.866">A</text>
      <text x="507.646" y="207.505">G</text>
      <text x="520.100" y="199.144">A</text>
      <text x="532.553" y="190.783">G</text>
      <text x="545.007" y="182.421">G</text>
      <text x="557.460" y="174.060">G</text>
      <text x="571.578" y="180.280">A</text>
      <text x="586.814" y="177.858">C</text>
      <text x="598.306" y="167.566">A</text>
      <text x="602.388" y="152.688">A</text>
      <text x="597.756" y="137.972">U</text>
      <text x="585.889" y="128.114">G</text>
      <text x="570.574" y="126.260">G</text>
      <text x="556.697" y="133.000">A</text>
      <text x="548.687" y="146.185">G</text>
      <text x="549.099" y="161.607">C</text>
      <text x="536.645" y="169.968">C</text>
      <text x="524.192" y="178.329">C</text>
      <text x="511.738" y="186.690">U</text>
      <text x="499.285" y="195.051">C</text>
      <text x="486.831" y="203.413">U</text>
      <text x="474.378" y="211.774">U</text>
      <text x="466.800" y="204.423">U</text>
      <text x="458.049" y="198.507">A</text>
      <text x="448.391" y="194.210">A</text>
      <text x="438.124" y="191.666">G</text>
      <text x="427.564" y="190.957">C</text>
      <text x="417.035" y="192.106">C</text>
      <text x="406.864" y="195.081">G</text>
      <text x="397.363" y="199.791">G</text>
      <text x="388.827" y="206.095">C</text>
      <text x="381.520" y="213.799">U</text>
      <text x="375.669" y="222.668">C</text>
      <text x="371.456" y="232.430">U</text>
      <text x="356.731" y="229.572">G</text>
      <text x="342.006" y="226.713">G</text>
      <text x="330.986" y="216.693">A</text>
      <text x="315.965" y="221.659">G</text>
      <text x="301.240" y="218.801">C</text>
      <text x="286.514" y="215.942">A</text>
      <text x="271.789" y="213.084">C</text>
      <text x="257.069" y="210.202">G</text>
      <text x="242.353" y="207.297">U</text>
      <text x="236.475" y="202.976">A</text>
      <text x="227.585" y="204.405">C</text>
      <text x="212.860" y="201.547">A</text>
      <text x="209.612" y="194.787">U</text>
      <text x="223.905" y="190.236">A</text>
      <text x="238.197" y="185.684">C</text>
      <text x="252.490" y="181.133">C</text>
      <text x="267.431" y="182.459">G</text>
      <text x="279.693" y="173.819">C</text>
      <text x="283.469" y="159.302">C</text>
      <text x="276.973" y="145.782">C</text>
      <text x="263.279" y="139.659">G</text>
      <text x="248.871" y="143.833">U</text>
      <text x="240.571" y="156.325">C</text>
      <text x="228.086" y="164.639">A</text>
      <text x="215.601" y="172.953">C</text>
      <text x="203.116" y="181.266">C</text>
      <text x="199.868" y="174.506">C</text>
      <text x="206.839" y="161.224">U</text>
      <text x="213.810" y="147.943">C</text>
      <text x="227.074" y="139.319">C</text>
      <text x="226.138" y="124.454">U</text>
      <text x="233.108" y="111.172">C</text>
      <text x="247.254" y="116.236">A</text>
      <text x="261.967" y="119.283">U</text>
      <text x="276.960" y="120.252">A</text>
      <text x="291.943" y="119.125">A</text>
      <text x="306.623" y="115.923">G</text>
      <text x="320.714" y="110.710">C</text>
      <text x="333.943" y="103.586">G</text>
      <text x="346.051" y="94.690">C</text>
      <text x="356.804" y="84.196">C</text>
      <text x="365.991" y="72.307">C</text>
      <text x="373.434" y="59.256">C</text>
      <text x="378.988" y="45.295">A</text>
      <text x="382.546" y="30.698">C</text>
      <text x="384.036" y="15.747">A</text>
      <text x="383.432" y="0.734">C</text>
      <text x="380.744" y="-14.048">C</text>
      <text x="376.025" y="-28.313">C</text>
      <text x="369.366" y="-41.781">A</text>
      <text x="360.898" y="-54.193">A</text>
      <text x="350.785" y="-65.304">U</text>
      <text x="339.223" y="-74.900">A</text>
      <text x="326.439" y="-82.793">C</text>
      <text x="312.681" y="-88.831">C</text>
      <text x="298.216" y="-92.895">U</text>
      <text x="283.326" y="-94.905">A</text>
      <text x="268.301" y="-94.824">A</text>
      <text x="253.434" y="-92.653">U</text>
      <text x="239.014" y="-88.434">A</text>
      <text x="225.321" y="-82.249">A</text>
      <text x="212.623" y="-74.218">G</text>
      <text x="201.166" y="-64.498">C</text>
      <text x="191.173" y="-53.278">C</text>
      <text x="182.838" y="-40.776">A</text>
      <text x="176.325" y="-27.237">U</text>
      <text x="171.760" y="-12.922">U</text>
      <text x="169.232" y="1.888">C</text>
      <text x="168.789" y="16.907">A</text>
      <text x="170.441" y="31.841">G</text>
      <text x="174.155" y="46.399">C</text>
      <text x="179.860" y="60.299">U</text>
      <text x="187.443" y="73.270">A</text>
      <text x="196.758" y="85.059">A</text>
      <text x="207.623" y="95.436">A</text>
      <text x="219.827" y="104.201">G</text>
      <text x="212.856" y="117.483">A</text>
      <text x="200.090" y="125.157">U</text>
      <text x="200.528" y="140.972">G</text>
      <text x="193.557" y="154.254">A</text>
      <text x="186.586" y="167.535">G</text>
      <text x="179.431" y="165.287">G</text>
      <text x="183.928" y="150.977">U</text>
      <text x="188.425" y="136.667">A</text>
      <text x="192.923" y="122.357">A</text>
      <text x="197.420" y="108.047">G</text>
      <text x="201.917" y="93.737">U</text>
      <text x="206.414" y="79.427">C</text>
      <text x="210.911" y="65.117">G</text>
      <text x="196.601" y="60.620">U</text>
      <text x="192.104" y="74.930">A</text>
      <text x="187.607" y="89.240">A</text>
      <text x="183.110" y="103.550">C</text>
      <text x="178.613" y="117.860">A</text>
      <text x="174.115" y="132.170">A</text>
      <text x="169.618" y="146.480">G</text>
      <text x="165.121" y="160.790">G</text>
      <text x="157.966" y="158.541">U</text>
      <text x="159.846" y="143.659">A</text>
      <text x="161.726" y="128.778">A</text>
      <text x="163.606" y="113.896">G</text>
      <text x="165.486" y="99.014">U</text>
      <text x="167.366" y="84.132">G</text>
      <text x="169.246" y="69.251">U</text>
      <text x="171.126" y="54.369">A</text>
      <text x="173.006" y="39.487">C</text>
      <text x="174.886" y="24.606">C</text>
      <text x="185.227" y="11.877">G</text>
      <text x="179.122" y="-3.343">G</text>
      <text x="162.852" y="-5.398">A</text>
      <text x="153.154" y="7.826">A</text>
      <text x="160.004" y="22.726">G</text>
      <text x="158.124" y="37.607">G</text>
      <text x="156.244" y="52.489">U</text>
      <text x="154.364" y="67.371">G</text>
      <text x="152.484" y="82.252">C</text>
      <text x="150.604" y="97.134">A</text>
      <text x="148.724" y="112.016">C</text>
      <text x="146.844" y="126.898">U</text>
      <text x="144.964" y="141.779">U</text>
      <text x="143.084" y="156.661">A</text>
      <text x="135.587" y="156.480">G</text>
      <text x="135.949" y="141.484">G</text>
      <text x="136.312" y="126.489">A</text>
      <text x="136.674" y="111.493">C</text>
      <text x="137.036" y="96.497">A</text>
      <text x="129.853" y="83.329">C</text>
      <text x="122.041" y="96.135">C</text>
    </g>
  </g>
</svg>
