<?xml version="1.0" encoding="UTF-8" standalone="yes"?>
<svg xmlns="http://www.w3.org/2000/svg" height="452" width="452">
<script type="text/ecmascript">
      <![CDATA[
        var shown = 1;
        function click() {
             var seq = document.getElementById("seq");
             if (shown==1) {
               seq.setAttribute("style", "visibility: hidden");
               shown = 0;
             } else {
               seq.setAttribute("style", "visibility: visible");
               shown = 1;
             }
         }
        ]]>
</script>
  <rect style="stroke: white; fill: white" height="452" x="0" y="0" width="452" onclick="click(evt)" />
  <g transform="scale(1.616100,1.616100) translate(36.082123,35.097870)">
    <polyline style="stroke: black; fill: none; stroke-width: 1.5" id="outline" points="
      111.712,-11.643
      111.030,3.342
      110.347,18.326
      109.664,33.311
      101.356,45.673
      108.457,59.811
      107.774,74.795
      91.472,76.799
      78.632,85.650
      71.741,98.710
      56.838,97.007
      41.935,95.303
      27.032,93.599
      15.965,81.985
      -0.003,83.541
      -8.621,97.072
      -3.279,112.200
      11.925,117.319
      25.329,108.502
      40.232,110.206
      55.135,111.910
      70.038,113.613
      75.291,126.931
      86.081,136.341
      82.695,150.954
      79.310,165.567
      75.925,180.180
      72.539,194.793
      58.520,201.720
      52.280,216.059
      56.766,231.039
      69.861,239.588
      85.380,237.668
      95.997,226.187
      96.698,210.565
      87.152,198.179
      90.538,183.566
      93.923,168.953
      97.308,154.340
      100.694,139.727
      111.646,138.550
      121.811,133.407
      129.757,124.726
      134.265,113.448
      134.509,100.928
      149.474,99.904
      156.975,113.197
      169.505,121.912
      184.577,124.319
      199.198,119.940
      210.466,109.644
      216.142,95.476
      215.101,80.248
      207.548,66.985
      194.983,58.319
      179.902,55.972
      165.298,60.409
      154.071,70.749
      148.450,84.939
      133.485,85.963
      122.759,75.478
      123.441,60.493
      131.799,47.060
      124.649,33.993
      125.331,19.009
      126.014,4.024
      126.697,-10.960
      129.762,-30.098
    " />
    <g style="stroke: black; stroke-width: 1" id="pairs">
      <line id="1,67" x1="111.712" y1="-11.643" x2="126.697" y2="-10.960" />
      <line id="2,66" x1="111.030" y1=" 3.342" x2="126.014" y2=" 4.024" />
      <line id="3,65" x1="110.347" y1="18.326" x2="125.331" y2="19.009" />
      <line id="4,64" x1="109.664" y1="33.311" x2="124.649" y2="33.993" />
      <line id="6,62" x1="108.457" y1="59.811" x2="123.441" y2="60.493" />
      <line id="7,61" x1="107.774" y1="74.795" x2="122.759" y2="75.478" />
      <line id="10,22" x1="71.741" y1="98.710" x2="70.038" y2="113.613" />
      <line id="11,21" x1="56.838" y1="97.007" x2="55.135" y2="111.910" />
      <line id="12,20" x1="41.935" y1="95.303" x2="40.232" y2="110.206" />
      <line id="13,19" x1="27.032" y1="93.599" x2="25.329" y2="108.502" />
      <line id="24,40" x1="86.081" y1="136.341" x2="100.694" y2="139.727" />
      <line id="25,39" x1="82.695" y1="150.954" x2="97.308" y2="154.340" />
      <line id="26,38" x1="79.310" y1="165.567" x2="93.923" y2="168.953" />
      <line id="27,37" x1="75.925" y1="180.180" x2="90.538" y2="183.566" />
      <line id="28,36" x1="72.539" y1="194.793" x2="87.152" y2="198.179" />
      <line id="45,60" x1="134.509" y1="100.928" x2="133.485" y2="85.963" />
      <line id="46,59" x1="149.474" y1="99.904" x2="148.450" y2="84.939" />
    </g>
    <g style="font-family: SansSerif" transform="translate(-4.6, 4)" id="seq">
      <text x="111.712" y="-11.643">G</text>
      <text x="111.030" y="3.342">U</text>
      <text x="110.347" y="18.326">C</text>
      <text x="109.664" y="33.311">C</text>
      <text x="101.356" y="45.673">C</text>
      <text x="108.457" y="59.811">U</text>
      <text x="107.774" y="74.795">G</text>
      <text x="91.472" y="76.799">U</text>
      <text x="78.632" y="85.650">A</text>
      <text x="71.741" y="98.710">G</text>
      <text x="56.838" y="97.007">C</text>
      <text x="41.935" y="95.303">U</text>
      <text x="27.032" y="93.599">U</text>
      <text x="15.965" y="81.985">A</text>
      <text x="-0.003" y="83.541">A</text>
      <text x="-8.621" y="97.072">U</text>
      <text x="-3.279" y="112.200">G</text>
      <text x="11.925" y="117.319">A</text>
      <text x="25.329" y="108.502">A</text>
      <text x="40.232" y="110.206">A</text>
      <text x="55.135" y="111.910">G</text>
      <text x="70.038" y="113.613">C</text>
      <text x="75.291" y="126.931">A</text>
      <text x="86.081" y="136.341">U</text>
      <text x="82.695" y="150.954">G</text>
      <text x="79.310" y="165.567">A</text>
      <text x="75.925" y="180.180">C</text>
      <text x="72.539" y="194.793">A</text>
      <text x="58.520" y="201.720">C</text>
      <text x="52.280" y="216.059">U</text>
      <text x="56.766" y="231.039">G</text>
      <text x="69.861" y="239.588">A</text>
      <text x="85.380" y="237.668">A</text>
      <text x="95.997" y="226.187">G</text>
      <text x="96.698" y="210.565">A</text>
      <text x="87.152" y="198.179">U</text>
      <text x="90.538" y="183.566">G</text>
      <text x="93.923" y="168.953">U</text>
      <text x="97.308" y="154.340">C</text>
      <text x="100.694" y="139.727">A</text>
      <text x="111.646" y="138.550">A</text>
      <text x="121.811" y="133.407">G</text>
      <text x="129.757" y="124.726">A</text>
      <text x="134.265" y="113.448">U</text>
      <text x="134.509" y="100.928">G</text>
      <text x="149.474" y="99.904">G</text>
      <text x="156.975" y="113.197">C</text>
      <text x="169.505" y="121.912">U</text>
      <text x="184.577" y="124.319">G</text>
      <text x="199.198" y="119.940">C</text>
      <text x="210.466" y="109.644">C</text>
      <text x="216.142" y="95.476">A</text>
      <text x="215.101" y="80.248">C</text>
      <text x="207.548" y="66.985">A</text>
      <text x="194.983" y="58.319">C</text>
      <text x="179.902" y="55.972">A</text>
      <text x="165.298" y="60.409">C</text>
      <text x="154.071" y="70.749">A</text>
      <text x="148.450" y="84.939">C</text>
      <text x="133.485" y="85.963">C</text>
      <text x="122.759" y="75.478">C</text>
      <text x="123.441" y="60.493">A</text>
      <text x="131.799" y="47.060">A</text>
      <text x="124.649" y="33.993">G</text>
      <text x="125.331" y="19.009">G</text>
      <text x="126.014" y="4.024">A</text>
      <text x="126.697" y="-10.960">C</text>
      <text x="129.762" y="-30.098">A</text>
    </g>
  </g>
</svg>
