<?xml version="1.0" encoding="UTF-8" standalone="yes"?>
<svg xmlns="http://www.w3.org/2000/svg" height="452" width="452">
<script type="text/ecmascript">
      <![CDATA[
        var shown = 1;
        function click() {
             var seq = document.getElementById("seq");
             if (shown==1) {
               seq.setAttribute("style", "visibility: hidden");
               shown = 0;
             } else {
               seq.setAttribute("style", "visibility: visible");
               shown = 1;
             }
         }
        ]]>
</script>
  <rect style="stroke: white; fill: white" height="452" x="0" y="0" width="452" onclick="click(evt)" />
  <g transform="scale(1.616590,1.616590) translate(19.247528,32.130890)">
    <polyline style="stroke: black; fill: none; stroke-width: 1.5" id="outline" points="
      112.298,-8.631
      111.653,6.355
      111.007,21.341
      110.362,36.327
      109.717,51.314
      109.071,66.300
      108.426,81.286
      92.498,82.861
      79.734,91.110
      72.570,103.590
      57.739,101.339
      42.909,99.088
      35.895,85.247
      22.070,78.202
      6.749,80.661
      -4.176,91.681
      -6.504,107.022
      0.659,120.786
      14.560,127.681
      29.854,125.056
      40.659,113.919
      55.489,116.169
      70.319,118.420
      74.709,131.176
      84.268,140.696
      79.817,155.020
      75.366,169.345
      70.916,183.669
      66.465,197.994
      51.974,203.871
      44.697,217.712
      48.070,232.982
      60.500,242.470
      76.118,241.697
      87.550,231.027
      89.398,215.499
      80.790,202.445
      85.240,188.120
      89.691,173.796
      94.142,159.471
      98.592,145.147
      109.735,144.654
      120.290,140.002
      128.713,131.573
      133.666,120.316
      134.227,107.648
      149.223,107.325
      164.220,107.002
      179.216,106.680
      194.213,106.357
      202.745,119.210
      216.881,125.389
      232.110,122.921
      243.572,112.595
      247.610,97.706
      242.935,83.004
      231.040,73.181
      215.719,71.371
      201.862,78.152
      193.890,91.360
      178.894,91.683
      163.897,92.006
      148.900,92.329
      133.904,92.651
      123.412,81.931
      124.057,66.945
      124.703,51.959
      125.348,36.973
      125.993,21.987
      126.639,7.001
      127.284,-7.986
      130.301,-27.131
    " />
    <g style="stroke: black; stroke-width: 1" id="pairs">
      <line id="1,71" x1="112.298" y1="-8.631" x2="127.284" y2="-7.986" />
      <line id="2,70" x1="111.653" y1=" 6.355" x2="126.639" y2=" 7.001" />
      <line id="3,69" x1="111.007" y1="21.341" x2="125.993" y2="21.987" />
      <line id="4,68" x1="110.362" y1="36.327" x2="125.348" y2="36.973" />
      <line id="5,67" x1="109.717" y1="51.314" x2="124.703" y2="51.959" />
      <line id="6,66" x1="109.071" y1="66.300" x2="124.057" y2="66.945" />
      <line id="7,65" x1="108.426" y1="81.286" x2="123.412" y2="81.931" />
      <line id="10,23" x1="72.570" y1="103.590" x2="70.319" y2="118.420" />
      <line id="11,22" x1="57.739" y1="101.339" x2="55.489" y2="116.169" />
      <line id="12,21" x1="42.909" y1="99.088" x2="40.659" y2="113.919" />
      <line id="25,41" x1="84.268" y1="140.696" x2="98.592" y2="145.147" />
      <line id="26,40" x1="79.817" y1="155.020" x2="94.142" y2="159.471" />
      <line id="27,39" x1="75.366" y1="169.345" x2="89.691" y2="173.796" />
      <line id="28,38" x1="70.916" y1="183.669" x2="85.240" y2="188.120" />
      <line id="29,37" x1="66.465" y1="197.994" x2="80.790" y2="202.445" />
      <line id="46,64" x1="134.227" y1="107.648" x2="133.904" y2="92.651" />
      <line id="47,63" x1="149.223" y1="107.325" x2="148.900" y2="92.329" />
      <line id="48,62" x1="164.220" y1="107.002" x2="163.897" y2="92.006" />
      <line id="49,61" x1="179.216" y1="106.680" x2="178.894" y2="91.683" />
      <line id="50,60" x1="194.213" y1="106.357" x2="193.890" y2="91.360" />
    </g>
    <g style="font-family: SansSerif" transform="translate(-4.6, 4)" id="seq">
      <text x="112.298" y="-8.631">G</text>
      <text x="111.653" y="6.355">G</text>
      <text x="111.007" y="21.341">A</text>
      <text x="110.362" y="36.327">A</text>
      <text x="109.717" y="51.314">A</text>
      <text x="109.071" y="66.300">U</text>
      <text x="108.426" y="81.286">G</text>
      <text x="92.498" y="82.861">U</text>
      <text x="79.734" y="91.110">G</text>
      <text x="72.570" y="103.590">C</text>
      <text x="57.739" y="101.339">C</text>
      <text x="42.909" y="99.088">U</text>
      <text x="35.895" y="85.247">G</text>
      <text x="22.070" y="78.202">A</text>
      <text x="6.749" y="80.661">G</text>
      <text x="-4.176" y="91.681">U</text>
      <text x="-6.504" y="107.022">A</text>
      <text x="0.659" y="120.786">C</text>
      <text x="14.560" y="127.681">U</text>
      <text x="29.854" y="125.056">A</text>
      <text x="40.659" y="113.919">A</text>
      <text x="55.489" y="116.169">G</text>
      <text x="70.319" y="118.420">G</text>
      <text x="74.709" y="131.176">A</text>
      <text x="84.268" y="140.696">U</text>
      <text x="79.817" y="155.020">C</text>
      <text x="75.366" y="169.345">A</text>
      <text x="70.916" y="183.669">C</text>
      <text x="66.465" y="197.994">U</text>
      <text x="51.974" y="203.871">A</text>
      <text x="44.697" y="217.712">U</text>
      <text x="48.070" y="232.982">G</text>
      <text x="60.500" y="242.470">A</text>
      <text x="76.118" y="241.697">U</text>
      <text x="87.550" y="231.027">A</text>
      <text x="89.398" y="215.499">A</text>
      <text x="80.790" y="202.445">A</text>
      <text x="85.240" y="188.120">G</text>
      <text x="89.691" y="173.796">U</text>
      <text x="94.142" y="159.471">G</text>
      <text x="98.592" y="145.147">A</text>
      <text x="109.735" y="144.654">A</text>
      <text x="120.290" y="140.002">C</text>
      <text x="128.713" y="131.573">A</text>
      <text x="133.666" y="120.316">C</text>
      <text x="134.227" y="107.648">A</text>
      <text x="149.223" y="107.325">G</text>
      <text x="164.220" y="107.002">A</text>
      <text x="179.216" y="106.680">G</text>
      <text x="194.213" y="106.357">G</text>
      <text x="202.745" y="119.210">U</text>
      <text x="216.881" y="125.389">A</text>
      <text x="232.110" y="122.921">C</text>
      <text x="243.572" y="112.595">A</text>
      <text x="247.610" y="97.706">C</text>
      <text x="242.935" y="83.004">C</text>
      <text x="231.040" y="73.181">A</text>
      <text x="215.719" y="71.371">A</text>
      <text x="201.862" y="78.152">C</text>
      <text x="193.890" y="91.360">C</text>
      <text x="178.894" y="91.683">C</text>
      <text x="163.897" y="92.006">U</text>
      <text x="148.900" y="92.329">C</text>
      <text x="133.904" y="92.651">U</text>
      <text x="123.412" y="81.931">C</text>
      <text x="124.057" y="66.945">A</text>
      <text x="124.703" y="51.959">U</text>
      <text x="125.348" y="36.973">U</text>
      <text x="125.993" y="21.987">U</text>
      <text x="126.639" y="7.001">C</text>
      <text x="127.284" y="-7.986">C</text>
      <text x="130.301" y="-27.131">U</text>
    </g>
  </g>
</svg>
