<?xml version="1.0" encoding="UTF-8" standalone="yes"?>
<svg xmlns="http://www.w3.org/2000/svg" height="452" width="452">
<script type="text/ecmascript">
      <![CDATA[
        var shown = 1;
        function click() {
             var seq = document.getElementById("seq");
             if (shown==1) {
               seq.setAttribute("style", "visibility: hidden");
               shown = 0;
             } else {
               seq.setAttribute("style", "visibility: visible");
               shown = 1;
             }
         }
        ]]>
</script>
  <rect style="stroke: white; fill: white" height="452" x="0" y="0" width="452" onclick="click(evt)" />
  <g transform="scale(1.583313,1.583313) translate(33.230972,36.256439)">
    <polyline style="stroke: black; fill: none; stroke-width: 1.5" id="outline" points="
      111.702,-12.801
      111.019,2.183
      110.337,17.168
      109.654,32.152
      108.971,47.136
      108.288,62.121
      107.606,77.105
      90.827,79.287
      77.626,88.502
      70.560,102.050
      55.657,100.346
      40.754,98.643
      32.279,85.500
      17.325,80.930
      2.951,87.088
      -4.055,101.069
      -0.385,116.270
      12.228,125.514
      27.828,124.436
      39.050,113.545
      53.953,115.249
      68.856,116.953
      74.348,131.071
      85.812,140.975
      82.427,155.587
      79.042,170.200
      75.656,184.813
      72.271,199.426
      58.251,206.353
      52.012,220.692
      56.498,235.672
      69.592,244.221
      85.111,242.301
      95.728,230.820
      96.429,215.198
      86.884,202.812
      90.269,188.199
      93.655,173.586
      97.040,158.973
      100.425,144.360
      110.131,143.608
      119.398,139.848
      127.294,133.285
      132.973,124.414
      135.766,113.983
      135.256,102.929
      150.159,101.226
      165.062,99.522
      179.965,97.818
      191.187,108.709
      206.788,109.786
      219.400,100.542
      223.070,85.342
      216.064,71.361
      201.691,65.202
      186.736,69.773
      178.261,82.915
      163.359,84.619
      148.456,86.323
      133.553,88.026
      122.590,77.788
      123.273,62.804
      123.956,47.819
      124.638,32.835
      125.321,17.850
      126.004,2.866
      126.686,-12.119
      129.752,-31.256
    " />
    <g style="stroke: black; stroke-width: 1" id="pairs">
      <line id="1,67" x1="111.702" y1="-12.801" x2="126.686" y2="-12.119" />
      <line id="2,66" x1="111.019" y1=" 2.183" x2="126.004" y2=" 2.866" />
      <line id="3,65" x1="110.337" y1="17.168" x2="125.321" y2="17.850" />
      <line id="4,64" x1="109.654" y1="32.152" x2="124.638" y2="32.835" />
      <line id="5,63" x1="108.971" y1="47.136" x2="123.956" y2="47.819" />
      <line id="6,62" x1="108.288" y1="62.121" x2="123.273" y2="62.804" />
      <line id="7,61" x1="107.606" y1="77.105" x2="122.590" y2="77.788" />
      <line id="10,22" x1="70.560" y1="102.050" x2="68.856" y2="116.953" />
      <line id="11,21" x1="55.657" y1="100.346" x2="53.953" y2="115.249" />
      <line id="12,20" x1="40.754" y1="98.643" x2="39.050" y2="113.545" />
      <line id="24,40" x1="85.812" y1="140.975" x2="100.425" y2="144.360" />
      <line id="25,39" x1="82.427" y1="155.587" x2="97.040" y2="158.973" />
      <line id="26,38" x1="79.042" y1="170.200" x2="93.655" y2="173.586" />
      <line id="27,37" x1="75.656" y1="184.813" x2="90.269" y2="188.199" />
      <line id="28,36" x1="72.271" y1="199.426" x2="86.884" y2="202.812" />
      <line id="46,60" x1="135.256" y1="102.929" x2="133.553" y2="88.026" />
      <line id="47,59" x1="150.159" y1="101.226" x2="148.456" y2="86.323" />
      <line id="48,58" x1="165.062" y1="99.522" x2="163.359" y2="84.619" />
      <line id="49,57" x1="179.965" y1="97.818" x2="178.261" y2="82.915" />
    </g>
    <g style="font-family: SansSerif" transform="translate(-4.6, 4)" id="seq">
      <text x="111.702" y="-12.801">C</text>
      <text x="111.019" y="2.183">A</text>
      <text x="110.337" y="17.168">U</text>
      <text x="109.654" y="32.152">U</text>
      <text x="108.971" y="47.136">A</text>
      <text x="108.288" y="62.121">A</text>
      <text x="107.606" y="77.105">G</text>
      <text x="90.827" y="79.287">A</text>
      <text x="77.626" y="88.502">A</text>
      <text x="70.560" y="102.050">G</text>
      <text x="55.657" y="100.346">C</text>
      <text x="40.754" y="98.643">U</text>
      <text x="32.279" y="85.500">A</text>
      <text x="17.325" y="80.930">U</text>
      <text x="2.951" y="87.088">G</text>
      <text x="-4.055" y="101.069">A</text>
      <text x="-0.385" y="116.270">A</text>
      <text x="12.228" y="125.514">A</text>
      <text x="27.828" y="124.436">C</text>
      <text x="39.050" y="113.545">A</text>
      <text x="53.953" y="115.249">G</text>
      <text x="68.856" y="116.953">C</text>
      <text x="74.348" y="131.071">A</text>
      <text x="85.812" y="140.975">C</text>
      <text x="82.427" y="155.587">U</text>
      <text x="79.042" y="170.200">A</text>
      <text x="75.656" y="184.813">G</text>
      <text x="72.271" y="199.426">C</text>
      <text x="58.251" y="206.353">C</text>
      <text x="52.012" y="220.692">U</text>
      <text x="56.498" y="235.672">U</text>
      <text x="69.592" y="244.221">U</text>
      <text x="85.111" y="242.301">U</text>
      <text x="95.728" y="230.820">A</text>
      <text x="96.429" y="215.198">A</text>
      <text x="86.884" y="202.812">G</text>
      <text x="90.269" y="188.199">C</text>
      <text x="93.655" y="173.586">U</text>
      <text x="97.040" y="158.973">A</text>
      <text x="100.425" y="144.360">G</text>
      <text x="110.131" y="143.608">A</text>
      <text x="119.398" y="139.848">G</text>
      <text x="127.294" y="133.285">A</text>
      <text x="132.973" y="124.414">C</text>
      <text x="135.766" y="113.983">A</text>
      <text x="135.256" y="102.929">G</text>
      <text x="150.159" y="101.226">A</text>
      <text x="165.062" y="99.522">G</text>
      <text x="179.965" y="97.818">G</text>
      <text x="191.187" y="108.709">A</text>
      <text x="206.788" y="109.786">C</text>
      <text x="219.400" y="100.542">U</text>
      <text x="223.070" y="85.342">A</text>
      <text x="216.064" y="71.361">A</text>
      <text x="201.691" y="65.202">C</text>
      <text x="186.736" y="69.773">A</text>
      <text x="178.261" y="82.915">C</text>
      <text x="163.359" y="84.619">C</text>
      <text x="148.456" y="86.323">U</text>
      <text x="133.553" y="88.026">C</text>
      <text x="122.590" y="77.788">C</text>
      <text x="123.273" y="62.804">U</text>
      <text x="123.956" y="47.819">U</text>
      <text x="124.638" y="32.835">A</text>
      <text x="125.321" y="17.850">A</text>
      <text x="126.004" y="2.866">U</text>
      <text x="126.686" y="-12.119">G</text>
      <text x="129.752" y="-31.256">A</text>
    </g>
  </g>
</svg>
