<?xml version="1.0" encoding="UTF-8" standalone="yes"?>
<svg xmlns="http://www.w3.org/2000/svg" height="452" width="452">
<script type="text/ecmascript">
      <![CDATA[
        var shown = 1;
        function click() {
             var seq = document.getElementById("seq");
             if (shown==1) {
               seq.setAttribute("style", "visibility: hidden");
               shown = 0;
             } else {
               seq.setAttribute("style", "visibility: visible");
               shown = 1;
             }
         }
        ]]>
</script>
  <rect style="stroke: white; fill: white" height="452" x="0" y="0" width="452" onclick="click(evt)" />
  <g transform="scale(1.582727,1.582727) translate(38.199295,39.341339)">
    <polyline style="stroke: black; fill: none; stroke-width: 1.5" id="outline" points="
      110.054,-15.811
      109.434,-0.824
      108.814,14.164
      108.194,29.151
      107.574,44.138
      99.318,56.535
      106.478,70.643
      89.252,73.546
      76.139,83.738
      69.778,98.144
      54.790,97.524
      39.803,96.904
      33.802,82.870
      22.300,72.836
      7.582,68.795
      -7.431,71.548
      -19.757,80.549
      -26.950,94.012
      -27.580,109.262
      -21.524,123.272
      -9.983,133.260
      4.751,137.244
      19.753,134.431
      32.044,125.382
      39.183,111.891
      54.170,112.511
      69.158,113.131
      76.415,127.728
      90.002,136.735
      88.763,151.684
      87.525,166.633
      86.286,181.581
      85.047,196.530
      72.176,205.410
      68.073,220.500
      74.676,234.675
      88.868,241.242
      103.947,237.100
      112.794,224.205
      111.231,208.646
      99.996,197.769
      101.235,182.820
      102.474,167.871
      103.712,152.923
      104.951,137.974
      113.889,136.128
      122.156,131.698
      129.005,124.923
      133.770,116.260
      135.933,106.354
      135.178,95.987
      149.973,93.518
      164.769,91.049
      179.564,88.580
      194.359,86.111
      206.127,96.410
      221.763,96.682
      233.883,86.801
      236.765,71.431
      229.048,57.830
      214.376,52.420
      199.677,57.755
      191.891,71.316
      177.095,73.785
      162.300,76.254
      147.504,78.723
      132.709,81.192
      121.465,71.263
      129.766,57.794
      122.562,44.758
      123.182,29.771
      123.801,14.784
      124.421,-0.204
      125.041,-15.191
      128.026,-34.341
    " />
    <g style="stroke: black; stroke-width: 1" id="pairs">
      <line id="1,74" x1="110.054" y1="-15.811" x2="125.041" y2="-15.191" />
      <line id="2,73" x1="109.434" y1="-0.824" x2="124.421" y2="-0.204" />
      <line id="3,72" x1="108.814" y1="14.164" x2="123.801" y2="14.784" />
      <line id="4,71" x1="108.194" y1="29.151" x2="123.182" y2="29.771" />
      <line id="5,70" x1="107.574" y1="44.138" x2="122.562" y2="44.758" />
      <line id="7,68" x1="106.478" y1="70.643" x2="121.465" y2="71.263" />
      <line id="10,27" x1="69.778" y1="98.144" x2="69.158" y2="113.131" />
      <line id="11,26" x1="54.790" y1="97.524" x2="54.170" y2="112.511" />
      <line id="12,25" x1="39.803" y1="96.904" x2="39.183" y2="111.891" />
      <line id="29,45" x1="90.002" y1="136.735" x2="104.951" y2="137.974" />
      <line id="30,44" x1="88.763" y1="151.684" x2="103.712" y2="152.923" />
      <line id="31,43" x1="87.525" y1="166.633" x2="102.474" y2="167.871" />
      <line id="32,42" x1="86.286" y1="181.581" x2="101.235" y2="182.820" />
      <line id="33,41" x1="85.047" y1="196.530" x2="99.996" y2="197.769" />
      <line id="51,67" x1="135.178" y1="95.987" x2="132.709" y2="81.192" />
      <line id="52,66" x1="149.973" y1="93.518" x2="147.504" y2="78.723" />
      <line id="53,65" x1="164.769" y1="91.049" x2="162.300" y2="76.254" />
      <line id="54,64" x1="179.564" y1="88.580" x2="177.095" y2="73.785" />
      <line id="55,63" x1="194.359" y1="86.111" x2="191.891" y2="71.316" />
    </g>
    <g style="font-family: SansSerif" transform="translate(-4.6, 4)" id="seq">
      <text x="110.054" y="-15.811">G</text>
      <text x="109.434" y="-0.824">C</text>
      <text x="108.814" y="14.164">U</text>
      <text x="108.194" y="29.151">A</text>
      <text x="107.574" y="44.138">G</text>
      <text x="99.318" y="56.535">C</text>
      <text x="106.478" y="70.643">G</text>
      <text x="89.252" y="73.546">U</text>
      <text x="76.139" y="83.738">G</text>
      <text x="69.778" y="98.144">G</text>
      <text x="54.790" y="97.524">C</text>
      <text x="39.803" y="96.904">A</text>
      <text x="33.802" y="82.870">G</text>
      <text x="22.300" y="72.836">A</text>
      <text x="7.582" y="68.795">G</text>
      <text x="-7.431" y="71.548">C</text>
      <text x="-19.757" y="80.549">U</text>
      <text x="-26.950" y="94.012">C</text>
      <text x="-27.580" y="109.262">G</text>
      <text x="-21.524" y="123.272">G</text>
      <text x="-9.983" y="133.260">C</text>
      <text x="4.751" y="137.244">A</text>
      <text x="19.753" y="134.431">A</text>
      <text x="32.044" y="125.382">A</text>
      <text x="39.183" y="111.891">U</text>
      <text x="54.170" y="112.511">G</text>
      <text x="69.158" y="113.131">C</text>
      <text x="76.415" y="127.728">A</text>
      <text x="90.002" y="136.735">A</text>
      <text x="88.763" y="151.684">A</text>
      <text x="87.525" y="166.633">A</text>
      <text x="86.286" y="181.581">G</text>
      <text x="85.047" y="196.530">G</text>
      <text x="72.176" y="205.410">C</text>
      <text x="68.073" y="220.500">U</text>
      <text x="74.676" y="234.675">U</text>
      <text x="88.868" y="241.242">A</text>
      <text x="103.947" y="237.100">A</text>
      <text x="112.794" y="224.205">G</text>
      <text x="111.231" y="208.646">U</text>
      <text x="99.996" y="197.769">C</text>
      <text x="101.235" y="182.820">C</text>
      <text x="102.474" y="167.871">U</text>
      <text x="103.712" y="152.923">U</text>
      <text x="104.951" y="137.974">U</text>
      <text x="113.889" y="136.128">A</text>
      <text x="122.156" y="131.698">A</text>
      <text x="129.005" y="124.923">C</text>
      <text x="133.770" y="116.260">U</text>
      <text x="135.933" y="106.354">C</text>
      <text x="135.178" y="95.987">A</text>
      <text x="149.973" y="93.518">G</text>
      <text x="164.769" y="91.049">A</text>
      <text x="179.564" y="88.580">G</text>
      <text x="194.359" y="86.111">G</text>
      <text x="206.127" y="96.410">U</text>
      <text x="221.763" y="96.682">U</text>
      <text x="233.883" y="86.801">C</text>
      <text x="236.765" y="71.431">A</text>
      <text x="229.048" y="57.830">A</text>
      <text x="214.376" y="52.420">A</text>
      <text x="199.677" y="57.755">U</text>
      <text x="191.891" y="71.316">C</text>
      <text x="177.095" y="73.785">C</text>
      <text x="162.300" y="76.254">U</text>
      <text x="147.504" y="78.723">C</text>
      <text x="132.709" y="81.192">U</text>
      <text x="121.465" y="71.263">C</text>
      <text x="129.766" y="57.794">C</text>
      <text x="122.562" y="44.758">C</text>
      <text x="123.182" y="29.771">U</text>
      <text x="123.801" y="14.784">A</text>
      <text x="124.421" y="-0.204">G</text>
      <text x="125.041" y="-15.191">C</text>
      <text x="128.026" y="-34.341">U</text>
    </g>
  </g>
</svg>
