<?xml version="1.0" encoding="UTF-8" standalone="yes"?>
<svg xmlns="http://www.w3.org/2000/svg" height="452" width="452">
<script type="text/ecmascript">
      <![CDATA[
        var shown = 1;
        function click() {
             var seq = document.getElementById("seq");
             if (shown==1) {
               seq.setAttribute("style", "visibility: hidden");
               shown = 0;
             } else {
               seq.setAttribute("style", "visibility: visible");
               shown = 1;
             }
         }
        ]]>
</script>
  <rect style="stroke: white; fill: white" height="452" x="0" y="0" width="452" onclick="click(evt)" />
  <g transform="scale(1.570914,1.570914) translate(37.052490,37.602303)">
    <polyline style="stroke: black; fill: none; stroke-width: 1.5" id="outline" points="
      111.157,-14.082
      110.529,0.905
      109.901,15.892
      109.272,30.879
      108.644,45.866
      108.016,60.853
      107.388,75.839
      90.212,78.210
      76.751,87.792
      69.634,101.793
      54.716,100.225
      39.798,98.657
      24.881,97.089
      17.239,83.584
      3.105,77.181
      -12.087,80.341
      -22.495,91.850
      -24.117,107.282
      -16.329,120.703
      -2.127,126.953
      13.030,123.628
      23.313,112.007
      38.230,113.575
      53.148,115.143
      68.066,116.711
      73.944,131.457
      86.152,141.604
      83.033,156.276
      79.914,170.948
      76.796,185.620
      73.677,200.293
      59.786,207.474
      53.808,221.924
      58.567,236.820
      71.815,245.128
      87.296,242.926
      97.702,231.254
      98.119,215.622
      88.349,203.411
      91.468,188.739
      94.587,174.067
      97.705,159.395
      100.824,144.722
      109.413,144.105
      117.721,141.187
      125.132,136.077
      131.066,129.050
      135.029,120.534
      136.649,111.083
      135.713,101.344
      150.552,99.152
      165.391,96.961
      180.231,94.770
      195.070,92.579
      206.642,103.095
      222.270,103.661
      234.573,94.009
      237.743,78.696
      230.282,64.953
      215.714,59.268
      200.918,64.327
      192.878,77.740
      178.039,79.931
      163.200,82.122
      148.361,84.313
      133.522,86.505
      122.375,76.468
      123.003,61.481
      123.631,46.494
      124.259,31.507
      124.887,16.520
      125.516,1.533
      126.144,-13.453
      129.139,-32.602
    " />
    <g style="stroke: black; stroke-width: 1" id="pairs">
      <line id="1,73" x1="111.157" y1="-14.082" x2="126.144" y2="-13.453" />
      <line id="2,72" x1="110.529" y1=" 0.905" x2="125.516" y2=" 1.533" />
      <line id="3,71" x1="109.901" y1="15.892" x2="124.887" y2="16.520" />
      <line id="4,70" x1="109.272" y1="30.879" x2="124.259" y2="31.507" />
      <line id="5,69" x1="108.644" y1="45.866" x2="123.631" y2="46.494" />
      <line id="6,68" x1="108.016" y1="60.853" x2="123.003" y2="61.481" />
      <line id="7,67" x1="107.388" y1="75.839" x2="122.375" y2="76.468" />
      <line id="10,25" x1="69.634" y1="101.793" x2="68.066" y2="116.711" />
      <line id="11,24" x1="54.716" y1="100.225" x2="53.148" y2="115.143" />
      <line id="12,23" x1="39.798" y1="98.657" x2="38.230" y2="113.575" />
      <line id="13,22" x1="24.881" y1="97.089" x2="23.313" y2="112.007" />
      <line id="27,43" x1="86.152" y1="141.604" x2="100.824" y2="144.722" />
      <line id="28,42" x1="83.033" y1="156.276" x2="97.705" y2="159.395" />
      <line id="29,41" x1="79.914" y1="170.948" x2="94.587" y2="174.067" />
      <line id="30,40" x1="76.796" y1="185.620" x2="91.468" y2="188.739" />
      <line id="31,39" x1="73.677" y1="200.293" x2="88.349" y2="203.411" />
      <line id="50,66" x1="135.713" y1="101.344" x2="133.522" y2="86.505" />
      <line id="51,65" x1="150.552" y1="99.152" x2="148.361" y2="84.313" />
      <line id="52,64" x1="165.391" y1="96.961" x2="163.200" y2="82.122" />
      <line id="53,63" x1="180.231" y1="94.770" x2="178.039" y2="79.931" />
      <line id="54,62" x1="195.070" y1="92.579" x2="192.878" y2="77.740" />
    </g>
    <g style="font-family: SansSerif" transform="translate(-4.6, 4)" id="seq">
      <text x="111.157" y="-14.082">U</text>
      <text x="110.529" y="0.905">A</text>
      <text x="109.901" y="15.892">G</text>
      <text x="109.272" y="30.879">G</text>
      <text x="108.644" y="45.866">C</text>
      <text x="108.016" y="60.853">A</text>
      <text x="107.388" y="75.839">G</text>
      <text x="90.212" y="78.210">A</text>
      <text x="76.751" y="87.792">A</text>
      <text x="69.634" y="101.793">G</text>
      <text x="54.716" y="100.225">C</text>
      <text x="39.798" y="98.657">C</text>
      <text x="24.881" y="97.089">C</text>
      <text x="17.239" y="83.584">G</text>
      <text x="3.105" y="77.181">U</text>
      <text x="-12.087" y="80.341">U</text>
      <text x="-22.495" y="91.850">G</text>
      <text x="-24.117" y="107.282">G</text>
      <text x="-16.329" y="120.703">U</text>
      <text x="-2.127" y="126.953">U</text>
      <text x="13.030" y="123.628">U</text>
      <text x="23.313" y="112.007">G</text>
      <text x="38.230" y="113.575">G</text>
      <text x="53.148" y="115.143">G</text>
      <text x="68.066" y="116.711">C</text>
      <text x="73.944" y="131.457">A</text>
      <text x="86.152" y="141.604">U</text>
      <text x="83.033" y="156.276">A</text>
      <text x="79.914" y="170.948">U</text>
      <text x="76.796" y="185.620">G</text>
      <text x="73.677" y="200.293">G</text>
      <text x="59.786" y="207.474">C</text>
      <text x="53.808" y="221.924">U</text>
      <text x="58.567" y="236.820">G</text>
      <text x="71.815" y="245.128">U</text>
      <text x="87.296" y="242.926">U</text>
      <text x="97.702" y="231.254">A</text>
      <text x="98.119" y="215.622">A</text>
      <text x="88.349" y="203.411">C</text>
      <text x="91.468" y="188.739">C</text>
      <text x="94.587" y="174.067">A</text>
      <text x="97.705" y="159.395">U</text>
      <text x="100.824" y="144.722">A</text>
      <text x="109.413" y="144.105">U</text>
      <text x="117.721" y="141.187">A</text>
      <text x="125.132" y="136.077">U</text>
      <text x="131.066" y="129.050">U</text>
      <text x="135.029" y="120.534">U</text>
      <text x="136.649" y="111.083">C</text>
      <text x="135.713" y="101.344">G</text>
      <text x="150.552" y="99.152">U</text>
      <text x="165.391" y="96.961">G</text>
      <text x="180.231" y="94.770">G</text>
      <text x="195.070" y="92.579">G</text>
      <text x="206.642" y="103.095">A</text>
      <text x="222.270" y="103.661">U</text>
      <text x="234.573" y="94.009">C</text>
      <text x="237.743" y="78.696">A</text>
      <text x="230.282" y="64.953">A</text>
      <text x="215.714" y="59.268">A</text>
      <text x="200.918" y="64.327">G</text>
      <text x="192.878" y="77.740">C</text>
      <text x="178.039" y="79.931">C</text>
      <text x="163.200" y="82.122">C</text>
      <text x="148.361" y="84.313">A</text>
      <text x="133.522" y="86.505">U</text>
      <text x="122.375" y="76.468">C</text>
      <text x="123.003" y="61.481">U</text>
      <text x="123.631" y="46.494">G</text>
      <text x="124.259" y="31.507">U</text>
      <text x="124.887" y="16.520">C</text>
      <text x="125.516" y="1.533">U</text>
      <text x="126.144" y="-13.453">A</text>
      <text x="129.139" y="-32.602">G</text>
    </g>
  </g>
</svg>
