<?xml version="1.0" encoding="UTF-8" standalone="yes"?>
<svg xmlns="http://www.w3.org/2000/svg" height="452" width="452">
<script type="text/ecmascript">
      <![CDATA[
        var shown = 1;
        function click() {
             var seq = document.getElementById("seq");
             if (shown==1) {
               seq.setAttribute("style", "visibility: hidden");
               shown = 0;
             } else {
               seq.setAttribute("style", "visibility: visible");
               shown = 1;
             }
         }
        ]]>
</script>
  <rect style="stroke: white; fill: white" height="452" x="0" y="0" width="452" onclick="click(evt)" />
  <g transform="scale(1.586745,1.586745) translate(32.650742,36.578278)">
    <polyline style="stroke: black; fill: none; stroke-width: 1.5" id="outline" points="
      111.320,-13.089
      110.665,1.897
      110.011,16.882
      109.357,31.868
      108.702,46.854
      108.048,61.840
      107.394,76.825
      90.904,79.076
      78.064,88.283
      71.401,101.673
      56.458,100.365
      41.515,99.058
      26.572,97.751
      17.751,84.838
      2.680,80.666
      -11.525,87.204
      -18.157,101.366
      -14.084,116.464
      -1.231,125.370
      14.336,123.878
      25.264,112.694
      40.207,114.001
      55.150,115.308
      70.093,116.616
      75.955,130.153
      87.515,139.320
      84.910,154.092
      82.305,168.864
      79.701,183.636
      77.096,198.408
      63.464,206.070
      57.994,220.720
      63.270,235.440
      76.799,243.282
      92.195,240.541
      102.187,228.512
      102.058,212.875
      91.868,201.013
      94.473,186.241
      97.077,171.469
      99.682,156.697
      102.287,141.924
      112.940,140.288
      122.695,134.891
      130.228,126.178
      134.421,115.054
      134.522,102.795
      149.465,101.488
      164.408,100.181
      179.351,98.873
      194.294,97.566
      205.223,108.751
      220.789,110.242
      233.643,101.336
      237.715,86.238
      231.083,72.077
      216.878,65.539
      201.807,69.711
      192.987,82.623
      178.044,83.930
      163.101,85.238
      148.158,86.545
      133.215,87.852
      122.380,77.480
      123.034,62.494
      123.688,47.508
      124.342,32.522
      124.997,17.537
      125.651,2.551
      126.305,-12.435
      129.334,-31.578
    " />
    <g style="stroke: black; stroke-width: 1" id="pairs">
      <line id="1,70" x1="111.320" y1="-13.089" x2="126.305" y2="-12.435" />
      <line id="2,69" x1="110.665" y1=" 1.897" x2="125.651" y2=" 2.551" />
      <line id="3,68" x1="110.011" y1="16.882" x2="124.997" y2="17.537" />
      <line id="4,67" x1="109.357" y1="31.868" x2="124.342" y2="32.522" />
      <line id="5,66" x1="108.702" y1="46.854" x2="123.688" y2="47.508" />
      <line id="6,65" x1="108.048" y1="61.840" x2="123.034" y2="62.494" />
      <line id="7,64" x1="107.394" y1="76.825" x2="122.380" y2="77.480" />
      <line id="10,24" x1="71.401" y1="101.673" x2="70.093" y2="116.616" />
      <line id="11,23" x1="56.458" y1="100.365" x2="55.150" y2="115.308" />
      <line id="12,22" x1="41.515" y1="99.058" x2="40.207" y2="114.001" />
      <line id="13,21" x1="26.572" y1="97.751" x2="25.264" y2="112.694" />
      <line id="26,42" x1="87.515" y1="139.320" x2="102.287" y2="141.924" />
      <line id="27,41" x1="84.910" y1="154.092" x2="99.682" y2="156.697" />
      <line id="28,40" x1="82.305" y1="168.864" x2="97.077" y2="171.469" />
      <line id="29,39" x1="79.701" y1="183.636" x2="94.473" y2="186.241" />
      <line id="30,38" x1="77.096" y1="198.408" x2="91.868" y2="201.013" />
      <line id="47,63" x1="134.522" y1="102.795" x2="133.215" y2="87.852" />
      <line id="48,62" x1="149.465" y1="101.488" x2="148.158" y2="86.545" />
      <line id="49,61" x1="164.408" y1="100.181" x2="163.101" y2="85.238" />
      <line id="50,60" x1="179.351" y1="98.873" x2="178.044" y2="83.930" />
      <line id="51,59" x1="194.294" y1="97.566" x2="192.987" y2="82.623" />
    </g>
    <g style="font-family: SansSerif" transform="translate(-4.6, 4)" id="seq">
      <text x="111.320" y="-13.089">U</text>
      <text x="110.665" y="1.897">A</text>
      <text x="110.011" y="16.882">G</text>
      <text x="109.357" y="31.868">A</text>
      <text x="108.702" y="46.854">A</text>
      <text x="108.048" y="61.840">A</text>
      <text x="107.394" y="76.825">A</text>
      <text x="90.904" y="79.076">U</text>
      <text x="78.064" y="88.283">A</text>
      <text x="71.401" y="101.673">A</text>
      <text x="56.458" y="100.365">U</text>
      <text x="41.515" y="99.058">A</text>
      <text x="26.572" y="97.751">U</text>
      <text x="17.751" y="84.838">A</text>
      <text x="2.680" y="80.666">A</text>
      <text x="-11.525" y="87.204">G</text>
      <text x="-18.157" y="101.366">G</text>
      <text x="-14.084" y="116.464">G</text>
      <text x="-1.231" y="125.370">A</text>
      <text x="14.336" y="123.878">A</text>
      <text x="25.264" y="112.694">G</text>
      <text x="40.207" y="114.001">U</text>
      <text x="55.150" y="115.308">A</text>
      <text x="70.093" y="116.616">U</text>
      <text x="75.955" y="130.153">G</text>
      <text x="87.515" y="139.320">G</text>
      <text x="84.910" y="154.092">A</text>
      <text x="82.305" y="168.864">G</text>
      <text x="79.701" y="183.636">G</text>
      <text x="77.096" y="198.408">G</text>
      <text x="63.464" y="206.070">U</text>
      <text x="57.994" y="220.720">U</text>
      <text x="63.270" y="235.440">U</text>
      <text x="76.799" y="243.282">U</text>
      <text x="92.195" y="240.541">G</text>
      <text x="102.187" y="228.512">A</text>
      <text x="102.058" y="212.875">U</text>
      <text x="91.868" y="201.013">U</text>
      <text x="94.473" y="186.241">C</text>
      <text x="97.077" y="171.469">C</text>
      <text x="99.682" y="156.697">U</text>
      <text x="102.287" y="141.924">U</text>
      <text x="112.940" y="140.288">C</text>
      <text x="122.695" y="134.891">A</text>
      <text x="130.228" y="126.178">G</text>
      <text x="134.421" y="115.054">U</text>
      <text x="134.522" y="102.795">G</text>
      <text x="149.465" y="101.488">U</text>
      <text x="164.408" y="100.181">A</text>
      <text x="179.351" y="98.873">G</text>
      <text x="194.294" y="97.566">G</text>
      <text x="205.223" y="108.751">U</text>
      <text x="220.789" y="110.242">U</text>
      <text x="233.643" y="101.336">C</text>
      <text x="237.715" y="86.238">G</text>
      <text x="231.083" y="72.077">A</text>
      <text x="216.878" y="65.539">U</text>
      <text x="201.807" y="69.711">U</text>
      <text x="192.987" y="82.623">C</text>
      <text x="178.044" y="83.930">C</text>
      <text x="163.101" y="85.238">U</text>
      <text x="148.158" y="86.545">A</text>
      <text x="133.215" y="87.852">C</text>
      <text x="122.380" y="77.480">U</text>
      <text x="123.034" y="62.494">U</text>
      <text x="123.688" y="47.508">U</text>
      <text x="124.342" y="32.522">U</text>
      <text x="124.997" y="17.537">C</text>
      <text x="125.651" y="2.551">U</text>
      <text x="126.305" y="-12.435">A</text>
      <text x="129.334" y="-31.578">A</text>
    </g>
  </g>
</svg>
