<?xml version="1.0" encoding="UTF-8" standalone="yes"?>
<svg xmlns="http://www.w3.org/2000/svg" height="452" width="452">
<script type="text/ecmascript">
      <![CDATA[
        var shown = 1;
        function click() {
             var seq = document.getElementById("seq");
             if (shown==1) {
               seq.setAttribute("style", "visibility: hidden");
               shown = 0;
             } else {
               seq.setAttribute("style", "visibility: visible");
               shown = 1;
             }
         }
        ]]>
</script>
  <rect style="stroke: white; fill: white" height="452" x="0" y="0" width="452" onclick="click(evt)" />
  <g transform="scale(1.618318,1.618318) translate(22.521538,31.828400)">
    <polyline style="stroke: black; fill: none; stroke-width: 1.5" id="outline" points="
      112.438,-8.350
      111.774,6.635
      111.111,21.620
      110.447,36.606
      109.784,51.591
      109.120,66.576
      108.457,81.562
      92.546,83.118
      79.779,91.330
      72.581,103.774
      57.761,101.460
      42.940,99.147
      28.120,96.833
      17.538,84.775
      1.520,85.674
      -7.646,98.840
      -2.930,114.174
      12.052,119.913
      25.806,111.653
      40.626,113.967
      55.447,116.281
      70.267,118.595
      74.576,131.342
      84.041,140.905
      79.469,155.191
      74.897,169.478
      70.325,183.764
      65.753,198.050
      51.213,203.804
      43.818,217.583
      47.061,232.881
      59.410,242.474
      75.035,241.833
      86.557,231.261
      88.537,215.749
      80.039,202.622
      84.611,188.336
      89.183,174.050
      93.755,159.764
      98.328,145.477
      109.539,145.064
      120.183,140.444
      128.689,131.998
      133.695,120.686
      134.263,107.945
      149.259,107.613
      164.255,107.281
      179.252,106.949
      194.248,106.617
      203.537,119.047
      218.367,123.611
      233.037,118.555
      241.906,105.822
      241.562,90.308
      232.139,77.980
      217.260,73.577
      202.646,78.793
      193.916,91.621
      178.920,91.953
      163.923,92.285
      148.927,92.617
      133.931,92.948
      123.442,82.225
      124.106,67.240
      124.769,52.255
      125.433,37.269
      126.096,22.284
      126.760,7.299
      127.423,-7.687
      130.464,-26.828
    " />
    <g style="stroke: black; stroke-width: 1" id="pairs">
      <line id="1,69" x1="112.438" y1="-8.350" x2="127.423" y2="-7.687" />
      <line id="2,68" x1="111.774" y1=" 6.635" x2="126.760" y2=" 7.299" />
      <line id="3,67" x1="111.111" y1="21.620" x2="126.096" y2="22.284" />
      <line id="4,66" x1="110.447" y1="36.606" x2="125.433" y2="37.269" />
      <line id="5,65" x1="109.784" y1="51.591" x2="124.769" y2="52.255" />
      <line id="6,64" x1="109.120" y1="66.576" x2="124.106" y2="67.240" />
      <line id="7,63" x1="108.457" y1="81.562" x2="123.442" y2="82.225" />
      <line id="10,22" x1="72.581" y1="103.774" x2="70.267" y2="118.595" />
      <line id="11,21" x1="57.761" y1="101.460" x2="55.447" y2="116.281" />
      <line id="12,20" x1="42.940" y1="99.147" x2="40.626" y2="113.967" />
      <line id="13,19" x1="28.120" y1="96.833" x2="25.806" y2="111.653" />
      <line id="24,40" x1="84.041" y1="140.905" x2="98.328" y2="145.477" />
      <line id="25,39" x1="79.469" y1="155.191" x2="93.755" y2="159.764" />
      <line id="26,38" x1="74.897" y1="169.478" x2="89.183" y2="174.050" />
      <line id="27,37" x1="70.325" y1="183.764" x2="84.611" y2="188.336" />
      <line id="28,36" x1="65.753" y1="198.050" x2="80.039" y2="202.622" />
      <line id="45,62" x1="134.263" y1="107.945" x2="133.931" y2="92.948" />
      <line id="46,61" x1="149.259" y1="107.613" x2="148.927" y2="92.617" />
      <line id="47,60" x1="164.255" y1="107.281" x2="163.923" y2="92.285" />
      <line id="48,59" x1="179.252" y1="106.949" x2="178.920" y2="91.953" />
      <line id="49,58" x1="194.248" y1="106.617" x2="193.916" y2="91.621" />
    </g>
    <g style="font-family: SansSerif" transform="translate(-4.6, 4)" id="seq">
      <text x="112.438" y="-8.350">A</text>
      <text x="111.774" y="6.635">G</text>
      <text x="111.111" y="21.620">A</text>
      <text x="110.447" y="36.606">A</text>
      <text x="109.784" y="51.591">A</text>
      <text x="109.120" y="66.576">G</text>
      <text x="108.457" y="81.562">C</text>
      <text x="92.546" y="83.118">U</text>
      <text x="79.779" y="91.330">A</text>
      <text x="72.581" y="103.774">G</text>
      <text x="57.761" y="101.460">U</text>
      <text x="42.940" y="99.147">C</text>
      <text x="28.120" y="96.833">U</text>
      <text x="17.538" y="84.775">A</text>
      <text x="1.520" y="85.674">A</text>
      <text x="-7.646" y="98.840">C</text>
      <text x="-2.930" y="114.174">C</text>
      <text x="12.052" y="119.913">A</text>
      <text x="25.806" y="111.653">A</text>
      <text x="40.626" y="113.967">G</text>
      <text x="55.447" y="116.281">A</text>
      <text x="70.267" y="118.595">C</text>
      <text x="74.576" y="131.342">A</text>
      <text x="84.041" y="140.905">G</text>
      <text x="79.469" y="155.191">U</text>
      <text x="74.897" y="169.478">U</text>
      <text x="70.325" y="183.764">G</text>
      <text x="65.753" y="198.050">A</text>
      <text x="51.213" y="203.804">U</text>
      <text x="43.818" y="217.583">U</text>
      <text x="47.061" y="232.881">U</text>
      <text x="59.410" y="242.474">C</text>
      <text x="75.035" y="241.833">G</text>
      <text x="86.557" y="231.261">G</text>
      <text x="88.537" y="215.749">C</text>
      <text x="80.039" y="202.622">U</text>
      <text x="84.611" y="188.336">C</text>
      <text x="89.183" y="174.050">A</text>
      <text x="93.755" y="159.764">A</text>
      <text x="98.328" y="145.477">C</text>
      <text x="109.539" y="145.064">A</text>
      <text x="120.183" y="140.444">A</text>
      <text x="128.689" y="131.998">A</text>
      <text x="133.695" y="120.686">U</text>
      <text x="134.263" y="107.945">U</text>
      <text x="149.259" y="107.613">A</text>
      <text x="164.255" y="107.281">U</text>
      <text x="179.252" y="106.949">A</text>
      <text x="194.248" y="106.617">G</text>
      <text x="203.537" y="119.047">U</text>
      <text x="218.367" y="123.611">A</text>
      <text x="233.037" y="118.555">C</text>
      <text x="241.906" y="105.822">A</text>
      <text x="241.562" y="90.308">C</text>
      <text x="232.139" y="77.980">A</text>
      <text x="217.260" y="73.577">C</text>
      <text x="202.646" y="78.793">C</text>
      <text x="193.916" y="91.621">C</text>
      <text x="178.920" y="91.953">U</text>
      <text x="163.923" y="92.285">A</text>
      <text x="148.927" y="92.617">U</text>
      <text x="133.931" y="92.948">A</text>
      <text x="123.442" y="82.225">G</text>
      <text x="124.106" y="67.240">C</text>
      <text x="124.769" y="52.255">U</text>
      <text x="125.433" y="37.269">U</text>
      <text x="126.096" y="22.284">U</text>
      <text x="126.760" y="7.299">C</text>
      <text x="127.423" y="-7.687">U</text>
      <text x="130.464" y="-26.828">U</text>
    </g>
  </g>
</svg>
