<?xml version="1.0" encoding="UTF-8" standalone="yes"?>
<svg xmlns="http://www.w3.org/2000/svg" height="452" width="452">
<script type="text/ecmascript">
      <![CDATA[
        var shown = 1;
        function click() {
             var seq = document.getElementById("seq");
             if (shown==1) {
               seq.setAttribute("style", "visibility: hidden");
               shown = 0;
             } else {
               seq.setAttribute("style", "visibility: visible");
               shown = 1;
             }
         }
        ]]>
</script>
  <rect style="stroke: white; fill: white" height="452" x="0" y="0" width="452" onclick="click(evt)" />
  <g transform="scale(0.260380,0.260380) translate(511.319641,724.462708)">
    <polyline style="stroke: black; fill: none; stroke-width: 1.5" id="outline" points="
      87.481,58.933
      87.119,73.929
      86.758,88.925
      79.260,88.744
      78.105,73.789
      88.110,61.850
      86.725,46.699
      75.281,37.235
      86.576,26.420
      88.226,10.870
      79.452,-2.074
      64.396,-6.300
      50.168,0.188
      43.485,14.326
      47.504,29.438
      60.326,38.390
      50.471,49.500
      51.430,64.683
      63.149,74.944
      64.305,89.899
      49.178,102.206
      37.307,116.608
      28.918,132.341
      21.500,118.367
      6.610,117.986
      -6.004,109.869
      -18.618,101.752
      -31.232,93.635
      -43.846,85.518
      -56.460,77.402
      -69.074,69.285
      -69.809,46.560
      -95.751,32.793
      -106.840,22.692
      -117.929,12.591
      -129.018,2.490
      -140.107,-7.612
      -151.196,-17.713
      -162.269,-27.832
      -157.000,-38.623
      -156.197,-51.311
      -160.506,-64.018
      -169.779,-74.670
      -183.029,-81.330
      -198.518,-82.535
      -208.512,-93.720
      -218.506,-104.906
      -221.829,-113.275
      -228.550,-116.112
      -238.580,-127.265
      -248.609,-138.419
      -233.691,-157.567
      -234.670,-187.205
      -257.474,-213.930
      -262.890,-227.919
      -259.838,-244.031
      -272.441,-254.524
      -287.734,-248.603
      -289.985,-232.359
      -276.878,-222.503
      -271.462,-208.515
      -277.859,-204.599
      -285.690,-217.392
      -293.522,-230.185
      -306.315,-222.354
      -298.483,-209.561
      -290.652,-196.768
      -297.049,-192.852
      -307.043,-204.038
      -317.037,-215.223
      -309.656,-221.634
      -303.866,-230.477
      -300.424,-241.316
      -299.956,-253.487
      -302.892,-266.142
      -309.418,-278.308
      -319.440,-288.960
      -332.570,-297.096
      -340.808,-309.631
      -337.818,-324.919
      -346.351,-337.514
      -360.944,-340.270
      -357.954,-355.557
      -366.487,-368.152
      -381.079,-370.909
      -389.318,-383.444
      -383.710,-397.912
      -387.711,-412.905
      -399.781,-422.657
      -415.279,-423.418
      -428.246,-414.896
      -433.696,-400.367
      -429.534,-385.419
      -417.359,-375.799
      -401.853,-375.206
      -393.615,-362.671
      -396.874,-348.182
      -388.698,-335.352
      -373.479,-332.032
      -376.738,-317.544
      -368.562,-304.714
      -353.343,-301.393
      -345.105,-288.858
      -350.909,-284.108
      -360.409,-295.717
      -372.017,-286.217
      -362.518,-274.609
      -368.322,-269.859
      -378.980,-280.414
      -389.637,-290.970
      -400.278,-301.542
      -410.902,-312.132
      -403.671,-325.394
      -400.472,-340.157
      -401.563,-355.223
      -406.855,-369.371
      -415.921,-381.454
      -428.024,-390.493
      -442.183,-395.754
      -457.252,-396.812
      -472.007,-393.580
      -485.254,-386.320
      -495.918,-375.622
      -503.135,-362.352
      -506.320,-347.586
      -505.214,-332.521
      -499.907,-318.378
      -490.830,-306.304
      -478.718,-297.278
      -464.553,-292.031
      -449.483,-290.989
      -434.731,-294.235
      -421.491,-301.508
      -410.868,-290.918
      -408.379,-284.061
      -400.193,-280.312
      -389.535,-269.757
      -378.878,-259.201
      -383.720,-253.474
      -398.482,-256.134
      -393.405,-242.020
      -398.247,-236.292
      -401.062,-248.794
      -411.280,-255.846
      -423.177,-254.153
      -435.385,-262.868
      -444.764,-276.992
      -460.932,-271.890
      -460.505,-254.941
      -444.100,-250.659
      -431.892,-241.944
      -425.416,-225.576
      -407.001,-224.112
      -389.481,-201.604
      -366.123,-191.551
      -343.881,-193.883
      -328.222,-205.230
      -318.228,-194.044
      -308.235,-182.858
      -312.900,-176.986
      -327.736,-179.194
      -322.231,-165.241
      -326.896,-159.369
      -340.052,-166.575
      -348.102,-180.862
      -364.501,-180.764
      -372.379,-166.381
      -363.632,-152.510
      -347.258,-153.419
      -334.102,-146.213
      -325.589,-132.539
      -314.320,-122.530
      -301.591,-116.601
      -288.705,-114.751
      -276.845,-116.602
      -266.976,-121.455
      -259.763,-128.389
      -249.733,-117.236
      -239.703,-106.082
      -229.692,-94.912
      -219.698,-83.726
      -209.704,-72.541
      -213.640,-66.157
      -226.408,-74.029
      -239.176,-81.901
      -251.945,-89.773
      -259.816,-77.005
      -247.049,-69.133
      -234.280,-61.261
      -221.512,-53.388
      -225.448,-47.004
      -239.931,-50.910
      -254.414,-54.815
      -268.896,-58.721
      -273.683,-68.309
      -282.732,-73.631
      -293.002,-73.175
      -301.188,-67.323
      -315.695,-71.136
      -330.203,-74.948
      -344.710,-78.761
      -359.217,-82.573
      -370.482,-94.491
      -386.371,-90.432
      -390.539,-74.572
      -378.698,-63.225
      -363.030,-68.066
      -348.522,-64.253
      -334.015,-60.441
      -319.508,-56.628
      -305.000,-52.816
      -292.144,-38.277
      -272.802,-44.238
      -258.319,-40.333
      -243.837,-36.427
      -229.354,-32.522
      -213.258,-13.208
      -191.006,-8.164
      -172.406,-16.776
      -169.633,-10.028
      -161.297,-6.624
      -150.208,3.477
      -139.119,13.579
      -128.030,23.680
      -116.941,33.781
      -105.853,43.882
      -108.312,50.968
      -122.482,46.049
      -136.653,41.131
      -141.571,55.302
      -127.401,60.220
      -113.230,65.138
      -115.689,72.224
      -130.652,73.283
      -145.615,74.342
      -160.577,75.401
      -175.540,76.460
      -190.522,77.183
      -205.517,77.568
      -220.512,77.954
      -226.038,63.838
      -236.060,52.466
      -249.369,45.210
      -264.358,42.947
      -279.216,45.950
      -292.149,53.856
      -301.596,65.711
      -306.416,80.083
      -306.026,95.236
      -300.475,109.341
      -290.431,120.695
      -277.109,127.926
      -262.116,130.161
      -247.264,127.131
      -234.345,119.201
      -224.920,107.329
      -220.127,92.949
      -205.132,92.563
      -190.137,92.178
      -203.652,98.685
      -213.661,109.857
      -218.648,124.004
      -217.859,138.983
      -211.413,152.527
      -200.286,162.586
      -186.162,167.637
      -171.179,166.915
      -157.606,160.529
      -147.497,149.447
      -142.383,135.346
      -143.038,120.360
      -149.363,106.759
      -160.400,96.600
      -174.480,91.423
      -159.518,90.364
      -144.555,89.305
      -129.593,88.245
      -114.630,87.186
      -92.066,92.292
      -77.191,81.899
      -64.577,90.016
      -51.963,98.133
      -39.349,106.250
      -26.735,114.367
      -14.121,122.484
      -1.507,130.600
      5.009,143.994
      20.801,144.955
      14.003,161.608
      10.665,179.282
      10.922,197.267
      14.764,214.839
      22.035,231.291
      32.443,245.960
      45.570,258.257
      37.493,270.897
      29.417,283.537
      21.341,296.177
      17.553,291.858
      12.321,288.359
      5.843,286.063
      -1.594,285.303
      -9.625,286.342
      -17.822,289.358
      -25.715,294.430
      -36.574,304.778
      -47.433,315.126
      -58.292,325.474
      -69.151,335.822
      -85.810,332.563
      -100.958,339.846
      -108.661,354.596
      -106.034,370.859
      -117.944,362.503
      -131.250,356.630
      -145.440,353.464
      -159.970,353.124
      -174.283,355.622
      -187.830,360.859
      -200.093,368.634
      -210.602,378.645
      -218.955,390.509
      -224.834,403.768
      -228.016,417.915
      -228.379,432.405
      -225.912,446.683
      -220.712,460.202
      -212.979,472.444
      -223.838,482.792
      -239.167,486.711
      -243.043,501.093
      -253.902,511.441
      -264.761,521.789
      -275.620,532.137
      -286.479,542.485
      -295.445,536.864
      -307.600,536.125
      -320.153,541.842
      -329.649,553.998
      -341.026,563.774
      -352.402,573.551
      -363.778,583.327
      -375.155,593.104
      -390.664,596.230
      -395.274,610.393
      -411.743,606.282
      -427.245,612.777
      -435.696,627.113
      -433.908,643.489
      -445.316,653.229
      -456.723,662.969
      -472.457,661.477
      -484.584,671.611
      -485.910,687.360
      -475.648,699.379
      -459.886,700.538
      -447.976,690.150
      -446.983,674.377
      -435.576,664.637
      -424.168,654.897
      -411.604,659.198
      -398.443,656.740
      -388.113,648.056
      -383.353,635.312
      -385.497,621.770
      -370.802,619.343
      -365.378,604.480
      -354.002,594.703
      -342.626,584.927
      -331.249,575.150
      -319.873,565.374
      -314.435,570.539
      -324.766,581.415
      -335.096,592.291
      -345.427,603.166
      -355.757,614.042
      -366.088,624.918
      -355.212,635.248
      -344.882,624.372
      -334.551,613.497
      -324.221,602.621
      -313.890,591.745
      -303.559,580.870
      -298.122,586.035
      -313.494,591.746
      -315.968,607.957
      -302.998,617.993
      -287.927,611.528
      -286.258,595.214
      -270.138,573.527
      -276.131,553.344
      -265.272,542.996
      -254.413,532.648
      -243.554,522.300
      -232.695,511.952
      -218.143,508.773
      -213.490,493.651
      -202.631,483.303
      -189.900,492.103
      -175.610,498.062
      -160.387,500.916
      -144.898,500.540
      -129.821,496.946
      -115.817,490.290
      -103.501,480.861
      -93.413,469.071
      -85.999,455.435
      -81.583,440.548
      -80.362,425.063
      -82.393,409.657
      -87.587,395.005
      -95.721,381.752
      -82.952,385.401
      -69.935,382.271
      -60.064,373.068
      -55.966,360.096
      -58.803,346.681
      -47.944,336.333
      -37.085,325.985
      -26.226,315.637
      -15.367,305.289
      -8.939,309.154
      -16.667,322.010
      -3.811,329.737
      3.917,316.882
      10.345,320.746
      6.300,335.190
      2.255,349.635
      -1.790,364.079
      -5.835,378.523
      -9.880,392.968
      -13.426,396.450
      -15.188,400.522
      -15.230,404.437
      -13.893,407.571
      -17.799,422.053
      -32.142,427.673
      -40.330,440.511
      -39.399,455.531
      -29.916,466.986
      -33.821,481.469
      -37.727,495.951
      -41.632,510.434
      -56.366,515.010
      -66.269,526.839
      -68.181,542.147
      -61.494,556.050
      -48.339,564.110
      -32.916,563.756
      -20.145,555.101
      -14.102,540.907
      -16.715,525.702
      -27.150,514.339
      -23.244,499.857
      -19.339,485.374
      -15.433,470.891
      -1.477,465.758
      6.879,453.242
      6.257,438.028
      -3.316,425.959
      0.589,411.476
      4.565,397.013
      8.610,382.568
      12.655,368.124
      16.700,353.680
      20.744,339.235
      24.789,324.791
      21.645,339.458
      20.990,354.443
      22.844,369.328
      27.154,383.696
      33.799,397.144
      42.594,409.295
      53.292,419.809
      65.594,428.392
      79.154,434.804
      93.594,438.864
      108.509,440.460
      123.481,439.546
      138.091,436.148
      151.930,430.362
      164.610,422.348
      175.777,412.332
      185.116,400.595
      192.368,387.464
      197.328,373.308
      199.859,358.523
      199.888,343.523
      197.416,328.728
      192.511,314.553
      185.311,301.394
      176.017,289.620
      164.890,279.561
      152.241,271.498
      138.425,265.657
      123.828,262.202
      108.860,261.230
      93.939,262.767
      79.483,266.771
      65.898,273.129
      53.562,281.664
      42.823,292.137
      33.981,304.254
      42.057,291.614
      50.133,278.974
      58.210,266.334
      84.240,275.272
      111.756,275.893
      114.959,290.547
      118.163,305.201
      107.937,312.855
      101.351,323.745
      99.338,336.265
      102.155,348.580
      109.358,358.903
      119.867,365.745
      132.130,368.139
      135.428,382.772
      138.725,397.405
      142.023,412.038
      133.367,425.261
      136.678,440.715
      149.992,449.231
      165.410,445.756
      173.784,432.353
      170.147,416.973
      156.656,408.741
      153.358,394.108
      150.061,379.475
      146.763,364.842
      159.879,353.529
      165.414,337.021
      161.730,319.913
      149.771,307.013
      132.816,301.998
      129.613,287.344
      126.410,272.690
      135.676,269.264
      144.510,264.840
      152.804,259.471
      160.456,253.222
      167.374,246.169
      173.475,238.397
      178.683,230.002
      182.937,221.085
      186.183,211.753
      200.896,214.674
      215.604,217.618
      230.308,220.586
      237.982,225.294
      245.063,223.539
      259.776,226.460
      274.489,229.380
      289.202,232.300
      303.915,235.221
      318.628,238.141
      333.341,241.062
      348.054,243.982
      350.261,264.872
      359.464,283.733
      374.543,298.300
      393.673,306.830
      414.546,308.309
      434.649,302.573
      451.566,290.325
      463.269,273.051
      477.604,277.466
      491.940,281.880
      506.275,286.295
      520.611,290.710
      505.537,313.664
      513.116,348.728
      548.984,377.243
      562.254,384.237
      575.523,391.230
      588.793,398.224
      602.063,405.218
      615.333,412.212
      628.602,419.206
      641.872,426.199
      655.131,433.215
      668.378,440.251
      665.591,449.761
      667.487,460.887
      674.779,471.264
      686.996,478.287
      696.327,490.032
      705.658,501.777
      714.988,513.521
      710.703,528.435
      716.034,543.007
      728.931,551.636
      744.435,551.001
      756.585,541.349
      760.708,526.390
      755.219,511.876
      742.229,503.388
      726.733,504.190
      717.402,492.446
      708.071,480.701
      698.741,468.957
      703.292,462.995
      715.214,472.098
      727.136,481.201
      739.059,490.303
      748.161,478.381
      736.239,469.279
      724.317,460.176
      712.395,451.073
      716.946,445.112
      730.734,451.019
      740.372,463.565
      755.118,461.465
      768.906,467.372
      782.694,473.278
      796.482,479.185
      795.656,488.242
      796.927,497.234
      800.223,505.681
      805.360,513.135
      812.060,519.203
      819.962,523.565
      828.640,525.995
      837.630,526.368
      846.452,524.671
      854.637,521.002
      861.751,515.561
      867.419,508.644
      881.336,514.239
      888.025,520.266
      895.307,519.830
      909.242,525.380
      913.496,530.172
      918.734,531.927
      923.285,530.921
      937.256,536.382
      951.226,541.843
      965.197,547.304
      979.141,552.832
      993.059,558.427
      1006.976,564.023
      1020.884,569.640
      1034.784,575.280
      1048.683,580.920
      1047.487,596.104
      1053.322,611.178
      1065.781,622.890
      1082.966,628.361
      1101.759,625.762
      1115.289,632.239
      1128.818,638.717
      1126.593,648.386
      1129.553,659.472
      1138.304,669.156
      1151.956,674.470
      1165.336,681.250
      1178.717,688.030
      1183.395,703.126
      1197.417,710.418
      1212.463,705.580
      1219.606,691.482
      1214.609,676.488
      1200.436,669.495
      1185.496,674.650
      1172.116,667.870
      1158.736,661.090
      1161.887,654.284
      1171.341,633.867
      1185.167,639.685
      1194.641,653.071
      1210.943,651.291
      1217.303,636.176
      1207.179,623.275
      1190.985,625.859
      1177.159,620.041
      1151.577,612.700
      1135.295,625.187
      1121.766,618.710
      1108.237,612.233
      1110.877,605.213
      1124.917,610.494
      1139.716,608.047
      1130.198,596.454
      1116.158,591.173
      1118.798,584.153
      1133.243,588.198
      1147.687,592.243
      1153.971,606.563
      1168.012,613.447
      1183.180,609.645
      1192.314,596.952
      1191.100,581.361
      1180.113,570.235
      1164.539,568.825
      1151.732,577.799
      1137.288,573.754
      1122.843,569.709
      1113.116,557.574
      1100.264,550.005
      1086.189,547.604
      1072.804,550.245
      1061.777,557.146
      1054.323,567.021
      1040.423,561.381
      1026.524,555.741
      1021.571,550.385
      1012.571,550.105
      998.654,544.510
      984.736,538.915
      983.038,535.962
      979.886,533.640
      975.573,532.596
      970.658,533.333
      956.687,527.872
      942.717,522.412
      928.746,516.951
      914.793,511.445
      900.858,505.894
      886.931,500.322
      873.014,494.726
      871.354,473.871
      859.050,456.853
      839.623,448.679
      818.700,451.803
      802.389,465.397
      788.601,459.490
      774.813,453.584
      761.025,447.677
      752.373,435.553
      736.641,437.231
      722.853,431.324
      696.568,415.534
      675.414,427.004
      662.167,419.967
      657.790,414.132
      648.866,412.930
      635.596,405.936
      622.327,398.942
      609.057,391.948
      595.787,384.954
      582.517,377.961
      569.247,370.967
      555.978,363.973
      557.272,356.586
      572.047,359.174
      586.137,354.029
      574.636,344.400
      559.861,341.811
      561.156,334.423
      576.013,332.358
      590.870,330.293
      605.727,328.227
      620.584,326.162
      637.105,329.970
      645.337,315.149
      633.375,303.135
      618.519,311.305
      603.662,313.370
      588.805,315.435
      573.947,317.501
      559.090,319.566
      557.383,312.263
      571.989,308.848
      586.595,305.433
      601.201,302.018
      615.807,298.603
      630.413,295.188
      626.998,280.582
      612.392,283.997
      597.786,287.412
      583.180,290.827
      568.574,294.242
      553.968,297.657
      552.260,290.354
      566.493,285.618
      580.726,280.882
      594.959,276.146
      609.191,271.410
      623.424,266.674
      637.657,261.938
      651.675,269.237
      666.723,264.406
      673.873,250.311
      668.883,235.315
      654.713,228.315
      639.771,233.463
      632.921,247.705
      618.688,252.441
      604.455,257.177
      590.223,261.913
      575.990,266.649
      561.757,271.385
      547.524,276.121
      559.522,267.118
      565.710,253.454
      564.562,238.498
      556.361,225.938
      543.130,218.871
      528.131,219.040
      515.062,226.403
      507.147,239.144
      506.336,254.122
      512.830,267.644
      525.026,276.374
      510.690,271.959
      496.355,267.545
      482.019,263.130
      467.683,258.715
      468.450,252.389
      468.543,246.016
      467.960,239.670
      466.709,233.421
      464.804,227.340
      462.265,221.495
      474.747,213.176
      487.229,204.858
      503.004,203.643
      509.304,190.146
      521.786,181.828
      534.268,173.509
      548.365,179.778
      563.609,177.407
      575.136,167.155
      579.269,152.291
      574.687,137.559
      562.854,127.661
      547.545,125.754
      533.645,132.447
      525.590,145.604
      525.950,161.027
      513.467,169.346
      500.985,177.664
      486.104,178.284
      478.911,192.376
      466.429,200.694
      453.947,209.013
      446.398,201.639
      437.671,195.695
      428.033,191.365
      417.779,188.785
      407.226,188.036
      396.698,189.145
      386.519,192.079
      377.004,196.750
      368.446,203.017
      361.111,210.688
      355.226,219.529
      350.974,229.269
      336.261,226.349
      321.548,223.428
      306.835,220.508
      292.122,217.587
      277.409,214.667
      262.697,211.747
      247.984,208.826
      233.275,205.882
      218.572,202.914
      212.712,198.569
      203.816,199.961
      189.103,197.040
      190.490,191.179
      191.487,185.178
      192.083,179.063
      192.267,172.863
      192.030,166.604
      191.365,160.315
      190.267,154.027
      188.734,147.768
      186.765,141.570
      184.361,135.462
      181.526,129.475
      178.265,123.641
      174.586,117.988
      170.500,112.548
      166.018,107.348
      173.011,94.079
      180.005,80.809
      193.284,72.208
      192.374,57.341
      199.367,44.072
      213.488,49.203
      228.175,52.364
      243.156,53.495
      258.152,52.576
      272.883,49.623
      287.074,44.692
      300.462,37.874
      312.797,29.297
      323.849,19.120
      333.412,7.533
      341.308,-5.248
      347.391,-18.985
      351.546,-33.423
      353.696,-48.292
      353.801,-63.316
      351.860,-78.214
      347.908,-92.708
      342.019,-106.530
      334.303,-119.421
      324.904,-131.141
      313.996,-141.472
      301.783,-150.221
      288.492,-157.226
      274.371,-162.356
      259.683,-165.515
      244.702,-166.645
      229.706,-165.724
      214.976,-162.770
      200.785,-157.837
      187.398,-151.018
      175.064,-142.440
      164.013,-132.262
      154.451,-120.674
      146.556,-107.892
      140.476,-94.153
      136.322,-79.715
      134.174,-64.846
      134.070,-49.822
      136.013,-34.925
      139.966,-20.430
      145.856,-6.610
      153.574,6.281
      162.975,18.000
      173.884,28.330
      186.098,37.078
      179.104,50.347
      166.325,57.999
      166.735,73.815
      159.742,87.085
      152.748,100.355
      145.594,98.101
      150.101,83.794
      154.608,69.487
      159.115,55.180
      163.621,40.873
      168.128,26.566
      172.635,12.259
      177.141,-2.048
      162.834,-6.554
      158.328,7.753
      153.821,22.060
      149.314,36.367
      144.808,50.674
      140.301,64.980
      135.794,79.287
      131.287,93.594
      124.134,91.341
      126.008,76.459
      127.882,61.576
      129.757,46.694
      131.631,31.811
      133.505,16.929
      135.379,2.046
      137.254,-12.836
      139.128,-27.719
      141.002,-42.601
      151.338,-55.333
      145.227,-70.551
      128.957,-72.600
      119.264,-59.372
      126.120,-44.475
      124.245,-29.593
      122.371,-14.710
      120.497,0.172
      118.623,15.055
      116.748,29.937
      114.874,44.819
      113.000,59.702
      111.126,74.584
      109.251,89.467
      101.754,89.286
      102.115,74.290
      102.476,59.295
      102.838,44.299
      103.199,29.303
      96.014,16.136
      88.203,28.942
    " />
    <g style="stroke: black; stroke-width: 1" id="pairs">
      <line id="4,20" x1="79.260" y1="88.744" x2="64.305" y2="89.899" />
      <line id="5,19" x1="78.105" y1="73.789" x2="63.149" y2="74.944" />
      <line id="8,16" x1="75.281" y1="37.235" x2="60.326" y2="38.390" />
      <line id="23,288" x1="28.918" y1="132.341" x2="20.801" y2="144.955" />
      <line id="25,286" x1=" 6.610" y1="117.986" x2="-1.507" y2="130.600" />
      <line id="26,285" x1="-6.004" y1="109.869" x2="-14.121" y2="122.484" />
      <line id="27,284" x1="-18.618" y1="101.752" x2="-26.735" y2="114.367" />
      <line id="28,283" x1="-31.232" y1="93.635" x2="-39.349" y2="106.250" />
      <line id="29,282" x1="-43.846" y1="85.518" x2="-51.963" y2="98.133" />
      <line id="30,281" x1="-56.460" y1="77.402" x2="-64.577" y2="90.016" />
      <line id="31,280" x1="-69.074" y1="69.285" x2="-77.191" y2="81.899" />
      <line id="33,226" x1="-95.751" y1="32.793" x2="-105.853" y2="43.882" />
      <line id="34,225" x1="-106.840" y1="22.692" x2="-116.941" y2="33.781" />
      <line id="35,224" x1="-117.929" y1="12.591" x2="-128.030" y2="23.680" />
      <line id="36,223" x1="-129.018" y1=" 2.490" x2="-139.119" y2="13.579" />
      <line id="37,222" x1="-140.107" y1="-7.612" x2="-150.208" y2=" 3.477" />
      <line id="38,221" x1="-151.196" y1="-17.713" x2="-161.297" y2="-6.624" />
      <line id="39,219" x1="-162.269" y1="-27.832" x2="-172.406" y2="-16.776" />
      <line id="45,182" x1="-198.518" y1="-82.535" x2="-209.704" y2="-72.541" />
      <line id="46,181" x1="-208.512" y1="-93.720" x2="-219.698" y2="-83.726" />
      <line id="47,180" x1="-218.506" y1="-104.906" x2="-229.692" y2="-94.912" />
      <line id="49,179" x1="-228.550" y1="-116.112" x2="-239.703" y2="-106.082" />
      <line id="50,178" x1="-238.580" y1="-127.265" x2="-249.733" y2="-117.236" />
      <line id="51,177" x1="-248.609" y1="-138.419" x2="-259.763" y2="-128.389" />
      <line id="54,61" x1="-257.474" y1="-213.930" x2="-271.462" y2="-208.515" />
      <line id="55,60" x1="-262.890" y1="-227.919" x2="-276.878" y2="-222.503" />
      <line id="68,159" x1="-297.049" y1="-192.852" x2="-308.235" y2="-182.858" />
      <line id="69,158" x1="-307.043" y1="-204.038" x2="-318.228" y2="-194.044" />
      <line id="70,157" x1="-317.037" y1="-215.223" x2="-328.222" y2="-205.230" />
      <line id="78,103" x1="-332.570" y1="-297.096" x2="-345.105" y2="-288.858" />
      <line id="79,102" x1="-340.808" y1="-309.631" x2="-353.343" y2="-301.393" />
      <line id="82,99" x1="-360.944" y1="-340.270" x2="-373.479" y2="-332.032" />
      <line id="85,96" x1="-381.079" y1="-370.909" x2="-393.615" y2="-362.671" />
      <line id="86,95" x1="-389.318" y1="-383.444" x2="-401.853" y2="-375.206" />
      <line id="108,138" x1="-368.322" y1="-269.859" x2="-378.878" y2="-259.201" />
      <line id="109,137" x1="-378.980" y1="-280.414" x2="-389.535" y2="-269.757" />
      <line id="110,136" x1="-389.637" y1="-290.970" x2="-400.193" y2="-280.312" />
      <line id="111,134" x1="-400.278" y1="-301.542" x2="-410.868" y2="-290.918" />
      <line id="112,133" x1="-410.902" y1="-312.132" x2="-421.491" y2="-301.508" />
      <line id="142,153" x1="-398.247" y1="-236.292" x2="-407.001" y2="-224.112" />
      <line id="145,151" x1="-423.177" y1="-254.153" x2="-431.892" y2="-241.944" />
      <line id="146,150" x1="-435.385" y1="-262.868" x2="-444.100" y2="-250.659" />
      <line id="163,170" x1="-326.896" y1="-159.369" x2="-334.102" y2="-146.213" />
      <line id="164,169" x1="-340.052" y1="-166.575" x2="-347.258" y2="-153.419" />
      <line id="191,216" x1="-225.448" y1="-47.004" x2="-229.354" y2="-32.522" />
      <line id="192,215" x1="-239.931" y1="-50.910" x2="-243.837" y2="-36.427" />
      <line id="193,214" x1="-254.414" y1="-54.815" x2="-258.319" y2="-40.333" />
      <line id="194,213" x1="-268.896" y1="-58.721" x2="-272.802" y2="-44.238" />
      <line id="198,211" x1="-301.188" y1="-67.323" x2="-305.000" y2="-52.816" />
      <line id="199,210" x1="-315.695" y1="-71.136" x2="-319.508" y2="-56.628" />
      <line id="200,209" x1="-330.203" y1="-74.948" x2="-334.015" y2="-60.441" />
      <line id="201,208" x1="-344.710" y1="-78.761" x2="-348.522" y2="-64.253" />
      <line id="202,207" x1="-359.217" y1="-82.573" x2="-363.030" y2="-68.066" />
      <line id="233,278" x1="-115.689" y1="72.224" x2="-114.630" y2="87.186" />
      <line id="234,277" x1="-130.652" y1="73.283" x2="-129.593" y2="88.245" />
      <line id="235,276" x1="-145.615" y1="74.342" x2="-144.555" y2="89.305" />
      <line id="236,275" x1="-160.577" y1="75.401" x2="-159.518" y2="90.364" />
      <line id="237,274" x1="-175.540" y1="76.460" x2="-174.480" y2="91.423" />
      <line id="238,259" x1="-190.522" y1="77.183" x2="-190.137" y2="92.178" />
      <line id="239,258" x1="-205.517" y1="77.568" x2="-205.132" y2="92.563" />
      <line id="240,257" x1="-220.512" y1="77.954" x2="-220.127" y2="92.949" />
      <line id="295,506" x1="45.570" y1="258.257" x2="58.210" y2="266.334" />
      <line id="296,505" x1="37.493" y1="270.897" x2="50.133" y2="278.974" />
      <line id="297,504" x1="29.417" y1="283.537" x2="42.057" y2="291.614" />
      <line id="298,503" x1="21.341" y1="296.177" x2="33.981" y2="304.254" />
      <line id="305,421" x1="-25.715" y1="294.430" x2="-15.367" y2="305.289" />
      <line id="306,420" x1="-36.574" y1="304.778" x2="-26.226" y2="315.637" />
      <line id="307,419" x1="-47.433" y1="315.126" x2="-37.085" y2="325.985" />
      <line id="308,418" x1="-58.292" y1="325.474" x2="-47.944" y2="336.333" />
      <line id="309,417" x1="-69.151" y1="335.822" x2="-58.803" y2="346.681" />
      <line id="313,412" x1="-106.034" y1="370.859" x2="-95.721" y2="381.752" />
      <line id="328,398" x1="-212.979" y1="472.444" x2="-202.631" y2="483.303" />
      <line id="329,397" x1="-223.838" y1="482.792" x2="-213.490" y2="493.651" />
      <line id="331,395" x1="-243.043" y1="501.093" x2="-232.695" y2="511.952" />
      <line id="332,394" x1="-253.902" y1="511.441" x2="-243.554" y2="522.300" />
      <line id="333,393" x1="-264.761" y1="521.789" x2="-254.413" y2="532.648" />
      <line id="334,392" x1="-275.620" y1="532.137" x2="-265.272" y2="542.996" />
      <line id="335,391" x1="-286.479" y1="542.485" x2="-276.131" y2="553.344" />
      <line id="339,371" x1="-329.649" y1="553.998" x2="-319.873" y2="565.374" />
      <line id="340,370" x1="-341.026" y1="563.774" x2="-331.249" y2="575.150" />
      <line id="341,369" x1="-352.402" y1="573.551" x2="-342.626" y2="584.927" />
      <line id="342,368" x1="-363.778" y1="583.327" x2="-354.002" y2="594.703" />
      <line id="343,367" x1="-375.155" y1="593.104" x2="-365.378" y2="604.480" />
      <line id="345,365" x1="-395.274" y1="610.393" x2="-385.497" y2="621.770" />
      <line id="349,360" x1="-433.908" y1="643.489" x2="-424.168" y2="654.897" />
      <line id="350,359" x1="-445.316" y1="653.229" x2="-435.576" y2="664.637" />
      <line id="351,358" x1="-456.723" y1="662.969" x2="-446.983" y2="674.377" />
      <line id="384,389" x1="-298.122" y1="586.035" x2="-286.258" y2="595.214" />
      <line id="426,467" x1="10.345" y1="320.746" x2="24.789" y2="324.791" />
      <line id="427,466" x1=" 6.300" y1="335.190" x2="20.744" y2="339.235" />
      <line id="428,465" x1=" 2.255" y1="349.635" x2="16.700" y2="353.680" />
      <line id="429,464" x1="-1.790" y1="364.079" x2="12.655" y2="368.124" />
      <line id="430,463" x1="-5.835" y1="378.523" x2=" 8.610" y2="382.568" />
      <line id="431,462" x1="-9.880" y1="392.968" x2=" 4.565" y2="397.013" />
      <line id="435,461" x1="-13.893" y1="407.571" x2=" 0.589" y2="411.476" />
      <line id="436,460" x1="-17.799" y1="422.053" x2="-3.316" y2="425.959" />
      <line id="440,456" x1="-29.916" y1="466.986" x2="-15.433" y2="470.891" />
      <line id="441,455" x1="-33.821" y1="481.469" x2="-19.339" y2="485.374" />
      <line id="442,454" x1="-37.727" y1="495.951" x2="-23.244" y2="499.857" />
      <line id="443,453" x1="-41.632" y1="510.434" x2="-27.150" y2="514.339" />
      <line id="508,537" x1="111.756" y1="275.893" x2="126.410" y2="272.690" />
      <line id="509,536" x1="114.959" y1="290.547" x2="129.613" y2="287.344" />
      <line id="510,535" x1="118.163" y1="305.201" x2="132.816" y2="301.998" />
      <line id="517,530" x1="132.130" y1="368.139" x2="146.763" y2="364.842" />
      <line id="518,529" x1="135.428" y1="382.772" x2="150.061" y2="379.475" />
      <line id="519,528" x1="138.725" y1="397.405" x2="153.358" y2="394.108" />
      <line id="520,527" x1="142.023" y1="412.038" x2="156.656" y2="408.741" />
      <line id="546,860" x1="186.183" y1="211.753" x2="189.103" y2="197.040" />
      <line id="547,859" x1="200.896" y1="214.674" x2="203.816" y2="199.961" />
      <line id="548,857" x1="215.604" y1="217.618" x2="218.572" y2="202.914" />
      <line id="549,856" x1="230.308" y1="220.586" x2="233.275" y2="205.882" />
      <line id="551,855" x1="245.063" y1="223.539" x2="247.984" y2="208.826" />
      <line id="552,854" x1="259.776" y1="226.460" x2="262.697" y2="211.747" />
      <line id="553,853" x1="274.489" y1="229.380" x2="277.409" y2="214.667" />
      <line id="554,852" x1="289.202" y1="232.300" x2="292.122" y2="217.587" />
      <line id="555,851" x1="303.915" y1="235.221" x2="306.835" y2="220.508" />
      <line id="556,850" x1="318.628" y1="238.141" x2="321.548" y2="223.428" />
      <line id="557,849" x1="333.341" y1="241.062" x2="336.261" y2="226.349" />
      <line id="558,848" x1="348.054" y1="243.982" x2="350.974" y2="229.269" />
      <line id="566,808" x1="463.269" y1="273.051" x2="467.683" y2="258.715" />
      <line id="567,807" x1="477.604" y1="277.466" x2="482.019" y2="263.130" />
      <line id="568,806" x1="491.940" y1="281.880" x2="496.355" y2="267.545" />
      <line id="569,805" x1="506.275" y1="286.295" x2="510.690" y2="271.959" />
      <line id="570,804" x1="520.611" y1="290.710" x2="525.026" y2="276.374" />
      <line id="573,743" x1="548.984" y1="377.243" x2="555.978" y2="363.973" />
      <line id="574,742" x1="562.254" y1="384.237" x2="569.247" y2="370.967" />
      <line id="575,741" x1="575.523" y1="391.230" x2="582.517" y2="377.961" />
      <line id="576,740" x1="588.793" y1="398.224" x2="595.787" y2="384.954" />
      <line id="577,739" x1="602.063" y1="405.218" x2="609.057" y2="391.948" />
      <line id="578,738" x1="615.333" y1="412.212" x2="622.327" y2="398.942" />
      <line id="579,737" x1="628.602" y1="419.206" x2="635.596" y2="405.936" />
      <line id="580,736" x1="641.872" y1="426.199" x2="648.866" y2="412.930" />
      <line id="581,734" x1="655.131" y1="433.215" x2="662.167" y2="419.967" />
      <line id="582,733" x1="668.378" y1="440.251" x2="675.414" y2="427.004" />
      <line id="586,601" x1="686.996" y1="478.287" x2="698.741" y2="468.957" />
      <line id="587,600" x1="696.327" y1="490.032" x2="708.071" y2="480.701" />
      <line id="588,599" x1="705.658" y1="501.777" x2="717.402" y2="492.446" />
      <line id="589,598" x1="714.988" y1="513.521" x2="726.733" y2="504.190" />
      <line id="610,731" x1="716.946" y1="445.112" x2="722.853" y2="431.324" />
      <line id="611,730" x1="730.734" y1="451.019" x2="736.641" y2="437.231" />
      <line id="613,728" x1="755.118" y1="461.465" x2="761.025" y2="447.677" />
      <line id="614,727" x1="768.906" y1="467.372" x2="774.813" y2="453.584" />
      <line id="615,726" x1="782.694" y1="473.278" x2="788.601" y2="459.490" />
      <line id="616,725" x1="796.482" y1="479.185" x2="802.389" y2="465.397" />
      <line id="628,720" x1="867.419" y1="508.644" x2="873.014" y2="494.726" />
      <line id="629,719" x1="881.336" y1="514.239" x2="886.931" y2="500.322" />
      <line id="631,718" x1="895.307" y1="519.830" x2="900.858" y2="505.894" />
      <line id="632,717" x1="909.242" y1="525.380" x2="914.793" y2="511.445" />
      <line id="635,716" x1="923.285" y1="530.921" x2="928.746" y2="516.951" />
      <line id="636,715" x1="937.256" y1="536.382" x2="942.717" y2="522.412" />
      <line id="637,714" x1="951.226" y1="541.843" x2="956.687" y2="527.872" />
      <line id="638,713" x1="965.197" y1="547.304" x2="970.658" y2="533.333" />
      <line id="639,709" x1="979.141" y1="552.832" x2="984.736" y2="538.915" />
      <line id="640,708" x1="993.059" y1="558.427" x2="998.654" y2="544.510" />
      <line id="641,707" x1="1006.976" y1="564.023" x2="1012.571" y2="550.105" />
      <line id="642,705" x1="1020.884" y1="569.640" x2="1026.524" y2="555.741" />
      <line id="643,704" x1="1034.784" y1="575.280" x2="1040.423" y2="561.381" />
      <line id="644,703" x1="1048.683" y1="580.920" x2="1054.323" y2="567.021" />
      <line id="649,679" x1="1101.759" y1="625.762" x2="1108.237" y2="612.233" />
      <line id="650,678" x1="1115.289" y1="632.239" x2="1121.766" y2="618.710" />
      <line id="651,677" x1="1128.818" y1="638.717" x2="1135.295" y2="625.187" />
      <line id="655,666" x1="1151.956" y1="674.470" x2="1158.736" y2="661.090" />
      <line id="656,665" x1="1165.336" y1="681.250" x2="1172.116" y2="667.870" />
      <line id="657,664" x1="1178.717" y1="688.030" x2="1185.496" y2="674.650" />
      <line id="668,675" x1="1171.341" y1="633.867" x2="1177.159" y2="620.041" />
      <line id="669,674" x1="1185.167" y1="639.685" x2="1190.985" y2="625.859" />
      <line id="685,697" x1="1118.798" y1="584.153" x2="1122.843" y2="569.709" />
      <line id="686,696" x1="1133.243" y1="588.198" x2="1137.288" y2="573.754" />
      <line id="687,695" x1="1147.687" y1="592.243" x2="1151.732" y2="577.799" />
      <line id="749,761" x1="561.156" y1="334.423" x2="559.090" y2="319.566" />
      <line id="750,760" x1="576.013" y1="332.358" x2="573.947" y2="317.501" />
      <line id="751,759" x1="590.870" y1="330.293" x2="588.805" y2="315.435" />
      <line id="752,758" x1="605.727" y1="328.227" x2="603.662" y2="313.370" />
      <line id="753,757" x1="620.584" y1="326.162" x2="618.519" y2="311.305" />
      <line id="774,793" x1="552.260" y1="290.354" x2="547.524" y2="276.121" />
      <line id="775,792" x1="566.493" y1="285.618" x2="561.757" y2="271.385" />
      <line id="776,791" x1="580.726" y1="280.882" x2="575.990" y2="266.649" />
      <line id="777,790" x1="594.959" y1="276.146" x2="590.223" y2="261.913" />
      <line id="778,789" x1="609.191" y1="271.410" x2="604.455" y2="257.177" />
      <line id="779,788" x1="623.424" y1="266.674" x2="618.688" y2="252.441" />
      <line id="780,787" x1="637.657" y1="261.938" x2="632.921" y2="247.705" />
      <line id="814,836" x1="462.265" y1="221.495" x2="453.947" y2="209.013" />
      <line id="815,835" x1="474.747" y1="213.176" x2="466.429" y2="200.694" />
      <line id="816,834" x1="487.229" y1="204.858" x2="478.911" y2="192.376" />
      <line id="818,832" x1="509.304" y1="190.146" x2="500.985" y2="177.664" />
      <line id="819,831" x1="521.786" y1="181.828" x2="513.467" y2="169.346" />
      <line id="820,830" x1="534.268" y1="173.509" x2="525.950" y2="161.027" />
      <line id="875,930" x1="166.018" y1="107.348" x2="152.748" y2="100.355" />
      <line id="876,929" x1="173.011" y1="94.079" x2="159.742" y2="87.085" />
      <line id="877,928" x1="180.005" y1="80.809" x2="166.735" y2="73.815" />
      <line id="879,926" x1="192.374" y1="57.341" x2="179.104" y2="50.347" />
      <line id="880,925" x1="199.367" y1="44.072" x2="186.098" y2="37.078" />
      <line id="947,970" x1="124.134" y1="91.341" x2="109.251" y2="89.467" />
      <line id="948,969" x1="126.008" y1="76.459" x2="111.126" y2="74.584" />
      <line id="949,968" x1="127.882" y1="61.576" x2="113.000" y2="59.702" />
      <line id="950,967" x1="129.757" y1="46.694" x2="114.874" y2="44.819" />
      <line id="951,966" x1="131.631" y1="31.811" x2="116.748" y2="29.937" />
      <line id="952,965" x1="133.505" y1="16.929" x2="118.623" y2="15.055" />
      <line id="953,964" x1="135.379" y1=" 2.046" x2="120.497" y2=" 0.172" />
      <line id="954,963" x1="137.254" y1="-12.836" x2="122.371" y2="-14.710" />
      <line id="955,962" x1="139.128" y1="-27.719" x2="124.245" y2="-29.593" />
      <line id="956,961" x1="141.002" y1="-42.601" x2="126.120" y2="-44.475" />
    </g>
    <g style="font-family: SansSerif" transform="translate(-4.6, 4)" id="seq">
      <text x="87.481" y="58.933">A</text>
      <text x="87.119" y="73.929">A</text>
      <text x="86.758" y="88.925">A</text>
      <text x="79.260" y="88.744">A</text>
      <text x="78.105" y="73.789">G</text>
      <text x="88.110" y="61.850">A</text>
      <text x="86.725" y="46.699">C</text>
      <text x="75.281" y="37.235">U</text>
      <text x="86.576" y="26.420">U</text>
      <text x="88.226" y="10.870">A</text>
      <text x="79.452" y="-2.074">G</text>
      <text x="64.396" y="-6.300">U</text>
      <text x="50.168" y="0.188">C</text>
      <text x="43.485" y="14.326">C</text>
      <text x="47.504" y="29.438">U</text>
      <text x="60.326" y="38.390">A</text>
      <text x="50.471" y="49.500">A</text>
      <text x="51.430" y="64.683">C</text>
      <text x="63.149" y="74.944">C</text>
      <text x="64.305" y="89.899">U</text>
      <text x="49.178" y="102.206">U</text>
      <text x="37.307" y="116.608">A</text>
      <text x="28.918" y="132.341">C</text>
      <text x="21.500" y="118.367">C</text>
      <text x="6.610" y="117.986">G</text>
      <text x="-6.004" y="109.869">U</text>
      <text x="-18.618" y="101.752">U</text>
      <text x="-31.232" y="93.635">A</text>
      <text x="-43.846" y="85.518">G</text>
      <text x="-56.460" y="77.402">U</text>
      <text x="-69.074" y="69.285">U</text>
      <text x="-69.809" y="46.560">U</text>
      <text x="-95.751" y="32.793">U</text>
      <text x="-106.840" y="22.692">U</text>
      <text x="-117.929" y="12.591">G</text>
      <text x="-129.018" y="2.490">C</text>
      <text x="-140.107" y="-7.612">U</text>
      <text x="-151.196" y="-17.713">A</text>
      <text x="-162.269" y="-27.832">G</text>
      <text x="-157.000" y="-38.623">A</text>
      <text x="-156.197" y="-51.311">U</text>
      <text x="-160.506" y="-64.018">A</text>
      <text x="-169.779" y="-74.670">U</text>
      <text x="-183.029" y="-81.330">A</text>
      <text x="-198.518" y="-82.535">U</text>
      <text x="-208.512" y="-93.720">A</text>
      <text x="-218.506" y="-104.906">C</text>
      <text x="-221.829" y="-113.275">A</text>
      <text x="-228.550" y="-116.112">U</text>
      <text x="-238.580" y="-127.265">G</text>
      <text x="-248.609" y="-138.419">C</text>
      <text x="-233.691" y="-157.567">G</text>
      <text x="-234.670" y="-187.205">A</text>
      <text x="-257.474" y="-213.930">G</text>
      <text x="-262.890" y="-227.919">U</text>
      <text x="-259.838" y="-244.031">A</text>
      <text x="-272.441" y="-254.524">U</text>
      <text x="-287.734" y="-248.603">C</text>
      <text x="-289.985" y="-232.359">C</text>
      <text x="-276.878" y="-222.503">G</text>
      <text x="-271.462" y="-208.515">C</text>
      <text x="-277.859" y="-204.599">G</text>
      <text x="-285.690" y="-217.392">C</text>
      <text x="-293.522" y="-230.185">C</text>
      <text x="-306.315" y="-222.354">C</text>
      <text x="-298.483" y="-209.561">C</text>
      <text x="-290.652" y="-196.768">A</text>
      <text x="-297.049" y="-192.852">G</text>
      <text x="-307.043" y="-204.038">U</text>
      <text x="-317.037" y="-215.223">G</text>
      <text x="-309.656" y="-221.634">U</text>
      <text x="-303.866" y="-230.477">A</text>
      <text x="-300.424" y="-241.316">A</text>
      <text x="-299.956" y="-253.487">A</text>
      <text x="-302.892" y="-266.142">U</text>
      <text x="-309.418" y="-278.308">G</text>
      <text x="-319.440" y="-288.960">C</text>
      <text x="-332.570" y="-297.096">C</text>
      <text x="-340.808" y="-309.631">C</text>
      <text x="-337.818" y="-324.919">C</text>
      <text x="-346.351" y="-337.514">A</text>
      <text x="-360.944" y="-340.270">A</text>
      <text x="-357.954" y="-355.557">A</text>
      <text x="-366.487" y="-368.152">C</text>
      <text x="-381.079" y="-370.909">C</text>
      <text x="-389.318" y="-383.444">C</text>
      <text x="-383.710" y="-397.912">C</text>
      <text x="-387.711" y="-412.905">U</text>
      <text x="-399.781" y="-422.657">U</text>
      <text x="-415.279" y="-423.418">G</text>
      <text x="-428.246" y="-414.896">U</text>
      <text x="-433.696" y="-400.367">C</text>
      <text x="-429.534" y="-385.419">A</text>
      <text x="-417.359" y="-375.799">A</text>
      <text x="-401.853" y="-375.206">G</text>
      <text x="-393.615" y="-362.671">G</text>
      <text x="-396.874" y="-348.182">U</text>
      <text x="-388.698" y="-335.352">A</text>
      <text x="-373.479" y="-332.032">U</text>
      <text x="-376.738" y="-317.544">A</text>
      <text x="-368.562" y="-304.714">A</text>
      <text x="-353.343" y="-301.393">G</text>
      <text x="-345.105" y="-288.858">G</text>
      <text x="-350.909" y="-284.108">A</text>
      <text x="-360.409" y="-295.717">G</text>
      <text x="-372.017" y="-286.217">C</text>
      <text x="-362.518" y="-274.609">A</text>
      <text x="-368.322" y="-269.859">G</text>
      <text x="-378.980" y="-280.414">G</text>
      <text x="-389.637" y="-290.970">C</text>
      <text x="-400.278" y="-301.542">A</text>
      <text x="-410.902" y="-312.132">U</text>
      <text x="-403.671" y="-325.394">C</text>
      <text x="-400.472" y="-340.157">A</text>
      <text x="-401.563" y="-355.223">G</text>
      <text x="-406.855" y="-369.371">G</text>
      <text x="-415.921" y="-381.454">C</text>
      <text x="-428.024" y="-390.493">A</text>
      <text x="-442.183" y="-395.754">C</text>
      <text x="-457.252" y="-396.812">A</text>
      <text x="-472.007" y="-393.580">C</text>
      <text x="-485.254" y="-386.320">C</text>
      <text x="-495.918" y="-375.622">U</text>
      <text x="-503.135" y="-362.352">G</text>
      <text x="-506.320" y="-347.586">C</text>
      <text x="-505.214" y="-332.521">U</text>
      <text x="-499.907" y="-318.378">A</text>
      <text x="-490.830" y="-306.304">U</text>
      <text x="-478.718" y="-297.278">A</text>
      <text x="-464.553" y="-292.031">G</text>
      <text x="-449.483" y="-290.989">C</text>
      <text x="-434.731" y="-294.235">C</text>
      <text x="-421.491" y="-301.508">G</text>
      <text x="-410.868" y="-290.918">U</text>
      <text x="-408.379" y="-284.061">A</text>
      <text x="-400.193" y="-280.312">G</text>
      <text x="-389.535" y="-269.757">C</text>
      <text x="-378.878" y="-259.201">C</text>
      <text x="-383.720" y="-253.474">C</text>
      <text x="-398.482" y="-256.134">A</text>
      <text x="-393.405" y="-242.020">A</text>
      <text x="-398.247" y="-236.292">G</text>
      <text x="-401.062" y="-248.794">A</text>
      <text x="-411.280" y="-255.846">C</text>
      <text x="-423.177" y="-254.153">G</text>
      <text x="-435.385" y="-262.868">C</text>
      <text x="-444.764" y="-276.992">C</text>
      <text x="-460.932" y="-271.890">U</text>
      <text x="-460.505" y="-254.941">U</text>
      <text x="-444.100" y="-250.659">G</text>
      <text x="-431.892" y="-241.944">C</text>
      <text x="-425.416" y="-225.576">U</text>
      <text x="-407.001" y="-224.112">C</text>
      <text x="-389.481" y="-201.604">A</text>
      <text x="-366.123" y="-191.551">G</text>
      <text x="-343.881" y="-193.883">C</text>
      <text x="-328.222" y="-205.230">C</text>
      <text x="-318.228" y="-194.044">A</text>
      <text x="-308.235" y="-182.858">C</text>
      <text x="-312.900" y="-176.986">A</text>
      <text x="-327.736" y="-179.194">C</text>
      <text x="-322.231" y="-165.241">C</text>
      <text x="-326.896" y="-159.369">C</text>
      <text x="-340.052" y="-166.575">C</text>
      <text x="-348.102" y="-180.862">C</text>
      <text x="-364.501" y="-180.764">A</text>
      <text x="-372.379" y="-166.381">C</text>
      <text x="-363.632" y="-152.510">G</text>
      <text x="-347.258" y="-153.419">G</text>
      <text x="-334.102" y="-146.213">G</text>
      <text x="-325.589" y="-132.539">U</text>
      <text x="-314.320" y="-122.530">A</text>
      <text x="-301.591" y="-116.601">A</text>
      <text x="-288.705" y="-114.751">U</text>
      <text x="-276.845" y="-116.602">C</text>
      <text x="-266.976" y="-121.455">A</text>
      <text x="-259.763" y="-128.389">G</text>
      <text x="-249.733" y="-117.236">C</text>
      <text x="-239.703" y="-106.082">A</text>
      <text x="-229.692" y="-94.912">G</text>
      <text x="-219.698" y="-83.726">U</text>
      <text x="-209.704" y="-72.541">A</text>
      <text x="-213.640" y="-66.157">A</text>
      <text x="-226.408" y="-74.029">U</text>
      <text x="-239.176" y="-81.901">U</text>
      <text x="-251.945" y="-89.773">G</text>
      <text x="-259.816" y="-77.005">A</text>
      <text x="-247.049" y="-69.133">C</text>
      <text x="-234.280" y="-61.261">A</text>
      <text x="-221.512" y="-53.388">U</text>
      <text x="-225.448" y="-47.004">U</text>
      <text x="-239.931" y="-50.910">A</text>
      <text x="-254.414" y="-54.815">A</text>
      <text x="-268.896" y="-58.721">G</text>
      <text x="-273.683" y="-68.309">C</text>
      <text x="-282.732" y="-73.631">A</text>
      <text x="-293.002" y="-73.175">A</text>
      <text x="-301.188" y="-67.323">U</text>
      <text x="-315.695" y="-71.136">G</text>
      <text x="-330.203" y="-74.948">A</text>
      <text x="-344.710" y="-78.761">G</text>
      <text x="-359.217" y="-82.573">U</text>
      <text x="-370.482" y="-94.491">G</text>
      <text x="-386.371" y="-90.432">U</text>
      <text x="-390.539" y="-74.572">A</text>
      <text x="-378.698" y="-63.225">A</text>
      <text x="-363.030" y="-68.066">A</text>
      <text x="-348.522" y="-64.253">C</text>
      <text x="-334.015" y="-60.441">U</text>
      <text x="-319.508" y="-56.628">U</text>
      <text x="-305.000" y="-52.816">G</text>
      <text x="-292.144" y="-38.277">A</text>
      <text x="-272.802" y="-44.238">C</text>
      <text x="-258.319" y="-40.333">U</text>
      <text x="-243.837" y="-36.427">U</text>
      <text x="-229.354" y="-32.522">A</text>
      <text x="-213.258" y="-13.208">G</text>
      <text x="-191.006" y="-8.164">C</text>
      <text x="-172.406" y="-16.776">C</text>
      <text x="-169.633" y="-10.028">A</text>
      <text x="-161.297" y="-6.624">U</text>
      <text x="-150.208" y="3.477">A</text>
      <text x="-139.119" y="13.579">G</text>
      <text x="-128.030" y="23.680">C</text>
      <text x="-116.941" y="33.781">A</text>
      <text x="-105.853" y="43.882">A</text>
      <text x="-108.312" y="50.968">C</text>
      <text x="-122.482" y="46.049">A</text>
      <text x="-136.653" y="41.131">C</text>
      <text x="-141.571" y="55.302">C</text>
      <text x="-127.401" y="60.220">C</text>
      <text x="-113.230" y="65.138">A</text>
      <text x="-115.689" y="72.224">G</text>
      <text x="-130.652" y="73.283">G</text>
      <text x="-145.615" y="74.342">G</text>
      <text x="-160.577" y="75.401">U</text>
      <text x="-175.540" y="76.460">U</text>
      <text x="-190.522" y="77.183">G</text>
      <text x="-205.517" y="77.568">G</text>
      <text x="-220.512" y="77.954">U</text>
      <text x="-226.038" y="63.838">C</text>
      <text x="-236.060" y="52.466">A</text>
      <text x="-249.369" y="45.210">A</text>
      <text x="-264.358" y="42.947">U</text>
      <text x="-279.216" y="45.950">C</text>
      <text x="-292.149" y="53.856">U</text>
      <text x="-301.596" y="65.711">U</text>
      <text x="-306.416" y="80.083">G</text>
      <text x="-306.026" y="95.236">U</text>
      <text x="-300.475" y="109.341">G</text>
      <text x="-290.431" y="120.695">C</text>
      <text x="-277.109" y="127.926">C</text>
      <text x="-262.116" y="130.161">A</text>
      <text x="-247.264" y="127.131">G</text>
      <text x="-234.345" y="119.201">C</text>
      <text x="-224.920" y="107.329">C</text>
      <text x="-220.127" y="92.949">A</text>
      <text x="-205.132" y="92.563">C</text>
      <text x="-190.137" y="92.178">C</text>
      <text x="-203.652" y="98.685">G</text>
      <text x="-213.661" y="109.857">C</text>
      <text x="-218.648" y="124.004">G</text>
      <text x="-217.859" y="138.983">G</text>
      <text x="-211.413" y="152.527">U</text>
      <text x="-200.286" y="162.586">C</text>
      <text x="-186.162" y="167.637">A</text>
      <text x="-171.179" y="166.915">C</text>
      <text x="-157.606" y="160.529">A</text>
      <text x="-147.497" y="149.447">C</text>
      <text x="-142.383" y="135.346">A</text>
      <text x="-143.038" y="120.360">A</text>
      <text x="-149.363" y="106.759">G</text>
      <text x="-160.400" y="96.600">A</text>
      <text x="-174.480" y="91.423">A</text>
      <text x="-159.518" y="90.364">A</text>
      <text x="-144.555" y="89.305">C</text>
      <text x="-129.593" y="88.245">C</text>
      <text x="-114.630" y="87.186">C</text>
      <text x="-92.066" y="92.292">G</text>
      <text x="-77.191" y="81.899">A</text>
      <text x="-64.577" y="90.016">A</text>
      <text x="-51.963" y="98.133">C</text>
      <text x="-39.349" y="106.250">U</text>
      <text x="-26.735" y="114.367">A</text>
      <text x="-14.121" y="122.484">A</text>
      <text x="-1.507" y="130.600">C</text>
      <text x="5.009" y="143.994">C</text>
      <text x="20.801" y="144.955">G</text>
      <text x="14.003" y="161.608">C</text>
      <text x="10.665" y="179.282">A</text>
      <text x="10.922" y="197.267">G</text>
      <text x="14.764" y="214.839">A</text>
      <text x="22.035" y="231.291">A</text>
      <text x="32.443" y="245.960">C</text>
      <text x="45.570" y="258.257">G</text>
      <text x="37.493" y="270.897">G</text>
      <text x="29.417" y="283.537">C</text>
      <text x="21.341" y="296.177">G</text>
      <text x="17.553" y="291.858">U</text>
      <text x="12.321" y="288.359">A</text>
      <text x="5.843" y="286.063">A</text>
      <text x="-1.594" y="285.303">A</text>
      <text x="-9.625" y="286.342">G</text>
      <text x="-17.822" y="289.358">A</text>
      <text x="-25.715" y="294.430">G</text>
      <text x="-36.574" y="304.778">U</text>
      <text x="-47.433" y="315.126">G</text>
      <text x="-58.292" y="325.474">G</text>
      <text x="-69.151" y="335.822">C</text>
      <text x="-85.810" y="332.563">C</text>
      <text x="-100.958" y="339.846">C</text>
      <text x="-108.661" y="354.596">C</text>
      <text x="-106.034" y="370.859">A</text>
      <text x="-117.944" y="362.503">U</text>
      <text x="-131.250" y="356.630">G</text>
      <text x="-145.440" y="353.464">U</text>
      <text x="-159.970" y="353.124">U</text>
      <text x="-174.283" y="355.622">A</text>
      <text x="-187.830" y="360.859">U</text>
      <text x="-200.093" y="368.634">C</text>
      <text x="-210.602" y="378.645">A</text>
      <text x="-218.955" y="390.509">C</text>
      <text x="-224.834" y="403.768">A</text>
      <text x="-228.016" y="417.915">C</text>
      <text x="-228.379" y="432.405">C</text>
      <text x="-225.912" y="446.683">A</text>
      <text x="-220.712" y="460.202">A</text>
      <text x="-212.979" y="472.444">C</text>
      <text x="-223.838" y="482.792">U</text>
      <text x="-239.167" y="486.711">C</text>
      <text x="-243.043" y="501.093">A</text>
      <text x="-253.902" y="511.441">G</text>
      <text x="-264.761" y="521.789">A</text>
      <text x="-275.620" y="532.137">U</text>
      <text x="-286.479" y="542.485">C</text>
      <text x="-295.445" y="536.864">A</text>
      <text x="-307.600" y="536.125">A</text>
      <text x="-320.153" y="541.842">A</text>
      <text x="-329.649" y="553.998">G</text>
      <text x="-341.026" y="563.774">U</text>
      <text x="-352.402" y="573.551">A</text>
      <text x="-363.778" y="583.327">C</text>
      <text x="-375.155" y="593.104">A</text>
      <text x="-390.664" y="596.230">G</text>
      <text x="-395.274" y="610.393">C</text>
      <text x="-411.743" y="606.282">C</text>
      <text x="-427.245" y="612.777">A</text>
      <text x="-435.696" y="627.113">A</text>
      <text x="-433.908" y="643.489">G</text>
      <text x="-445.316" y="653.229">C</text>
      <text x="-456.723" y="662.969">U</text>
      <text x="-472.457" y="661.477">G</text>
      <text x="-484.584" y="671.611">U</text>
      <text x="-485.910" y="687.360">C</text>
      <text x="-475.648" y="699.379">A</text>
      <text x="-459.886" y="700.538">U</text>
      <text x="-447.976" y="690.150">A</text>
      <text x="-446.983" y="674.377">A</text>
      <text x="-435.576" y="664.637">G</text>
      <text x="-424.168" y="654.897">C</text>
      <text x="-411.604" y="659.198">C</text>
      <text x="-398.443" y="656.740">C</text>
      <text x="-388.113" y="648.056">A</text>
      <text x="-383.353" y="635.312">A</text>
      <text x="-385.497" y="621.770">G</text>
      <text x="-370.802" y="619.343">A</text>
      <text x="-365.378" y="604.480">U</text>
      <text x="-354.002" y="594.703">G</text>
      <text x="-342.626" y="584.927">U</text>
      <text x="-331.249" y="575.150">A</text>
      <text x="-319.873" y="565.374">U</text>
      <text x="-314.435" y="570.539">C</text>
      <text x="-324.766" y="581.415">U</text>
      <text x="-335.096" y="592.291">A</text>
      <text x="-345.427" y="603.166">A</text>
      <text x="-355.757" y="614.042">A</text>
      <text x="-366.088" y="624.918">G</text>
      <text x="-355.212" y="635.248">C</text>
      <text x="-344.882" y="624.372">C</text>
      <text x="-334.551" y="613.497">A</text>
      <text x="-324.221" y="602.621">C</text>
      <text x="-313.890" y="591.745">C</text>
      <text x="-303.559" y="580.870">C</text>
      <text x="-298.122" y="586.035">U</text>
      <text x="-313.494" y="591.746">A</text>
      <text x="-315.968" y="607.957">A</text>
      <text x="-302.998" y="617.993">A</text>
      <text x="-287.927" y="611.528">U</text>
      <text x="-286.258" y="595.214">A</text>
      <text x="-270.138" y="573.527">U</text>
      <text x="-276.131" y="553.344">G</text>
      <text x="-265.272" y="542.996">A</text>
      <text x="-254.413" y="532.648">U</text>
      <text x="-243.554" y="522.300">C</text>
      <text x="-232.695" y="511.952">U</text>
      <text x="-218.143" y="508.773">C</text>
      <text x="-213.490" y="493.651">A</text>
      <text x="-202.631" y="483.303">G</text>
      <text x="-189.900" y="492.103">C</text>
      <text x="-175.610" y="498.062">C</text>
      <text x="-160.387" y="500.916">U</text>
      <text x="-144.898" y="500.540">C</text>
      <text x="-129.821" y="496.946">A</text>
      <text x="-115.817" y="490.290">U</text>
      <text x="-103.501" y="480.861">G</text>
      <text x="-93.413" y="469.071">A</text>
      <text x="-85.999" y="455.435">U</text>
      <text x="-81.583" y="440.548">U</text>
      <text x="-80.362" y="425.063">A</text>
      <text x="-82.393" y="409.657">A</text>
      <text x="-87.587" y="395.005">U</text>
      <text x="-95.721" y="381.752">U</text>
      <text x="-82.952" y="385.401">A</text>
      <text x="-69.935" y="382.271">A</text>
      <text x="-60.064" y="373.068">C</text>
      <text x="-55.966" y="360.096">C</text>
      <text x="-58.803" y="346.681">G</text>
      <text x="-47.944" y="336.333">C</text>
      <text x="-37.085" y="325.985">C</text>
      <text x="-26.226" y="315.637">A</text>
      <text x="-15.367" y="305.289">C</text>
      <text x="-8.939" y="309.154">G</text>
      <text x="-16.667" y="322.010">A</text>
      <text x="-3.811" y="329.737">A</text>
      <text x="3.917" y="316.882">A</text>
      <text x="10.345" y="320.746">G</text>
      <text x="6.300" y="335.190">C</text>
      <text x="2.255" y="349.635">U</text>
      <text x="-1.790" y="364.079">A</text>
      <text x="-5.835" y="378.523">G</text>
      <text x="-9.880" y="392.968">G</text>
      <text x="-13.426" y="396.450">A</text>
      <text x="-15.188" y="400.522">C</text>
      <text x="-15.230" y="404.437">A</text>
      <text x="-13.893" y="407.571">C</text>
      <text x="-17.799" y="422.053">A</text>
      <text x="-32.142" y="427.673">A</text>
      <text x="-40.330" y="440.511">A</text>
      <text x="-39.399" y="455.531">C</text>
      <text x="-29.916" y="466.986">U</text>
      <text x="-33.821" y="481.469">G</text>
      <text x="-37.727" y="495.951">G</text>
      <text x="-41.632" y="510.434">G</text>
      <text x="-56.366" y="515.010">A</text>
      <text x="-66.269" y="526.839">U</text>
      <text x="-68.181" y="542.147">U</text>
      <text x="-61.494" y="556.050">A</text>
      <text x="-48.339" y="564.110">G</text>
      <text x="-32.916" y="563.756">A</text>
      <text x="-20.145" y="555.101">U</text>
      <text x="-14.102" y="540.907">A</text>
      <text x="-16.715" y="525.702">C</text>
      <text x="-27.150" y="514.339">C</text>
      <text x="-23.244" y="499.857">C</text>
      <text x="-19.339" y="485.374">C</text>
      <text x="-15.433" y="470.891">A</text>
      <text x="-1.477" y="465.758">C</text>
      <text x="6.879" y="453.242">U</text>
      <text x="6.257" y="438.028">A</text>
      <text x="-3.316" y="425.959">U</text>
      <text x="0.589" y="411.476">G</text>
      <text x="4.565" y="397.013">C</text>
      <text x="8.610" y="382.568">C</text>
      <text x="12.655" y="368.124">U</text>
      <text x="16.700" y="353.680">A</text>
      <text x="20.744" y="339.235">G</text>
      <text x="24.789" y="324.791">C</text>
      <text x="21.645" y="339.458">C</text>
      <text x="20.990" y="354.443">U</text>
      <text x="22.844" y="369.328">U</text>
      <text x="27.154" y="383.696">A</text>
      <text x="33.799" y="397.144">A</text>
      <text x="42.594" y="409.295">A</text>
      <text x="53.292" y="419.809">U</text>
      <text x="65.594" y="428.392">C</text>
      <text x="79.154" y="434.804">C</text>
      <text x="93.594" y="438.864">U</text>
      <text x="108.509" y="440.460">G</text>
      <text x="123.481" y="439.546">A</text>
      <text x="138.091" y="436.148">U</text>
      <text x="151.930" y="430.362">A</text>
      <text x="164.610" y="422.348">C</text>
      <text x="175.777" y="412.332">U</text>
      <text x="185.116" y="400.595">U</text>
      <text x="192.368" y="387.464">C</text>
      <text x="197.328" y="373.308">C</text>
      <text x="199.859" y="358.523">C</text>
      <text x="199.888" y="343.523">C</text>
      <text x="197.416" y="328.728">C</text>
      <text x="192.511" y="314.553">A</text>
      <text x="185.311" y="301.394">C</text>
      <text x="176.017" y="289.620">A</text>
      <text x="164.890" y="279.561">U</text>
      <text x="152.241" y="271.498">U</text>
      <text x="138.425" y="265.657">A</text>
      <text x="123.828" y="262.202">A</text>
      <text x="108.860" y="261.230">A</text>
      <text x="93.939" y="262.767">G</text>
      <text x="79.483" y="266.771">U</text>
      <text x="65.898" y="273.129">A</text>
      <text x="53.562" y="281.664">U</text>
      <text x="42.823" y="292.137">C</text>
      <text x="33.981" y="304.254">C</text>
      <text x="42.057" y="291.614">G</text>
      <text x="50.133" y="278.974">C</text>
      <text x="58.210" y="266.334">C</text>
      <text x="84.240" y="275.272">C</text>
      <text x="111.756" y="275.893">G</text>
      <text x="114.959" y="290.547">A</text>
      <text x="118.163" y="305.201">G</text>
      <text x="107.937" y="312.855">A</text>
      <text x="101.351" y="323.745">A</text>
      <text x="99.338" y="336.265">C</text>
      <text x="102.155" y="348.580">U</text>
      <text x="109.358" y="358.903">A</text>
      <text x="119.867" y="365.745">C</text>
      <text x="132.130" y="368.139">G</text>
      <text x="135.428" y="382.772">A</text>
      <text x="138.725" y="397.405">G</text>
      <text x="142.023" y="412.038">C</text>
      <text x="133.367" y="425.261">A</text>
      <text x="136.678" y="440.715">C</text>
      <text x="149.992" y="449.231">A</text>
      <text x="165.410" y="445.756">A</text>
      <text x="173.784" y="432.353">A</text>
      <text x="170.147" y="416.973">C</text>
      <text x="156.656" y="408.741">G</text>
      <text x="153.358" y="394.108">C</text>
      <text x="150.061" y="379.475">U</text>
      <text x="146.763" y="364.842">U</text>
      <text x="159.879" y="353.529">A</text>
      <text x="165.414" y="337.021">A</text>
      <text x="161.730" y="319.913">A</text>
      <text x="149.771" y="307.013">A</text>
      <text x="132.816" y="301.998">C</text>
      <text x="129.613" y="287.344">U</text>
      <text x="126.410" y="272.690">C</text>
      <text x="135.676" y="269.264">U</text>
      <text x="144.510" y="264.840">A</text>
      <text x="152.804" y="259.471">A</text>
      <text x="160.456" y="253.222">G</text>
      <text x="167.374" y="246.169">G</text>
      <text x="173.475" y="238.397">A</text>
      <text x="178.683" y="230.002">C</text>
      <text x="182.937" y="221.085">U</text>
      <text x="186.183" y="211.753">U</text>
      <text x="200.896" y="214.674">G</text>
      <text x="215.604" y="217.618">G</text>
      <text x="230.308" y="220.586">C</text>
      <text x="237.982" y="225.294">G</text>
      <text x="245.063" y="223.539">G</text>
      <text x="259.776" y="226.460">U</text>
      <text x="274.489" y="229.380">G</text>
      <text x="289.202" y="232.300">C</text>
      <text x="303.915" y="235.221">C</text>
      <text x="318.628" y="238.141">C</text>
      <text x="333.341" y="241.062">C</text>
      <text x="348.054" y="243.982">A</text>
      <text x="350.261" y="264.872">A</text>
      <text x="359.464" y="283.733">A</text>
      <text x="374.543" y="298.300">C</text>
      <text x="393.673" y="306.830">C</text>
      <text x="414.546" y="308.309">C</text>
      <text x="434.649" y="302.573">A</text>
      <text x="451.566" y="290.325">C</text>
      <text x="463.269" y="273.051">C</text>
      <text x="477.604" y="277.466">U</text>
      <text x="491.940" y="281.880">A</text>
      <text x="506.275" y="286.295">G</text>
      <text x="520.611" y="290.710">A</text>
      <text x="505.537" y="313.664">G</text>
      <text x="513.116" y="348.728">G</text>
      <text x="548.984" y="377.243">A</text>
      <text x="562.254" y="384.237">G</text>
      <text x="575.523" y="391.230">C</text>
      <text x="588.793" y="398.224">C</text>
      <text x="602.063" y="405.218">U</text>
      <text x="615.333" y="412.212">G</text>
      <text x="628.602" y="419.206">U</text>
      <text x="641.872" y="426.199">U</text>
      <text x="655.131" y="433.215">C</text>
      <text x="668.378" y="440.251">U</text>
      <text x="665.591" y="449.761">A</text>
      <text x="667.487" y="460.887">U</text>
      <text x="674.779" y="471.264">A</text>
      <text x="686.996" y="478.287">A</text>
      <text x="696.327" y="490.032">U</text>
      <text x="705.658" y="501.777">C</text>
      <text x="714.988" y="513.521">G</text>
      <text x="710.703" y="528.435">A</text>
      <text x="716.034" y="543.007">U</text>
      <text x="728.931" y="551.636">A</text>
      <text x="744.435" y="551.001">A</text>
      <text x="756.585" y="541.349">C</text>
      <text x="760.708" y="526.390">C</text>
      <text x="755.219" y="511.876">C</text>
      <text x="742.229" y="503.388">A</text>
      <text x="726.733" y="504.190">C</text>
      <text x="717.402" y="492.446">G</text>
      <text x="708.071" y="480.701">A</text>
      <text x="698.741" y="468.957">U</text>
      <text x="703.292" y="462.995">U</text>
      <text x="715.214" y="472.098">A</text>
      <text x="727.136" y="481.201">A</text>
      <text x="739.059" y="490.303">C</text>
      <text x="748.161" y="478.381">C</text>
      <text x="736.239" y="469.279">C</text>
      <text x="724.317" y="460.176">A</text>
      <text x="712.395" y="451.073">A</text>
      <text x="716.946" y="445.112">C</text>
      <text x="730.734" y="451.019">C</text>
      <text x="740.372" y="463.565">A</text>
      <text x="755.118" y="461.465">C</text>
      <text x="768.906" y="467.372">U</text>
      <text x="782.694" y="473.278">U</text>
      <text x="796.482" y="479.185">C</text>
      <text x="795.656" y="488.242">U</text>
      <text x="796.927" y="497.234">U</text>
      <text x="800.223" y="505.681">G</text>
      <text x="805.360" y="513.135">C</text>
      <text x="812.060" y="519.203">C</text>
      <text x="819.962" y="523.565">A</text>
      <text x="828.640" y="525.995">G</text>
      <text x="837.630" y="526.368">A</text>
      <text x="846.452" y="524.671">G</text>
      <text x="854.637" y="521.002">C</text>
      <text x="861.751" y="515.561">A</text>
      <text x="867.419" y="508.644">G</text>
      <text x="881.336" y="514.239">C</text>
      <text x="888.025" y="520.266">C</text>
      <text x="895.307" y="519.830">U</text>
      <text x="909.242" y="525.380">A</text>
      <text x="913.496" y="530.172">C</text>
      <text x="918.734" y="531.927">A</text>
      <text x="923.285" y="530.921">U</text>
      <text x="937.256" y="536.382">A</text>
      <text x="951.226" y="541.843">C</text>
      <text x="965.197" y="547.304">C</text>
      <text x="979.141" y="552.832">G</text>
      <text x="993.059" y="558.427">C</text>
      <text x="1006.976" y="564.023">C</text>
      <text x="1020.884" y="569.640">G</text>
      <text x="1034.784" y="575.280">U</text>
      <text x="1048.683" y="580.920">C</text>
      <text x="1047.487" y="596.104">G</text>
      <text x="1053.322" y="611.178">C</text>
      <text x="1065.781" y="622.890">C</text>
      <text x="1082.966" y="628.361">A</text>
      <text x="1101.759" y="625.762">G</text>
      <text x="1115.289" y="632.239">U</text>
      <text x="1128.818" y="638.717">U</text>
      <text x="1126.593" y="648.386">C</text>
      <text x="1129.553" y="659.472">A</text>
      <text x="1138.304" y="669.156">C</text>
      <text x="1151.956" y="674.470">C</text>
      <text x="1165.336" y="681.250">U</text>
      <text x="1178.717" y="688.030">U</text>
      <text x="1183.395" y="703.126">U</text>
      <text x="1197.417" y="710.418">U</text>
      <text x="1212.463" y="705.580">C</text>
      <text x="1219.606" y="691.482">U</text>
      <text x="1214.609" y="676.488">G</text>
      <text x="1200.436" y="669.495">A</text>
      <text x="1185.496" y="674.650">A</text>
      <text x="1172.116" y="667.870">G</text>
      <text x="1158.736" y="661.090">G</text>
      <text x="1161.887" y="654.284">A</text>
      <text x="1171.341" y="633.867">A</text>
      <text x="1185.167" y="639.685">C</text>
      <text x="1194.641" y="653.071">A</text>
      <text x="1210.943" y="651.291">A</text>
      <text x="1217.303" y="636.176">C</text>
      <text x="1207.179" y="623.275">A</text>
      <text x="1190.985" y="625.859">G</text>
      <text x="1177.159" y="620.041">U</text>
      <text x="1151.577" y="612.700">G</text>
      <text x="1135.295" y="625.187">A</text>
      <text x="1121.766" y="618.710">A</text>
      <text x="1108.237" y="612.233">C</text>
      <text x="1110.877" y="605.213">A</text>
      <text x="1124.917" y="610.494">C</text>
      <text x="1139.716" y="608.047">A</text>
      <text x="1130.198" y="596.454">A</text>
      <text x="1116.158" y="591.173">U</text>
      <text x="1118.798" y="584.153">A</text>
      <text x="1133.243" y="588.198">G</text>
      <text x="1147.687" y="592.243">C</text>
      <text x="1153.971" y="606.563">C</text>
      <text x="1168.012" y="613.447">C</text>
      <text x="1183.180" y="609.645">U</text>
      <text x="1192.314" y="596.952">A</text>
      <text x="1191.100" y="581.361">C</text>
      <text x="1180.113" y="570.235">C</text>
      <text x="1164.539" y="568.825">C</text>
      <text x="1151.732" y="577.799">G</text>
      <text x="1137.288" y="573.754">C</text>
      <text x="1122.843" y="569.709">U</text>
      <text x="1113.116" y="557.574">A</text>
      <text x="1100.264" y="550.005">G</text>
      <text x="1086.189" y="547.604">U</text>
      <text x="1072.804" y="550.245">A</text>
      <text x="1061.777" y="557.146">A</text>
      <text x="1054.323" y="567.021">G</text>
      <text x="1040.423" y="561.381">A</text>
      <text x="1026.524" y="555.741">C</text>
      <text x="1021.571" y="550.385">A</text>
      <text x="1012.571" y="550.105">G</text>
      <text x="998.654" y="544.510">G</text>
      <text x="984.736" y="538.915">U</text>
      <text x="983.038" y="535.962">C</text>
      <text x="979.886" y="533.640">A</text>
      <text x="975.573" y="532.596">A</text>
      <text x="970.658" y="533.333">G</text>
      <text x="956.687" y="527.872">G</text>
      <text x="942.717" y="522.412">U</text>
      <text x="928.746" y="516.951">A</text>
      <text x="914.793" y="511.445">U</text>
      <text x="900.858" y="505.894">A</text>
      <text x="886.931" y="500.322">G</text>
      <text x="873.014" y="494.726">C</text>
      <text x="871.354" y="473.871">U</text>
      <text x="859.050" y="456.853">U</text>
      <text x="839.623" y="448.679">A</text>
      <text x="818.700" y="451.803">U</text>
      <text x="802.389" y="465.397">G</text>
      <text x="788.601" y="459.490">A</text>
      <text x="774.813" y="453.584">A</text>
      <text x="761.025" y="447.677">G</text>
      <text x="752.373" y="435.553">C</text>
      <text x="736.641" y="437.231">G</text>
      <text x="722.853" y="431.324">G</text>
      <text x="696.568" y="415.534">A</text>
      <text x="675.414" y="427.004">A</text>
      <text x="662.167" y="419.967">G</text>
      <text x="657.790" y="414.132">A</text>
      <text x="648.866" y="412.930">A</text>
      <text x="635.596" y="405.936">A</text>
      <text x="622.327" y="398.942">U</text>
      <text x="609.057" y="391.948">G</text>
      <text x="595.787" y="384.954">G</text>
      <text x="582.517" y="377.961">G</text>
      <text x="569.247" y="370.967">C</text>
      <text x="555.978" y="363.973">U</text>
      <text x="557.272" y="356.586">A</text>
      <text x="572.047" y="359.174">C</text>
      <text x="586.137" y="354.029">A</text>
      <text x="574.636" y="344.400">U</text>
      <text x="559.861" y="341.811">U</text>
      <text x="561.156" y="334.423">U</text>
      <text x="576.013" y="332.358">U</text>
      <text x="590.870" y="330.293">C</text>
      <text x="605.727" y="328.227">U</text>
      <text x="620.584" y="326.162">A</text>
      <text x="637.105" y="329.970">C</text>
      <text x="645.337" y="315.149">G</text>
      <text x="633.375" y="303.135">A</text>
      <text x="618.519" y="311.305">U</text>
      <text x="603.662" y="313.370">A</text>
      <text x="588.805" y="315.435">G</text>
      <text x="573.947" y="317.501">A</text>
      <text x="559.090" y="319.566">A</text>
      <text x="557.383" y="312.263">A</text>
      <text x="571.989" y="308.848">A</text>
      <text x="586.595" y="305.433">C</text>
      <text x="601.201" y="302.018">C</text>
      <text x="615.807" y="298.603">C</text>
      <text x="630.413" y="295.188">C</text>
      <text x="626.998" y="280.582">A</text>
      <text x="612.392" y="283.997">C</text>
      <text x="597.786" y="287.412">G</text>
      <text x="583.180" y="290.827">G</text>
      <text x="568.574" y="294.242">A</text>
      <text x="553.968" y="297.657">A</text>
      <text x="552.260" y="290.354">A</text>
      <text x="566.493" y="285.618">G</text>
      <text x="580.726" y="280.882">A</text>
      <text x="594.959" y="276.146">G</text>
      <text x="609.191" y="271.410">G</text>
      <text x="623.424" y="266.674">U</text>
      <text x="637.657" y="261.938">G</text>
      <text x="651.675" y="269.237">U</text>
      <text x="666.723" y="264.406">G</text>
      <text x="673.873" y="250.311">A</text>
      <text x="668.883" y="235.315">A</text>
      <text x="654.713" y="228.315">A</text>
      <text x="639.771" y="233.463">C</text>
      <text x="632.921" y="247.705">C</text>
      <text x="618.688" y="252.441">A</text>
      <text x="604.455" y="257.177">C</text>
      <text x="590.223" y="261.913">C</text>
      <text x="575.990" y="266.649">U</text>
      <text x="561.757" y="271.385">C</text>
      <text x="547.524" y="276.121">U</text>
      <text x="559.522" y="267.118">A</text>
      <text x="565.710" y="253.454">G</text>
      <text x="564.562" y="238.498">A</text>
      <text x="556.361" y="225.938">A</text>
      <text x="543.130" y="218.871">G</text>
      <text x="528.131" y="219.040">G</text>
      <text x="515.062" y="226.403">C</text>
      <text x="507.147" y="239.144">G</text>
      <text x="506.336" y="254.122">G</text>
      <text x="512.830" y="267.644">A</text>
      <text x="525.026" y="276.374">U</text>
      <text x="510.690" y="271.959">U</text>
      <text x="496.355" y="267.545">U</text>
      <text x="482.019" y="263.130">A</text>
      <text x="467.683" y="258.715">G</text>
      <text x="468.450" y="252.389">C</text>
      <text x="468.543" y="246.016">A</text>
      <text x="467.960" y="239.670">G</text>
      <text x="466.709" y="233.421">U</text>
      <text x="464.804" y="227.340">A</text>
      <text x="462.265" y="221.495">A</text>
      <text x="474.747" y="213.176">A</text>
      <text x="487.229" y="204.858">G</text>
      <text x="503.004" y="203.643">C</text>
      <text x="509.304" y="190.146">A</text>
      <text x="521.786" y="181.828">G</text>
      <text x="534.268" y="173.509">G</text>
      <text x="548.365" y="179.778">A</text>
      <text x="563.609" y="177.407">U</text>
      <text x="575.136" y="167.155">A</text>
      <text x="579.269" y="152.291">A</text>
      <text x="574.687" y="137.559">U</text>
      <text x="562.854" y="127.661">A</text>
      <text x="547.545" y="125.754">A</text>
      <text x="533.645" y="132.447">A</text>
      <text x="525.590" y="145.604">G</text>
      <text x="525.950" y="161.027">C</text>
      <text x="513.467" y="169.346">C</text>
      <text x="500.985" y="177.664">U</text>
      <text x="486.104" y="178.284">C</text>
      <text x="478.911" y="192.376">C</text>
      <text x="466.429" y="200.694">U</text>
      <text x="453.947" y="209.013">U</text>
      <text x="446.398" y="201.639">U</text>
      <text x="437.671" y="195.695">A</text>
      <text x="428.033" y="191.365">A</text>
      <text x="417.779" y="188.785">A</text>
      <text x="407.226" y="188.036">C</text>
      <text x="396.698" y="189.145">U</text>
      <text x="386.519" y="192.079">G</text>
      <text x="377.004" y="196.750">G</text>
      <text x="368.446" y="203.017">C</text>
      <text x="361.111" y="210.688">C</text>
      <text x="355.226" y="219.529">C</text>
      <text x="350.974" y="229.269">U</text>
      <text x="336.261" y="226.349">G</text>
      <text x="321.548" y="223.428">G</text>
      <text x="306.835" y="220.508">G</text>
      <text x="292.122" y="217.587">G</text>
      <text x="277.409" y="214.667">C</text>
      <text x="262.697" y="211.747">A</text>
      <text x="247.984" y="208.826">C</text>
      <text x="233.275" y="205.882">G</text>
      <text x="218.572" y="202.914">U</text>
      <text x="212.712" y="198.569">A</text>
      <text x="203.816" y="199.961">C</text>
      <text x="189.103" y="197.040">A</text>
      <text x="190.490" y="191.179">U</text>
      <text x="191.487" y="185.178">A</text>
      <text x="192.083" y="179.063">C</text>
      <text x="192.267" y="172.863">C</text>
      <text x="192.030" y="166.604">G</text>
      <text x="191.365" y="160.315">C</text>
      <text x="190.267" y="154.027">C</text>
      <text x="188.734" y="147.768">C</text>
      <text x="186.765" y="141.570">G</text>
      <text x="184.361" y="135.462">U</text>
      <text x="181.526" y="129.475">C</text>
      <text x="178.265" y="123.641">A</text>
      <text x="174.586" y="117.988">C</text>
      <text x="170.500" y="112.548">C</text>
      <text x="166.018" y="107.348">C</text>
      <text x="173.011" y="94.079">U</text>
      <text x="180.005" y="80.809">C</text>
      <text x="193.284" y="72.208">C</text>
      <text x="192.374" y="57.341">U</text>
      <text x="199.367" y="44.072">C</text>
      <text x="213.488" y="49.203">A</text>
      <text x="228.175" y="52.364">C</text>
      <text x="243.156" y="53.495">A</text>
      <text x="258.152" y="52.576">A</text>
      <text x="272.883" y="49.623">G</text>
      <text x="287.074" y="44.692">C</text>
      <text x="300.462" y="37.874">U</text>
      <text x="312.797" y="29.297">G</text>
      <text x="323.849" y="19.120">C</text>
      <text x="333.412" y="7.533">C</text>
      <text x="341.308" y="-5.248">G</text>
      <text x="347.391" y="-18.985">U</text>
      <text x="351.546" y="-33.423">A</text>
      <text x="353.696" y="-48.292">C</text>
      <text x="353.801" y="-63.316">U</text>
      <text x="351.860" y="-78.214">U</text>
      <text x="347.908" y="-92.708">A</text>
      <text x="342.019" y="-106.530">G</text>
      <text x="334.303" y="-119.421">G</text>
      <text x="324.904" y="-131.141">A</text>
      <text x="313.996" y="-141.472">U</text>
      <text x="301.783" y="-150.221">A</text>
      <text x="288.492" y="-157.226">A</text>
      <text x="274.371" y="-162.356">C</text>
      <text x="259.683" y="-165.515">U</text>
      <text x="244.702" y="-166.645">A</text>
      <text x="229.706" y="-165.724">A</text>
      <text x="214.976" y="-162.770">C</text>
      <text x="200.785" y="-157.837">A</text>
      <text x="187.398" y="-151.018">C</text>
      <text x="175.064" y="-142.440">C</text>
      <text x="164.013" y="-132.262">C</text>
      <text x="154.451" y="-120.674">C</text>
      <text x="146.556" y="-107.892">A</text>
      <text x="140.476" y="-94.153">A</text>
      <text x="136.322" y="-79.715">C</text>
      <text x="134.174" y="-64.846">A</text>
      <text x="134.070" y="-49.822">A</text>
      <text x="136.013" y="-34.925">G</text>
      <text x="139.966" y="-20.430">C</text>
      <text x="145.856" y="-6.610">U</text>
      <text x="153.574" y="6.281">A</text>
      <text x="162.975" y="18.000">A</text>
      <text x="173.884" y="28.330">A</text>
      <text x="186.098" y="37.078">G</text>
      <text x="179.104" y="50.347">A</text>
      <text x="166.325" y="57.999">U</text>
      <text x="166.735" y="73.815">G</text>
      <text x="159.742" y="87.085">A</text>
      <text x="152.748" y="100.355">G</text>
      <text x="145.594" y="98.101">G</text>
      <text x="150.101" y="83.794">U</text>
      <text x="154.608" y="69.487">A</text>
      <text x="159.115" y="55.180">A</text>
      <text x="163.621" y="40.873">G</text>
      <text x="168.128" y="26.566">U</text>
      <text x="172.635" y="12.259">C</text>
      <text x="177.141" y="-2.048">G</text>
      <text x="162.834" y="-6.554">U</text>
      <text x="158.328" y="7.753">A</text>
      <text x="153.821" y="22.060">A</text>
      <text x="149.314" y="36.367">C</text>
      <text x="144.808" y="50.674">A</text>
      <text x="140.301" y="64.980">A</text>
      <text x="135.794" y="79.287">G</text>
      <text x="131.287" y="93.594">G</text>
      <text x="124.134" y="91.341">U</text>
      <text x="126.008" y="76.459">A</text>
      <text x="127.882" y="61.576">A</text>
      <text x="129.757" y="46.694">G</text>
      <text x="131.631" y="31.811">U</text>
      <text x="133.505" y="16.929">G</text>
      <text x="135.379" y="2.046">U</text>
      <text x="137.254" y="-12.836">A</text>
      <text x="139.128" y="-27.719">C</text>
      <text x="141.002" y="-42.601">C</text>
      <text x="151.338" y="-55.333">G</text>
      <text x="145.227" y="-70.551">G</text>
      <text x="128.957" y="-72.600">A</text>
      <text x="119.264" y="-59.372">A</text>
      <text x="126.120" y="-44.475">G</text>
      <text x="124.245" y="-29.593">G</text>
      <text x="122.371" y="-14.710">U</text>
      <text x="120.497" y="0.172">G</text>
      <text x="118.623" y="15.055">C</text>
      <text x="116.748" y="29.937">A</text>
      <text x="114.874" y="44.819">C</text>
      <text x="113.000" y="59.702">U</text>
      <text x="111.126" y="74.584">U</text>
      <text x="109.251" y="89.467">A</text>
      <text x="101.754" y="89.286">G</text>
      <text x="102.115" y="74.290">C</text>
      <text x="102.476" y="59.295">A</text>
      <text x="102.838" y="44.299">U</text>
      <text x="103.199" y="29.303">A</text>
      <text x="96.014" y="16.136">C</text>
      <text x="88.203" y="28.942">C</text>
    </g>
  </g>
</svg>
