<?xml version="1.0" encoding="UTF-8" standalone="yes"?>
<svg xmlns="http://www.w3.org/2000/svg" height="452" width="452">
<script type="text/ecmascript">
      <![CDATA[
        var shown = 1;
        function click() {
             var seq = document.getElementById("seq");
             if (shown==1) {
               seq.setAttribute("style", "visibility: hidden");
               shown = 0;
             } else {
               seq.setAttribute("style", "visibility: visible");
               shown = 1;
             }
         }
        ]]>
</script>
  <rect style="stroke: white; fill: white" height="452" x="0" y="0" width="452" onclick="click(evt)" />
  <g transform="scale(1.634628,1.634628) translate(18.104561,29.349274)">
    <polyline style="stroke: black; fill: none; stroke-width: 1.5" id="outline" points="
      113.006,-5.906
      112.313,9.078
      111.620,24.062
      110.927,39.046
      110.235,54.030
      109.542,69.014
      108.849,83.998
      93.190,85.299
      80.475,93.112
      73.074,105.154
      58.329,102.397
      43.585,99.641
      28.840,96.885
      14.382,88.031
      1.871,99.474
      9.403,114.663
      26.084,111.630
      40.828,114.386
      55.573,117.142
      70.318,119.898
      74.005,132.296
      82.605,141.958
      77.186,155.945
      71.767,169.932
      66.349,183.919
      60.930,197.906
      46.072,202.780
      37.866,216.092
      40.188,231.556
      51.941,241.871
      67.576,242.166
      79.710,232.302
      82.614,216.937
      74.917,203.325
      80.336,189.338
      85.754,175.351
      91.173,161.364
      96.592,147.376
      108.044,147.544
      119.097,143.289
      128.056,134.957
      133.432,123.533
      134.192,110.539
      149.192,110.539
      164.192,110.539
      179.192,110.539
      194.192,110.539
      204.104,122.634
      219.481,125.476
      233.062,117.725
      238.435,103.039
      233.062,88.354
      219.481,80.602
      204.104,83.445
      194.192,95.539
      179.192,95.539
      164.192,95.539
      149.192,95.539
      134.192,95.539
      123.833,84.690
      124.526,69.706
      125.219,54.722
      125.911,39.738
      126.604,24.754
      127.297,9.770
      127.990,-5.214
      131.068,-24.349
    " />
    <g style="stroke: black; stroke-width: 1" id="pairs">
      <line id="1,66" x1="113.006" y1="-5.906" x2="127.990" y2="-5.214" />
      <line id="2,65" x1="112.313" y1=" 9.078" x2="127.297" y2=" 9.770" />
      <line id="3,64" x1="111.620" y1="24.062" x2="126.604" y2="24.754" />
      <line id="4,63" x1="110.927" y1="39.046" x2="125.911" y2="39.738" />
      <line id="5,62" x1="110.235" y1="54.030" x2="125.219" y2="54.722" />
      <line id="6,61" x1="109.542" y1="69.014" x2="124.526" y2="69.706" />
      <line id="7,60" x1="108.849" y1="83.998" x2="123.833" y2="84.690" />
      <line id="10,20" x1="73.074" y1="105.154" x2="70.318" y2="119.898" />
      <line id="11,19" x1="58.329" y1="102.397" x2="55.573" y2="117.142" />
      <line id="12,18" x1="43.585" y1="99.641" x2="40.828" y2="114.386" />
      <line id="13,17" x1="28.840" y1="96.885" x2="26.084" y2="111.630" />
      <line id="22,38" x1="82.605" y1="141.958" x2="96.592" y2="147.376" />
      <line id="23,37" x1="77.186" y1="155.945" x2="91.173" y2="161.364" />
      <line id="24,36" x1="71.767" y1="169.932" x2="85.754" y2="175.351" />
      <line id="25,35" x1="66.349" y1="183.919" x2="80.336" y2="189.338" />
      <line id="26,34" x1="60.930" y1="197.906" x2="74.917" y2="203.325" />
      <line id="43,59" x1="134.192" y1="110.539" x2="134.192" y2="95.539" />
      <line id="44,58" x1="149.192" y1="110.539" x2="149.192" y2="95.539" />
      <line id="45,57" x1="164.192" y1="110.539" x2="164.192" y2="95.539" />
      <line id="46,56" x1="179.192" y1="110.539" x2="179.192" y2="95.539" />
      <line id="47,55" x1="194.192" y1="110.539" x2="194.192" y2="95.539" />
    </g>
    <g style="font-family: SansSerif" transform="translate(-4.6, 4)" id="seq">
      <text x="113.006" y="-5.906">G</text>
      <text x="112.313" y="9.078">A</text>
      <text x="111.620" y="24.062">C</text>
      <text x="110.927" y="39.046">U</text>
      <text x="110.235" y="54.030">C</text>
      <text x="109.542" y="69.014">U</text>
      <text x="108.849" y="83.998">G</text>
      <text x="93.190" y="85.299">U</text>
      <text x="80.475" y="93.112">G</text>
      <text x="73.074" y="105.154">G</text>
      <text x="58.329" y="102.397">U</text>
      <text x="43.585" y="99.641">G</text>
      <text x="28.840" y="96.885">A</text>
      <text x="14.382" y="88.031">A</text>
      <text x="1.871" y="99.474">G</text>
      <text x="9.403" y="114.663">U</text>
      <text x="26.084" y="111.630">U</text>
      <text x="40.828" y="114.386">C</text>
      <text x="55.573" y="117.142">A</text>
      <text x="70.318" y="119.898">U</text>
      <text x="74.005" y="132.296">A</text>
      <text x="82.605" y="141.958">G</text>
      <text x="77.186" y="155.945">U</text>
      <text x="71.767" y="169.932">G</text>
      <text x="66.349" y="183.919">A</text>
      <text x="60.930" y="197.906">G</text>
      <text x="46.072" y="202.780">U</text>
      <text x="37.866" y="216.092">U</text>
      <text x="40.188" y="231.556">G</text>
      <text x="51.941" y="241.871">C</text>
      <text x="67.576" y="242.166">A</text>
      <text x="79.710" y="232.302">A</text>
      <text x="82.614" y="216.937">G</text>
      <text x="74.917" y="203.325">C</text>
      <text x="80.336" y="189.338">U</text>
      <text x="85.754" y="175.351">C</text>
      <text x="91.173" y="161.364">A</text>
      <text x="96.592" y="147.376">U</text>
      <text x="108.044" y="147.544">U</text>
      <text x="119.097" y="143.289">G</text>
      <text x="128.056" y="134.957">A</text>
      <text x="133.432" y="123.533">U</text>
      <text x="134.192" y="110.539">G</text>
      <text x="149.192" y="110.539">U</text>
      <text x="164.192" y="110.539">G</text>
      <text x="179.192" y="110.539">C</text>
      <text x="194.192" y="110.539">G</text>
      <text x="204.104" y="122.634">U</text>
      <text x="219.481" y="125.476">U</text>
      <text x="233.062" y="117.725">G</text>
      <text x="238.435" y="103.039">A</text>
      <text x="233.062" y="88.354">G</text>
      <text x="219.481" y="80.602">A</text>
      <text x="204.104" y="83.445">G</text>
      <text x="194.192" y="95.539">C</text>
      <text x="179.192" y="95.539">G</text>
      <text x="164.192" y="95.539">U</text>
      <text x="149.192" y="95.539">G</text>
      <text x="134.192" y="95.539">C</text>
      <text x="123.833" y="84.690">C</text>
      <text x="124.526" y="69.706">G</text>
      <text x="125.219" y="54.722">G</text>
      <text x="125.911" y="39.738">A</text>
      <text x="126.604" y="24.754">G</text>
      <text x="127.297" y="9.770">U</text>
      <text x="127.990" y="-5.214">C</text>
      <text x="131.068" y="-24.349">U</text>
    </g>
  </g>
</svg>
