<?xml version="1.0" encoding="UTF-8" standalone="yes"?>
<svg xmlns="http://www.w3.org/2000/svg" height="452" width="452">
<script type="text/ecmascript">
      <![CDATA[
        var shown = 1;
        function click() {
             var seq = document.getElementById("seq");
             if (shown==1) {
               seq.setAttribute("style", "visibility: hidden");
               shown = 0;
             } else {
               seq.setAttribute("style", "visibility: visible");
               shown = 1;
             }
         }
        ]]>
</script>
  <rect style="stroke: white; fill: white" height="452" x="0" y="0" width="452" onclick="click(evt)" />
  <g transform="scale(1.626783,1.626783) translate(26.738480,33.551025)">
    <polyline style="stroke: black; fill: none; stroke-width: 1.5" id="outline" points="
      112.008,-10.084
      111.335,4.901
      110.662,19.886
      102.362,32.253
      109.472,46.386
      108.799,61.371
      108.126,76.356
      92.018,78.129
      79.209,86.656
      72.157,99.407
      57.292,97.393
      42.428,95.380
      27.564,93.366
      16.740,81.524
      0.744,82.747
      -8.154,96.096
      -3.128,111.332
      11.966,116.766
      25.550,108.230
      40.415,110.244
      55.279,112.257
      70.143,114.271
      74.909,127.309
      85.025,136.816
      81.034,151.275
      77.044,165.735
      73.053,180.194
      69.063,194.654
      54.767,200.991
      47.936,215.058
      51.795,230.212
      64.522,239.298
      80.108,238.026
      91.193,226.996
      92.544,211.417
      83.522,198.644
      87.513,184.185
      91.503,169.725
      95.494,155.266
      99.484,140.807
      110.578,140.013
      120.992,135.128
      129.225,126.559
      133.985,115.258
      134.391,102.621
      149.376,101.948
      164.361,101.275
      179.345,100.602
      188.176,113.252
      202.452,119.099
      217.619,116.276
      228.837,105.686
      232.526,90.706
      227.509,76.117
      215.387,66.574
      200.028,65.123
      186.333,72.226
      178.673,85.617
      163.688,86.290
      148.703,86.963
      133.718,87.636
      123.111,77.029
      123.784,62.044
      124.457,47.059
      132.806,33.620
      125.647,20.559
      126.320,5.574
      126.993,-9.411
      130.046,-28.551
    " />
    <g style="stroke: black; stroke-width: 1" id="pairs">
      <line id="1,68" x1="112.008" y1="-10.084" x2="126.993" y2="-9.411" />
      <line id="2,67" x1="111.335" y1=" 4.901" x2="126.320" y2=" 5.574" />
      <line id="3,66" x1="110.662" y1="19.886" x2="125.647" y2="20.559" />
      <line id="5,64" x1="109.472" y1="46.386" x2="124.457" y2="47.059" />
      <line id="6,63" x1="108.799" y1="61.371" x2="123.784" y2="62.044" />
      <line id="7,62" x1="108.126" y1="76.356" x2="123.111" y2="77.029" />
      <line id="10,22" x1="72.157" y1="99.407" x2="70.143" y2="114.271" />
      <line id="11,21" x1="57.292" y1="97.393" x2="55.279" y2="112.257" />
      <line id="12,20" x1="42.428" y1="95.380" x2="40.415" y2="110.244" />
      <line id="13,19" x1="27.564" y1="93.366" x2="25.550" y2="108.230" />
      <line id="24,40" x1="85.025" y1="136.816" x2="99.484" y2="140.807" />
      <line id="25,39" x1="81.034" y1="151.275" x2="95.494" y2="155.266" />
      <line id="26,38" x1="77.044" y1="165.735" x2="91.503" y2="169.725" />
      <line id="27,37" x1="73.053" y1="180.194" x2="87.513" y2="184.185" />
      <line id="28,36" x1="69.063" y1="194.654" x2="83.522" y2="198.644" />
      <line id="45,61" x1="134.391" y1="102.621" x2="133.718" y2="87.636" />
      <line id="46,60" x1="149.376" y1="101.948" x2="148.703" y2="86.963" />
      <line id="47,59" x1="164.361" y1="101.275" x2="163.688" y2="86.290" />
      <line id="48,58" x1="179.345" y1="100.602" x2="178.673" y2="85.617" />
    </g>
    <g style="font-family: SansSerif" transform="translate(-4.6, 4)" id="seq">
      <text x="112.008" y="-10.084">G</text>
      <text x="111.335" y="4.901">A</text>
      <text x="110.662" y="19.886">G</text>
      <text x="102.362" y="32.253">A</text>
      <text x="109.472" y="46.386">U</text>
      <text x="108.799" y="61.371">G</text>
      <text x="108.126" y="76.356">U</text>
      <text x="92.018" y="78.129">U</text>
      <text x="79.209" y="86.656">A</text>
      <text x="72.157" y="99.407">G</text>
      <text x="57.292" y="97.393">U</text>
      <text x="42.428" y="95.380">A</text>
      <text x="27.564" y="93.366">A</text>
      <text x="16.740" y="81.524">A</text>
      <text x="0.744" y="82.747">C</text>
      <text x="-8.154" y="96.096">C</text>
      <text x="-3.128" y="111.332">A</text>
      <text x="11.966" y="116.766">A</text>
      <text x="25.550" y="108.230">U</text>
      <text x="40.415" y="110.244">U</text>
      <text x="55.279" y="112.257">A</text>
      <text x="70.143" y="114.271">C</text>
      <text x="74.909" y="127.309">A</text>
      <text x="85.025" y="136.816">U</text>
      <text x="81.034" y="151.275">A</text>
      <text x="77.044" y="165.735">G</text>
      <text x="73.053" y="180.194">C</text>
      <text x="69.063" y="194.654">C</text>
      <text x="54.767" y="200.991">U</text>
      <text x="47.936" y="215.058">U</text>
      <text x="51.795" y="230.212">G</text>
      <text x="64.522" y="239.298">U</text>
      <text x="80.108" y="238.026">C</text>
      <text x="91.193" y="226.996">A</text>
      <text x="92.544" y="211.417">A</text>
      <text x="83.522" y="198.644">G</text>
      <text x="87.513" y="184.185">G</text>
      <text x="91.503" y="169.725">C</text>
      <text x="95.494" y="155.266">U</text>
      <text x="99.484" y="140.807">A</text>
      <text x="110.578" y="140.013">A</text>
      <text x="120.992" y="135.128">A</text>
      <text x="129.225" y="126.559">U</text>
      <text x="133.985" y="115.258">C</text>
      <text x="134.391" y="102.621">A</text>
      <text x="149.376" y="101.948">C</text>
      <text x="164.361" y="101.275">A</text>
      <text x="179.345" y="100.602">G</text>
      <text x="188.176" y="113.252">A</text>
      <text x="202.452" y="119.099">U</text>
      <text x="217.619" y="116.276">G</text>
      <text x="228.837" y="105.686">A</text>
      <text x="232.526" y="90.706">A</text>
      <text x="227.509" y="76.117">A</text>
      <text x="215.387" y="66.574">A</text>
      <text x="200.028" y="65.123">C</text>
      <text x="186.333" y="72.226">C</text>
      <text x="178.673" y="85.617">C</text>
      <text x="163.688" y="86.290">U</text>
      <text x="148.703" y="86.963">G</text>
      <text x="133.718" y="87.636">U</text>
      <text x="123.111" y="77.029">A</text>
      <text x="123.784" y="62.044">C</text>
      <text x="124.457" y="47.059">A</text>
      <text x="132.806" y="33.620">C</text>
      <text x="125.647" y="20.559">C</text>
      <text x="126.320" y="5.574">U</text>
      <text x="126.993" y="-9.411">C</text>
      <text x="130.046" y="-28.551">A</text>
    </g>
  </g>
</svg>
