<?xml version="1.0" encoding="UTF-8" standalone="yes"?>
<svg xmlns="http://www.w3.org/2000/svg" height="452" width="452">
<script type="text/ecmascript">
      <![CDATA[
        var shown = 1;
        function click() {
             var seq = document.getElementById("seq");
             if (shown==1) {
               seq.setAttribute("style", "visibility: hidden");
               shown = 0;
             } else {
               seq.setAttribute("style", "visibility: visible");
               shown = 1;
             }
         }
        ]]>
</script>
  <rect style="stroke: white; fill: white" height="452" x="0" y="0" width="452" onclick="click(evt)" />
  <g transform="scale(1.646621,1.646621) translate(22.231590,30.203613)">
    <polyline style="stroke: black; fill: none; stroke-width: 1.5" id="outline" points="
      112.008,-6.737
      111.335,8.248
      110.662,23.233
      109.989,38.218
      109.316,53.203
      101.016,65.570
      108.126,79.704
      92.018,81.477
      79.209,90.003
      72.157,102.754
      57.292,100.741
      42.428,98.727
      27.564,96.714
      16.740,84.872
      0.744,86.095
      -8.154,99.444
      -3.128,114.679
      11.966,120.114
      25.550,111.578
      40.415,113.591
      55.279,115.605
      70.143,117.618
      74.909,130.657
      85.025,140.163
      73.895,151.408
      77.968,165.735
      73.977,180.194
      69.987,194.654
      55.691,200.991
      48.860,215.058
      52.719,230.212
      65.446,239.298
      81.032,238.026
      92.117,226.996
      93.468,211.417
      84.446,198.644
      88.437,184.185
      92.427,169.725
      103.272,159.515
      99.484,144.154
      110.578,143.360
      120.992,138.476
      129.225,129.907
      133.985,118.605
      134.391,105.968
      149.376,105.295
      164.361,104.622
      179.345,103.949
      194.330,103.276
      204.775,114.914
      220.264,117.064
      233.484,108.711
      238.193,93.799
      232.166,79.369
      218.251,72.234
      203.017,75.764
      193.657,88.291
      178.673,88.964
      163.688,89.637
      148.703,90.310
      133.718,90.983
      123.111,80.377
      131.460,66.937
      124.301,53.876
      124.974,38.891
      125.647,23.906
      126.320,8.921
      126.993,-6.064
      130.046,-25.204
    " />
    <g style="stroke: black; stroke-width: 1" id="pairs">
      <line id="1,68" x1="112.008" y1="-6.737" x2="126.993" y2="-6.064" />
      <line id="2,67" x1="111.335" y1=" 8.248" x2="126.320" y2=" 8.921" />
      <line id="3,66" x1="110.662" y1="23.233" x2="125.647" y2="23.906" />
      <line id="4,65" x1="109.989" y1="38.218" x2="124.974" y2="38.891" />
      <line id="5,64" x1="109.316" y1="53.203" x2="124.301" y2="53.876" />
      <line id="7,62" x1="108.126" y1="79.704" x2="123.111" y2="80.377" />
      <line id="10,22" x1="72.157" y1="102.754" x2="70.143" y2="117.618" />
      <line id="11,21" x1="57.292" y1="100.741" x2="55.279" y2="115.605" />
      <line id="12,20" x1="42.428" y1="98.727" x2="40.415" y2="113.591" />
      <line id="13,19" x1="27.564" y1="96.714" x2="25.550" y2="111.578" />
      <line id="24,40" x1="85.025" y1="140.163" x2="99.484" y2="144.154" />
      <line id="26,38" x1="77.968" y1="165.735" x2="92.427" y2="169.725" />
      <line id="27,37" x1="73.977" y1="180.194" x2="88.437" y2="184.185" />
      <line id="28,36" x1="69.987" y1="194.654" x2="84.446" y2="198.644" />
      <line id="45,61" x1="134.391" y1="105.968" x2="133.718" y2="90.983" />
      <line id="46,60" x1="149.376" y1="105.295" x2="148.703" y2="90.310" />
      <line id="47,59" x1="164.361" y1="104.622" x2="163.688" y2="89.637" />
      <line id="48,58" x1="179.345" y1="103.949" x2="178.673" y2="88.964" />
      <line id="49,57" x1="194.330" y1="103.276" x2="193.657" y2="88.291" />
    </g>
    <g style="font-family: SansSerif" transform="translate(-4.6, 4)" id="seq">
      <text x="112.008" y="-6.737">G</text>
      <text x="111.335" y="8.248">C</text>
      <text x="110.662" y="23.233">U</text>
      <text x="109.989" y="38.218">C</text>
      <text x="109.316" y="53.203">C</text>
      <text x="101.016" y="65.570">C</text>
      <text x="108.126" y="79.704">C</text>
      <text x="92.018" y="81.477">U</text>
      <text x="79.209" y="90.003">A</text>
      <text x="72.157" y="102.754">G</text>
      <text x="57.292" y="100.741">U</text>
      <text x="42.428" y="98.727">A</text>
      <text x="27.564" y="96.714">U</text>
      <text x="16.740" y="84.872">A</text>
      <text x="0.744" y="86.095">C</text>
      <text x="-8.154" y="99.444">U</text>
      <text x="-3.128" y="114.679">C</text>
      <text x="11.966" y="120.114">A</text>
      <text x="25.550" y="111.578">A</text>
      <text x="40.415" y="113.591">U</text>
      <text x="55.279" y="115.605">A</text>
      <text x="70.143" y="117.618">C</text>
      <text x="74.909" y="130.657">A</text>
      <text x="85.025" y="140.163">A</text>
      <text x="73.895" y="151.408">U</text>
      <text x="77.968" y="165.735">U</text>
      <text x="73.977" y="180.194">G</text>
      <text x="69.987" y="194.654">A</text>
      <text x="55.691" y="200.991">C</text>
      <text x="48.860" y="215.058">U</text>
      <text x="52.719" y="230.212">U</text>
      <text x="65.446" y="239.298">C</text>
      <text x="81.032" y="238.026">C</text>
      <text x="92.117" y="226.996">A</text>
      <text x="93.468" y="211.417">A</text>
      <text x="84.446" y="198.644">U</text>
      <text x="88.437" y="184.185">C</text>
      <text x="92.427" y="169.725">A</text>
      <text x="103.272" y="159.515">C</text>
      <text x="99.484" y="144.154">U</text>
      <text x="110.578" y="143.360">A</text>
      <text x="120.992" y="138.476">A</text>
      <text x="129.225" y="129.907">A</text>
      <text x="133.985" y="118.605">A</text>
      <text x="134.391" y="105.968">U</text>
      <text x="149.376" y="105.295">C</text>
      <text x="164.361" y="104.622">U</text>
      <text x="179.345" y="103.949">G</text>
      <text x="194.330" y="103.276">G</text>
      <text x="204.775" y="114.914">U</text>
      <text x="220.264" y="117.064">G</text>
      <text x="233.484" y="108.711">C</text>
      <text x="238.193" y="93.799">A</text>
      <text x="232.166" y="79.369">A</text>
      <text x="218.251" y="72.234">C</text>
      <text x="203.017" y="75.764">C</text>
      <text x="193.657" y="88.291">C</text>
      <text x="178.673" y="88.964">C</text>
      <text x="163.688" y="89.637">A</text>
      <text x="148.703" y="90.310">G</text>
      <text x="133.718" y="90.983">A</text>
      <text x="123.111" y="80.377">G</text>
      <text x="131.460" y="66.937">A</text>
      <text x="124.301" y="53.876">G</text>
      <text x="124.974" y="38.891">G</text>
      <text x="125.647" y="23.906">A</text>
      <text x="126.320" y="8.921">G</text>
      <text x="126.993" y="-6.064">C</text>
      <text x="130.046" y="-25.204">A</text>
    </g>
  </g>
</svg>
