<?xml version="1.0" encoding="UTF-8" standalone="yes"?>
<svg xmlns="http://www.w3.org/2000/svg" height="452" width="452">
<script type="text/ecmascript">
      <![CDATA[
        var shown = 1;
        function click() {
             var seq = document.getElementById("seq");
             if (shown==1) {
               seq.setAttribute("style", "visibility: hidden");
               shown = 0;
             } else {
               seq.setAttribute("style", "visibility: visible");
               shown = 1;
             }
         }
        ]]>
</script>
  <rect style="stroke: white; fill: white" height="452" x="0" y="0" width="452" onclick="click(evt)" />
  <g transform="scale(1.606308,1.606308) translate(30.916122,36.578285)">
    <polyline style="stroke: black; fill: none; stroke-width: 1.5" id="outline" points="
      111.168,-13.089
      110.514,1.897
      109.859,16.882
      101.574,29.260
      108.702,43.385
      108.048,58.370
      107.394,73.356
      90.904,75.607
      78.064,84.813
      71.401,98.203
      56.458,96.896
      41.515,95.589
      26.572,94.281
      17.751,81.369
      2.680,77.197
      -11.525,83.735
      -18.157,97.897
      -14.084,112.995
      -1.231,121.900
      14.336,120.409
      25.264,109.224
      40.207,110.532
      55.150,111.839
      70.093,113.146
      75.955,126.684
      87.515,135.851
      84.910,150.623
      82.305,165.395
      79.701,180.167
      77.096,194.939
      63.464,202.601
      57.994,217.250
      63.270,231.971
      76.799,239.812
      92.195,237.072
      102.187,225.043
      102.058,209.406
      91.868,197.544
      94.473,182.772
      97.077,167.999
      99.682,153.227
      102.287,138.455
      112.940,136.818
      122.695,131.422
      130.228,122.709
      134.421,111.585
      134.522,99.326
      149.465,98.019
      164.408,96.711
      179.351,95.404
      194.294,94.097
      205.223,105.281
      220.789,106.773
      233.643,97.867
      237.715,82.769
      231.083,68.608
      216.878,62.069
      201.807,66.241
      192.987,79.154
      178.044,80.461
      163.101,81.768
      148.158,83.076
      133.215,84.383
      122.380,74.010
      123.034,59.025
      123.688,44.039
      132.020,30.589
      124.845,17.537
      125.499,2.551
      126.154,-12.435
      129.183,-31.578
    " />
    <g style="stroke: black; stroke-width: 1" id="pairs">
      <line id="1,70" x1="111.168" y1="-13.089" x2="126.154" y2="-12.435" />
      <line id="2,69" x1="110.514" y1=" 1.897" x2="125.499" y2=" 2.551" />
      <line id="3,68" x1="109.859" y1="16.882" x2="124.845" y2="17.537" />
      <line id="5,66" x1="108.702" y1="43.385" x2="123.688" y2="44.039" />
      <line id="6,65" x1="108.048" y1="58.370" x2="123.034" y2="59.025" />
      <line id="7,64" x1="107.394" y1="73.356" x2="122.380" y2="74.010" />
      <line id="10,24" x1="71.401" y1="98.203" x2="70.093" y2="113.146" />
      <line id="11,23" x1="56.458" y1="96.896" x2="55.150" y2="111.839" />
      <line id="12,22" x1="41.515" y1="95.589" x2="40.207" y2="110.532" />
      <line id="13,21" x1="26.572" y1="94.281" x2="25.264" y2="109.224" />
      <line id="26,42" x1="87.515" y1="135.851" x2="102.287" y2="138.455" />
      <line id="27,41" x1="84.910" y1="150.623" x2="99.682" y2="153.227" />
      <line id="28,40" x1="82.305" y1="165.395" x2="97.077" y2="167.999" />
      <line id="29,39" x1="79.701" y1="180.167" x2="94.473" y2="182.772" />
      <line id="30,38" x1="77.096" y1="194.939" x2="91.868" y2="197.544" />
      <line id="47,63" x1="134.522" y1="99.326" x2="133.215" y2="84.383" />
      <line id="48,62" x1="149.465" y1="98.019" x2="148.158" y2="83.076" />
      <line id="49,61" x1="164.408" y1="96.711" x2="163.101" y2="81.768" />
      <line id="50,60" x1="179.351" y1="95.404" x2="178.044" y2="80.461" />
      <line id="51,59" x1="194.294" y1="94.097" x2="192.987" y2="79.154" />
    </g>
    <g style="font-family: SansSerif" transform="translate(-4.6, 4)" id="seq">
      <text x="111.168" y="-13.089">G</text>
      <text x="110.514" y="1.897">C</text>
      <text x="109.859" y="16.882">A</text>
      <text x="101.574" y="29.260">A</text>
      <text x="108.702" y="43.385">G</text>
      <text x="108.048" y="58.370">U</text>
      <text x="107.394" y="73.356">A</text>
      <text x="90.904" y="75.607">U</text>
      <text x="78.064" y="84.813">A</text>
      <text x="71.401" y="98.203">G</text>
      <text x="56.458" y="96.896">U</text>
      <text x="41.515" y="95.589">U</text>
      <text x="26.572" y="94.281">U</text>
      <text x="17.751" y="81.369">C</text>
      <text x="2.680" y="77.197">A</text>
      <text x="-11.525" y="83.735">A</text>
      <text x="-18.157" y="97.897">C</text>
      <text x="-14.084" y="112.995">C</text>
      <text x="-1.231" y="121.900">A</text>
      <text x="14.336" y="120.409">A</text>
      <text x="25.264" y="109.224">A</text>
      <text x="40.207" y="110.532">A</text>
      <text x="55.150" y="111.839">A</text>
      <text x="70.093" y="113.146">C</text>
      <text x="75.955" y="126.684">A</text>
      <text x="87.515" y="135.851">U</text>
      <text x="84.910" y="150.623">U</text>
      <text x="82.305" y="165.395">A</text>
      <text x="79.701" y="180.167">G</text>
      <text x="77.096" y="194.939">A</text>
      <text x="63.464" y="202.601">C</text>
      <text x="57.994" y="217.250">U</text>
      <text x="63.270" y="231.971">G</text>
      <text x="76.799" y="239.812">U</text>
      <text x="92.195" y="237.072">G</text>
      <text x="102.187" y="225.043">A</text>
      <text x="102.058" y="209.406">U</text>
      <text x="91.868" y="197.544">U</text>
      <text x="94.473" y="182.772">C</text>
      <text x="97.077" y="167.999">U</text>
      <text x="99.682" y="153.227">A</text>
      <text x="102.287" y="138.455">A</text>
      <text x="112.940" y="136.818">A</text>
      <text x="122.695" y="131.422">A</text>
      <text x="130.228" y="122.709">A</text>
      <text x="134.421" y="111.585">C</text>
      <text x="134.522" y="99.326">A</text>
      <text x="149.465" y="98.019">G</text>
      <text x="164.408" y="96.711">A</text>
      <text x="179.351" y="95.404">A</text>
      <text x="194.294" y="94.097">G</text>
      <text x="205.223" y="105.281">U</text>
      <text x="220.789" y="106.773">U</text>
      <text x="233.643" y="97.867">A</text>
      <text x="237.715" y="82.769">A</text>
      <text x="231.083" y="68.608">A</text>
      <text x="216.878" y="62.069">C</text>
      <text x="201.807" y="66.241">C</text>
      <text x="192.987" y="79.154">C</text>
      <text x="178.044" y="80.461">U</text>
      <text x="163.101" y="81.768">U</text>
      <text x="148.158" y="83.076">C</text>
      <text x="133.215" y="84.383">U</text>
      <text x="122.380" y="74.010">U</text>
      <text x="123.034" y="59.025">A</text>
      <text x="123.688" y="44.039">C</text>
      <text x="132.020" y="30.589">C</text>
      <text x="124.845" y="17.537">U</text>
      <text x="125.499" y="2.551">G</text>
      <text x="126.154" y="-12.435">C</text>
      <text x="129.183" y="-31.578">C</text>
    </g>
  </g>
</svg>
