<?xml version="1.0" encoding="UTF-8" standalone="yes"?>
<svg xmlns="http://www.w3.org/2000/svg" height="452" width="452">
<script type="text/ecmascript">
      <![CDATA[
        var shown = 1;
        function click() {
             var seq = document.getElementById("seq");
             if (shown==1) {
               seq.setAttribute("style", "visibility: hidden");
               shown = 0;
             } else {
               seq.setAttribute("style", "visibility: visible");
               shown = 1;
             }
         }
        ]]>
</script>
  <rect style="stroke: white; fill: white" height="452" x="0" y="0" width="452" onclick="click(evt)" />
  <g transform="scale(1.604499,1.604499) translate(22.964195,33.966682)">
    <polyline style="stroke: black; fill: none; stroke-width: 1.5" id="outline" points="
      111.902,-10.456
      111.265,4.530
      110.629,19.517
      109.992,34.503
      109.355,49.490
      108.719,64.476
      108.082,79.463
      91.953,81.263
      79.156,89.845
      72.164,102.649
      57.286,100.743
      42.407,98.838
      35.875,84.862
      22.812,76.655
      7.386,76.836
      -5.481,85.347
      -11.683,99.473
      -9.240,114.706
      1.067,126.185
      15.950,130.247
      30.659,125.596
      40.502,113.717
      55.380,115.622
      70.259,117.527
      75.164,130.561
      85.429,139.972
      81.649,154.488
      77.869,169.004
      74.090,183.520
      70.310,198.036
      56.108,204.581
      49.482,218.745
      53.562,233.841
      66.420,242.741
      81.985,241.242
      92.909,230.053
      94.033,214.456
      84.826,201.815
      88.606,187.299
      92.385,172.783
      96.165,158.267
      99.945,143.751
      110.901,142.828
      121.151,137.903
      129.238,129.379
      133.910,118.189
      134.312,105.692
      149.298,105.056
      164.285,104.419
      179.271,103.783
      194.258,103.146
      203.057,115.818
      217.320,121.699
      232.493,118.913
      243.737,108.350
      247.462,93.379
      242.481,78.778
      230.382,69.206
      215.027,67.718
      201.314,74.787
      193.621,88.160
      178.635,88.796
      163.648,89.433
      148.662,90.069
      133.675,90.706
      123.069,80.099
      123.705,65.113
      124.342,50.126
      124.978,35.140
      125.615,20.153
      126.252,5.167
      126.888,-9.820
      129.894,-28.967
    " />
    <g style="stroke: black; stroke-width: 1" id="pairs">
      <line id="1,72" x1="111.902" y1="-10.456" x2="126.888" y2="-9.820" />
      <line id="2,71" x1="111.265" y1=" 4.530" x2="126.252" y2=" 5.167" />
      <line id="3,70" x1="110.629" y1="19.517" x2="125.615" y2="20.153" />
      <line id="4,69" x1="109.992" y1="34.503" x2="124.978" y2="35.140" />
      <line id="5,68" x1="109.355" y1="49.490" x2="124.342" y2="50.126" />
      <line id="6,67" x1="108.719" y1="64.476" x2="123.705" y2="65.113" />
      <line id="7,66" x1="108.082" y1="79.463" x2="123.069" y2="80.099" />
      <line id="10,24" x1="72.164" y1="102.649" x2="70.259" y2="117.527" />
      <line id="11,23" x1="57.286" y1="100.743" x2="55.380" y2="115.622" />
      <line id="12,22" x1="42.407" y1="98.838" x2="40.502" y2="113.717" />
      <line id="26,42" x1="85.429" y1="139.972" x2="99.945" y2="143.751" />
      <line id="27,41" x1="81.649" y1="154.488" x2="96.165" y2="158.267" />
      <line id="28,40" x1="77.869" y1="169.004" x2="92.385" y2="172.783" />
      <line id="29,39" x1="74.090" y1="183.520" x2="88.606" y2="187.299" />
      <line id="30,38" x1="70.310" y1="198.036" x2="84.826" y2="201.815" />
      <line id="47,65" x1="134.312" y1="105.692" x2="133.675" y2="90.706" />
      <line id="48,64" x1="149.298" y1="105.056" x2="148.662" y2="90.069" />
      <line id="49,63" x1="164.285" y1="104.419" x2="163.648" y2="89.433" />
      <line id="50,62" x1="179.271" y1="103.783" x2="178.635" y2="88.796" />
      <line id="51,61" x1="194.258" y1="103.146" x2="193.621" y2="88.160" />
    </g>
    <g style="font-family: SansSerif" transform="translate(-4.6, 4)" id="seq">
      <text x="111.902" y="-10.456">G</text>
      <text x="111.265" y="4.530">G</text>
      <text x="110.629" y="19.517">A</text>
      <text x="109.992" y="34.503">A</text>
      <text x="109.355" y="49.490">A</text>
      <text x="108.719" y="64.476">U</text>
      <text x="108.082" y="79.463">G</text>
      <text x="91.953" y="81.263">U</text>
      <text x="79.156" y="89.845">G</text>
      <text x="72.164" y="102.649">C</text>
      <text x="57.286" y="100.743">C</text>
      <text x="42.407" y="98.838">U</text>
      <text x="35.875" y="84.862">G</text>
      <text x="22.812" y="76.655">A</text>
      <text x="7.386" y="76.836">A</text>
      <text x="-5.481" y="85.347">C</text>
      <text x="-11.683" y="99.473">A</text>
      <text x="-9.240" y="114.706">U</text>
      <text x="1.067" y="126.185">U</text>
      <text x="15.950" y="130.247">A</text>
      <text x="30.659" y="125.596">A</text>
      <text x="40.502" y="113.717">A</text>
      <text x="55.380" y="115.622">G</text>
      <text x="70.259" y="117.527">G</text>
      <text x="75.164" y="130.561">G</text>
      <text x="85.429" y="139.972">U</text>
      <text x="81.649" y="154.488">C</text>
      <text x="77.869" y="169.004">A</text>
      <text x="74.090" y="183.520">C</text>
      <text x="70.310" y="198.036">U</text>
      <text x="56.108" y="204.581">A</text>
      <text x="49.482" y="218.745">U</text>
      <text x="53.562" y="233.841">G</text>
      <text x="66.420" y="242.741">A</text>
      <text x="81.985" y="241.242">U</text>
      <text x="92.909" y="230.053">A</text>
      <text x="94.033" y="214.456">A</text>
      <text x="84.826" y="201.815">A</text>
      <text x="88.606" y="187.299">G</text>
      <text x="92.385" y="172.783">U</text>
      <text x="96.165" y="158.267">G</text>
      <text x="99.945" y="143.751">A</text>
      <text x="110.901" y="142.828">A</text>
      <text x="121.151" y="137.903">C</text>
      <text x="129.238" y="129.379">A</text>
      <text x="133.910" y="118.189">U</text>
      <text x="134.312" y="105.692">A</text>
      <text x="149.298" y="105.056">G</text>
      <text x="164.285" y="104.419">A</text>
      <text x="179.271" y="103.783">G</text>
      <text x="194.258" y="103.146">G</text>
      <text x="203.057" y="115.818">U</text>
      <text x="217.320" y="121.699">A</text>
      <text x="232.493" y="118.913">C</text>
      <text x="243.737" y="108.350">A</text>
      <text x="247.462" y="93.379">C</text>
      <text x="242.481" y="78.778">C</text>
      <text x="230.382" y="69.206">A</text>
      <text x="215.027" y="67.718">A</text>
      <text x="201.314" y="74.787">C</text>
      <text x="193.621" y="88.160">C</text>
      <text x="178.635" y="88.796">C</text>
      <text x="163.648" y="89.433">U</text>
      <text x="148.662" y="90.069">C</text>
      <text x="133.675" y="90.706">U</text>
      <text x="123.069" y="80.099">C</text>
      <text x="123.705" y="65.113">A</text>
      <text x="124.342" y="50.126">U</text>
      <text x="124.978" y="35.140">U</text>
      <text x="125.615" y="20.153">U</text>
      <text x="126.252" y="5.167">C</text>
      <text x="126.888" y="-9.820">C</text>
      <text x="129.894" y="-28.967">U</text>
    </g>
  </g>
</svg>
