<?xml version="1.0" encoding="UTF-8" standalone="yes"?>
<svg xmlns="http://www.w3.org/2000/svg" height="452" width="452">
<script type="text/ecmascript">
      <![CDATA[
        var shown = 1;
        function click() {
             var seq = document.getElementById("seq");
             if (shown==1) {
               seq.setAttribute("style", "visibility: hidden");
               shown = 0;
             } else {
               seq.setAttribute("style", "visibility: visible");
               shown = 1;
             }
         }
        ]]>
</script>
  <rect style="stroke: white; fill: white" height="452" x="0" y="0" width="452" onclick="click(evt)" />
  <g transform="scale(1.655023,1.655023) translate(24.994400,22.516815)">
    <polyline style="stroke: black; fill: none; stroke-width: 1.5" id="outline" points="
      113.614,0.950
      112.941,15.935
      112.268,30.920
      111.595,45.905
      110.922,60.890
      110.249,75.874
      109.576,90.859
      91.413,92.300
      76.740,101.716
      68.636,116.257
      53.771,114.244
      38.907,112.230
      30.708,98.915
      15.852,94.034
      1.353,99.892
      -5.943,113.724
      -2.590,128.997
      9.828,138.502
      25.447,137.749
      36.894,127.095
      51.758,129.108
      66.622,131.122
      69.387,141.720
      75.421,150.861
      84.080,157.569
      80.089,172.028
      76.099,186.488
      72.108,200.947
      57.812,207.285
      50.981,221.351
      54.840,236.505
      67.567,245.591
      83.153,244.319
      94.238,233.290
      95.589,217.710
      86.567,204.938
      90.558,190.478
      94.549,176.019
      98.539,161.559
      107.782,161.396
      116.816,158.678
      124.937,153.512
      131.480,146.195
      135.880,137.209
      137.715,127.179
      136.748,116.838
      151.688,115.493
      166.627,114.149
      181.567,112.804
      191.674,124.578
      206.779,128.129
      221.074,122.092
      229.062,108.789
      227.671,93.334
      217.436,81.671
      202.293,78.284
      188.065,84.475
      180.222,97.865
      165.283,99.209
      150.343,100.554
      135.403,101.898
      124.561,91.532
      125.234,76.547
      125.907,61.563
      126.580,46.578
      127.253,31.593
      127.926,16.608
      128.599,1.623
      131.652,-17.517
    " />
    <g style="stroke: black; stroke-width: 1" id="pairs">
      <line id="1,68" x1="113.614" y1=" 0.950" x2="128.599" y2=" 1.623" />
      <line id="2,67" x1="112.941" y1="15.935" x2="127.926" y2="16.608" />
      <line id="3,66" x1="112.268" y1="30.920" x2="127.253" y2="31.593" />
      <line id="4,65" x1="111.595" y1="45.905" x2="126.580" y2="46.578" />
      <line id="5,64" x1="110.922" y1="60.890" x2="125.907" y2="61.563" />
      <line id="6,63" x1="110.249" y1="75.874" x2="125.234" y2="76.547" />
      <line id="7,62" x1="109.576" y1="90.859" x2="124.561" y2="91.532" />
      <line id="10,22" x1="68.636" y1="116.257" x2="66.622" y2="131.122" />
      <line id="11,21" x1="53.771" y1="114.244" x2="51.758" y2="129.108" />
      <line id="12,20" x1="38.907" y1="112.230" x2="36.894" y2="127.095" />
      <line id="25,39" x1="84.080" y1="157.569" x2="98.539" y2="161.559" />
      <line id="26,38" x1="80.089" y1="172.028" x2="94.549" y2="176.019" />
      <line id="27,37" x1="76.099" y1="186.488" x2="90.558" y2="190.478" />
      <line id="28,36" x1="72.108" y1="200.947" x2="86.567" y2="204.938" />
      <line id="46,61" x1="136.748" y1="116.838" x2="135.403" y2="101.898" />
      <line id="47,60" x1="151.688" y1="115.493" x2="150.343" y2="100.554" />
      <line id="48,59" x1="166.627" y1="114.149" x2="165.283" y2="99.209" />
      <line id="49,58" x1="181.567" y1="112.804" x2="180.222" y2="97.865" />
    </g>
    <g style="font-family: SansSerif" transform="translate(-4.6, 4)" id="seq">
      <text x="113.614" y="0.950">C</text>
      <text x="112.941" y="15.935">A</text>
      <text x="112.268" y="30.920">U</text>
      <text x="111.595" y="45.905">U</text>
      <text x="110.922" y="60.890">A</text>
      <text x="110.249" y="75.874">A</text>
      <text x="109.576" y="90.859">G</text>
      <text x="91.413" y="92.300">A</text>
      <text x="76.740" y="101.716">A</text>
      <text x="68.636" y="116.257">G</text>
      <text x="53.771" y="114.244">C</text>
      <text x="38.907" y="112.230">U</text>
      <text x="30.708" y="98.915">A</text>
      <text x="15.852" y="94.034">U</text>
      <text x="1.353" y="99.892">G</text>
      <text x="-5.943" y="113.724">C</text>
      <text x="-2.590" y="128.997">A</text>
      <text x="9.828" y="138.502">A</text>
      <text x="25.447" y="137.749">C</text>
      <text x="36.894" y="127.095">A</text>
      <text x="51.758" y="129.108">G</text>
      <text x="66.622" y="131.122">C</text>
      <text x="69.387" y="141.720">G</text>
      <text x="75.421" y="150.861">A</text>
      <text x="84.080" y="157.569">U</text>
      <text x="80.089" y="172.028">A</text>
      <text x="76.099" y="186.488">G</text>
      <text x="72.108" y="200.947">C</text>
      <text x="57.812" y="207.285">C</text>
      <text x="50.981" y="221.351">U</text>
      <text x="54.840" y="236.505">U</text>
      <text x="67.567" y="245.591">U</text>
      <text x="83.153" y="244.319">U</text>
      <text x="94.238" y="233.290">A</text>
      <text x="95.589" y="217.710">A</text>
      <text x="86.567" y="204.938">G</text>
      <text x="90.558" y="190.478">C</text>
      <text x="94.549" y="176.019">U</text>
      <text x="98.539" y="161.559">A</text>
      <text x="107.782" y="161.396">G</text>
      <text x="116.816" y="158.678">A</text>
      <text x="124.937" y="153.512">G</text>
      <text x="131.480" y="146.195">A</text>
      <text x="135.880" y="137.209">A</text>
      <text x="137.715" y="127.179">A</text>
      <text x="136.748" y="116.838">G</text>
      <text x="151.688" y="115.493">A</text>
      <text x="166.627" y="114.149">G</text>
      <text x="181.567" y="112.804">G</text>
      <text x="191.674" y="124.578">A</text>
      <text x="206.779" y="128.129">C</text>
      <text x="221.074" y="122.092">C</text>
      <text x="229.062" y="108.789">A</text>
      <text x="227.671" y="93.334">U</text>
      <text x="217.436" y="81.671">U</text>
      <text x="202.293" y="78.284">A</text>
      <text x="188.065" y="84.475">G</text>
      <text x="180.222" y="97.865">C</text>
      <text x="165.283" y="99.209">C</text>
      <text x="150.343" y="100.554">U</text>
      <text x="135.403" y="101.898">C</text>
      <text x="124.561" y="91.532">C</text>
      <text x="125.234" y="76.547">U</text>
      <text x="125.907" y="61.563">U</text>
      <text x="126.580" y="46.578">A</text>
      <text x="127.253" y="31.593">A</text>
      <text x="127.926" y="16.608">U</text>
      <text x="128.599" y="1.623">G</text>
      <text x="131.652" y="-17.517">A</text>
    </g>
  </g>
</svg>
