<?xml version="1.0" encoding="UTF-8" standalone="yes"?>
<svg xmlns="http://www.w3.org/2000/svg" height="452" width="452">
<script type="text/ecmascript">
      <![CDATA[
        var shown = 1;
        function click() {
             var seq = document.getElementById("seq");
             if (shown==1) {
               seq.setAttribute("style", "visibility: hidden");
               shown = 0;
             } else {
               seq.setAttribute("style", "visibility: visible");
               shown = 1;
             }
         }
        ]]>
</script>
  <rect style="stroke: white; fill: white" height="452" x="0" y="0" width="452" onclick="click(evt)" />
  <g transform="scale(1.574531,1.574531) translate(36.379883,37.731079)">
    <polyline style="stroke: black; fill: none; stroke-width: 1.5" id="outline" points="
      111.048,-14.221
      110.411,0.766
      109.774,15.752
      109.138,30.739
      108.501,45.725
      107.864,60.712
      107.228,75.698
      90.287,78.123
      77.119,87.690
      70.321,101.554
      55.375,100.282
      40.429,99.010
      25.483,97.738
      17.575,84.387
      3.317,78.265
      -11.809,81.725
      -21.987,93.438
      -23.303,108.899
      -15.251,122.164
      -0.927,128.131
      14.160,124.507
      24.211,112.684
      39.157,113.956
      54.103,115.228
      69.049,116.500
      75.207,130.771
      87.466,140.327
      84.931,155.112
      82.396,169.896
      79.861,184.680
      77.326,199.464
      63.730,207.190
      58.330,221.865
      63.675,236.561
      77.241,244.339
      92.623,241.525
      102.559,229.449
      102.356,213.813
      92.110,201.999
      94.645,187.215
      97.180,172.431
      99.715,157.647
      102.250,142.862
      111.619,141.657
      120.452,137.634
      127.899,131.011
      133.196,122.264
      135.744,112.092
      135.167,101.360
      150.045,99.455
      164.924,97.550
      179.802,95.645
      194.681,93.739
      206.049,104.477
      221.663,105.343
      234.149,95.929
      237.613,80.680
      230.419,66.796
      215.963,60.832
      201.071,65.605
      192.776,78.861
      177.897,80.766
      163.019,82.671
      148.140,84.577
      133.262,86.482
      122.214,76.335
      122.851,61.348
      123.488,46.362
      124.124,31.376
      124.761,16.389
      125.397,1.403
      126.034,-13.584
      129.040,-32.731
    " />
    <g style="stroke: black; stroke-width: 1" id="pairs">
      <line id="1,72" x1="111.048" y1="-14.221" x2="126.034" y2="-13.584" />
      <line id="2,71" x1="110.411" y1=" 0.766" x2="125.397" y2=" 1.403" />
      <line id="3,70" x1="109.774" y1="15.752" x2="124.761" y2="16.389" />
      <line id="4,69" x1="109.138" y1="30.739" x2="124.124" y2="31.376" />
      <line id="5,68" x1="108.501" y1="45.725" x2="123.488" y2="46.362" />
      <line id="6,67" x1="107.864" y1="60.712" x2="122.851" y2="61.348" />
      <line id="7,66" x1="107.228" y1="75.698" x2="122.214" y2="76.335" />
      <line id="10,25" x1="70.321" y1="101.554" x2="69.049" y2="116.500" />
      <line id="11,24" x1="55.375" y1="100.282" x2="54.103" y2="115.228" />
      <line id="12,23" x1="40.429" y1="99.010" x2="39.157" y2="113.956" />
      <line id="13,22" x1="25.483" y1="97.738" x2="24.211" y2="112.684" />
      <line id="27,43" x1="87.466" y1="140.327" x2="102.250" y2="142.862" />
      <line id="28,42" x1="84.931" y1="155.112" x2="99.715" y2="157.647" />
      <line id="29,41" x1="82.396" y1="169.896" x2="97.180" y2="172.431" />
      <line id="30,40" x1="79.861" y1="184.680" x2="94.645" y2="187.215" />
      <line id="31,39" x1="77.326" y1="199.464" x2="92.110" y2="201.999" />
      <line id="49,65" x1="135.167" y1="101.360" x2="133.262" y2="86.482" />
      <line id="50,64" x1="150.045" y1="99.455" x2="148.140" y2="84.577" />
      <line id="51,63" x1="164.924" y1="97.550" x2="163.019" y2="82.671" />
      <line id="52,62" x1="179.802" y1="95.645" x2="177.897" y2="80.766" />
      <line id="53,61" x1="194.681" y1="93.739" x2="192.776" y2="78.861" />
    </g>
    <g style="font-family: SansSerif" transform="translate(-4.6, 4)" id="seq">
      <text x="111.048" y="-14.221">U</text>
      <text x="110.411" y="0.766">A</text>
      <text x="109.774" y="15.752">G</text>
      <text x="109.138" y="30.739">A</text>
      <text x="108.501" y="45.725">C</text>
      <text x="107.864" y="60.712">A</text>
      <text x="107.228" y="75.698">G</text>
      <text x="90.287" y="78.123">A</text>
      <text x="77.119" y="87.690">G</text>
      <text x="70.321" y="101.554">G</text>
      <text x="55.375" y="100.282">C</text>
      <text x="40.429" y="99.010">C</text>
      <text x="25.483" y="97.738">U</text>
      <text x="17.575" y="84.387">G</text>
      <text x="3.317" y="78.265">U</text>
      <text x="-11.809" y="81.725">U</text>
      <text x="-21.987" y="93.438">G</text>
      <text x="-23.303" y="108.899">G</text>
      <text x="-15.251" y="122.164">U</text>
      <text x="-0.927" y="128.131">U</text>
      <text x="14.160" y="124.507">U</text>
      <text x="24.211" y="112.684">G</text>
      <text x="39.157" y="113.956">G</text>
      <text x="54.103" y="115.228">G</text>
      <text x="69.049" y="116.500">C</text>
      <text x="75.207" y="130.771">A</text>
      <text x="87.466" y="140.327">U</text>
      <text x="84.931" y="155.112">C</text>
      <text x="82.396" y="169.896">U</text>
      <text x="79.861" y="184.680">A</text>
      <text x="77.326" y="199.464">G</text>
      <text x="63.730" y="207.190">C</text>
      <text x="58.330" y="221.865">U</text>
      <text x="63.675" y="236.561">G</text>
      <text x="77.241" y="244.339">U</text>
      <text x="92.623" y="241.525">U</text>
      <text x="102.559" y="229.449">A</text>
      <text x="102.356" y="213.813">A</text>
      <text x="92.110" y="201.999">C</text>
      <text x="94.645" y="187.215">U</text>
      <text x="97.180" y="172.431">A</text>
      <text x="99.715" y="157.647">G</text>
      <text x="102.250" y="142.862">G</text>
      <text x="111.619" y="141.657">G</text>
      <text x="120.452" y="137.634">G</text>
      <text x="127.899" y="131.011">A</text>
      <text x="133.196" y="122.264">U</text>
      <text x="135.744" y="112.092">U</text>
      <text x="135.167" y="101.360">G</text>
      <text x="150.045" y="99.455">U</text>
      <text x="164.924" y="97.550">G</text>
      <text x="179.802" y="95.645">G</text>
      <text x="194.681" y="93.739">G</text>
      <text x="206.049" y="104.477">A</text>
      <text x="221.663" y="105.343">U</text>
      <text x="234.149" y="95.929">C</text>
      <text x="237.613" y="80.680">G</text>
      <text x="230.419" y="66.796">A</text>
      <text x="215.963" y="60.832">G</text>
      <text x="201.071" y="65.605">G</text>
      <text x="192.776" y="78.861">C</text>
      <text x="177.897" y="80.766">C</text>
      <text x="163.019" y="82.671">C</text>
      <text x="148.140" y="84.577">A</text>
      <text x="133.262" y="86.482">C</text>
      <text x="122.214" y="76.335">C</text>
      <text x="122.851" y="61.348">U</text>
      <text x="123.488" y="46.362">G</text>
      <text x="124.124" y="31.376">U</text>
      <text x="124.761" y="16.389">C</text>
      <text x="125.397" y="1.403">U</text>
      <text x="126.034" y="-13.584">A</text>
      <text x="129.040" y="-32.731">G</text>
    </g>
  </g>
</svg>
