<?xml version="1.0" encoding="UTF-8" standalone="yes"?>
<svg xmlns="http://www.w3.org/2000/svg" height="452" width="452">
<script type="text/ecmascript">
      <![CDATA[
        var shown = 1;
        function click() {
             var seq = document.getElementById("seq");
             if (shown==1) {
               seq.setAttribute("style", "visibility: hidden");
               shown = 0;
             } else {
               seq.setAttribute("style", "visibility: visible");
               shown = 1;
             }
         }
        ]]>
</script>
  <rect style="stroke: white; fill: white" height="452" x="0" y="0" width="452" onclick="click(evt)" />
  <g transform="scale(1.586927,1.586927) translate(32.647423,36.516289)">
    <polyline style="stroke: black; fill: none; stroke-width: 1.5" id="outline" points="
      111.434,-13.049
      110.761,1.935
      110.088,16.920
      109.415,31.905
      108.742,46.890
      108.069,61.875
      107.396,76.860
      90.905,79.110
      78.056,88.306
      71.370,101.688
      56.430,100.343
      41.490,98.998
      26.551,97.654
      16.616,85.363
      0.891,83.780
      -11.294,93.844
      -12.711,109.585
      -2.519,121.663
      13.236,122.913
      25.206,112.593
      40.146,113.938
      55.085,115.283
      70.025,116.627
      75.843,130.188
      87.367,139.404
      84.689,154.163
      82.010,168.922
      79.332,183.681
      76.654,198.440
      62.984,206.033
      57.441,220.655
      62.643,235.402
      76.133,243.311
      91.542,240.647
      101.594,228.668
      101.543,213.031
      91.413,201.118
      94.091,186.359
      96.769,171.600
      99.448,156.841
      102.126,142.082
      112.843,140.482
      122.666,135.087
      130.255,126.341
      134.476,115.161
      134.568,102.838
      149.507,101.494
      164.447,100.149
      179.387,98.805
      194.326,97.460
      206.296,107.780
      222.051,106.530
      232.243,94.451
      230.827,78.711
      218.641,68.646
      202.917,70.229
      192.982,82.520
      178.042,83.865
      163.102,85.210
      148.163,86.554
      133.223,87.899
      122.381,77.533
      123.054,62.548
      123.727,47.563
      124.400,32.578
      125.073,17.593
      125.746,2.608
      126.419,-12.376
      129.472,-31.516
    " />
    <g style="stroke: black; stroke-width: 1" id="pairs">
      <line id="1,68" x1="111.434" y1="-13.049" x2="126.419" y2="-12.376" />
      <line id="2,67" x1="110.761" y1=" 1.935" x2="125.746" y2=" 2.608" />
      <line id="3,66" x1="110.088" y1="16.920" x2="125.073" y2="17.593" />
      <line id="4,65" x1="109.415" y1="31.905" x2="124.400" y2="32.578" />
      <line id="5,64" x1="108.742" y1="46.890" x2="123.727" y2="47.563" />
      <line id="6,63" x1="108.069" y1="61.875" x2="123.054" y2="62.548" />
      <line id="7,62" x1="107.396" y1="76.860" x2="122.381" y2="77.533" />
      <line id="10,23" x1="71.370" y1="101.688" x2="70.025" y2="116.627" />
      <line id="11,22" x1="56.430" y1="100.343" x2="55.085" y2="115.283" />
      <line id="12,21" x1="41.490" y1="98.998" x2="40.146" y2="113.938" />
      <line id="13,20" x1="26.551" y1="97.654" x2="25.206" y2="112.593" />
      <line id="25,41" x1="87.367" y1="139.404" x2="102.126" y2="142.082" />
      <line id="26,40" x1="84.689" y1="154.163" x2="99.448" y2="156.841" />
      <line id="27,39" x1="82.010" y1="168.922" x2="96.769" y2="171.600" />
      <line id="28,38" x1="79.332" y1="183.681" x2="94.091" y2="186.359" />
      <line id="29,37" x1="76.654" y1="198.440" x2="91.413" y2="201.118" />
      <line id="46,61" x1="134.568" y1="102.838" x2="133.223" y2="87.899" />
      <line id="47,60" x1="149.507" y1="101.494" x2="148.163" y2="86.554" />
      <line id="48,59" x1="164.447" y1="100.149" x2="163.102" y2="85.210" />
      <line id="49,58" x1="179.387" y1="98.805" x2="178.042" y2="83.865" />
      <line id="50,57" x1="194.326" y1="97.460" x2="192.982" y2="82.520" />
    </g>
    <g style="font-family: SansSerif" transform="translate(-4.6, 4)" id="seq">
      <text x="111.434" y="-13.049">C</text>
      <text x="110.761" y="1.935">A</text>
      <text x="110.088" y="16.920">G</text>
      <text x="109.415" y="31.905">A</text>
      <text x="108.742" y="46.890">A</text>
      <text x="108.069" y="61.875">A</text>
      <text x="107.396" y="76.860">G</text>
      <text x="90.905" y="79.110">U</text>
      <text x="78.056" y="88.306">A</text>
      <text x="71.370" y="101.688">G</text>
      <text x="56.430" y="100.343">U</text>
      <text x="41.490" y="98.998">U</text>
      <text x="26.551" y="97.654">U</text>
      <text x="16.616" y="85.363">A</text>
      <text x="0.891" y="83.780">A</text>
      <text x="-11.294" y="93.844">U</text>
      <text x="-12.711" y="109.585">A</text>
      <text x="-2.519" y="121.663">U</text>
      <text x="13.236" y="122.913">A</text>
      <text x="25.206" y="112.593">A</text>
      <text x="40.146" y="113.938">A</text>
      <text x="55.085" y="115.283">A</text>
      <text x="70.025" y="116.627">U</text>
      <text x="75.843" y="130.188">A</text>
      <text x="87.367" y="139.404">C</text>
      <text x="84.689" y="154.163">C</text>
      <text x="82.010" y="168.922">A</text>
      <text x="79.332" y="183.681">G</text>
      <text x="76.654" y="198.440">C</text>
      <text x="62.984" y="206.033">U</text>
      <text x="57.441" y="220.655">U</text>
      <text x="62.643" y="235.402">U</text>
      <text x="76.133" y="243.311">G</text>
      <text x="91.542" y="240.647">G</text>
      <text x="101.594" y="228.668">G</text>
      <text x="101.543" y="213.031">A</text>
      <text x="91.413" y="201.118">G</text>
      <text x="94.091" y="186.359">U</text>
      <text x="96.769" y="171.600">U</text>
      <text x="99.448" y="156.841">G</text>
      <text x="102.126" y="142.082">G</text>
      <text x="112.843" y="140.482">U</text>
      <text x="122.666" y="135.087">G</text>
      <text x="130.255" y="126.341">A</text>
      <text x="134.476" y="115.161">U</text>
      <text x="134.568" y="102.838">A</text>
      <text x="149.507" y="101.494">G</text>
      <text x="164.447" y="100.149">A</text>
      <text x="179.387" y="98.805">G</text>
      <text x="194.326" y="97.460">G</text>
      <text x="206.296" y="107.780">U</text>
      <text x="222.051" y="106.530">U</text>
      <text x="232.243" y="94.451">A</text>
      <text x="230.827" y="78.711">A</text>
      <text x="218.641" y="68.646">G</text>
      <text x="202.917" y="70.229">U</text>
      <text x="192.982" y="82.520">C</text>
      <text x="178.042" y="83.865">C</text>
      <text x="163.102" y="85.210">U</text>
      <text x="148.163" y="86.554">U</text>
      <text x="133.223" y="87.899">U</text>
      <text x="122.381" y="77.533">U</text>
      <text x="123.054" y="62.548">U</text>
      <text x="123.727" y="47.563">U</text>
      <text x="124.400" y="32.578">U</text>
      <text x="125.073" y="17.593">C</text>
      <text x="125.746" y="2.608">U</text>
      <text x="126.419" y="-12.376">G</text>
      <text x="129.472" y="-31.516">A</text>
    </g>
  </g>
</svg>
