<?xml version="1.0" encoding="UTF-8" standalone="yes"?>
<svg xmlns="http://www.w3.org/2000/svg" height="452" width="452">
<script type="text/ecmascript">
      <![CDATA[
        var shown = 1;
        function click() {
             var seq = document.getElementById("seq");
             if (shown==1) {
               seq.setAttribute("style", "visibility: hidden");
               shown = 0;
             } else {
               seq.setAttribute("style", "visibility: visible");
               shown = 1;
             }
         }
        ]]>
</script>
  <rect style="stroke: white; fill: white" height="452" x="0" y="0" width="452" onclick="click(evt)" />
  <g transform="scale(1.706355,1.706355) translate(1.197166,18.756386)">
    <polyline style="stroke: black; fill: none; stroke-width: 1.5" id="outline" points="
      114.051,4.674
      113.348,19.658
      112.645,34.641
      111.942,49.625
      111.239,64.608
      110.536,79.592
      109.833,94.575
      94.920,95.232
      82.464,102.003
      74.680,112.944
      60.176,109.119
      50.891,96.036
      34.865,95.283
      24.394,107.437
      27.508,123.175
      41.820,130.424
      56.351,123.623
      70.855,127.448
      73.139,138.691
      79.585,148.180
      72.187,161.229
      64.788,174.277
      57.390,187.326
      41.981,188.078
      29.438,197.060
      23.763,211.405
      26.767,226.537
      37.492,237.627
      52.515,241.136
      67.043,235.944
      76.439,223.708
      77.706,208.333
      70.439,194.724
      77.837,181.676
      85.235,168.627
      92.633,155.579
      104.345,157.230
      116.157,154.054
      126.096,146.253
      132.380,134.827
      133.729,121.451
      148.692,122.505
      163.655,123.559
      176.877,132.247
      190.117,125.423
      198.218,138.658
      212.564,144.572
      227.638,140.891
      237.644,129.031
      238.735,113.552
      230.490,100.407
      216.081,94.649
      201.048,98.493
      191.171,110.461
      179.019,101.848
      164.709,108.596
      149.746,107.542
      134.783,106.488
      124.816,95.278
      125.519,80.295
      126.222,65.311
      126.925,50.328
      127.628,35.344
      128.332,20.361
      129.035,5.377
      132.126,-13.756
    " />
    <g style="stroke: black; stroke-width: 1" id="pairs">
      <line id="1,65" x1="114.051" y1=" 4.674" x2="129.035" y2=" 5.377" />
      <line id="2,64" x1="113.348" y1="19.658" x2="128.332" y2="20.361" />
      <line id="3,63" x1="112.645" y1="34.641" x2="127.628" y2="35.344" />
      <line id="4,62" x1="111.942" y1="49.625" x2="126.925" y2="50.328" />
      <line id="5,61" x1="111.239" y1="64.608" x2="126.222" y2="65.311" />
      <line id="6,60" x1="110.536" y1="79.592" x2="125.519" y2="80.295" />
      <line id="7,59" x1="109.833" y1="94.575" x2="124.816" y2="95.278" />
      <line id="10,18" x1="74.680" y1="112.944" x2="70.855" y2="127.448" />
      <line id="11,17" x1="60.176" y1="109.119" x2="56.351" y2="123.623" />
      <line id="20,36" x1="79.585" y1="148.180" x2="92.633" y2="155.579" />
      <line id="21,35" x1="72.187" y1="161.229" x2="85.235" y2="168.627" />
      <line id="22,34" x1="64.788" y1="174.277" x2="77.837" y2="181.676" />
      <line id="23,33" x1="57.390" y1="187.326" x2="70.439" y2="194.724" />
      <line id="41,58" x1="133.729" y1="121.451" x2="134.783" y2="106.488" />
      <line id="42,57" x1="148.692" y1="122.505" x2="149.746" y2="107.542" />
      <line id="43,56" x1="163.655" y1="123.559" x2="164.709" y2="108.596" />
      <line id="45,54" x1="190.117" y1="125.423" x2="191.171" y2="110.461" />
    </g>
    <g style="font-family: SansSerif" transform="translate(-4.6, 4)" id="seq">
      <text x="114.051" y="4.674">G</text>
      <text x="113.348" y="19.658">A</text>
      <text x="112.645" y="34.641">G</text>
      <text x="111.942" y="49.625">G</text>
      <text x="111.239" y="64.608">G</text>
      <text x="110.536" y="79.592">G</text>
      <text x="109.833" y="94.575">A</text>
      <text x="94.920" y="95.232">G</text>
      <text x="82.464" y="102.003">G</text>
      <text x="74.680" y="112.944">U</text>
      <text x="60.176" y="109.119">U</text>
      <text x="50.891" y="96.036">A</text>
      <text x="34.865" y="95.283">A</text>
      <text x="24.394" y="107.437">A</text>
      <text x="27.508" y="123.175">C</text>
      <text x="41.820" y="130.424">C</text>
      <text x="56.351" y="123.623">A</text>
      <text x="70.855" y="127.448">A</text>
      <text x="73.139" y="138.691">C</text>
      <text x="79.585" y="148.180">A</text>
      <text x="72.187" y="161.229">A</text>
      <text x="64.788" y="174.277">G</text>
      <text x="57.390" y="187.326">A</text>
      <text x="41.981" y="188.078">A</text>
      <text x="29.438" y="197.060">C</text>
      <text x="23.763" y="211.405">U</text>
      <text x="26.767" y="226.537">G</text>
      <text x="37.492" y="237.627">C</text>
      <text x="52.515" y="241.136">U</text>
      <text x="67.043" y="235.944">A</text>
      <text x="76.439" y="223.708">A</text>
      <text x="77.706" y="208.333">C</text>
      <text x="70.439" y="194.724">U</text>
      <text x="77.837" y="181.676">C</text>
      <text x="85.235" y="168.627">U</text>
      <text x="92.633" y="155.579">U</text>
      <text x="104.345" y="157.230">G</text>
      <text x="116.157" y="154.054">C</text>
      <text x="126.096" y="146.253">A</text>
      <text x="132.380" y="134.827">U</text>
      <text x="133.729" y="121.451">C</text>
      <text x="148.692" y="122.505">U</text>
      <text x="163.655" y="123.559">G</text>
      <text x="176.877" y="132.247">A</text>
      <text x="190.117" y="125.423">G</text>
      <text x="198.218" y="138.658">C</text>
      <text x="212.564" y="144.572">C</text>
      <text x="227.638" y="140.891">U</text>
      <text x="237.644" y="129.031">A</text>
      <text x="238.735" y="113.552">A</text>
      <text x="230.490" y="100.407">A</text>
      <text x="216.081" y="94.649">A</text>
      <text x="201.048" y="98.493">C</text>
      <text x="191.171" y="110.461">C</text>
      <text x="179.019" y="101.848">C</text>
      <text x="164.709" y="108.596">C</text>
      <text x="149.746" y="107.542">A</text>
      <text x="134.783" y="106.488">G</text>
      <text x="124.816" y="95.278">U</text>
      <text x="125.519" y="80.295">C</text>
      <text x="126.222" y="65.311">C</text>
      <text x="126.925" y="50.328">C</text>
      <text x="127.628" y="35.344">C</text>
      <text x="128.332" y="20.361">U</text>
      <text x="129.035" y="5.377">U</text>
      <text x="132.126" y="-13.756">A</text>
    </g>
  </g>
</svg>
