<?xml version="1.0" encoding="UTF-8" standalone="yes"?>
<svg xmlns="http://www.w3.org/2000/svg" height="452" width="452">
<script type="text/ecmascript">
      <![CDATA[
        var shown = 1;
        function click() {
             var seq = document.getElementById("seq");
             if (shown==1) {
               seq.setAttribute("style", "visibility: hidden");
               shown = 0;
             } else {
               seq.setAttribute("style", "visibility: visible");
               shown = 1;
             }
         }
        ]]>
</script>
  <rect style="stroke: white; fill: white" height="452" x="0" y="0" width="452" onclick="click(evt)" />
  <g transform="scale(1.629917,1.629917) translate(21.426270,29.267487)">
    <polyline style="stroke: black; fill: none; stroke-width: 1.5" id="outline" points="
      113.024,-5.789
      112.360,9.196
      111.697,24.181
      111.033,39.167
      110.370,54.152
      109.706,69.137
      109.043,84.123
      93.063,85.382
      80.009,93.277
      72.304,105.540
      57.600,102.573
      42.896,99.606
      28.193,96.639
      16.258,85.392
      0.630,90.363
      -2.614,106.438
      9.863,117.081
      25.226,111.342
      39.929,114.309
      54.633,117.276
      69.337,120.243
      72.867,133.138
      81.543,143.310
      75.726,157.136
      69.910,170.963
      64.093,184.789
      58.276,198.615
      43.284,203.062
      34.701,216.133
      36.579,231.657
      48.032,242.305
      63.652,243.047
      76.064,233.535
      79.406,218.259
      72.102,204.432
      77.919,190.606
      83.736,176.779
      89.553,162.953
      95.369,149.127
      105.477,149.852
      115.546,147.212
      124.458,141.317
      131.165,132.647
      134.814,122.019
      134.849,110.506
      149.845,110.174
      164.841,109.842
      179.838,109.510
      187.741,122.680
      201.178,130.119
      216.534,129.828
      229.678,121.883
      237.076,108.423
      236.736,93.068
      228.751,79.948
      215.267,72.593
      199.913,72.981
      186.819,81.008
      179.506,94.514
      164.510,94.846
      149.513,95.178
      134.517,95.509
      124.028,84.786
      124.692,69.801
      125.355,54.816
      126.019,39.830
      126.682,24.845
      127.346,9.860
      128.009,-5.126
      131.050,-24.267
    " />
    <g style="stroke: black; stroke-width: 1" id="pairs">
      <line id="1,69" x1="113.024" y1="-5.789" x2="128.009" y2="-5.126" />
      <line id="2,68" x1="112.360" y1=" 9.196" x2="127.346" y2=" 9.860" />
      <line id="3,67" x1="111.697" y1="24.181" x2="126.682" y2="24.845" />
      <line id="4,66" x1="111.033" y1="39.167" x2="126.019" y2="39.830" />
      <line id="5,65" x1="110.370" y1="54.152" x2="125.355" y2="54.816" />
      <line id="6,64" x1="109.706" y1="69.137" x2="124.692" y2="69.801" />
      <line id="7,63" x1="109.043" y1="84.123" x2="124.028" y2="84.786" />
      <line id="10,21" x1="72.304" y1="105.540" x2="69.337" y2="120.243" />
      <line id="11,20" x1="57.600" y1="102.573" x2="54.633" y2="117.276" />
      <line id="12,19" x1="42.896" y1="99.606" x2="39.929" y2="114.309" />
      <line id="13,18" x1="28.193" y1="96.639" x2="25.226" y2="111.342" />
      <line id="23,39" x1="81.543" y1="143.310" x2="95.369" y2="149.127" />
      <line id="24,38" x1="75.726" y1="157.136" x2="89.553" y2="162.953" />
      <line id="25,37" x1="69.910" y1="170.963" x2="83.736" y2="176.779" />
      <line id="26,36" x1="64.093" y1="184.789" x2="77.919" y2="190.606" />
      <line id="27,35" x1="58.276" y1="198.615" x2="72.102" y2="204.432" />
      <line id="45,62" x1="134.849" y1="110.506" x2="134.517" y2="95.509" />
      <line id="46,61" x1="149.845" y1="110.174" x2="149.513" y2="95.178" />
      <line id="47,60" x1="164.841" y1="109.842" x2="164.510" y2="94.846" />
      <line id="48,59" x1="179.838" y1="109.510" x2="179.506" y2="94.514" />
    </g>
    <g style="font-family: SansSerif" transform="translate(-4.6, 4)" id="seq">
      <text x="113.024" y="-5.789">A</text>
      <text x="112.360" y="9.196">C</text>
      <text x="111.697" y="24.181">U</text>
      <text x="111.033" y="39.167">C</text>
      <text x="110.370" y="54.152">U</text>
      <text x="109.706" y="69.137">A</text>
      <text x="109.043" y="84.123">A</text>
      <text x="93.063" y="85.382">U</text>
      <text x="80.009" y="93.277">A</text>
      <text x="72.304" y="105.540">G</text>
      <text x="57.600" y="102.573">U</text>
      <text x="42.896" y="99.606">U</text>
      <text x="28.193" y="96.639">U</text>
      <text x="16.258" y="85.392">A</text>
      <text x="0.630" y="90.363">U</text>
      <text x="-2.614" y="106.438">A</text>
      <text x="9.863" y="117.081">A</text>
      <text x="25.226" y="111.342">A</text>
      <text x="39.929" y="114.309">A</text>
      <text x="54.633" y="117.276">A</text>
      <text x="69.337" y="120.243">C</text>
      <text x="72.867" y="133.138">A</text>
      <text x="81.543" y="143.310">U</text>
      <text x="75.726" y="157.136">U</text>
      <text x="69.910" y="170.963">G</text>
      <text x="64.093" y="184.789">G</text>
      <text x="58.276" y="198.615">U</text>
      <text x="43.284" y="203.062">C</text>
      <text x="34.701" y="216.133">U</text>
      <text x="36.579" y="231.657">U</text>
      <text x="48.032" y="242.305">G</text>
      <text x="63.652" y="243.047">U</text>
      <text x="76.064" y="233.535">A</text>
      <text x="79.406" y="218.259">A</text>
      <text x="72.102" y="204.432">A</text>
      <text x="77.919" y="190.606">C</text>
      <text x="83.736" y="176.779">C</text>
      <text x="89.553" y="162.953">A</text>
      <text x="95.369" y="149.127">A</text>
      <text x="105.477" y="149.852">A</text>
      <text x="115.546" y="147.212">G</text>
      <text x="124.458" y="141.317">A</text>
      <text x="131.165" y="132.647">A</text>
      <text x="134.814" y="122.019">U</text>
      <text x="134.849" y="110.506">G</text>
      <text x="149.845" y="110.174">A</text>
      <text x="164.841" y="109.842">A</text>
      <text x="179.838" y="109.510">G</text>
      <text x="187.741" y="122.680">A</text>
      <text x="201.178" y="130.119">C</text>
      <text x="216.534" y="129.828">U</text>
      <text x="229.678" y="121.883">U</text>
      <text x="237.076" y="108.423">A</text>
      <text x="236.736" y="93.068">U</text>
      <text x="228.751" y="79.948">A</text>
      <text x="215.267" y="72.593">C</text>
      <text x="199.913" y="72.981">C</text>
      <text x="186.819" y="81.008">C</text>
      <text x="179.506" y="94.514">C</text>
      <text x="164.510" y="94.846">U</text>
      <text x="149.513" y="95.178">U</text>
      <text x="134.517" y="95.509">C</text>
      <text x="124.028" y="84.786">U</text>
      <text x="124.692" y="69.801">U</text>
      <text x="125.355" y="54.816">A</text>
      <text x="126.019" y="39.830">G</text>
      <text x="126.682" y="24.845">A</text>
      <text x="127.346" y="9.860">G</text>
      <text x="128.009" y="-5.126">U</text>
      <text x="131.050" y="-24.267">U</text>
    </g>
  </g>
</svg>
