<?xml version="1.0" encoding="UTF-8" standalone="yes"?>
<svg xmlns="http://www.w3.org/2000/svg" height="452" width="452">
<script type="text/ecmascript">
      <![CDATA[
        var shown = 1;
        function click() {
             var seq = document.getElementById("seq");
             if (shown==1) {
               seq.setAttribute("style", "visibility: hidden");
               shown = 0;
             } else {
               seq.setAttribute("style", "visibility: visible");
               shown = 1;
             }
         }
        ]]>
</script>
  <rect style="stroke: white; fill: white" height="452" x="0" y="0" width="452" onclick="click(evt)" />
  <g transform="scale(0.265890,0.265890) translate(446.465210,696.583618)">
    <polyline style="stroke: black; fill: none; stroke-width: 1.5" id="outline" points="
      96.160,92.737
      95.786,107.733
      95.412,122.728
      87.914,122.541
      86.719,107.589
      85.523,92.636
      92.136,78.263
      83.409,66.193
      94.675,55.349
      96.283,39.794
      87.474,26.874
      72.407,22.689
      58.196,29.215
      51.551,43.370
      55.611,58.472
      68.457,67.389
      61.758,80.692
      70.571,93.832
      71.767,108.784
      72.962,123.737
      62.217,138.119
      55.747,153.311
      53.427,168.254
      40.773,160.199
      33.286,146.262
      18.394,145.956
      5.740,137.901
      -6.914,129.847
      -19.568,121.793
      -32.223,113.739
      -44.877,105.684
      -45.674,83.028
      -71.580,69.324
      -82.761,59.324
      -93.941,49.324
      -92.019,32.459
      -100.485,17.939
      -115.802,11.436
      -131.804,15.348
      -142.951,5.312
      -138.256,-4.562
      -138.236,-16.564
      -143.771,-28.411
      -154.617,-37.505
      -169.325,-41.479
      -179.380,-52.609
      -189.436,-63.740
      -192.806,-72.091
      -199.543,-74.891
      -209.636,-85.988
      -219.728,-97.085
      -204.920,-116.203
      -205.972,-145.752
      -228.774,-172.377
      -234.370,-186.294
      -231.526,-202.445
      -244.263,-212.774
      -259.478,-206.656
      -261.520,-190.385
      -248.287,-180.698
      -242.691,-166.781
      -249.051,-162.807
      -257.000,-175.528
      -264.949,-188.248
      -277.669,-180.299
      -269.721,-167.579
      -261.772,-154.858
      -268.132,-150.884
      -278.188,-162.014
      -288.243,-173.145
      -281.600,-178.138
      -276.100,-185.385
      -272.436,-194.581
      -271.213,-205.221
      -272.891,-216.629
      -277.738,-227.997
      -285.796,-238.439
      -296.862,-247.059
      -305.394,-259.396
      -313.926,-271.733
      -308.425,-284.293
      -309.805,-297.827
      -317.603,-308.843
      -329.714,-314.550
      -342.959,-313.567
      -351.532,-325.876
      -360.105,-338.185
      -368.678,-350.493
      -365.648,-366.005
      -374.543,-379.068
      -390.085,-381.933
      -403.054,-372.901
      -405.755,-357.329
      -396.586,-344.457
      -380.986,-341.920
      -372.413,-329.612
      -363.840,-317.303
      -355.267,-304.994
      -361.139,-289.603
      -356.591,-273.597
      -343.237,-263.391
      -326.264,-263.201
      -317.732,-250.864
      -309.199,-238.527
      -314.921,-233.677
      -324.620,-245.119
      -336.062,-235.420
      -326.363,-223.978
      -332.084,-219.129
      -342.857,-229.566
      -353.630,-240.004
      -346.959,-253.582
      -344.813,-268.557
      -347.401,-283.462
      -354.470,-296.837
      -365.328,-307.371
      -378.910,-314.032
      -393.887,-316.169
      -408.790,-313.570
      -422.160,-306.492
      -432.687,-295.628
      -439.339,-282.041
      -441.465,-267.063
      -438.857,-252.162
      -431.770,-238.796
      -420.898,-228.277
      -407.307,-221.634
      -392.328,-219.517
      -377.428,-222.135
      -364.068,-229.231
      -353.295,-218.794
      -342.522,-208.356
      -347.353,-202.619
      -357.014,-191.144
      -361.844,-185.407
      -373.965,-194.244
      -374.486,-207.627
      -382.472,-218.137
      -394.856,-222.108
      -407.094,-218.316
      -416.377,-232.502
      -432.579,-227.508
      -432.266,-210.557
      -415.890,-206.166
      -413.900,-189.410
      -400.097,-179.124
      -382.802,-182.123
      -370.681,-173.286
      -345.397,-151.613
      -317.634,-150.006
      -299.374,-163.089
      -289.318,-151.959
      -279.263,-140.828
      -283.919,-134.949
      -298.759,-137.136
      -293.233,-123.190
      -297.889,-117.311
      -311.027,-124.551
      -319.040,-138.858
      -335.439,-138.802
      -343.354,-124.439
      -334.642,-110.545
      -318.266,-111.413
      -305.129,-104.174
      -296.508,-90.601
      -285.174,-80.712
      -272.425,-74.904
      -259.558,-73.167
      -247.749,-75.108
      -237.954,-80.025
      -230.825,-86.992
      -220.733,-75.895
      -210.640,-64.798
      -200.566,-53.684
      -190.511,-42.554
      -180.455,-31.423
      -184.355,-25.017
      -197.168,-32.818
      -209.980,-40.618
      -222.793,-48.418
      -230.592,-35.605
      -217.780,-27.805
      -204.968,-20.005
      -192.156,-12.205
      -196.056,-5.799
      -210.561,-9.621
      -225.066,-13.443
      -239.570,-17.265
      -244.413,-26.826
      -253.494,-32.097
      -263.763,-31.580
      -271.915,-25.679
      -286.445,-29.404
      -300.975,-33.130
      -315.505,-36.855
      -330.035,-40.581
      -341.371,-52.431
      -357.235,-48.277
      -361.308,-32.392
      -349.400,-21.117
      -333.760,-26.051
      -319.230,-22.325
      -304.700,-18.600
      -290.170,-14.874
      -275.640,-11.149
      -262.699,3.314
      -243.393,-2.760
      -228.888,1.062
      -214.383,4.884
      -199.878,8.706
      -175.366,24.440
      -152.988,16.459
      -141.841,26.496
      -144.462,39.515
      -140.306,52.242
      -130.345,61.349
      -117.088,64.401
      -103.941,60.504
      -92.760,70.504
      -81.580,80.504
      -84.016,87.597
      -98.738,90.472
      -88.888,101.784
      -91.323,108.878
      -106.289,109.899
      -121.254,110.921
      -136.219,111.942
      -151.184,112.964
      -166.169,113.637
      -181.166,113.961
      -196.162,114.285
      -201.630,100.147
      -211.606,88.734
      -224.885,81.424
      -239.864,79.099
      -254.734,82.041
      -267.700,89.895
      -277.195,101.710
      -282.073,116.062
      -281.746,131.217
      -276.252,145.345
      -266.255,156.740
      -252.962,164.025
      -237.979,166.322
      -223.114,163.353
      -210.163,155.476
      -200.690,143.642
      -195.838,129.281
      -180.841,128.957
      -165.845,128.633
      -179.380,135.099
      -189.423,146.241
      -194.454,160.372
      -193.712,175.353
      -187.308,188.918
      -176.213,199.012
      -162.105,204.108
      -147.120,203.435
      -133.526,197.094
      -123.381,186.045
      -118.220,171.961
      -118.824,156.973
      -125.102,143.350
      -136.104,133.154
      -150.163,127.929
      -135.197,126.907
      -120.232,125.886
      -105.267,124.864
      -90.302,123.843
      -67.721,128.809
      -52.931,118.339
      -40.277,126.393
      -27.623,134.447
      -14.968,142.501
      -2.314,150.556
      10.340,158.610
      16.922,171.971
      32.719,172.854
      45.373,180.908
      41.071,193.326
      39.555,206.379
      40.895,219.453
      45.029,231.927
      51.762,243.213
      60.775,252.778
      52.532,265.310
      44.289,277.842
      36.047,290.375
      32.359,285.976
      27.212,282.367
      20.794,279.930
      13.385,279.004
      5.342,279.857
      -2.915,282.677
      -10.921,287.553
      -21.934,297.738
      -32.946,307.922
      -43.959,318.106
      -60.567,314.598
      -75.822,321.652
      -83.746,336.285
      -81.364,352.585
      -92.411,362.732
      -101.015,357.200
      -110.556,353.533
      -120.634,351.880
      -130.830,352.309
      -140.718,354.797
      -149.888,359.238
      -157.958,365.443
      -164.595,373.152
      -169.524,382.040
      -172.544,391.736
      -173.530,401.836
      -172.446,411.916
      -169.340,421.559
      -164.344,430.363
      -175.152,440.765
      -185.959,451.167
      -196.766,461.569
      -207.574,471.971
      -218.381,482.373
      -223.817,478.392
      -230.670,475.988
      -238.452,475.632
      -246.525,477.639
      -254.159,482.120
      -260.586,488.958
      -265.082,497.801
      -276.460,507.576
      -287.837,517.350
      -299.215,527.125
      -310.593,536.900
      -327.061,532.787
      -342.564,539.279
      -351.017,553.612
      -349.233,569.988
      -360.643,579.725
      -375.698,575.966
      -390.075,581.804
      -398.245,594.996
      -397.068,610.468
      -386.995,622.272
      -371.901,625.868
      -357.588,619.874
      -349.561,606.594
      -350.906,591.135
      -339.496,581.398
      -326.932,585.702
      -313.771,583.248
      -303.438,574.565
      -298.676,561.822
      -300.818,548.278
      -289.440,538.503
      -278.062,528.728
      -266.685,518.953
      -255.307,509.178
      -249.835,514.307
      -260.092,525.252
      -270.349,536.197
      -280.607,547.141
      -290.864,558.086
      -301.121,569.031
      -311.378,579.976
      -300.433,590.233
      -290.176,579.288
      -279.919,568.343
      -269.662,557.399
      -259.405,546.454
      -249.147,535.509
      -238.890,524.564
      -233.418,529.693
      -242.435,541.680
      -257.729,547.599
      -259.982,563.842
      -246.877,573.701
      -231.895,567.032
      -230.448,550.697
      -221.431,538.710
      -202.128,516.163
      -207.979,493.180
      -197.172,482.779
      -186.364,472.377
      -175.557,461.975
      -164.750,451.573
      -153.942,441.171
      -136.138,449.891
      -116.310,450.945
      -97.621,444.140
      -83.066,430.538
      -74.986,412.294
      -74.694,392.311
      -82.263,373.779
      -71.217,363.631
      -58.504,367.473
      -45.441,364.539
      -35.432,355.485
      -31.139,342.575
      -33.775,329.119
      -22.762,318.935
      -11.749,308.750
      -0.737,298.566
      5.610,302.562
      -2.380,315.256
      10.314,323.247
      18.305,310.553
      24.652,314.548
      20.230,328.882
      15.809,343.215
      11.388,357.549
      -0.073,368.455
      3.569,382.898
      -0.069,386.287
      -1.937,390.314
      -2.080,394.228
      -0.824,397.396
      -5.103,411.773
      -19.586,417.021
      -28.102,429.644
      -27.560,444.683
      -18.376,456.378
      -22.654,470.755
      -26.932,485.132
      -31.210,499.509
      -46.057,503.703
      -56.262,515.273
      -58.569,530.527
      -52.243,544.597
      -39.301,552.994
      -23.873,553.039
      -10.883,544.716
      -4.476,530.683
      -6.695,515.416
      -16.833,503.787
      -12.555,489.410
      -8.277,475.033
      -3.999,460.656
      10.086,455.885
      18.762,443.589
      18.532,428.364
      9.274,416.052
      13.552,401.675
      17.902,387.319
      29.047,377.438
      25.721,361.970
      30.143,347.637
      34.564,333.303
      38.985,318.970
      35.726,333.611
      35.095,348.598
      37.112,363.462
      41.715,377.738
      48.759,390.981
      58.025,402.777
      69.223,412.757
      82.003,420.611
      95.966,426.091
      110.675,429.028
      125.672,429.329
      140.488,426.985
      154.660,422.070
      167.745,414.736
      179.334,405.213
      189.066,393.799
      196.636,380.849
      201.809,366.769
      204.421,351.998
      204.392,336.998
      201.723,322.238
      196.497,308.178
      188.878,295.257
      179.102,283.880
      167.476,274.401
      154.363,267.118
      140.173,262.256
      125.348,259.969
      110.353,260.328
      95.654,263.321
      81.713,268.855
      68.963,276.757
      57.803,286.780
      48.579,298.617
      56.822,286.085
      65.064,273.553
      73.307,261.020
      88.121,266.055
      103.732,267.118
      106.508,281.859
      109.284,296.600
      112.061,311.341
      102.462,319.120
      97.067,330.157
      96.828,342.367
      101.728,353.475
      110.800,361.435
      122.313,364.811
      125.187,379.533
      128.061,394.255
      130.936,408.977
      125.101,424.303
      135.664,436.846
      151.759,433.704
      156.829,418.108
      145.658,406.102
      142.783,391.380
      139.909,376.658
      137.035,361.936
      149.682,349.471
      152.242,331.739
      143.484,315.927
      126.802,308.564
      124.025,293.823
      121.249,279.083
      118.472,264.342
      129.343,263.027
      140.262,259.616
      150.822,254.063
      160.602,246.399
      169.181,236.741
      176.161,225.287
      181.176,212.313
      183.911,198.168
      184.114,183.265
      198.781,186.408
      213.443,189.576
      228.099,192.768
      235.702,197.593
      242.810,195.945
      257.477,199.089
      272.144,202.232
      286.811,205.375
      301.478,208.518
      316.145,211.661
      330.812,214.804
      345.479,217.947
      347.361,238.875
      356.265,257.886
      371.108,272.702
      390.099,281.554
      410.950,283.391
      431.157,278.007
      448.296,266.061
      460.318,248.999
      474.568,253.682
      488.819,258.365
      503.069,263.047
      517.319,267.730
      501.880,290.514
      509.093,325.794
      544.887,354.747
      558.048,361.942
      571.210,369.138
      584.371,376.334
      597.532,383.530
      610.694,390.725
      623.855,397.921
      637.017,405.117
      650.166,412.334
      663.303,419.574
      660.419,431.604
      663.671,444.969
      673.520,456.477
      688.775,462.880
      690.992,478.545
      704.862,483.972
      713.959,495.899
      709.380,510.725
      714.422,525.400
      727.146,534.282
      742.659,533.954
      754.997,524.544
      759.415,509.669
      754.215,495.050
      741.395,486.307
      725.886,486.802
      716.789,474.876
      715.223,460.064
      700.701,453.783
      705.358,447.904
      717.117,457.217
      728.875,466.531
      740.634,475.844
      749.947,464.085
      738.188,454.772
      726.430,445.459
      714.671,436.145
      719.328,430.266
      733.021,436.390
      746.714,442.514
      760.407,448.638
      774.100,454.761
      787.793,460.885
      801.486,467.009
      800.516,476.057
      801.647,485.071
      804.811,493.573
      809.834,501.110
      816.443,507.284
      824.280,511.770
      832.924,514.334
      841.911,514.845
      850.763,513.282
      859.007,509.736
      866.206,504.400
      871.979,497.565
      885.811,503.369
      892.410,509.497
      899.698,509.168
      913.549,514.926
      917.733,519.782
      922.945,521.615
      927.512,520.675
      941.401,526.341
      955.290,532.006
      969.179,537.671
      983.039,543.406
      996.871,549.209
      1010.703,555.013
      1024.525,560.839
      1034.215,573.346
      1048.952,571.184
      1047.533,587.353
      1053.682,603.360
      1066.893,615.679
      1085.041,621.241
      1104.701,618.166
      1118.161,624.786
      1131.621,631.406
      1134.012,653.342
      1149.356,669.007
      1170.964,671.818
      1189.568,660.739
      1202.871,667.671
      1216.173,674.603
      1224.517,688.720
      1240.910,688.282
      1248.489,673.739
      1239.456,660.052
      1223.105,661.300
      1209.802,654.369
      1196.500,647.437
      1197.611,639.389
      1196.722,631.294
      1193.877,623.644
      1189.240,616.904
      1183.085,611.487
      1175.777,607.728
      1167.754,605.862
      1159.499,606.011
      1151.512,608.176
      1144.279,612.233
      1138.241,617.946
      1124.781,611.326
      1111.321,604.706
      1114.061,597.724
      1128.024,603.204
      1141.987,608.684
      1147.467,594.721
      1133.504,589.241
      1119.541,583.761
      1122.281,576.779
      1136.651,581.081
      1145.500,594.463
      1161.492,595.745
      1172.359,583.943
      1169.765,568.111
      1155.700,560.394
      1140.953,566.712
      1126.583,562.410
      1118.630,550.849
      1107.846,542.607
      1095.468,538.276
      1082.815,538.017
      1071.148,541.575
      1061.546,548.328
      1054.802,557.372
      1046.099,545.284
      1030.375,547.027
      1025.502,541.596
      1016.506,541.181
      1002.675,535.378
      988.843,529.574
      987.188,526.594
      984.070,524.224
      979.771,523.117
      974.844,523.782
      960.955,518.117
      947.066,512.452
      933.177,506.786
      919.307,501.075
      905.456,495.317
      891.614,489.537
      877.783,483.733
      876.438,462.856
      864.396,445.654
      845.098,437.182
      824.131,439.981
      807.610,453.316
      793.917,447.192
      780.224,441.068
      766.531,434.945
      752.838,428.821
      739.145,422.697
      725.452,416.573
      708.622,397.670
      686.384,395.112
      670.543,406.436
      657.405,399.197
      653.118,393.294
      644.212,391.955
      631.051,384.760
      617.889,377.564
      604.728,370.368
      591.567,363.172
      578.405,355.977
      565.244,348.781
      552.083,341.585
      553.446,334.210
      566.632,341.362
      577.508,331.032
      571.044,317.496
      556.174,319.460
      557.537,312.085
      572.402,310.072
      587.266,308.058
      602.130,306.045
      616.994,304.031
      633.502,307.897
      641.786,293.105
      629.865,281.049
      614.981,289.167
      600.117,291.181
      585.252,293.194
      570.388,295.208
      555.524,297.221
      553.891,289.901
      568.532,286.636
      583.172,283.371
      597.813,280.106
      608.859,269.959
      594.548,265.466
      579.907,268.731
      565.267,271.996
      550.627,275.261
      548.994,267.940
      563.306,263.448
      577.617,258.955
      591.928,254.462
      606.240,249.969
      620.551,245.477
      634.862,240.984
      648.754,248.520
      663.882,243.946
      671.271,229.976
      666.537,214.897
      652.489,207.656
      637.462,212.549
      630.370,226.673
      616.058,231.165
      601.747,235.658
      587.436,240.151
      573.124,244.644
      558.813,249.136
      544.501,253.629
      556.658,244.842
      563.089,231.290
      562.209,216.316
      554.234,203.612
      541.132,196.309
      526.132,196.210
      512.934,203.338
      504.792,215.936
      503.713,230.897
      509.964,244.532
      522.002,253.479
      507.752,248.797
      493.501,244.114
      479.251,239.432
      465.000,234.749
      465.898,228.315
      466.097,221.822
      465.595,215.345
      464.398,208.960
      462.520,202.741
      459.983,196.761
      472.529,188.539
      485.075,180.317
      500.859,179.225
      507.263,165.777
      519.809,157.555
      532.355,149.334
      546.402,155.711
      561.664,153.458
      573.271,143.295
      577.518,128.464
      573.051,113.697
      561.295,103.707
      546.001,101.682
      532.049,108.267
      523.893,121.362
      524.133,136.788
      511.587,145.009
      499.041,153.231
      484.155,153.736
      476.853,167.771
      464.307,175.993
      451.761,184.215
      444.288,176.794
      435.629,170.784
      426.050,166.372
      415.843,163.695
      405.318,162.837
      394.798,163.826
      384.605,166.635
      375.050,171.180
      366.429,177.324
      359.005,184.881
      353.007,193.622
      348.622,203.280
      333.955,200.137
      319.288,196.994
      304.621,193.851
      289.954,190.708
      275.287,187.565
      260.620,184.422
      245.953,181.278
      231.291,178.111
      216.634,174.919
      210.841,170.484
      201.924,171.741
      187.257,168.598
      184.093,161.798
      198.471,157.525
      212.850,153.251
      227.228,148.978
      242.169,150.310
      254.468,141.724
      258.367,127.240
      252.040,113.640
      238.449,107.292
      223.959,111.170
      215.354,123.458
      202.824,131.705
      190.295,139.952
      177.765,148.198
      174.601,141.398
      181.643,128.154
      188.685,114.910
      195.727,101.666
      202.769,88.422
      209.811,75.177
      223.983,80.178
      238.743,83.011
      253.759,83.612
      268.698,81.968
      283.224,78.117
      297.014,72.143
      309.760,64.180
      321.176,54.406
      331.009,43.040
      339.037,30.336
      345.082,16.577
      349.009,2.070
      350.729,-12.859
      350.206,-27.879
      347.449,-42.653
      342.521,-56.850
      335.533,-70.155
      326.639,-82.269
      316.039,-92.923
      303.969,-101.877
      290.700,-108.933
      276.527,-113.931
      261.767,-116.762
      246.751,-117.361
      231.812,-115.715
      217.286,-111.861
      203.497,-105.885
      190.752,-97.921
      179.337,-88.146
      169.507,-76.778
      161.480,-64.073
      155.437,-50.313
      151.512,-35.806
      149.794,-20.876
      150.320,-5.856
      153.078,8.917
      158.008,23.114
      164.999,36.418
      173.895,48.531
      184.496,59.183
      196.567,68.135
      189.525,81.380
      182.483,94.624
      175.441,107.868
      168.399,121.112
      161.357,134.356
      154.212,132.074
      158.776,117.786
      163.340,103.497
      167.904,89.208
      172.469,74.919
      177.033,60.630
      181.597,46.342
      186.161,32.053
      171.872,27.489
      167.308,41.778
      162.744,56.066
      158.180,70.355
      153.616,84.644
      149.052,98.933
      144.488,113.221
      139.924,127.510
      132.779,125.228
      134.718,110.354
      136.658,95.480
      138.597,80.606
      140.537,65.732
      142.476,50.858
      144.415,35.984
      146.355,21.110
      148.294,6.235
      150.233,-8.639
      160.624,-21.325
      154.581,-36.570
      138.319,-38.691
      128.568,-25.505
      135.359,-10.578
      133.420,4.296
      131.480,19.170
      129.541,34.044
      127.602,48.918
      125.662,63.792
      123.723,78.667
      121.784,93.541
      119.844,108.415
      117.905,123.289
      110.407,123.102
      110.781,108.107
      111.155,93.111
      111.529,78.116
      111.903,63.121
      104.729,49.947
      96.908,62.747
    " />
    <g style="stroke: black; stroke-width: 1" id="pairs">
      <line id="4,20" x1="87.914" y1="122.541" x2="72.962" y2="123.737" />
      <line id="5,19" x1="86.719" y1="107.589" x2="71.767" y2="108.784" />
      <line id="6,18" x1="85.523" y1="92.636" x2="70.571" y2="93.832" />
      <line id="8,16" x1="83.409" y1="66.193" x2="68.457" y2="67.389" />
      <line id="23,279" x1="53.427" y1="168.254" x2="45.373" y2="180.908" />
      <line id="24,278" x1="40.773" y1="160.199" x2="32.719" y2="172.854" />
      <line id="26,276" x1="18.394" y1="145.956" x2="10.340" y2="158.610" />
      <line id="27,275" x1=" 5.740" y1="137.901" x2="-2.314" y2="150.556" />
      <line id="28,274" x1="-6.914" y1="129.847" x2="-14.968" y2="142.501" />
      <line id="29,273" x1="-19.568" y1="121.793" x2="-27.623" y2="134.447" />
      <line id="30,272" x1="-32.223" y1="113.739" x2="-40.277" y2="126.393" />
      <line id="31,271" x1="-44.877" y1="105.684" x2="-52.931" y2="118.339" />
      <line id="33,220" x1="-71.580" y1="69.324" x2="-81.580" y2="80.504" />
      <line id="34,219" x1="-82.761" y1="59.324" x2="-92.760" y2="70.504" />
      <line id="35,218" x1="-93.941" y1="49.324" x2="-103.941" y2="60.504" />
      <line id="39,213" x1="-131.804" y1="15.348" x2="-141.841" y2="26.496" />
      <line id="40,212" x1="-142.951" y1=" 5.312" x2="-152.988" y2="16.459" />
      <line id="45,176" x1="-169.325" y1="-41.479" x2="-180.455" y2="-31.423" />
      <line id="46,175" x1="-179.380" y1="-52.609" x2="-190.511" y2="-42.554" />
      <line id="47,174" x1="-189.436" y1="-63.740" x2="-200.566" y2="-53.684" />
      <line id="49,173" x1="-199.543" y1="-74.891" x2="-210.640" y2="-64.798" />
      <line id="50,172" x1="-209.636" y1="-85.988" x2="-220.733" y2="-75.895" />
      <line id="51,171" x1="-219.728" y1="-97.085" x2="-230.825" y2="-86.992" />
      <line id="54,61" x1="-228.774" y1="-172.377" x2="-242.691" y2="-166.781" />
      <line id="55,60" x1="-234.370" y1="-186.294" x2="-248.287" y2="-180.698" />
      <line id="68,153" x1="-268.132" y1="-150.884" x2="-279.263" y2="-140.828" />
      <line id="69,152" x1="-278.188" y1="-162.014" x2="-289.318" y2="-151.959" />
      <line id="70,151" x1="-288.243" y1="-173.145" x2="-299.374" y2="-163.089" />
      <line id="78,104" x1="-296.862" y1="-247.059" x2="-309.199" y2="-238.527" />
      <line id="79,103" x1="-305.394" y1="-259.396" x2="-317.732" y2="-250.864" />
      <line id="80,102" x1="-313.926" y1="-271.733" x2="-326.264" y2="-263.201" />
      <line id="85,98" x1="-342.959" y1="-313.567" x2="-355.267" y2="-304.994" />
      <line id="86,97" x1="-351.532" y1="-325.876" x2="-363.840" y2="-317.303" />
      <line id="87,96" x1="-360.105" y1="-338.185" x2="-372.413" y2="-329.612" />
      <line id="88,95" x1="-368.678" y1="-350.493" x2="-380.986" y2="-341.920" />
      <line id="109,132" x1="-332.084" y1="-219.129" x2="-342.522" y2="-208.356" />
      <line id="110,131" x1="-342.857" y1="-229.566" x2="-353.295" y2="-218.794" />
      <line id="111,130" x1="-353.630" y1="-240.004" x2="-364.068" y2="-229.231" />
      <line id="135,148" x1="-361.844" y1="-185.407" x2="-370.681" y2="-173.286" />
      <line id="136,147" x1="-373.965" y1="-194.244" x2="-382.802" y2="-182.123" />
      <line id="140,144" x1="-407.094" y1="-218.316" x2="-415.890" y2="-206.166" />
      <line id="157,164" x1="-297.889" y1="-117.311" x2="-305.129" y2="-104.174" />
      <line id="158,163" x1="-311.027" y1="-124.551" x2="-318.266" y2="-111.413" />
      <line id="185,210" x1="-196.056" y1="-5.799" x2="-199.878" y2=" 8.706" />
      <line id="186,209" x1="-210.561" y1="-9.621" x2="-214.383" y2=" 4.884" />
      <line id="187,208" x1="-225.066" y1="-13.443" x2="-228.888" y2=" 1.062" />
      <line id="188,207" x1="-239.570" y1="-17.265" x2="-243.393" y2="-2.760" />
      <line id="192,205" x1="-271.915" y1="-25.679" x2="-275.640" y2="-11.149" />
      <line id="193,204" x1="-286.445" y1="-29.404" x2="-290.170" y2="-14.874" />
      <line id="194,203" x1="-300.975" y1="-33.130" x2="-304.700" y2="-18.600" />
      <line id="195,202" x1="-315.505" y1="-36.855" x2="-319.230" y2="-22.325" />
      <line id="196,201" x1="-330.035" y1="-40.581" x2="-333.760" y2="-26.051" />
      <line id="224,269" x1="-91.323" y1="108.878" x2="-90.302" y2="123.843" />
      <line id="225,268" x1="-106.289" y1="109.899" x2="-105.267" y2="124.864" />
      <line id="226,267" x1="-121.254" y1="110.921" x2="-120.232" y2="125.886" />
      <line id="227,266" x1="-136.219" y1="111.942" x2="-135.197" y2="126.907" />
      <line id="228,265" x1="-151.184" y1="112.964" x2="-150.163" y2="127.929" />
      <line id="229,250" x1="-166.169" y1="113.637" x2="-165.845" y2="128.633" />
      <line id="230,249" x1="-181.166" y1="113.961" x2="-180.841" y2="128.957" />
      <line id="231,248" x1="-196.162" y1="114.285" x2="-195.838" y2="129.281" />
      <line id="285,485" x1="60.775" y1="252.778" x2="73.307" y2="261.020" />
      <line id="286,484" x1="52.532" y1="265.310" x2="65.064" y2="273.553" />
      <line id="287,483" x1="44.289" y1="277.842" x2="56.822" y2="286.085" />
      <line id="288,482" x1="36.047" y1="290.375" x2="48.579" y2="298.617" />
      <line id="295,402" x1="-10.921" y1="287.553" x2="-0.737" y2="298.566" />
      <line id="296,401" x1="-21.934" y1="297.738" x2="-11.749" y2="308.750" />
      <line id="297,400" x1="-32.946" y1="307.922" x2="-22.762" y2="318.935" />
      <line id="298,399" x1="-43.959" y1="318.106" x2="-33.775" y2="329.119" />
      <line id="302,394" x1="-81.364" y1="352.585" x2="-71.217" y2="363.631" />
      <line id="303,393" x1="-92.411" y1="362.732" x2="-82.263" y2="373.779" />
      <line id="317,386" x1="-164.344" y1="430.363" x2="-153.942" y2="441.171" />
      <line id="318,385" x1="-175.152" y1="440.765" x2="-164.750" y2="451.573" />
      <line id="319,384" x1="-185.959" y1="451.167" x2="-175.557" y2="461.975" />
      <line id="320,383" x1="-196.766" y1="461.569" x2="-186.364" y2="472.377" />
      <line id="321,382" x1="-207.574" y1="471.971" x2="-197.172" y2="482.779" />
      <line id="322,381" x1="-218.381" y1="482.373" x2="-207.979" y2="493.180" />
      <line id="329,357" x1="-265.082" y1="497.801" x2="-255.307" y2="509.178" />
      <line id="330,356" x1="-276.460" y1="507.576" x2="-266.685" y2="518.953" />
      <line id="331,355" x1="-287.837" y1="517.350" x2="-278.062" y2="528.728" />
      <line id="332,354" x1="-299.215" y1="527.125" x2="-289.440" y2="538.503" />
      <line id="333,353" x1="-310.593" y1="536.900" x2="-300.818" y2="548.278" />
      <line id="337,348" x1="-349.233" y1="569.988" x2="-339.496" y2="581.398" />
      <line id="338,347" x1="-360.643" y1="579.725" x2="-350.906" y2="591.135" />
      <line id="372,379" x1="-233.418" y1="529.693" x2="-221.431" y2="538.710" />
      <line id="373,378" x1="-242.435" y1="541.680" x2="-230.448" y2="550.697" />
      <line id="407,448" x1="24.652" y1="314.548" x2="38.985" y2="318.970" />
      <line id="408,447" x1="20.230" y1="328.882" x2="34.564" y2="333.303" />
      <line id="409,446" x1="15.809" y1="343.215" x2="30.143" y2="347.637" />
      <line id="410,445" x1="11.388" y1="357.549" x2="25.721" y2="361.970" />
      <line id="412,443" x1=" 3.569" y1="382.898" x2="17.902" y2="387.319" />
      <line id="416,442" x1="-0.824" y1="397.396" x2="13.552" y2="401.675" />
      <line id="417,441" x1="-5.103" y1="411.773" x2=" 9.274" y2="416.052" />
      <line id="421,437" x1="-18.376" y1="456.378" x2="-3.999" y2="460.656" />
      <line id="422,436" x1="-22.654" y1="470.755" x2="-8.277" y2="475.033" />
      <line id="423,435" x1="-26.932" y1="485.132" x2="-12.555" y2="489.410" />
      <line id="424,434" x1="-31.210" y1="499.509" x2="-16.833" y2="503.787" />
      <line id="487,514" x1="103.732" y1="267.118" x2="118.472" y2="264.342" />
      <line id="488,513" x1="106.508" y1="281.859" x2="121.249" y2="279.083" />
      <line id="489,512" x1="109.284" y1="296.600" x2="124.025" y2="293.823" />
      <line id="490,511" x1="112.061" y1="311.341" x2="126.802" y2="308.564" />
      <line id="496,507" x1="122.313" y1="364.811" x2="137.035" y2="361.936" />
      <line id="497,506" x1="125.187" y1="379.533" x2="139.909" y2="376.658" />
      <line id="498,505" x1="128.061" y1="394.255" x2="142.783" y2="391.380" />
      <line id="499,504" x1="130.936" y1="408.977" x2="145.658" y2="406.102" />
      <line id="523,831" x1="184.114" y1="183.265" x2="187.257" y2="168.598" />
      <line id="524,830" x1="198.781" y1="186.408" x2="201.924" y2="171.741" />
      <line id="525,828" x1="213.443" y1="189.576" x2="216.634" y2="174.919" />
      <line id="526,827" x1="228.099" y1="192.768" x2="231.291" y2="178.111" />
      <line id="528,826" x1="242.810" y1="195.945" x2="245.953" y2="181.278" />
      <line id="529,825" x1="257.477" y1="199.089" x2="260.620" y2="184.422" />
      <line id="530,824" x1="272.144" y1="202.232" x2="275.287" y2="187.565" />
      <line id="531,823" x1="286.811" y1="205.375" x2="289.954" y2="190.708" />
      <line id="532,822" x1="301.478" y1="208.518" x2="304.621" y2="193.851" />
      <line id="533,821" x1="316.145" y1="211.661" x2="319.288" y2="196.994" />
      <line id="534,820" x1="330.812" y1="214.804" x2="333.955" y2="200.137" />
      <line id="535,819" x1="345.479" y1="217.947" x2="348.622" y2="203.280" />
      <line id="543,779" x1="460.318" y1="248.999" x2="465.000" y2="234.749" />
      <line id="544,778" x1="474.568" y1="253.682" x2="479.251" y2="239.432" />
      <line id="545,777" x1="488.819" y1="258.365" x2="493.501" y2="244.114" />
      <line id="546,776" x1="503.069" y1="263.047" x2="507.752" y2="248.797" />
      <line id="547,775" x1="517.319" y1="267.730" x2="522.002" y2="253.479" />
      <line id="550,717" x1="544.887" y1="354.747" x2="552.083" y2="341.585" />
      <line id="551,716" x1="558.048" y1="361.942" x2="565.244" y2="348.781" />
      <line id="552,715" x1="571.210" y1="369.138" x2="578.405" y2="355.977" />
      <line id="553,714" x1="584.371" y1="376.334" x2="591.567" y2="363.172" />
      <line id="554,713" x1="597.532" y1="383.530" x2="604.728" y2="370.368" />
      <line id="555,712" x1="610.694" y1="390.725" x2="617.889" y2="377.564" />
      <line id="556,711" x1="623.855" y1="397.921" x2="631.051" y2="384.760" />
      <line id="557,710" x1="637.017" y1="405.117" x2="644.212" y2="391.955" />
      <line id="558,708" x1="650.166" y1="412.334" x2="657.405" y2="399.197" />
      <line id="559,707" x1="663.303" y1="419.574" x2="670.543" y2="406.436" />
      <line id="563,578" x1="688.775" y1="462.880" x2="700.701" y2="453.783" />
      <line id="565,576" x1="704.862" y1="483.972" x2="716.789" y2="474.876" />
      <line id="566,575" x1="713.959" y1="495.899" x2="725.886" y2="486.802" />
      <line id="587,704" x1="719.328" y1="430.266" x2="725.452" y2="416.573" />
      <line id="588,703" x1="733.021" y1="436.390" x2="739.145" y2="422.697" />
      <line id="589,702" x1="746.714" y1="442.514" x2="752.838" y2="428.821" />
      <line id="590,701" x1="760.407" y1="448.638" x2="766.531" y2="434.945" />
      <line id="591,700" x1="774.100" y1="454.761" x2="780.224" y2="441.068" />
      <line id="592,699" x1="787.793" y1="460.885" x2="793.917" y2="447.192" />
      <line id="593,698" x1="801.486" y1="467.009" x2="807.610" y2="453.316" />
      <line id="605,693" x1="871.979" y1="497.565" x2="877.783" y2="483.733" />
      <line id="606,692" x1="885.811" y1="503.369" x2="891.614" y2="489.537" />
      <line id="608,691" x1="899.698" y1="509.168" x2="905.456" y2="495.317" />
      <line id="609,690" x1="913.549" y1="514.926" x2="919.307" y2="501.075" />
      <line id="612,689" x1="927.512" y1="520.675" x2="933.177" y2="506.786" />
      <line id="613,688" x1="941.401" y1="526.341" x2="947.066" y2="512.452" />
      <line id="614,687" x1="955.290" y1="532.006" x2="960.955" y2="518.117" />
      <line id="615,686" x1="969.179" y1="537.671" x2="974.844" y2="523.782" />
      <line id="616,682" x1="983.039" y1="543.406" x2="988.843" y2="529.574" />
      <line id="617,681" x1="996.871" y1="549.209" x2="1002.675" y2="535.378" />
      <line id="618,680" x1="1010.703" y1="555.013" x2="1016.506" y2="541.181" />
      <line id="619,678" x1="1024.525" y1="560.839" x2="1030.375" y2="547.027" />
      <line id="621,676" x1="1048.952" y1="571.184" x2="1054.802" y2="557.372" />
      <line id="626,654" x1="1104.701" y1="618.166" x2="1111.321" y2="604.706" />
      <line id="627,653" x1="1118.161" y1="624.786" x2="1124.781" y2="611.326" />
      <line id="628,652" x1="1131.621" y1="631.406" x2="1138.241" y2="617.946" />
      <line id="632,641" x1="1189.568" y1="660.739" x2="1196.500" y2="647.437" />
      <line id="633,640" x1="1202.871" y1="667.671" x2="1209.802" y2="654.369" />
      <line id="634,639" x1="1216.173" y1="674.603" x2="1223.105" y2="661.300" />
      <line id="661,669" x1="1122.281" y1="576.779" x2="1126.583" y2="562.410" />
      <line id="662,668" x1="1136.651" y1="581.081" x2="1140.953" y2="566.712" />
      <line id="723,735" x1="557.537" y1="312.085" x2="555.524" y2="297.221" />
      <line id="724,734" x1="572.402" y1="310.072" x2="570.388" y2="295.208" />
      <line id="725,733" x1="587.266" y1="308.058" x2="585.252" y2="293.194" />
      <line id="726,732" x1="602.130" y1="306.045" x2="600.117" y2="291.181" />
      <line id="727,731" x1="616.994" y1="304.031" x2="614.981" y2="289.167" />
      <line id="745,764" x1="548.994" y1="267.940" x2="544.501" y2="253.629" />
      <line id="746,763" x1="563.306" y1="263.448" x2="558.813" y2="249.136" />
      <line id="747,762" x1="577.617" y1="258.955" x2="573.124" y2="244.644" />
      <line id="748,761" x1="591.928" y1="254.462" x2="587.436" y2="240.151" />
      <line id="749,760" x1="606.240" y1="249.969" x2="601.747" y2="235.658" />
      <line id="750,759" x1="620.551" y1="245.477" x2="616.058" y2="231.165" />
      <line id="751,758" x1="634.862" y1="240.984" x2="630.370" y2="226.673" />
      <line id="785,807" x1="459.983" y1="196.761" x2="451.761" y2="184.215" />
      <line id="786,806" x1="472.529" y1="188.539" x2="464.307" y2="175.993" />
      <line id="787,805" x1="485.075" y1="180.317" x2="476.853" y2="167.771" />
      <line id="789,803" x1="507.263" y1="165.777" x2="499.041" y2="153.231" />
      <line id="790,802" x1="519.809" y1="157.555" x2="511.587" y2="145.009" />
      <line id="791,801" x1="532.355" y1="149.334" x2="524.133" y2="136.788" />
      <line id="846,897" x1="174.601" y1="141.398" x2="161.357" y2="134.356" />
      <line id="847,896" x1="181.643" y1="128.154" x2="168.399" y2="121.112" />
      <line id="848,895" x1="188.685" y1="114.910" x2="175.441" y2="107.868" />
      <line id="849,894" x1="195.727" y1="101.666" x2="182.483" y2="94.624" />
      <line id="850,893" x1="202.769" y1="88.422" x2="189.525" y2="81.380" />
      <line id="851,892" x1="209.811" y1="75.177" x2="196.567" y2="68.135" />
      <line id="914,937" x1="132.779" y1="125.228" x2="117.905" y2="123.289" />
      <line id="915,936" x1="134.718" y1="110.354" x2="119.844" y2="108.415" />
      <line id="916,935" x1="136.658" y1="95.480" x2="121.784" y2="93.541" />
      <line id="917,934" x1="138.597" y1="80.606" x2="123.723" y2="78.667" />
      <line id="918,933" x1="140.537" y1="65.732" x2="125.662" y2="63.792" />
      <line id="919,932" x1="142.476" y1="50.858" x2="127.602" y2="48.918" />
      <line id="920,931" x1="144.415" y1="35.984" x2="129.541" y2="34.044" />
      <line id="921,930" x1="146.355" y1="21.110" x2="131.480" y2="19.170" />
      <line id="922,929" x1="148.294" y1=" 6.235" x2="133.420" y2=" 4.296" />
      <line id="923,928" x1="150.233" y1="-8.639" x2="135.359" y2="-10.578" />
    </g>
    <g style="font-family: SansSerif" transform="translate(-4.6, 4)" id="seq">
      <text x="96.160" y="92.737">C</text>
      <text x="95.786" y="107.733">A</text>
      <text x="95.412" y="122.728">A</text>
      <text x="87.914" y="122.541">A</text>
      <text x="86.719" y="107.589">G</text>
      <text x="85.523" y="92.636">G</text>
      <text x="92.136" y="78.263">C</text>
      <text x="83.409" y="66.193">U</text>
      <text x="94.675" y="55.349">U</text>
      <text x="96.283" y="39.794">G</text>
      <text x="87.474" y="26.874">G</text>
      <text x="72.407" y="22.689">U</text>
      <text x="58.196" y="29.215">C</text>
      <text x="51.551" y="43.370">C</text>
      <text x="55.611" y="58.472">U</text>
      <text x="68.457" y="67.389">G</text>
      <text x="61.758" y="80.692">A</text>
      <text x="70.571" y="93.832">C</text>
      <text x="71.767" y="108.784">U</text>
      <text x="72.962" y="123.737">U</text>
      <text x="62.217" y="138.119">U</text>
      <text x="55.747" y="153.311">A</text>
      <text x="53.427" y="168.254">C</text>
      <text x="40.773" y="160.199">U</text>
      <text x="33.286" y="146.262">A</text>
      <text x="18.394" y="145.956">U</text>
      <text x="5.740" y="137.901">C</text>
      <text x="-6.914" y="129.847">A</text>
      <text x="-19.568" y="121.793">A</text>
      <text x="-32.223" y="113.739">C</text>
      <text x="-44.877" y="105.684">U</text>
      <text x="-45.674" y="83.028">U</text>
      <text x="-71.580" y="69.324">U</text>
      <text x="-82.761" y="59.324">A</text>
      <text x="-93.941" y="49.324">G</text>
      <text x="-92.019" y="32.459">A</text>
      <text x="-100.485" y="17.939">C</text>
      <text x="-115.802" y="11.436">A</text>
      <text x="-131.804" y="15.348">A</text>
      <text x="-142.951" y="5.312">A</text>
      <text x="-138.256" y="-4.562">U</text>
      <text x="-138.236" y="-16.564">U</text>
      <text x="-143.771" y="-28.411">U</text>
      <text x="-154.617" y="-37.505">A</text>
      <text x="-169.325" y="-41.479">C</text>
      <text x="-179.380" y="-52.609">A</text>
      <text x="-189.436" y="-63.740">C</text>
      <text x="-192.806" y="-72.091">A</text>
      <text x="-199.543" y="-74.891">U</text>
      <text x="-209.636" y="-85.988">G</text>
      <text x="-219.728" y="-97.085">C</text>
      <text x="-204.920" y="-116.203">A</text>
      <text x="-205.972" y="-145.752">A</text>
      <text x="-228.774" y="-172.377">G</text>
      <text x="-234.370" y="-186.294">U</text>
      <text x="-231.526" y="-202.445">A</text>
      <text x="-244.263" y="-212.774">U</text>
      <text x="-259.478" y="-206.656">C</text>
      <text x="-261.520" y="-190.385">C</text>
      <text x="-248.287" y="-180.698">G</text>
      <text x="-242.691" y="-166.781">C</text>
      <text x="-249.051" y="-162.807">A</text>
      <text x="-257.000" y="-175.528">C</text>
      <text x="-264.949" y="-188.248">U</text>
      <text x="-277.669" y="-180.299">C</text>
      <text x="-269.721" y="-167.579">C</text>
      <text x="-261.772" y="-154.858">U</text>
      <text x="-268.132" y="-150.884">G</text>
      <text x="-278.188" y="-162.014">U</text>
      <text x="-288.243" y="-173.145">G</text>
      <text x="-281.600" y="-178.138">A</text>
      <text x="-276.100" y="-185.385">G</text>
      <text x="-272.436" y="-194.581">A</text>
      <text x="-271.213" y="-205.221">A</text>
      <text x="-272.891" y="-216.629">U</text>
      <text x="-277.738" y="-227.997">G</text>
      <text x="-285.796" y="-238.439">C</text>
      <text x="-296.862" y="-247.059">C</text>
      <text x="-305.394" y="-259.396">C</text>
      <text x="-313.926" y="-271.733">U</text>
      <text x="-308.425" y="-284.293">A</text>
      <text x="-309.805" y="-297.827">C</text>
      <text x="-317.603" y="-308.843">A</text>
      <text x="-329.714" y="-314.550">G</text>
      <text x="-342.959" y="-313.567">U</text>
      <text x="-351.532" y="-325.876">C</text>
      <text x="-360.105" y="-338.185">C</text>
      <text x="-368.678" y="-350.493">C</text>
      <text x="-365.648" y="-366.005">C</text>
      <text x="-374.543" y="-379.068">C</text>
      <text x="-390.085" y="-381.933">G</text>
      <text x="-403.054" y="-372.901">U</text>
      <text x="-405.755" y="-357.329">C</text>
      <text x="-396.586" y="-344.457">C</text>
      <text x="-380.986" y="-341.920">G</text>
      <text x="-372.413" y="-329.612">G</text>
      <text x="-363.840" y="-317.303">G</text>
      <text x="-355.267" y="-304.994">A</text>
      <text x="-361.139" y="-289.603">A</text>
      <text x="-356.591" y="-273.597">C</text>
      <text x="-343.237" y="-263.391">A</text>
      <text x="-326.264" y="-263.201">A</text>
      <text x="-317.732" y="-250.864">G</text>
      <text x="-309.199" y="-238.527">G</text>
      <text x="-314.921" y="-233.677">A</text>
      <text x="-324.620" y="-245.119">G</text>
      <text x="-336.062" y="-235.420">C</text>
      <text x="-326.363" y="-223.978">U</text>
      <text x="-332.084" y="-219.129">G</text>
      <text x="-342.857" y="-229.566">G</text>
      <text x="-353.630" y="-240.004">U</text>
      <text x="-346.959" y="-253.582">A</text>
      <text x="-344.813" y="-268.557">U</text>
      <text x="-347.401" y="-283.462">C</text>
      <text x="-354.470" y="-296.837">A</text>
      <text x="-365.328" y="-307.371">G</text>
      <text x="-378.910" y="-314.032">G</text>
      <text x="-393.887" y="-316.169">C</text>
      <text x="-408.790" y="-313.570">A</text>
      <text x="-422.160" y="-306.492">C</text>
      <text x="-432.687" y="-295.628">A</text>
      <text x="-439.339" y="-282.041">U</text>
      <text x="-441.465" y="-267.063">U</text>
      <text x="-438.857" y="-252.162">C</text>
      <text x="-431.770" y="-238.796">A</text>
      <text x="-420.898" y="-228.277">U</text>
      <text x="-407.307" y="-221.634">C</text>
      <text x="-392.328" y="-219.517">A</text>
      <text x="-377.428" y="-222.135">G</text>
      <text x="-364.068" y="-229.231">G</text>
      <text x="-353.295" y="-218.794">C</text>
      <text x="-342.522" y="-208.356">C</text>
      <text x="-347.353" y="-202.619">C</text>
      <text x="-357.014" y="-191.144">A</text>
      <text x="-361.844" y="-185.407">U</text>
      <text x="-373.965" y="-194.244">G</text>
      <text x="-374.486" y="-207.627">A</text>
      <text x="-382.472" y="-218.137">C</text>
      <text x="-394.856" y="-222.108">A</text>
      <text x="-407.094" y="-218.316">C</text>
      <text x="-416.377" y="-232.502">C</text>
      <text x="-432.579" y="-227.508">U</text>
      <text x="-432.266" y="-210.557">U</text>
      <text x="-415.890" y="-206.166">G</text>
      <text x="-413.900" y="-189.410">C</text>
      <text x="-400.097" y="-179.124">U</text>
      <text x="-382.802" y="-182.123">U</text>
      <text x="-370.681" y="-173.286">A</text>
      <text x="-345.397" y="-151.613">G</text>
      <text x="-317.634" y="-150.006">C</text>
      <text x="-299.374" y="-163.089">C</text>
      <text x="-289.318" y="-151.959">A</text>
      <text x="-279.263" y="-140.828">C</text>
      <text x="-283.919" y="-134.949">A</text>
      <text x="-298.759" y="-137.136">C</text>
      <text x="-293.233" y="-123.190">C</text>
      <text x="-297.889" y="-117.311">C</text>
      <text x="-311.027" y="-124.551">U</text>
      <text x="-319.040" y="-138.858">C</text>
      <text x="-335.439" y="-138.802">A</text>
      <text x="-343.354" y="-124.439">A</text>
      <text x="-334.642" y="-110.545">G</text>
      <text x="-318.266" y="-111.413">G</text>
      <text x="-305.129" y="-104.174">G</text>
      <text x="-296.508" y="-90.601">A</text>
      <text x="-285.174" y="-80.712">A</text>
      <text x="-272.425" y="-74.904">C</text>
      <text x="-259.558" y="-73.167">U</text>
      <text x="-247.749" y="-75.108">C</text>
      <text x="-237.954" y="-80.025">A</text>
      <text x="-230.825" y="-86.992">G</text>
      <text x="-220.733" y="-75.895">C</text>
      <text x="-210.640" y="-64.798">A</text>
      <text x="-200.566" y="-53.684">G</text>
      <text x="-190.511" y="-42.554">U</text>
      <text x="-180.455" y="-31.423">G</text>
      <text x="-184.355" y="-25.017">A</text>
      <text x="-197.168" y="-32.818">U</text>
      <text x="-209.980" y="-40.618">A</text>
      <text x="-222.793" y="-48.418">G</text>
      <text x="-230.592" y="-35.605">A</text>
      <text x="-217.780" y="-27.805">C</text>
      <text x="-204.968" y="-20.005">A</text>
      <text x="-192.156" y="-12.205">U</text>
      <text x="-196.056" y="-5.799">U</text>
      <text x="-210.561" y="-9.621">A</text>
      <text x="-225.066" y="-13.443">A</text>
      <text x="-239.570" y="-17.265">G</text>
      <text x="-244.413" y="-26.826">C</text>
      <text x="-253.494" y="-32.097">C</text>
      <text x="-263.763" y="-31.580">A</text>
      <text x="-271.915" y="-25.679">U</text>
      <text x="-286.445" y="-29.404">A</text>
      <text x="-300.975" y="-33.130">A</text>
      <text x="-315.505" y="-36.855">G</text>
      <text x="-330.035" y="-40.581">U</text>
      <text x="-341.371" y="-52.431">G</text>
      <text x="-357.235" y="-48.277">A</text>
      <text x="-361.308" y="-32.392">A</text>
      <text x="-349.400" y="-21.117">A</text>
      <text x="-333.760" y="-26.051">A</text>
      <text x="-319.230" y="-22.325">C</text>
      <text x="-304.700" y="-18.600">U</text>
      <text x="-290.170" y="-14.874">U</text>
      <text x="-275.640" y="-11.149">G</text>
      <text x="-262.699" y="3.314">A</text>
      <text x="-243.393" y="-2.760">C</text>
      <text x="-228.888" y="1.062">U</text>
      <text x="-214.383" y="4.884">U</text>
      <text x="-199.878" y="8.706">A</text>
      <text x="-175.366" y="24.440">A</text>
      <text x="-152.988" y="16.459">U</text>
      <text x="-141.841" y="26.496">U</text>
      <text x="-144.462" y="39.515">A</text>
      <text x="-140.306" y="52.242">A</text>
      <text x="-130.345" y="61.349">A</text>
      <text x="-117.088" y="64.401">G</text>
      <text x="-103.941" y="60.504">C</text>
      <text x="-92.760" y="70.504">U</text>
      <text x="-81.580" y="80.504">A</text>
      <text x="-84.016" y="87.597">A</text>
      <text x="-98.738" y="90.472">G</text>
      <text x="-88.888" y="101.784">A</text>
      <text x="-91.323" y="108.878">G</text>
      <text x="-106.289" y="109.899">G</text>
      <text x="-121.254" y="110.921">G</text>
      <text x="-136.219" y="111.942">C</text>
      <text x="-151.184" y="112.964">C</text>
      <text x="-166.169" y="113.637">G</text>
      <text x="-181.166" y="113.961">G</text>
      <text x="-196.162" y="114.285">U</text>
      <text x="-201.630" y="100.147">A</text>
      <text x="-211.606" y="88.734">A</text>
      <text x="-224.885" y="81.424">A</text>
      <text x="-239.864" y="79.099">A</text>
      <text x="-254.734" y="82.041">C</text>
      <text x="-267.700" y="89.895">U</text>
      <text x="-277.195" y="101.710">C</text>
      <text x="-282.073" y="116.062">G</text>
      <text x="-281.746" y="131.217">U</text>
      <text x="-276.252" y="145.345">G</text>
      <text x="-266.255" y="156.740">C</text>
      <text x="-252.962" y="164.025">C</text>
      <text x="-237.979" y="166.322">A</text>
      <text x="-223.114" y="163.353">G</text>
      <text x="-210.163" y="155.476">C</text>
      <text x="-200.690" y="143.642">C</text>
      <text x="-195.838" y="129.281">A</text>
      <text x="-180.841" y="128.957">C</text>
      <text x="-165.845" y="128.633">C</text>
      <text x="-179.380" y="135.099">G</text>
      <text x="-189.423" y="146.241">C</text>
      <text x="-194.454" y="160.372">G</text>
      <text x="-193.712" y="175.353">G</text>
      <text x="-187.308" y="188.918">U</text>
      <text x="-176.213" y="199.012">U</text>
      <text x="-162.105" y="204.108">A</text>
      <text x="-147.120" y="203.435">U</text>
      <text x="-133.526" y="197.094">A</text>
      <text x="-123.381" y="186.045">C</text>
      <text x="-118.220" y="171.961">G</text>
      <text x="-118.824" y="156.973">A</text>
      <text x="-125.102" y="143.350">G</text>
      <text x="-136.104" y="133.154">A</text>
      <text x="-150.163" y="127.929">G</text>
      <text x="-135.197" y="126.907">G</text>
      <text x="-120.232" y="125.886">C</text>
      <text x="-105.267" y="124.864">C</text>
      <text x="-90.302" y="123.843">C</text>
      <text x="-67.721" y="128.809">A</text>
      <text x="-52.931" y="118.339">A</text>
      <text x="-40.277" y="126.393">G</text>
      <text x="-27.623" y="134.447">U</text>
      <text x="-14.968" y="142.501">U</text>
      <text x="-2.314" y="150.556">G</text>
      <text x="10.340" y="158.610">A</text>
      <text x="16.922" y="171.971">C</text>
      <text x="32.719" y="172.854">A</text>
      <text x="45.373" y="180.908">G</text>
      <text x="41.071" y="193.326">A</text>
      <text x="39.555" y="206.379">C</text>
      <text x="40.895" y="219.453">A</text>
      <text x="45.029" y="231.927">C</text>
      <text x="51.762" y="243.213">C</text>
      <text x="60.775" y="252.778">G</text>
      <text x="52.532" y="265.310">G</text>
      <text x="44.289" y="277.842">C</text>
      <text x="36.047" y="290.375">G</text>
      <text x="32.359" y="285.976">U</text>
      <text x="27.212" y="282.367">A</text>
      <text x="20.794" y="279.930">A</text>
      <text x="13.385" y="279.004">A</text>
      <text x="5.342" y="279.857">G</text>
      <text x="-2.915" y="282.677">A</text>
      <text x="-10.921" y="287.553">G</text>
      <text x="-21.934" y="297.738">U</text>
      <text x="-32.946" y="307.922">G</text>
      <text x="-43.959" y="318.106">G</text>
      <text x="-60.567" y="314.598">U</text>
      <text x="-75.822" y="321.652">U</text>
      <text x="-83.746" y="336.285">A</text>
      <text x="-81.364" y="352.585">A</text>
      <text x="-92.411" y="362.732">G</text>
      <text x="-101.015" y="357.200">C</text>
      <text x="-110.556" y="353.533">U</text>
      <text x="-120.634" y="351.880">A</text>
      <text x="-130.830" y="352.309">A</text>
      <text x="-140.718" y="354.797">A</text>
      <text x="-149.888" y="359.238">A</text>
      <text x="-157.958" y="365.443">C</text>
      <text x="-164.595" y="373.152">U</text>
      <text x="-169.524" y="382.040">U</text>
      <text x="-172.544" y="391.736">A</text>
      <text x="-173.530" y="401.836">A</text>
      <text x="-172.446" y="411.916">A</text>
      <text x="-169.340" y="421.559">C</text>
      <text x="-164.344" y="430.363">U</text>
      <text x="-175.152" y="440.765">A</text>
      <text x="-185.959" y="451.167">A</text>
      <text x="-196.766" y="461.569">A</text>
      <text x="-207.574" y="471.971">G</text>
      <text x="-218.381" y="482.373">C</text>
      <text x="-223.817" y="478.392">C</text>
      <text x="-230.670" y="475.988">A</text>
      <text x="-238.452" y="475.632">A</text>
      <text x="-246.525" y="477.639">A</text>
      <text x="-254.159" y="482.120">C</text>
      <text x="-260.586" y="488.958">A</text>
      <text x="-265.082" y="497.801">U</text>
      <text x="-276.460" y="507.576">C</text>
      <text x="-287.837" y="517.350">U</text>
      <text x="-299.215" y="527.125">U</text>
      <text x="-310.593" y="536.900">C</text>
      <text x="-327.061" y="532.787">A</text>
      <text x="-342.564" y="539.279">A</text>
      <text x="-351.017" y="553.612">G</text>
      <text x="-349.233" y="569.988">A</text>
      <text x="-360.643" y="579.725">C</text>
      <text x="-375.698" y="575.966">U</text>
      <text x="-390.075" y="581.804">G</text>
      <text x="-398.245" y="594.996">U</text>
      <text x="-397.068" y="610.468">U</text>
      <text x="-386.995" y="622.272">A</text>
      <text x="-371.901" y="625.868">U</text>
      <text x="-357.588" y="619.874">A</text>
      <text x="-349.561" y="606.594">C</text>
      <text x="-350.906" y="591.135">G</text>
      <text x="-339.496" y="581.398">U</text>
      <text x="-326.932" y="585.702">A</text>
      <text x="-313.771" y="583.248">C</text>
      <text x="-303.438" y="574.565">C</text>
      <text x="-298.676" y="561.822">C</text>
      <text x="-300.818" y="548.278">G</text>
      <text x="-289.440" y="538.503">A</text>
      <text x="-278.062" y="528.728">A</text>
      <text x="-266.685" y="518.953">G</text>
      <text x="-255.307" y="509.178">A</text>
      <text x="-249.835" y="514.307">C</text>
      <text x="-260.092" y="525.252">A</text>
      <text x="-270.349" y="536.197">G</text>
      <text x="-280.607" y="547.141">G</text>
      <text x="-290.864" y="558.086">A</text>
      <text x="-301.121" y="569.031">A</text>
      <text x="-311.378" y="579.976">A</text>
      <text x="-300.433" y="590.233">C</text>
      <text x="-290.176" y="579.288">U</text>
      <text x="-279.919" y="568.343">C</text>
      <text x="-269.662" y="557.399">A</text>
      <text x="-259.405" y="546.454">A</text>
      <text x="-249.147" y="535.509">C</text>
      <text x="-238.890" y="524.564">C</text>
      <text x="-233.418" y="529.693">A</text>
      <text x="-242.435" y="541.680">C</text>
      <text x="-257.729" y="547.599">G</text>
      <text x="-259.982" y="563.842">A</text>
      <text x="-246.877" y="573.701">A</text>
      <text x="-231.895" y="567.032">A</text>
      <text x="-230.448" y="550.697">G</text>
      <text x="-221.431" y="538.710">U</text>
      <text x="-202.128" y="516.163">A</text>
      <text x="-207.979" y="493.180">G</text>
      <text x="-197.172" y="482.779">C</text>
      <text x="-186.364" y="472.377">U</text>
      <text x="-175.557" y="461.975">U</text>
      <text x="-164.750" y="451.573">U</text>
      <text x="-153.942" y="441.171">A</text>
      <text x="-136.138" y="449.891">U</text>
      <text x="-116.310" y="450.945">U</text>
      <text x="-97.621" y="444.140">U</text>
      <text x="-83.066" y="430.538">A</text>
      <text x="-74.986" y="412.294">A</text>
      <text x="-74.694" y="392.311">U</text>
      <text x="-82.263" y="373.779">C</text>
      <text x="-71.217" y="363.631">U</text>
      <text x="-58.504" y="367.473">G</text>
      <text x="-45.441" y="364.539">A</text>
      <text x="-35.432" y="355.485">C</text>
      <text x="-31.139" y="342.575">C</text>
      <text x="-33.775" y="329.119">C</text>
      <text x="-22.762" y="318.935">C</text>
      <text x="-11.749" y="308.750">A</text>
      <text x="-0.737" y="298.566">C</text>
      <text x="5.610" y="302.562">G</text>
      <text x="-2.380" y="315.256">A</text>
      <text x="10.314" y="323.247">A</text>
      <text x="18.305" y="310.553">A</text>
      <text x="24.652" y="314.548">G</text>
      <text x="20.230" y="328.882">C</text>
      <text x="15.809" y="343.215">U</text>
      <text x="11.388" y="357.549">A</text>
      <text x="-0.073" y="368.455">C</text>
      <text x="3.569" y="382.898">G</text>
      <text x="-0.069" y="386.287">G</text>
      <text x="-1.937" y="390.314">U</text>
      <text x="-2.080" y="394.228">A</text>
      <text x="-0.824" y="397.396">C</text>
      <text x="-5.103" y="411.773">A</text>
      <text x="-19.586" y="417.021">A</text>
      <text x="-28.102" y="429.644">A</text>
      <text x="-27.560" y="444.683">C</text>
      <text x="-18.376" y="456.378">U</text>
      <text x="-22.654" y="470.755">G</text>
      <text x="-26.932" y="485.132">G</text>
      <text x="-31.210" y="499.509">G</text>
      <text x="-46.057" y="503.703">A</text>
      <text x="-56.262" y="515.273">U</text>
      <text x="-58.569" y="530.527">U</text>
      <text x="-52.243" y="544.597">A</text>
      <text x="-39.301" y="552.994">G</text>
      <text x="-23.873" y="553.039">A</text>
      <text x="-10.883" y="544.716">U</text>
      <text x="-4.476" y="530.683">A</text>
      <text x="-6.695" y="515.416">C</text>
      <text x="-16.833" y="503.787">C</text>
      <text x="-12.555" y="489.410">C</text>
      <text x="-8.277" y="475.033">C</text>
      <text x="-3.999" y="460.656">A</text>
      <text x="10.086" y="455.885">C</text>
      <text x="18.762" y="443.589">U</text>
      <text x="18.532" y="428.364">A</text>
      <text x="9.274" y="416.052">U</text>
      <text x="13.552" y="401.675">G</text>
      <text x="17.902" y="387.319">C</text>
      <text x="29.047" y="377.438">C</text>
      <text x="25.721" y="361.970">U</text>
      <text x="30.143" y="347.637">A</text>
      <text x="34.564" y="333.303">G</text>
      <text x="38.985" y="318.970">C</text>
      <text x="35.726" y="333.611">C</text>
      <text x="35.095" y="348.598">A</text>
      <text x="37.112" y="363.462">U</text>
      <text x="41.715" y="377.738">A</text>
      <text x="48.759" y="390.981">A</text>
      <text x="58.025" y="402.777">A</text>
      <text x="69.223" y="412.757">C</text>
      <text x="82.003" y="420.611">A</text>
      <text x="95.966" y="426.091">U</text>
      <text x="110.675" y="429.028">U</text>
      <text x="125.672" y="429.329">G</text>
      <text x="140.488" y="426.985">A</text>
      <text x="154.660" y="422.070">U</text>
      <text x="167.745" y="414.736">A</text>
      <text x="179.334" y="405.213">G</text>
      <text x="189.066" y="393.799">U</text>
      <text x="196.636" y="380.849">A</text>
      <text x="201.809" y="366.769">U</text>
      <text x="204.421" y="351.998">U</text>
      <text x="204.392" y="336.998">U</text>
      <text x="201.723" y="322.238">U</text>
      <text x="196.497" y="308.178">A</text>
      <text x="188.878" y="295.257">C</text>
      <text x="179.102" y="283.880">A</text>
      <text x="167.476" y="274.401">C</text>
      <text x="154.363" y="267.118">C</text>
      <text x="140.173" y="262.256">C</text>
      <text x="125.348" y="259.969">A</text>
      <text x="110.353" y="260.328">C</text>
      <text x="95.654" y="263.321">U</text>
      <text x="81.713" y="268.855">A</text>
      <text x="68.963" y="276.757">U</text>
      <text x="57.803" y="286.780">C</text>
      <text x="48.579" y="298.617">C</text>
      <text x="56.822" y="286.085">G</text>
      <text x="65.064" y="273.553">C</text>
      <text x="73.307" y="261.020">C</text>
      <text x="88.121" y="266.055">C</text>
      <text x="103.732" y="267.118">G</text>
      <text x="106.508" y="281.859">G</text>
      <text x="109.284" y="296.600">G</text>
      <text x="112.061" y="311.341">U</text>
      <text x="102.462" y="319.120">A</text>
      <text x="97.067" y="330.157">C</text>
      <text x="96.828" y="342.367">U</text>
      <text x="101.728" y="353.475">A</text>
      <text x="110.800" y="361.435">C</text>
      <text x="122.313" y="364.811">G</text>
      <text x="125.187" y="379.533">A</text>
      <text x="128.061" y="394.255">G</text>
      <text x="130.936" y="408.977">C</text>
      <text x="125.101" y="424.303">A</text>
      <text x="135.664" y="436.846">A</text>
      <text x="151.759" y="433.704">C</text>
      <text x="156.829" y="418.108">A</text>
      <text x="145.658" y="406.102">G</text>
      <text x="142.783" y="391.380">C</text>
      <text x="139.909" y="376.658">U</text>
      <text x="137.035" y="361.936">U</text>
      <text x="149.682" y="349.471">A</text>
      <text x="152.242" y="331.739">A</text>
      <text x="143.484" y="315.927">A</text>
      <text x="126.802" y="308.564">A</text>
      <text x="124.025" y="293.823">C</text>
      <text x="121.249" y="279.083">C</text>
      <text x="118.472" y="264.342">C</text>
      <text x="129.343" y="263.027">A</text>
      <text x="140.262" y="259.616">A</text>
      <text x="150.822" y="254.063">A</text>
      <text x="160.602" y="246.399">G</text>
      <text x="169.181" y="236.741">G</text>
      <text x="176.161" y="225.287">A</text>
      <text x="181.176" y="212.313">C</text>
      <text x="183.911" y="198.168">U</text>
      <text x="184.114" y="183.265">U</text>
      <text x="198.781" y="186.408">G</text>
      <text x="213.443" y="189.576">G</text>
      <text x="228.099" y="192.768">C</text>
      <text x="235.702" y="197.593">G</text>
      <text x="242.810" y="195.945">G</text>
      <text x="257.477" y="199.089">U</text>
      <text x="272.144" y="202.232">G</text>
      <text x="286.811" y="205.375">C</text>
      <text x="301.478" y="208.518">U</text>
      <text x="316.145" y="211.661">U</text>
      <text x="330.812" y="214.804">U</text>
      <text x="345.479" y="217.947">A</text>
      <text x="347.361" y="238.875">G</text>
      <text x="356.265" y="257.886">A</text>
      <text x="371.108" y="272.702">C</text>
      <text x="390.099" y="281.554">C</text>
      <text x="410.950" y="283.391">C</text>
      <text x="431.157" y="278.007">A</text>
      <text x="448.296" y="266.061">C</text>
      <text x="460.318" y="248.999">C</text>
      <text x="474.568" y="253.682">U</text>
      <text x="488.819" y="258.365">A</text>
      <text x="503.069" y="263.047">G</text>
      <text x="517.319" y="267.730">A</text>
      <text x="501.880" y="290.514">G</text>
      <text x="509.093" y="325.794">G</text>
      <text x="544.887" y="354.747">A</text>
      <text x="558.048" y="361.942">G</text>
      <text x="571.210" y="369.138">C</text>
      <text x="584.371" y="376.334">C</text>
      <text x="597.532" y="383.530">U</text>
      <text x="610.694" y="390.725">G</text>
      <text x="623.855" y="397.921">U</text>
      <text x="637.017" y="405.117">U</text>
      <text x="650.166" y="412.334">C</text>
      <text x="663.303" y="419.574">U</text>
      <text x="660.419" y="431.604">A</text>
      <text x="663.671" y="444.969">G</text>
      <text x="673.520" y="456.477">A</text>
      <text x="688.775" y="462.880">A</text>
      <text x="690.992" y="478.545">C</text>
      <text x="704.862" y="483.972">C</text>
      <text x="713.959" y="495.899">G</text>
      <text x="709.380" y="510.725">A</text>
      <text x="714.422" y="525.400">U</text>
      <text x="727.146" y="534.282">A</text>
      <text x="742.659" y="533.954">A</text>
      <text x="754.997" y="524.544">C</text>
      <text x="759.415" y="509.669">C</text>
      <text x="754.215" y="495.050">C</text>
      <text x="741.395" y="486.307">C</text>
      <text x="725.886" y="486.802">C</text>
      <text x="716.789" y="474.876">G</text>
      <text x="715.223" y="460.064">U</text>
      <text x="700.701" y="453.783">U</text>
      <text x="705.358" y="447.904">C</text>
      <text x="717.117" y="457.217">A</text>
      <text x="728.875" y="466.531">A</text>
      <text x="740.634" y="475.844">C</text>
      <text x="749.947" y="464.085">C</text>
      <text x="738.188" y="454.772">U</text>
      <text x="726.430" y="445.459">C</text>
      <text x="714.671" y="436.145">A</text>
      <text x="719.328" y="430.266">C</text>
      <text x="733.021" y="436.390">C</text>
      <text x="746.714" y="442.514">C</text>
      <text x="760.407" y="448.638">U</text>
      <text x="774.100" y="454.761">U</text>
      <text x="787.793" y="460.885">C</text>
      <text x="801.486" y="467.009">C</text>
      <text x="800.516" y="476.057">U</text>
      <text x="801.647" y="485.071">U</text>
      <text x="804.811" y="493.573">G</text>
      <text x="809.834" y="501.110">U</text>
      <text x="816.443" y="507.284">U</text>
      <text x="824.280" y="511.770">U</text>
      <text x="832.924" y="514.334">U</text>
      <text x="841.911" y="514.845">U</text>
      <text x="850.763" y="513.282">C</text>
      <text x="859.007" y="509.736">C</text>
      <text x="866.206" y="504.400">C</text>
      <text x="871.979" y="497.565">G</text>
      <text x="885.811" y="503.369">C</text>
      <text x="892.410" y="509.497">C</text>
      <text x="899.698" y="509.168">U</text>
      <text x="913.549" y="514.926">A</text>
      <text x="917.733" y="519.782">U</text>
      <text x="922.945" y="521.615">A</text>
      <text x="927.512" y="520.675">U</text>
      <text x="941.401" y="526.341">A</text>
      <text x="955.290" y="532.006">C</text>
      <text x="969.179" y="537.671">C</text>
      <text x="983.039" y="543.406">G</text>
      <text x="996.871" y="549.209">C</text>
      <text x="1010.703" y="555.013">C</text>
      <text x="1024.525" y="560.839">G</text>
      <text x="1034.215" y="573.346">U</text>
      <text x="1048.952" y="571.184">C</text>
      <text x="1047.533" y="587.353">G</text>
      <text x="1053.682" y="603.360">U</text>
      <text x="1066.893" y="615.679">C</text>
      <text x="1085.041" y="621.241">A</text>
      <text x="1104.701" y="618.166">G</text>
      <text x="1118.161" y="624.786">C</text>
      <text x="1131.621" y="631.406">U</text>
      <text x="1134.012" y="653.342">U</text>
      <text x="1149.356" y="669.007">A</text>
      <text x="1170.964" y="671.818">C</text>
      <text x="1189.568" y="660.739">C</text>
      <text x="1202.871" y="667.671">C</text>
      <text x="1216.173" y="674.603">U</text>
      <text x="1224.517" y="688.720">G</text>
      <text x="1240.910" y="688.282">U</text>
      <text x="1248.489" y="673.739">G</text>
      <text x="1239.456" y="660.052">A</text>
      <text x="1223.105" y="661.300">G</text>
      <text x="1209.802" y="654.369">G</text>
      <text x="1196.500" y="647.437">G</text>
      <text x="1197.611" y="639.389">A</text>
      <text x="1196.722" y="631.294">C</text>
      <text x="1193.877" y="623.644">A</text>
      <text x="1189.240" y="616.904">A</text>
      <text x="1183.085" y="611.487">A</text>
      <text x="1175.777" y="607.728">U</text>
      <text x="1167.754" y="605.862">A</text>
      <text x="1159.499" y="606.011">G</text>
      <text x="1151.512" y="608.176">U</text>
      <text x="1144.279" y="612.233">A</text>
      <text x="1138.241" y="617.946">A</text>
      <text x="1124.781" y="611.326">G</text>
      <text x="1111.321" y="604.706">C</text>
      <text x="1114.061" y="597.724">A</text>
      <text x="1128.024" y="603.204">A</text>
      <text x="1141.987" y="608.684">A</text>
      <text x="1147.467" y="594.721">A</text>
      <text x="1133.504" y="589.241">C</text>
      <text x="1119.541" y="583.761">U</text>
      <text x="1122.281" y="576.779">G</text>
      <text x="1136.651" y="581.081">G</text>
      <text x="1145.500" y="594.463">C</text>
      <text x="1161.492" y="595.745">A</text>
      <text x="1172.359" y="583.943">C</text>
      <text x="1169.765" y="568.111">A</text>
      <text x="1155.700" y="560.394">G</text>
      <text x="1140.953" y="566.712">C</text>
      <text x="1126.583" y="562.410">C</text>
      <text x="1118.630" y="550.849">U</text>
      <text x="1107.846" y="542.607">A</text>
      <text x="1095.468" y="538.276">A</text>
      <text x="1082.815" y="538.017">A</text>
      <text x="1071.148" y="541.575">A</text>
      <text x="1061.546" y="548.328">C</text>
      <text x="1054.802" y="557.372">G</text>
      <text x="1046.099" y="545.284">U</text>
      <text x="1030.375" y="547.027">C</text>
      <text x="1025.502" y="541.596">A</text>
      <text x="1016.506" y="541.181">G</text>
      <text x="1002.675" y="535.378">G</text>
      <text x="988.843" y="529.574">U</text>
      <text x="987.188" y="526.594">C</text>
      <text x="984.070" y="524.224">G</text>
      <text x="979.771" y="523.117">A</text>
      <text x="974.844" y="523.782">G</text>
      <text x="960.955" y="518.117">G</text>
      <text x="947.066" y="512.452">U</text>
      <text x="933.177" y="506.786">G</text>
      <text x="919.307" y="501.075">U</text>
      <text x="905.456" y="495.317">A</text>
      <text x="891.614" y="489.537">G</text>
      <text x="877.783" y="483.733">C</text>
      <text x="876.438" y="462.856">G</text>
      <text x="864.396" y="445.654">U</text>
      <text x="845.098" y="437.182">A</text>
      <text x="824.131" y="439.981">U</text>
      <text x="807.610" y="453.316">G</text>
      <text x="793.917" y="447.192">G</text>
      <text x="780.224" y="441.068">A</text>
      <text x="766.531" y="434.945">G</text>
      <text x="752.838" y="428.821">G</text>
      <text x="739.145" y="422.697">G</text>
      <text x="725.452" y="416.573">G</text>
      <text x="708.622" y="397.670">G</text>
      <text x="686.384" y="395.112">A</text>
      <text x="670.543" y="406.436">A</text>
      <text x="657.405" y="399.197">G</text>
      <text x="653.118" y="393.294">A</text>
      <text x="644.212" y="391.955">A</text>
      <text x="631.051" y="384.760">A</text>
      <text x="617.889" y="377.564">U</text>
      <text x="604.728" y="370.368">G</text>
      <text x="591.567" y="363.172">G</text>
      <text x="578.405" y="355.977">G</text>
      <text x="565.244" y="348.781">C</text>
      <text x="552.083" y="341.585">U</text>
      <text x="553.446" y="334.210">A</text>
      <text x="566.632" y="341.362">C</text>
      <text x="577.508" y="331.032">A</text>
      <text x="571.044" y="317.496">U</text>
      <text x="556.174" y="319.460">U</text>
      <text x="557.537" y="312.085">C</text>
      <text x="572.402" y="310.072">G</text>
      <text x="587.266" y="308.058">C</text>
      <text x="602.130" y="306.045">U</text>
      <text x="616.994" y="304.031">A</text>
      <text x="633.502" y="307.897">C</text>
      <text x="641.786" y="293.105">A</text>
      <text x="629.865" y="281.049">G</text>
      <text x="614.981" y="289.167">U</text>
      <text x="600.117" y="291.181">A</text>
      <text x="585.252" y="293.194">G</text>
      <text x="570.388" y="295.208">C</text>
      <text x="555.524" y="297.221">G</text>
      <text x="553.891" y="289.901">A</text>
      <text x="568.532" y="286.636">A</text>
      <text x="583.172" y="283.371">C</text>
      <text x="597.813" y="280.106">A</text>
      <text x="608.859" y="269.959">C</text>
      <text x="594.548" y="265.466">G</text>
      <text x="579.907" y="268.731">A</text>
      <text x="565.267" y="271.996">A</text>
      <text x="550.627" y="275.261">A</text>
      <text x="548.994" y="267.940">G</text>
      <text x="563.306" y="263.448">A</text>
      <text x="577.617" y="258.955">U</text>
      <text x="591.928" y="254.462">G</text>
      <text x="606.240" y="249.969">A</text>
      <text x="620.551" y="245.477">G</text>
      <text x="634.862" y="240.984">C</text>
      <text x="648.754" y="248.520">U</text>
      <text x="663.882" y="243.946">G</text>
      <text x="671.271" y="229.976">A</text>
      <text x="666.537" y="214.897">A</text>
      <text x="652.489" y="207.656">A</text>
      <text x="637.462" y="212.549">C</text>
      <text x="630.370" y="226.673">G</text>
      <text x="616.058" y="231.165">U</text>
      <text x="601.747" y="235.658">U</text>
      <text x="587.436" y="240.151">U</text>
      <text x="573.124" y="244.644">A</text>
      <text x="558.813" y="249.136">U</text>
      <text x="544.501" y="253.629">C</text>
      <text x="556.658" y="244.842">U</text>
      <text x="563.089" y="231.290">G</text>
      <text x="562.209" y="216.316">A</text>
      <text x="554.234" y="203.612">A</text>
      <text x="541.132" y="196.309">G</text>
      <text x="526.132" y="196.210">G</text>
      <text x="512.934" y="203.338">A</text>
      <text x="504.792" y="215.936">G</text>
      <text x="503.713" y="230.897">G</text>
      <text x="509.964" y="244.532">A</text>
      <text x="522.002" y="253.479">U</text>
      <text x="507.752" y="248.797">U</text>
      <text x="493.501" y="244.114">U</text>
      <text x="479.251" y="239.432">A</text>
      <text x="465.000" y="234.749">G</text>
      <text x="465.898" y="228.315">C</text>
      <text x="466.097" y="221.822">A</text>
      <text x="465.595" y="215.345">G</text>
      <text x="464.398" y="208.960">U</text>
      <text x="462.520" y="202.741">A</text>
      <text x="459.983" y="196.761">A</text>
      <text x="472.529" y="188.539">G</text>
      <text x="485.075" y="180.317">C</text>
      <text x="500.859" y="179.225">A</text>
      <text x="507.263" y="165.777">G</text>
      <text x="519.809" y="157.555">G</text>
      <text x="532.355" y="149.334">A</text>
      <text x="546.402" y="155.711">A</text>
      <text x="561.664" y="153.458">A</text>
      <text x="573.271" y="143.295">U</text>
      <text x="577.518" y="128.464">A</text>
      <text x="573.051" y="113.697">G</text>
      <text x="561.295" y="103.707">A</text>
      <text x="546.001" y="101.682">G</text>
      <text x="532.049" y="108.267">C</text>
      <text x="523.893" y="121.362">G</text>
      <text x="524.133" y="136.788">U</text>
      <text x="511.587" y="145.009">C</text>
      <text x="499.041" y="153.231">C</text>
      <text x="484.155" y="153.736">C</text>
      <text x="476.853" y="167.771">G</text>
      <text x="464.307" y="175.993">C</text>
      <text x="451.761" y="184.215">U</text>
      <text x="444.288" y="176.794">G</text>
      <text x="435.629" y="170.784">A</text>
      <text x="426.050" y="166.372">A</text>
      <text x="415.843" y="163.695">A</text>
      <text x="405.318" y="162.837">C</text>
      <text x="394.798" y="163.826">U</text>
      <text x="384.605" y="166.635">G</text>
      <text x="375.050" y="171.180">G</text>
      <text x="366.429" y="177.324">C</text>
      <text x="359.005" y="184.881">C</text>
      <text x="353.007" y="193.622">C</text>
      <text x="348.622" y="203.280">U</text>
      <text x="333.955" y="200.137">G</text>
      <text x="319.288" y="196.994">A</text>
      <text x="304.621" y="193.851">A</text>
      <text x="289.954" y="190.708">G</text>
      <text x="275.287" y="187.565">C</text>
      <text x="260.620" y="184.422">G</text>
      <text x="245.953" y="181.278">C</text>
      <text x="231.291" y="178.111">G</text>
      <text x="216.634" y="174.919">C</text>
      <text x="210.841" y="170.484">A</text>
      <text x="201.924" y="171.741">C</text>
      <text x="187.257" y="168.598">A</text>
      <text x="184.093" y="161.798">C</text>
      <text x="198.471" y="157.525">A</text>
      <text x="212.850" y="153.251">C</text>
      <text x="227.228" y="148.978">C</text>
      <text x="242.169" y="150.310">G</text>
      <text x="254.468" y="141.724">C</text>
      <text x="258.367" y="127.240">C</text>
      <text x="252.040" y="113.640">C</text>
      <text x="238.449" y="107.292">G</text>
      <text x="223.959" y="111.170">U</text>
      <text x="215.354" y="123.458">C</text>
      <text x="202.824" y="131.705">A</text>
      <text x="190.295" y="139.952">C</text>
      <text x="177.765" y="148.198">U</text>
      <text x="174.601" y="141.398">C</text>
      <text x="181.643" y="128.154">U</text>
      <text x="188.685" y="114.910">C</text>
      <text x="195.727" y="101.666">C</text>
      <text x="202.769" y="88.422">C</text>
      <text x="209.811" y="75.177">C</text>
      <text x="223.983" y="80.178">A</text>
      <text x="238.743" y="83.011">A</text>
      <text x="253.759" y="83.612">A</text>
      <text x="268.698" y="81.968">A</text>
      <text x="283.224" y="78.117">C</text>
      <text x="297.014" y="72.143">C</text>
      <text x="309.760" y="64.180">A</text>
      <text x="321.176" y="54.406">C</text>
      <text x="331.009" y="43.040">A</text>
      <text x="339.037" y="30.336">C</text>
      <text x="345.082" y="16.577">C</text>
      <text x="349.009" y="2.070">C</text>
      <text x="350.729" y="-12.859">C</text>
      <text x="350.206" y="-27.879">C</text>
      <text x="347.449" y="-42.653">G</text>
      <text x="342.521" y="-56.850">U</text>
      <text x="335.533" y="-70.155">U</text>
      <text x="326.639" y="-82.269">A</text>
      <text x="316.039" y="-92.923">A</text>
      <text x="303.969" y="-101.877">U</text>
      <text x="290.700" y="-108.933">U</text>
      <text x="276.527" y="-113.931">A</text>
      <text x="261.767" y="-116.762">A</text>
      <text x="246.751" y="-117.361">A</text>
      <text x="231.812" y="-115.715">A</text>
      <text x="217.286" y="-111.861">C</text>
      <text x="203.497" y="-105.885">C</text>
      <text x="190.752" y="-97.921">U</text>
      <text x="179.337" y="-88.146">A</text>
      <text x="169.507" y="-76.778">A</text>
      <text x="161.480" y="-64.073">U</text>
      <text x="155.437" y="-50.313">A</text>
      <text x="151.512" y="-35.806">A</text>
      <text x="149.794" y="-20.876">C</text>
      <text x="150.320" y="-5.856">C</text>
      <text x="153.078" y="8.917">A</text>
      <text x="158.008" y="23.114">A</text>
      <text x="164.999" y="36.418">C</text>
      <text x="173.895" y="48.531">A</text>
      <text x="184.496" y="59.183">A</text>
      <text x="196.567" y="68.135">G</text>
      <text x="189.525" y="81.380">G</text>
      <text x="182.483" y="94.624">G</text>
      <text x="175.441" y="107.868">G</text>
      <text x="168.399" y="121.112">A</text>
      <text x="161.357" y="134.356">G</text>
      <text x="154.212" y="132.074">G</text>
      <text x="158.776" y="117.786">C</text>
      <text x="163.340" y="103.497">A</text>
      <text x="167.904" y="89.208">A</text>
      <text x="172.469" y="74.919">G</text>
      <text x="177.033" y="60.630">U</text>
      <text x="181.597" y="46.342">C</text>
      <text x="186.161" y="32.053">G</text>
      <text x="171.872" y="27.489">U</text>
      <text x="167.308" y="41.778">A</text>
      <text x="162.744" y="56.066">A</text>
      <text x="158.180" y="70.355">C</text>
      <text x="153.616" y="84.644">A</text>
      <text x="149.052" y="98.933">U</text>
      <text x="144.488" y="113.221">G</text>
      <text x="139.924" y="127.510">G</text>
      <text x="132.779" y="125.228">U</text>
      <text x="134.718" y="110.354">A</text>
      <text x="136.658" y="95.480">A</text>
      <text x="138.597" y="80.606">G</text>
      <text x="140.537" y="65.732">U</text>
      <text x="142.476" y="50.858">G</text>
      <text x="144.415" y="35.984">U</text>
      <text x="146.355" y="21.110">A</text>
      <text x="148.294" y="6.235">C</text>
      <text x="150.233" y="-8.639">C</text>
      <text x="160.624" y="-21.325">G</text>
      <text x="154.581" y="-36.570">G</text>
      <text x="138.319" y="-38.691">A</text>
      <text x="128.568" y="-25.505">A</text>
      <text x="135.359" y="-10.578">G</text>
      <text x="133.420" y="4.296">G</text>
      <text x="131.480" y="19.170">U</text>
      <text x="129.541" y="34.044">G</text>
      <text x="127.602" y="48.918">C</text>
      <text x="125.662" y="63.792">A</text>
      <text x="123.723" y="78.667">C</text>
      <text x="121.784" y="93.541">U</text>
      <text x="119.844" y="108.415">U</text>
      <text x="117.905" y="123.289">G</text>
      <text x="110.407" y="123.102">G</text>
      <text x="110.781" y="108.107">U</text>
      <text x="111.155" y="93.111">A</text>
      <text x="111.529" y="78.116">U</text>
      <text x="111.903" y="63.121">A</text>
      <text x="104.729" y="49.947">A</text>
      <text x="96.908" y="62.747">U</text>
    </g>
  </g>
</svg>
