<?xml version="1.0" encoding="UTF-8" standalone="yes"?>
<svg xmlns="http://www.w3.org/2000/svg" height="452" width="452">
<script type="text/ecmascript">
      <![CDATA[
        var shown = 1;
        function click() {
             var seq = document.getElementById("seq");
             if (shown==1) {
               seq.setAttribute("style", "visibility: hidden");
               shown = 0;
             } else {
               seq.setAttribute("style", "visibility: visible");
               shown = 1;
             }
         }
        ]]>
</script>
  <rect style="stroke: white; fill: white" height="452" x="0" y="0" width="452" onclick="click(evt)" />
  <g transform="scale(1.622297,1.622297) translate(22.478111,31.135963)">
    <polyline style="stroke: black; fill: none; stroke-width: 1.5" id="outline" points="
      112.742,-7.705
      112.039,7.278
      111.336,22.262
      110.633,37.245
      109.930,52.229
      109.227,67.212
      108.524,82.196
      92.651,83.711
      79.877,91.844
      72.609,104.207
      57.810,101.757
      43.012,99.306
      28.214,96.855
      13.575,88.302
      1.304,100.001
      9.149,115.031
      25.763,111.654
      40.561,114.104
      55.360,116.555
      70.158,119.006
      74.291,131.729
      83.550,141.385
      78.714,155.585
      73.879,169.784
      69.043,183.983
      64.208,198.182
      49.564,203.667
      41.916,217.306
      44.875,232.661
      57.045,242.481
      72.679,242.130
      84.395,231.772
      86.661,216.300
      78.407,203.018
      83.243,188.819
      88.078,174.619
      92.914,160.420
      97.749,146.221
      109.111,145.984
      119.947,141.438
      128.633,132.957
      133.755,121.526
      134.340,108.625
      149.336,108.273
      164.332,107.922
      179.328,107.570
      194.324,107.218
      205.583,118.308
      221.386,118.105
      232.357,106.729
      231.987,90.929
      220.495,80.079
      204.700,80.617
      193.972,92.222
      178.976,92.574
      163.980,92.926
      148.984,93.277
      133.989,93.629
      123.507,82.899
      124.210,67.915
      124.913,52.932
      125.616,37.948
      126.319,22.965
      127.022,7.981
      127.726,-7.002
      130.817,-26.136
    " />
    <g style="stroke: black; stroke-width: 1" id="pairs">
      <line id="1,65" x1="112.742" y1="-7.705" x2="127.726" y2="-7.002" />
      <line id="2,64" x1="112.039" y1=" 7.278" x2="127.022" y2=" 7.981" />
      <line id="3,63" x1="111.336" y1="22.262" x2="126.319" y2="22.965" />
      <line id="4,62" x1="110.633" y1="37.245" x2="125.616" y2="37.948" />
      <line id="5,61" x1="109.930" y1="52.229" x2="124.913" y2="52.932" />
      <line id="6,60" x1="109.227" y1="67.212" x2="124.210" y2="67.915" />
      <line id="7,59" x1="108.524" y1="82.196" x2="123.507" y2="82.899" />
      <line id="10,20" x1="72.609" y1="104.207" x2="70.158" y2="119.006" />
      <line id="11,19" x1="57.810" y1="101.757" x2="55.360" y2="116.555" />
      <line id="12,18" x1="43.012" y1="99.306" x2="40.561" y2="114.104" />
      <line id="13,17" x1="28.214" y1="96.855" x2="25.763" y2="111.654" />
      <line id="22,38" x1="83.550" y1="141.385" x2="97.749" y2="146.221" />
      <line id="23,37" x1="78.714" y1="155.585" x2="92.914" y2="160.420" />
      <line id="24,36" x1="73.879" y1="169.784" x2="88.078" y2="174.619" />
      <line id="25,35" x1="69.043" y1="183.983" x2="83.243" y2="188.819" />
      <line id="26,34" x1="64.208" y1="198.182" x2="78.407" y2="203.018" />
      <line id="43,58" x1="134.340" y1="108.625" x2="133.989" y2="93.629" />
      <line id="44,57" x1="149.336" y1="108.273" x2="148.984" y2="93.277" />
      <line id="45,56" x1="164.332" y1="107.922" x2="163.980" y2="92.926" />
      <line id="46,55" x1="179.328" y1="107.570" x2="178.976" y2="92.574" />
      <line id="47,54" x1="194.324" y1="107.218" x2="193.972" y2="92.222" />
    </g>
    <g style="font-family: SansSerif" transform="translate(-4.6, 4)" id="seq">
      <text x="112.742" y="-7.705">A</text>
      <text x="112.039" y="7.278">G</text>
      <text x="111.336" y="22.262">C</text>
      <text x="110.633" y="37.245">C</text>
      <text x="109.930" y="52.229">C</text>
      <text x="109.227" y="67.212">C</text>
      <text x="108.524" y="82.196">A</text>
      <text x="92.651" y="83.711">A</text>
      <text x="79.877" y="91.844">G</text>
      <text x="72.609" y="104.207">G</text>
      <text x="57.810" y="101.757">U</text>
      <text x="43.012" y="99.306">G</text>
      <text x="28.214" y="96.855">U</text>
      <text x="13.575" y="88.302">U</text>
      <text x="1.304" y="100.001">C</text>
      <text x="9.149" y="115.031">A</text>
      <text x="25.763" y="111.654">A</text>
      <text x="40.561" y="114.104">C</text>
      <text x="55.360" y="116.555">A</text>
      <text x="70.158" y="119.006">U</text>
      <text x="74.291" y="131.729">A</text>
      <text x="83.550" y="141.385">U</text>
      <text x="78.714" y="155.585">A</text>
      <text x="73.879" y="169.784">A</text>
      <text x="69.043" y="183.983">G</text>
      <text x="64.208" y="198.182">A</text>
      <text x="49.564" y="203.667">U</text>
      <text x="41.916" y="217.306">U</text>
      <text x="44.875" y="232.661">G</text>
      <text x="57.045" y="242.481">C</text>
      <text x="72.679" y="242.130">A</text>
      <text x="84.395" y="231.772">A</text>
      <text x="86.661" y="216.300">A</text>
      <text x="78.407" y="203.018">U</text>
      <text x="83.243" y="188.819">C</text>
      <text x="88.078" y="174.619">U</text>
      <text x="92.914" y="160.420">U</text>
      <text x="97.749" y="146.221">G</text>
      <text x="109.111" y="145.984">A</text>
      <text x="119.947" y="141.438">G</text>
      <text x="128.633" y="132.957">A</text>
      <text x="133.755" y="121.526">G</text>
      <text x="134.340" y="108.625">G</text>
      <text x="149.336" y="108.273">C</text>
      <text x="164.332" y="107.922">A</text>
      <text x="179.328" y="107.570">G</text>
      <text x="194.324" y="107.218">A</text>
      <text x="205.583" y="118.308">C</text>
      <text x="221.386" y="118.105">U</text>
      <text x="232.357" y="106.729">A</text>
      <text x="231.987" y="90.929">A</text>
      <text x="220.495" y="80.079">C</text>
      <text x="204.700" y="80.617">A</text>
      <text x="193.972" y="92.222">U</text>
      <text x="178.976" y="92.574">C</text>
      <text x="163.980" y="92.926">U</text>
      <text x="148.984" y="93.277">G</text>
      <text x="133.989" y="93.629">C</text>
      <text x="123.507" y="82.899">U</text>
      <text x="124.210" y="67.915">G</text>
      <text x="124.913" y="52.932">G</text>
      <text x="125.616" y="37.948">G</text>
      <text x="126.319" y="22.965">G</text>
      <text x="127.022" y="7.981">C</text>
      <text x="127.726" y="-7.002">U</text>
      <text x="130.817" y="-26.136">U</text>
    </g>
  </g>
</svg>
