<?xml version="1.0" encoding="UTF-8" standalone="yes"?>
<svg xmlns="http://www.w3.org/2000/svg" height="452" width="452">
<script type="text/ecmascript">
      <![CDATA[
        var shown = 1;
        function click() {
             var seq = document.getElementById("seq");
             if (shown==1) {
               seq.setAttribute("style", "visibility: hidden");
               shown = 0;
             } else {
               seq.setAttribute("style", "visibility: visible");
               shown = 1;
             }
         }
        ]]>
</script>
  <rect style="stroke: white; fill: white" height="452" x="0" y="0" width="452" onclick="click(evt)" />
  <g transform="scale(1.593941,1.593941) translate(35.536530,34.856537)">
    <polyline style="stroke: black; fill: none; stroke-width: 1.5" id="outline" points="
      110.477,-11.346
      109.840,3.640
      109.204,18.627
      108.567,33.613
      107.930,48.600
      107.294,63.586
      106.657,78.573
      89.847,81.303
      77.033,91.152
      70.790,105.113
      55.803,104.477
      42.344,96.160
      29.300,103.351
      21.606,89.978
      7.894,82.909
      -7.461,84.397
      -19.560,93.969
      -24.542,108.570
      -20.816,123.541
      -9.573,134.105
      5.601,136.890
      19.863,131.009
      28.663,118.337
      41.050,126.608
      55.166,119.463
      70.153,120.100
      77.110,134.006
      90.021,142.674
      81.141,155.768
      87.771,169.105
      86.499,184.051
      85.227,198.997
      72.335,207.848
      68.199,222.929
      74.770,237.119
      88.948,243.717
      104.036,239.609
      112.911,226.735
      111.383,211.172
      100.173,200.270
      101.445,185.324
      102.717,170.378
      111.506,158.352
      104.967,143.946
      115.119,141.581
      124.211,135.780
      131.079,127.003
      134.755,116.100
      134.596,104.235
      149.475,102.330
      164.353,100.424
      179.232,98.519
      194.110,96.614
      205.479,107.351
      221.092,108.218
      233.579,98.804
      237.042,83.555
      229.848,69.671
      215.392,63.707
      200.501,68.480
      192.205,81.735
      177.326,83.641
      162.448,85.546
      147.569,87.451
      132.691,89.356
      121.644,79.210
      122.280,64.223
      122.917,49.237
      123.554,34.250
      124.190,19.264
      124.827,4.277
      125.463,-10.709
      128.470,-29.857
    " />
    <g style="stroke: black; stroke-width: 1" id="pairs">
      <line id="1,72" x1="110.477" y1="-11.346" x2="125.463" y2="-10.709" />
      <line id="2,71" x1="109.840" y1=" 3.640" x2="124.827" y2=" 4.277" />
      <line id="3,70" x1="109.204" y1="18.627" x2="124.190" y2="19.264" />
      <line id="4,69" x1="108.567" y1="33.613" x2="123.554" y2="34.250" />
      <line id="5,68" x1="107.930" y1="48.600" x2="122.917" y2="49.237" />
      <line id="6,67" x1="107.294" y1="63.586" x2="122.280" y2="64.223" />
      <line id="7,66" x1="106.657" y1="78.573" x2="121.644" y2="79.210" />
      <line id="10,26" x1="70.790" y1="105.113" x2="70.153" y2="120.100" />
      <line id="11,25" x1="55.803" y1="104.477" x2="55.166" y2="119.463" />
      <line id="13,23" x1="29.300" y1="103.351" x2="28.663" y2="118.337" />
      <line id="28,44" x1="90.021" y1="142.674" x2="104.967" y2="143.946" />
      <line id="30,42" x1="87.771" y1="169.105" x2="102.717" y2="170.378" />
      <line id="31,41" x1="86.499" y1="184.051" x2="101.445" y2="185.324" />
      <line id="32,40" x1="85.227" y1="198.997" x2="100.173" y2="200.270" />
      <line id="49,65" x1="134.596" y1="104.235" x2="132.691" y2="89.356" />
      <line id="50,64" x1="149.475" y1="102.330" x2="147.569" y2="87.451" />
      <line id="51,63" x1="164.353" y1="100.424" x2="162.448" y2="85.546" />
      <line id="52,62" x1="179.232" y1="98.519" x2="177.326" y2="83.641" />
      <line id="53,61" x1="194.110" y1="96.614" x2="192.205" y2="81.735" />
    </g>
    <g style="font-family: SansSerif" transform="translate(-4.6, 4)" id="seq">
      <text x="110.477" y="-11.346">G</text>
      <text x="109.840" y="3.640">A</text>
      <text x="109.204" y="18.627">G</text>
      <text x="108.567" y="33.613">G</text>
      <text x="107.930" y="48.600">U</text>
      <text x="107.294" y="63.586">A</text>
      <text x="106.657" y="78.573">C</text>
      <text x="89.847" y="81.303">U</text>
      <text x="77.033" y="91.152">G</text>
      <text x="70.790" y="105.113">G</text>
      <text x="55.803" y="104.477">U</text>
      <text x="42.344" y="96.160">A</text>
      <text x="29.300" y="103.351">A</text>
      <text x="21.606" y="89.978">A</text>
      <text x="7.894" y="82.909">A</text>
      <text x="-7.461" y="84.397">U</text>
      <text x="-19.560" y="93.969">C</text>
      <text x="-24.542" y="108.570">G</text>
      <text x="-20.816" y="123.541">U</text>
      <text x="-9.573" y="134.105">A</text>
      <text x="5.601" y="136.890">U</text>
      <text x="19.863" y="131.009">A</text>
      <text x="28.663" y="118.337">U</text>
      <text x="41.050" y="126.608">C</text>
      <text x="55.166" y="119.463">A</text>
      <text x="70.153" y="120.100">C</text>
      <text x="77.110" y="134.006">A</text>
      <text x="90.021" y="142.674">C</text>
      <text x="81.141" y="155.768">C</text>
      <text x="87.771" y="169.105">G</text>
      <text x="86.499" y="184.051">C</text>
      <text x="85.227" y="198.997">C</text>
      <text x="72.335" y="207.848">U</text>
      <text x="68.199" y="222.929">U</text>
      <text x="74.770" y="237.119">G</text>
      <text x="88.948" y="243.717">U</text>
      <text x="104.036" y="239.609">C</text>
      <text x="112.911" y="226.735">G</text>
      <text x="111.383" y="211.172">A</text>
      <text x="100.173" y="200.270">G</text>
      <text x="101.445" y="185.324">G</text>
      <text x="102.717" y="170.378">C</text>
      <text x="111.506" y="158.352">C</text>
      <text x="104.967" y="143.946">G</text>
      <text x="115.119" y="141.581">A</text>
      <text x="124.211" y="135.780">G</text>
      <text x="131.079" y="127.003">U</text>
      <text x="134.755" y="116.100">U</text>
      <text x="134.596" y="104.235">G</text>
      <text x="149.475" y="102.330">C</text>
      <text x="164.353" y="100.424">G</text>
      <text x="179.232" y="98.519">G</text>
      <text x="194.110" y="96.614">G</text>
      <text x="205.479" y="107.351">U</text>
      <text x="221.092" y="108.218">U</text>
      <text x="233.579" y="98.804">U</text>
      <text x="237.042" y="83.555">A</text>
      <text x="229.848" y="69.671">A</text>
      <text x="215.392" y="63.707">C</text>
      <text x="200.501" y="68.480">C</text>
      <text x="192.205" y="81.735">C</text>
      <text x="177.326" y="83.641">C</text>
      <text x="162.448" y="85.546">C</text>
      <text x="147.569" y="87.451">G</text>
      <text x="132.691" y="89.356">C</text>
      <text x="121.644" y="79.210">G</text>
      <text x="122.280" y="64.223">U</text>
      <text x="122.917" y="49.237">A</text>
      <text x="123.554" y="34.250">U</text>
      <text x="124.190" y="19.264">C</text>
      <text x="124.827" y="4.277">U</text>
      <text x="125.463" y="-10.709">U</text>
      <text x="128.470" y="-29.857">U</text>
    </g>
  </g>
</svg>
