<?xml version="1.0" encoding="UTF-8" standalone="yes"?>
<svg xmlns="http://www.w3.org/2000/svg" height="452" width="452">
<script type="text/ecmascript">
      <![CDATA[
        var shown = 1;
        function click() {
             var seq = document.getElementById("seq");
             if (shown==1) {
               seq.setAttribute("style", "visibility: hidden");
               shown = 0;
             } else {
               seq.setAttribute("style", "visibility: visible");
               shown = 1;
             }
         }
        ]]>
</script>
  <rect style="stroke: white; fill: white" height="452" x="0" y="0" width="452" onclick="click(evt)" />
  <g transform="scale(1.644676,1.644676) translate(28.236488,35.097870)">
    <polyline style="stroke: black; fill: none; stroke-width: 1.5" id="outline" points="
      111.491,-11.643
      110.808,3.342
      110.126,18.326
      98.986,28.147
      98.080,43.334
      108.457,54.951
      107.774,69.936
      91.472,71.939
      78.632,80.790
      71.741,93.851
      56.838,92.147
      41.935,90.444
      27.032,88.740
      15.965,77.126
      -0.003,78.681
      -8.621,92.213
      -3.279,107.340
      11.925,112.459
      25.329,103.643
      40.232,105.347
      55.135,107.050
      70.038,108.754
      75.291,122.072
      86.081,131.482
      82.695,146.095
      79.310,160.708
      75.925,175.321
      72.539,189.934
      58.520,196.861
      52.280,211.200
      56.766,226.180
      69.861,234.728
      85.380,232.809
      95.997,221.327
      96.698,205.705
      87.152,193.319
      90.538,178.706
      93.923,164.093
      97.308,149.480
      100.694,134.867
      111.646,133.691
      121.811,128.548
      129.757,119.867
      134.265,108.589
      134.509,96.068
      149.474,95.045
      164.439,94.021
      179.404,92.998
      189.256,104.985
      204.282,108.860
      218.703,103.132
      226.974,90.003
      225.915,74.522
      215.933,62.642
      200.867,58.930
      186.509,64.815
      178.380,78.033
      163.415,79.056
      148.450,80.080
      133.485,81.103
      122.759,70.618
      123.441,55.634
      134.831,45.008
      135.310,29.802
      125.110,19.009
      125.793,4.024
      126.475,-10.960
      129.541,-30.098
    " />
    <g style="stroke: black; stroke-width: 1" id="pairs">
      <line id="1,67" x1="111.491" y1="-11.643" x2="126.475" y2="-10.960" />
      <line id="2,66" x1="110.808" y1=" 3.342" x2="125.793" y2=" 4.024" />
      <line id="3,65" x1="110.126" y1="18.326" x2="125.110" y2="19.009" />
      <line id="6,62" x1="108.457" y1="54.951" x2="123.441" y2="55.634" />
      <line id="7,61" x1="107.774" y1="69.936" x2="122.759" y2="70.618" />
      <line id="10,22" x1="71.741" y1="93.851" x2="70.038" y2="108.754" />
      <line id="11,21" x1="56.838" y1="92.147" x2="55.135" y2="107.050" />
      <line id="12,20" x1="41.935" y1="90.444" x2="40.232" y2="105.347" />
      <line id="13,19" x1="27.032" y1="88.740" x2="25.329" y2="103.643" />
      <line id="24,40" x1="86.081" y1="131.482" x2="100.694" y2="134.867" />
      <line id="25,39" x1="82.695" y1="146.095" x2="97.308" y2="149.480" />
      <line id="26,38" x1="79.310" y1="160.708" x2="93.923" y2="164.093" />
      <line id="27,37" x1="75.925" y1="175.321" x2="90.538" y2="178.706" />
      <line id="28,36" x1="72.539" y1="189.934" x2="87.152" y2="193.319" />
      <line id="45,60" x1="134.509" y1="96.068" x2="133.485" y2="81.103" />
      <line id="46,59" x1="149.474" y1="95.045" x2="148.450" y2="80.080" />
      <line id="47,58" x1="164.439" y1="94.021" x2="163.415" y2="79.056" />
      <line id="48,57" x1="179.404" y1="92.998" x2="178.380" y2="78.033" />
    </g>
    <g style="font-family: SansSerif" transform="translate(-4.6, 4)" id="seq">
      <text x="111.491" y="-11.643">G</text>
      <text x="110.808" y="3.342">C</text>
      <text x="110.126" y="18.326">U</text>
      <text x="98.986" y="28.147">A</text>
      <text x="98.080" y="43.334">A</text>
      <text x="108.457" y="54.951">C</text>
      <text x="107.774" y="69.936">G</text>
      <text x="91.472" y="71.939">U</text>
      <text x="78.632" y="80.790">A</text>
      <text x="71.741" y="93.851">G</text>
      <text x="56.838" y="92.147">C</text>
      <text x="41.935" y="90.444">U</text>
      <text x="27.032" y="88.740">U</text>
      <text x="15.965" y="77.126">A</text>
      <text x="-0.003" y="78.681">A</text>
      <text x="-8.621" y="92.213">C</text>
      <text x="-3.279" y="107.340">C</text>
      <text x="11.925" y="112.459">A</text>
      <text x="25.329" y="103.643">A</text>
      <text x="40.232" y="105.347">A</text>
      <text x="55.135" y="107.050">G</text>
      <text x="70.038" y="108.754">C</text>
      <text x="75.291" y="122.072">A</text>
      <text x="86.081" y="131.482">U</text>
      <text x="82.695" y="146.095">A</text>
      <text x="79.310" y="160.708">A</text>
      <text x="75.925" y="175.321">C</text>
      <text x="72.539" y="189.934">A</text>
      <text x="58.520" y="196.861">C</text>
      <text x="52.280" y="211.200">U</text>
      <text x="56.766" y="226.180">G</text>
      <text x="69.861" y="234.728">A</text>
      <text x="85.380" y="232.809">A</text>
      <text x="95.997" y="221.327">G</text>
      <text x="96.698" y="205.705">A</text>
      <text x="87.152" y="193.319">U</text>
      <text x="90.538" y="178.706">G</text>
      <text x="93.923" y="164.093">U</text>
      <text x="97.308" y="149.480">U</text>
      <text x="100.694" y="134.867">A</text>
      <text x="111.646" y="133.691">A</text>
      <text x="121.811" y="128.548">G</text>
      <text x="129.757" y="119.867">A</text>
      <text x="134.265" y="108.589">U</text>
      <text x="134.509" y="96.068">G</text>
      <text x="149.474" y="95.045">G</text>
      <text x="164.439" y="94.021">G</text>
      <text x="179.404" y="92.998">C</text>
      <text x="189.256" y="104.985">C</text>
      <text x="204.282" y="108.860">C</text>
      <text x="218.703" y="103.132">U</text>
      <text x="226.974" y="90.003">A</text>
      <text x="225.915" y="74.522">G</text>
      <text x="215.933" y="62.642">A</text>
      <text x="200.867" y="58.930">A</text>
      <text x="186.509" y="64.815">A</text>
      <text x="178.380" y="78.033">G</text>
      <text x="163.415" y="79.056">C</text>
      <text x="148.450" y="80.080">C</text>
      <text x="133.485" y="81.103">C</text>
      <text x="122.759" y="70.618">C</text>
      <text x="123.441" y="55.634">G</text>
      <text x="134.831" y="45.008">G</text>
      <text x="135.310" y="29.802">A</text>
      <text x="125.110" y="19.009">A</text>
      <text x="125.793" y="4.024">G</text>
      <text x="126.475" y="-10.960">C</text>
      <text x="129.541" y="-30.098">A</text>
    </g>
  </g>
</svg>
