<?xml version="1.0" encoding="UTF-8" standalone="yes"?>
<svg xmlns="http://www.w3.org/2000/svg" height="452" width="452">
<script type="text/ecmascript">
      <![CDATA[
        var shown = 1;
        function click() {
             var seq = document.getElementById("seq");
             if (shown==1) {
               seq.setAttribute("style", "visibility: hidden");
               shown = 0;
             } else {
               seq.setAttribute("style", "visibility: visible");
               shown = 1;
             }
         }
        ]]>
</script>
  <rect style="stroke: white; fill: white" height="452" x="0" y="0" width="452" onclick="click(evt)" />
  <g transform="scale(1.617868,1.617868) translate(35.620728,27.383369)">
    <polyline style="stroke: black; fill: none; stroke-width: 1.5" id="outline" points="
      112.194,-2.463
      111.557,12.524
      110.921,27.510
      110.284,42.497
      109.647,57.483
      109.011,72.470
      108.374,87.456
      89.754,89.682
      75.283,100.235
      68.180,115.755
      53.193,115.118
      38.207,114.482
      23.220,113.845
      15.527,100.473
      1.815,93.403
      -13.540,94.892
      -25.639,104.464
      -30.621,119.065
      -26.895,134.035
      -15.652,144.599
      -0.478,147.384
      13.784,141.503
      22.584,128.831
      37.570,129.468
      52.557,130.105
      67.543,130.741
      71.727,141.690
      79.470,150.488
      89.799,156.029
      88.527,170.975
      87.255,185.921
      85.983,200.867
      73.091,209.718
      68.955,224.798
      75.527,238.988
      89.704,245.586
      104.792,241.479
      113.667,228.604
      112.139,213.041
      100.929,202.139
      102.201,187.193
      103.473,172.247
      104.745,157.301
      114.214,155.360
      122.941,150.670
      130.127,143.503
      135.073,134.364
      137.240,123.954
      136.313,113.118
      151.192,111.213
      166.070,109.308
      180.949,107.402
      195.827,105.497
      207.195,116.235
      222.809,117.101
      235.295,107.687
      238.759,92.438
      231.565,78.554
      217.109,72.590
      202.218,77.363
      193.922,90.619
      179.043,92.524
      164.165,94.429
      149.286,96.334
      134.408,98.240
      123.361,88.093
      123.997,73.106
      124.634,58.120
      125.270,43.133
      125.907,28.147
      126.544,13.160
      127.180,-1.826
      130.186,-20.973
    " />
    <g style="stroke: black; stroke-width: 1" id="pairs">
      <line id="1,72" x1="112.194" y1="-2.463" x2="127.180" y2="-1.826" />
      <line id="2,71" x1="111.557" y1="12.524" x2="126.544" y2="13.160" />
      <line id="3,70" x1="110.921" y1="27.510" x2="125.907" y2="28.147" />
      <line id="4,69" x1="110.284" y1="42.497" x2="125.270" y2="43.133" />
      <line id="5,68" x1="109.647" y1="57.483" x2="124.634" y2="58.120" />
      <line id="6,67" x1="109.011" y1="72.470" x2="123.997" y2="73.106" />
      <line id="7,66" x1="108.374" y1="87.456" x2="123.361" y2="88.093" />
      <line id="10,26" x1="68.180" y1="115.755" x2="67.543" y2="130.741" />
      <line id="11,25" x1="53.193" y1="115.118" x2="52.557" y2="130.105" />
      <line id="12,24" x1="38.207" y1="114.482" x2="37.570" y2="129.468" />
      <line id="13,23" x1="23.220" y1="113.845" x2="22.584" y2="128.831" />
      <line id="29,43" x1="89.799" y1="156.029" x2="104.745" y2="157.301" />
      <line id="30,42" x1="88.527" y1="170.975" x2="103.473" y2="172.247" />
      <line id="31,41" x1="87.255" y1="185.921" x2="102.201" y2="187.193" />
      <line id="32,40" x1="85.983" y1="200.867" x2="100.929" y2="202.139" />
      <line id="49,65" x1="136.313" y1="113.118" x2="134.408" y2="98.240" />
      <line id="50,64" x1="151.192" y1="111.213" x2="149.286" y2="96.334" />
      <line id="51,63" x1="166.070" y1="109.308" x2="164.165" y2="94.429" />
      <line id="52,62" x1="180.949" y1="107.402" x2="179.043" y2="92.524" />
      <line id="53,61" x1="195.827" y1="105.497" x2="193.922" y2="90.619" />
    </g>
    <g style="font-family: SansSerif" transform="translate(-4.6, 4)" id="seq">
      <text x="112.194" y="-2.463">A</text>
      <text x="111.557" y="12.524">U</text>
      <text x="110.921" y="27.510">C</text>
      <text x="110.284" y="42.497">U</text>
      <text x="109.647" y="57.483">U</text>
      <text x="109.011" y="72.470">C</text>
      <text x="108.374" y="87.456">C</text>
      <text x="89.754" y="89.682">U</text>
      <text x="75.283" y="100.235">A</text>
      <text x="68.180" y="115.755">G</text>
      <text x="53.193" y="115.118">U</text>
      <text x="38.207" y="114.482">A</text>
      <text x="23.220" y="113.845">C</text>
      <text x="15.527" y="100.473">U</text>
      <text x="1.815" y="93.403">A</text>
      <text x="-13.540" y="94.892">A</text>
      <text x="-25.639" y="104.464">A</text>
      <text x="-30.621" y="119.065">U</text>
      <text x="-26.895" y="134.035">G</text>
      <text x="-15.652" y="144.599">A</text>
      <text x="-0.478" y="147.384">C</text>
      <text x="13.784" y="141.503">A</text>
      <text x="22.584" y="128.831">G</text>
      <text x="37.570" y="129.468">U</text>
      <text x="52.557" y="130.105">A</text>
      <text x="67.543" y="130.741">U</text>
      <text x="71.727" y="141.690">A</text>
      <text x="79.470" y="150.488">A</text>
      <text x="89.799" y="156.029">G</text>
      <text x="88.527" y="170.975">U</text>
      <text x="87.255" y="185.921">G</text>
      <text x="85.983" y="200.867">A</text>
      <text x="73.091" y="209.718">C</text>
      <text x="68.955" y="224.798">U</text>
      <text x="75.527" y="238.988">U</text>
      <text x="89.704" y="245.586">C</text>
      <text x="104.792" y="241.479">C</text>
      <text x="113.667" y="228.604">A</text>
      <text x="112.139" y="213.041">A</text>
      <text x="100.929" y="202.139">U</text>
      <text x="102.201" y="187.193">C</text>
      <text x="103.473" y="172.247">A</text>
      <text x="104.745" y="157.301">C</text>
      <text x="114.214" y="155.360">C</text>
      <text x="122.941" y="150.670">C</text>
      <text x="130.127" y="143.503">G</text>
      <text x="135.073" y="134.364">G</text>
      <text x="137.240" y="123.954">U</text>
      <text x="136.313" y="113.118">C</text>
      <text x="151.192" y="111.213">U</text>
      <text x="166.070" y="109.308">U</text>
      <text x="180.949" y="107.402">G</text>
      <text x="195.827" y="105.497">G</text>
      <text x="207.195" y="116.235">U</text>
      <text x="222.809" y="117.101">U</text>
      <text x="235.295" y="107.687">A</text>
      <text x="238.759" y="92.438">A</text>
      <text x="231.565" y="78.554">A</text>
      <text x="217.109" y="72.590">G</text>
      <text x="202.218" y="77.363">C</text>
      <text x="193.922" y="90.619">C</text>
      <text x="179.043" y="92.524">C</text>
      <text x="164.165" y="94.429">A</text>
      <text x="149.286" y="96.334">A</text>
      <text x="134.408" y="98.240">G</text>
      <text x="123.361" y="88.093">G</text>
      <text x="123.997" y="73.106">G</text>
      <text x="124.634" y="58.120">A</text>
      <text x="125.270" y="43.133">A</text>
      <text x="125.907" y="28.147">G</text>
      <text x="126.544" y="13.160">A</text>
      <text x="127.180" y="-1.826">U</text>
      <text x="130.186" y="-20.973">A</text>
    </g>
  </g>
</svg>
