<?xml version="1.0" encoding="UTF-8" standalone="yes"?>
<svg xmlns="http://www.w3.org/2000/svg" height="452" width="452">
<script type="text/ecmascript">
      <![CDATA[
        var shown = 1;
        function click() {
             var seq = document.getElementById("seq");
             if (shown==1) {
               seq.setAttribute("style", "visibility: hidden");
               shown = 0;
             } else {
               seq.setAttribute("style", "visibility: visible");
               shown = 1;
             }
         }
        ]]>
</script>
  <rect style="stroke: white; fill: white" height="452" x="0" y="0" width="452" onclick="click(evt)" />
  <g transform="scale(1.667598,1.667598) translate(18.143684,20.837105)">
    <polyline style="stroke: black; fill: none; stroke-width: 1.5" id="outline" points="
      113.871,2.641
      113.208,17.626
      112.544,32.612
      111.881,47.597
      111.217,62.582
      110.554,77.568
      109.890,92.553
      91.993,93.766
      77.411,102.813
      69.163,116.969
      54.342,114.656
      39.522,112.342
      31.594,98.863
      16.839,93.683
      2.225,99.246
      -5.349,112.928
      -2.305,128.266
      9.917,138.020
      25.549,137.583
      37.208,127.162
      52.029,129.476
      66.849,131.790
      69.295,142.103
      74.863,151.122
      82.987,157.929
      78.415,172.215
      73.843,186.501
      69.271,200.788
      54.730,206.542
      47.336,220.321
      50.579,235.618
      62.928,245.212
      78.553,244.571
      90.075,233.999
      92.055,218.487
      83.557,205.360
      88.129,191.073
      92.701,176.787
      97.273,162.501
      106.564,162.670
      115.730,160.232
      124.038,155.271
      130.797,148.079
      135.409,139.137
      137.427,129.084
      136.594,118.672
      151.561,117.677
      166.528,116.682
      181.494,115.688
      196.461,114.693
      207.154,126.103
      222.686,127.920
      235.723,119.285
      240.110,104.275
      233.775,89.978
      219.710,83.144
      204.555,87.000
      195.467,99.726
      180.500,100.721
      165.533,101.715
      150.566,102.710
      135.599,103.705
      124.875,93.217
      125.539,78.231
      126.202,63.246
      126.866,48.261
      127.529,33.275
      128.193,18.290
      128.856,3.305
      131.897,-15.837
    " />
    <g style="stroke: black; stroke-width: 1" id="pairs">
      <line id="1,69" x1="113.871" y1=" 2.641" x2="128.856" y2=" 3.305" />
      <line id="2,68" x1="113.208" y1="17.626" x2="128.193" y2="18.290" />
      <line id="3,67" x1="112.544" y1="32.612" x2="127.529" y2="33.275" />
      <line id="4,66" x1="111.881" y1="47.597" x2="126.866" y2="48.261" />
      <line id="5,65" x1="111.217" y1="62.582" x2="126.202" y2="63.246" />
      <line id="6,64" x1="110.554" y1="77.568" x2="125.539" y2="78.231" />
      <line id="7,63" x1="109.890" y1="92.553" x2="124.875" y2="93.217" />
      <line id="10,22" x1="69.163" y1="116.969" x2="66.849" y2="131.790" />
      <line id="11,21" x1="54.342" y1="114.656" x2="52.029" y2="129.476" />
      <line id="12,20" x1="39.522" y1="112.342" x2="37.208" y2="127.162" />
      <line id="25,39" x1="82.987" y1="157.929" x2="97.273" y2="162.501" />
      <line id="26,38" x1="78.415" y1="172.215" x2="92.701" y2="176.787" />
      <line id="27,37" x1="73.843" y1="186.501" x2="88.129" y2="191.073" />
      <line id="28,36" x1="69.271" y1="200.788" x2="83.557" y2="205.360" />
      <line id="46,62" x1="136.594" y1="118.672" x2="135.599" y2="103.705" />
      <line id="47,61" x1="151.561" y1="117.677" x2="150.566" y2="102.710" />
      <line id="48,60" x1="166.528" y1="116.682" x2="165.533" y2="101.715" />
      <line id="49,59" x1="181.494" y1="115.688" x2="180.500" y2="100.721" />
      <line id="50,58" x1="196.461" y1="114.693" x2="195.467" y2="99.726" />
    </g>
    <g style="font-family: SansSerif" transform="translate(-4.6, 4)" id="seq">
      <text x="113.871" y="2.641">G</text>
      <text x="113.208" y="17.626">G</text>
      <text x="112.544" y="32.612">A</text>
      <text x="111.881" y="47.597">G</text>
      <text x="111.217" y="62.582">U</text>
      <text x="110.554" y="77.568">U</text>
      <text x="109.890" y="92.553">G</text>
      <text x="91.993" y="93.766">U</text>
      <text x="77.411" y="102.813">G</text>
      <text x="69.163" y="116.969">C</text>
      <text x="54.342" y="114.656">C</text>
      <text x="39.522" y="112.342">U</text>
      <text x="31.594" y="98.863">G</text>
      <text x="16.839" y="93.683">A</text>
      <text x="2.225" y="99.246">A</text>
      <text x="-5.349" y="112.928">G</text>
      <text x="-2.305" y="128.266">A</text>
      <text x="9.917" y="138.020">A</text>
      <text x="25.549" y="137.583">A</text>
      <text x="37.208" y="127.162">A</text>
      <text x="52.029" y="129.476">G</text>
      <text x="66.849" y="131.790">G</text>
      <text x="69.295" y="142.103">G</text>
      <text x="74.863" y="151.122">C</text>
      <text x="82.987" y="157.929">C</text>
      <text x="78.415" y="172.215">A</text>
      <text x="73.843" y="186.501">C</text>
      <text x="69.271" y="200.788">U</text>
      <text x="54.730" y="206.542">U</text>
      <text x="47.336" y="220.321">U</text>
      <text x="50.579" y="235.618">G</text>
      <text x="62.928" y="245.212">A</text>
      <text x="78.553" y="244.571">U</text>
      <text x="90.075" y="233.999">A</text>
      <text x="92.055" y="218.487">G</text>
      <text x="83.557" y="205.360">A</text>
      <text x="88.129" y="191.073">G</text>
      <text x="92.701" y="176.787">U</text>
      <text x="97.273" y="162.501">G</text>
      <text x="106.564" y="162.670">A</text>
      <text x="115.730" y="160.232">C</text>
      <text x="124.038" y="155.271">U</text>
      <text x="130.797" y="148.079">U</text>
      <text x="135.409" y="139.137">A</text>
      <text x="137.427" y="129.084">U</text>
      <text x="136.594" y="118.672">G</text>
      <text x="151.561" y="117.677">G</text>
      <text x="166.528" y="116.682">G</text>
      <text x="181.494" y="115.688">G</text>
      <text x="196.461" y="114.693">G</text>
      <text x="207.154" y="126.103">U</text>
      <text x="222.686" y="127.920">U</text>
      <text x="235.723" y="119.285">A</text>
      <text x="240.110" y="104.275">A</text>
      <text x="233.775" y="89.978">A</text>
      <text x="219.710" y="83.144">G</text>
      <text x="204.555" y="87.000">U</text>
      <text x="195.467" y="99.726">C</text>
      <text x="180.500" y="100.721">C</text>
      <text x="165.533" y="101.715">C</text>
      <text x="150.566" y="102.710">C</text>
      <text x="135.599" y="103.705">C</text>
      <text x="124.875" y="93.217">C</text>
      <text x="125.539" y="78.231">G</text>
      <text x="126.202" y="63.246">A</text>
      <text x="126.866" y="48.261">C</text>
      <text x="127.529" y="33.275">U</text>
      <text x="128.193" y="18.290">C</text>
      <text x="128.856" y="3.305">C</text>
      <text x="131.897" y="-15.837">U</text>
    </g>
  </g>
</svg>
