<?xml version="1.0" encoding="UTF-8" standalone="yes"?>
<svg xmlns="http://www.w3.org/2000/svg" height="452" width="452">
<script type="text/ecmascript">
      <![CDATA[
        var shown = 1;
        function click() {
             var seq = document.getElementById("seq");
             if (shown==1) {
               seq.setAttribute("style", "visibility: hidden");
               shown = 0;
             } else {
               seq.setAttribute("style", "visibility: visible");
               shown = 1;
             }
         }
        ]]>
</script>
  <rect style="stroke: white; fill: white" height="452" x="0" y="0" width="452" onclick="click(evt)" />
  <g transform="scale(1.587393,1.587393) translate(38.183083,38.679268)">
    <polyline style="stroke: black; fill: none; stroke-width: 1.5" id="outline" points="
      110.476,-15.159
      109.848,-0.172
      109.220,14.815
      108.592,29.802
      107.964,44.789
      99.700,57.181
      106.853,71.293
      89.763,73.957
      76.615,83.841
      70.033,97.985
      55.062,97.043
      40.092,96.101
      33.902,82.103
      21.909,72.594
      6.869,69.759
      -7.763,74.249
      -18.624,85.033
      -23.219,99.633
      -20.490,114.693
      -11.067,126.754
      2.887,133.042
      18.164,132.115
      31.255,124.184
      39.150,111.072
      54.120,112.013
      69.091,112.955
      75.800,127.405
      88.737,136.703
      86.857,151.585
      84.977,166.467
      83.097,181.348
      81.217,196.230
      67.975,204.548
      63.228,219.448
      69.216,233.894
      83.112,241.064
      98.356,237.575
      107.748,225.072
      106.855,209.460
      96.098,198.110
      97.978,183.228
      99.858,168.347
      101.738,153.465
      103.618,138.583
      112.777,137.046
      121.327,132.808
      128.472,126.100
      133.499,117.389
      135.849,107.347
      135.178,96.797
      150.017,94.606
      164.856,92.415
      179.695,90.223
      189.765,101.911
      204.561,106.278
      219.363,101.930
      229.448,90.255
      231.596,74.978
      225.124,60.974
      212.095,52.712
      196.668,52.828
      183.766,61.285
      177.504,75.384
      162.665,77.576
      147.826,79.767
      132.987,81.958
      121.840,71.921
      130.148,58.457
      122.951,45.417
      123.579,30.430
      124.207,15.443
      124.835,0.456
      125.463,-14.530
      128.458,-33.679
    " />
    <g style="stroke: black; stroke-width: 1" id="pairs">
      <line id="1,73" x1="110.476" y1="-15.159" x2="125.463" y2="-14.530" />
      <line id="2,72" x1="109.848" y1="-0.172" x2="124.835" y2=" 0.456" />
      <line id="3,71" x1="109.220" y1="14.815" x2="124.207" y2="15.443" />
      <line id="4,70" x1="108.592" y1="29.802" x2="123.579" y2="30.430" />
      <line id="5,69" x1="107.964" y1="44.789" x2="122.951" y2="45.417" />
      <line id="7,67" x1="106.853" y1="71.293" x2="121.840" y2="71.921" />
      <line id="10,26" x1="70.033" y1="97.985" x2="69.091" y2="112.955" />
      <line id="11,25" x1="55.062" y1="97.043" x2="54.120" y2="112.013" />
      <line id="12,24" x1="40.092" y1="96.101" x2="39.150" y2="111.072" />
      <line id="28,44" x1="88.737" y1="136.703" x2="103.618" y2="138.583" />
      <line id="29,43" x1="86.857" y1="151.585" x2="101.738" y2="153.465" />
      <line id="30,42" x1="84.977" y1="166.467" x2="99.858" y2="168.347" />
      <line id="31,41" x1="83.097" y1="181.348" x2="97.978" y2="183.228" />
      <line id="32,40" x1="81.217" y1="196.230" x2="96.098" y2="198.110" />
      <line id="50,66" x1="135.178" y1="96.797" x2="132.987" y2="81.958" />
      <line id="51,65" x1="150.017" y1="94.606" x2="147.826" y2="79.767" />
      <line id="52,64" x1="164.856" y1="92.415" x2="162.665" y2="77.576" />
      <line id="53,63" x1="179.695" y1="90.223" x2="177.504" y2="75.384" />
    </g>
    <g style="font-family: SansSerif" transform="translate(-4.6, 4)" id="seq">
      <text x="110.476" y="-15.159">C</text>
      <text x="109.848" y="-0.172">G</text>
      <text x="109.220" y="14.815">C</text>
      <text x="108.592" y="29.802">U</text>
      <text x="107.964" y="44.789">A</text>
      <text x="99.700" y="57.181">A</text>
      <text x="106.853" y="71.293">G</text>
      <text x="89.763" y="73.957">A</text>
      <text x="76.615" y="83.841">A</text>
      <text x="70.033" y="97.985">G</text>
      <text x="55.062" y="97.043">C</text>
      <text x="40.092" y="96.101">U</text>
      <text x="33.902" y="82.103">A</text>
      <text x="21.909" y="72.594">A</text>
      <text x="6.869" y="69.759">A</text>
      <text x="-7.763" y="74.249">C</text>
      <text x="-18.624" y="85.033">A</text>
      <text x="-23.219" y="99.633">G</text>
      <text x="-20.490" y="114.693">G</text>
      <text x="-11.067" y="126.754">G</text>
      <text x="2.887" y="133.042">C</text>
      <text x="18.164" y="132.115">A</text>
      <text x="31.255" y="124.184">C</text>
      <text x="39.150" y="111.072">A</text>
      <text x="54.120" y="112.013">G</text>
      <text x="69.091" y="112.955">C</text>
      <text x="75.800" y="127.405">G</text>
      <text x="88.737" y="136.703">U</text>
      <text x="86.857" y="151.585">U</text>
      <text x="84.977" y="166.467">A</text>
      <text x="83.097" y="181.348">G</text>
      <text x="81.217" y="196.230">C</text>
      <text x="67.975" y="204.548">C</text>
      <text x="63.228" y="219.448">U</text>
      <text x="69.216" y="233.894">U</text>
      <text x="83.112" y="241.064">U</text>
      <text x="98.356" y="237.575">U</text>
      <text x="107.748" y="225.072">A</text>
      <text x="106.855" y="209.460">A</text>
      <text x="96.098" y="198.110">G</text>
      <text x="97.978" y="183.228">C</text>
      <text x="99.858" y="168.347">U</text>
      <text x="101.738" y="153.465">A</text>
      <text x="103.618" y="138.583">A</text>
      <text x="112.777" y="137.046">A</text>
      <text x="121.327" y="132.808">G</text>
      <text x="128.472" y="126.100">A</text>
      <text x="133.499" y="117.389">C</text>
      <text x="135.849" y="107.347">U</text>
      <text x="135.178" y="96.797">G</text>
      <text x="150.017" y="94.606">G</text>
      <text x="164.856" y="92.415">U</text>
      <text x="179.695" y="90.223">G</text>
      <text x="189.765" y="101.911">A</text>
      <text x="204.561" y="106.278">U</text>
      <text x="219.363" y="101.930">U</text>
      <text x="229.448" y="90.255">C</text>
      <text x="231.596" y="74.978">C</text>
      <text x="225.124" y="60.974">C</text>
      <text x="212.095" y="52.712">A</text>
      <text x="196.668" y="52.828">A</text>
      <text x="183.766" y="61.285">C</text>
      <text x="177.504" y="75.384">C</text>
      <text x="162.665" y="77.576">A</text>
      <text x="147.826" y="79.767">C</text>
      <text x="132.987" y="81.958">C</text>
      <text x="121.840" y="71.921">C</text>
      <text x="130.148" y="58.457">C</text>
      <text x="122.951" y="45.417">U</text>
      <text x="123.579" y="30.430">A</text>
      <text x="124.207" y="15.443">G</text>
      <text x="124.835" y="0.456">C</text>
      <text x="125.463" y="-14.530">G</text>
      <text x="128.458" y="-33.679">A</text>
    </g>
  </g>
</svg>
