<?xml version="1.0" encoding="UTF-8" standalone="yes"?>
<svg xmlns="http://www.w3.org/2000/svg" height="452" width="452">
<script type="text/ecmascript">
      <![CDATA[
        var shown = 1;
        function click() {
             var seq = document.getElementById("seq");
             if (shown==1) {
               seq.setAttribute("style", "visibility: hidden");
               shown = 0;
             } else {
               seq.setAttribute("style", "visibility: visible");
               shown = 1;
             }
         }
        ]]>
</script>
  <rect style="stroke: white; fill: white" height="452" x="0" y="0" width="452" onclick="click(evt)" />
  <g transform="scale(1.593793,1.593793) translate(34.645172,37.731079)">
    <polyline style="stroke: black; fill: none; stroke-width: 1.5" id="outline" points="
      110.900,-14.221
      110.264,0.766
      109.627,15.752
      101.356,28.140
      108.501,42.256
      107.864,57.242
      107.228,72.229
      90.287,74.653
      77.119,84.220
      70.321,98.085
      55.375,96.813
      40.429,95.541
      25.483,94.269
      17.575,80.918
      3.317,74.795
      -11.809,78.256
      -21.987,89.969
      -23.303,105.430
      -15.251,118.694
      -0.927,124.662
      14.160,121.037
      24.211,109.215
      39.157,110.487
      54.103,111.759
      69.049,113.031
      75.207,127.302
      87.466,136.858
      84.931,151.642
      82.396,166.426
      79.861,181.211
      77.326,195.995
      63.730,203.721
      58.330,218.396
      63.675,233.092
      77.241,240.869
      92.623,238.056
      102.559,225.980
      102.356,210.344
      92.110,198.530
      94.645,183.746
      97.180,168.961
      99.715,154.177
      102.250,139.393
      111.619,138.188
      120.452,134.164
      127.899,127.541
      133.196,118.794
      135.744,108.622
      135.167,97.891
      150.045,95.986
      164.924,94.080
      179.802,92.175
      194.681,90.270
      206.049,101.007
      221.663,101.874
      234.149,92.460
      237.613,77.211
      230.419,63.327
      215.963,57.363
      201.071,62.136
      192.776,75.391
      177.897,77.297
      163.019,79.202
      148.140,81.107
      133.262,83.012
      122.214,72.866
      122.851,57.879
      123.488,42.893
      131.804,29.433
      124.613,16.389
      125.250,1.403
      125.887,-13.584
      128.893,-32.731
    " />
    <g style="stroke: black; stroke-width: 1" id="pairs">
      <line id="1,72" x1="110.900" y1="-14.221" x2="125.887" y2="-13.584" />
      <line id="2,71" x1="110.264" y1=" 0.766" x2="125.250" y2=" 1.403" />
      <line id="3,70" x1="109.627" y1="15.752" x2="124.613" y2="16.389" />
      <line id="5,68" x1="108.501" y1="42.256" x2="123.488" y2="42.893" />
      <line id="6,67" x1="107.864" y1="57.242" x2="122.851" y2="57.879" />
      <line id="7,66" x1="107.228" y1="72.229" x2="122.214" y2="72.866" />
      <line id="10,25" x1="70.321" y1="98.085" x2="69.049" y2="113.031" />
      <line id="11,24" x1="55.375" y1="96.813" x2="54.103" y2="111.759" />
      <line id="12,23" x1="40.429" y1="95.541" x2="39.157" y2="110.487" />
      <line id="13,22" x1="25.483" y1="94.269" x2="24.211" y2="109.215" />
      <line id="27,43" x1="87.466" y1="136.858" x2="102.250" y2="139.393" />
      <line id="28,42" x1="84.931" y1="151.642" x2="99.715" y2="154.177" />
      <line id="29,41" x1="82.396" y1="166.426" x2="97.180" y2="168.961" />
      <line id="30,40" x1="79.861" y1="181.211" x2="94.645" y2="183.746" />
      <line id="31,39" x1="77.326" y1="195.995" x2="92.110" y2="198.530" />
      <line id="49,65" x1="135.167" y1="97.891" x2="133.262" y2="83.012" />
      <line id="50,64" x1="150.045" y1="95.986" x2="148.140" y2="81.107" />
      <line id="51,63" x1="164.924" y1="94.080" x2="163.019" y2="79.202" />
      <line id="52,62" x1="179.802" y1="92.175" x2="177.897" y2="77.297" />
      <line id="53,61" x1="194.681" y1="90.270" x2="192.776" y2="75.391" />
    </g>
    <g style="font-family: SansSerif" transform="translate(-4.6, 4)" id="seq">
      <text x="110.900" y="-14.221">G</text>
      <text x="110.264" y="0.766">C</text>
      <text x="109.627" y="15.752">U</text>
      <text x="101.356" y="28.140">U</text>
      <text x="108.501" y="42.256">C</text>
      <text x="107.864" y="57.242">U</text>
      <text x="107.228" y="72.229">A</text>
      <text x="90.287" y="74.653">A</text>
      <text x="77.119" y="84.220">A</text>
      <text x="70.321" y="98.085">G</text>
      <text x="55.375" y="96.813">G</text>
      <text x="40.429" y="95.541">A</text>
      <text x="25.483" y="94.269">U</text>
      <text x="17.575" y="80.918">A</text>
      <text x="3.317" y="74.795">A</text>
      <text x="-11.809" y="78.256">C</text>
      <text x="-21.987" y="89.969">A</text>
      <text x="-23.303" y="105.430">G</text>
      <text x="-15.251" y="118.694">C</text>
      <text x="-0.927" y="124.662">U</text>
      <text x="14.160" y="121.037">U</text>
      <text x="24.211" y="109.215">A</text>
      <text x="39.157" y="110.487">U</text>
      <text x="54.103" y="111.759">C</text>
      <text x="69.049" y="113.031">C</text>
      <text x="75.207" y="127.302">A</text>
      <text x="87.466" y="136.858">U</text>
      <text x="84.931" y="151.642">U</text>
      <text x="82.396" y="166.426">G</text>
      <text x="79.861" y="181.211">G</text>
      <text x="77.326" y="195.995">U</text>
      <text x="63.730" y="203.721">C</text>
      <text x="58.330" y="218.396">U</text>
      <text x="63.675" y="233.092">U</text>
      <text x="77.241" y="240.869">A</text>
      <text x="92.623" y="238.056">G</text>
      <text x="102.559" y="225.980">G</text>
      <text x="102.356" y="210.344">A</text>
      <text x="92.110" y="198.530">A</text>
      <text x="94.645" y="183.746">C</text>
      <text x="97.180" y="168.961">C</text>
      <text x="99.715" y="154.177">A</text>
      <text x="102.250" y="139.393">A</text>
      <text x="111.619" y="138.188">A</text>
      <text x="120.452" y="134.164">A</text>
      <text x="127.899" y="127.541">A</text>
      <text x="133.196" y="118.794">C</text>
      <text x="135.744" y="108.622">U</text>
      <text x="135.167" y="97.891">C</text>
      <text x="150.045" y="95.986">U</text>
      <text x="164.924" y="94.080">U</text>
      <text x="179.802" y="92.175">G</text>
      <text x="194.681" y="90.270">G</text>
      <text x="206.049" y="101.007">U</text>
      <text x="221.663" y="101.874">G</text>
      <text x="234.149" y="92.460">C</text>
      <text x="237.613" y="77.211">A</text>
      <text x="230.419" y="63.327">A</text>
      <text x="215.963" y="57.363">A</text>
      <text x="201.071" y="62.136">U</text>
      <text x="192.776" y="75.391">C</text>
      <text x="177.897" y="77.297">C</text>
      <text x="163.019" y="79.202">A</text>
      <text x="148.140" y="81.107">A</text>
      <text x="133.262" y="83.012">G</text>
      <text x="122.214" y="72.866">U</text>
      <text x="122.851" y="57.879">A</text>
      <text x="123.488" y="42.893">G</text>
      <text x="131.804" y="29.433">C</text>
      <text x="124.613" y="16.389">A</text>
      <text x="125.250" y="1.403">G</text>
      <text x="125.887" y="-13.584">C</text>
      <text x="128.893" y="-32.731">U</text>
    </g>
  </g>
</svg>
