<?xml version="1.0" encoding="UTF-8" standalone="yes"?>
<svg xmlns="http://www.w3.org/2000/svg" height="452" width="452">
<script type="text/ecmascript">
      <![CDATA[
        var shown = 1;
        function click() {
             var seq = document.getElementById("seq");
             if (shown==1) {
               seq.setAttribute("style", "visibility: hidden");
               shown = 0;
             } else {
               seq.setAttribute("style", "visibility: visible");
               shown = 1;
             }
         }
        ]]>
</script>
  <rect style="stroke: white; fill: white" height="452" x="0" y="0" width="452" onclick="click(evt)" />
  <g transform="scale(1.699100,1.699100) translate(29.195404,55.545303)">
    <polyline style="stroke: black; fill: none; stroke-width: 1.5" id="outline" points="
      98.432,23.525
      85.534,27.010
      75.248,35.536
      61.575,29.366
      47.902,23.197
      34.230,17.028
      32.780,1.737
      23.867,-10.770
      9.887,-17.131
      -5.399,-15.634
      -17.878,-6.681
      -24.195,7.318
      -22.650,22.599
      -13.658,35.051
      0.361,41.324
      15.637,39.731
      28.060,30.700
      41.733,36.870
      55.406,43.039
      69.078,49.208
      72.382,69.972
      88.032,84.013
      85.796,98.846
      83.561,113.678
      81.325,128.511
      79.090,143.343
      65.653,151.342
      60.550,166.124
      66.191,180.709
      79.912,188.210
      95.234,185.086
      104.923,172.812
      104.404,157.183
      93.922,145.579
      96.158,130.746
      98.393,115.914
      100.629,101.081
      102.865,86.249
      113.499,83.335
      122.475,76.928
      128.686,67.818
      131.371,57.122
      130.198,46.158
      143.189,38.658
      156.179,31.158
      169.169,23.658
      182.160,16.158
      195.421,23.907
      210.779,23.971
      224.105,16.333
      231.812,3.048
      231.828,-12.311
      224.148,-25.612
      210.839,-33.277
      195.480,-33.245
      182.203,-25.524
      174.579,-12.191
      174.660,3.168
      161.669,10.668
      148.679,18.168
      135.689,25.668
      122.698,33.168
    " />
    <g style="stroke: black; stroke-width: 1" id="pairs">
      <line id="3,20" x1="75.248" y1="35.536" x2="69.078" y2="49.208" />
      <line id="4,19" x1="61.575" y1="29.366" x2="55.406" y2="43.039" />
      <line id="5,18" x1="47.902" y1="23.197" x2="41.733" y2="36.870" />
      <line id="6,17" x1="34.230" y1="17.028" x2="28.060" y2="30.700" />
      <line id="22,38" x1="88.032" y1="84.013" x2="102.865" y2="86.249" />
      <line id="23,37" x1="85.796" y1="98.846" x2="100.629" y2="101.081" />
      <line id="24,36" x1="83.561" y1="113.678" x2="98.393" y2="115.914" />
      <line id="25,35" x1="81.325" y1="128.511" x2="96.158" y2="130.746" />
      <line id="26,34" x1="79.090" y1="143.343" x2="93.922" y2="145.579" />
      <line id="43,62" x1="130.198" y1="46.158" x2="122.698" y2="33.168" />
      <line id="44,61" x1="143.189" y1="38.658" x2="135.689" y2="25.668" />
      <line id="45,60" x1="156.179" y1="31.158" x2="148.679" y2="18.168" />
      <line id="46,59" x1="169.169" y1="23.658" x2="161.669" y2="10.668" />
      <line id="47,58" x1="182.160" y1="16.158" x2="174.660" y2=" 3.168" />
    </g>
    <g style="font-family: SansSerif" transform="translate(-4.6, 4)" id="seq">
      <text x="98.432" y="23.525">U</text>
      <text x="85.534" y="27.010">G</text>
      <text x="75.248" y="35.536">G</text>
      <text x="61.575" y="29.366">C</text>
      <text x="47.902" y="23.197">A</text>
      <text x="34.230" y="17.028">G</text>
      <text x="32.780" y="1.737">A</text>
      <text x="23.867" y="-10.770">C</text>
      <text x="9.887" y="-17.131">C</text>
      <text x="-5.399" y="-15.634">C</text>
      <text x="-17.878" y="-6.681">C</text>
      <text x="-24.195" y="7.318">G</text>
      <text x="-22.650" y="22.599">G</text>
      <text x="-13.658" y="35.051">U</text>
      <text x="0.361" y="41.324">A</text>
      <text x="15.637" y="39.731">A</text>
      <text x="28.060" y="30.700">U</text>
      <text x="41.733" y="36.870">U</text>
      <text x="55.406" y="43.039">G</text>
      <text x="69.078" y="49.208">C</text>
      <text x="72.382" y="69.972">A</text>
      <text x="88.032" y="84.013">A</text>
      <text x="85.796" y="98.846">A</text>
      <text x="83.561" y="113.678">A</text>
      <text x="81.325" y="128.511">G</text>
      <text x="79.090" y="143.343">A</text>
      <text x="65.653" y="151.342">C</text>
      <text x="60.550" y="166.124">C</text>
      <text x="66.191" y="180.709">U</text>
      <text x="79.912" y="188.210">A</text>
      <text x="95.234" y="185.086">G</text>
      <text x="104.923" y="172.812">G</text>
      <text x="104.404" y="157.183">C</text>
      <text x="93.922" y="145.579">U</text>
      <text x="96.158" y="130.746">C</text>
      <text x="98.393" y="115.914">U</text>
      <text x="100.629" y="101.081">U</text>
      <text x="102.865" y="86.249">U</text>
      <text x="113.499" y="83.335">U</text>
      <text x="122.475" y="76.928">C</text>
      <text x="128.686" y="67.818">A</text>
      <text x="131.371" y="57.122">C</text>
      <text x="130.198" y="46.158">A</text>
      <text x="143.189" y="38.658">G</text>
      <text x="156.179" y="31.158">A</text>
      <text x="169.169" y="23.658">G</text>
      <text x="182.160" y="16.158">G</text>
      <text x="195.421" y="23.907">U</text>
      <text x="210.779" y="23.971">U</text>
      <text x="224.105" y="16.333">C</text>
      <text x="231.812" y="3.048">A</text>
      <text x="231.828" y="-12.311">A</text>
      <text x="224.148" y="-25.612">C</text>
      <text x="210.839" y="-33.277">U</text>
      <text x="195.480" y="-33.245">A</text>
      <text x="182.203" y="-25.524">C</text>
      <text x="174.579" y="-12.191">C</text>
      <text x="174.660" y="3.168">C</text>
      <text x="161.669" y="10.668">C</text>
      <text x="148.679" y="18.168">U</text>
      <text x="135.689" y="25.668">U</text>
      <text x="122.698" y="33.168">U</text>
    </g>
  </g>
</svg>
