<?xml version="1.0" encoding="UTF-8" standalone="yes"?>
<svg xmlns="http://www.w3.org/2000/svg" height="452" width="452">
<script type="text/ecmascript">
      <![CDATA[
        var shown = 1;
        function click() {
             var seq = document.getElementById("seq");
             if (shown==1) {
               seq.setAttribute("style", "visibility: hidden");
               shown = 0;
             } else {
               seq.setAttribute("style", "visibility: visible");
               shown = 1;
             }
         }
        ]]>
</script>
  <rect style="stroke: white; fill: white" height="452" x="0" y="0" width="452" onclick="click(evt)" />
  <g transform="scale(1.541723,1.541723) translate(46.589233,43.295959)">
    <polyline style="stroke: black; fill: none; stroke-width: 1.5" id="outline" points="
      98.011,-19.807
      97.357,-4.821
      96.703,10.165
      96.048,25.151
      95.394,40.136
      94.740,55.122
      94.086,70.108
      81.205,74.768
      70.907,83.799
      64.605,95.961
      49.662,94.654
      34.719,93.347
      19.776,92.039
      10.956,79.127
      -4.115,74.955
      -18.320,81.493
      -24.952,95.655
      -20.880,110.753
      -8.026,119.658
      7.540,118.167
      18.469,106.982
      33.412,108.290
      48.355,109.597
      63.298,110.904
      70.681,129.083
      86.330,140.921
      83.726,155.693
      81.121,170.465
      78.516,185.237
      75.911,200.009
      62.279,207.671
      56.810,222.320
      62.085,237.041
      75.615,244.883
      91.010,242.142
      101.002,230.113
      100.873,214.476
      90.684,202.614
      93.288,187.842
      95.893,173.070
      98.498,158.297
      101.102,143.525
      109.755,142.231
      117.862,138.939
      124.967,133.833
      130.672,127.200
      134.658,119.411
      136.702,110.904
      151.645,109.597
      166.588,108.290
      181.531,106.982
      192.460,118.167
      208.026,119.658
      220.880,110.753
      224.952,95.655
      218.320,81.493
      204.115,74.955
      189.044,79.127
      180.224,92.039
      165.281,93.347
      150.338,94.654
      135.395,95.961
      125.555,79.891
      109.071,70.762
      109.726,55.776
      110.380,40.791
      111.034,25.805
      111.688,10.819
      112.343,-4.167
      112.997,-19.152
      116.026,-38.296
    " />
    <g style="stroke: black; stroke-width: 1" id="pairs">
      <line id="1,70" x1="98.011" y1="-19.807" x2="112.997" y2="-19.152" />
      <line id="2,69" x1="97.357" y1="-4.821" x2="112.343" y2="-4.167" />
      <line id="3,68" x1="96.703" y1="10.165" x2="111.688" y2="10.819" />
      <line id="4,67" x1="96.048" y1="25.151" x2="111.034" y2="25.805" />
      <line id="5,66" x1="95.394" y1="40.136" x2="110.380" y2="40.791" />
      <line id="6,65" x1="94.740" y1="55.122" x2="109.726" y2="55.776" />
      <line id="7,64" x1="94.086" y1="70.108" x2="109.071" y2="70.762" />
      <line id="10,24" x1="64.605" y1="95.961" x2="63.298" y2="110.904" />
      <line id="11,23" x1="49.662" y1="94.654" x2="48.355" y2="109.597" />
      <line id="12,22" x1="34.719" y1="93.347" x2="33.412" y2="108.290" />
      <line id="13,21" x1="19.776" y1="92.039" x2="18.469" y2="106.982" />
      <line id="26,42" x1="86.330" y1="140.921" x2="101.102" y2="143.525" />
      <line id="27,41" x1="83.726" y1="155.693" x2="98.498" y2="158.297" />
      <line id="28,40" x1="81.121" y1="170.465" x2="95.893" y2="173.070" />
      <line id="29,39" x1="78.516" y1="185.237" x2="93.288" y2="187.842" />
      <line id="30,38" x1="75.911" y1="200.009" x2="90.684" y2="202.614" />
      <line id="48,62" x1="136.702" y1="110.904" x2="135.395" y2="95.961" />
      <line id="49,61" x1="151.645" y1="109.597" x2="150.338" y2="94.654" />
      <line id="50,60" x1="166.588" y1="108.290" x2="165.281" y2="93.347" />
      <line id="51,59" x1="181.531" y1="106.982" x2="180.224" y2="92.039" />
    </g>
    <g style="font-family: SansSerif" transform="translate(-4.6, 4)" id="seq">
      <text x="98.011" y="-19.807">U</text>
      <text x="97.357" y="-4.821">A</text>
      <text x="96.703" y="10.165">G</text>
      <text x="96.048" y="25.151">G</text>
      <text x="95.394" y="40.136">A</text>
      <text x="94.740" y="55.122">A</text>
      <text x="94.086" y="70.108">G</text>
      <text x="81.205" y="74.768">U</text>
      <text x="70.907" y="83.799">G</text>
      <text x="64.605" y="95.961">G</text>
      <text x="49.662" y="94.654">U</text>
      <text x="34.719" y="93.347">G</text>
      <text x="19.776" y="92.039">U</text>
      <text x="10.956" y="79.127">A</text>
      <text x="-4.115" y="74.955">G</text>
      <text x="-18.320" y="81.493">U</text>
      <text x="-24.952" y="95.655">G</text>
      <text x="-20.880" y="110.753">G</text>
      <text x="-8.026" y="119.658">A</text>
      <text x="7.540" y="118.167">A</text>
      <text x="18.469" y="106.982">G</text>
      <text x="33.412" y="108.290">C</text>
      <text x="48.355" y="109.597">A</text>
      <text x="63.298" y="110.904">C</text>
      <text x="70.681" y="129.083">U</text>
      <text x="86.330" y="140.921">A</text>
      <text x="83.726" y="155.693">A</text>
      <text x="81.121" y="170.465">G</text>
      <text x="78.516" y="185.237">A</text>
      <text x="75.911" y="200.009">G</text>
      <text x="62.279" y="207.671">U</text>
      <text x="56.810" y="222.320">U</text>
      <text x="62.085" y="237.041">U</text>
      <text x="75.615" y="244.883">U</text>
      <text x="91.010" y="242.142">G</text>
      <text x="101.002" y="230.113">A</text>
      <text x="100.873" y="214.476">U</text>
      <text x="90.684" y="202.614">C</text>
      <text x="93.288" y="187.842">U</text>
      <text x="95.893" y="173.070">C</text>
      <text x="98.498" y="158.297">U</text>
      <text x="101.102" y="143.525">U</text>
      <text x="109.755" y="142.231">U</text>
      <text x="117.862" y="138.939">A</text>
      <text x="124.967" y="133.833">G</text>
      <text x="130.672" y="127.200">G</text>
      <text x="134.658" y="119.411">U</text>
      <text x="136.702" y="110.904">A</text>
      <text x="151.645" y="109.597">G</text>
      <text x="166.588" y="108.290">G</text>
      <text x="181.531" y="106.982">G</text>
      <text x="192.460" y="118.167">U</text>
      <text x="208.026" y="119.658">U</text>
      <text x="220.880" y="110.753">C</text>
      <text x="224.952" y="95.655">G</text>
      <text x="218.320" y="81.493">A</text>
      <text x="204.115" y="74.955">A</text>
      <text x="189.044" y="79.127">C</text>
      <text x="180.224" y="92.039">C</text>
      <text x="165.281" y="93.347">C</text>
      <text x="150.338" y="94.654">C</text>
      <text x="135.395" y="95.961">U</text>
      <text x="125.555" y="79.891">U</text>
      <text x="109.071" y="70.762">C</text>
      <text x="109.726" y="55.776">U</text>
      <text x="110.380" y="40.791">U</text>
      <text x="111.034" y="25.805">U</text>
      <text x="111.688" y="10.819">C</text>
      <text x="112.343" y="-4.167">U</text>
      <text x="112.997" y="-19.152">A</text>
      <text x="116.026" y="-38.296">A</text>
    </g>
  </g>
</svg>
