<?xml version="1.0" encoding="UTF-8" standalone="yes"?>
<svg xmlns="http://www.w3.org/2000/svg" height="452" width="452">
<script type="text/ecmascript">
      <![CDATA[
        var shown = 1;
        function click() {
             var seq = document.getElementById("seq");
             if (shown==1) {
               seq.setAttribute("style", "visibility: hidden");
               shown = 0;
             } else {
               seq.setAttribute("style", "visibility: visible");
               shown = 1;
             }
         }
        ]]>
</script>
  <rect style="stroke: white; fill: white" height="452" x="0" y="0" width="452" onclick="click(evt)" />
  <g transform="scale(1.717720,1.717720) translate(-1.003616,20.429291)">
    <polyline style="stroke: black; fill: none; stroke-width: 1.5" id="outline" points="
      113.706,3.026
      113.023,18.010
      112.340,32.995
      104.032,45.357
      111.133,59.495
      110.450,74.479
      109.767,89.464
      94.800,90.160
      82.328,97.010
      74.582,108.038
      63.130,97.122
      48.882,101.464
      37.540,89.620
      21.678,93.784
      17.614,109.671
      29.529,120.939
      45.165,115.996
      55.578,126.646
      70.865,122.570
      73.276,133.889
      79.903,143.376
      66.489,151.766
      67.165,166.645
      59.963,179.803
      52.761,192.961
      37.392,195.849
      27.515,207.972
      27.794,223.607
      38.096,235.372
      53.558,237.710
      66.878,229.519
      71.768,214.666
      65.918,200.163
      73.121,187.006
      80.323,173.848
      93.221,166.399
      93.060,150.578
      104.711,152.067
      116.408,148.792
      126.220,140.969
      132.405,129.592
      133.714,116.304
      148.679,117.328
      163.644,118.351
      178.609,119.375
      193.574,120.399
      200.920,133.965
      214.445,141.387
      229.833,140.295
      242.175,131.039
      247.533,116.572
      244.195,101.510
      233.229,90.659
      218.132,87.483
      203.722,92.994
      194.598,105.434
      179.633,104.410
      164.668,103.386
      149.703,102.363
      134.738,101.339
      124.752,90.146
      125.435,75.162
      126.117,60.177
      134.475,46.744
      127.325,33.677
      128.007,18.693
      128.690,3.708
      131.755,-15.429
    " />
    <g style="stroke: black; stroke-width: 1" id="pairs">
      <line id="1,67" x1="113.706" y1=" 3.026" x2="128.690" y2=" 3.708" />
      <line id="2,66" x1="113.023" y1="18.010" x2="128.007" y2="18.693" />
      <line id="3,65" x1="112.340" y1="32.995" x2="127.325" y2="33.677" />
      <line id="5,63" x1="111.133" y1="59.495" x2="126.117" y2="60.177" />
      <line id="6,62" x1="110.450" y1="74.479" x2="125.435" y2="75.162" />
      <line id="7,61" x1="109.767" y1="89.464" x2="124.752" y2="90.146" />
      <line id="10,19" x1="74.582" y1="108.038" x2="70.865" y2="122.570" />
      <line id="12,17" x1="48.882" y1="101.464" x2="45.165" y2="115.996" />
      <line id="21,37" x1="79.903" y1="143.376" x2="93.060" y2="150.578" />
      <line id="23,35" x1="67.165" y1="166.645" x2="80.323" y2="173.848" />
      <line id="24,34" x1="59.963" y1="179.803" x2="73.121" y2="187.006" />
      <line id="25,33" x1="52.761" y1="192.961" x2="65.918" y2="200.163" />
      <line id="42,60" x1="133.714" y1="116.304" x2="134.738" y2="101.339" />
      <line id="43,59" x1="148.679" y1="117.328" x2="149.703" y2="102.363" />
      <line id="44,58" x1="163.644" y1="118.351" x2="164.668" y2="103.386" />
      <line id="45,57" x1="178.609" y1="119.375" x2="179.633" y2="104.410" />
      <line id="46,56" x1="193.574" y1="120.399" x2="194.598" y2="105.434" />
    </g>
    <g style="font-family: SansSerif" transform="translate(-4.6, 4)" id="seq">
      <text x="113.706" y="3.026">G</text>
      <text x="113.023" y="18.010">A</text>
      <text x="112.340" y="32.995">G</text>
      <text x="104.032" y="45.357">A</text>
      <text x="111.133" y="59.495">G</text>
      <text x="110.450" y="74.479">A</text>
      <text x="109.767" y="89.464">G</text>
      <text x="94.800" y="90.160">G</text>
      <text x="82.328" y="97.010">C</text>
      <text x="74.582" y="108.038">U</text>
      <text x="63.130" y="97.122">C</text>
      <text x="48.882" y="101.464">G</text>
      <text x="37.540" y="89.620">C</text>
      <text x="21.678" y="93.784">C</text>
      <text x="17.614" y="109.671">A</text>
      <text x="29.529" y="120.939">G</text>
      <text x="45.165" y="115.996">C</text>
      <text x="55.578" y="126.646">A</text>
      <text x="70.865" y="122.570">A</text>
      <text x="73.276" y="133.889">C</text>
      <text x="79.903" y="143.376">G</text>
      <text x="66.489" y="151.766">A</text>
      <text x="67.165" y="166.645">A</text>
      <text x="59.963" y="179.803">G</text>
      <text x="52.761" y="192.961">A</text>
      <text x="37.392" y="195.849">C</text>
      <text x="27.515" y="207.972">U</text>
      <text x="27.794" y="223.607">G</text>
      <text x="38.096" y="235.372">C</text>
      <text x="53.558" y="237.710">U</text>
      <text x="66.878" y="229.519">A</text>
      <text x="71.768" y="214.666">A</text>
      <text x="65.918" y="200.163">U</text>
      <text x="73.121" y="187.006">C</text>
      <text x="80.323" y="173.848">U</text>
      <text x="93.221" y="166.399">C</text>
      <text x="93.060" y="150.578">C</text>
      <text x="104.711" y="152.067">G</text>
      <text x="116.408" y="148.792">C</text>
      <text x="126.220" y="140.969">G</text>
      <text x="132.405" y="129.592">A</text>
      <text x="133.714" y="116.304">C</text>
      <text x="148.679" y="117.328">C</text>
      <text x="163.644" y="118.351">U</text>
      <text x="178.609" y="119.375">U</text>
      <text x="193.574" y="120.399">G</text>
      <text x="200.920" y="133.965">G</text>
      <text x="214.445" y="141.387">U</text>
      <text x="229.833" y="140.295">U</text>
      <text x="242.175" y="131.039">G</text>
      <text x="247.533" y="116.572">G</text>
      <text x="244.195" y="101.510">A</text>
      <text x="233.229" y="90.659">C</text>
      <text x="218.132" y="87.483">C</text>
      <text x="203.722" y="92.994">C</text>
      <text x="194.598" y="105.434">C</text>
      <text x="179.633" y="104.410">A</text>
      <text x="164.668" y="103.386">G</text>
      <text x="149.703" y="102.363">G</text>
      <text x="134.738" y="101.339">G</text>
      <text x="124.752" y="90.146">C</text>
      <text x="125.435" y="75.162">U</text>
      <text x="126.117" y="60.177">C</text>
      <text x="134.475" y="46.744">A</text>
      <text x="127.325" y="33.677">C</text>
      <text x="128.007" y="18.693">U</text>
      <text x="128.690" y="3.708">C</text>
      <text x="131.755" y="-15.429">G</text>
    </g>
  </g>
</svg>
