<?xml version="1.0" encoding="UTF-8" standalone="yes"?>
<svg xmlns="http://www.w3.org/2000/svg" height="452" width="452">
<script type="text/ecmascript">
      <![CDATA[
        var shown = 1;
        function click() {
             var seq = document.getElementById("seq");
             if (shown==1) {
               seq.setAttribute("style", "visibility: hidden");
               shown = 0;
             } else {
               seq.setAttribute("style", "visibility: visible");
               shown = 1;
             }
         }
        ]]>
</script>
  <rect style="stroke: white; fill: white" height="452" x="0" y="0" width="452" onclick="click(evt)" />
  <g transform="scale(1.602090,1.602090) translate(33.247375,36.476501)">
    <polyline style="stroke: black; fill: none; stroke-width: 1.5" id="outline" points="
      111.325,-12.976
      110.680,2.010
      110.034,16.996
      101.757,29.378
      108.893,43.499
      108.248,58.485
      107.603,73.471
      90.827,75.655
      77.650,84.895
      70.644,98.464
      55.731,96.853
      40.817,95.243
      25.904,93.632
      17.348,80.543
      2.365,76.066
      -11.970,82.314
      -18.889,96.338
      -15.124,111.515
      -2.454,120.681
      13.140,119.506
      24.293,108.545
      39.207,110.156
      54.120,111.767
      69.033,113.377
      74.639,127.438
      86.195,137.214
      82.993,151.868
      79.790,166.522
      76.587,181.177
      73.384,195.831
      59.452,202.932
      53.392,217.347
      58.065,232.271
      71.264,240.655
      86.758,238.542
      97.231,226.929
      97.737,211.300
      88.038,199.033
      91.241,184.379
      94.444,169.725
      97.647,155.071
      100.849,140.417
      110.416,139.570
      119.528,135.784
      127.282,129.265
      132.861,120.495
      135.617,110.199
      135.143,99.288
      150.056,97.678
      164.607,103.888
      176.430,94.829
      191.343,93.218
      202.497,104.179
      218.091,105.354
      230.761,96.188
      234.525,81.011
      227.607,66.987
      213.272,60.739
      198.289,65.216
      189.733,78.305
      174.819,79.916
      161.335,73.590
      148.445,82.764
      133.532,84.375
      122.589,74.116
      123.234,59.130
      123.879,44.144
      132.203,30.689
      125.021,17.641
      125.666,2.655
      126.311,-12.331
      129.329,-31.477
    " />
    <g style="stroke: black; stroke-width: 1" id="pairs">
      <line id="1,71" x1="111.325" y1="-12.976" x2="126.311" y2="-12.331" />
      <line id="2,70" x1="110.680" y1=" 2.010" x2="125.666" y2=" 2.655" />
      <line id="3,69" x1="110.034" y1="16.996" x2="125.021" y2="17.641" />
      <line id="5,67" x1="108.893" y1="43.499" x2="123.879" y2="44.144" />
      <line id="6,66" x1="108.248" y1="58.485" x2="123.234" y2="59.130" />
      <line id="7,65" x1="107.603" y1="73.471" x2="122.589" y2="74.116" />
      <line id="10,24" x1="70.644" y1="98.464" x2="69.033" y2="113.377" />
      <line id="11,23" x1="55.731" y1="96.853" x2="54.120" y2="111.767" />
      <line id="12,22" x1="40.817" y1="95.243" x2="39.207" y2="110.156" />
      <line id="13,21" x1="25.904" y1="93.632" x2="24.293" y2="108.545" />
      <line id="26,42" x1="86.195" y1="137.214" x2="100.849" y2="140.417" />
      <line id="27,41" x1="82.993" y1="151.868" x2="97.647" y2="155.071" />
      <line id="28,40" x1="79.790" y1="166.522" x2="94.444" y2="169.725" />
      <line id="29,39" x1="76.587" y1="181.177" x2="91.241" y2="184.379" />
      <line id="30,38" x1="73.384" y1="195.831" x2="88.038" y2="199.033" />
      <line id="48,64" x1="135.143" y1="99.288" x2="133.532" y2="84.375" />
      <line id="49,63" x1="150.056" y1="97.678" x2="148.445" y2="82.764" />
      <line id="51,61" x1="176.430" y1="94.829" x2="174.819" y2="79.916" />
      <line id="52,60" x1="191.343" y1="93.218" x2="189.733" y2="78.305" />
    </g>
    <g style="font-family: SansSerif" transform="translate(-4.6, 4)" id="seq">
      <text x="111.325" y="-12.976">G</text>
      <text x="110.680" y="2.010">C</text>
      <text x="110.034" y="16.996">A</text>
      <text x="101.757" y="29.378">A</text>
      <text x="108.893" y="43.499">U</text>
      <text x="108.248" y="58.485">A</text>
      <text x="107.603" y="73.471">G</text>
      <text x="90.827" y="75.655">U</text>
      <text x="77.650" y="84.895">A</text>
      <text x="70.644" y="98.464">G</text>
      <text x="55.731" y="96.853">C</text>
      <text x="40.817" y="95.243">U</text>
      <text x="25.904" y="93.632">C</text>
      <text x="17.348" y="80.543">A</text>
      <text x="2.365" y="76.066">G</text>
      <text x="-11.970" y="82.314">C</text>
      <text x="-18.889" y="96.338">A</text>
      <text x="-15.124" y="111.515">C</text>
      <text x="-2.454" y="120.681">C</text>
      <text x="13.140" y="119.506">A</text>
      <text x="24.293" y="108.545">G</text>
      <text x="39.207" y="110.156">A</text>
      <text x="54.120" y="111.767">G</text>
      <text x="69.033" y="113.377">C</text>
      <text x="74.639" y="127.438">A</text>
      <text x="86.195" y="137.214">C</text>
      <text x="82.993" y="151.868">C</text>
      <text x="79.790" y="166.522">G</text>
      <text x="76.587" y="181.177">G</text>
      <text x="73.384" y="195.831">U</text>
      <text x="59.452" y="202.932">C</text>
      <text x="53.392" y="217.347">U</text>
      <text x="58.065" y="232.271">U</text>
      <text x="71.264" y="240.655">G</text>
      <text x="86.758" y="238.542">U</text>
      <text x="97.231" y="226.929">A</text>
      <text x="97.737" y="211.300">A</text>
      <text x="88.038" y="199.033">A</text>
      <text x="91.241" y="184.379">C</text>
      <text x="94.444" y="169.725">C</text>
      <text x="97.647" y="155.071">G</text>
      <text x="100.849" y="140.417">G</text>
      <text x="110.416" y="139.570">A</text>
      <text x="119.528" y="135.784">C</text>
      <text x="127.282" y="129.265">G</text>
      <text x="132.861" y="120.495">U</text>
      <text x="135.617" y="110.199">C</text>
      <text x="135.143" y="99.288">G</text>
      <text x="150.056" y="97.678">G</text>
      <text x="164.607" y="103.888">A</text>
      <text x="176.430" y="94.829">G</text>
      <text x="191.343" y="93.218">G</text>
      <text x="202.497" y="104.179">U</text>
      <text x="218.091" y="105.354">U</text>
      <text x="230.761" y="96.188">A</text>
      <text x="234.525" y="81.011">G</text>
      <text x="227.607" y="66.987">A</text>
      <text x="213.272" y="60.739">A</text>
      <text x="198.289" y="65.216">U</text>
      <text x="189.733" y="78.305">C</text>
      <text x="174.819" y="79.916">C</text>
      <text x="161.335" y="73.590">C</text>
      <text x="148.445" y="82.764">C</text>
      <text x="133.532" y="84.375">C</text>
      <text x="122.589" y="74.116">C</text>
      <text x="123.234" y="59.130">U</text>
      <text x="123.879" y="44.144">A</text>
      <text x="132.203" y="30.689">C</text>
      <text x="125.021" y="17.641">U</text>
      <text x="125.666" y="2.655">G</text>
      <text x="126.311" y="-12.331">C</text>
      <text x="129.329" y="-31.477">U</text>
    </g>
  </g>
</svg>
