<?xml version="1.0" encoding="UTF-8" standalone="yes"?>
<svg xmlns="http://www.w3.org/2000/svg" height="452" width="452">
<script type="text/ecmascript">
      <![CDATA[
        var shown = 1;
        function click() {
             var seq = document.getElementById("seq");
             if (shown==1) {
               seq.setAttribute("style", "visibility: hidden");
               shown = 0;
             } else {
               seq.setAttribute("style", "visibility: visible");
               shown = 1;
             }
         }
        ]]>
</script>
  <rect style="stroke: white; fill: white" height="452" x="0" y="0" width="452" onclick="click(evt)" />
  <g transform="scale(1.631696,1.631696) translate(28.289589,31.972816)">
    <polyline style="stroke: black; fill: none; stroke-width: 1.5" id="outline" points="
      110.748,-8.473
      110.103,6.513
      109.458,21.499
      101.180,33.882
      108.316,48.002
      107.671,62.988
      107.026,77.975
      90.368,80.465
      77.534,89.998
      71.078,103.681
      56.109,102.714
      41.140,101.746
      34.407,87.942
      21.665,79.367
      6.341,78.328
      -7.442,85.105
      -15.977,97.874
      -16.968,113.201
      -10.148,126.963
      2.648,135.458
      17.978,136.400
      31.718,129.537
      40.173,116.715
      55.142,117.683
      70.110,118.650
      76.521,132.388
      88.769,141.323
      86.837,156.198
      84.906,171.074
      82.975,185.949
      68.987,192.456
      60.757,205.505
      60.911,220.931
      69.400,233.813
      83.515,240.040
      98.752,237.624
      110.249,227.337
      114.338,212.461
      109.713,197.743
      97.850,187.880
      99.781,173.005
      101.712,158.130
      103.644,143.254
      114.053,141.240
      123.476,135.628
      130.671,126.874
      134.600,115.855
      134.566,103.792
      149.479,102.181
      164.392,100.571
      179.306,98.960
      194.219,97.349
      205.373,108.309
      220.966,109.484
      233.636,100.319
      237.401,85.142
      230.482,71.118
      216.147,64.869
      201.165,69.347
      192.608,82.436
      177.695,84.047
      162.782,85.657
      147.868,87.268
      132.955,88.879
      122.012,78.620
      122.657,63.634
      123.302,48.648
      131.626,35.193
      124.444,22.145
      125.089,7.159
      125.734,-7.827
      128.752,-26.973
    " />
    <g style="stroke: black; stroke-width: 1" id="pairs">
      <line id="1,71" x1="110.748" y1="-8.473" x2="125.734" y2="-7.827" />
      <line id="2,70" x1="110.103" y1=" 6.513" x2="125.089" y2=" 7.159" />
      <line id="3,69" x1="109.458" y1="21.499" x2="124.444" y2="22.145" />
      <line id="5,67" x1="108.316" y1="48.002" x2="123.302" y2="48.648" />
      <line id="6,66" x1="107.671" y1="62.988" x2="122.657" y2="63.634" />
      <line id="7,65" x1="107.026" y1="77.975" x2="122.012" y2="78.620" />
      <line id="10,25" x1="71.078" y1="103.681" x2="70.110" y2="118.650" />
      <line id="11,24" x1="56.109" y1="102.714" x2="55.142" y2="117.683" />
      <line id="12,23" x1="41.140" y1="101.746" x2="40.173" y2="116.715" />
      <line id="27,43" x1="88.769" y1="141.323" x2="103.644" y2="143.254" />
      <line id="28,42" x1="86.837" y1="156.198" x2="101.712" y2="158.130" />
      <line id="29,41" x1="84.906" y1="171.074" x2="99.781" y2="173.005" />
      <line id="30,40" x1="82.975" y1="185.949" x2="97.850" y2="187.880" />
      <line id="48,64" x1="134.566" y1="103.792" x2="132.955" y2="88.879" />
      <line id="49,63" x1="149.479" y1="102.181" x2="147.868" y2="87.268" />
      <line id="50,62" x1="164.392" y1="100.571" x2="162.782" y2="85.657" />
      <line id="51,61" x1="179.306" y1="98.960" x2="177.695" y2="84.047" />
      <line id="52,60" x1="194.219" y1="97.349" x2="192.608" y2="82.436" />
    </g>
    <g style="font-family: SansSerif" transform="translate(-4.6, 4)" id="seq">
      <text x="110.748" y="-8.473">C</text>
      <text x="110.103" y="6.513">A</text>
      <text x="109.458" y="21.499">A</text>
      <text x="101.180" y="33.882">A</text>
      <text x="108.316" y="48.002">G</text>
      <text x="107.671" y="62.988">C</text>
      <text x="107.026" y="77.975">G</text>
      <text x="90.368" y="80.465">U</text>
      <text x="77.534" y="89.998">G</text>
      <text x="71.078" y="103.681">G</text>
      <text x="56.109" y="102.714">C</text>
      <text x="41.140" y="101.746">U</text>
      <text x="34.407" y="87.942">A</text>
      <text x="21.665" y="79.367">A</text>
      <text x="6.341" y="78.328">G</text>
      <text x="-7.442" y="85.105">A</text>
      <text x="-15.977" y="97.874">U</text>
      <text x="-16.968" y="113.201">A</text>
      <text x="-10.148" y="126.963">G</text>
      <text x="2.648" y="135.458">A</text>
      <text x="17.978" y="136.400">A</text>
      <text x="31.718" y="129.537">A</text>
      <text x="40.173" y="116.715">A</text>
      <text x="55.142" y="117.683">G</text>
      <text x="70.110" y="118.650">C</text>
      <text x="76.521" y="132.388">A</text>
      <text x="88.769" y="141.323">C</text>
      <text x="86.837" y="156.198">C</text>
      <text x="84.906" y="171.074">U</text>
      <text x="82.975" y="185.949">C</text>
      <text x="68.987" y="192.456">C</text>
      <text x="60.757" y="205.505">C</text>
      <text x="60.911" y="220.931">U</text>
      <text x="69.400" y="233.813">U</text>
      <text x="83.515" y="240.040">A</text>
      <text x="98.752" y="237.624">C</text>
      <text x="110.249" y="227.337">A</text>
      <text x="114.338" y="212.461">C</text>
      <text x="109.713" y="197.743">U</text>
      <text x="97.850" y="187.880">G</text>
      <text x="99.781" y="173.005">A</text>
      <text x="101.712" y="158.130">G</text>
      <text x="103.644" y="143.254">G</text>
      <text x="114.053" y="141.240">A</text>
      <text x="123.476" y="135.628">G</text>
      <text x="130.671" y="126.874">U</text>
      <text x="134.600" y="115.855">C</text>
      <text x="134.566" y="103.792">A</text>
      <text x="149.479" y="102.181">C</text>
      <text x="164.392" y="100.571">C</text>
      <text x="179.306" y="98.960">C</text>
      <text x="194.219" y="97.349">G</text>
      <text x="205.373" y="108.309">U</text>
      <text x="220.966" y="109.484">G</text>
      <text x="233.636" y="100.319">C</text>
      <text x="237.401" y="85.142">A</text>
      <text x="230.482" y="71.118">A</text>
      <text x="216.147" y="64.869">G</text>
      <text x="201.165" y="69.347">U</text>
      <text x="192.608" y="82.436">C</text>
      <text x="177.695" y="84.047">G</text>
      <text x="162.782" y="85.657">G</text>
      <text x="147.868" y="87.268">G</text>
      <text x="132.955" y="88.879">U</text>
      <text x="122.012" y="78.620">C</text>
      <text x="122.657" y="63.634">G</text>
      <text x="123.302" y="48.648">C</text>
      <text x="131.626" y="35.193">C</text>
      <text x="124.444" y="22.145">U</text>
      <text x="125.089" y="7.159">U</text>
      <text x="125.734" y="-7.827">G</text>
      <text x="128.752" y="-26.973">A</text>
    </g>
  </g>
</svg>
