<?xml version="1.0" encoding="UTF-8" standalone="yes"?>
<svg xmlns="http://www.w3.org/2000/svg" height="452" width="452">
<script type="text/ecmascript">
      <![CDATA[
        var shown = 1;
        function click() {
             var seq = document.getElementById("seq");
             if (shown==1) {
               seq.setAttribute("style", "visibility: hidden");
               shown = 0;
             } else {
               seq.setAttribute("style", "visibility: visible");
               shown = 1;
             }
         }
        ]]>
</script>
  <rect style="stroke: white; fill: white" height="452" x="0" y="0" width="452" onclick="click(evt)" />
  <g transform="scale(1.638570,1.638570) translate(20.039589,28.083344)">
    <polyline style="stroke: black; fill: none; stroke-width: 1.5" id="outline" points="
      112.164,-4.617
      111.491,10.368
      110.818,25.353
      110.145,40.338
      109.472,55.323
      108.799,70.308
      108.126,85.293
      92.018,87.066
      79.209,95.593
      72.157,108.343
      57.292,106.330
      42.428,104.316
      34.229,91.001
      19.373,86.120
      4.874,91.978
      -2.421,105.810
      0.931,121.084
      13.349,130.588
      28.968,129.835
      40.415,119.181
      55.279,121.194
      70.143,123.208
      74.909,136.246
      85.025,145.753
      81.034,160.212
      77.044,174.672
      73.053,189.131
      58.294,193.620
      48.321,205.391
      46.319,220.688
      52.924,234.630
      66.031,242.767
      81.456,242.504
      94.278,233.924
      100.404,219.765
      97.881,204.546
      87.513,193.122
      91.503,178.662
      95.494,164.203
      99.484,149.743
      110.578,148.949
      120.992,144.065
      129.225,135.496
      133.985,124.194
      134.391,111.557
      149.376,110.884
      164.361,110.211
      179.345,109.538
      194.330,108.865
      204.775,120.503
      220.264,122.653
      233.484,114.300
      238.193,99.388
      232.166,84.958
      218.251,77.824
      203.017,81.353
      193.657,93.881
      178.673,94.553
      163.688,95.226
      148.703,95.899
      133.718,96.572
      123.111,85.966
      123.784,70.981
      124.457,55.996
      125.130,41.011
      125.803,26.026
      126.476,11.041
      127.149,-3.944
      130.202,-23.083
    " />
    <g style="stroke: black; stroke-width: 1" id="pairs">
      <line id="1,68" x1="112.164" y1="-4.617" x2="127.149" y2="-3.944" />
      <line id="2,67" x1="111.491" y1="10.368" x2="126.476" y2="11.041" />
      <line id="3,66" x1="110.818" y1="25.353" x2="125.803" y2="26.026" />
      <line id="4,65" x1="110.145" y1="40.338" x2="125.130" y2="41.011" />
      <line id="5,64" x1="109.472" y1="55.323" x2="124.457" y2="55.996" />
      <line id="6,63" x1="108.799" y1="70.308" x2="123.784" y2="70.981" />
      <line id="7,62" x1="108.126" y1="85.293" x2="123.111" y2="85.966" />
      <line id="10,22" x1="72.157" y1="108.343" x2="70.143" y2="123.208" />
      <line id="11,21" x1="57.292" y1="106.330" x2="55.279" y2="121.194" />
      <line id="12,20" x1="42.428" y1="104.316" x2="40.415" y2="119.181" />
      <line id="24,40" x1="85.025" y1="145.753" x2="99.484" y2="149.743" />
      <line id="25,39" x1="81.034" y1="160.212" x2="95.494" y2="164.203" />
      <line id="26,38" x1="77.044" y1="174.672" x2="91.503" y2="178.662" />
      <line id="27,37" x1="73.053" y1="189.131" x2="87.513" y2="193.122" />
      <line id="45,61" x1="134.391" y1="111.557" x2="133.718" y2="96.572" />
      <line id="46,60" x1="149.376" y1="110.884" x2="148.703" y2="95.899" />
      <line id="47,59" x1="164.361" y1="110.211" x2="163.688" y2="95.226" />
      <line id="48,58" x1="179.345" y1="109.538" x2="178.673" y2="94.553" />
      <line id="49,57" x1="194.330" y1="108.865" x2="193.657" y2="93.881" />
    </g>
    <g style="font-family: SansSerif" transform="translate(-4.6, 4)" id="seq">
      <text x="112.164" y="-4.617">G</text>
      <text x="111.491" y="10.368">G</text>
      <text x="110.818" y="25.353">U</text>
      <text x="110.145" y="40.338">A</text>
      <text x="109.472" y="55.323">G</text>
      <text x="108.799" y="70.308">G</text>
      <text x="108.126" y="85.293">A</text>
      <text x="92.018" y="87.066">U</text>
      <text x="79.209" y="95.593">G</text>
      <text x="72.157" y="108.343">G</text>
      <text x="57.292" y="106.330">C</text>
      <text x="42.428" y="104.316">U</text>
      <text x="34.229" y="91.001">G</text>
      <text x="19.373" y="86.120">A</text>
      <text x="4.874" y="91.978">G</text>
      <text x="-2.421" y="105.810">U</text>
      <text x="0.931" y="121.084">U</text>
      <text x="13.349" y="130.588">U</text>
      <text x="28.968" y="129.835">A</text>
      <text x="40.415" y="119.181">A</text>
      <text x="55.279" y="121.194">G</text>
      <text x="70.143" y="123.208">C</text>
      <text x="74.909" y="136.246">G</text>
      <text x="85.025" y="145.753">G</text>
      <text x="81.034" y="160.212">U</text>
      <text x="77.044" y="174.672">G</text>
      <text x="73.053" y="189.131">G</text>
      <text x="58.294" y="193.620">A</text>
      <text x="48.321" y="205.391">U</text>
      <text x="46.319" y="220.688">U</text>
      <text x="52.924" y="234.630">G</text>
      <text x="66.031" y="242.767">U</text>
      <text x="81.456" y="242.504">A</text>
      <text x="94.278" y="233.924">G</text>
      <text x="100.404" y="219.765">C</text>
      <text x="97.881" y="204.546">C</text>
      <text x="87.513" y="193.122">C</text>
      <text x="91.503" y="178.662">C</text>
      <text x="95.494" y="164.203">A</text>
      <text x="99.484" y="149.743">U</text>
      <text x="110.578" y="148.949">A</text>
      <text x="120.992" y="144.065">G</text>
      <text x="129.225" y="135.496">A</text>
      <text x="133.985" y="124.194">C</text>
      <text x="134.391" y="111.557">A</text>
      <text x="149.376" y="110.884">G</text>
      <text x="164.361" y="110.211">A</text>
      <text x="179.345" y="109.538">G</text>
      <text x="194.330" y="108.865">G</text>
      <text x="204.775" y="120.503">U</text>
      <text x="220.264" y="122.653">U</text>
      <text x="233.484" y="114.300">U</text>
      <text x="238.193" y="99.388">A</text>
      <text x="232.166" y="84.958">A</text>
      <text x="218.251" y="77.824">G</text>
      <text x="203.017" y="81.353">U</text>
      <text x="193.657" y="93.881">C</text>
      <text x="178.673" y="94.553">C</text>
      <text x="163.688" y="95.226">U</text>
      <text x="148.703" y="95.899">C</text>
      <text x="133.718" y="96.572">U</text>
      <text x="123.111" y="85.966">U</text>
      <text x="123.784" y="70.981">C</text>
      <text x="124.457" y="55.996">U</text>
      <text x="125.130" y="41.011">U</text>
      <text x="125.803" y="26.026">A</text>
      <text x="126.476" y="11.041">C</text>
      <text x="127.149" y="-3.944">C</text>
      <text x="130.202" y="-23.083">A</text>
    </g>
  </g>
</svg>
