<?xml version="1.0" encoding="UTF-8" standalone="yes"?>
<svg xmlns="http://www.w3.org/2000/svg" height="452" width="452">
<script type="text/ecmascript">
      <![CDATA[
        var shown = 1;
        function click() {
             var seq = document.getElementById("seq");
             if (shown==1) {
               seq.setAttribute("style", "visibility: hidden");
               shown = 0;
             } else {
               seq.setAttribute("style", "visibility: visible");
               shown = 1;
             }
         }
        ]]>
</script>
  <rect style="stroke: white; fill: white" height="452" x="0" y="0" width="452" onclick="click(evt)" />
  <g transform="scale(0.260900,0.260900) translate(503.208496,723.844238)">
    <polyline style="stroke: black; fill: none; stroke-width: 1.5" id="outline" points="
      87.486,56.660
      87.123,71.656
      86.760,86.651
      79.262,86.469
      78.101,71.515
      88.101,59.571
      86.710,44.421
      75.262,34.962
      86.553,24.143
      88.197,8.592
      79.417,-4.349
      64.360,-8.568
      50.134,-2.075
      43.457,12.066
      47.482,27.176
      60.307,36.123
      50.457,47.236
      51.422,62.419
      63.146,72.676
      64.307,87.631
      49.202,99.917
      37.342,114.293
      28.952,129.998
      21.552,116.014
      6.663,115.613
      -5.941,107.480
      -18.544,99.346
      -31.147,91.212
      -43.750,83.079
      -56.354,74.945
      -68.957,66.811
      -66.790,49.739
      -78.301,33.172
      -100.799,27.678
      -111.866,17.552
      -122.933,7.427
      -134.000,-2.699
      -145.067,-12.824
      -156.117,-22.967
      -167.151,-33.128
      -162.347,-42.945
      -162.194,-54.944
      -167.598,-66.850
      -178.345,-76.061
      -193.010,-80.193
      -202.973,-91.406
      -212.937,-102.619
      -216.238,-110.997
      -222.951,-113.852
      -232.951,-125.033
      -242.950,-136.213
      -227.983,-155.253
      -228.827,-184.844
      -251.471,-211.646
      -256.913,-225.624
      -253.892,-241.742
      -266.515,-252.211
      -281.797,-246.261
      -284.017,-230.013
      -270.891,-220.181
      -265.449,-206.204
      -271.847,-202.290
      -279.673,-215.087
      -287.499,-227.883
      -300.296,-220.057
      -292.470,-207.261
      -284.644,-194.464
      -291.042,-190.551
      -301.005,-201.764
      -310.969,-212.977
      -303.585,-219.336
      -297.776,-228.133
      -294.302,-238.932
      -293.791,-251.076
      -296.678,-263.718
      -303.153,-275.888
      -313.127,-286.559
      -326.215,-294.730
      -334.531,-307.214
      -342.847,-319.698
      -336.155,-333.451
      -337.238,-348.608
      -345.706,-361.104
      -359.202,-367.640
      -374.057,-366.551
      -382.373,-379.034
      -376.102,-393.130
      -378.469,-408.374
      -388.720,-419.904
      -403.582,-424.039
      -418.315,-419.461
      -428.216,-407.630
      -430.126,-392.322
      -423.436,-378.420
      -410.280,-370.362
      -394.857,-370.719
      -386.541,-358.235
      -393.270,-344.946
      -392.439,-329.974
      -384.170,-317.345
      -370.601,-310.505
      -355.331,-311.382
      -347.015,-298.898
      -338.699,-286.414
      -344.486,-281.644
      -358.536,-286.898
      -356.061,-272.103
      -361.849,-267.333
      -372.515,-277.880
      -383.181,-288.426
      -393.848,-298.973
      -404.497,-309.536
      -415.129,-320.117
      -408.493,-333.727
      -406.638,-348.755
      -409.765,-363.571
      -417.536,-376.567
      -429.107,-386.334
      -443.223,-391.812
      -458.353,-392.407
      -472.856,-388.055
      -485.159,-379.228
      -493.927,-366.882
      -498.209,-352.358
      -497.540,-337.231
      -491.993,-323.142
      -482.171,-311.618
      -469.137,-303.910
      -454.307,-300.855
      -439.288,-302.783
      -425.710,-309.485
      -415.078,-298.904
      -412.584,-292.049
      -404.394,-288.306
      -393.728,-277.760
      -383.062,-267.213
      -372.395,-256.667
      -377.258,-250.957
      -386.984,-239.538
      -391.847,-233.828
      -394.561,-246.352
      -404.723,-253.486
      -416.633,-251.888
      -428.771,-260.701
      -438.036,-274.900
      -454.244,-269.928
      -453.953,-252.976
      -437.584,-248.563
      -425.446,-239.750
      -419.101,-223.331
      -400.699,-221.718
      -383.175,-199.346
      -359.893,-189.379
      -337.756,-191.722
      -322.182,-203.013
      -312.218,-191.801
      -302.255,-180.588
      -306.950,-174.739
      -321.775,-177.023
      -316.340,-163.042
      -321.035,-157.193
      -334.137,-164.497
      -342.080,-178.844
      -358.480,-178.867
      -366.464,-164.543
      -357.820,-150.607
      -341.440,-151.395
      -328.338,-144.091
      -319.842,-130.429
      -308.594,-120.427
      -295.889,-114.496
      -283.026,-112.637
      -271.187,-114.471
      -261.334,-119.304
      -254.131,-126.213
      -244.131,-115.033
      -234.132,-103.852
      -224.150,-92.655
      -214.186,-81.443
      -204.223,-70.230
      -208.187,-63.863
      -220.920,-71.792
      -233.653,-79.722
      -246.386,-87.651
      -254.315,-74.917
      -241.582,-66.989
      -228.849,-59.060
      -216.117,-51.130
      -220.081,-44.764
      -234.539,-48.759
      -248.997,-52.754
      -263.456,-56.750
      -268.182,-66.367
      -277.198,-71.746
      -287.471,-71.353
      -295.694,-65.552
      -310.177,-69.453
      -324.661,-73.355
      -339.145,-77.257
      -353.628,-81.159
      -364.819,-93.146
      -380.733,-89.185
      -384.998,-73.350
      -373.228,-61.931
      -357.530,-66.675
      -343.046,-62.773
      -328.563,-58.871
      -314.079,-54.970
      -299.595,-51.068
      -286.829,-36.450
      -267.451,-42.291
      -252.993,-38.296
      -238.534,-34.301
      -224.076,-30.306
      -199.743,-14.355
      -177.312,-22.094
      -166.278,-11.933
      -163.521,-5.179
      -155.192,-1.757
      -144.125,8.368
      -133.058,18.494
      -121.991,28.619
      -110.925,38.745
      -113.407,45.822
      -127.562,40.856
      -139.489,31.760
      -151.825,40.292
      -147.523,54.662
      -132.527,55.010
      -118.373,59.976
      -120.856,67.053
      -135.823,68.045
      -150.790,69.037
      -165.757,70.029
      -180.724,71.021
      -195.710,71.675
      -210.707,71.990
      -225.704,72.305
      -231.163,58.163
      -241.131,46.744
      -254.406,39.426
      -269.384,37.092
      -284.256,40.025
      -297.226,47.870
      -306.729,59.680
      -311.616,74.029
      -311.298,89.184
      -305.813,103.315
      -295.823,114.716
      -282.535,122.010
      -267.553,124.316
      -252.686,121.356
      -239.730,113.487
      -230.250,101.659
      -225.389,87.301
      -210.392,86.987
      -195.395,86.672
      -208.940,93.117
      -219.000,104.244
      -224.052,118.367
      -223.331,133.350
      -216.947,146.924
      -205.865,157.033
      -191.765,162.148
      -176.779,161.495
      -163.177,155.172
      -153.017,144.136
      -147.839,130.058
      -148.425,115.070
      -154.687,101.439
      -165.677,91.231
      -179.732,85.989
      -164.765,84.997
      -149.798,84.004
      -134.831,83.012
      -119.864,82.020
      -95.090,90.324
      -77.091,79.415
      -64.487,87.548
      -51.884,95.682
      -39.281,103.816
      -26.678,111.949
      -14.074,120.083
      -1.471,128.217
      5.027,141.619
      20.818,142.601
      13.999,159.234
      10.634,176.893
      10.856,194.869
      14.658,212.439
      21.887,228.898
      32.252,243.586
      45.337,255.912
      37.223,268.529
      29.110,281.145
      20.997,293.762
      17.178,289.453
      11.913,285.976
      5.403,283.714
      -2.060,283.002
      -10.106,284.105
      -18.300,287.197
      -26.166,292.356
      -37.001,302.729
      -47.837,313.102
      -58.672,323.475
      -74.561,318.687
      -90.595,322.580
      -102.384,333.989
      -106.750,349.706
      -102.582,365.378
      -114.891,356.725
      -128.648,350.641
      -143.322,347.359
      -158.349,347.003
      -173.153,349.585
      -187.164,355.004
      -199.844,363.049
      -210.708,373.411
      -219.338,385.689
      -225.405,399.411
      -228.678,414.048
      -229.032,429.037
      -226.455,443.803
      -221.049,457.778
      -213.022,470.425
      -223.891,480.763
      -234.760,491.101
      -245.628,501.438
      -256.497,511.776
      -267.366,522.114
      -278.234,532.452
      -289.103,542.790
      -298.070,537.160
      -310.229,536.414
      -322.791,542.126
      -332.296,554.282
      -343.683,564.045
      -355.071,573.808
      -366.459,583.571
      -377.847,593.334
      -393.360,596.442
      -397.987,610.599
      -409.375,620.362
      -426.853,618.733
      -439.804,630.074
      -440.469,646.935
      -451.889,656.661
      -463.308,666.387
      -479.040,664.876
      -491.179,674.996
      -492.524,690.743
      -482.277,702.775
      -466.516,703.953
      -454.594,693.579
      -453.582,677.807
      -442.163,668.081
      -430.743,658.355
      -418.246,661.171
      -406.213,656.238
      -399.080,645.132
      -399.612,631.750
      -388.224,621.987
      -373.526,619.578
      -368.085,604.722
      -356.697,594.959
      -345.309,585.196
      -333.921,575.433
      -322.533,565.670
      -317.098,570.839
      -327.436,581.708
      -337.774,592.577
      -348.112,603.445
      -358.450,614.314
      -368.788,625.183
      -357.919,635.520
      -347.581,624.652
      -337.243,613.783
      -326.905,602.915
      -316.568,592.046
      -306.230,581.177
      -300.795,586.346
      -316.169,592.054
      -318.645,608.266
      -305.676,618.303
      -290.604,611.841
      -288.933,595.527
      -272.791,573.852
      -278.765,553.659
      -267.896,543.321
      -257.028,532.983
      -246.159,522.645
      -235.290,512.307
      -224.422,501.969
      -213.553,491.631
      -202.684,481.293
      -190.454,489.942
      -176.768,496.041
      -162.150,499.353
      -147.161,499.750
      -132.379,497.214
      -118.371,491.840
      -105.676,483.835
      -94.784,473.503
      -86.114,461.241
      -80.001,447.519
      -76.682,432.863
      -76.286,417.836
      -78.829,403.017
      -84.218,388.973
      -92.245,376.247
      -79.497,380.954
      -65.897,379.730
      -54.081,372.756
      -46.363,361.332
      -44.283,347.636
      -48.299,334.310
      -37.464,323.937
      -26.629,313.564
      -15.793,303.191
      -9.345,307.021
      -17.005,319.918
      -4.108,327.578
      3.552,314.681
      10.000,318.511
      6.075,332.989
      2.150,347.466
      -1.776,361.943
      -5.701,376.421
      -9.626,390.898
      -13.143,394.410
      -14.872,398.497
      -14.881,402.412
      -13.518,405.535
      -17.303,420.049
      -31.599,425.789
      -39.679,438.695
      -38.623,453.706
      -29.045,465.081
      -32.830,479.596
      -36.615,494.111
      -40.399,508.625
      -55.094,513.324
      -64.898,525.235
      -66.683,540.559
      -59.880,554.405
      -46.659,562.356
      -31.239,561.873
      -18.541,553.112
      -12.616,538.868
      -15.355,523.686
      -25.885,512.410
      -22.100,497.896
      -18.315,483.381
      -14.531,468.866
      -0.617,463.616
      7.634,451.032
      6.885,435.823
      -2.788,423.834
      0.996,409.319
      4.851,394.823
      8.777,380.346
      12.702,365.869
      16.627,351.391
      20.552,336.914
      24.477,322.437
      21.546,337.147
      21.250,352.145
      23.599,366.959
      28.520,381.129
      35.859,394.212
      45.386,405.797
      56.804,415.525
      69.757,423.091
      83.839,428.258
      98.610,430.865
      113.610,430.830
      128.370,428.156
      142.428,422.925
      155.346,415.300
      166.719,405.520
      176.194,393.891
      183.472,380.776
      188.328,366.583
      190.610,351.758
      190.246,336.762
      187.248,322.065
      181.708,308.125
      173.802,295.378
      163.774,284.223
      151.939,275.007
      138.667,268.018
      124.371,263.475
      109.499,261.520
      94.515,262.214
      79.888,265.535
      66.073,271.379
      53.503,279.564
      42.571,289.834
      33.613,301.875
      41.727,289.259
      49.840,276.642
      57.953,264.026
      84.010,273.053
      111.577,273.739
      114.749,288.400
      117.921,303.060
      107.679,310.693
      101.071,321.569
      99.030,334.084
      101.822,346.406
      109.003,356.744
      119.498,363.609
      131.757,366.028
      135.024,380.668
      138.291,395.308
      141.558,409.948
      132.874,423.153
      136.153,438.613
      149.449,447.157
      164.874,443.715
      173.276,430.329
      169.671,414.941
      156.197,406.681
      152.930,392.041
      149.664,377.401
      146.397,362.761
      159.536,351.476
      165.105,334.980
      161.458,317.864
      149.526,304.939
      132.582,299.888
      129.410,285.227
      126.237,270.567
      135.542,267.148
      144.413,262.724
      152.742,257.348
      160.426,251.087
      167.373,244.015
      173.498,236.220
      178.725,227.798
      182.991,218.850
      186.243,209.486
      200.958,212.397
      215.668,215.332
      230.373,218.291
      238.051,222.996
      245.131,221.236
      259.846,224.148
      274.560,227.059
      289.275,229.971
      303.990,232.882
      316.026,243.151
      330.013,238.031
      344.727,240.943
      346.946,261.832
      356.159,280.689
      371.244,295.250
      390.378,303.773
      411.252,305.245
      431.354,299.504
      448.269,287.252
      459.970,269.976
      474.306,274.390
      488.642,278.803
      502.978,283.217
      517.314,287.630
      502.258,310.633
      509.947,345.734
      545.998,374.167
      559.284,381.130
      572.570,388.093
      585.857,395.055
      599.143,402.018
      612.429,408.980
      625.715,415.943
      639.001,422.906
      652.276,429.890
      665.540,436.895
      662.775,446.412
      664.695,457.534
      672.007,467.895
      684.236,474.893
      693.569,486.635
      702.903,498.378
      712.236,510.120
      707.954,525.035
      713.288,539.607
      726.188,548.232
      741.691,547.594
      753.839,537.939
      757.959,522.979
      752.467,508.466
      739.475,499.981
      723.979,500.787
      714.645,489.044
      705.312,477.302
      695.979,465.559
      700.521,459.591
      712.457,468.676
      724.393,477.761
      736.329,486.846
      745.413,474.910
      733.478,465.825
      721.542,456.741
      709.606,447.656
      714.148,441.688
      727.953,447.556
      741.757,453.425
      751.430,465.945
      766.170,463.804
      779.974,469.672
      793.779,475.541
      792.977,484.601
      794.274,493.590
      797.593,502.028
      802.751,509.469
      809.469,515.518
      817.383,519.858
      826.069,522.263
      835.060,522.611
      843.879,520.889
      852.054,517.196
      859.153,511.734
      864.800,504.800
      878.734,510.356
      885.441,516.364
      892.721,515.906
      906.673,521.416
      910.940,526.196
      916.183,527.936
      920.732,526.917
      934.718,532.337
      948.705,537.757
      962.691,543.177
      976.652,548.664
      990.585,554.219
      1004.518,559.775
      1018.443,565.352
      1032.358,570.952
      1046.274,576.552
      1045.122,591.745
      1051.003,606.808
      1063.502,618.485
      1080.710,623.905
      1099.500,621.246
      1113.046,627.688
      1126.592,634.131
      1124.615,645.949
      1129.108,658.739
      1140.326,668.912
      1156.565,672.979
      1169.961,679.726
      1183.358,686.473
      1188.074,701.557
      1202.113,708.815
      1217.147,703.940
      1224.256,689.825
      1219.222,674.844
      1205.033,667.885
      1190.105,673.076
      1176.709,666.329
      1163.312,659.582
      1166.445,652.768
      1172.713,639.140
      1175.846,632.326
      1185.357,645.685
      1201.654,643.859
      1207.973,628.726
      1197.812,615.854
      1181.626,618.484
      1163.164,607.431
      1144.533,609.471
      1133.035,620.585
      1119.489,614.142
      1105.943,607.700
      1108.563,600.672
      1122.618,605.911
      1137.410,603.420
      1127.857,591.855
      1113.801,586.617
      1116.421,579.589
      1130.879,583.584
      1145.337,587.579
      1151.670,601.877
      1165.735,608.713
      1180.890,604.859
      1189.980,592.134
      1188.713,576.548
      1177.687,565.459
      1162.108,564.104
      1149.332,573.121
      1134.874,569.126
      1120.416,565.131
      1110.653,553.021
      1097.778,545.487
      1083.692,543.125
      1070.312,545.804
      1059.302,552.738
      1051.874,562.637
      1037.958,557.037
      1024.043,551.437
      1019.074,546.095
      1010.074,545.841
      996.140,540.286
      982.207,534.731
      980.499,531.782
      977.341,529.469
      973.024,528.438
      968.111,529.190
      954.125,523.770
      940.138,518.350
      926.152,512.930
      912.183,507.465
      898.231,501.955
      884.289,496.422
      870.356,490.867
      868.635,470.016
      856.284,453.034
      836.834,444.914
      815.920,448.098
      799.647,461.737
      785.843,455.868
      772.039,449.999
      763.353,437.899
      747.626,439.621
      733.821,433.752
      720.017,427.883
      693.696,412.115
      672.545,423.631
      659.282,416.626
      654.890,410.800
      645.964,409.619
      632.678,402.657
      619.391,395.694
      606.105,388.732
      592.819,381.769
      579.533,374.806
      566.247,367.844
      552.961,360.881
      554.226,353.489
      569.011,356.019
      583.080,350.818
      571.541,341.234
      556.756,338.704
      558.022,331.311
      572.867,329.163
      587.713,327.016
      602.558,324.868
      617.403,322.720
      633.945,326.436
      642.095,311.570
      630.066,299.623
      615.256,307.875
      600.410,310.022
      585.565,312.170
      570.719,314.318
      555.874,316.466
      554.146,309.167
      568.742,305.712
      583.339,302.256
      597.935,298.800
      612.532,295.344
      623.445,285.054
      609.076,280.748
      594.480,284.204
      579.883,287.659
      565.287,291.115
      550.690,294.571
      548.962,287.273
      563.195,282.536
      577.427,277.800
      591.660,273.063
      605.893,268.327
      620.125,263.590
      632.664,272.731
      648.181,272.722
      660.710,263.566
      665.432,248.785
      660.532,234.062
      647.895,225.058
      632.378,225.236
      619.950,234.526
      615.389,249.358
      601.156,254.094
      586.924,258.831
      572.691,263.567
      558.458,268.304
      544.226,273.040
      556.223,264.036
      562.410,250.372
      561.261,235.416
      553.060,222.856
      539.828,215.790
      524.829,215.960
      511.761,223.324
      503.846,236.066
      503.036,251.044
      509.531,264.565
      521.727,273.294
      507.391,268.881
      493.055,264.467
      478.719,260.054
      464.383,255.640
      465.151,249.298
      465.241,242.911
      464.654,236.550
      463.394,230.288
      461.478,224.194
      458.925,218.338
      471.396,210.002
      483.866,201.666
      496.336,193.330
      508.807,184.994
      521.277,176.658
      533.747,168.322
      547.853,174.571
      563.094,172.179
      574.607,161.910
      578.718,147.040
      574.116,132.315
      562.269,122.433
      546.957,120.548
      533.067,127.260
      525.030,140.429
      525.411,155.852
      512.941,164.188
      500.471,172.524
      488.000,180.860
      475.530,189.196
      463.060,197.532
      450.589,205.868
      443.032,198.506
      434.298,192.574
      424.656,188.256
      414.402,185.688
      403.849,184.952
      393.324,186.071
      383.150,189.015
      373.640,193.694
      365.089,199.967
      357.761,207.643
      351.883,216.487
      347.639,226.228
      332.924,223.316
      321.941,213.256
      306.901,218.167
      292.187,215.256
      277.472,212.344
      262.757,209.433
      248.042,206.521
      233.332,203.586
      218.627,200.627
      212.765,196.285
      203.870,197.682
      189.155,194.771
      190.538,188.907
      191.532,182.905
      192.124,176.789
      192.304,170.587
      192.064,164.327
      191.395,158.038
      190.294,151.750
      188.758,145.491
      186.786,139.293
      184.379,133.185
      181.541,127.199
      178.278,121.365
      174.596,115.714
      170.508,110.274
      166.024,105.076
      173.008,91.801
      179.992,78.526
      193.264,69.916
      192.343,55.050
      199.327,41.775
      213.467,46.853
      228.177,49.914
      243.170,50.898
      258.153,49.786
      272.836,46.599
      286.933,41.400
      300.169,34.289
      312.286,25.405
      323.049,14.922
      332.248,3.042
      339.704,-10.002
      345.272,-23.957
      348.844,-38.551
      350.350,-53.500
      349.760,-68.514
      347.087,-83.299
      342.382,-97.568
      335.737,-111.043
      327.281,-123.463
      317.178,-134.584
      305.627,-144.192
      292.850,-152.098
      279.098,-158.149
      264.637,-162.227
      249.749,-164.253
      234.724,-164.187
      219.855,-162.030
      205.431,-157.825
      191.732,-151.653
      179.025,-143.635
      167.559,-133.927
      157.554,-122.717
      149.208,-110.223
      142.681,-96.690
      138.102,-82.380
      135.559,-67.572
      135.101,-52.554
      136.738,-37.619
      140.438,-23.057
      146.129,-9.151
      153.699,3.827
      163.002,15.625
      173.857,26.014
      186.052,34.791
      179.068,48.065
      166.295,55.727
      166.717,71.542
      159.733,84.817
      152.749,98.092
      145.595,95.839
      150.101,81.532
      154.607,67.225
      159.113,52.917
      163.619,38.610
      168.126,24.303
      172.632,9.996
      177.137,-4.311
      162.830,-8.817
      158.324,5.490
      153.818,19.797
      149.312,34.104
      144.806,48.411
      140.300,62.718
      135.794,77.026
      131.288,91.333
      124.134,89.080
      126.018,74.199
      127.902,59.317
      129.786,44.436
      131.670,29.555
      133.553,14.674
      135.437,-0.208
      137.321,-15.089
      139.205,-29.970
      141.089,-44.851
      151.433,-57.577
      145.332,-72.799
      129.063,-74.859
      119.361,-61.637
      126.208,-46.735
      124.324,-31.854
      122.440,-16.973
      120.556,-2.092
      118.672,12.790
      116.788,27.671
      114.905,42.552
      113.021,57.433
      111.137,72.315
      109.253,87.196
      101.755,87.014
      102.118,72.019
      102.482,57.023
      102.845,42.027
      103.208,27.032
      96.025,13.864
      88.212,26.669
    " />
    <g style="stroke: black; stroke-width: 1" id="pairs">
      <line id="4,20" x1="79.262" y1="86.469" x2="64.307" y2="87.631" />
      <line id="5,19" x1="78.101" y1="71.515" x2="63.146" y2="72.676" />
      <line id="8,16" x1="75.262" y1="34.962" x2="60.307" y2="36.123" />
      <line id="23,286" x1="28.952" y1="129.998" x2="20.818" y2="142.601" />
      <line id="25,284" x1=" 6.663" y1="115.613" x2="-1.471" y2="128.217" />
      <line id="26,283" x1="-5.941" y1="107.480" x2="-14.074" y2="120.083" />
      <line id="27,282" x1="-18.544" y1="99.346" x2="-26.678" y2="111.949" />
      <line id="28,281" x1="-31.147" y1="91.212" x2="-39.281" y2="103.816" />
      <line id="29,280" x1="-43.750" y1="83.079" x2="-51.884" y2="95.682" />
      <line id="30,279" x1="-56.354" y1="74.945" x2="-64.487" y2="87.548" />
      <line id="31,278" x1="-68.957" y1="66.811" x2="-77.091" y2="79.415" />
      <line id="34,223" x1="-100.799" y1="27.678" x2="-110.925" y2="38.745" />
      <line id="35,222" x1="-111.866" y1="17.552" x2="-121.991" y2="28.619" />
      <line id="36,221" x1="-122.933" y1=" 7.427" x2="-133.058" y2="18.494" />
      <line id="37,220" x1="-134.000" y1="-2.699" x2="-144.125" y2=" 8.368" />
      <line id="38,219" x1="-145.067" y1="-12.824" x2="-155.192" y2="-1.757" />
      <line id="39,217" x1="-156.117" y1="-22.967" x2="-166.278" y2="-11.933" />
      <line id="40,216" x1="-167.151" y1="-33.128" x2="-177.312" y2="-22.094" />
      <line id="45,180" x1="-193.010" y1="-80.193" x2="-204.223" y2="-70.230" />
      <line id="46,179" x1="-202.973" y1="-91.406" x2="-214.186" y2="-81.443" />
      <line id="47,178" x1="-212.937" y1="-102.619" x2="-224.150" y2="-92.655" />
      <line id="49,177" x1="-222.951" y1="-113.852" x2="-234.132" y2="-103.852" />
      <line id="50,176" x1="-232.951" y1="-125.033" x2="-244.131" y2="-115.033" />
      <line id="51,175" x1="-242.950" y1="-136.213" x2="-254.131" y2="-126.213" />
      <line id="54,61" x1="-251.471" y1="-211.646" x2="-265.449" y2="-206.204" />
      <line id="55,60" x1="-256.913" y1="-225.624" x2="-270.891" y2="-220.181" />
      <line id="68,157" x1="-291.042" y1="-190.551" x2="-302.255" y2="-180.588" />
      <line id="69,156" x1="-301.005" y1="-201.764" x2="-312.218" y2="-191.801" />
      <line id="70,155" x1="-310.969" y1="-212.977" x2="-322.182" y2="-203.013" />
      <line id="78,104" x1="-326.215" y1="-294.730" x2="-338.699" y2="-286.414" />
      <line id="79,103" x1="-334.531" y1="-307.214" x2="-347.015" y2="-298.898" />
      <line id="80,102" x1="-342.847" y1="-319.698" x2="-355.331" y2="-311.382" />
      <line id="85,97" x1="-374.057" y1="-366.551" x2="-386.541" y2="-358.235" />
      <line id="86,96" x1="-382.373" y1="-379.034" x2="-394.857" y2="-370.719" />
      <line id="108,137" x1="-361.849" y1="-267.333" x2="-372.395" y2="-256.667" />
      <line id="109,136" x1="-372.515" y1="-277.880" x2="-383.062" y2="-267.213" />
      <line id="110,135" x1="-383.181" y1="-288.426" x2="-393.728" y2="-277.760" />
      <line id="111,134" x1="-393.848" y1="-298.973" x2="-404.394" y2="-288.306" />
      <line id="112,132" x1="-404.497" y1="-309.536" x2="-415.078" y2="-298.904" />
      <line id="113,131" x1="-415.129" y1="-320.117" x2="-425.710" y2="-309.485" />
      <line id="140,151" x1="-391.847" y1="-233.828" x2="-400.699" y2="-221.718" />
      <line id="143,149" x1="-416.633" y1="-251.888" x2="-425.446" y2="-239.750" />
      <line id="144,148" x1="-428.771" y1="-260.701" x2="-437.584" y2="-248.563" />
      <line id="161,168" x1="-321.035" y1="-157.193" x2="-328.338" y2="-144.091" />
      <line id="162,167" x1="-334.137" y1="-164.497" x2="-341.440" y2="-151.395" />
      <line id="189,214" x1="-220.081" y1="-44.764" x2="-224.076" y2="-30.306" />
      <line id="190,213" x1="-234.539" y1="-48.759" x2="-238.534" y2="-34.301" />
      <line id="191,212" x1="-248.997" y1="-52.754" x2="-252.993" y2="-38.296" />
      <line id="192,211" x1="-263.456" y1="-56.750" x2="-267.451" y2="-42.291" />
      <line id="196,209" x1="-295.694" y1="-65.552" x2="-299.595" y2="-51.068" />
      <line id="197,208" x1="-310.177" y1="-69.453" x2="-314.079" y2="-54.970" />
      <line id="198,207" x1="-324.661" y1="-73.355" x2="-328.563" y2="-58.871" />
      <line id="199,206" x1="-339.145" y1="-77.257" x2="-343.046" y2="-62.773" />
      <line id="200,205" x1="-353.628" y1="-81.159" x2="-357.530" y2="-66.675" />
      <line id="231,276" x1="-120.856" y1="67.053" x2="-119.864" y2="82.020" />
      <line id="232,275" x1="-135.823" y1="68.045" x2="-134.831" y2="83.012" />
      <line id="233,274" x1="-150.790" y1="69.037" x2="-149.798" y2="84.004" />
      <line id="234,273" x1="-165.757" y1="70.029" x2="-164.765" y2="84.997" />
      <line id="235,272" x1="-180.724" y1="71.021" x2="-179.732" y2="85.989" />
      <line id="236,257" x1="-195.710" y1="71.675" x2="-195.395" y2="86.672" />
      <line id="237,256" x1="-210.707" y1="71.990" x2="-210.392" y2="86.987" />
      <line id="238,255" x1="-225.704" y1="72.305" x2="-225.389" y2="87.301" />
      <line id="293,503" x1="45.337" y1="255.912" x2="57.953" y2="264.026" />
      <line id="294,502" x1="37.223" y1="268.529" x2="49.840" y2="276.642" />
      <line id="295,501" x1="29.110" y1="281.145" x2="41.727" y2="289.259" />
      <line id="296,500" x1="20.997" y1="293.762" x2="33.613" y2="301.875" />
      <line id="303,420" x1="-26.166" y1="292.356" x2="-15.793" y2="303.191" />
      <line id="304,419" x1="-37.001" y1="302.729" x2="-26.629" y2="313.564" />
      <line id="305,418" x1="-47.837" y1="313.102" x2="-37.464" y2="323.937" />
      <line id="306,417" x1="-58.672" y1="323.475" x2="-48.299" y2="334.310" />
      <line id="311,411" x1="-102.582" y1="365.378" x2="-92.245" y2="376.247" />
      <line id="326,396" x1="-213.022" y1="470.425" x2="-202.684" y2="481.293" />
      <line id="327,395" x1="-223.891" y1="480.763" x2="-213.553" y2="491.631" />
      <line id="328,394" x1="-234.760" y1="491.101" x2="-224.422" y2="501.969" />
      <line id="329,393" x1="-245.628" y1="501.438" x2="-235.290" y2="512.307" />
      <line id="330,392" x1="-256.497" y1="511.776" x2="-246.159" y2="522.645" />
      <line id="331,391" x1="-267.366" y1="522.114" x2="-257.028" y2="532.983" />
      <line id="332,390" x1="-278.234" y1="532.452" x2="-267.896" y2="543.321" />
      <line id="333,389" x1="-289.103" y1="542.790" x2="-278.765" y2="553.659" />
      <line id="337,369" x1="-332.296" y1="554.282" x2="-322.533" y2="565.670" />
      <line id="338,368" x1="-343.683" y1="564.045" x2="-333.921" y2="575.433" />
      <line id="339,367" x1="-355.071" y1="573.808" x2="-345.309" y2="585.196" />
      <line id="340,366" x1="-366.459" y1="583.571" x2="-356.697" y2="594.959" />
      <line id="341,365" x1="-377.847" y1="593.334" x2="-368.085" y2="604.722" />
      <line id="343,363" x1="-397.987" y1="610.599" x2="-388.224" y2="621.987" />
      <line id="344,362" x1="-409.375" y1="620.362" x2="-399.612" y2="631.750" />
      <line id="347,358" x1="-440.469" y1="646.935" x2="-430.743" y2="658.355" />
      <line id="348,357" x1="-451.889" y1="656.661" x2="-442.163" y2="668.081" />
      <line id="349,356" x1="-463.308" y1="666.387" x2="-453.582" y2="677.807" />
      <line id="382,387" x1="-300.795" y1="586.346" x2="-288.933" y2="595.527" />
      <line id="425,466" x1="10.000" y1="318.511" x2="24.477" y2="322.437" />
      <line id="426,465" x1=" 6.075" y1="332.989" x2="20.552" y2="336.914" />
      <line id="427,464" x1=" 2.150" y1="347.466" x2="16.627" y2="351.391" />
      <line id="428,463" x1="-1.776" y1="361.943" x2="12.702" y2="365.869" />
      <line id="429,462" x1="-5.701" y1="376.421" x2=" 8.777" y2="380.346" />
      <line id="430,461" x1="-9.626" y1="390.898" x2=" 4.851" y2="394.823" />
      <line id="434,460" x1="-13.518" y1="405.535" x2=" 0.996" y2="409.319" />
      <line id="435,459" x1="-17.303" y1="420.049" x2="-2.788" y2="423.834" />
      <line id="439,455" x1="-29.045" y1="465.081" x2="-14.531" y2="468.866" />
      <line id="440,454" x1="-32.830" y1="479.596" x2="-18.315" y2="483.381" />
      <line id="441,453" x1="-36.615" y1="494.111" x2="-22.100" y2="497.896" />
      <line id="442,452" x1="-40.399" y1="508.625" x2="-25.885" y2="512.410" />
      <line id="505,534" x1="111.577" y1="273.739" x2="126.237" y2="270.567" />
      <line id="506,533" x1="114.749" y1="288.400" x2="129.410" y2="285.227" />
      <line id="507,532" x1="117.921" y1="303.060" x2="132.582" y2="299.888" />
      <line id="514,527" x1="131.757" y1="366.028" x2="146.397" y2="362.761" />
      <line id="515,526" x1="135.024" y1="380.668" x2="149.664" y2="377.401" />
      <line id="516,525" x1="138.291" y1="395.308" x2="152.930" y2="392.041" />
      <line id="517,524" x1="141.558" y1="409.948" x2="156.197" y2="406.681" />
      <line id="543,856" x1="186.243" y1="209.486" x2="189.155" y2="194.771" />
      <line id="544,855" x1="200.958" y1="212.397" x2="203.870" y2="197.682" />
      <line id="545,853" x1="215.668" y1="215.332" x2="218.627" y2="200.627" />
      <line id="546,852" x1="230.373" y1="218.291" x2="233.332" y2="203.586" />
      <line id="548,851" x1="245.131" y1="221.236" x2="248.042" y2="206.521" />
      <line id="549,850" x1="259.846" y1="224.148" x2="262.757" y2="209.433" />
      <line id="550,849" x1="274.560" y1="227.059" x2="277.472" y2="212.344" />
      <line id="551,848" x1="289.275" y1="229.971" x2="292.187" y2="215.256" />
      <line id="552,847" x1="303.990" y1="232.882" x2="306.901" y2="218.167" />
      <line id="554,845" x1="330.013" y1="238.031" x2="332.924" y2="223.316" />
      <line id="555,844" x1="344.727" y1="240.943" x2="347.639" y2="226.228" />
      <line id="563,804" x1="459.970" y1="269.976" x2="464.383" y2="255.640" />
      <line id="564,803" x1="474.306" y1="274.390" x2="478.719" y2="260.054" />
      <line id="565,802" x1="488.642" y1="278.803" x2="493.055" y2="264.467" />
      <line id="566,801" x1="502.978" y1="283.217" x2="507.391" y2="268.881" />
      <line id="567,800" x1="517.314" y1="287.630" x2="521.727" y2="273.294" />
      <line id="570,740" x1="545.998" y1="374.167" x2="552.961" y2="360.881" />
      <line id="571,739" x1="559.284" y1="381.130" x2="566.247" y2="367.844" />
      <line id="572,738" x1="572.570" y1="388.093" x2="579.533" y2="374.806" />
      <line id="573,737" x1="585.857" y1="395.055" x2="592.819" y2="381.769" />
      <line id="574,736" x1="599.143" y1="402.018" x2="606.105" y2="388.732" />
      <line id="575,735" x1="612.429" y1="408.980" x2="619.391" y2="395.694" />
      <line id="576,734" x1="625.715" y1="415.943" x2="632.678" y2="402.657" />
      <line id="577,733" x1="639.001" y1="422.906" x2="645.964" y2="409.619" />
      <line id="578,731" x1="652.276" y1="429.890" x2="659.282" y2="416.626" />
      <line id="579,730" x1="665.540" y1="436.895" x2="672.545" y2="423.631" />
      <line id="583,598" x1="684.236" y1="474.893" x2="695.979" y2="465.559" />
      <line id="584,597" x1="693.569" y1="486.635" x2="705.312" y2="477.302" />
      <line id="585,596" x1="702.903" y1="498.378" x2="714.645" y2="489.044" />
      <line id="586,595" x1="712.236" y1="510.120" x2="723.979" y2="500.787" />
      <line id="607,728" x1="714.148" y1="441.688" x2="720.017" y2="427.883" />
      <line id="608,727" x1="727.953" y1="447.556" x2="733.821" y2="433.752" />
      <line id="609,726" x1="741.757" y1="453.425" x2="747.626" y2="439.621" />
      <line id="611,724" x1="766.170" y1="463.804" x2="772.039" y2="449.999" />
      <line id="612,723" x1="779.974" y1="469.672" x2="785.843" y2="455.868" />
      <line id="613,722" x1="793.779" y1="475.541" x2="799.647" y2="461.737" />
      <line id="625,717" x1="864.800" y1="504.800" x2="870.356" y2="490.867" />
      <line id="626,716" x1="878.734" y1="510.356" x2="884.289" y2="496.422" />
      <line id="628,715" x1="892.721" y1="515.906" x2="898.231" y2="501.955" />
      <line id="629,714" x1="906.673" y1="521.416" x2="912.183" y2="507.465" />
      <line id="632,713" x1="920.732" y1="526.917" x2="926.152" y2="512.930" />
      <line id="633,712" x1="934.718" y1="532.337" x2="940.138" y2="518.350" />
      <line id="634,711" x1="948.705" y1="537.757" x2="954.125" y2="523.770" />
      <line id="635,710" x1="962.691" y1="543.177" x2="968.111" y2="529.190" />
      <line id="636,706" x1="976.652" y1="548.664" x2="982.207" y2="534.731" />
      <line id="637,705" x1="990.585" y1="554.219" x2="996.140" y2="540.286" />
      <line id="638,704" x1="1004.518" y1="559.775" x2="1010.074" y2="545.841" />
      <line id="639,702" x1="1018.443" y1="565.352" x2="1024.043" y2="551.437" />
      <line id="640,701" x1="1032.358" y1="570.952" x2="1037.958" y2="557.037" />
      <line id="641,700" x1="1046.274" y1="576.552" x2="1051.874" y2="562.637" />
      <line id="646,676" x1="1099.500" y1="621.246" x2="1105.943" y2="607.700" />
      <line id="647,675" x1="1113.046" y1="627.688" x2="1119.489" y2="614.142" />
      <line id="648,674" x1="1126.592" y1="634.131" x2="1133.035" y2="620.585" />
      <line id="652,663" x1="1156.565" y1="672.979" x2="1163.312" y2="659.582" />
      <line id="653,662" x1="1169.961" y1="679.726" x2="1176.709" y2="666.329" />
      <line id="654,661" x1="1183.358" y1="686.473" x2="1190.105" y2="673.076" />
      <line id="666,671" x1="1175.846" y1="632.326" x2="1181.626" y2="618.484" />
      <line id="682,694" x1="1116.421" y1="579.589" x2="1120.416" y2="565.131" />
      <line id="683,693" x1="1130.879" y1="583.584" x2="1134.874" y2="569.126" />
      <line id="684,692" x1="1145.337" y1="587.579" x2="1149.332" y2="573.121" />
      <line id="746,758" x1="558.022" y1="331.311" x2="555.874" y2="316.466" />
      <line id="747,757" x1="572.867" y1="329.163" x2="570.719" y2="314.318" />
      <line id="748,756" x1="587.713" y1="327.016" x2="585.565" y2="312.170" />
      <line id="749,755" x1="602.558" y1="324.868" x2="600.410" y2="310.022" />
      <line id="750,754" x1="617.403" y1="322.720" x2="615.256" y2="307.875" />
      <line id="770,789" x1="548.962" y1="287.273" x2="544.226" y2="273.040" />
      <line id="771,788" x1="563.195" y1="282.536" x2="558.458" y2="268.304" />
      <line id="772,787" x1="577.427" y1="277.800" x2="572.691" y2="263.567" />
      <line id="773,786" x1="591.660" y1="273.063" x2="586.924" y2="258.831" />
      <line id="774,785" x1="605.893" y1="268.327" x2="601.156" y2="254.094" />
      <line id="775,784" x1="620.125" y1="263.590" x2="615.389" y2="249.358" />
      <line id="810,832" x1="458.925" y1="218.338" x2="450.589" y2="205.868" />
      <line id="811,831" x1="471.396" y1="210.002" x2="463.060" y2="197.532" />
      <line id="812,830" x1="483.866" y1="201.666" x2="475.530" y2="189.196" />
      <line id="813,829" x1="496.336" y1="193.330" x2="488.000" y2="180.860" />
      <line id="814,828" x1="508.807" y1="184.994" x2="500.471" y2="172.524" />
      <line id="815,827" x1="521.277" y1="176.658" x2="512.941" y2="164.188" />
      <line id="816,826" x1="533.747" y1="168.322" x2="525.411" y2="155.852" />
      <line id="871,925" x1="166.024" y1="105.076" x2="152.749" y2="98.092" />
      <line id="872,924" x1="173.008" y1="91.801" x2="159.733" y2="84.817" />
      <line id="873,923" x1="179.992" y1="78.526" x2="166.717" y2="71.542" />
      <line id="875,921" x1="192.343" y1="55.050" x2="179.068" y2="48.065" />
      <line id="876,920" x1="199.327" y1="41.775" x2="186.052" y2="34.791" />
      <line id="942,965" x1="124.134" y1="89.080" x2="109.253" y2="87.196" />
      <line id="943,964" x1="126.018" y1="74.199" x2="111.137" y2="72.315" />
      <line id="944,963" x1="127.902" y1="59.317" x2="113.021" y2="57.433" />
      <line id="945,962" x1="129.786" y1="44.436" x2="114.905" y2="42.552" />
      <line id="946,961" x1="131.670" y1="29.555" x2="116.788" y2="27.671" />
      <line id="947,960" x1="133.553" y1="14.674" x2="118.672" y2="12.790" />
      <line id="948,959" x1="135.437" y1="-0.208" x2="120.556" y2="-2.092" />
      <line id="949,958" x1="137.321" y1="-15.089" x2="122.440" y2="-16.973" />
      <line id="950,957" x1="139.205" y1="-29.970" x2="124.324" y2="-31.854" />
      <line id="951,956" x1="141.089" y1="-44.851" x2="126.208" y2="-46.735" />
    </g>
    <g style="font-family: SansSerif" transform="translate(-4.6, 4)" id="seq">
      <text x="87.486" y="56.660">A</text>
      <text x="87.123" y="71.656">A</text>
      <text x="86.760" y="86.651">A</text>
      <text x="79.262" y="86.469">A</text>
      <text x="78.101" y="71.515">G</text>
      <text x="88.101" y="59.571">A</text>
      <text x="86.710" y="44.421">C</text>
      <text x="75.262" y="34.962">U</text>
      <text x="86.553" y="24.143">U</text>
      <text x="88.197" y="8.592">A</text>
      <text x="79.417" y="-4.349">G</text>
      <text x="64.360" y="-8.568">U</text>
      <text x="50.134" y="-2.075">C</text>
      <text x="43.457" y="12.066">C</text>
      <text x="47.482" y="27.176">U</text>
      <text x="60.307" y="36.123">A</text>
      <text x="50.457" y="47.236">A</text>
      <text x="51.422" y="62.419">C</text>
      <text x="63.146" y="72.676">C</text>
      <text x="64.307" y="87.631">U</text>
      <text x="49.202" y="99.917">U</text>
      <text x="37.342" y="114.293">A</text>
      <text x="28.952" y="129.998">C</text>
      <text x="21.552" y="116.014">C</text>
      <text x="6.663" y="115.613">G</text>
      <text x="-5.941" y="107.480">U</text>
      <text x="-18.544" y="99.346">U</text>
      <text x="-31.147" y="91.212">A</text>
      <text x="-43.750" y="83.079">A</text>
      <text x="-56.354" y="74.945">C</text>
      <text x="-68.957" y="66.811">U</text>
      <text x="-66.790" y="49.739">C</text>
      <text x="-78.301" y="33.172">C</text>
      <text x="-100.799" y="27.678">U</text>
      <text x="-111.866" y="17.552">G</text>
      <text x="-122.933" y="7.427">C</text>
      <text x="-134.000" y="-2.699">U</text>
      <text x="-145.067" y="-12.824">A</text>
      <text x="-156.117" y="-22.967">A</text>
      <text x="-167.151" y="-33.128">A</text>
      <text x="-162.347" y="-42.945">C</text>
      <text x="-162.194" y="-54.944">A</text>
      <text x="-167.598" y="-66.850">U</text>
      <text x="-178.345" y="-76.061">A</text>
      <text x="-193.010" y="-80.193">U</text>
      <text x="-202.973" y="-91.406">A</text>
      <text x="-212.937" y="-102.619">C</text>
      <text x="-216.238" y="-110.997">A</text>
      <text x="-222.951" y="-113.852">U</text>
      <text x="-232.951" y="-125.033">G</text>
      <text x="-242.950" y="-136.213">C</text>
      <text x="-227.983" y="-155.253">A</text>
      <text x="-228.827" y="-184.844">A</text>
      <text x="-251.471" y="-211.646">G</text>
      <text x="-256.913" y="-225.624">U</text>
      <text x="-253.892" y="-241.742">A</text>
      <text x="-266.515" y="-252.211">U</text>
      <text x="-281.797" y="-246.261">C</text>
      <text x="-284.017" y="-230.013">C</text>
      <text x="-270.891" y="-220.181">G</text>
      <text x="-265.449" y="-206.204">C</text>
      <text x="-271.847" y="-202.290">A</text>
      <text x="-279.673" y="-215.087">C</text>
      <text x="-287.499" y="-227.883">C</text>
      <text x="-300.296" y="-220.057">C</text>
      <text x="-292.470" y="-207.261">C</text>
      <text x="-284.644" y="-194.464">A</text>
      <text x="-291.042" y="-190.551">G</text>
      <text x="-301.005" y="-201.764">U</text>
      <text x="-310.969" y="-212.977">G</text>
      <text x="-303.585" y="-219.336">U</text>
      <text x="-297.776" y="-228.133">A</text>
      <text x="-294.302" y="-238.932">A</text>
      <text x="-293.791" y="-251.076">A</text>
      <text x="-296.678" y="-263.718">U</text>
      <text x="-303.153" y="-275.888">G</text>
      <text x="-313.127" y="-286.559">C</text>
      <text x="-326.215" y="-294.730">C</text>
      <text x="-334.531" y="-307.214">C</text>
      <text x="-342.847" y="-319.698">C</text>
      <text x="-336.155" y="-333.451">A</text>
      <text x="-337.238" y="-348.608">G</text>
      <text x="-345.706" y="-361.104">A</text>
      <text x="-359.202" y="-367.640">C</text>
      <text x="-374.057" y="-366.551">U</text>
      <text x="-382.373" y="-379.034">U</text>
      <text x="-376.102" y="-393.130">C</text>
      <text x="-378.469" y="-408.374">U</text>
      <text x="-388.720" y="-419.904">U</text>
      <text x="-403.582" y="-424.039">U</text>
      <text x="-418.315" y="-419.461">U</text>
      <text x="-428.216" y="-407.630">U</text>
      <text x="-430.126" y="-392.322">C</text>
      <text x="-423.436" y="-378.420">U</text>
      <text x="-410.280" y="-370.362">A</text>
      <text x="-394.857" y="-370.719">G</text>
      <text x="-386.541" y="-358.235">G</text>
      <text x="-393.270" y="-344.946">U</text>
      <text x="-392.439" y="-329.974">A</text>
      <text x="-384.170" y="-317.345">A</text>
      <text x="-370.601" y="-310.505">A</text>
      <text x="-355.331" y="-311.382">G</text>
      <text x="-347.015" y="-298.898">G</text>
      <text x="-338.699" y="-286.414">G</text>
      <text x="-344.486" y="-281.644">A</text>
      <text x="-358.536" y="-286.898">G</text>
      <text x="-356.061" y="-272.103">C</text>
      <text x="-361.849" y="-267.333">G</text>
      <text x="-372.515" y="-277.880">G</text>
      <text x="-383.181" y="-288.426">G</text>
      <text x="-393.848" y="-298.973">U</text>
      <text x="-404.497" y="-309.536">A</text>
      <text x="-415.129" y="-320.117">U</text>
      <text x="-408.493" y="-333.727">C</text>
      <text x="-406.638" y="-348.755">A</text>
      <text x="-409.765" y="-363.571">G</text>
      <text x="-417.536" y="-376.567">G</text>
      <text x="-429.107" y="-386.334">C</text>
      <text x="-443.223" y="-391.812">A</text>
      <text x="-458.353" y="-392.407">C</text>
      <text x="-472.856" y="-388.055">A</text>
      <text x="-485.159" y="-379.228">C</text>
      <text x="-493.927" y="-366.882">C</text>
      <text x="-498.209" y="-352.358">C</text>
      <text x="-497.540" y="-337.231">A</text>
      <text x="-491.993" y="-323.142">C</text>
      <text x="-482.171" y="-311.618">U</text>
      <text x="-469.137" y="-303.910">G</text>
      <text x="-454.307" y="-300.855">U</text>
      <text x="-439.288" y="-302.783">U</text>
      <text x="-425.710" y="-309.485">G</text>
      <text x="-415.078" y="-298.904">U</text>
      <text x="-412.584" y="-292.049">A</text>
      <text x="-404.394" y="-288.306">G</text>
      <text x="-393.728" y="-277.760">C</text>
      <text x="-383.062" y="-267.213">C</text>
      <text x="-372.395" y="-256.667">C</text>
      <text x="-377.258" y="-250.957">A</text>
      <text x="-386.984" y="-239.538">A</text>
      <text x="-391.847" y="-233.828">G</text>
      <text x="-394.561" y="-246.352">A</text>
      <text x="-404.723" y="-253.486">C</text>
      <text x="-416.633" y="-251.888">G</text>
      <text x="-428.771" y="-260.701">C</text>
      <text x="-438.036" y="-274.900">C</text>
      <text x="-454.244" y="-269.928">U</text>
      <text x="-453.953" y="-252.976">U</text>
      <text x="-437.584" y="-248.563">G</text>
      <text x="-425.446" y="-239.750">C</text>
      <text x="-419.101" y="-223.331">U</text>
      <text x="-400.699" y="-221.718">U</text>
      <text x="-383.175" y="-199.346">A</text>
      <text x="-359.893" y="-189.379">G</text>
      <text x="-337.756" y="-191.722">C</text>
      <text x="-322.182" y="-203.013">C</text>
      <text x="-312.218" y="-191.801">A</text>
      <text x="-302.255" y="-180.588">C</text>
      <text x="-306.950" y="-174.739">A</text>
      <text x="-321.775" y="-177.023">C</text>
      <text x="-316.340" y="-163.042">C</text>
      <text x="-321.035" y="-157.193">C</text>
      <text x="-334.137" y="-164.497">C</text>
      <text x="-342.080" y="-178.844">C</text>
      <text x="-358.480" y="-178.867">A</text>
      <text x="-366.464" y="-164.543">C</text>
      <text x="-357.820" y="-150.607">G</text>
      <text x="-341.440" y="-151.395">G</text>
      <text x="-328.338" y="-144.091">G</text>
      <text x="-319.842" y="-130.429">C</text>
      <text x="-308.594" y="-120.427">A</text>
      <text x="-295.889" y="-114.496">C</text>
      <text x="-283.026" y="-112.637">U</text>
      <text x="-271.187" y="-114.471">C</text>
      <text x="-261.334" y="-119.304">A</text>
      <text x="-254.131" y="-126.213">G</text>
      <text x="-244.131" y="-115.033">C</text>
      <text x="-234.132" y="-103.852">A</text>
      <text x="-224.150" y="-92.655">G</text>
      <text x="-214.186" y="-81.443">U</text>
      <text x="-204.223" y="-70.230">A</text>
      <text x="-208.187" y="-63.863">A</text>
      <text x="-220.920" y="-71.792">U</text>
      <text x="-233.653" y="-79.722">U</text>
      <text x="-246.386" y="-87.651">A</text>
      <text x="-254.315" y="-74.917">A</text>
      <text x="-241.582" y="-66.989">C</text>
      <text x="-228.849" y="-59.060">A</text>
      <text x="-216.117" y="-51.130">U</text>
      <text x="-220.081" y="-44.764">U</text>
      <text x="-234.539" y="-48.759">A</text>
      <text x="-248.997" y="-52.754">A</text>
      <text x="-263.456" y="-56.750">G</text>
      <text x="-268.182" y="-66.367">C</text>
      <text x="-277.198" y="-71.746">A</text>
      <text x="-287.471" y="-71.353">A</text>
      <text x="-295.694" y="-65.552">U</text>
      <text x="-310.177" y="-69.453">A</text>
      <text x="-324.661" y="-73.355">A</text>
      <text x="-339.145" y="-77.257">G</text>
      <text x="-353.628" y="-81.159">U</text>
      <text x="-364.819" y="-93.146">G</text>
      <text x="-380.733" y="-89.185">A</text>
      <text x="-384.998" y="-73.350">A</text>
      <text x="-373.228" y="-61.931">A</text>
      <text x="-357.530" y="-66.675">A</text>
      <text x="-343.046" y="-62.773">C</text>
      <text x="-328.563" y="-58.871">U</text>
      <text x="-314.079" y="-54.970">U</text>
      <text x="-299.595" y="-51.068">G</text>
      <text x="-286.829" y="-36.450">A</text>
      <text x="-267.451" y="-42.291">C</text>
      <text x="-252.993" y="-38.296">U</text>
      <text x="-238.534" y="-34.301">U</text>
      <text x="-224.076" y="-30.306">A</text>
      <text x="-199.743" y="-14.355">G</text>
      <text x="-177.312" y="-22.094">U</text>
      <text x="-166.278" y="-11.933">U</text>
      <text x="-163.521" y="-5.179">A</text>
      <text x="-155.192" y="-1.757">U</text>
      <text x="-144.125" y="8.368">A</text>
      <text x="-133.058" y="18.494">G</text>
      <text x="-121.991" y="28.619">C</text>
      <text x="-110.925" y="38.745">A</text>
      <text x="-113.407" y="45.822">A</text>
      <text x="-127.562" y="40.856">C</text>
      <text x="-139.489" y="31.760">A</text>
      <text x="-151.825" y="40.292">U</text>
      <text x="-147.523" y="54.662">U</text>
      <text x="-132.527" y="55.010">C</text>
      <text x="-118.373" y="59.976">A</text>
      <text x="-120.856" y="67.053">G</text>
      <text x="-135.823" y="68.045">G</text>
      <text x="-150.790" y="69.037">G</text>
      <text x="-165.757" y="70.029">U</text>
      <text x="-180.724" y="71.021">U</text>
      <text x="-195.710" y="71.675">G</text>
      <text x="-210.707" y="71.990">G</text>
      <text x="-225.704" y="72.305">U</text>
      <text x="-231.163" y="58.163">A</text>
      <text x="-241.131" y="46.744">A</text>
      <text x="-254.406" y="39.426">A</text>
      <text x="-269.384" y="37.092">U</text>
      <text x="-284.256" y="40.025">C</text>
      <text x="-297.226" y="47.870">U</text>
      <text x="-306.729" y="59.680">U</text>
      <text x="-311.616" y="74.029">G</text>
      <text x="-311.298" y="89.184">U</text>
      <text x="-305.813" y="103.315">G</text>
      <text x="-295.823" y="114.716">C</text>
      <text x="-282.535" y="122.010">C</text>
      <text x="-267.553" y="124.316">A</text>
      <text x="-252.686" y="121.356">G</text>
      <text x="-239.730" y="113.487">C</text>
      <text x="-230.250" y="101.659">C</text>
      <text x="-225.389" y="87.301">A</text>
      <text x="-210.392" y="86.987">C</text>
      <text x="-195.395" y="86.672">C</text>
      <text x="-208.940" y="93.117">G</text>
      <text x="-219.000" y="104.244">C</text>
      <text x="-224.052" y="118.367">G</text>
      <text x="-223.331" y="133.350">G</text>
      <text x="-216.947" y="146.924">U</text>
      <text x="-205.865" y="157.033">C</text>
      <text x="-191.765" y="162.148">A</text>
      <text x="-176.779" y="161.495">C</text>
      <text x="-163.177" y="155.172">A</text>
      <text x="-153.017" y="144.136">C</text>
      <text x="-147.839" y="130.058">A</text>
      <text x="-148.425" y="115.070">A</text>
      <text x="-154.687" y="101.439">G</text>
      <text x="-165.677" y="91.231">A</text>
      <text x="-179.732" y="85.989">A</text>
      <text x="-164.765" y="84.997">A</text>
      <text x="-149.798" y="84.004">C</text>
      <text x="-134.831" y="83.012">C</text>
      <text x="-119.864" y="82.020">C</text>
      <text x="-95.090" y="90.324">A</text>
      <text x="-77.091" y="79.415">A</text>
      <text x="-64.487" y="87.548">G</text>
      <text x="-51.884" y="95.682">U</text>
      <text x="-39.281" y="103.816">U</text>
      <text x="-26.678" y="111.949">A</text>
      <text x="-14.074" y="120.083">A</text>
      <text x="-1.471" y="128.217">C</text>
      <text x="5.027" y="141.619">C</text>
      <text x="20.818" y="142.601">G</text>
      <text x="13.999" y="159.234">C</text>
      <text x="10.634" y="176.893">A</text>
      <text x="10.856" y="194.869">A</text>
      <text x="14.658" y="212.439">U</text>
      <text x="21.887" y="228.898">C</text>
      <text x="32.252" y="243.586">C</text>
      <text x="45.337" y="255.912">G</text>
      <text x="37.223" y="268.529">G</text>
      <text x="29.110" y="281.145">C</text>
      <text x="20.997" y="293.762">G</text>
      <text x="17.178" y="289.453">U</text>
      <text x="11.913" y="285.976">A</text>
      <text x="5.403" y="283.714">A</text>
      <text x="-2.060" y="283.002">A</text>
      <text x="-10.106" y="284.105">G</text>
      <text x="-18.300" y="287.197">A</text>
      <text x="-26.166" y="292.356">G</text>
      <text x="-37.001" y="302.729">U</text>
      <text x="-47.837" y="313.102">G</text>
      <text x="-58.672" y="323.475">G</text>
      <text x="-74.561" y="318.687">U</text>
      <text x="-90.595" y="322.580">A</text>
      <text x="-102.384" y="333.989">C</text>
      <text x="-106.750" y="349.706">C</text>
      <text x="-102.582" y="365.378">A</text>
      <text x="-114.891" y="356.725">C</text>
      <text x="-128.648" y="350.641">A</text>
      <text x="-143.322" y="347.359">U</text>
      <text x="-158.349" y="347.003">U</text>
      <text x="-173.153" y="349.585">G</text>
      <text x="-187.164" y="355.004">U</text>
      <text x="-199.844" y="363.049">C</text>
      <text x="-210.708" y="373.411">A</text>
      <text x="-219.338" y="385.689">C</text>
      <text x="-225.405" y="399.411">A</text>
      <text x="-228.678" y="414.048">A</text>
      <text x="-229.032" y="429.037">C</text>
      <text x="-226.455" y="443.803">A</text>
      <text x="-221.049" y="457.778">A</text>
      <text x="-213.022" y="470.425">C</text>
      <text x="-223.891" y="480.763">U</text>
      <text x="-234.760" y="491.101">A</text>
      <text x="-245.628" y="501.438">G</text>
      <text x="-256.497" y="511.776">G</text>
      <text x="-267.366" y="522.114">A</text>
      <text x="-278.234" y="532.452">U</text>
      <text x="-289.103" y="542.790">U</text>
      <text x="-298.070" y="537.160">A</text>
      <text x="-310.229" y="536.414">A</text>
      <text x="-322.791" y="542.126">A</text>
      <text x="-332.296" y="554.282">G</text>
      <text x="-343.683" y="564.045">U</text>
      <text x="-355.071" y="573.808">A</text>
      <text x="-366.459" y="583.571">C</text>
      <text x="-377.847" y="593.334">A</text>
      <text x="-393.360" y="596.442">A</text>
      <text x="-397.987" y="610.599">C</text>
      <text x="-409.375" y="620.362">U</text>
      <text x="-426.853" y="618.733">G</text>
      <text x="-439.804" y="630.074">A</text>
      <text x="-440.469" y="646.935">G</text>
      <text x="-451.889" y="656.661">C</text>
      <text x="-463.308" y="666.387">U</text>
      <text x="-479.040" y="664.876">G</text>
      <text x="-491.179" y="674.996">U</text>
      <text x="-492.524" y="690.743">U</text>
      <text x="-482.277" y="702.775">A</text>
      <text x="-466.516" y="703.953">U</text>
      <text x="-454.594" y="693.579">A</text>
      <text x="-453.582" y="677.807">A</text>
      <text x="-442.163" y="668.081">G</text>
      <text x="-430.743" y="658.355">C</text>
      <text x="-418.246" y="661.171">C</text>
      <text x="-406.213" y="656.238">C</text>
      <text x="-399.080" y="645.132">A</text>
      <text x="-399.612" y="631.750">A</text>
      <text x="-388.224" y="621.987">G</text>
      <text x="-373.526" y="619.578">A</text>
      <text x="-368.085" y="604.722">U</text>
      <text x="-356.697" y="594.959">G</text>
      <text x="-345.309" y="585.196">U</text>
      <text x="-333.921" y="575.433">A</text>
      <text x="-322.533" y="565.670">C</text>
      <text x="-317.098" y="570.839">C</text>
      <text x="-327.436" y="581.708">U</text>
      <text x="-337.774" y="592.577">A</text>
      <text x="-348.112" y="603.445">A</text>
      <text x="-358.450" y="614.314">A</text>
      <text x="-368.788" y="625.183">G</text>
      <text x="-357.919" y="635.520">C</text>
      <text x="-347.581" y="624.652">C</text>
      <text x="-337.243" y="613.783">A</text>
      <text x="-326.905" y="602.915">C</text>
      <text x="-316.568" y="592.046">C</text>
      <text x="-306.230" y="581.177">C</text>
      <text x="-300.795" y="586.346">U</text>
      <text x="-316.169" y="592.054">U</text>
      <text x="-318.645" y="608.266">A</text>
      <text x="-305.676" y="618.303">A</text>
      <text x="-290.604" y="611.841">G</text>
      <text x="-288.933" y="595.527">A</text>
      <text x="-272.791" y="573.852">C</text>
      <text x="-278.765" y="553.659">G</text>
      <text x="-267.896" y="543.321">A</text>
      <text x="-257.028" y="532.983">U</text>
      <text x="-246.159" y="522.645">C</text>
      <text x="-235.290" y="512.307">C</text>
      <text x="-224.422" y="501.969">U</text>
      <text x="-213.553" y="491.631">A</text>
      <text x="-202.684" y="481.293">G</text>
      <text x="-190.454" y="489.942">C</text>
      <text x="-176.768" y="496.041">A</text>
      <text x="-162.150" y="499.353">A</text>
      <text x="-147.161" y="499.750">C</text>
      <text x="-132.379" y="497.214">U</text>
      <text x="-118.371" y="491.840">A</text>
      <text x="-105.676" y="483.835">U</text>
      <text x="-94.784" y="473.503">G</text>
      <text x="-86.114" y="461.241">A</text>
      <text x="-80.001" y="447.519">C</text>
      <text x="-76.682" y="432.863">U</text>
      <text x="-76.286" y="417.836">A</text>
      <text x="-78.829" y="403.017">A</text>
      <text x="-84.218" y="388.973">U</text>
      <text x="-92.245" y="376.247">U</text>
      <text x="-79.497" y="380.954">A</text>
      <text x="-65.897" y="379.730">A</text>
      <text x="-54.081" y="372.756">A</text>
      <text x="-46.363" y="361.332">C</text>
      <text x="-44.283" y="347.636">C</text>
      <text x="-48.299" y="334.310">C</text>
      <text x="-37.464" y="323.937">C</text>
      <text x="-26.629" y="313.564">A</text>
      <text x="-15.793" y="303.191">C</text>
      <text x="-9.345" y="307.021">G</text>
      <text x="-17.005" y="319.918">A</text>
      <text x="-4.108" y="327.578">A</text>
      <text x="3.552" y="314.681">A</text>
      <text x="10.000" y="318.511">G</text>
      <text x="6.075" y="332.989">C</text>
      <text x="2.150" y="347.466">C</text>
      <text x="-1.776" y="361.943">A</text>
      <text x="-5.701" y="376.421">A</text>
      <text x="-9.626" y="390.898">G</text>
      <text x="-13.143" y="394.410">G</text>
      <text x="-14.872" y="398.497">C</text>
      <text x="-14.881" y="402.412">A</text>
      <text x="-13.518" y="405.535">C</text>
      <text x="-17.303" y="420.049">A</text>
      <text x="-31.599" y="425.789">A</text>
      <text x="-39.679" y="438.695">A</text>
      <text x="-38.623" y="453.706">C</text>
      <text x="-29.045" y="465.081">U</text>
      <text x="-32.830" y="479.596">G</text>
      <text x="-36.615" y="494.111">G</text>
      <text x="-40.399" y="508.625">G</text>
      <text x="-55.094" y="513.324">A</text>
      <text x="-64.898" y="525.235">U</text>
      <text x="-66.683" y="540.559">U</text>
      <text x="-59.880" y="554.405">A</text>
      <text x="-46.659" y="562.356">G</text>
      <text x="-31.239" y="561.873">A</text>
      <text x="-18.541" y="553.112">U</text>
      <text x="-12.616" y="538.868">A</text>
      <text x="-15.355" y="523.686">C</text>
      <text x="-25.885" y="512.410">C</text>
      <text x="-22.100" y="497.896">C</text>
      <text x="-18.315" y="483.381">C</text>
      <text x="-14.531" y="468.866">A</text>
      <text x="-0.617" y="463.616">C</text>
      <text x="7.634" y="451.032">U</text>
      <text x="6.885" y="435.823">A</text>
      <text x="-2.788" y="423.834">U</text>
      <text x="0.996" y="409.319">G</text>
      <text x="4.851" y="394.823">C</text>
      <text x="8.777" y="380.346">U</text>
      <text x="12.702" y="365.869">U</text>
      <text x="16.627" y="351.391">G</text>
      <text x="20.552" y="336.914">G</text>
      <text x="24.477" y="322.437">C</text>
      <text x="21.546" y="337.147">C</text>
      <text x="21.250" y="352.145">C</text>
      <text x="23.599" y="366.959">U</text>
      <text x="28.520" y="381.129">A</text>
      <text x="35.859" y="394.212">A</text>
      <text x="45.386" y="405.797">A</text>
      <text x="56.804" y="415.525">U</text>
      <text x="69.757" y="423.091">C</text>
      <text x="83.839" y="428.258">U</text>
      <text x="98.610" y="430.865">U</text>
      <text x="113.610" y="430.830">G</text>
      <text x="128.370" y="428.156">G</text>
      <text x="142.428" y="422.925">U</text>
      <text x="155.346" y="415.300">A</text>
      <text x="166.719" y="405.520">C</text>
      <text x="176.194" y="393.891">U</text>
      <text x="183.472" y="380.776">U</text>
      <text x="188.328" y="366.583">A</text>
      <text x="190.610" y="351.758">C</text>
      <text x="190.246" y="336.762">C</text>
      <text x="187.248" y="322.065">C</text>
      <text x="181.708" y="308.125">U</text>
      <text x="173.802" y="295.378">A</text>
      <text x="163.774" y="284.223">C</text>
      <text x="151.939" y="275.007">U</text>
      <text x="138.667" y="268.018">A</text>
      <text x="124.371" y="263.475">A</text>
      <text x="109.499" y="261.520">A</text>
      <text x="94.515" y="262.214">G</text>
      <text x="79.888" y="265.535">U</text>
      <text x="66.073" y="271.379">A</text>
      <text x="53.503" y="279.564">C</text>
      <text x="42.571" y="289.834">C</text>
      <text x="33.613" y="301.875">C</text>
      <text x="41.727" y="289.259">G</text>
      <text x="49.840" y="276.642">C</text>
      <text x="57.953" y="264.026">C</text>
      <text x="84.010" y="273.053">C</text>
      <text x="111.577" y="273.739">G</text>
      <text x="114.749" y="288.400">A</text>
      <text x="117.921" y="303.060">G</text>
      <text x="107.679" y="310.693">A</text>
      <text x="101.071" y="321.569">A</text>
      <text x="99.030" y="334.084">C</text>
      <text x="101.822" y="346.406">U</text>
      <text x="109.003" y="356.744">A</text>
      <text x="119.498" y="363.609">C</text>
      <text x="131.757" y="366.028">G</text>
      <text x="135.024" y="380.668">A</text>
      <text x="138.291" y="395.308">G</text>
      <text x="141.558" y="409.948">C</text>
      <text x="132.874" y="423.153">A</text>
      <text x="136.153" y="438.613">C</text>
      <text x="149.449" y="447.157">A</text>
      <text x="164.874" y="443.715">A</text>
      <text x="173.276" y="430.329">A</text>
      <text x="169.671" y="414.941">C</text>
      <text x="156.197" y="406.681">G</text>
      <text x="152.930" y="392.041">C</text>
      <text x="149.664" y="377.401">U</text>
      <text x="146.397" y="362.761">U</text>
      <text x="159.536" y="351.476">A</text>
      <text x="165.105" y="334.980">A</text>
      <text x="161.458" y="317.864">A</text>
      <text x="149.526" y="304.939">A</text>
      <text x="132.582" y="299.888">C</text>
      <text x="129.410" y="285.227">U</text>
      <text x="126.237" y="270.567">C</text>
      <text x="135.542" y="267.148">U</text>
      <text x="144.413" y="262.724">A</text>
      <text x="152.742" y="257.348">A</text>
      <text x="160.426" y="251.087">G</text>
      <text x="167.373" y="244.015">G</text>
      <text x="173.498" y="236.220">A</text>
      <text x="178.725" y="227.798">C</text>
      <text x="182.991" y="218.850">U</text>
      <text x="186.243" y="209.486">U</text>
      <text x="200.958" y="212.397">G</text>
      <text x="215.668" y="215.332">G</text>
      <text x="230.373" y="218.291">C</text>
      <text x="238.051" y="222.996">G</text>
      <text x="245.131" y="221.236">G</text>
      <text x="259.846" y="224.148">U</text>
      <text x="274.560" y="227.059">G</text>
      <text x="289.275" y="229.971">C</text>
      <text x="303.990" y="232.882">C</text>
      <text x="316.026" y="243.151">C</text>
      <text x="330.013" y="238.031">C</text>
      <text x="344.727" y="240.943">A</text>
      <text x="346.946" y="261.832">A</text>
      <text x="356.159" y="280.689">A</text>
      <text x="371.244" y="295.250">C</text>
      <text x="390.378" y="303.773">C</text>
      <text x="411.252" y="305.245">C</text>
      <text x="431.354" y="299.504">A</text>
      <text x="448.269" y="287.252">C</text>
      <text x="459.970" y="269.976">C</text>
      <text x="474.306" y="274.390">U</text>
      <text x="488.642" y="278.803">A</text>
      <text x="502.978" y="283.217">G</text>
      <text x="517.314" y="287.630">A</text>
      <text x="502.258" y="310.633">G</text>
      <text x="509.947" y="345.734">G</text>
      <text x="545.998" y="374.167">A</text>
      <text x="559.284" y="381.130">G</text>
      <text x="572.570" y="388.093">C</text>
      <text x="585.857" y="395.055">C</text>
      <text x="599.143" y="402.018">U</text>
      <text x="612.429" y="408.980">G</text>
      <text x="625.715" y="415.943">U</text>
      <text x="639.001" y="422.906">U</text>
      <text x="652.276" y="429.890">C</text>
      <text x="665.540" y="436.895">U</text>
      <text x="662.775" y="446.412">G</text>
      <text x="664.695" y="457.534">U</text>
      <text x="672.007" y="467.895">A</text>
      <text x="684.236" y="474.893">A</text>
      <text x="693.569" y="486.635">U</text>
      <text x="702.903" y="498.378">C</text>
      <text x="712.236" y="510.120">G</text>
      <text x="707.954" y="525.035">A</text>
      <text x="713.288" y="539.607">U</text>
      <text x="726.188" y="548.232">A</text>
      <text x="741.691" y="547.594">A</text>
      <text x="753.839" y="537.939">C</text>
      <text x="757.959" y="522.979">C</text>
      <text x="752.467" y="508.466">C</text>
      <text x="739.475" y="499.981">A</text>
      <text x="723.979" y="500.787">C</text>
      <text x="714.645" y="489.044">G</text>
      <text x="705.312" y="477.302">A</text>
      <text x="695.979" y="465.559">U</text>
      <text x="700.521" y="459.591">A</text>
      <text x="712.457" y="468.676">C</text>
      <text x="724.393" y="477.761">A</text>
      <text x="736.329" y="486.846">C</text>
      <text x="745.413" y="474.910">C</text>
      <text x="733.478" y="465.825">C</text>
      <text x="721.542" y="456.741">A</text>
      <text x="709.606" y="447.656">A</text>
      <text x="714.148" y="441.688">C</text>
      <text x="727.953" y="447.556">C</text>
      <text x="741.757" y="453.425">G</text>
      <text x="751.430" y="465.945">C</text>
      <text x="766.170" y="463.804">C</text>
      <text x="779.974" y="469.672">C</text>
      <text x="793.779" y="475.541">C</text>
      <text x="792.977" y="484.601">U</text>
      <text x="794.274" y="493.590">U</text>
      <text x="797.593" y="502.028">G</text>
      <text x="802.751" y="509.469">C</text>
      <text x="809.469" y="515.518">C</text>
      <text x="817.383" y="519.858">A</text>
      <text x="826.069" y="522.263">A</text>
      <text x="835.060" y="522.611">A</text>
      <text x="843.879" y="520.889">G</text>
      <text x="852.054" y="517.196">C</text>
      <text x="859.153" y="511.734">A</text>
      <text x="864.800" y="504.800">G</text>
      <text x="878.734" y="510.356">C</text>
      <text x="885.441" y="516.364">C</text>
      <text x="892.721" y="515.906">U</text>
      <text x="906.673" y="521.416">A</text>
      <text x="910.940" y="526.196">C</text>
      <text x="916.183" y="527.936">A</text>
      <text x="920.732" y="526.917">U</text>
      <text x="934.718" y="532.337">A</text>
      <text x="948.705" y="537.757">C</text>
      <text x="962.691" y="543.177">C</text>
      <text x="976.652" y="548.664">G</text>
      <text x="990.585" y="554.219">C</text>
      <text x="1004.518" y="559.775">C</text>
      <text x="1018.443" y="565.352">G</text>
      <text x="1032.358" y="570.952">U</text>
      <text x="1046.274" y="576.552">C</text>
      <text x="1045.122" y="591.745">G</text>
      <text x="1051.003" y="606.808">C</text>
      <text x="1063.502" y="618.485">C</text>
      <text x="1080.710" y="623.905">A</text>
      <text x="1099.500" y="621.246">G</text>
      <text x="1113.046" y="627.688">C</text>
      <text x="1126.592" y="634.131">U</text>
      <text x="1124.615" y="645.949">C</text>
      <text x="1129.108" y="658.739">A</text>
      <text x="1140.326" y="668.912">C</text>
      <text x="1156.565" y="672.979">C</text>
      <text x="1169.961" y="679.726">U</text>
      <text x="1183.358" y="686.473">C</text>
      <text x="1188.074" y="701.557">A</text>
      <text x="1202.113" y="708.815">C</text>
      <text x="1217.147" y="703.940">U</text>
      <text x="1224.256" y="689.825">U</text>
      <text x="1219.222" y="674.844">G</text>
      <text x="1205.033" y="667.885">A</text>
      <text x="1190.105" y="673.076">G</text>
      <text x="1176.709" y="666.329">A</text>
      <text x="1163.312" y="659.582">G</text>
      <text x="1166.445" y="652.768">C</text>
      <text x="1172.713" y="639.140">C</text>
      <text x="1175.846" y="632.326">C</text>
      <text x="1185.357" y="645.685">A</text>
      <text x="1201.654" y="643.859">A</text>
      <text x="1207.973" y="628.726">C</text>
      <text x="1197.812" y="615.854">A</text>
      <text x="1181.626" y="618.484">G</text>
      <text x="1163.164" y="607.431">U</text>
      <text x="1144.533" y="609.471">G</text>
      <text x="1133.035" y="620.585">A</text>
      <text x="1119.489" y="614.142">G</text>
      <text x="1105.943" y="607.700">C</text>
      <text x="1108.563" y="600.672">A</text>
      <text x="1122.618" y="605.911">C</text>
      <text x="1137.410" y="603.420">A</text>
      <text x="1127.857" y="591.855">A</text>
      <text x="1113.801" y="586.617">C</text>
      <text x="1116.421" y="579.589">A</text>
      <text x="1130.879" y="583.584">G</text>
      <text x="1145.337" y="587.579">C</text>
      <text x="1151.670" y="601.877">U</text>
      <text x="1165.735" y="608.713">A</text>
      <text x="1180.890" y="604.859">C</text>
      <text x="1189.980" y="592.134">C</text>
      <text x="1188.713" y="576.548">C</text>
      <text x="1177.687" y="565.459">C</text>
      <text x="1162.108" y="564.104">C</text>
      <text x="1149.332" y="573.121">G</text>
      <text x="1134.874" y="569.126">C</text>
      <text x="1120.416" y="565.131">U</text>
      <text x="1110.653" y="553.021">A</text>
      <text x="1097.778" y="545.487">G</text>
      <text x="1083.692" y="543.125">C</text>
      <text x="1070.312" y="545.804">A</text>
      <text x="1059.302" y="552.738">A</text>
      <text x="1051.874" y="562.637">G</text>
      <text x="1037.958" y="557.037">A</text>
      <text x="1024.043" y="551.437">C</text>
      <text x="1019.074" y="546.095">A</text>
      <text x="1010.074" y="545.841">G</text>
      <text x="996.140" y="540.286">G</text>
      <text x="982.207" y="534.731">U</text>
      <text x="980.499" y="531.782">C</text>
      <text x="977.341" y="529.469">A</text>
      <text x="973.024" y="528.438">A</text>
      <text x="968.111" y="529.190">G</text>
      <text x="954.125" y="523.770">G</text>
      <text x="940.138" y="518.350">U</text>
      <text x="926.152" y="512.930">A</text>
      <text x="912.183" y="507.465">U</text>
      <text x="898.231" y="501.955">A</text>
      <text x="884.289" y="496.422">G</text>
      <text x="870.356" y="490.867">C</text>
      <text x="868.635" y="470.016">C</text>
      <text x="856.284" y="453.034">U</text>
      <text x="836.834" y="444.914">A</text>
      <text x="815.920" y="448.098">U</text>
      <text x="799.647" y="461.737">G</text>
      <text x="785.843" y="455.868">G</text>
      <text x="772.039" y="449.999">G</text>
      <text x="763.353" y="437.899">U</text>
      <text x="747.626" y="439.621">C</text>
      <text x="733.821" y="433.752">G</text>
      <text x="720.017" y="427.883">G</text>
      <text x="693.696" y="412.115">A</text>
      <text x="672.545" y="423.631">A</text>
      <text x="659.282" y="416.626">G</text>
      <text x="654.890" y="410.800">A</text>
      <text x="645.964" y="409.619">A</text>
      <text x="632.678" y="402.657">A</text>
      <text x="619.391" y="395.694">U</text>
      <text x="606.105" y="388.732">G</text>
      <text x="592.819" y="381.769">G</text>
      <text x="579.533" y="374.806">G</text>
      <text x="566.247" y="367.844">C</text>
      <text x="552.961" y="360.881">U</text>
      <text x="554.226" y="353.489">A</text>
      <text x="569.011" y="356.019">C</text>
      <text x="583.080" y="350.818">A</text>
      <text x="571.541" y="341.234">U</text>
      <text x="556.756" y="338.704">U</text>
      <text x="558.022" y="331.311">U</text>
      <text x="572.867" y="329.163">U</text>
      <text x="587.713" y="327.016">C</text>
      <text x="602.558" y="324.868">U</text>
      <text x="617.403" y="322.720">A</text>
      <text x="633.945" y="326.436">A</text>
      <text x="642.095" y="311.570">A</text>
      <text x="630.066" y="299.623">A</text>
      <text x="615.256" y="307.875">U</text>
      <text x="600.410" y="310.022">A</text>
      <text x="585.565" y="312.170">G</text>
      <text x="570.719" y="314.318">A</text>
      <text x="555.874" y="316.466">A</text>
      <text x="554.146" y="309.167">A</text>
      <text x="568.742" y="305.712">A</text>
      <text x="583.339" y="302.256">C</text>
      <text x="597.935" y="298.800">U</text>
      <text x="612.532" y="295.344">U</text>
      <text x="623.445" y="285.054">A</text>
      <text x="609.076" y="280.748">C</text>
      <text x="594.480" y="284.204">G</text>
      <text x="579.883" y="287.659">A</text>
      <text x="565.287" y="291.115">A</text>
      <text x="550.690" y="294.571">A</text>
      <text x="548.962" y="287.273">A</text>
      <text x="563.195" y="282.536">G</text>
      <text x="577.427" y="277.800">G</text>
      <text x="591.660" y="273.063">G</text>
      <text x="605.893" y="268.327">G</text>
      <text x="620.125" y="263.590">C</text>
      <text x="632.664" y="272.731">A</text>
      <text x="648.181" y="272.722">U</text>
      <text x="660.710" y="263.566">G</text>
      <text x="665.432" y="248.785">A</text>
      <text x="660.532" y="234.062">A</text>
      <text x="647.895" y="225.058">A</text>
      <text x="632.378" y="225.236">C</text>
      <text x="619.950" y="234.526">A</text>
      <text x="615.389" y="249.358">G</text>
      <text x="601.156" y="254.094">C</text>
      <text x="586.924" y="258.831">C</text>
      <text x="572.691" y="263.567">C</text>
      <text x="558.458" y="268.304">C</text>
      <text x="544.226" y="273.040">U</text>
      <text x="556.223" y="264.036">A</text>
      <text x="562.410" y="250.372">G</text>
      <text x="561.261" y="235.416">A</text>
      <text x="553.060" y="222.856">A</text>
      <text x="539.828" y="215.790">G</text>
      <text x="524.829" y="215.960">G</text>
      <text x="511.761" y="223.324">C</text>
      <text x="503.846" y="236.066">G</text>
      <text x="503.036" y="251.044">G</text>
      <text x="509.531" y="264.565">A</text>
      <text x="521.727" y="273.294">U</text>
      <text x="507.391" y="268.881">U</text>
      <text x="493.055" y="264.467">U</text>
      <text x="478.719" y="260.054">A</text>
      <text x="464.383" y="255.640">G</text>
      <text x="465.151" y="249.298">C</text>
      <text x="465.241" y="242.911">A</text>
      <text x="464.654" y="236.550">G</text>
      <text x="463.394" y="230.288">U</text>
      <text x="461.478" y="224.194">A</text>
      <text x="458.925" y="218.338">A</text>
      <text x="471.396" y="210.002">A</text>
      <text x="483.866" y="201.666">G</text>
      <text x="496.336" y="193.330">G</text>
      <text x="508.807" y="184.994">G</text>
      <text x="521.277" y="176.658">G</text>
      <text x="533.747" y="168.322">G</text>
      <text x="547.853" y="174.571">A</text>
      <text x="563.094" y="172.179">U</text>
      <text x="574.607" y="161.910">A</text>
      <text x="578.718" y="147.040">A</text>
      <text x="574.116" y="132.315">U</text>
      <text x="562.269" y="122.433">A</text>
      <text x="546.957" y="120.548">A</text>
      <text x="533.067" y="127.260">A</text>
      <text x="525.030" y="140.429">G</text>
      <text x="525.411" y="155.852">C</text>
      <text x="512.941" y="164.188">C</text>
      <text x="500.471" y="172.524">C</text>
      <text x="488.000" y="180.860">C</text>
      <text x="475.530" y="189.196">C</text>
      <text x="463.060" y="197.532">U</text>
      <text x="450.589" y="205.868">U</text>
      <text x="443.032" y="198.506">U</text>
      <text x="434.298" y="192.574">A</text>
      <text x="424.656" y="188.256">A</text>
      <text x="414.402" y="185.688">A</text>
      <text x="403.849" y="184.952">C</text>
      <text x="393.324" y="186.071">U</text>
      <text x="383.150" y="189.015">G</text>
      <text x="373.640" y="193.694">G</text>
      <text x="365.089" y="199.967">C</text>
      <text x="357.761" y="207.643">C</text>
      <text x="351.883" y="216.487">C</text>
      <text x="347.639" y="226.228">U</text>
      <text x="332.924" y="223.316">G</text>
      <text x="321.941" y="213.256">A</text>
      <text x="306.901" y="218.167">G</text>
      <text x="292.187" y="215.256">G</text>
      <text x="277.472" y="212.344">C</text>
      <text x="262.757" y="209.433">A</text>
      <text x="248.042" y="206.521">C</text>
      <text x="233.332" y="203.586">G</text>
      <text x="218.627" y="200.627">U</text>
      <text x="212.765" y="196.285">A</text>
      <text x="203.870" y="197.682">C</text>
      <text x="189.155" y="194.771">A</text>
      <text x="190.538" y="188.907">U</text>
      <text x="191.532" y="182.905">A</text>
      <text x="192.124" y="176.789">C</text>
      <text x="192.304" y="170.587">C</text>
      <text x="192.064" y="164.327">G</text>
      <text x="191.395" y="158.038">C</text>
      <text x="190.294" y="151.750">C</text>
      <text x="188.758" y="145.491">C</text>
      <text x="186.786" y="139.293">G</text>
      <text x="184.379" y="133.185">U</text>
      <text x="181.541" y="127.199">C</text>
      <text x="178.278" y="121.365">A</text>
      <text x="174.596" y="115.714">C</text>
      <text x="170.508" y="110.274">C</text>
      <text x="166.024" y="105.076">C</text>
      <text x="173.008" y="91.801">U</text>
      <text x="179.992" y="78.526">C</text>
      <text x="193.264" y="69.916">C</text>
      <text x="192.343" y="55.050">U</text>
      <text x="199.327" y="41.775">C</text>
      <text x="213.467" y="46.853">A</text>
      <text x="228.177" y="49.914">C</text>
      <text x="243.170" y="50.898">A</text>
      <text x="258.153" y="49.786">A</text>
      <text x="272.836" y="46.599">G</text>
      <text x="286.933" y="41.400">C</text>
      <text x="300.169" y="34.289">U</text>
      <text x="312.286" y="25.405">A</text>
      <text x="323.049" y="14.922">C</text>
      <text x="332.248" y="3.042">C</text>
      <text x="339.704" y="-10.002">A</text>
      <text x="345.272" y="-23.957">A</text>
      <text x="348.844" y="-38.551">A</text>
      <text x="350.350" y="-53.500">C</text>
      <text x="349.760" y="-68.514">C</text>
      <text x="347.087" y="-83.299">A</text>
      <text x="342.382" y="-97.568">U</text>
      <text x="335.737" y="-111.043">C</text>
      <text x="327.281" y="-123.463">A</text>
      <text x="317.178" y="-134.584">U</text>
      <text x="305.627" y="-144.192">A</text>
      <text x="292.850" y="-152.098">A</text>
      <text x="279.098" y="-158.149">C</text>
      <text x="264.637" y="-162.227">U</text>
      <text x="249.749" y="-164.253">A</text>
      <text x="234.724" y="-164.187">A</text>
      <text x="219.855" y="-162.030">U</text>
      <text x="205.431" y="-157.825">A</text>
      <text x="191.732" y="-151.653">C</text>
      <text x="179.025" y="-143.635">C</text>
      <text x="167.559" y="-133.927">C</text>
      <text x="157.554" y="-122.717">C</text>
      <text x="149.208" y="-110.223">C</text>
      <text x="142.681" y="-96.690">A</text>
      <text x="138.102" y="-82.380">C</text>
      <text x="135.559" y="-67.572">C</text>
      <text x="135.101" y="-52.554">A</text>
      <text x="136.738" y="-37.619">G</text>
      <text x="140.438" y="-23.057">C</text>
      <text x="146.129" y="-9.151">C</text>
      <text x="153.699" y="3.827">G</text>
      <text x="163.002" y="15.625">A</text>
      <text x="173.857" y="26.014">A</text>
      <text x="186.052" y="34.791">G</text>
      <text x="179.068" y="48.065">A</text>
      <text x="166.295" y="55.727">U</text>
      <text x="166.717" y="71.542">G</text>
      <text x="159.733" y="84.817">A</text>
      <text x="152.749" y="98.092">G</text>
      <text x="145.595" y="95.839">G</text>
      <text x="150.101" y="81.532">U</text>
      <text x="154.607" y="67.225">A</text>
      <text x="159.113" y="52.917">A</text>
      <text x="163.619" y="38.610">G</text>
      <text x="168.126" y="24.303">U</text>
      <text x="172.632" y="9.996">C</text>
      <text x="177.137" y="-4.311">G</text>
      <text x="162.830" y="-8.817">U</text>
      <text x="158.324" y="5.490">A</text>
      <text x="153.818" y="19.797">A</text>
      <text x="149.312" y="34.104">C</text>
      <text x="144.806" y="48.411">A</text>
      <text x="140.300" y="62.718">A</text>
      <text x="135.794" y="77.026">G</text>
      <text x="131.288" y="91.333">G</text>
      <text x="124.134" y="89.080">U</text>
      <text x="126.018" y="74.199">A</text>
      <text x="127.902" y="59.317">A</text>
      <text x="129.786" y="44.436">G</text>
      <text x="131.670" y="29.555">U</text>
      <text x="133.553" y="14.674">G</text>
      <text x="135.437" y="-0.208">U</text>
      <text x="137.321" y="-15.089">A</text>
      <text x="139.205" y="-29.970">C</text>
      <text x="141.089" y="-44.851">C</text>
      <text x="151.433" y="-57.577">G</text>
      <text x="145.332" y="-72.799">G</text>
      <text x="129.063" y="-74.859">A</text>
      <text x="119.361" y="-61.637">A</text>
      <text x="126.208" y="-46.735">G</text>
      <text x="124.324" y="-31.854">G</text>
      <text x="122.440" y="-16.973">U</text>
      <text x="120.556" y="-2.092">G</text>
      <text x="118.672" y="12.790">C</text>
      <text x="116.788" y="27.671">A</text>
      <text x="114.905" y="42.552">C</text>
      <text x="113.021" y="57.433">U</text>
      <text x="111.137" y="72.315">U</text>
      <text x="109.253" y="87.196">A</text>
      <text x="101.755" y="87.014">G</text>
      <text x="102.118" y="72.019">C</text>
      <text x="102.482" y="57.023">A</text>
      <text x="102.845" y="42.027">C</text>
      <text x="103.208" y="27.032">A</text>
      <text x="96.025" y="13.864">U</text>
      <text x="88.212" y="26.669">A</text>
    </g>
  </g>
</svg>
