<?xml version="1.0" encoding="UTF-8" standalone="yes"?>
<svg xmlns="http://www.w3.org/2000/svg" height="452" width="452">
<script type="text/ecmascript">
      <![CDATA[
        var shown = 1;
        function click() {
             var seq = document.getElementById("seq");
             if (shown==1) {
               seq.setAttribute("style", "visibility: hidden");
               shown = 0;
             } else {
               seq.setAttribute("style", "visibility: visible");
               shown = 1;
             }
         }
        ]]>
</script>
  <rect style="stroke: white; fill: white" height="452" x="0" y="0" width="452" onclick="click(evt)" />
  <g transform="scale(1.626071,1.626071) translate(25.700653,30.203613)">
    <polyline style="stroke: black; fill: none; stroke-width: 1.5" id="outline" points="
      112.164,-6.737
      111.491,8.248
      110.818,23.233
      110.145,38.218
      109.472,53.203
      108.799,68.188
      108.126,83.173
      92.018,84.946
      79.209,93.472
      72.157,106.223
      57.292,104.210
      42.428,102.196
      27.564,100.183
      16.740,88.341
      0.744,89.564
      -8.154,102.913
      -3.128,118.148
      11.966,123.583
      25.550,115.047
      40.415,117.060
      55.279,119.074
      70.143,121.087
      74.909,134.126
      85.025,143.633
      81.034,158.092
      77.044,172.551
      65.914,183.796
      69.987,198.123
      55.691,204.460
      48.860,218.527
      52.719,233.681
      65.446,242.767
      81.032,241.495
      92.117,230.465
      93.468,214.886
      84.446,202.113
      95.290,191.903
      91.503,176.542
      95.494,162.083
      99.484,147.623
      110.578,146.829
      120.992,141.945
      129.225,133.376
      133.985,122.074
      134.391,109.437
      149.376,108.764
      164.361,108.091
      178.494,115.201
      190.861,106.901
      201.306,118.539
      216.795,120.689
      230.015,112.335
      234.723,97.424
      228.697,82.994
      214.782,75.859
      199.548,79.389
      190.188,91.916
      177.127,84.758
      163.688,93.106
      148.703,93.779
      133.718,94.452
      123.111,83.846
      123.784,68.861
      124.457,53.876
      125.130,38.891
      125.803,23.906
      126.476,8.921
      127.149,-6.064
      130.202,-25.204
    " />
    <g style="stroke: black; stroke-width: 1" id="pairs">
      <line id="1,68" x1="112.164" y1="-6.737" x2="127.149" y2="-6.064" />
      <line id="2,67" x1="111.491" y1=" 8.248" x2="126.476" y2=" 8.921" />
      <line id="3,66" x1="110.818" y1="23.233" x2="125.803" y2="23.906" />
      <line id="4,65" x1="110.145" y1="38.218" x2="125.130" y2="38.891" />
      <line id="5,64" x1="109.472" y1="53.203" x2="124.457" y2="53.876" />
      <line id="6,63" x1="108.799" y1="68.188" x2="123.784" y2="68.861" />
      <line id="7,62" x1="108.126" y1="83.173" x2="123.111" y2="83.846" />
      <line id="10,22" x1="72.157" y1="106.223" x2="70.143" y2="121.087" />
      <line id="11,21" x1="57.292" y1="104.210" x2="55.279" y2="119.074" />
      <line id="12,20" x1="42.428" y1="102.196" x2="40.415" y2="117.060" />
      <line id="13,19" x1="27.564" y1="100.183" x2="25.550" y2="115.047" />
      <line id="24,40" x1="85.025" y1="143.633" x2="99.484" y2="147.623" />
      <line id="25,39" x1="81.034" y1="158.092" x2="95.494" y2="162.083" />
      <line id="26,38" x1="77.044" y1="172.551" x2="91.503" y2="176.542" />
      <line id="28,36" x1="69.987" y1="198.123" x2="84.446" y2="202.113" />
      <line id="45,61" x1="134.391" y1="109.437" x2="133.718" y2="94.452" />
      <line id="46,60" x1="149.376" y1="108.764" x2="148.703" y2="93.779" />
      <line id="47,59" x1="164.361" y1="108.091" x2="163.688" y2="93.106" />
      <line id="49,57" x1="190.861" y1="106.901" x2="190.188" y2="91.916" />
    </g>
    <g style="font-family: SansSerif" transform="translate(-4.6, 4)" id="seq">
      <text x="112.164" y="-6.737">G</text>
      <text x="111.491" y="8.248">A</text>
      <text x="110.818" y="23.233">G</text>
      <text x="110.145" y="38.218">A</text>
      <text x="109.472" y="53.203">U</text>
      <text x="108.799" y="68.188">G</text>
      <text x="108.126" y="83.173">U</text>
      <text x="92.018" y="84.946">U</text>
      <text x="79.209" y="93.472">A</text>
      <text x="72.157" y="106.223">G</text>
      <text x="57.292" y="104.210">U</text>
      <text x="42.428" y="102.196">A</text>
      <text x="27.564" y="100.183">A</text>
      <text x="16.740" y="88.341">A</text>
      <text x="0.744" y="89.564">C</text>
      <text x="-8.154" y="102.913">C</text>
      <text x="-3.128" y="118.148">A</text>
      <text x="11.966" y="123.583">A</text>
      <text x="25.550" y="115.047">U</text>
      <text x="40.415" y="117.060">U</text>
      <text x="55.279" y="119.074">A</text>
      <text x="70.143" y="121.087">C</text>
      <text x="74.909" y="134.126">G</text>
      <text x="85.025" y="143.633">U</text>
      <text x="81.034" y="158.092">A</text>
      <text x="77.044" y="172.551">G</text>
      <text x="65.914" y="183.796">C</text>
      <text x="69.987" y="198.123">C</text>
      <text x="55.691" y="204.460">U</text>
      <text x="48.860" y="218.527">U</text>
      <text x="52.719" y="233.681">G</text>
      <text x="65.446" y="242.767">U</text>
      <text x="81.032" y="241.495">C</text>
      <text x="92.117" y="230.465">A</text>
      <text x="93.468" y="214.886">A</text>
      <text x="84.446" y="202.113">G</text>
      <text x="95.290" y="191.903">A</text>
      <text x="91.503" y="176.542">C</text>
      <text x="95.494" y="162.083">U</text>
      <text x="99.484" y="147.623">A</text>
      <text x="110.578" y="146.829">A</text>
      <text x="120.992" y="141.945">A</text>
      <text x="129.225" y="133.376">U</text>
      <text x="133.985" y="122.074">C</text>
      <text x="134.391" y="109.437">A</text>
      <text x="149.376" y="108.764">C</text>
      <text x="164.361" y="108.091">A</text>
      <text x="178.494" y="115.201">A</text>
      <text x="190.861" y="106.901">G</text>
      <text x="201.306" y="118.539">U</text>
      <text x="216.795" y="120.689">G</text>
      <text x="230.015" y="112.335">A</text>
      <text x="234.723" y="97.424">A</text>
      <text x="228.697" y="82.994">A</text>
      <text x="214.782" y="75.859">A</text>
      <text x="199.548" y="79.389">C</text>
      <text x="190.188" y="91.916">C</text>
      <text x="177.127" y="84.758">C</text>
      <text x="163.688" y="93.106">U</text>
      <text x="148.703" y="93.779">G</text>
      <text x="133.718" y="94.452">U</text>
      <text x="123.111" y="83.846">A</text>
      <text x="123.784" y="68.861">C</text>
      <text x="124.457" y="53.876">A</text>
      <text x="125.130" y="38.891">U</text>
      <text x="125.803" y="23.906">C</text>
      <text x="126.476" y="8.921">U</text>
      <text x="127.149" y="-6.064">C</text>
      <text x="130.202" y="-25.204">A</text>
    </g>
  </g>
</svg>
