<?xml version="1.0" encoding="UTF-8" standalone="yes"?>
<svg xmlns="http://www.w3.org/2000/svg" height="452" width="452">
<script type="text/ecmascript">
      <![CDATA[
        var shown = 1;
        function click() {
             var seq = document.getElementById("seq");
             if (shown==1) {
               seq.setAttribute("style", "visibility: hidden");
               shown = 0;
             } else {
               seq.setAttribute("style", "visibility: visible");
               shown = 1;
             }
         }
        ]]>
</script>
  <rect style="stroke: white; fill: white" height="452" x="0" y="0" width="452" onclick="click(evt)" />
  <g transform="scale(1.573909,1.573909) translate(40.788513,38.383057)">
    <polyline style="stroke: black; fill: none; stroke-width: 1.5" id="outline" points="
      110.656,-14.916
      109.983,0.069
      109.310,15.054
      108.637,30.038
      107.964,45.023
      107.291,60.008
      106.618,74.993
      89.787,77.748
      76.954,87.614
      70.687,101.593
      55.703,100.920
      40.718,100.247
      25.733,99.574
      16.373,87.047
      1.139,83.517
      -12.776,90.652
      -18.802,105.082
      -14.094,119.994
      -0.874,128.347
      14.615,126.197
      25.060,114.559
      40.045,115.232
      55.030,115.905
      70.014,116.578
      76.947,130.558
      89.870,139.304
      88.525,154.244
      87.181,169.183
      85.836,184.123
      84.491,199.063
      71.557,207.851
      67.347,222.911
      73.850,237.133
      87.995,243.800
      103.103,239.765
      112.041,226.934
      110.588,211.364
      99.431,200.407
      100.776,185.468
      102.120,170.528
      103.465,155.588
      104.809,140.649
      115.064,138.305
      124.252,132.474
      131.186,123.622
      134.882,112.619
      134.688,100.650
      149.402,106.465
      160.975,97.090
      175.840,95.076
      190.704,93.063
      204.288,101.598
      219.382,96.164
      224.409,80.928
      215.510,67.579
      199.514,66.356
      188.690,78.198
      173.826,80.212
      158.962,82.225
      145.311,76.266
      132.675,85.786
      121.603,75.666
      122.276,60.681
      122.949,45.696
      123.622,30.711
      124.295,15.727
      124.968,0.742
      125.641,-14.243
      128.693,-33.383
    " />
    <g style="stroke: black; stroke-width: 1" id="pairs">
      <line id="1,68" x1="110.656" y1="-14.916" x2="125.641" y2="-14.243" />
      <line id="2,67" x1="109.983" y1=" 0.069" x2="124.968" y2=" 0.742" />
      <line id="3,66" x1="109.310" y1="15.054" x2="124.295" y2="15.727" />
      <line id="4,65" x1="108.637" y1="30.038" x2="123.622" y2="30.711" />
      <line id="5,64" x1="107.964" y1="45.023" x2="122.949" y2="45.696" />
      <line id="6,63" x1="107.291" y1="60.008" x2="122.276" y2="60.681" />
      <line id="7,62" x1="106.618" y1="74.993" x2="121.603" y2="75.666" />
      <line id="10,24" x1="70.687" y1="101.593" x2="70.014" y2="116.578" />
      <line id="11,23" x1="55.703" y1="100.920" x2="55.030" y2="115.905" />
      <line id="12,22" x1="40.718" y1="100.247" x2="40.045" y2="115.232" />
      <line id="13,21" x1="25.733" y1="99.574" x2="25.060" y2="114.559" />
      <line id="26,42" x1="89.870" y1="139.304" x2="104.809" y2="140.649" />
      <line id="27,41" x1="88.525" y1="154.244" x2="103.465" y2="155.588" />
      <line id="28,40" x1="87.181" y1="169.183" x2="102.120" y2="170.528" />
      <line id="29,39" x1="85.836" y1="184.123" x2="100.776" y2="185.468" />
      <line id="30,38" x1="84.491" y1="199.063" x2="99.431" y2="200.407" />
      <line id="47,61" x1="134.688" y1="100.650" x2="132.675" y2="85.786" />
      <line id="49,59" x1="160.975" y1="97.090" x2="158.962" y2="82.225" />
      <line id="50,58" x1="175.840" y1="95.076" x2="173.826" y2="80.212" />
      <line id="51,57" x1="190.704" y1="93.063" x2="188.690" y2="78.198" />
    </g>
    <g style="font-family: SansSerif" transform="translate(-4.6, 4)" id="seq">
      <text x="110.656" y="-14.916">G</text>
      <text x="109.983" y="0.069">U</text>
      <text x="109.310" y="15.054">C</text>
      <text x="108.637" y="30.038">C</text>
      <text x="107.964" y="45.023">U</text>
      <text x="107.291" y="60.008">U</text>
      <text x="106.618" y="74.993">G</text>
      <text x="89.787" y="77.748">U</text>
      <text x="76.954" y="87.614">A</text>
      <text x="70.687" y="101.593">G</text>
      <text x="55.703" y="100.920">C</text>
      <text x="40.718" y="100.247">U</text>
      <text x="25.733" y="99.574">U</text>
      <text x="16.373" y="87.047">A</text>
      <text x="1.139" y="83.517">C</text>
      <text x="-12.776" y="90.652">A</text>
      <text x="-18.802" y="105.082">A</text>
      <text x="-14.094" y="119.994">C</text>
      <text x="-0.874" y="128.347">U</text>
      <text x="14.615" y="126.197">A</text>
      <text x="25.060" y="114.559">A</text>
      <text x="40.045" y="115.232">A</text>
      <text x="55.030" y="115.905">G</text>
      <text x="70.014" y="116.578">C</text>
      <text x="76.947" y="130.558">A</text>
      <text x="89.870" y="139.304">U</text>
      <text x="88.525" y="154.244">G</text>
      <text x="87.181" y="169.183">G</text>
      <text x="85.836" y="184.123">C</text>
      <text x="84.491" y="199.063">A</text>
      <text x="71.557" y="207.851">C</text>
      <text x="67.347" y="222.911">U</text>
      <text x="73.850" y="237.133">G</text>
      <text x="87.995" y="243.800">A</text>
      <text x="103.103" y="239.765">A</text>
      <text x="112.041" y="226.934">G</text>
      <text x="110.588" y="211.364">A</text>
      <text x="99.431" y="200.407">U</text>
      <text x="100.776" y="185.468">G</text>
      <text x="102.120" y="170.528">C</text>
      <text x="103.465" y="155.588">C</text>
      <text x="104.809" y="140.649">A</text>
      <text x="115.064" y="138.305">A</text>
      <text x="124.252" y="132.474">G</text>
      <text x="131.186" y="123.622">A</text>
      <text x="134.882" y="112.619">C</text>
      <text x="134.688" y="100.650">G</text>
      <text x="149.402" y="106.465">C</text>
      <text x="160.975" y="97.090">U</text>
      <text x="175.840" y="95.076">G</text>
      <text x="190.704" y="93.063">C</text>
      <text x="204.288" y="101.598">C</text>
      <text x="219.382" y="96.164">A</text>
      <text x="224.409" y="80.928">U</text>
      <text x="215.510" y="67.579">A</text>
      <text x="199.514" y="66.356">C</text>
      <text x="188.690" y="78.198">G</text>
      <text x="173.826" y="80.212">C</text>
      <text x="158.962" y="82.225">A</text>
      <text x="145.311" y="76.266">C</text>
      <text x="132.675" y="85.786">C</text>
      <text x="121.603" y="75.666">C</text>
      <text x="122.276" y="60.681">G</text>
      <text x="122.949" y="45.696">A</text>
      <text x="123.622" y="30.711">G</text>
      <text x="124.295" y="15.727">G</text>
      <text x="124.968" y="0.742">A</text>
      <text x="125.641" y="-14.243">C</text>
      <text x="128.693" y="-33.383">A</text>
    </g>
  </g>
</svg>
