<?xml version="1.0" encoding="UTF-8" standalone="yes"?>
<svg xmlns="http://www.w3.org/2000/svg" height="452" width="452">
<script type="text/ecmascript">
      <![CDATA[
        var shown = 1;
        function click() {
             var seq = document.getElementById("seq");
             if (shown==1) {
               seq.setAttribute("style", "visibility: hidden");
               shown = 0;
             } else {
               seq.setAttribute("style", "visibility: visible");
               shown = 1;
             }
         }
        ]]>
</script>
  <rect style="stroke: white; fill: white" height="452" x="0" y="0" width="452" onclick="click(evt)" />
  <g transform="scale(1.603693,1.603693) translate(23.525597,33.245270)">
    <polyline style="stroke: black; fill: none; stroke-width: 1.5" id="outline" points="
      112.198,-9.745
      111.553,5.241
      110.908,20.227
      110.262,35.213
      109.617,50.199
      108.972,65.185
      108.326,80.171
      91.918,81.891
      78.777,90.481
      71.416,103.435
      56.586,101.184
      41.756,98.933
      34.742,85.092
      20.916,78.046
      5.595,80.506
      -5.330,91.525
      -7.658,106.867
      -0.494,120.631
      13.407,127.526
      28.700,124.900
      39.505,113.763
      54.335,116.014
      69.165,118.265
      73.750,131.796
      83.922,141.830
      79.471,156.155
      75.020,170.479
      70.570,184.804
      66.119,199.128
      51.628,205.005
      44.351,218.847
      47.723,234.116
      60.154,243.604
      75.772,242.831
      87.204,232.161
      89.052,216.633
      80.443,203.579
      84.894,189.254
      89.345,174.930
      93.795,160.605
      98.246,146.281
      108.089,146.150
      117.659,142.882
      125.956,136.641
      132.060,127.913
      135.232,117.464
      135.000,106.277
      149.969,105.310
      164.938,104.342
      179.906,103.375
      194.875,102.407
      204.683,114.432
      219.694,118.362
      234.136,112.688
      242.456,99.590
      241.455,84.105
      231.518,72.188
      216.465,68.420
      202.085,74.251
      193.908,87.438
      178.939,88.406
      163.970,89.373
      149.001,90.341
      134.033,91.309
      123.312,80.817
      123.958,65.831
      124.603,50.845
      125.248,35.858
      125.894,20.872
      126.539,5.886
      127.184,-9.100
      130.202,-28.245
    " />
    <g style="stroke: black; stroke-width: 1" id="pairs">
      <line id="1,71" x1="112.198" y1="-9.745" x2="127.184" y2="-9.100" />
      <line id="2,70" x1="111.553" y1=" 5.241" x2="126.539" y2=" 5.886" />
      <line id="3,69" x1="110.908" y1="20.227" x2="125.894" y2="20.872" />
      <line id="4,68" x1="110.262" y1="35.213" x2="125.248" y2="35.858" />
      <line id="5,67" x1="109.617" y1="50.199" x2="124.603" y2="50.845" />
      <line id="6,66" x1="108.972" y1="65.185" x2="123.958" y2="65.831" />
      <line id="7,65" x1="108.326" y1="80.171" x2="123.312" y2="80.817" />
      <line id="10,23" x1="71.416" y1="103.435" x2="69.165" y2="118.265" />
      <line id="11,22" x1="56.586" y1="101.184" x2="54.335" y2="116.014" />
      <line id="12,21" x1="41.756" y1="98.933" x2="39.505" y2="113.763" />
      <line id="25,41" x1="83.922" y1="141.830" x2="98.246" y2="146.281" />
      <line id="26,40" x1="79.471" y1="156.155" x2="93.795" y2="160.605" />
      <line id="27,39" x1="75.020" y1="170.479" x2="89.345" y2="174.930" />
      <line id="28,38" x1="70.570" y1="184.804" x2="84.894" y2="189.254" />
      <line id="29,37" x1="66.119" y1="199.128" x2="80.443" y2="203.579" />
      <line id="47,64" x1="135.000" y1="106.277" x2="134.033" y2="91.309" />
      <line id="48,63" x1="149.969" y1="105.310" x2="149.001" y2="90.341" />
      <line id="49,62" x1="164.938" y1="104.342" x2="163.970" y2="89.373" />
      <line id="50,61" x1="179.906" y1="103.375" x2="178.939" y2="88.406" />
      <line id="51,60" x1="194.875" y1="102.407" x2="193.908" y2="87.438" />
    </g>
    <g style="font-family: SansSerif" transform="translate(-4.6, 4)" id="seq">
      <text x="112.198" y="-9.745">C</text>
      <text x="111.553" y="5.241">A</text>
      <text x="110.908" y="20.227">U</text>
      <text x="110.262" y="35.213">U</text>
      <text x="109.617" y="50.199">A</text>
      <text x="108.972" y="65.185">A</text>
      <text x="108.326" y="80.171">G</text>
      <text x="91.918" y="81.891">A</text>
      <text x="78.777" y="90.481">A</text>
      <text x="71.416" y="103.435">G</text>
      <text x="56.586" y="101.184">C</text>
      <text x="41.756" y="98.933">U</text>
      <text x="34.742" y="85.092">A</text>
      <text x="20.916" y="78.046">U</text>
      <text x="5.595" y="80.506">G</text>
      <text x="-5.330" y="91.525">C</text>
      <text x="-7.658" y="106.867">A</text>
      <text x="-0.494" y="120.631">A</text>
      <text x="13.407" y="127.526">A</text>
      <text x="28.700" y="124.900">C</text>
      <text x="39.505" y="113.763">A</text>
      <text x="54.335" y="116.014">G</text>
      <text x="69.165" y="118.265">C</text>
      <text x="73.750" y="131.796">A</text>
      <text x="83.922" y="141.830">C</text>
      <text x="79.471" y="156.155">U</text>
      <text x="75.020" y="170.479">A</text>
      <text x="70.570" y="184.804">G</text>
      <text x="66.119" y="199.128">C</text>
      <text x="51.628" y="205.005">C</text>
      <text x="44.351" y="218.847">U</text>
      <text x="47.723" y="234.116">U</text>
      <text x="60.154" y="243.604">U</text>
      <text x="75.772" y="242.831">U</text>
      <text x="87.204" y="232.161">A</text>
      <text x="89.052" y="216.633">A</text>
      <text x="80.443" y="203.579">G</text>
      <text x="84.894" y="189.254">C</text>
      <text x="89.345" y="174.930">U</text>
      <text x="93.795" y="160.605">A</text>
      <text x="98.246" y="146.281">G</text>
      <text x="108.089" y="146.150">A</text>
      <text x="117.659" y="142.882">G</text>
      <text x="125.956" y="136.641">A</text>
      <text x="132.060" y="127.913">U</text>
      <text x="135.232" y="117.464">A</text>
      <text x="135.000" y="106.277">G</text>
      <text x="149.969" y="105.310">A</text>
      <text x="164.938" y="104.342">G</text>
      <text x="179.906" y="103.375">G</text>
      <text x="194.875" y="102.407">A</text>
      <text x="204.683" y="114.432">C</text>
      <text x="219.694" y="118.362">C</text>
      <text x="234.136" y="112.688">A</text>
      <text x="242.456" y="99.590">U</text>
      <text x="241.455" y="84.105">C</text>
      <text x="231.518" y="72.188">C</text>
      <text x="216.465" y="68.420">A</text>
      <text x="202.085" y="74.251">C</text>
      <text x="193.908" y="87.438">U</text>
      <text x="178.939" y="88.406">C</text>
      <text x="163.970" y="89.373">C</text>
      <text x="149.001" y="90.341">U</text>
      <text x="134.033" y="91.309">C</text>
      <text x="123.312" y="80.817">C</text>
      <text x="123.958" y="65.831">U</text>
      <text x="124.603" y="50.845">U</text>
      <text x="125.248" y="35.858">A</text>
      <text x="125.894" y="20.872">A</text>
      <text x="126.539" y="5.886">U</text>
      <text x="127.184" y="-9.100">G</text>
      <text x="130.202" y="-28.245">A</text>
    </g>
  </g>
</svg>
