<?xml version="1.0" encoding="UTF-8" standalone="yes"?>
<svg xmlns="http://www.w3.org/2000/svg" height="452" width="452">
<script type="text/ecmascript">
      <![CDATA[
        var shown = 1;
        function click() {
             var seq = document.getElementById("seq");
             if (shown==1) {
               seq.setAttribute("style", "visibility: hidden");
               shown = 0;
             } else {
               seq.setAttribute("style", "visibility: visible");
               shown = 1;
             }
         }
        ]]>
</script>
  <rect style="stroke: white; fill: white" height="452" x="0" y="0" width="452" onclick="click(evt)" />
  <g transform="scale(1.648254,1.648254) translate(27.734184,24.224892)">
    <polyline style="stroke: black; fill: none; stroke-width: 1.5" id="outline" points="
      112.969,-0.736
      112.315,14.250
      111.660,29.236
      111.006,44.222
      110.352,59.207
      109.698,74.193
      109.043,89.179
      90.881,90.921
      76.478,100.730
      68.954,115.535
      54.011,114.228
      39.068,112.920
      24.125,111.613
      15.305,98.700
      0.234,94.528
      -13.971,101.067
      -20.603,115.228
      -16.531,130.326
      -3.677,139.232
      11.889,137.741
      22.818,126.556
      37.761,127.863
      52.704,129.171
      67.647,130.478
      71.068,141.004
      77.806,149.785
      87.088,155.815
      84.484,170.587
      81.879,185.359
      79.274,200.131
      65.642,207.793
      60.172,222.443
      65.448,237.164
      78.977,245.005
      94.373,242.264
      104.365,230.235
      104.236,214.598
      94.046,202.736
      96.651,187.964
      99.256,173.192
      101.860,158.420
      111.713,157.195
      120.982,152.992
      128.768,146.058
      134.270,136.910
      136.863,126.299
      136.172,115.149
      151.115,113.841
      166.058,112.534
      181.001,111.227
      195.943,109.919
      206.872,121.104
      222.438,122.596
      235.292,113.690
      239.365,98.592
      232.732,84.430
      218.527,77.892
      203.457,82.064
      194.636,94.976
      179.693,96.284
      164.750,97.591
      149.807,98.898
      134.864,100.206
      124.029,89.833
      124.683,74.847
      125.338,59.862
      125.992,44.876
      126.646,29.890
      127.300,14.904
      127.955,-0.081
      130.983,-19.225
    " />
    <g style="stroke: black; stroke-width: 1" id="pairs">
      <line id="1,70" x1="112.969" y1="-0.736" x2="127.955" y2="-0.081" />
      <line id="2,69" x1="112.315" y1="14.250" x2="127.300" y2="14.904" />
      <line id="3,68" x1="111.660" y1="29.236" x2="126.646" y2="29.890" />
      <line id="4,67" x1="111.006" y1="44.222" x2="125.992" y2="44.876" />
      <line id="5,66" x1="110.352" y1="59.207" x2="125.338" y2="59.862" />
      <line id="6,65" x1="109.698" y1="74.193" x2="124.683" y2="74.847" />
      <line id="7,64" x1="109.043" y1="89.179" x2="124.029" y2="89.833" />
      <line id="10,24" x1="68.954" y1="115.535" x2="67.647" y2="130.478" />
      <line id="11,23" x1="54.011" y1="114.228" x2="52.704" y2="129.171" />
      <line id="12,22" x1="39.068" y1="112.920" x2="37.761" y2="127.863" />
      <line id="13,21" x1="24.125" y1="111.613" x2="22.818" y2="126.556" />
      <line id="27,41" x1="87.088" y1="155.815" x2="101.860" y2="158.420" />
      <line id="28,40" x1="84.484" y1="170.587" x2="99.256" y2="173.192" />
      <line id="29,39" x1="81.879" y1="185.359" x2="96.651" y2="187.964" />
      <line id="30,38" x1="79.274" y1="200.131" x2="94.046" y2="202.736" />
      <line id="47,63" x1="136.172" y1="115.149" x2="134.864" y2="100.206" />
      <line id="48,62" x1="151.115" y1="113.841" x2="149.807" y2="98.898" />
      <line id="49,61" x1="166.058" y1="112.534" x2="164.750" y2="97.591" />
      <line id="50,60" x1="181.001" y1="111.227" x2="179.693" y2="96.284" />
      <line id="51,59" x1="195.943" y1="109.919" x2="194.636" y2="94.976" />
    </g>
    <g style="font-family: SansSerif" transform="translate(-4.6, 4)" id="seq">
      <text x="112.969" y="-0.736">A</text>
      <text x="112.315" y="14.250">C</text>
      <text x="111.660" y="29.236">U</text>
      <text x="111.006" y="44.222">U</text>
      <text x="110.352" y="59.207">U</text>
      <text x="109.698" y="74.193">U</text>
      <text x="109.043" y="89.179">A</text>
      <text x="90.881" y="90.921">A</text>
      <text x="76.478" y="100.730">A</text>
      <text x="68.954" y="115.535">G</text>
      <text x="54.011" y="114.228">G</text>
      <text x="39.068" y="112.920">A</text>
      <text x="24.125" y="111.613">U</text>
      <text x="15.305" y="98.700">A</text>
      <text x="0.234" y="94.528">A</text>
      <text x="-13.971" y="101.067">C</text>
      <text x="-20.603" y="115.228">A</text>
      <text x="-16.531" y="130.326">G</text>
      <text x="-3.677" y="139.232">C</text>
      <text x="11.889" y="137.741">A</text>
      <text x="22.818" y="126.556">A</text>
      <text x="37.761" y="127.863">U</text>
      <text x="52.704" y="129.171">C</text>
      <text x="67.647" y="130.478">C</text>
      <text x="71.068" y="141.004">A</text>
      <text x="77.806" y="149.785">C</text>
      <text x="87.088" y="155.815">U</text>
      <text x="84.484" y="170.587">G</text>
      <text x="81.879" y="185.359">G</text>
      <text x="79.274" y="200.131">U</text>
      <text x="65.642" y="207.793">C</text>
      <text x="60.172" y="222.443">U</text>
      <text x="65.448" y="237.164">U</text>
      <text x="78.977" y="245.005">A</text>
      <text x="94.373" y="242.264">G</text>
      <text x="104.365" y="230.235">G</text>
      <text x="104.236" y="214.598">A</text>
      <text x="94.046" y="202.736">G</text>
      <text x="96.651" y="187.964">C</text>
      <text x="99.256" y="173.192">C</text>
      <text x="101.860" y="158.420">A</text>
      <text x="111.713" y="157.195">C</text>
      <text x="120.982" y="152.992">U</text>
      <text x="128.768" y="146.058">C</text>
      <text x="134.270" y="136.910">A</text>
      <text x="136.863" y="126.299">U</text>
      <text x="136.172" y="115.149">C</text>
      <text x="151.115" y="113.841">U</text>
      <text x="166.058" y="112.534">U</text>
      <text x="181.001" y="111.227">G</text>
      <text x="195.943" y="109.919">G</text>
      <text x="206.872" y="121.104">U</text>
      <text x="222.438" y="122.596">G</text>
      <text x="235.292" y="113.690">C</text>
      <text x="239.365" y="98.592">A</text>
      <text x="232.732" y="84.430">A</text>
      <text x="218.527" y="77.892">A</text>
      <text x="203.457" y="82.064">U</text>
      <text x="194.636" y="94.976">C</text>
      <text x="179.693" y="96.284">C</text>
      <text x="164.750" y="97.591">A</text>
      <text x="149.807" y="98.898">A</text>
      <text x="134.864" y="100.206">G</text>
      <text x="124.029" y="89.833">U</text>
      <text x="124.683" y="74.847">A</text>
      <text x="125.338" y="59.862">A</text>
      <text x="125.992" y="44.876">A</text>
      <text x="126.646" y="29.890">A</text>
      <text x="127.300" y="14.904">G</text>
      <text x="127.955" y="-0.081">U</text>
      <text x="130.983" y="-19.225">A</text>
    </g>
  </g>
</svg>
