<?xml version="1.0" encoding="UTF-8" standalone="yes"?>
<svg xmlns="http://www.w3.org/2000/svg" height="452" width="452">
<script type="text/ecmascript">
      <![CDATA[
        var shown = 1;
        function click() {
             var seq = document.getElementById("seq");
             if (shown==1) {
               seq.setAttribute("style", "visibility: hidden");
               shown = 0;
             } else {
               seq.setAttribute("style", "visibility: visible");
               shown = 1;
             }
         }
        ]]>
</script>
  <rect style="stroke: white; fill: white" height="452" x="0" y="0" width="452" onclick="click(evt)" />
  <g transform="scale(1.729913,1.729913) translate(0.298615,26.062592)">
    <polyline style="stroke: black; fill: none; stroke-width: 1.5" id="outline" points="
      97.737,-2.632
      97.034,12.351
      96.331,27.335
      95.628,42.318
      94.925,57.302
      94.222,72.286
      85.664,74.698
      77.920,79.067
      71.429,85.143
      66.559,92.583
      52.055,88.757
      42.770,75.674
      26.744,74.921
      16.272,87.075
      19.387,102.813
      33.699,110.062
      48.230,103.261
      62.734,107.087
      65.601,123.645
      75.442,137.267
      68.044,150.315
      60.646,163.364
      53.248,176.412
      37.839,177.164
      25.295,186.146
      19.621,200.492
      22.625,215.624
      33.350,226.713
      48.373,230.222
      62.900,225.030
      72.296,212.795
      73.563,197.419
      66.296,183.811
      73.694,170.762
      81.093,157.714
      88.491,144.665
      100.331,146.482
      112.136,144.456
      122.692,138.793
      130.910,130.079
      135.945,119.211
      150.908,120.265
      165.871,121.319
      180.834,122.373
      195.797,123.427
      203.898,136.661
      218.244,142.575
      233.319,138.895
      243.325,127.035
      244.415,111.556
      236.171,98.410
      221.761,92.652
      206.728,96.497
      196.851,108.464
      181.888,107.410
      166.925,106.356
      151.962,105.302
      136.999,104.248
      127.893,84.359
      109.206,72.989
      109.909,58.005
      110.612,43.022
      111.315,28.038
      112.018,13.055
      112.721,-1.929
      115.812,-21.063
    " />
    <g style="stroke: black; stroke-width: 1" id="pairs">
      <line id="1,65" x1="97.737" y1="-2.632" x2="112.721" y2="-1.929" />
      <line id="2,64" x1="97.034" y1="12.351" x2="112.018" y2="13.055" />
      <line id="3,63" x1="96.331" y1="27.335" x2="111.315" y2="28.038" />
      <line id="4,62" x1="95.628" y1="42.318" x2="110.612" y2="43.022" />
      <line id="5,61" x1="94.925" y1="57.302" x2="109.909" y2="58.005" />
      <line id="6,60" x1="94.222" y1="72.286" x2="109.206" y2="72.989" />
      <line id="10,18" x1="66.559" y1="92.583" x2="62.734" y2="107.087" />
      <line id="11,17" x1="52.055" y1="88.757" x2="48.230" y2="103.261" />
      <line id="20,36" x1="75.442" y1="137.267" x2="88.491" y2="144.665" />
      <line id="21,35" x1="68.044" y1="150.315" x2="81.093" y2="157.714" />
      <line id="22,34" x1="60.646" y1="163.364" x2="73.694" y2="170.762" />
      <line id="23,33" x1="53.248" y1="176.412" x2="66.296" y2="183.811" />
      <line id="41,58" x1="135.945" y1="119.211" x2="136.999" y2="104.248" />
      <line id="42,57" x1="150.908" y1="120.265" x2="151.962" y2="105.302" />
      <line id="43,56" x1="165.871" y1="121.319" x2="166.925" y2="106.356" />
      <line id="44,55" x1="180.834" y1="122.373" x2="181.888" y2="107.410" />
      <line id="45,54" x1="195.797" y1="123.427" x2="196.851" y2="108.464" />
    </g>
    <g style="font-family: SansSerif" transform="translate(-4.6, 4)" id="seq">
      <text x="97.737" y="-2.632">G</text>
      <text x="97.034" y="12.351">A</text>
      <text x="96.331" y="27.335">G</text>
      <text x="95.628" y="42.318">G</text>
      <text x="94.925" y="57.302">G</text>
      <text x="94.222" y="72.286">G</text>
      <text x="85.664" y="74.698">A</text>
      <text x="77.920" y="79.067">G</text>
      <text x="71.429" y="85.143">G</text>
      <text x="66.559" y="92.583">U</text>
      <text x="52.055" y="88.757">U</text>
      <text x="42.770" y="75.674">A</text>
      <text x="26.744" y="74.921">A</text>
      <text x="16.272" y="87.075">A</text>
      <text x="19.387" y="102.813">C</text>
      <text x="33.699" y="110.062">C</text>
      <text x="48.230" y="103.261">A</text>
      <text x="62.734" y="107.087">A</text>
      <text x="65.601" y="123.645">C</text>
      <text x="75.442" y="137.267">A</text>
      <text x="68.044" y="150.315">A</text>
      <text x="60.646" y="163.364">G</text>
      <text x="53.248" y="176.412">A</text>
      <text x="37.839" y="177.164">A</text>
      <text x="25.295" y="186.146">C</text>
      <text x="19.621" y="200.492">U</text>
      <text x="22.625" y="215.624">G</text>
      <text x="33.350" y="226.713">C</text>
      <text x="48.373" y="230.222">U</text>
      <text x="62.900" y="225.030">A</text>
      <text x="72.296" y="212.795">A</text>
      <text x="73.563" y="197.419">C</text>
      <text x="66.296" y="183.811">U</text>
      <text x="73.694" y="170.762">C</text>
      <text x="81.093" y="157.714">U</text>
      <text x="88.491" y="144.665">U</text>
      <text x="100.331" y="146.482">G</text>
      <text x="112.136" y="144.456">C</text>
      <text x="122.692" y="138.793">A</text>
      <text x="130.910" y="130.079">U</text>
      <text x="135.945" y="119.211">C</text>
      <text x="150.908" y="120.265">U</text>
      <text x="165.871" y="121.319">G</text>
      <text x="180.834" y="122.373">A</text>
      <text x="195.797" y="123.427">G</text>
      <text x="203.898" y="136.661">C</text>
      <text x="218.244" y="142.575">C</text>
      <text x="233.319" y="138.895">U</text>
      <text x="243.325" y="127.035">A</text>
      <text x="244.415" y="111.556">A</text>
      <text x="236.171" y="98.410">A</text>
      <text x="221.761" y="92.652">A</text>
      <text x="206.728" y="96.497">C</text>
      <text x="196.851" y="108.464">C</text>
      <text x="181.888" y="107.410">U</text>
      <text x="166.925" y="106.356">C</text>
      <text x="151.962" y="105.302">A</text>
      <text x="136.999" y="104.248">G</text>
      <text x="127.893" y="84.359">C</text>
      <text x="109.206" y="72.989">C</text>
      <text x="109.909" y="58.005">C</text>
      <text x="110.612" y="43.022">C</text>
      <text x="111.315" y="28.038">C</text>
      <text x="112.018" y="13.055">U</text>
      <text x="112.721" y="-1.929">U</text>
      <text x="115.812" y="-21.063">A</text>
    </g>
  </g>
</svg>
