<?xml version="1.0" encoding="UTF-8" standalone="yes"?>
<svg xmlns="http://www.w3.org/2000/svg" height="452" width="452">
<script type="text/ecmascript">
      <![CDATA[
        var shown = 1;
        function click() {
             var seq = document.getElementById("seq");
             if (shown==1) {
               seq.setAttribute("style", "visibility: hidden");
               shown = 0;
             } else {
               seq.setAttribute("style", "visibility: visible");
               shown = 1;
             }
         }
        ]]>
</script>
  <rect style="stroke: white; fill: white" height="452" x="0" y="0" width="452" onclick="click(evt)" />
  <g transform="scale(1.593625,1.593625) translate(30.064499,34.699486)">
    <polyline style="stroke: black; fill: none; stroke-width: 1.5" id="outline" points="
      112.027,-11.233
      111.354,3.752
      110.681,18.737
      110.008,33.722
      109.335,48.707
      108.662,63.692
      107.989,78.677
      91.398,80.614
      78.217,89.496
      70.976,102.731
      56.112,100.718
      41.248,98.704
      26.383,96.691
      15.560,84.849
      -0.437,86.071
      -9.335,99.421
      -4.309,114.656
      10.786,120.090
      24.370,111.555
      39.234,113.568
      54.098,115.582
      68.963,117.595
      73.945,131.430
      84.708,141.449
      80.717,155.908
      76.727,170.368
      72.736,184.827
      68.746,199.286
      54.450,205.624
      47.619,219.691
      51.478,234.845
      64.205,243.931
      79.791,242.658
      90.876,231.629
      92.227,216.050
      83.205,203.277
      87.196,188.818
      91.186,174.358
      95.177,159.899
      99.167,145.439
      108.988,145.036
      118.459,141.537
      126.605,135.127
      132.534,126.300
      135.535,115.819
      135.160,104.655
      150.100,103.311
      165.039,101.966
      179.979,100.621
      194.919,99.277
      206.889,109.597
      222.643,108.346
      232.836,96.268
      231.419,80.527
      219.234,70.463
      203.509,72.046
      193.574,84.337
      178.634,85.682
      163.695,87.026
      148.755,88.371
      133.816,89.716
      122.974,79.350
      123.647,64.365
      124.320,49.380
      124.993,34.395
      125.666,19.410
      126.339,4.425
      127.011,-10.560
      130.064,-29.699
    " />
    <g style="stroke: black; stroke-width: 1" id="pairs">
      <line id="1,68" x1="112.027" y1="-11.233" x2="127.011" y2="-10.560" />
      <line id="2,67" x1="111.354" y1=" 3.752" x2="126.339" y2=" 4.425" />
      <line id="3,66" x1="110.681" y1="18.737" x2="125.666" y2="19.410" />
      <line id="4,65" x1="110.008" y1="33.722" x2="124.993" y2="34.395" />
      <line id="5,64" x1="109.335" y1="48.707" x2="124.320" y2="49.380" />
      <line id="6,63" x1="108.662" y1="63.692" x2="123.647" y2="64.365" />
      <line id="7,62" x1="107.989" y1="78.677" x2="122.974" y2="79.350" />
      <line id="10,22" x1="70.976" y1="102.731" x2="68.963" y2="117.595" />
      <line id="11,21" x1="56.112" y1="100.718" x2="54.098" y2="115.582" />
      <line id="12,20" x1="41.248" y1="98.704" x2="39.234" y2="113.568" />
      <line id="13,19" x1="26.383" y1="96.691" x2="24.370" y2="111.555" />
      <line id="24,40" x1="84.708" y1="141.449" x2="99.167" y2="145.439" />
      <line id="25,39" x1="80.717" y1="155.908" x2="95.177" y2="159.899" />
      <line id="26,38" x1="76.727" y1="170.368" x2="91.186" y2="174.358" />
      <line id="27,37" x1="72.736" y1="184.827" x2="87.196" y2="188.818" />
      <line id="28,36" x1="68.746" y1="199.286" x2="83.205" y2="203.277" />
      <line id="46,61" x1="135.160" y1="104.655" x2="133.816" y2="89.716" />
      <line id="47,60" x1="150.100" y1="103.311" x2="148.755" y2="88.371" />
      <line id="48,59" x1="165.039" y1="101.966" x2="163.695" y2="87.026" />
      <line id="49,58" x1="179.979" y1="100.621" x2="178.634" y2="85.682" />
      <line id="50,57" x1="194.919" y1="99.277" x2="193.574" y2="84.337" />
    </g>
    <g style="font-family: SansSerif" transform="translate(-4.6, 4)" id="seq">
      <text x="112.027" y="-11.233">A</text>
      <text x="111.354" y="3.752">C</text>
      <text x="110.681" y="18.737">U</text>
      <text x="110.008" y="33.722">C</text>
      <text x="109.335" y="48.707">U</text>
      <text x="108.662" y="63.692">A</text>
      <text x="107.989" y="78.677">A</text>
      <text x="91.398" y="80.614">U</text>
      <text x="78.217" y="89.496">A</text>
      <text x="70.976" y="102.731">G</text>
      <text x="56.112" y="100.718">U</text>
      <text x="41.248" y="98.704">U</text>
      <text x="26.383" y="96.691">U</text>
      <text x="15.560" y="84.849">A</text>
      <text x="-0.437" y="86.071">U</text>
      <text x="-9.335" y="99.421">A</text>
      <text x="-4.309" y="114.656">A</text>
      <text x="10.786" y="120.090">A</text>
      <text x="24.370" y="111.555">A</text>
      <text x="39.234" y="113.568">A</text>
      <text x="54.098" y="115.582">A</text>
      <text x="68.963" y="117.595">C</text>
      <text x="73.945" y="131.430">A</text>
      <text x="84.708" y="141.449">U</text>
      <text x="80.717" y="155.908">U</text>
      <text x="76.727" y="170.368">G</text>
      <text x="72.736" y="184.827">G</text>
      <text x="68.746" y="199.286">U</text>
      <text x="54.450" y="205.624">C</text>
      <text x="47.619" y="219.691">U</text>
      <text x="51.478" y="234.845">U</text>
      <text x="64.205" y="243.931">G</text>
      <text x="79.791" y="242.658">U</text>
      <text x="90.876" y="231.629">A</text>
      <text x="92.227" y="216.050">A</text>
      <text x="83.205" y="203.277">A</text>
      <text x="87.196" y="188.818">C</text>
      <text x="91.186" y="174.358">C</text>
      <text x="95.177" y="159.899">A</text>
      <text x="99.167" y="145.439">A</text>
      <text x="108.988" y="145.036">A</text>
      <text x="118.459" y="141.537">G</text>
      <text x="126.605" y="135.127">A</text>
      <text x="132.534" y="126.300">G</text>
      <text x="135.535" y="115.819">U</text>
      <text x="135.160" y="104.655">G</text>
      <text x="150.100" y="103.311">A</text>
      <text x="165.039" y="101.966">A</text>
      <text x="179.979" y="100.621">G</text>
      <text x="194.919" y="99.277">G</text>
      <text x="206.889" y="109.597">C</text>
      <text x="222.643" y="108.346">C</text>
      <text x="232.836" y="96.268">A</text>
      <text x="231.419" y="80.527">U</text>
      <text x="219.234" y="70.463">A</text>
      <text x="203.509" y="72.046">C</text>
      <text x="193.574" y="84.337">C</text>
      <text x="178.634" y="85.682">C</text>
      <text x="163.695" y="87.026">U</text>
      <text x="148.755" y="88.371">U</text>
      <text x="133.816" y="89.716">C</text>
      <text x="122.974" y="79.350">U</text>
      <text x="123.647" y="64.365">U</text>
      <text x="124.320" y="49.380">A</text>
      <text x="124.993" y="34.395">G</text>
      <text x="125.666" y="19.410">A</text>
      <text x="126.339" y="4.425">G</text>
      <text x="127.011" y="-10.560">U</text>
      <text x="130.064" y="-29.699">G</text>
    </g>
  </g>
</svg>
