<?xml version="1.0" encoding="UTF-8" standalone="yes"?>
<svg xmlns="http://www.w3.org/2000/svg" height="452" width="452">
<script type="text/ecmascript">
      <![CDATA[
        var shown = 1;
        function click() {
             var seq = document.getElementById("seq");
             if (shown==1) {
               seq.setAttribute("style", "visibility: hidden");
               shown = 0;
             } else {
               seq.setAttribute("style", "visibility: visible");
               shown = 1;
             }
         }
        ]]>
</script>
  <rect style="stroke: white; fill: white" height="452" x="0" y="0" width="452" onclick="click(evt)" />
  <g transform="scale(1.571281,1.571281) translate(39.779068,38.755745)">
    <polyline style="stroke: black; fill: none; stroke-width: 1.5" id="outline" points="
      110.058,-15.235
      109.430,-0.248
      108.801,14.739
      108.173,29.725
      107.545,44.712
      106.917,59.699
      106.289,74.686
      89.340,77.655
      76.558,87.811
      70.534,102.033
      55.537,101.719
      41.902,93.694
      29.015,101.163
      21.686,87.666
      8.582,79.655
      -6.772,79.285
      -20.247,86.656
      -28.217,99.785
      -28.538,115.141
      -21.125,128.592
      -7.971,136.521
      7.386,136.794
      20.814,129.339
      28.701,116.160
      41.264,124.162
      55.223,116.716
      70.219,117.030
      77.719,131.075
      91.266,139.442
      90.638,154.429
      90.010,169.415
      89.381,184.402
      88.753,199.389
      76.254,208.786
      72.770,224.031
      79.946,237.925
      94.394,243.908
      109.292,239.155
      117.605,225.910
      115.409,210.427
      103.740,200.017
      104.368,185.030
      104.996,170.044
      105.625,155.057
      106.253,140.070
      116.140,137.384
      124.902,131.417
      131.451,122.633
      134.887,111.855
      134.614,100.190
      149.453,97.999
      164.292,95.808
      179.131,93.616
      193.971,91.425
      205.543,101.942
      221.171,102.508
      233.474,92.855
      236.644,77.542
      229.183,63.799
      214.615,58.115
      199.819,63.173
      191.779,76.586
      176.940,78.777
      162.101,80.969
      147.262,83.160
      132.423,85.351
      121.276,75.314
      121.904,60.327
      122.532,45.340
      123.160,30.354
      123.788,15.367
      124.416,0.380
      125.045,-14.607
      128.040,-33.756
    " />
    <g style="stroke: black; stroke-width: 1" id="pairs">
      <line id="1,73" x1="110.058" y1="-15.235" x2="125.045" y2="-14.607" />
      <line id="2,72" x1="109.430" y1="-0.248" x2="124.416" y2=" 0.380" />
      <line id="3,71" x1="108.801" y1="14.739" x2="123.788" y2="15.367" />
      <line id="4,70" x1="108.173" y1="29.725" x2="123.160" y2="30.354" />
      <line id="5,69" x1="107.545" y1="44.712" x2="122.532" y2="45.340" />
      <line id="6,68" x1="106.917" y1="59.699" x2="121.904" y2="60.327" />
      <line id="7,67" x1="106.289" y1="74.686" x2="121.276" y2="75.314" />
      <line id="10,27" x1="70.534" y1="102.033" x2="70.219" y2="117.030" />
      <line id="11,26" x1="55.537" y1="101.719" x2="55.223" y2="116.716" />
      <line id="13,24" x1="29.015" y1="101.163" x2="28.701" y2="116.160" />
      <line id="29,45" x1="91.266" y1="139.442" x2="106.253" y2="140.070" />
      <line id="30,44" x1="90.638" y1="154.429" x2="105.625" y2="155.057" />
      <line id="31,43" x1="90.010" y1="169.415" x2="104.996" y2="170.044" />
      <line id="32,42" x1="89.381" y1="184.402" x2="104.368" y2="185.030" />
      <line id="33,41" x1="88.753" y1="199.389" x2="103.740" y2="200.017" />
      <line id="50,66" x1="134.614" y1="100.190" x2="132.423" y2="85.351" />
      <line id="51,65" x1="149.453" y1="97.999" x2="147.262" y2="83.160" />
      <line id="52,64" x1="164.292" y1="95.808" x2="162.101" y2="80.969" />
      <line id="53,63" x1="179.131" y1="93.616" x2="176.940" y2="78.777" />
      <line id="54,62" x1="193.971" y1="91.425" x2="191.779" y2="76.586" />
    </g>
    <g style="font-family: SansSerif" transform="translate(-4.6, 4)" id="seq">
      <text x="110.058" y="-15.235">A</text>
      <text x="109.430" y="-0.248">G</text>
      <text x="108.801" y="14.739">A</text>
      <text x="108.173" y="29.725">A</text>
      <text x="107.545" y="44.712">A</text>
      <text x="106.917" y="59.699">C</text>
      <text x="106.289" y="74.686">U</text>
      <text x="89.340" y="77.655">U</text>
      <text x="76.558" y="87.811">A</text>
      <text x="70.534" y="102.033">G</text>
      <text x="55.537" y="101.719">G</text>
      <text x="41.902" y="93.694">A</text>
      <text x="29.015" y="101.163">U</text>
      <text x="21.686" y="87.666">A</text>
      <text x="8.582" y="79.655">A</text>
      <text x="-6.772" y="79.285">C</text>
      <text x="-20.247" y="86.656">C</text>
      <text x="-28.217" y="99.785">C</text>
      <text x="-28.538" y="115.141">A</text>
      <text x="-21.125" y="128.592">C</text>
      <text x="-7.971" y="136.521">C</text>
      <text x="7.386" y="136.794">C</text>
      <text x="20.814" y="129.339">A</text>
      <text x="28.701" y="116.160">A</text>
      <text x="41.264" y="124.162">A</text>
      <text x="55.223" y="116.716">C</text>
      <text x="70.219" y="117.030">C</text>
      <text x="77.719" y="131.075">G</text>
      <text x="91.266" y="139.442">A</text>
      <text x="90.638" y="154.429">A</text>
      <text x="90.010" y="169.415">G</text>
      <text x="89.381" y="184.402">G</text>
      <text x="88.753" y="199.389">C</text>
      <text x="76.254" y="208.786">C</text>
      <text x="72.770" y="224.031">U</text>
      <text x="79.946" y="237.925">U</text>
      <text x="94.394" y="243.908">C</text>
      <text x="109.292" y="239.155">A</text>
      <text x="117.605" y="225.910">A</text>
      <text x="115.409" y="210.427">A</text>
      <text x="103.740" y="200.017">G</text>
      <text x="104.368" y="185.030">C</text>
      <text x="104.996" y="170.044">C</text>
      <text x="105.625" y="155.057">U</text>
      <text x="106.253" y="140.070">U</text>
      <text x="116.140" y="137.384">A</text>
      <text x="124.902" y="131.417">G</text>
      <text x="131.451" y="122.633">A</text>
      <text x="134.887" y="111.855">C</text>
      <text x="134.614" y="100.190">A</text>
      <text x="149.453" y="97.999">A</text>
      <text x="164.292" y="95.808">G</text>
      <text x="179.131" y="93.616">A</text>
      <text x="193.971" y="91.425">G</text>
      <text x="205.543" y="101.942">U</text>
      <text x="221.171" y="102.508">U</text>
      <text x="233.474" y="92.855">A</text>
      <text x="236.644" y="77.542">G</text>
      <text x="229.183" y="63.799">A</text>
      <text x="214.615" y="58.115">C</text>
      <text x="199.819" y="63.173">U</text>
      <text x="191.779" y="76.586">C</text>
      <text x="176.940" y="78.777">U</text>
      <text x="162.101" y="80.969">C</text>
      <text x="147.262" y="83.160">U</text>
      <text x="132.423" y="85.351">U</text>
      <text x="121.276" y="75.314">A</text>
      <text x="121.904" y="60.327">G</text>
      <text x="122.532" y="45.340">U</text>
      <text x="123.160" y="30.354">U</text>
      <text x="123.788" y="15.367">U</text>
      <text x="124.416" y="0.380">C</text>
      <text x="125.045" y="-14.607">U</text>
      <text x="128.040" y="-33.756">G</text>
    </g>
  </g>
</svg>
