<?xml version="1.0" encoding="UTF-8" standalone="yes"?>
<svg xmlns="http://www.w3.org/2000/svg" height="452" width="452">
<script type="text/ecmascript">
      <![CDATA[
        var shown = 1;
        function click() {
             var seq = document.getElementById("seq");
             if (shown==1) {
               seq.setAttribute("style", "visibility: hidden");
               shown = 0;
             } else {
               seq.setAttribute("style", "visibility: visible");
               shown = 1;
             }
         }
        ]]>
</script>
  <rect style="stroke: white; fill: white" height="452" x="0" y="0" width="452" onclick="click(evt)" />
  <g transform="scale(1.692808,1.692808) translate(21.560059,13.456497)">
    <polyline style="stroke: black; fill: none; stroke-width: 1.5" id="outline" points="
      114.056,12.448
      113.402,27.434
      112.748,42.419
      112.093,57.405
      111.439,72.391
      110.785,87.376
      110.130,102.362
      90.871,103.758
      75.434,113.965
      67.347,129.713
      52.404,128.406
      37.461,127.099
      30.374,113.395
      16.993,105.718
      1.586,106.518
      -10.929,115.538
      -16.560,129.901
      -13.509,145.024
      -2.750,156.081
      12.284,159.543
      26.795,154.306
      36.154,142.042
      51.096,143.349
      66.039,144.656
      68.360,153.251
      72.816,160.958
      79.107,167.257
      86.808,171.723
      84.203,186.495
      81.599,201.267
      67.967,208.929
      62.497,223.578
      67.772,238.299
      81.302,246.140
      96.698,243.400
      106.690,231.371
      106.560,215.734
      96.371,203.872
      98.976,189.100
      101.580,174.327
      110.584,173.410
      119.206,170.119
      126.822,164.596
      132.853,157.145
      136.814,148.220
      138.348,138.395
      137.259,128.332
      152.202,127.025
      167.145,125.717
      182.088,124.410
      197.031,123.103
      207.959,134.287
      223.526,135.779
      236.380,126.873
      240.452,111.775
      233.820,97.614
      219.615,91.075
      204.544,95.247
      195.723,108.160
      180.780,109.467
      165.837,110.774
      150.895,112.082
      135.952,113.389
      125.116,103.016
      125.770,88.031
      126.425,73.045
      127.079,58.059
      127.733,43.074
      128.388,28.088
      129.042,13.102
      132.071,-6.042
    " />
    <g style="stroke: black; stroke-width: 1" id="pairs">
      <line id="1,70" x1="114.056" y1="12.448" x2="129.042" y2="13.102" />
      <line id="2,69" x1="113.402" y1="27.434" x2="128.388" y2="28.088" />
      <line id="3,68" x1="112.748" y1="42.419" x2="127.733" y2="43.074" />
      <line id="4,67" x1="112.093" y1="57.405" x2="127.079" y2="58.059" />
      <line id="5,66" x1="111.439" y1="72.391" x2="126.425" y2="73.045" />
      <line id="6,65" x1="110.785" y1="87.376" x2="125.770" y2="88.031" />
      <line id="7,64" x1="110.130" y1="102.362" x2="125.116" y2="103.016" />
      <line id="10,24" x1="67.347" y1="129.713" x2="66.039" y2="144.656" />
      <line id="11,23" x1="52.404" y1="128.406" x2="51.096" y2="143.349" />
      <line id="12,22" x1="37.461" y1="127.099" x2="36.154" y2="142.042" />
      <line id="28,40" x1="86.808" y1="171.723" x2="101.580" y2="174.327" />
      <line id="29,39" x1="84.203" y1="186.495" x2="98.976" y2="189.100" />
      <line id="30,38" x1="81.599" y1="201.267" x2="96.371" y2="203.872" />
      <line id="47,63" x1="137.259" y1="128.332" x2="135.952" y2="113.389" />
      <line id="48,62" x1="152.202" y1="127.025" x2="150.895" y2="112.082" />
      <line id="49,61" x1="167.145" y1="125.717" x2="165.837" y2="110.774" />
      <line id="50,60" x1="182.088" y1="124.410" x2="180.780" y2="109.467" />
      <line id="51,59" x1="197.031" y1="123.103" x2="195.723" y2="108.160" />
    </g>
    <g style="font-family: SansSerif" transform="translate(-4.6, 4)" id="seq">
      <text x="114.056" y="12.448">G</text>
      <text x="113.402" y="27.434">G</text>
      <text x="112.748" y="42.419">U</text>
      <text x="112.093" y="57.405">A</text>
      <text x="111.439" y="72.391">A</text>
      <text x="110.785" y="87.376">G</text>
      <text x="110.130" y="102.362">A</text>
      <text x="90.871" y="103.758">U</text>
      <text x="75.434" y="113.965">G</text>
      <text x="67.347" y="129.713">G</text>
      <text x="52.404" y="128.406">C</text>
      <text x="37.461" y="127.099">U</text>
      <text x="30.374" y="113.395">G</text>
      <text x="16.993" y="105.718">A</text>
      <text x="1.586" y="106.518">G</text>
      <text x="-10.929" y="115.538">U</text>
      <text x="-16.560" y="129.901">G</text>
      <text x="-13.509" y="145.024">U</text>
      <text x="-2.750" y="156.081">U</text>
      <text x="12.284" y="159.543">G</text>
      <text x="26.795" y="154.306">A</text>
      <text x="36.154" y="142.042">G</text>
      <text x="51.096" y="143.349">G</text>
      <text x="66.039" y="144.656">C</text>
      <text x="68.360" y="153.251">G</text>
      <text x="72.816" y="160.958">U</text>
      <text x="79.107" y="167.257">U</text>
      <text x="86.808" y="171.723">A</text>
      <text x="84.203" y="186.495">G</text>
      <text x="81.599" y="201.267">G</text>
      <text x="67.967" y="208.929">C</text>
      <text x="62.497" y="223.578">U</text>
      <text x="67.772" y="238.299">G</text>
      <text x="81.302" y="246.140">U</text>
      <text x="96.698" y="243.400">A</text>
      <text x="106.690" y="231.371">G</text>
      <text x="106.560" y="215.734">U</text>
      <text x="96.371" y="203.872">C</text>
      <text x="98.976" y="189.100">C</text>
      <text x="101.580" y="174.327">U</text>
      <text x="110.584" y="173.410">U</text>
      <text x="119.206" y="170.119">U</text>
      <text x="126.822" y="164.596">U</text>
      <text x="132.853" y="157.145">U</text>
      <text x="136.814" y="148.220">A</text>
      <text x="138.348" y="138.395">C</text>
      <text x="137.259" y="128.332">A</text>
      <text x="152.202" y="127.025">G</text>
      <text x="167.145" y="125.717">A</text>
      <text x="182.088" y="124.410">G</text>
      <text x="197.031" y="123.103">G</text>
      <text x="207.959" y="134.287">U</text>
      <text x="223.526" y="135.779">U</text>
      <text x="236.380" y="126.873">C</text>
      <text x="240.452" y="111.775">A</text>
      <text x="233.820" y="97.614">A</text>
      <text x="219.615" y="91.075">U</text>
      <text x="204.544" y="95.247">U</text>
      <text x="195.723" y="108.160">C</text>
      <text x="180.780" y="109.467">C</text>
      <text x="165.837" y="110.774">U</text>
      <text x="150.895" y="112.082">C</text>
      <text x="135.952" y="113.389">U</text>
      <text x="125.116" y="103.016">U</text>
      <text x="125.770" y="88.031">C</text>
      <text x="126.425" y="73.045">U</text>
      <text x="127.079" y="58.059">U</text>
      <text x="127.733" y="43.074">A</text>
      <text x="128.388" y="28.088">U</text>
      <text x="129.042" y="13.102">C</text>
      <text x="132.071" y="-6.042">G</text>
    </g>
  </g>
</svg>
