<?xml version="1.0" encoding="UTF-8" standalone="yes"?>
<svg xmlns="http://www.w3.org/2000/svg" height="452" width="452">
<script type="text/ecmascript">
      <![CDATA[
        var shown = 1;
        function click() {
             var seq = document.getElementById("seq");
             if (shown==1) {
               seq.setAttribute("style", "visibility: hidden");
               shown = 0;
             } else {
               seq.setAttribute("style", "visibility: visible");
               shown = 1;
             }
         }
        ]]>
</script>
  <rect style="stroke: white; fill: white" height="452" x="0" y="0" width="452" onclick="click(evt)" />
  <g transform="scale(0.430285,0.430285) translate(219.797180,489.696045)">
    <polyline style="stroke: black; fill: none; stroke-width: 1.5" id="outline" points="
      156.528,-44.370
      150.829,-85.159
      149.232,-100.073
      156.364,-114.840
      146.919,-128.247
      130.614,-126.501
      124.221,-111.399
      134.318,-98.477
      135.914,-83.562
      128.795,-81.203
      124.077,-95.441
      119.359,-109.680
      105.120,-104.961
      109.838,-90.723
      114.556,-76.485
      107.437,-74.126
      105.786,-83.050
      99.674,-87.130
      91.924,-99.973
      99.223,-113.414
      98.817,-128.604
      90.915,-141.466
      77.725,-148.598
      62.836,-148.172
      55.085,-161.015
      57.525,-176.871
      46.543,-188.567
      30.565,-187.130
      21.846,-173.662
      27.076,-158.495
      42.243,-153.264
      49.993,-140.422
      42.678,-127.447
      42.840,-112.452
      50.537,-99.467
      63.787,-92.028
      79.081,-92.222
      86.832,-79.380
      94.520,-66.500
      90.041,-60.484
      78.010,-69.441
      65.978,-78.399
      53.946,-87.356
      41.914,-96.314
      29.882,-105.271
      17.850,-114.228
      5.818,-123.186
      -6.213,-132.143
      -18.245,-141.100
      -30.277,-150.058
      -38.952,-162.295
      -53.271,-157.826
      -53.445,-142.827
      -39.234,-138.026
      -27.203,-129.069
      -15.171,-120.111
      -3.139,-111.154
      8.893,-102.196
      20.925,-93.239
      32.957,-84.282
      44.988,-75.324
      57.020,-66.367
      69.052,-57.410
      81.084,-48.452
      76.605,-42.436
      62.044,-46.037
      50.607,-57.790
      34.779,-53.499
      30.842,-37.580
      42.847,-26.407
      58.443,-31.475
      73.005,-27.875
      75.051,-20.659
      60.546,-16.838
      46.041,-13.017
      31.536,-9.195
      17.031,-5.374
      2.526,-1.553
      -11.980,2.269
      -26.485,6.090
      -40.990,9.911
      -55.495,13.732
      -70.000,17.554
      -84.505,21.375
      -99.010,25.196
      -113.515,29.018
      -128.020,32.839
      -142.525,36.660
      -157.030,40.482
      -171.536,44.303
      -186.041,48.124
      -200.819,45.555
      -212.890,54.459
      -214.797,69.338
      -205.363,80.999
      -190.414,82.241
      -179.186,72.296
      -164.834,67.933
      -150.482,63.571
      -136.131,59.208
      -121.779,54.846
      -107.427,50.483
      -93.076,46.121
      -78.724,41.759
      -64.373,37.396
      -50.021,33.034
      -35.669,28.671
      -21.318,24.309
      -6.966,19.946
      7.386,15.584
      21.737,11.221
      36.089,6.859
      50.440,2.496
      64.792,-1.866
      79.144,-6.228
      81.190,0.987
      70.687,11.696
      60.183,22.405
      44.608,21.013
      31.811,30.000
      27.835,45.124
      34.558,59.243
      48.805,65.691
      63.848,61.422
      72.586,48.454
      70.892,32.908
      81.396,22.199
      91.899,11.490
      87.816,25.924
      78.599,37.758
      73.560,51.887
      73.206,66.882
      77.575,81.232
      86.224,93.488
      98.280,102.412
      112.527,107.104
      127.527,107.090
      141.766,102.372
      153.806,93.426
      162.433,81.154
      166.774,66.796
      166.394,51.801
      161.328,37.682
      152.090,25.865
      139.611,17.541
      125.151,13.552
      113.257,4.413
      128.077,6.731
      142.896,9.049
      157.716,11.366
      172.536,13.684
      172.646,28.908
      175.206,43.912
      180.148,58.303
      187.341,71.706
      196.597,83.772
      207.672,94.186
      220.277,102.678
      234.081,109.027
      248.723,113.068
      263.820,114.697
      278.978,113.874
      282.154,128.534
      285.330,143.194
      288.505,157.854
      291.681,172.514
      285.667,189.946
      298.021,202.444
      301.055,217.134
      304.088,231.824
      298.419,247.212
      309.117,259.641
      325.178,256.325
      330.078,240.675
      318.778,228.791
      315.745,214.101
      312.711,199.411
      319.084,189.171
      316.717,176.937
      306.341,169.338
      303.165,154.678
      299.990,140.018
      296.814,125.358
      293.638,110.698
      314.037,101.783
      331.764,88.317
      345.824,71.058
      355.426,50.974
      360.033,29.194
      367.268,45.705
      380.985,57.318
      398.360,61.702
      415.841,58.011
      429.875,47.041
      437.632,31.065
      452.621,31.647
      466.111,39.913
      479.128,32.675
      494.117,33.257
      509.106,33.839
      524.094,34.420
      528.141,50.219
      537.958,63.791
      552.437,73.056
      569.738,76.454
      587.514,73.197
      603.235,63.420
      614.545,48.211
      623.982,60.604
      639.064,62.597
      650.821,53.524
      660.257,65.917
      675.340,67.911
      687.097,58.838
      701.938,61.012
      716.149,72.763
      732.189,65.584
      741.257,72.466
      751.165,70.472
      761.487,82.463
      776.093,79.545
      790.188,84.675
      798.244,98.549
      814.134,100.758
      825.669,89.608
      824.000,73.652
      810.408,65.130
      795.319,70.580
      781.223,65.450
      771.910,53.826
      756.296,56.377
      771.244,55.136
      785.334,49.991
      797.565,41.308
      807.068,29.702
      813.167,15.998
      815.431,1.170
      813.697,-13.730
      808.090,-27.642
      799.006,-39.580
      787.093,-48.694
      773.195,-54.337
      758.300,-56.109
      743.466,-53.885
      729.746,-47.820
      718.116,-38.348
      709.400,-26.140
      704.219,-12.063
      702.940,2.882
      705.654,17.635
      712.168,31.147
      722.020,42.458
      734.507,50.764
      727.156,41.202
      714.870,39.122
      704.112,46.170
      689.271,43.996
      680.610,31.933
      665.589,29.517
      652.995,38.683
      644.334,26.619
      629.313,24.203
      616.719,33.369
      615.167,26.032
      630.083,27.614
      636.197,13.917
      625.060,3.869
      612.062,11.356
      610.510,4.019
      626.411,6.150
      637.891,-5.056
      636.145,-21.004
      622.511,-29.459
      607.448,-23.936
      602.512,-8.671
      586.867,-17.421
      569.636,-20.103
      553.026,-16.714
      539.049,-8.008
      529.280,4.637
      524.676,19.432
      509.687,18.850
      494.699,18.268
      479.710,17.687
      467.292,9.462
      453.202,16.658
      438.214,16.076
      434.604,4.484
      427.615,-5.475
      417.902,-12.842
      406.382,-16.903
      394.148,-17.256
      382.365,-13.854
      372.163,-7.006
      364.520,2.648
      360.178,14.195
      358.668,2.717
      355.758,-8.489
      351.490,-19.254
      345.930,-29.413
      339.161,-38.812
      331.287,-47.309
      322.426,-54.773
      312.712,-61.092
      302.294,-66.168
      291.328,-69.925
      279.983,-72.305
      268.429,-73.271
      256.842,-72.808
      245.399,-70.923
      234.273,-67.644
      223.634,-63.021
      213.642,-57.124
      204.451,-50.041
      196.200,-41.880
      189.014,-32.765
      183.003,-22.834
      178.259,-12.237
      174.854,-1.136
      160.034,-3.454
      145.214,-5.771
      130.394,-8.089
      115.575,-10.407
    " />
    <g style="stroke: black; stroke-width: 1" id="pairs">
      <line id="2,9" x1="150.829" y1="-85.159" x2="135.914" y2="-83.562" />
      <line id="3,8" x1="149.232" y1="-100.073" x2="134.318" y2="-98.477" />
      <line id="16,39" x1="107.437" y1="-74.126" x2="94.520" y2="-66.500" />
      <line id="18,38" x1="99.674" y1="-87.130" x2="86.832" y2="-79.380" />
      <line id="19,37" x1="91.924" y1="-99.973" x2="79.081" y2="-92.222" />
      <line id="24,32" x1="62.836" y1="-148.172" x2="49.993" y2="-140.422" />
      <line id="25,31" x1="55.085" y1="-161.015" x2="42.243" y2="-153.264" />
      <line id="65,72" x1="76.605" y1="-42.436" x2="73.005" y2="-27.875" />
      <line id="66,71" x1="62.044" y1="-46.037" x2="58.443" y2="-31.475" />
      <line id="116,128" x1="81.190" y1=" 0.987" x2="91.899" y2="11.490" />
      <line id="117,127" x1="70.687" y1="11.696" x2="81.396" y2="22.199" />
      <line id="118,126" x1="60.183" y1="22.405" x2="70.892" y2="32.908" />
      <line id="147,323" x1="113.257" y1=" 4.413" x2="115.575" y2="-10.407" />
      <line id="148,322" x1="128.077" y1=" 6.731" x2="130.394" y2="-8.089" />
      <line id="149,321" x1="142.896" y1=" 9.049" x2="145.214" y2="-5.771" />
      <line id="150,320" x1="157.716" y1="11.366" x2="160.034" y2="-3.454" />
      <line id="151,319" x1="172.536" y1="13.684" x2="174.854" y2="-1.136" />
      <line id="162,184" x1="278.978" y1="113.874" x2="293.638" y2="110.698" />
      <line id="163,183" x1="282.154" y1="128.534" x2="296.814" y2="125.358" />
      <line id="164,182" x1="285.330" y1="143.194" x2="299.990" y2="140.018" />
      <line id="165,181" x1="288.505" y1="157.854" x2="303.165" y2="154.678" />
      <line id="166,180" x1="291.681" y1="172.514" x2="306.341" y2="169.338" />
      <line id="168,177" x1="298.021" y1="202.444" x2="312.711" y2="199.411" />
      <line id="169,176" x1="301.055" y1="217.134" x2="315.745" y2="214.101" />
      <line id="170,175" x1="304.088" y1="231.824" x2="318.778" y2="228.791" />
      <line id="189,296" x1="360.033" y1="29.194" x2="360.178" y2="14.195" />
      <line id="195,287" x1="437.632" y1="31.065" x2="438.214" y2="16.076" />
      <line id="196,286" x1="452.621" y1="31.647" x2="453.202" y2="16.658" />
      <line id="198,284" x1="479.128" y1="32.675" x2="479.710" y2="17.687" />
      <line id="199,283" x1="494.117" y1="33.257" x2="494.699" y2="18.268" />
      <line id="200,282" x1="509.106" y1="33.839" x2="509.687" y2="18.850" />
      <line id="201,281" x1="524.094" y1="34.420" x2="524.676" y2="19.432" />
      <line id="208,263" x1="614.545" y1="48.211" x2="616.719" y2="33.369" />
      <line id="211,260" x1="650.821" y1="53.524" x2="652.995" y2="38.683" />
      <line id="214,257" x1="687.097" y1="58.838" x2="689.271" y2="43.996" />
      <line id="215,256" x1="701.938" y1="61.012" x2="704.112" y2="46.170" />
      <line id="217,253" x1="732.189" y1="65.584" x2="734.507" y2="50.764" />
      <line id="219,231" x1="751.165" y1="70.472" x2="756.296" y2="56.377" />
      <line id="221,229" x1="776.093" y1="79.545" x2="781.223" y2="65.450" />
      <line id="222,228" x1="790.188" y1="84.675" x2="795.319" y2="70.580" />
      <line id="269,275" x1="610.510" y1=" 4.019" x2="602.512" y2="-8.671" />
    </g>
    <g style="font-family: SansSerif" transform="translate(-4.6, 4)" id="seq">
      <text x="156.528" y="-44.370">U</text>
      <text x="150.829" y="-85.159">A</text>
      <text x="149.232" y="-100.073">A</text>
      <text x="156.364" y="-114.840">A</text>
      <text x="146.919" y="-128.247">C</text>
      <text x="130.614" y="-126.501">C</text>
      <text x="124.221" y="-111.399">A</text>
      <text x="134.318" y="-98.477">U</text>
      <text x="135.914" y="-83.562">U</text>
      <text x="128.795" y="-81.203">C</text>
      <text x="124.077" y="-95.441">U</text>
      <text x="119.359" y="-109.680">U</text>
      <text x="105.120" y="-104.961">U</text>
      <text x="109.838" y="-90.723">A</text>
      <text x="114.556" y="-76.485">G</text>
      <text x="107.437" y="-74.126">C</text>
      <text x="105.786" y="-83.050">C</text>
      <text x="99.674" y="-87.130">U</text>
      <text x="91.924" y="-99.973">U</text>
      <text x="99.223" y="-113.414">A</text>
      <text x="98.817" y="-128.604">G</text>
      <text x="90.915" y="-141.466">U</text>
      <text x="77.725" y="-148.598">A</text>
      <text x="62.836" y="-148.172">U</text>
      <text x="55.085" y="-161.015">A</text>
      <text x="57.525" y="-176.871">G</text>
      <text x="46.543" y="-188.567">G</text>
      <text x="30.565" y="-187.130">A</text>
      <text x="21.846" y="-173.662">G</text>
      <text x="27.076" y="-158.495">A</text>
      <text x="42.243" y="-153.264">U</text>
      <text x="49.993" y="-140.422">A</text>
      <text x="42.678" y="-127.447">G</text>
      <text x="42.840" y="-112.452">A</text>
      <text x="50.537" y="-99.467">A</text>
      <text x="63.787" y="-92.028">A</text>
      <text x="79.081" y="-92.222">A</text>
      <text x="86.832" y="-79.380">G</text>
      <text x="94.520" y="-66.500">G</text>
      <text x="90.041" y="-60.484">A</text>
      <text x="78.010" y="-69.441">A</text>
      <text x="65.978" y="-78.399">A</text>
      <text x="53.946" y="-87.356">A</text>
      <text x="41.914" y="-96.314">C</text>
      <text x="29.882" y="-105.271">G</text>
      <text x="17.850" y="-114.228">A</text>
      <text x="5.818" y="-123.186">C</text>
      <text x="-6.213" y="-132.143">G</text>
      <text x="-18.245" y="-141.100">G</text>
      <text x="-30.277" y="-150.058">C</text>
      <text x="-38.952" y="-162.295">G</text>
      <text x="-53.271" y="-157.826">C</text>
      <text x="-53.445" y="-142.827">C</text>
      <text x="-39.234" y="-138.026">A</text>
      <text x="-27.203" y="-129.069">U</text>
      <text x="-15.171" y="-120.111">A</text>
      <text x="-3.139" y="-111.154">G</text>
      <text x="8.893" y="-102.196">A</text>
      <text x="20.925" y="-93.239">A</text>
      <text x="32.957" y="-84.282">A</text>
      <text x="44.988" y="-75.324">A</text>
      <text x="57.020" y="-66.367">G</text>
      <text x="69.052" y="-57.410">U</text>
      <text x="81.084" y="-48.452">A</text>
      <text x="76.605" y="-42.436">C</text>
      <text x="62.044" y="-46.037">C</text>
      <text x="50.607" y="-57.790">G</text>
      <text x="34.779" y="-53.499">C</text>
      <text x="30.842" y="-37.580">A</text>
      <text x="42.847" y="-26.407">A</text>
      <text x="58.443" y="-31.475">G</text>
      <text x="73.005" y="-27.875">G</text>
      <text x="75.051" y="-20.659">G</text>
      <text x="60.546" y="-16.838">A</text>
      <text x="46.041" y="-13.017">A</text>
      <text x="31.536" y="-9.195">A</text>
      <text x="17.031" y="-5.374">G</text>
      <text x="2.526" y="-1.553">U</text>
      <text x="-11.980" y="2.269">U</text>
      <text x="-26.485" y="6.090">G</text>
      <text x="-40.990" y="9.911">A</text>
      <text x="-55.495" y="13.732">A</text>
      <text x="-70.000" y="17.554">A</text>
      <text x="-84.505" y="21.375">G</text>
      <text x="-99.010" y="25.196">A</text>
      <text x="-113.515" y="29.018">G</text>
      <text x="-128.020" y="32.839">A</text>
      <text x="-142.525" y="36.660">A</text>
      <text x="-157.030" y="40.482">A</text>
      <text x="-171.536" y="44.303">U</text>
      <text x="-186.041" y="48.124">G</text>
      <text x="-200.819" y="45.555">A</text>
      <text x="-212.890" y="54.459">A</text>
      <text x="-214.797" y="69.338">A</text>
      <text x="-205.363" y="80.999">A</text>
      <text x="-190.414" y="82.241">A</text>
      <text x="-179.186" y="72.296">C</text>
      <text x="-164.834" y="67.933">U</text>
      <text x="-150.482" y="63.571">U</text>
      <text x="-136.131" y="59.208">C</text>
      <text x="-121.779" y="54.846">A</text>
      <text x="-107.427" y="50.483">A</text>
      <text x="-93.076" y="46.121">G</text>
      <text x="-78.724" y="41.759">U</text>
      <text x="-64.373" y="37.396">A</text>
      <text x="-50.021" y="33.034">U</text>
      <text x="-35.669" y="28.671">G</text>
      <text x="-21.318" y="24.309">A</text>
      <text x="-6.966" y="19.946">A</text>
      <text x="7.386" y="15.584">A</text>
      <text x="21.737" y="11.221">A</text>
      <text x="36.089" y="6.859">A</text>
      <text x="50.440" y="2.496">G</text>
      <text x="64.792" y="-1.866">C</text>
      <text x="79.144" y="-6.228">A</text>
      <text x="81.190" y="0.987">G</text>
      <text x="70.687" y="11.696">A</text>
      <text x="60.183" y="22.405">G</text>
      <text x="44.608" y="21.013">A</text>
      <text x="31.811" y="30.000">U</text>
      <text x="27.835" y="45.124">U</text>
      <text x="34.558" y="59.243">C</text>
      <text x="48.805" y="65.691">C</text>
      <text x="63.848" y="61.422">C</text>
      <text x="72.586" y="48.454">C</text>
      <text x="70.892" y="32.908">C</text>
      <text x="81.396" y="22.199">U</text>
      <text x="91.899" y="11.490">C</text>
      <text x="87.816" y="25.924">U</text>
      <text x="78.599" y="37.758">U</text>
      <text x="73.560" y="51.887">A</text>
      <text x="73.206" y="66.882">C</text>
      <text x="77.575" y="81.232">C</text>
      <text x="86.224" y="93.488">U</text>
      <text x="98.280" y="102.412">U</text>
      <text x="112.527" y="107.104">U</text>
      <text x="127.527" y="107.090">U</text>
      <text x="141.766" y="102.372">G</text>
      <text x="153.806" y="93.426">C</text>
      <text x="162.433" y="81.154">A</text>
      <text x="166.774" y="66.796">U</text>
      <text x="166.394" y="51.801">C</text>
      <text x="161.328" y="37.682">A</text>
      <text x="152.090" y="25.865">U</text>
      <text x="139.611" y="17.541">G</text>
      <text x="125.151" y="13.552">G</text>
      <text x="113.257" y="4.413">U</text>
      <text x="128.077" y="6.731">U</text>
      <text x="142.896" y="9.049">U</text>
      <text x="157.716" y="11.366">A</text>
      <text x="172.536" y="13.684">G</text>
      <text x="172.646" y="28.908">C</text>
      <text x="175.206" y="43.912">U</text>
      <text x="180.148" y="58.303">A</text>
      <text x="187.341" y="71.706">G</text>
      <text x="196.597" y="83.772">U</text>
      <text x="207.672" y="94.186">A</text>
      <text x="220.277" y="102.678">U</text>
      <text x="234.081" y="109.027">A</text>
      <text x="248.723" y="113.068">U</text>
      <text x="263.820" y="114.697">U</text>
      <text x="278.978" y="113.874">C</text>
      <text x="282.154" y="128.534">A</text>
      <text x="285.330" y="143.194">A</text>
      <text x="288.505" y="157.854">G</text>
      <text x="291.681" y="172.514">C</text>
      <text x="285.667" y="189.946">A</text>
      <text x="298.021" y="202.444">A</text>
      <text x="301.055" y="217.134">A</text>
      <text x="304.088" y="231.824">A</text>
      <text x="298.419" y="247.212">U</text>
      <text x="309.117" y="259.641">G</text>
      <text x="325.178" y="256.325">C</text>
      <text x="330.078" y="240.675">A</text>
      <text x="318.778" y="228.791">U</text>
      <text x="315.745" y="214.101">U</text>
      <text x="312.711" y="199.411">U</text>
      <text x="319.084" y="189.171">U</text>
      <text x="316.717" y="176.937">A</text>
      <text x="306.341" y="169.338">G</text>
      <text x="303.165" y="154.678">U</text>
      <text x="299.990" y="140.018">U</text>
      <text x="296.814" y="125.358">U</text>
      <text x="293.638" y="110.698">G</text>
      <text x="314.037" y="101.783">A</text>
      <text x="331.764" y="88.317">A</text>
      <text x="345.824" y="71.058">A</text>
      <text x="355.426" y="50.974">C</text>
      <text x="360.033" y="29.194">C</text>
      <text x="367.268" y="45.705">C</text>
      <text x="380.985" y="57.318">C</text>
      <text x="398.360" y="61.702">G</text>
      <text x="415.841" y="58.011">A</text>
      <text x="429.875" y="47.041">A</text>
      <text x="437.632" y="31.065">A</text>
      <text x="452.621" y="31.647">C</text>
      <text x="466.111" y="39.913">U</text>
      <text x="479.128" y="32.675">A</text>
      <text x="494.117" y="33.257">A</text>
      <text x="509.106" y="33.839">A</text>
      <text x="524.094" y="34.420">G</text>
      <text x="528.141" y="50.219">C</text>
      <text x="537.958" y="63.791">G</text>
      <text x="552.437" y="73.056">A</text>
      <text x="569.738" y="76.454">G</text>
      <text x="587.514" y="73.197">C</text>
      <text x="603.235" y="63.420">U</text>
      <text x="614.545" y="48.211">A</text>
      <text x="623.982" y="60.604">C</text>
      <text x="639.064" y="62.597">U</text>
      <text x="650.821" y="53.524">U</text>
      <text x="660.257" y="65.917">C</text>
      <text x="675.340" y="67.911">A</text>
      <text x="687.097" y="58.838">A</text>
      <text x="701.938" y="61.012">G</text>
      <text x="716.149" y="72.763">A</text>
      <text x="732.189" y="65.584">C</text>
      <text x="741.257" y="72.466">A</text>
      <text x="751.165" y="70.472">G</text>
      <text x="761.487" y="82.463">C</text>
      <text x="776.093" y="79.545">C</text>
      <text x="790.188" y="84.675">U</text>
      <text x="798.244" y="98.549">A</text>
      <text x="814.134" y="100.758">U</text>
      <text x="825.669" y="89.608">C</text>
      <text x="824.000" y="73.652">C</text>
      <text x="810.408" y="65.130">G</text>
      <text x="795.319" y="70.580">A</text>
      <text x="781.223" y="65.450">G</text>
      <text x="771.910" y="53.826">A</text>
      <text x="756.296" y="56.377">C</text>
      <text x="771.244" y="55.136">A</text>
      <text x="785.334" y="49.991">U</text>
      <text x="797.565" y="41.308">A</text>
      <text x="807.068" y="29.702">C</text>
      <text x="813.167" y="15.998">U</text>
      <text x="815.431" y="1.170">U</text>
      <text x="813.697" y="-13.730">A</text>
      <text x="808.090" y="-27.642">U</text>
      <text x="799.006" y="-39.580">C</text>
      <text x="787.093" y="-48.694">U</text>
      <text x="773.195" y="-54.337">C</text>
      <text x="758.300" y="-56.109">U</text>
      <text x="743.466" y="-53.885">U</text>
      <text x="729.746" y="-47.820">A</text>
      <text x="718.116" y="-38.348">G</text>
      <text x="709.400" y="-26.140">A</text>
      <text x="704.219" y="-12.063">C</text>
      <text x="702.940" y="2.882">C</text>
      <text x="705.654" y="17.635">A</text>
      <text x="712.168" y="31.147">A</text>
      <text x="722.020" y="42.458">A</text>
      <text x="734.507" y="50.764">G</text>
      <text x="727.156" y="41.202">A</text>
      <text x="714.870" y="39.122">A</text>
      <text x="704.112" y="46.170">U</text>
      <text x="689.271" y="43.996">U</text>
      <text x="680.610" y="31.933">A</text>
      <text x="665.589" y="29.517">U</text>
      <text x="652.995" y="38.683">A</text>
      <text x="644.334" y="26.619">C</text>
      <text x="629.313" y="24.203">C</text>
      <text x="616.719" y="33.369">U</text>
      <text x="615.167" y="26.032">A</text>
      <text x="630.083" y="27.614">A</text>
      <text x="636.197" y="13.917">A</text>
      <text x="625.060" y="3.869">U</text>
      <text x="612.062" y="11.356">A</text>
      <text x="610.510" y="4.019">C</text>
      <text x="626.411" y="6.150">U</text>
      <text x="637.891" y="-5.056">A</text>
      <text x="636.145" y="-21.004">A</text>
      <text x="622.511" y="-29.459">A</text>
      <text x="607.448" y="-23.936">A</text>
      <text x="602.512" y="-8.671">G</text>
      <text x="586.867" y="-17.421">A</text>
      <text x="569.636" y="-20.103">U</text>
      <text x="553.026" y="-16.714">U</text>
      <text x="539.049" y="-8.008">A</text>
      <text x="529.280" y="4.637">C</text>
      <text x="524.676" y="19.432">U</text>
      <text x="509.687" y="18.850">U</text>
      <text x="494.699" y="18.268">U</text>
      <text x="479.710" y="17.687">U</text>
      <text x="467.292" y="9.462">U</text>
      <text x="453.202" y="16.658">G</text>
      <text x="438.214" y="16.076">U</text>
      <text x="434.604" y="4.484">C</text>
      <text x="427.615" y="-5.475">A</text>
      <text x="417.902" y="-12.842">U</text>
      <text x="406.382" y="-16.903">C</text>
      <text x="394.148" y="-17.256">U</text>
      <text x="382.365" y="-13.854">C</text>
      <text x="372.163" y="-7.006">U</text>
      <text x="364.520" y="2.648">A</text>
      <text x="360.178" y="14.195">G</text>
      <text x="358.668" y="2.717">A</text>
      <text x="355.758" y="-8.489">G</text>
      <text x="351.490" y="-19.254">A</text>
      <text x="345.930" y="-29.413">A</text>
      <text x="339.161" y="-38.812">A</text>
      <text x="331.287" y="-47.309">G</text>
      <text x="322.426" y="-54.773">A</text>
      <text x="312.712" y="-61.092">G</text>
      <text x="302.294" y="-66.168">G</text>
      <text x="291.328" y="-69.925">A</text>
      <text x="279.983" y="-72.305">U</text>
      <text x="268.429" y="-73.271">U</text>
      <text x="256.842" y="-72.808">C</text>
      <text x="245.399" y="-70.923">G</text>
      <text x="234.273" y="-67.644">A</text>
      <text x="223.634" y="-63.021">A</text>
      <text x="213.642" y="-57.124">C</text>
      <text x="204.451" y="-50.041">C</text>
      <text x="196.200" y="-41.880">U</text>
      <text x="189.014" y="-32.765">A</text>
      <text x="183.003" y="-22.834">U</text>
      <text x="178.259" y="-12.237">A</text>
      <text x="174.854" y="-1.136">C</text>
      <text x="160.034" y="-3.454">U</text>
      <text x="145.214" y="-5.771">A</text>
      <text x="130.394" y="-8.089">A</text>
      <text x="115.575" y="-10.407">G</text>
    </g>
  </g>
</svg>
