<?xml version="1.0" encoding="UTF-8" standalone="yes"?>
<svg xmlns="http://www.w3.org/2000/svg" height="452" width="452">
<script type="text/ecmascript">
      <![CDATA[
        var shown = 1;
        function click() {
             var seq = document.getElementById("seq");
             if (shown==1) {
               seq.setAttribute("style", "visibility: hidden");
               shown = 0;
             } else {
               seq.setAttribute("style", "visibility: visible");
               shown = 1;
             }
         }
        ]]>
</script>
  <rect style="stroke: white; fill: white" height="452" x="0" y="0" width="452" onclick="click(evt)" />
  <g transform="scale(0.268353,0.268353) translate(471.364441,719.499390)">
    <polyline style="stroke: black; fill: none; stroke-width: 1.5" id="outline" points="
      87.695,19.024
      87.323,34.019
      86.951,49.015
      79.453,48.829
      78.264,33.876
      77.075,18.923
      75.885,3.970
      74.696,-10.982
      85.967,-21.822
      87.581,-37.376
      78.777,-50.300
      63.712,-54.492
      49.499,-47.972
      42.848,-33.819
      46.901,-18.715
      59.743,-9.793
      60.933,5.160
      62.122,20.112
      63.311,35.065
      64.500,50.018
      49.843,62.264
      38.413,76.498
      30.415,91.968
      17.777,83.889
      5.139,75.809
      -7.499,67.730
      -20.138,59.651
      -32.776,51.572
      -40.236,37.620
      -55.127,37.284
      -67.765,29.204
      -68.457,6.600
      -94.195,-7.260
      -99.207,-22.266
      -113.830,-25.097
      -124.933,-35.183
      -136.036,-45.269
      -147.138,-55.355
      -158.225,-65.459
      -169.294,-75.582
      -164.528,-85.377
      -164.393,-97.338
      -169.787,-109.206
      -180.500,-118.394
      -195.119,-122.534
      -205.095,-133.736
      -215.070,-144.939
      -218.380,-153.314
      -225.097,-156.161
      -235.109,-167.331
      -245.122,-178.500
      -230.180,-197.437
      -230.960,-226.939
      -253.476,-253.743
      -259.044,-267.671
      -256.167,-283.816
      -268.884,-294.171
      -284.111,-288.084
      -286.185,-271.816
      -272.972,-262.103
      -267.404,-248.175
      -273.783,-244.230
      -281.673,-256.987
      -289.563,-269.744
      -302.320,-261.853
      -294.430,-249.097
      -286.540,-236.340
      -292.918,-232.394
      -302.893,-243.597
      -312.869,-254.799
      -306.151,-260.495
      -300.654,-268.163
      -296.925,-277.513
      -295.438,-288.110
      -296.553,-299.395
      -300.490,-310.711
      -307.298,-321.343
      -316.845,-330.560
      -328.815,-337.661
      -337.267,-350.053
      -345.718,-362.445
      -354.170,-374.837
      -352.539,-387.548
      -359.731,-397.670
      -371.490,-400.147
      -379.982,-412.511
      -388.475,-424.876
      -384.118,-439.894
      -390.481,-454.178
      -404.560,-460.984
      -419.707,-457.098
      -428.770,-444.355
      -427.470,-428.771
      -416.421,-417.706
      -400.839,-416.383
      -392.347,-404.019
      -383.854,-391.654
      -383.365,-374.059
      -366.562,-366.385
      -358.111,-353.993
      -349.659,-341.601
      -341.207,-329.209
      -346.994,-324.438
      -356.536,-336.011
      -368.110,-326.468
      -358.567,-314.895
      -364.354,-310.124
      -374.908,-320.783
      -385.462,-331.442
      -395.998,-342.119
      -390.033,-356.101
      -389.877,-371.301
      -395.555,-385.401
      -406.200,-396.253
      -420.189,-402.200
      -435.390,-402.335
      -449.483,-396.639
      -460.320,-385.980
      -466.249,-371.982
      -466.364,-356.782
      -460.650,-342.696
      -449.976,-331.873
      -435.971,-325.963
      -420.770,-325.867
      -406.692,-331.600
      -404.272,-324.718
      -396.121,-320.889
      -385.567,-310.229
      -375.013,-299.570
      -379.954,-293.928
      -394.668,-296.845
      -389.837,-282.644
      -394.778,-277.002
      -396.896,-294.427
      -410.727,-304.675
      -427.345,-301.747
      -439.273,-310.842
      -448.202,-325.254
      -464.523,-320.664
      -464.630,-303.710
      -448.369,-298.914
      -436.441,-289.819
      -436.540,-277.008
      -429.165,-266.296
      -416.798,-261.682
      -403.834,-265.044
      -386.458,-241.878
      -362.862,-231.304
      -340.177,-233.403
      -324.071,-244.824
      -314.096,-233.621
      -304.120,-222.419
      -308.834,-216.585
      -323.652,-218.915
      -318.261,-204.918
      -322.974,-199.084
      -336.022,-206.483
      -343.860,-220.888
      -360.259,-221.032
      -368.348,-206.767
      -359.807,-192.768
      -343.422,-193.436
      -330.374,-186.036
      -321.827,-172.442
      -310.559,-162.513
      -297.861,-156.651
      -285.028,-154.851
      -273.235,-156.726
      -263.437,-161.578
      -256.291,-168.488
      -246.278,-157.318
      -236.266,-146.149
      -226.272,-134.963
      -216.297,-123.761
      -206.322,-112.559
      -210.288,-106.193
      -223.019,-114.126
      -235.750,-122.058
      -248.481,-129.990
      -256.413,-117.259
      -243.682,-109.327
      -230.951,-101.395
      -218.220,-93.462
      -222.186,-87.097
      -236.638,-91.115
      -251.090,-95.133
      -265.542,-99.150
      -270.254,-108.776
      -279.263,-114.169
      -289.538,-113.791
      -297.769,-108.001
      -312.247,-111.923
      -326.725,-115.846
      -341.203,-119.768
      -355.681,-123.690
      -366.855,-135.693
      -382.775,-131.754
      -387.063,-115.926
      -375.308,-104.490
      -359.604,-109.212
      -345.126,-105.290
      -330.647,-101.367
      -316.169,-97.445
      -301.691,-93.523
      -288.947,-78.887
      -269.560,-84.699
      -255.108,-80.681
      -240.656,-76.663
      -226.204,-72.645
      -201.834,-56.713
      -179.417,-64.513
      -168.347,-54.390
      -165.566,-47.645
      -157.224,-44.252
      -146.122,-34.166
      -135.019,-24.080
      -123.916,-13.994
      -119.698,0.291
      -104.281,3.843
      -106.775,10.916
      -121.520,13.670
      -111.762,25.063
      -114.256,32.136
      -129.229,33.028
      -144.203,33.921
      -159.176,34.813
      -174.151,35.681
      -189.143,36.177
      -204.142,36.325
      -219.142,36.474
      -224.180,22.195
      -233.584,10.327
      -246.333,2.158
      -261.044,-1.427
      -276.123,-0.038
      -289.932,6.174
      -300.974,16.535
      -308.052,29.921
      -310.397,44.880
      -307.755,59.790
      -300.413,73.033
      -289.168,83.172
      -275.238,89.109
      -260.135,90.198
      -245.498,86.323
      -232.913,77.902
      -223.747,65.850
      -218.993,51.474
      -203.993,51.325
      -188.994,51.176
      -202.605,57.481
      -212.779,68.503
      -217.977,82.573
      -217.413,97.563
      -211.170,111.202
      -200.195,121.427
      -186.149,126.690
      -171.157,126.194
      -157.489,120.014
      -147.214,109.086
      -141.886,95.064
      -142.314,80.070
      -148.430,66.374
      -159.311,56.049
      -173.308,50.657
      -166.540,53.382
      -158.284,49.787
      -143.311,48.894
      -128.337,48.002
      -113.364,47.109
      -90.739,52.274
      -75.844,41.843
      -63.206,49.922
      -56.650,63.296
      -40.855,64.210
      -28.217,72.289
      -15.579,80.368
      -2.940,88.448
      9.698,96.527
      22.336,104.606
      15.129,123.240
      12.327,143.022
      14.075,162.925
      20.281,181.916
      30.625,199.009
      44.568,213.318
      36.116,225.710
      27.665,238.102
      19.213,250.495
      15.578,246.031
      10.465,242.341
      4.057,239.814
      -3.368,238.795
      -11.452,239.561
      -19.771,242.305
      -27.858,247.122
      -38.961,257.208
      -50.064,267.294
      -61.167,277.380
      -77.742,273.724
      -93.060,280.643
      -101.113,295.205
      -98.876,311.525
      -110.012,321.575
      -121.148,331.624
      -130.208,326.788
      -140.219,324.599
      -150.428,325.211
      -160.068,328.567
      -168.416,334.403
      -174.851,342.272
      -178.899,351.573
      -180.265,361.604
      -178.857,371.608
      -174.793,380.835
      -185.762,391.067
      -196.730,401.299
      -207.699,411.531
      -218.667,421.763
      -229.635,431.995
      -240.604,442.227
      -246.806,437.711
      -254.847,435.332
      -263.940,435.784
      -273.053,439.464
      -281.023,446.384
      -286.695,456.138
      -298.221,465.738
      -309.747,475.337
      -321.273,484.937
      -332.799,494.536
      -344.325,504.136
      -355.851,513.735
      -370.816,510.081
      -384.899,515.872
      -392.778,528.693
      -391.611,543.518
      -405.996,538.137
      -421.142,540.685
      -432.975,550.477
      -438.311,564.879
      -435.715,580.017
      -425.886,591.819
      -411.467,597.110
      -396.337,594.467
      -384.566,584.601
      -379.321,570.166
      -382.011,555.044
      -367.642,558.874
      -353.607,553.443
      -345.365,540.641
      -346.251,525.261
      -334.725,515.662
      -323.199,506.062
      -311.673,496.463
      -300.147,486.863
      -288.621,477.264
      -277.095,467.664
      -271.696,472.870
      -282.108,483.668
      -292.520,494.466
      -302.932,505.263
      -313.344,516.061
      -323.756,526.859
      -327.374,541.416
      -312.958,537.271
      -302.546,526.473
      -292.135,515.675
      -281.723,504.878
      -271.311,494.080
      -260.899,483.282
      -255.500,488.488
      -264.674,500.356
      -280.044,506.073
      -282.511,522.286
      -269.536,532.315
      -254.468,525.844
      -252.806,509.530
      -243.632,497.662
      -224.806,475.572
      -230.372,453.195
      -219.403,442.963
      -208.435,432.731
      -197.467,422.499
      -186.498,412.267
      -175.530,402.035
      -164.561,391.803
      -146.000,398.580
      -126.529,394.763
      -111.780,381.371
      -106.060,362.203
      -111.099,342.760
      -99.963,332.711
      -88.827,322.661
      -76.149,326.616
      -63.060,323.798
      -52.972,314.833
      -48.565,301.962
      -51.081,288.483
      -39.978,278.397
      -28.875,268.311
      -17.772,258.225
      -11.473,262.296
      -19.615,274.894
      -20.367,289.875
      -7.017,283.036
      1.125,270.438
      7.424,274.509
      2.789,288.774
      -1.847,303.040
      -6.482,317.306
      -11.117,331.572
      -14.805,334.906
      -16.733,338.905
      -16.935,342.816
      -15.727,346.002
      -20.220,360.314
      -34.781,365.343
      -43.486,377.836
      -43.169,392.882
      -34.161,404.714
      -38.655,419.025
      -43.148,433.336
      -47.642,447.648
      -62.550,451.618
      -72.927,463.033
      -75.463,478.251
      -69.349,492.415
      -56.534,501.005
      -41.110,501.281
      -27.996,493.155
      -21.378,479.219
      -23.368,463.920
      -33.331,452.141
      -28.837,437.830
      -24.344,423.519
      -19.850,409.208
      -5.696,404.648
      3.164,392.484
      3.163,377.257
      -5.909,364.807
      -1.416,350.496
      3.149,336.207
      7.784,321.941
      12.419,307.676
      17.055,293.410
      21.690,279.144
      18.292,293.754
      17.597,308.738
      19.627,323.600
      24.314,337.849
      31.505,351.013
      40.961,362.657
      52.369,372.396
      65.353,379.908
      79.482,384.944
      94.290,387.339
      109.286,387.012
      123.975,383.974
      137.872,378.327
      150.515,370.256
      161.488,360.028
      170.427,347.983
      177.037,334.518
      181.099,320.079
      182.479,305.142
      181.131,290.203
      177.100,275.755
      170.519,262.276
      161.606,250.211
      150.655,239.960
      138.028,231.863
      124.144,226.185
      109.462,223.116
      94.466,222.757
      79.653,225.120
      65.513,230.126
      52.514,237.610
      41.084,247.325
      31.605,258.946
      40.057,246.554
      48.509,234.162
      56.960,221.770
      80.727,230.913
      106.117,232.843
      108.439,247.662
      110.761,262.481
      100.096,269.511
      92.871,279.990
      90.113,292.367
      92.191,304.830
      98.766,315.565
      108.850,323.023
      120.949,326.143
      123.369,340.947
      125.789,355.750
      128.209,370.554
      121.905,385.693
      132.078,398.555
      148.262,395.910
      153.809,380.477
      143.013,368.134
      140.593,353.330
      138.173,338.527
      135.753,323.723
      149.519,313.212
      156.028,297.065
      153.372,279.768
      142.204,266.178
      125.581,260.159
      123.259,245.340
      120.937,230.521
      130.306,227.654
      139.298,223.760
      147.799,218.887
      155.703,213.096
      162.912,206.460
      169.336,199.060
      174.894,190.991
      179.517,182.352
      183.148,173.251
      197.725,176.789
      212.296,180.351
      226.861,183.937
      234.331,188.966
      241.480,187.510
      256.057,191.048
      270.634,194.586
      285.211,198.124
      299.788,201.662
      314.364,205.200
      328.941,208.737
      330.235,230.131
      338.749,249.779
      353.449,265.323
      372.555,274.903
      393.765,277.379
      414.526,272.467
      432.344,260.770
      445.085,243.707
      459.189,248.812
      473.294,253.916
      487.399,259.020
      501.504,264.125
      485.470,286.463
      491.749,321.914
      526.791,351.771
      539.714,359.385
      552.638,367.000
      565.562,374.614
      573.524,388.285
      588.417,388.080
      601.341,395.694
      614.265,403.308
      627.176,410.944
      623.818,423.000
      625.534,436.258
      632.696,448.547
      644.744,457.618
      660.194,461.537
      661.786,477.278
      675.429,483.253
      684.044,495.532
      678.879,510.165
      683.332,525.029
      695.693,534.409
      711.207,534.700
      723.910,525.788
      728.916,511.101
      724.302,496.286
      711.840,487.039
      696.324,486.918
      687.709,474.638
      686.733,459.776
      672.473,452.922
      677.339,447.215
      688.754,456.947
      700.168,466.680
      711.582,476.412
      721.314,464.997
      709.900,455.266
      698.486,445.533
      687.072,435.801
      691.938,430.094
      705.425,436.660
      718.911,443.225
      732.398,449.791
      741.419,462.788
      756.249,461.402
      769.736,467.968
      768.539,477.540
      769.759,487.092
      773.310,496.025
      778.963,503.779
      786.353,509.874
      795.013,513.930
      804.392,515.702
      813.901,515.086
      822.942,512.128
      830.948,507.024
      837.422,500.100
      851.036,506.397
      857.411,512.758
      864.706,512.692
      878.341,518.944
      882.347,523.947
      887.490,525.966
      892.087,525.192
      905.763,531.353
      919.439,537.514
      933.116,543.676
      946.761,549.905
      960.375,556.202
      973.990,562.499
      987.594,568.818
      996.828,581.664
      1011.634,580.033
      1009.627,596.199
      1015.212,612.470
      1028.006,625.296
      1045.985,631.529
      1065.788,629.168
      1078.933,636.395
      1092.078,643.621
      1093.408,666.136
      1108.307,682.889
      1130.248,686.789
      1149.770,676.326
      1162.719,683.897
      1175.668,691.469
      1183.314,705.976
      1199.709,706.337
      1207.987,692.180
      1199.632,678.069
      1183.239,678.520
      1170.290,670.948
      1157.341,663.377
      1158.859,655.890
      1158.652,648.238
      1156.724,640.814
      1153.167,634.001
      1148.157,628.152
      1141.947,623.571
      1134.850,620.500
      1127.229,619.102
      1119.474,619.456
      1111.982,621.551
      1105.141,625.286
      1099.304,630.476
      1086.159,623.250
      1073.015,616.024
      1076.027,609.155
      1089.764,615.181
      1103.501,621.206
      1109.526,607.469
      1095.789,601.444
      1082.053,595.419
      1085.065,588.550
      1099.285,593.327
      1103.804,608.171
      1116.206,617.497
      1131.722,617.718
      1144.385,608.750
      1149.326,594.041
      1144.646,579.246
      1132.143,570.056
      1116.626,570.003
      1104.061,579.108
      1089.842,574.331
      1082.343,562.383
      1071.850,553.656
      1059.586,548.801
      1046.878,548.039
      1035.010,551.164
      1025.095,557.591
      1017.975,566.440
      1009.713,554.047
      993.935,555.224
      989.261,549.622
      980.286,548.884
      966.672,542.587
      953.058,536.291
      951.511,533.254
      948.481,530.774
      944.225,529.512
      939.277,530.000
      925.601,523.838
      911.925,517.677
      898.249,511.515
      884.593,505.309
      870.958,499.057
      857.333,492.783
      843.719,486.486
      843.060,466.122
      831.894,448.985
      813.387,440.088
      792.871,442.086
      776.302,454.481
      762.815,447.915
      754.758,435.388
      738.964,436.304
      725.477,429.738
      711.990,423.173
      698.503,416.607
      687.935,396.157
      669.254,385.613
      649.414,386.952
      634.833,398.045
      630.737,392.008
      621.879,390.385
      608.955,382.770
      596.032,375.156
      588.994,362.029
      573.176,361.690
      560.252,354.076
      547.329,346.462
      534.405,338.847
      535.980,331.515
      548.954,339.043
      560.123,329.031
      554.052,315.314
      539.131,316.849
      540.707,309.517
      555.618,307.883
      570.528,306.249
      585.439,304.616
      600.350,302.982
      616.753,307.267
      625.412,292.691
      613.803,280.336
      598.716,288.071
      583.805,289.705
      568.895,291.339
      553.984,292.972
      539.073,294.606
      537.619,287.248
      552.335,284.340
      567.050,281.432
      581.765,278.524
      593.055,268.648
      578.857,263.809
      564.142,266.717
      549.426,269.625
      534.711,272.533
      533.257,265.175
      547.675,261.038
      562.100,256.925
      576.525,252.811
      590.950,248.698
      605.375,244.585
      619.800,240.471
      633.488,248.372
      648.731,244.199
      656.487,230.428
      652.153,215.230
      638.301,207.620
      623.149,212.115
      615.687,226.046
      601.262,230.160
      586.837,234.273
      572.412,238.386
      557.987,242.500
      543.562,246.613
      536.361,245.442
      529.096,250.764
      541.481,242.301
      548.267,228.924
      547.783,213.932
      540.147,201.021
      527.242,193.375
      512.250,192.880
      498.868,199.656
      490.396,212.035
      488.922,226.962
      494.811,240.758
      506.608,250.020
      492.503,244.916
      478.399,239.811
      464.294,234.707
      450.189,229.602
      451.330,222.940
      451.732,216.193
      451.389,209.442
      450.306,202.770
      448.496,196.258
      445.981,189.984
      458.699,182.031
      471.416,174.077
      484.134,166.124
      496.852,158.170
      509.570,150.217
      522.288,142.263
      536.197,148.937
      551.503,147.010
      563.323,137.095
      567.884,122.357
      563.731,107.499
      552.190,97.262
      536.943,94.912
      522.855,101.200
      514.422,114.118
      514.334,129.545
      501.616,137.499
      488.899,145.452
      476.181,153.406
      463.463,161.359
      450.745,169.313
      438.027,177.266
      431.210,170.074
      423.321,164.069
      414.563,159.409
      405.164,156.217
      395.368,154.577
      385.431,154.535
      375.610,156.093
      366.163,159.212
      357.335,163.813
      349.358,169.778
      342.441,176.952
      336.765,185.151
      332.479,194.161
      317.902,190.623
      303.325,187.085
      288.749,183.547
      274.172,180.009
      259.595,176.471
      245.018,172.934
      230.447,169.372
      215.882,165.786
      210.211,161.196
      201.263,162.212
      186.686,158.674
      188.321,152.849
      189.561,146.864
      190.392,140.745
      190.800,134.521
      190.777,128.220
      190.312,121.874
      189.401,115.513
      188.039,109.170
      186.224,102.875
      183.957,96.661
      181.240,90.562
      178.079,84.610
      174.482,78.837
      170.458,73.275
      166.019,67.955
      173.202,54.787
      180.385,41.618
      187.568,28.450
      194.751,15.282
      201.933,2.113
      215.979,7.446
      230.620,10.816
      245.583,12.162
      260.590,11.457
      275.362,8.715
      289.622,3.987
      303.106,-2.638
      315.562,-11.038
      326.759,-21.056
      336.487,-32.505
      344.565,-45.172
      350.843,-58.821
      355.204,-73.198
      357.566,-88.035
      357.887,-103.055
      356.159,-117.979
      352.414,-132.529
      346.724,-146.433
      339.193,-159.433
      329.962,-171.287
      319.203,-181.773
      307.116,-190.696
      293.927,-197.890
      279.880,-203.221
      265.239,-206.590
      250.276,-207.934
      235.269,-207.227
      220.497,-204.484
      206.237,-199.755
      192.754,-193.128
      180.299,-184.727
      169.104,-174.708
      159.377,-163.257
      151.300,-150.589
      145.024,-136.940
      140.664,-122.562
      138.303,-107.725
      137.985,-92.705
      139.714,-77.781
      143.460,-63.231
      149.152,-49.328
      156.685,-36.329
      165.917,-24.476
      176.677,-13.991
      188.765,-5.070
      181.582,8.099
      174.399,21.267
      167.217,34.436
      160.034,47.604
      152.851,60.772
      145.718,58.455
      150.353,44.189
      154.989,29.923
      159.624,15.657
      164.259,1.391
      168.894,-12.874
      173.530,-27.140
      178.165,-41.406
      163.899,-46.041
      159.264,-31.775
      154.629,-17.510
      149.993,-3.244
      145.358,11.022
      140.723,25.288
      136.087,39.554
      131.452,53.820
      124.319,51.502
      126.249,36.627
      128.178,21.751
      130.107,6.876
      132.036,-8.000
      133.965,-22.875
      135.895,-37.751
      137.824,-52.626
      139.753,-67.501
      141.682,-82.377
      152.065,-95.071
      146.010,-110.311
      129.747,-112.421
      120.006,-99.228
      126.807,-84.306
      124.877,-69.431
      122.948,-54.555
      121.019,-39.680
      119.090,-24.804
      117.161,-9.929
      115.231,4.947
      113.302,19.822
      111.373,34.697
      109.444,49.573
      101.946,49.387
      102.318,34.391
      102.690,19.396
      103.062,4.401
      103.434,-10.595
      96.259,-23.767
      88.439,-10.967
    " />
    <g style="stroke: black; stroke-width: 1" id="pairs">
      <line id="4,20" x1="79.453" y1="48.829" x2="64.500" y2="50.018" />
      <line id="5,19" x1="78.264" y1="33.876" x2="63.311" y2="35.065" />
      <line id="6,18" x1="77.075" y1="18.923" x2="62.122" y2="20.112" />
      <line id="7,17" x1="75.885" y1=" 3.970" x2="60.933" y2=" 5.160" />
      <line id="8,16" x1="74.696" y1="-10.982" x2="59.743" y2="-9.793" />
      <line id="23,280" x1="30.415" y1="91.968" x2="22.336" y2="104.606" />
      <line id="24,279" x1="17.777" y1="83.889" x2=" 9.698" y2="96.527" />
      <line id="25,278" x1=" 5.139" y1="75.809" x2="-2.940" y2="88.448" />
      <line id="26,277" x1="-7.499" y1="67.730" x2="-15.579" y2="80.368" />
      <line id="27,276" x1="-20.138" y1="59.651" x2="-28.217" y2="72.289" />
      <line id="28,275" x1="-32.776" y1="51.572" x2="-40.855" y2="64.210" />
      <line id="30,273" x1="-55.127" y1="37.284" x2="-63.206" y2="49.922" />
      <line id="31,272" x1="-67.765" y1="29.204" x2="-75.844" y2="41.843" />
      <line id="33,219" x1="-94.195" y1="-7.260" x2="-104.281" y2=" 3.843" />
      <line id="35,217" x1="-113.830" y1="-25.097" x2="-123.916" y2="-13.994" />
      <line id="36,216" x1="-124.933" y1="-35.183" x2="-135.019" y2="-24.080" />
      <line id="37,215" x1="-136.036" y1="-45.269" x2="-146.122" y2="-34.166" />
      <line id="38,214" x1="-147.138" y1="-55.355" x2="-157.224" y2="-44.252" />
      <line id="39,212" x1="-158.225" y1="-65.459" x2="-168.347" y2="-54.390" />
      <line id="40,211" x1="-169.294" y1="-75.582" x2="-179.417" y2="-64.513" />
      <line id="45,175" x1="-195.119" y1="-122.534" x2="-206.322" y2="-112.559" />
      <line id="46,174" x1="-205.095" y1="-133.736" x2="-216.297" y2="-123.761" />
      <line id="47,173" x1="-215.070" y1="-144.939" x2="-226.272" y2="-134.963" />
      <line id="49,172" x1="-225.097" y1="-156.161" x2="-236.266" y2="-146.149" />
      <line id="50,171" x1="-235.109" y1="-167.331" x2="-246.278" y2="-157.318" />
      <line id="51,170" x1="-245.122" y1="-178.500" x2="-256.291" y2="-168.488" />
      <line id="54,61" x1="-253.476" y1="-253.743" x2="-267.404" y2="-248.175" />
      <line id="55,60" x1="-259.044" y1="-267.671" x2="-272.972" y2="-262.103" />
      <line id="68,152" x1="-292.918" y1="-232.394" x2="-304.120" y2="-222.419" />
      <line id="69,151" x1="-302.893" y1="-243.597" x2="-314.096" y2="-233.621" />
      <line id="70,150" x1="-312.869" y1="-254.799" x2="-324.071" y2="-244.824" />
      <line id="79,102" x1="-328.815" y1="-337.661" x2="-341.207" y2="-329.209" />
      <line id="80,101" x1="-337.267" y1="-350.053" x2="-349.659" y2="-341.601" />
      <line id="81,100" x1="-345.718" y1="-362.445" x2="-358.111" y2="-353.993" />
      <line id="82,99" x1="-354.170" y1="-374.837" x2="-366.562" y2="-366.385" />
      <line id="85,97" x1="-371.490" y1="-400.147" x2="-383.854" y2="-391.654" />
      <line id="86,96" x1="-379.982" y1="-412.511" x2="-392.347" y2="-404.019" />
      <line id="87,95" x1="-388.475" y1="-424.876" x2="-400.839" y2="-416.383" />
      <line id="107,129" x1="-364.354" y1="-310.124" x2="-375.013" y2="-299.570" />
      <line id="108,128" x1="-374.908" y1="-320.783" x2="-385.567" y2="-310.229" />
      <line id="109,127" x1="-385.462" y1="-331.442" x2="-396.121" y2="-320.889" />
      <line id="110,125" x1="-395.998" y1="-342.119" x2="-406.692" y2="-331.600" />
      <line id="133,146" x1="-394.778" y1="-277.002" x2="-403.834" y2="-265.044" />
      <line id="136,142" x1="-427.345" y1="-301.747" x2="-436.441" y2="-289.819" />
      <line id="137,141" x1="-439.273" y1="-310.842" x2="-448.369" y2="-298.914" />
      <line id="156,163" x1="-322.974" y1="-199.084" x2="-330.374" y2="-186.036" />
      <line id="157,162" x1="-336.022" y1="-206.483" x2="-343.422" y2="-193.436" />
      <line id="184,209" x1="-222.186" y1="-87.097" x2="-226.204" y2="-72.645" />
      <line id="185,208" x1="-236.638" y1="-91.115" x2="-240.656" y2="-76.663" />
      <line id="186,207" x1="-251.090" y1="-95.133" x2="-255.108" y2="-80.681" />
      <line id="187,206" x1="-265.542" y1="-99.150" x2="-269.560" y2="-84.699" />
      <line id="191,204" x1="-297.769" y1="-108.001" x2="-301.691" y2="-93.523" />
      <line id="192,203" x1="-312.247" y1="-111.923" x2="-316.169" y2="-97.445" />
      <line id="193,202" x1="-326.725" y1="-115.846" x2="-330.647" y2="-101.367" />
      <line id="194,201" x1="-341.203" y1="-119.768" x2="-345.126" y2="-105.290" />
      <line id="195,200" x1="-355.681" y1="-123.690" x2="-359.604" y2="-109.212" />
      <line id="223,270" x1="-114.256" y1="32.136" x2="-113.364" y2="47.109" />
      <line id="224,269" x1="-129.229" y1="33.028" x2="-128.337" y2="48.002" />
      <line id="225,268" x1="-144.203" y1="33.921" x2="-143.311" y2="48.894" />
      <line id="226,267" x1="-159.176" y1="34.813" x2="-158.284" y2="49.787" />
      <line id="227,265" x1="-174.151" y1="35.681" x2="-173.308" y2="50.657" />
      <line id="228,250" x1="-189.143" y1="36.177" x2="-188.994" y2="51.176" />
      <line id="229,249" x1="-204.142" y1="36.325" x2="-203.993" y2="51.325" />
      <line id="230,248" x1="-219.142" y1="36.474" x2="-218.993" y2="51.474" />
      <line id="286,483" x1="44.568" y1="213.318" x2="56.960" y2="221.770" />
      <line id="287,482" x1="36.116" y1="225.710" x2="48.509" y2="234.162" />
      <line id="288,481" x1="27.665" y1="238.102" x2="40.057" y2="246.554" />
      <line id="289,480" x1="19.213" y1="250.495" x2="31.605" y2="258.946" />
      <line id="296,402" x1="-27.858" y1="247.122" x2="-17.772" y2="258.225" />
      <line id="297,401" x1="-38.961" y1="257.208" x2="-28.875" y2="268.311" />
      <line id="298,400" x1="-50.064" y1="267.294" x2="-39.978" y2="278.397" />
      <line id="299,399" x1="-61.167" y1="277.380" x2="-51.081" y2="288.483" />
      <line id="303,394" x1="-98.876" y1="311.525" x2="-88.827" y2="322.661" />
      <line id="304,393" x1="-110.012" y1="321.575" x2="-99.963" y2="332.711" />
      <line id="305,392" x1="-121.148" y1="331.624" x2="-111.099" y2="342.760" />
      <line id="315,387" x1="-174.793" y1="380.835" x2="-164.561" y2="391.803" />
      <line id="316,386" x1="-185.762" y1="391.067" x2="-175.530" y2="402.035" />
      <line id="317,385" x1="-196.730" y1="401.299" x2="-186.498" y2="412.267" />
      <line id="318,384" x1="-207.699" y1="411.531" x2="-197.467" y2="422.499" />
      <line id="319,383" x1="-218.667" y1="421.763" x2="-208.435" y2="432.731" />
      <line id="320,382" x1="-229.635" y1="431.995" x2="-219.403" y2="442.963" />
      <line id="321,381" x1="-240.604" y1="442.227" x2="-230.372" y2="453.195" />
      <line id="327,358" x1="-286.695" y1="456.138" x2="-277.095" y2="467.664" />
      <line id="328,357" x1="-298.221" y1="465.738" x2="-288.621" y2="477.264" />
      <line id="329,356" x1="-309.747" y1="475.337" x2="-300.147" y2="486.863" />
      <line id="330,355" x1="-321.273" y1="484.937" x2="-311.673" y2="496.463" />
      <line id="331,354" x1="-332.799" y1="494.536" x2="-323.199" y2="506.062" />
      <line id="332,353" x1="-344.325" y1="504.136" x2="-334.725" y2="515.662" />
      <line id="333,352" x1="-355.851" y1="513.735" x2="-346.251" y2="525.261" />
      <line id="337,348" x1="-391.611" y1="543.518" x2="-382.011" y2="555.044" />
      <line id="372,379" x1="-255.500" y1="488.488" x2="-243.632" y2="497.662" />
      <line id="373,378" x1="-264.674" y1="500.356" x2="-252.806" y2="509.530" />
      <line id="408,447" x1=" 7.424" y1="274.509" x2="21.690" y2="279.144" />
      <line id="409,446" x1=" 2.789" y1="288.774" x2="17.055" y2="293.410" />
      <line id="410,445" x1="-1.847" y1="303.040" x2="12.419" y2="307.676" />
      <line id="411,444" x1="-6.482" y1="317.306" x2=" 7.784" y2="321.941" />
      <line id="412,443" x1="-11.117" y1="331.572" x2=" 3.149" y2="336.207" />
      <line id="416,442" x1="-15.727" y1="346.002" x2="-1.416" y2="350.496" />
      <line id="417,441" x1="-20.220" y1="360.314" x2="-5.909" y2="364.807" />
      <line id="421,437" x1="-34.161" y1="404.714" x2="-19.850" y2="409.208" />
      <line id="422,436" x1="-38.655" y1="419.025" x2="-24.344" y2="423.519" />
      <line id="423,435" x1="-43.148" y1="433.336" x2="-28.837" y2="437.830" />
      <line id="424,434" x1="-47.642" y1="447.648" x2="-33.331" y2="452.141" />
      <line id="485,512" x1="106.117" y1="232.843" x2="120.937" y2="230.521" />
      <line id="486,511" x1="108.439" y1="247.662" x2="123.259" y2="245.340" />
      <line id="487,510" x1="110.761" y1="262.481" x2="125.581" y2="260.159" />
      <line id="494,505" x1="120.949" y1="326.143" x2="135.753" y2="323.723" />
      <line id="495,504" x1="123.369" y1="340.947" x2="138.173" y2="338.527" />
      <line id="496,503" x1="125.789" y1="355.750" x2="140.593" y2="353.330" />
      <line id="497,502" x1="128.209" y1="370.554" x2="143.013" y2="368.134" />
      <line id="521,832" x1="183.148" y1="173.251" x2="186.686" y2="158.674" />
      <line id="522,831" x1="197.725" y1="176.789" x2="201.263" y2="162.212" />
      <line id="523,829" x1="212.296" y1="180.351" x2="215.882" y2="165.786" />
      <line id="524,828" x1="226.861" y1="183.937" x2="230.447" y2="169.372" />
      <line id="526,827" x1="241.480" y1="187.510" x2="245.018" y2="172.934" />
      <line id="527,826" x1="256.057" y1="191.048" x2="259.595" y2="176.471" />
      <line id="528,825" x1="270.634" y1="194.586" x2="274.172" y2="180.009" />
      <line id="529,824" x1="285.211" y1="198.124" x2="288.749" y2="183.547" />
      <line id="530,823" x1="299.788" y1="201.662" x2="303.325" y2="187.085" />
      <line id="531,822" x1="314.364" y1="205.200" x2="317.902" y2="190.623" />
      <line id="532,821" x1="328.941" y1="208.737" x2="332.479" y2="194.161" />
      <line id="540,780" x1="445.085" y1="243.707" x2="450.189" y2="229.602" />
      <line id="541,779" x1="459.189" y1="248.812" x2="464.294" y2="234.707" />
      <line id="542,778" x1="473.294" y1="253.916" x2="478.399" y2="239.811" />
      <line id="543,777" x1="487.399" y1="259.020" x2="492.503" y2="244.916" />
      <line id="544,776" x1="501.504" y1="264.125" x2="506.608" y2="250.020" />
      <line id="547,717" x1="526.791" y1="351.771" x2="534.405" y2="338.847" />
      <line id="548,716" x1="539.714" y1="359.385" x2="547.329" y2="346.462" />
      <line id="549,715" x1="552.638" y1="367.000" x2="560.252" y2="354.076" />
      <line id="550,714" x1="565.562" y1="374.614" x2="573.176" y2="361.690" />
      <line id="552,712" x1="588.417" y1="388.080" x2="596.032" y2="375.156" />
      <line id="553,711" x1="601.341" y1="395.694" x2="608.955" y2="382.770" />
      <line id="554,710" x1="614.265" y1="403.308" x2="621.879" y2="390.385" />
      <line id="555,708" x1="627.176" y1="410.944" x2="634.833" y2="398.045" />
      <line id="560,575" x1="660.194" y1="461.537" x2="672.473" y2="452.922" />
      <line id="562,573" x1="675.429" y1="483.253" x2="687.709" y2="474.638" />
      <line id="563,572" x1="684.044" y1="495.532" x2="696.324" y2="486.918" />
      <line id="584,704" x1="691.938" y1="430.094" x2="698.503" y2="416.607" />
      <line id="585,703" x1="705.425" y1="436.660" x2="711.990" y2="423.173" />
      <line id="586,702" x1="718.911" y1="443.225" x2="725.477" y2="429.738" />
      <line id="587,701" x1="732.398" y1="449.791" x2="738.964" y2="436.304" />
      <line id="589,699" x1="756.249" y1="461.402" x2="762.815" y2="447.915" />
      <line id="590,698" x1="769.736" y1="467.968" x2="776.302" y2="454.481" />
      <line id="601,693" x1="837.422" y1="500.100" x2="843.719" y2="486.486" />
      <line id="602,692" x1="851.036" y1="506.397" x2="857.333" y2="492.783" />
      <line id="604,691" x1="864.706" y1="512.692" x2="870.958" y2="499.057" />
      <line id="605,690" x1="878.341" y1="518.944" x2="884.593" y2="505.309" />
      <line id="608,689" x1="892.087" y1="525.192" x2="898.249" y2="511.515" />
      <line id="609,688" x1="905.763" y1="531.353" x2="911.925" y2="517.677" />
      <line id="610,687" x1="919.439" y1="537.514" x2="925.601" y2="523.838" />
      <line id="611,686" x1="933.116" y1="543.676" x2="939.277" y2="530.000" />
      <line id="612,682" x1="946.761" y1="549.905" x2="953.058" y2="536.291" />
      <line id="613,681" x1="960.375" y1="556.202" x2="966.672" y2="542.587" />
      <line id="614,680" x1="973.990" y1="562.499" x2="980.286" y2="548.884" />
      <line id="615,678" x1="987.594" y1="568.818" x2="993.935" y2="555.224" />
      <line id="617,676" x1="1011.634" y1="580.033" x2="1017.975" y2="566.440" />
      <line id="622,651" x1="1065.788" y1="629.168" x2="1073.015" y2="616.024" />
      <line id="623,650" x1="1078.933" y1="636.395" x2="1086.159" y2="623.250" />
      <line id="624,649" x1="1092.078" y1="643.621" x2="1099.304" y2="630.476" />
      <line id="628,637" x1="1149.770" y1="676.326" x2="1157.341" y2="663.377" />
      <line id="629,636" x1="1162.719" y1="683.897" x2="1170.290" y2="670.948" />
      <line id="630,635" x1="1175.668" y1="691.469" x2="1183.239" y2="678.520" />
      <line id="658,669" x1="1085.065" y1="588.550" x2="1089.842" y2="574.331" />
      <line id="659,668" x1="1099.285" y1="593.327" x2="1104.061" y2="579.108" />
      <line id="723,735" x1="540.707" y1="309.517" x2="539.073" y2="294.606" />
      <line id="724,734" x1="555.618" y1="307.883" x2="553.984" y2="292.972" />
      <line id="725,733" x1="570.528" y1="306.249" x2="568.895" y2="291.339" />
      <line id="726,732" x1="585.439" y1="304.616" x2="583.805" y2="289.705" />
      <line id="727,731" x1="600.350" y1="302.982" x2="598.716" y2="288.071" />
      <line id="745,765" x1="533.257" y1="265.175" x2="529.096" y2="250.764" />
      <line id="746,763" x1="547.675" y1="261.038" x2="543.562" y2="246.613" />
      <line id="747,762" x1="562.100" y1="256.925" x2="557.987" y2="242.500" />
      <line id="748,761" x1="576.525" y1="252.811" x2="572.412" y2="238.386" />
      <line id="749,760" x1="590.950" y1="248.698" x2="586.837" y2="234.273" />
      <line id="750,759" x1="605.375" y1="244.585" x2="601.262" y2="230.160" />
      <line id="751,758" x1="619.800" y1="240.471" x2="615.687" y2="226.046" />
      <line id="786,808" x1="445.981" y1="189.984" x2="438.027" y2="177.266" />
      <line id="787,807" x1="458.699" y1="182.031" x2="450.745" y2="169.313" />
      <line id="788,806" x1="471.416" y1="174.077" x2="463.463" y2="161.359" />
      <line id="789,805" x1="484.134" y1="166.124" x2="476.181" y2="153.406" />
      <line id="790,804" x1="496.852" y1="158.170" x2="488.899" y2="145.452" />
      <line id="791,803" x1="509.570" y1="150.217" x2="501.616" y2="137.499" />
      <line id="792,802" x1="522.288" y1="142.263" x2="514.334" y2="129.545" />
      <line id="847,902" x1="166.019" y1="67.955" x2="152.851" y2="60.772" />
      <line id="848,901" x1="173.202" y1="54.787" x2="160.034" y2="47.604" />
      <line id="849,900" x1="180.385" y1="41.618" x2="167.217" y2="34.436" />
      <line id="850,899" x1="187.568" y1="28.450" x2="174.399" y2="21.267" />
      <line id="851,898" x1="194.751" y1="15.282" x2="181.582" y2=" 8.099" />
      <line id="852,897" x1="201.933" y1=" 2.113" x2="188.765" y2="-5.070" />
      <line id="919,942" x1="124.319" y1="51.502" x2="109.444" y2="49.573" />
      <line id="920,941" x1="126.249" y1="36.627" x2="111.373" y2="34.697" />
      <line id="921,940" x1="128.178" y1="21.751" x2="113.302" y2="19.822" />
      <line id="922,939" x1="130.107" y1=" 6.876" x2="115.231" y2=" 4.947" />
      <line id="923,938" x1="132.036" y1="-8.000" x2="117.161" y2="-9.929" />
      <line id="924,937" x1="133.965" y1="-22.875" x2="119.090" y2="-24.804" />
      <line id="925,936" x1="135.895" y1="-37.751" x2="121.019" y2="-39.680" />
      <line id="926,935" x1="137.824" y1="-52.626" x2="122.948" y2="-54.555" />
      <line id="927,934" x1="139.753" y1="-67.501" x2="124.877" y2="-69.431" />
      <line id="928,933" x1="141.682" y1="-82.377" x2="126.807" y2="-84.306" />
    </g>
    <g style="font-family: SansSerif" transform="translate(-4.6, 4)" id="seq">
      <text x="87.695" y="19.024">C</text>
      <text x="87.323" y="34.019">A</text>
      <text x="86.951" y="49.015">A</text>
      <text x="79.453" y="48.829">A</text>
      <text x="78.264" y="33.876">A</text>
      <text x="77.075" y="18.923">G</text>
      <text x="75.885" y="3.970">U</text>
      <text x="74.696" y="-10.982">U</text>
      <text x="85.967" y="-21.822">U</text>
      <text x="87.581" y="-37.376">A</text>
      <text x="78.777" y="-50.300">G</text>
      <text x="63.712" y="-54.492">U</text>
      <text x="49.499" y="-47.972">C</text>
      <text x="42.848" y="-33.819">C</text>
      <text x="46.901" y="-18.715">U</text>
      <text x="59.743" y="-9.793">A</text>
      <text x="60.933" y="5.160">G</text>
      <text x="62.122" y="20.112">C</text>
      <text x="63.311" y="35.065">U</text>
      <text x="64.500" y="50.018">U</text>
      <text x="49.843" y="62.264">U</text>
      <text x="38.413" y="76.498">A</text>
      <text x="30.415" y="91.968">U</text>
      <text x="17.777" y="83.889">U</text>
      <text x="5.139" y="75.809">A</text>
      <text x="-7.499" y="67.730">U</text>
      <text x="-20.138" y="59.651">C</text>
      <text x="-32.776" y="51.572">A</text>
      <text x="-40.236" y="37.620">A</text>
      <text x="-55.127" y="37.284">C</text>
      <text x="-67.765" y="29.204">U</text>
      <text x="-68.457" y="6.600">A</text>
      <text x="-94.195" y="-7.260">A</text>
      <text x="-99.207" y="-22.266">C</text>
      <text x="-113.830" y="-25.097">G</text>
      <text x="-124.933" y="-35.183">C</text>
      <text x="-136.036" y="-45.269">C</text>
      <text x="-147.138" y="-55.355">U</text>
      <text x="-158.225" y="-65.459">A</text>
      <text x="-169.294" y="-75.582">G</text>
      <text x="-164.528" y="-85.377">U</text>
      <text x="-164.393" y="-97.338">U</text>
      <text x="-169.787" y="-109.206">U</text>
      <text x="-180.500" y="-118.394">A</text>
      <text x="-195.119" y="-122.534">C</text>
      <text x="-205.095" y="-133.736">A</text>
      <text x="-215.070" y="-144.939">C</text>
      <text x="-218.380" y="-153.314">A</text>
      <text x="-225.097" y="-156.161">U</text>
      <text x="-235.109" y="-167.331">G</text>
      <text x="-245.122" y="-178.500">C</text>
      <text x="-230.180" y="-197.437">A</text>
      <text x="-230.960" y="-226.939">A</text>
      <text x="-253.476" y="-253.743">G</text>
      <text x="-259.044" y="-267.671">U</text>
      <text x="-256.167" y="-283.816">A</text>
      <text x="-268.884" y="-294.171">U</text>
      <text x="-284.111" y="-288.084">C</text>
      <text x="-286.185" y="-271.816">C</text>
      <text x="-272.972" y="-262.103">G</text>
      <text x="-267.404" y="-248.175">C</text>
      <text x="-273.783" y="-244.230">G</text>
      <text x="-281.673" y="-256.987">C</text>
      <text x="-289.563" y="-269.744">C</text>
      <text x="-302.320" y="-261.853">C</text>
      <text x="-294.430" y="-249.097">C</text>
      <text x="-286.540" y="-236.340">C</text>
      <text x="-292.918" y="-232.394">G</text>
      <text x="-302.893" y="-243.597">U</text>
      <text x="-312.869" y="-254.799">G</text>
      <text x="-306.151" y="-260.495">A</text>
      <text x="-300.654" y="-268.163">G</text>
      <text x="-296.925" y="-277.513">U</text>
      <text x="-295.438" y="-288.110">A</text>
      <text x="-296.553" y="-299.395">U</text>
      <text x="-300.490" y="-310.711">U</text>
      <text x="-307.298" y="-321.343">G</text>
      <text x="-316.845" y="-330.560">C</text>
      <text x="-328.815" y="-337.661">C</text>
      <text x="-337.267" y="-350.053">C</text>
      <text x="-345.718" y="-362.445">U</text>
      <text x="-354.170" y="-374.837">A</text>
      <text x="-352.539" y="-387.548">A</text>
      <text x="-359.731" y="-397.670">A</text>
      <text x="-371.490" y="-400.147">A</text>
      <text x="-379.982" y="-412.511">A</text>
      <text x="-388.475" y="-424.876">C</text>
      <text x="-384.118" y="-439.894">C</text>
      <text x="-390.481" y="-454.178">C</text>
      <text x="-404.560" y="-460.984">U</text>
      <text x="-419.707" y="-457.098">A</text>
      <text x="-428.770" y="-444.355">U</text>
      <text x="-427.470" y="-428.771">A</text>
      <text x="-416.421" y="-417.706">A</text>
      <text x="-400.839" y="-416.383">G</text>
      <text x="-392.347" y="-404.019">U</text>
      <text x="-383.854" y="-391.654">U</text>
      <text x="-383.365" y="-374.059">A</text>
      <text x="-366.562" y="-366.385">U</text>
      <text x="-358.111" y="-353.993">A</text>
      <text x="-349.659" y="-341.601">G</text>
      <text x="-341.207" y="-329.209">G</text>
      <text x="-346.994" y="-324.438">A</text>
      <text x="-356.536" y="-336.011">G</text>
      <text x="-368.110" y="-326.468">C</text>
      <text x="-358.567" y="-314.895">U</text>
      <text x="-364.354" y="-310.124">G</text>
      <text x="-374.908" y="-320.783">G</text>
      <text x="-385.462" y="-331.442">C</text>
      <text x="-395.998" y="-342.119">A</text>
      <text x="-390.033" y="-356.101">U</text>
      <text x="-389.877" y="-371.301">C</text>
      <text x="-395.555" y="-385.401">A</text>
      <text x="-406.200" y="-396.253">G</text>
      <text x="-420.189" y="-402.200">G</text>
      <text x="-435.390" y="-402.335">C</text>
      <text x="-449.483" y="-396.639">U</text>
      <text x="-460.320" y="-385.980">C</text>
      <text x="-466.249" y="-371.982">A</text>
      <text x="-466.364" y="-356.782">U</text>
      <text x="-460.650" y="-342.696">A</text>
      <text x="-449.976" y="-331.873">U</text>
      <text x="-435.971" y="-325.963">C</text>
      <text x="-420.770" y="-325.867">U</text>
      <text x="-406.692" y="-331.600">U</text>
      <text x="-404.272" y="-324.718">A</text>
      <text x="-396.121" y="-320.889">G</text>
      <text x="-385.567" y="-310.229">C</text>
      <text x="-375.013" y="-299.570">C</text>
      <text x="-379.954" y="-293.928">C</text>
      <text x="-394.668" y="-296.845">A</text>
      <text x="-389.837" y="-282.644">C</text>
      <text x="-394.778" y="-277.002">G</text>
      <text x="-396.896" y="-294.427">A</text>
      <text x="-410.727" y="-304.675">C</text>
      <text x="-427.345" y="-301.747">G</text>
      <text x="-439.273" y="-310.842">C</text>
      <text x="-448.202" y="-325.254">C</text>
      <text x="-464.523" y="-320.664">C</text>
      <text x="-464.630" y="-303.710">A</text>
      <text x="-448.369" y="-298.914">G</text>
      <text x="-436.441" y="-289.819">C</text>
      <text x="-436.540" y="-277.008">G</text>
      <text x="-429.165" y="-266.296">U</text>
      <text x="-416.798" y="-261.682">A</text>
      <text x="-403.834" y="-265.044">U</text>
      <text x="-386.458" y="-241.878">U</text>
      <text x="-362.862" y="-231.304">G</text>
      <text x="-340.177" y="-233.403">C</text>
      <text x="-324.071" y="-244.824">C</text>
      <text x="-314.096" y="-233.621">A</text>
      <text x="-304.120" y="-222.419">C</text>
      <text x="-308.834" y="-216.585">A</text>
      <text x="-323.652" y="-218.915">C</text>
      <text x="-318.261" y="-204.918">C</text>
      <text x="-322.974" y="-199.084">C</text>
      <text x="-336.022" y="-206.483">C</text>
      <text x="-343.860" y="-220.888">C</text>
      <text x="-360.259" y="-221.032">A</text>
      <text x="-368.348" y="-206.767">A</text>
      <text x="-359.807" y="-192.768">G</text>
      <text x="-343.422" y="-193.436">G</text>
      <text x="-330.374" y="-186.036">G</text>
      <text x="-321.827" y="-172.442">U</text>
      <text x="-310.559" y="-162.513">C</text>
      <text x="-297.861" y="-156.651">G</text>
      <text x="-285.028" y="-154.851">A</text>
      <text x="-273.235" y="-156.726">C</text>
      <text x="-263.437" y="-161.578">A</text>
      <text x="-256.291" y="-168.488">G</text>
      <text x="-246.278" y="-157.318">C</text>
      <text x="-236.266" y="-146.149">A</text>
      <text x="-226.272" y="-134.963">G</text>
      <text x="-216.297" y="-123.761">U</text>
      <text x="-206.322" y="-112.559">G</text>
      <text x="-210.288" y="-106.193">C</text>
      <text x="-223.019" y="-114.126">U</text>
      <text x="-235.750" y="-122.058">A</text>
      <text x="-248.481" y="-129.990">A</text>
      <text x="-256.413" y="-117.259">A</text>
      <text x="-243.682" y="-109.327">C</text>
      <text x="-230.951" y="-101.395">A</text>
      <text x="-218.220" y="-93.462">U</text>
      <text x="-222.186" y="-87.097">U</text>
      <text x="-236.638" y="-91.115">A</text>
      <text x="-251.090" y="-95.133">A</text>
      <text x="-265.542" y="-99.150">G</text>
      <text x="-270.254" y="-108.776">C</text>
      <text x="-279.263" y="-114.169">C</text>
      <text x="-289.538" y="-113.791">A</text>
      <text x="-297.769" y="-108.001">U</text>
      <text x="-312.247" y="-111.923">A</text>
      <text x="-326.725" y="-115.846">A</text>
      <text x="-341.203" y="-119.768">G</text>
      <text x="-355.681" y="-123.690">U</text>
      <text x="-366.855" y="-135.693">G</text>
      <text x="-382.775" y="-131.754">U</text>
      <text x="-387.063" y="-115.926">A</text>
      <text x="-375.308" y="-104.490">A</text>
      <text x="-359.604" y="-109.212">G</text>
      <text x="-345.126" y="-105.290">C</text>
      <text x="-330.647" y="-101.367">U</text>
      <text x="-316.169" y="-97.445">U</text>
      <text x="-301.691" y="-93.523">G</text>
      <text x="-288.947" y="-78.887">A</text>
      <text x="-269.560" y="-84.699">C</text>
      <text x="-255.108" y="-80.681">U</text>
      <text x="-240.656" y="-76.663">U</text>
      <text x="-226.204" y="-72.645">A</text>
      <text x="-201.834" y="-56.713">G</text>
      <text x="-179.417" y="-64.513">C</text>
      <text x="-168.347" y="-54.390">U</text>
      <text x="-165.566" y="-47.645">A</text>
      <text x="-157.224" y="-44.252">A</text>
      <text x="-146.122" y="-34.166">G</text>
      <text x="-135.019" y="-24.080">G</text>
      <text x="-123.916" y="-13.994">C</text>
      <text x="-119.698" y="0.291">A</text>
      <text x="-104.281" y="3.843">U</text>
      <text x="-106.775" y="10.916">U</text>
      <text x="-121.520" y="13.670">A</text>
      <text x="-111.762" y="25.063">A</text>
      <text x="-114.256" y="32.136">G</text>
      <text x="-129.229" y="33.028">G</text>
      <text x="-144.203" y="33.921">G</text>
      <text x="-159.176" y="34.813">C</text>
      <text x="-174.151" y="35.681">C</text>
      <text x="-189.143" y="36.177">G</text>
      <text x="-204.142" y="36.325">G</text>
      <text x="-219.142" y="36.474">U</text>
      <text x="-224.180" y="22.195">C</text>
      <text x="-233.584" y="10.327">A</text>
      <text x="-246.333" y="2.158">A</text>
      <text x="-261.044" y="-1.427">A</text>
      <text x="-276.123" y="-0.038">A</text>
      <text x="-289.932" y="6.174">C</text>
      <text x="-300.974" y="16.535">U</text>
      <text x="-308.052" y="29.921">C</text>
      <text x="-310.397" y="44.880">G</text>
      <text x="-307.755" y="59.790">U</text>
      <text x="-300.413" y="73.033">G</text>
      <text x="-289.168" y="83.172">C</text>
      <text x="-275.238" y="89.109">C</text>
      <text x="-260.135" y="90.198">A</text>
      <text x="-245.498" y="86.323">G</text>
      <text x="-232.913" y="77.902">C</text>
      <text x="-223.747" y="65.850">C</text>
      <text x="-218.993" y="51.474">A</text>
      <text x="-203.993" y="51.325">C</text>
      <text x="-188.994" y="51.176">C</text>
      <text x="-202.605" y="57.481">G</text>
      <text x="-212.779" y="68.503">C</text>
      <text x="-217.977" y="82.573">G</text>
      <text x="-217.413" y="97.563">G</text>
      <text x="-211.170" y="111.202">U</text>
      <text x="-200.195" y="121.427">U</text>
      <text x="-186.149" y="126.690">A</text>
      <text x="-171.157" y="126.194">U</text>
      <text x="-157.489" y="120.014">A</text>
      <text x="-147.214" y="109.086">C</text>
      <text x="-141.886" y="95.064">G</text>
      <text x="-142.314" y="80.070">A</text>
      <text x="-148.430" y="66.374">G</text>
      <text x="-159.311" y="56.049">U</text>
      <text x="-173.308" y="50.657">G</text>
      <text x="-166.540" y="53.382">A</text>
      <text x="-158.284" y="49.787">G</text>
      <text x="-143.311" y="48.894">C</text>
      <text x="-128.337" y="48.002">C</text>
      <text x="-113.364" y="47.109">C</text>
      <text x="-90.739" y="52.274">A</text>
      <text x="-75.844" y="41.843">A</text>
      <text x="-63.206" y="49.922">G</text>
      <text x="-56.650" y="63.296">C</text>
      <text x="-40.855" y="64.210">U</text>
      <text x="-28.217" y="72.289">G</text>
      <text x="-15.579" y="80.368">A</text>
      <text x="-2.940" y="88.448">U</text>
      <text x="9.698" y="96.527">A</text>
      <text x="22.336" y="104.606">A</text>
      <text x="15.129" y="123.240">A</text>
      <text x="12.327" y="143.022">A</text>
      <text x="14.075" y="162.925">A</text>
      <text x="20.281" y="181.916">C</text>
      <text x="30.625" y="199.009">C</text>
      <text x="44.568" y="213.318">G</text>
      <text x="36.116" y="225.710">G</text>
      <text x="27.665" y="238.102">C</text>
      <text x="19.213" y="250.495">G</text>
      <text x="15.578" y="246.031">U</text>
      <text x="10.465" y="242.341">A</text>
      <text x="4.057" y="239.814">A</text>
      <text x="-3.368" y="238.795">A</text>
      <text x="-11.452" y="239.561">G</text>
      <text x="-19.771" y="242.305">G</text>
      <text x="-27.858" y="247.122">G</text>
      <text x="-38.961" y="257.208">U</text>
      <text x="-50.064" y="267.294">G</text>
      <text x="-61.167" y="277.380">G</text>
      <text x="-77.742" y="273.724">U</text>
      <text x="-93.060" y="280.643">U</text>
      <text x="-101.113" y="295.205">A</text>
      <text x="-98.876" y="311.525">A</text>
      <text x="-110.012" y="321.575">G</text>
      <text x="-121.148" y="331.624">A</text>
      <text x="-130.208" y="326.788">G</text>
      <text x="-140.219" y="324.599">U</text>
      <text x="-150.428" y="325.211">A</text>
      <text x="-160.068" y="328.567">U</text>
      <text x="-168.416" y="334.403">U</text>
      <text x="-174.851" y="342.272">A</text>
      <text x="-178.899" y="351.573">U</text>
      <text x="-180.265" y="361.604">U</text>
      <text x="-178.857" y="371.608">A</text>
      <text x="-174.793" y="380.835">G</text>
      <text x="-185.762" y="391.067">U</text>
      <text x="-196.730" y="401.299">A</text>
      <text x="-207.699" y="411.531">A</text>
      <text x="-218.667" y="421.763">G</text>
      <text x="-229.635" y="431.995">G</text>
      <text x="-240.604" y="442.227">C</text>
      <text x="-246.806" y="437.711">C</text>
      <text x="-254.847" y="435.332">A</text>
      <text x="-263.940" y="435.784">A</text>
      <text x="-273.053" y="439.464">A</text>
      <text x="-281.023" y="446.384">A</text>
      <text x="-286.695" y="456.138">G</text>
      <text x="-298.221" y="465.738">U</text>
      <text x="-309.747" y="475.337">C</text>
      <text x="-321.273" y="484.937">C</text>
      <text x="-332.799" y="494.536">U</text>
      <text x="-344.325" y="504.136">A</text>
      <text x="-355.851" y="513.735">U</text>
      <text x="-370.816" y="510.081">A</text>
      <text x="-384.899" y="515.872">G</text>
      <text x="-392.778" y="528.693">C</text>
      <text x="-391.611" y="543.518">G</text>
      <text x="-405.996" y="538.137">C</text>
      <text x="-421.142" y="540.685">U</text>
      <text x="-432.975" y="550.477">G</text>
      <text x="-438.311" y="564.879">U</text>
      <text x="-435.715" y="580.017">U</text>
      <text x="-425.886" y="591.819">A</text>
      <text x="-411.467" y="597.110">A</text>
      <text x="-396.337" y="594.467">A</text>
      <text x="-384.566" y="584.601">U</text>
      <text x="-379.321" y="570.166">A</text>
      <text x="-382.011" y="555.044">U</text>
      <text x="-367.642" y="558.874">A</text>
      <text x="-353.607" y="553.443">U</text>
      <text x="-345.365" y="540.641">G</text>
      <text x="-346.251" y="525.261">A</text>
      <text x="-334.725" y="515.662">U</text>
      <text x="-323.199" y="506.062">A</text>
      <text x="-311.673" y="496.463">G</text>
      <text x="-300.147" y="486.863">G</text>
      <text x="-288.621" y="477.264">A</text>
      <text x="-277.095" y="467.664">U</text>
      <text x="-271.696" y="472.870">A</text>
      <text x="-282.108" y="483.668">A</text>
      <text x="-292.520" y="494.466">G</text>
      <text x="-302.932" y="505.263">A</text>
      <text x="-313.344" y="516.061">A</text>
      <text x="-323.756" y="526.859">G</text>
      <text x="-327.374" y="541.416">C</text>
      <text x="-312.958" y="537.271">C</text>
      <text x="-302.546" y="526.473">C</text>
      <text x="-292.135" y="515.675">A</text>
      <text x="-281.723" y="504.878">U</text>
      <text x="-271.311" y="494.080">A</text>
      <text x="-260.899" y="483.282">C</text>
      <text x="-255.500" y="488.488">A</text>
      <text x="-264.674" y="500.356">C</text>
      <text x="-280.044" y="506.073">G</text>
      <text x="-282.511" y="522.286">A</text>
      <text x="-269.536" y="532.315">A</text>
      <text x="-254.468" y="525.844">A</text>
      <text x="-252.806" y="509.530">G</text>
      <text x="-243.632" y="497.662">U</text>
      <text x="-224.806" y="475.572">A</text>
      <text x="-230.372" y="453.195">G</text>
      <text x="-219.403" y="442.963">C</text>
      <text x="-208.435" y="432.731">U</text>
      <text x="-197.467" y="422.499">U</text>
      <text x="-186.498" y="412.267">U</text>
      <text x="-175.530" y="402.035">A</text>
      <text x="-164.561" y="391.803">C</text>
      <text x="-146.000" y="398.580">A</text>
      <text x="-126.529" y="394.763">A</text>
      <text x="-111.780" y="381.371">C</text>
      <text x="-106.060" y="362.203">U</text>
      <text x="-111.099" y="342.760">U</text>
      <text x="-99.963" y="332.711">C</text>
      <text x="-88.827" y="322.661">U</text>
      <text x="-76.149" y="326.616">G</text>
      <text x="-63.060" y="323.798">A</text>
      <text x="-52.972" y="314.833">C</text>
      <text x="-48.565" y="301.962">C</text>
      <text x="-51.081" y="288.483">C</text>
      <text x="-39.978" y="278.397">C</text>
      <text x="-28.875" y="268.311">A</text>
      <text x="-17.772" y="258.225">C</text>
      <text x="-11.473" y="262.296">G</text>
      <text x="-19.615" y="274.894">A</text>
      <text x="-20.367" y="289.875">A</text>
      <text x="-7.017" y="283.036">A</text>
      <text x="1.125" y="270.438">A</text>
      <text x="7.424" y="274.509">C</text>
      <text x="2.789" y="288.774">U</text>
      <text x="-1.847" y="303.040">A</text>
      <text x="-6.482" y="317.306">G</text>
      <text x="-11.117" y="331.572">G</text>
      <text x="-14.805" y="334.906">G</text>
      <text x="-16.733" y="338.905">C</text>
      <text x="-16.935" y="342.816">A</text>
      <text x="-15.727" y="346.002">C</text>
      <text x="-20.220" y="360.314">A</text>
      <text x="-34.781" y="365.343">A</text>
      <text x="-43.486" y="377.836">A</text>
      <text x="-43.169" y="392.882">C</text>
      <text x="-34.161" y="404.714">U</text>
      <text x="-38.655" y="419.025">G</text>
      <text x="-43.148" y="433.336">G</text>
      <text x="-47.642" y="447.648">G</text>
      <text x="-62.550" y="451.618">A</text>
      <text x="-72.927" y="463.033">U</text>
      <text x="-75.463" y="478.251">U</text>
      <text x="-69.349" y="492.415">A</text>
      <text x="-56.534" y="501.005">G</text>
      <text x="-41.110" y="501.281">A</text>
      <text x="-27.996" y="493.155">G</text>
      <text x="-21.378" y="479.219">A</text>
      <text x="-23.368" y="463.920">C</text>
      <text x="-33.331" y="452.141">C</text>
      <text x="-28.837" y="437.830">C</text>
      <text x="-24.344" y="423.519">C</text>
      <text x="-19.850" y="409.208">A</text>
      <text x="-5.696" y="404.648">C</text>
      <text x="3.164" y="392.484">U</text>
      <text x="3.163" y="377.257">A</text>
      <text x="-5.909" y="364.807">U</text>
      <text x="-1.416" y="350.496">G</text>
      <text x="3.149" y="336.207">C</text>
      <text x="7.784" y="321.941">C</text>
      <text x="12.419" y="307.676">U</text>
      <text x="17.055" y="293.410">A</text>
      <text x="21.690" y="279.144">G</text>
      <text x="18.292" y="293.754">A</text>
      <text x="17.597" y="308.738">C</text>
      <text x="19.627" y="323.600">G</text>
      <text x="24.314" y="337.849">U</text>
      <text x="31.505" y="351.013">A</text>
      <text x="40.961" y="362.657">A</text>
      <text x="52.369" y="372.396">A</text>
      <text x="65.353" y="379.908">C</text>
      <text x="79.482" y="384.944">A</text>
      <text x="94.290" y="387.339">A</text>
      <text x="109.286" y="387.012">U</text>
      <text x="123.975" y="383.974">G</text>
      <text x="137.872" y="378.327">G</text>
      <text x="150.515" y="370.256">U</text>
      <text x="161.488" y="360.028">G</text>
      <text x="170.427" y="347.983">A</text>
      <text x="177.037" y="334.518">U</text>
      <text x="181.099" y="320.079">A</text>
      <text x="182.479" y="305.142">C</text>
      <text x="181.131" y="290.203">A</text>
      <text x="177.100" y="275.755">U</text>
      <text x="170.519" y="262.276">A</text>
      <text x="161.606" y="250.211">A</text>
      <text x="150.655" y="239.960">C</text>
      <text x="138.028" y="231.863">A</text>
      <text x="124.144" y="226.185">A</text>
      <text x="109.462" y="223.116">G</text>
      <text x="94.466" y="222.757">U</text>
      <text x="79.653" y="225.120">C</text>
      <text x="65.513" y="230.126">A</text>
      <text x="52.514" y="237.610">C</text>
      <text x="41.084" y="247.325">C</text>
      <text x="31.605" y="258.946">C</text>
      <text x="40.057" y="246.554">G</text>
      <text x="48.509" y="234.162">C</text>
      <text x="56.960" y="221.770">C</text>
      <text x="80.727" y="230.913">U</text>
      <text x="106.117" y="232.843">G</text>
      <text x="108.439" y="247.662">G</text>
      <text x="110.761" y="262.481">G</text>
      <text x="100.096" y="269.511">A</text>
      <text x="92.871" y="279.990">A</text>
      <text x="90.113" y="292.367">C</text>
      <text x="92.191" y="304.830">U</text>
      <text x="98.766" y="315.565">A</text>
      <text x="108.850" y="323.023">C</text>
      <text x="120.949" y="326.143">G</text>
      <text x="123.369" y="340.947">A</text>
      <text x="125.789" y="355.750">G</text>
      <text x="128.209" y="370.554">C</text>
      <text x="121.905" y="385.693">G</text>
      <text x="132.078" y="398.555">A</text>
      <text x="148.262" y="395.910">G</text>
      <text x="153.809" y="380.477">A</text>
      <text x="143.013" y="368.134">G</text>
      <text x="140.593" y="353.330">C</text>
      <text x="138.173" y="338.527">U</text>
      <text x="135.753" y="323.723">U</text>
      <text x="149.519" y="313.212">G</text>
      <text x="156.028" y="297.065">A</text>
      <text x="153.372" y="279.768">A</text>
      <text x="142.204" y="266.178">A</text>
      <text x="125.581" y="260.159">C</text>
      <text x="123.259" y="245.340">C</text>
      <text x="120.937" y="230.521">C</text>
      <text x="130.306" y="227.654">A</text>
      <text x="139.298" y="223.760">A</text>
      <text x="147.799" y="218.887">A</text>
      <text x="155.703" y="213.096">G</text>
      <text x="162.912" y="206.460">G</text>
      <text x="169.336" y="199.060">A</text>
      <text x="174.894" y="190.991">C</text>
      <text x="179.517" y="182.352">U</text>
      <text x="183.148" y="173.251">U</text>
      <text x="197.725" y="176.789">G</text>
      <text x="212.296" y="180.351">G</text>
      <text x="226.861" y="183.937">C</text>
      <text x="234.331" y="188.966">G</text>
      <text x="241.480" y="187.510">G</text>
      <text x="256.057" y="191.048">U</text>
      <text x="270.634" y="194.586">G</text>
      <text x="285.211" y="198.124">C</text>
      <text x="299.788" y="201.662">U</text>
      <text x="314.364" y="205.200">U</text>
      <text x="328.941" y="208.737">U</text>
      <text x="330.235" y="230.131">A</text>
      <text x="338.749" y="249.779">A</text>
      <text x="353.449" y="265.323">C</text>
      <text x="372.555" y="274.903">C</text>
      <text x="393.765" y="277.379">C</text>
      <text x="414.526" y="272.467">C</text>
      <text x="432.344" y="260.770">C</text>
      <text x="445.085" y="243.707">C</text>
      <text x="459.189" y="248.812">U</text>
      <text x="473.294" y="253.916">A</text>
      <text x="487.399" y="259.020">G</text>
      <text x="501.504" y="264.125">A</text>
      <text x="485.470" y="286.463">G</text>
      <text x="491.749" y="321.914">G</text>
      <text x="526.791" y="351.771">A</text>
      <text x="539.714" y="359.385">G</text>
      <text x="552.638" y="367.000">C</text>
      <text x="565.562" y="374.614">C</text>
      <text x="573.524" y="388.285">C</text>
      <text x="588.417" y="388.080">G</text>
      <text x="601.341" y="395.694">U</text>
      <text x="614.265" y="403.308">C</text>
      <text x="627.176" y="410.944">C</text>
      <text x="623.818" y="423.000">U</text>
      <text x="625.534" y="436.258">A</text>
      <text x="632.696" y="448.547">G</text>
      <text x="644.744" y="457.618">A</text>
      <text x="660.194" y="461.537">A</text>
      <text x="661.786" y="477.278">C</text>
      <text x="675.429" y="483.253">C</text>
      <text x="684.044" y="495.532">G</text>
      <text x="678.879" y="510.165">A</text>
      <text x="683.332" y="525.029">U</text>
      <text x="695.693" y="534.409">A</text>
      <text x="711.207" y="534.700">A</text>
      <text x="723.910" y="525.788">U</text>
      <text x="728.916" y="511.101">A</text>
      <text x="724.302" y="496.286">C</text>
      <text x="711.840" y="487.039">C</text>
      <text x="696.324" y="486.918">C</text>
      <text x="687.709" y="474.638">G</text>
      <text x="686.733" y="459.776">U</text>
      <text x="672.473" y="452.922">U</text>
      <text x="677.339" y="447.215">A</text>
      <text x="688.754" y="456.947">A</text>
      <text x="700.168" y="466.680">A</text>
      <text x="711.582" y="476.412">C</text>
      <text x="721.314" y="464.997">C</text>
      <text x="709.900" y="455.266">C</text>
      <text x="698.486" y="445.533">U</text>
      <text x="687.072" y="435.801">A</text>
      <text x="691.938" y="430.094">C</text>
      <text x="705.425" y="436.660">C</text>
      <text x="718.911" y="443.225">C</text>
      <text x="732.398" y="449.791">C</text>
      <text x="741.419" y="462.788">C</text>
      <text x="756.249" y="461.402">C</text>
      <text x="769.736" y="467.968">C</text>
      <text x="768.539" y="477.540">U</text>
      <text x="769.759" y="487.092">A</text>
      <text x="773.310" y="496.025">G</text>
      <text x="778.963" y="503.779">A</text>
      <text x="786.353" y="509.874">C</text>
      <text x="795.013" y="513.930">A</text>
      <text x="804.392" y="515.702">U</text>
      <text x="813.901" y="515.086">A</text>
      <text x="822.942" y="512.128">C</text>
      <text x="830.948" y="507.024">A</text>
      <text x="837.422" y="500.100">G</text>
      <text x="851.036" y="506.397">C</text>
      <text x="857.411" y="512.758">U</text>
      <text x="864.706" y="512.692">U</text>
      <text x="878.341" y="518.944">G</text>
      <text x="882.347" y="523.947">U</text>
      <text x="887.490" y="525.966">A</text>
      <text x="892.087" y="525.192">U</text>
      <text x="905.763" y="531.353">A</text>
      <text x="919.439" y="537.514">C</text>
      <text x="933.116" y="543.676">C</text>
      <text x="946.761" y="549.905">G</text>
      <text x="960.375" y="556.202">C</text>
      <text x="973.990" y="562.499">C</text>
      <text x="987.594" y="568.818">G</text>
      <text x="996.828" y="581.664">U</text>
      <text x="1011.634" y="580.033">C</text>
      <text x="1009.627" y="596.199">G</text>
      <text x="1015.212" y="612.470">A</text>
      <text x="1028.006" y="625.296">C</text>
      <text x="1045.985" y="631.529">A</text>
      <text x="1065.788" y="629.168">G</text>
      <text x="1078.933" y="636.395">C</text>
      <text x="1092.078" y="643.621">U</text>
      <text x="1093.408" y="666.136">U</text>
      <text x="1108.307" y="682.889">A</text>
      <text x="1130.248" y="686.789">C</text>
      <text x="1149.770" y="676.326">C</text>
      <text x="1162.719" y="683.897">C</text>
      <text x="1175.668" y="691.469">U</text>
      <text x="1183.314" y="705.976">A</text>
      <text x="1199.709" y="706.337">U</text>
      <text x="1207.987" y="692.180">G</text>
      <text x="1199.632" y="678.069">A</text>
      <text x="1183.239" y="678.520">A</text>
      <text x="1170.290" y="670.948">G</text>
      <text x="1157.341" y="663.377">G</text>
      <text x="1158.859" y="655.890">A</text>
      <text x="1158.652" y="648.238">A</text>
      <text x="1156.724" y="640.814">A</text>
      <text x="1153.167" y="634.001">U</text>
      <text x="1148.157" y="628.152">A</text>
      <text x="1141.947" y="623.571">U</text>
      <text x="1134.850" y="620.500">A</text>
      <text x="1127.229" y="619.102">A</text>
      <text x="1119.474" y="619.456">G</text>
      <text x="1111.982" y="621.551">A</text>
      <text x="1105.141" y="625.286">U</text>
      <text x="1099.304" y="630.476">A</text>
      <text x="1086.159" y="623.250">G</text>
      <text x="1073.015" y="616.024">C</text>
      <text x="1076.027" y="609.155">A</text>
      <text x="1089.764" y="615.181">A</text>
      <text x="1103.501" y="621.206">A</text>
      <text x="1109.526" y="607.469">G</text>
      <text x="1095.789" y="601.444">C</text>
      <text x="1082.053" y="595.419">C</text>
      <text x="1085.065" y="588.550">G</text>
      <text x="1099.285" y="593.327">G</text>
      <text x="1103.804" y="608.171">C</text>
      <text x="1116.206" y="617.497">A</text>
      <text x="1131.722" y="617.718">U</text>
      <text x="1144.385" y="608.750">A</text>
      <text x="1149.326" y="594.041">A</text>
      <text x="1144.646" y="579.246">U</text>
      <text x="1132.143" y="570.056">U</text>
      <text x="1116.626" y="570.003">G</text>
      <text x="1104.061" y="579.108">C</text>
      <text x="1089.842" y="574.331">C</text>
      <text x="1082.343" y="562.383">U</text>
      <text x="1071.850" y="553.656">U</text>
      <text x="1059.586" y="548.801">A</text>
      <text x="1046.878" y="548.039">A</text>
      <text x="1035.010" y="551.164">A</text>
      <text x="1025.095" y="557.591">C</text>
      <text x="1017.975" y="566.440">G</text>
      <text x="1009.713" y="554.047">U</text>
      <text x="993.935" y="555.224">C</text>
      <text x="989.261" y="549.622">A</text>
      <text x="980.286" y="548.884">G</text>
      <text x="966.672" y="542.587">G</text>
      <text x="953.058" y="536.291">U</text>
      <text x="951.511" y="533.254">C</text>
      <text x="948.481" y="530.774">G</text>
      <text x="944.225" y="529.512">A</text>
      <text x="939.277" y="530.000">G</text>
      <text x="925.601" y="523.838">G</text>
      <text x="911.925" y="517.677">U</text>
      <text x="898.249" y="511.515">G</text>
      <text x="884.593" y="505.309">C</text>
      <text x="870.958" y="499.057">A</text>
      <text x="857.333" y="492.783">G</text>
      <text x="843.719" y="486.486">C</text>
      <text x="843.060" y="466.122">C</text>
      <text x="831.894" y="448.985">C</text>
      <text x="813.387" y="440.088">A</text>
      <text x="792.871" y="442.086">U</text>
      <text x="776.302" y="454.481">G</text>
      <text x="762.815" y="447.915">G</text>
      <text x="754.758" y="435.388">A</text>
      <text x="738.964" y="436.304">G</text>
      <text x="725.477" y="429.738">G</text>
      <text x="711.990" y="423.173">G</text>
      <text x="698.503" y="416.607">G</text>
      <text x="687.935" y="396.157">U</text>
      <text x="669.254" y="385.613">G</text>
      <text x="649.414" y="386.952">U</text>
      <text x="634.833" y="398.045">G</text>
      <text x="630.737" y="392.008">A</text>
      <text x="621.879" y="390.385">G</text>
      <text x="608.955" y="382.770">A</text>
      <text x="596.032" y="375.156">U</text>
      <text x="588.994" y="362.029">A</text>
      <text x="573.176" y="361.690">G</text>
      <text x="560.252" y="354.076">G</text>
      <text x="547.329" y="346.462">C</text>
      <text x="534.405" y="338.847">U</text>
      <text x="535.980" y="331.515">A</text>
      <text x="548.954" y="339.043">C</text>
      <text x="560.123" y="329.031">A</text>
      <text x="554.052" y="315.314">U</text>
      <text x="539.131" y="316.849">U</text>
      <text x="540.707" y="309.517">C</text>
      <text x="555.618" y="307.883">A</text>
      <text x="570.528" y="306.249">C</text>
      <text x="585.439" y="304.616">U</text>
      <text x="600.350" y="302.982">U</text>
      <text x="616.753" y="307.267">A</text>
      <text x="625.412" y="292.691">U</text>
      <text x="613.803" y="280.336">U</text>
      <text x="598.716" y="288.071">A</text>
      <text x="583.805" y="289.705">A</text>
      <text x="568.895" y="291.339">G</text>
      <text x="553.984" y="292.972">U</text>
      <text x="539.073" y="294.606">G</text>
      <text x="537.619" y="287.248">U</text>
      <text x="552.335" y="284.340">A</text>
      <text x="567.050" y="281.432">U</text>
      <text x="581.765" y="278.524">A</text>
      <text x="593.055" y="268.648">C</text>
      <text x="578.857" y="263.809">G</text>
      <text x="564.142" y="266.717">A</text>
      <text x="549.426" y="269.625">A</text>
      <text x="534.711" y="272.533">U</text>
      <text x="533.257" y="265.175">G</text>
      <text x="547.675" y="261.038">A</text>
      <text x="562.100" y="256.925">U</text>
      <text x="576.525" y="252.811">G</text>
      <text x="590.950" y="248.698">C</text>
      <text x="605.375" y="244.585">G</text>
      <text x="619.800" y="240.471">U</text>
      <text x="633.488" y="248.372">U</text>
      <text x="648.731" y="244.199">G</text>
      <text x="656.487" y="230.428">A</text>
      <text x="652.153" y="215.230">A</text>
      <text x="638.301" y="207.620">A</text>
      <text x="623.149" y="212.115">U</text>
      <text x="615.687" y="226.046">A</text>
      <text x="601.262" y="230.160">U</text>
      <text x="586.837" y="234.273">G</text>
      <text x="572.412" y="238.386">C</text>
      <text x="557.987" y="242.500">A</text>
      <text x="543.562" y="246.613">U</text>
      <text x="536.361" y="245.442">G</text>
      <text x="529.096" y="250.764">C</text>
      <text x="541.481" y="242.301">U</text>
      <text x="548.267" y="228.924">G</text>
      <text x="547.783" y="213.932">A</text>
      <text x="540.147" y="201.021">A</text>
      <text x="527.242" y="193.375">G</text>
      <text x="512.250" y="192.880">G</text>
      <text x="498.868" y="199.656">A</text>
      <text x="490.396" y="212.035">G</text>
      <text x="488.922" y="226.962">G</text>
      <text x="494.811" y="240.758">A</text>
      <text x="506.608" y="250.020">U</text>
      <text x="492.503" y="244.916">U</text>
      <text x="478.399" y="239.811">U</text>
      <text x="464.294" y="234.707">A</text>
      <text x="450.189" y="229.602">G</text>
      <text x="451.330" y="222.940">U</text>
      <text x="451.732" y="216.193">A</text>
      <text x="451.389" y="209.442">G</text>
      <text x="450.306" y="202.770">U</text>
      <text x="448.496" y="196.258">A</text>
      <text x="445.981" y="189.984">A</text>
      <text x="458.699" y="182.031">G</text>
      <text x="471.416" y="174.077">U</text>
      <text x="484.134" y="166.124">A</text>
      <text x="496.852" y="158.170">U</text>
      <text x="509.570" y="150.217">A</text>
      <text x="522.288" y="142.263">A</text>
      <text x="536.197" y="148.937">A</text>
      <text x="551.503" y="147.010">A</text>
      <text x="563.323" y="137.095">U</text>
      <text x="567.884" y="122.357">A</text>
      <text x="563.731" y="107.499">G</text>
      <text x="552.190" y="97.262">A</text>
      <text x="536.943" y="94.912">G</text>
      <text x="522.855" y="101.200">A</text>
      <text x="514.422" y="114.118">G</text>
      <text x="514.334" y="129.545">U</text>
      <text x="501.616" y="137.499">U</text>
      <text x="488.899" y="145.452">A</text>
      <text x="476.181" y="153.406">U</text>
      <text x="463.463" y="161.359">A</text>
      <text x="450.745" y="169.313">C</text>
      <text x="438.027" y="177.266">U</text>
      <text x="431.210" y="170.074">G</text>
      <text x="423.321" y="164.069">A</text>
      <text x="414.563" y="159.409">A</text>
      <text x="405.164" y="156.217">C</text>
      <text x="395.368" y="154.577">A</text>
      <text x="385.431" y="154.535">A</text>
      <text x="375.610" y="156.093">G</text>
      <text x="366.163" y="159.212">G</text>
      <text x="357.335" y="163.813">C</text>
      <text x="349.358" y="169.778">U</text>
      <text x="342.441" y="176.952">C</text>
      <text x="336.765" y="185.151">A</text>
      <text x="332.479" y="194.161">G</text>
      <text x="317.902" y="190.623">A</text>
      <text x="303.325" y="187.085">A</text>
      <text x="288.749" y="183.547">G</text>
      <text x="274.172" y="180.009">C</text>
      <text x="259.595" y="176.471">G</text>
      <text x="245.018" y="172.934">C</text>
      <text x="230.447" y="169.372">G</text>
      <text x="215.882" y="165.786">U</text>
      <text x="210.211" y="161.196">A</text>
      <text x="201.263" y="162.212">C</text>
      <text x="186.686" y="158.674">A</text>
      <text x="188.321" y="152.849">C</text>
      <text x="189.561" y="146.864">A</text>
      <text x="190.392" y="140.745">C</text>
      <text x="190.800" y="134.521">C</text>
      <text x="190.777" y="128.220">G</text>
      <text x="190.312" y="121.874">C</text>
      <text x="189.401" y="115.513">C</text>
      <text x="188.039" y="109.170">C</text>
      <text x="186.224" y="102.875">G</text>
      <text x="183.957" y="96.661">U</text>
      <text x="181.240" y="90.562">C</text>
      <text x="178.079" y="84.610">A</text>
      <text x="174.482" y="78.837">C</text>
      <text x="170.458" y="73.275">U</text>
      <text x="166.019" y="67.955">C</text>
      <text x="173.202" y="54.787">U</text>
      <text x="180.385" y="41.618">C</text>
      <text x="187.568" y="28.450">C</text>
      <text x="194.751" y="15.282">C</text>
      <text x="201.933" y="2.113">C</text>
      <text x="215.979" y="7.446">G</text>
      <text x="230.620" y="10.816">A</text>
      <text x="245.583" y="12.162">A</text>
      <text x="260.590" y="11.457">A</text>
      <text x="275.362" y="8.715">A</text>
      <text x="289.622" y="3.987">U</text>
      <text x="303.106" y="-2.638">U</text>
      <text x="315.562" y="-11.038">U</text>
      <text x="326.759" y="-21.056">G</text>
      <text x="336.487" y="-32.505">A</text>
      <text x="344.565" y="-45.172">U</text>
      <text x="350.843" y="-58.821">U</text>
      <text x="355.204" y="-73.198">A</text>
      <text x="357.566" y="-88.035">U</text>
      <text x="357.887" y="-103.055">U</text>
      <text x="356.159" y="-117.979">U</text>
      <text x="352.414" y="-132.529">U</text>
      <text x="346.724" y="-146.433">U</text>
      <text x="339.193" y="-159.433">U</text>
      <text x="329.962" y="-171.287">A</text>
      <text x="319.203" y="-181.773">C</text>
      <text x="307.116" y="-190.696">A</text>
      <text x="293.927" y="-197.890">U</text>
      <text x="279.880" y="-203.221">A</text>
      <text x="265.239" y="-206.590">A</text>
      <text x="250.276" y="-207.934">A</text>
      <text x="235.269" y="-207.227">A</text>
      <text x="220.497" y="-204.484">C</text>
      <text x="206.237" y="-199.755">U</text>
      <text x="192.754" y="-193.128">A</text>
      <text x="180.299" y="-184.727">G</text>
      <text x="169.104" y="-174.708">U</text>
      <text x="159.377" y="-163.257">A</text>
      <text x="151.300" y="-150.589">C</text>
      <text x="145.024" y="-136.940">U</text>
      <text x="140.664" y="-122.562">U</text>
      <text x="138.303" y="-107.725">A</text>
      <text x="137.985" y="-92.705">U</text>
      <text x="139.714" y="-77.781">U</text>
      <text x="143.460" y="-63.231">G</text>
      <text x="149.152" y="-49.328">U</text>
      <text x="156.685" y="-36.329">C</text>
      <text x="165.917" y="-24.476">A</text>
      <text x="176.677" y="-13.991">A</text>
      <text x="188.765" y="-5.070">G</text>
      <text x="181.582" y="8.099">G</text>
      <text x="174.399" y="21.267">G</text>
      <text x="167.217" y="34.436">G</text>
      <text x="160.034" y="47.604">A</text>
      <text x="152.851" y="60.772">G</text>
      <text x="145.718" y="58.455">A</text>
      <text x="150.353" y="44.189">G</text>
      <text x="154.989" y="29.923">A</text>
      <text x="159.624" y="15.657">A</text>
      <text x="164.259" y="1.391">G</text>
      <text x="168.894" y="-12.874">U</text>
      <text x="173.530" y="-27.140">C</text>
      <text x="178.165" y="-41.406">G</text>
      <text x="163.899" y="-46.041">A</text>
      <text x="159.264" y="-31.775">A</text>
      <text x="154.629" y="-17.510">A</text>
      <text x="149.993" y="-3.244">C</text>
      <text x="145.358" y="11.022">A</text>
      <text x="140.723" y="25.288">A</text>
      <text x="136.087" y="39.554">G</text>
      <text x="131.452" y="53.820">G</text>
      <text x="124.319" y="51.502">U</text>
      <text x="126.249" y="36.627">A</text>
      <text x="128.178" y="21.751">A</text>
      <text x="130.107" y="6.876">G</text>
      <text x="132.036" y="-8.000">U</text>
      <text x="133.965" y="-22.875">G</text>
      <text x="135.895" y="-37.751">U</text>
      <text x="137.824" y="-52.626">A</text>
      <text x="139.753" y="-67.501">C</text>
      <text x="141.682" y="-82.377">U</text>
      <text x="152.065" y="-95.071">G</text>
      <text x="146.010" y="-110.311">G</text>
      <text x="129.747" y="-112.421">A</text>
      <text x="120.006" y="-99.228">A</text>
      <text x="126.807" y="-84.306">G</text>
      <text x="124.877" y="-69.431">G</text>
      <text x="122.948" y="-54.555">U</text>
      <text x="121.019" y="-39.680">G</text>
      <text x="119.090" y="-24.804">C</text>
      <text x="117.161" y="-9.929">A</text>
      <text x="115.231" y="4.947">C</text>
      <text x="113.302" y="19.822">U</text>
      <text x="111.373" y="34.697">U</text>
      <text x="109.444" y="49.573">G</text>
      <text x="101.946" y="49.387">G</text>
      <text x="102.318" y="34.391">G</text>
      <text x="102.690" y="19.396">A</text>
      <text x="103.062" y="4.401">C</text>
      <text x="103.434" y="-10.595">A</text>
      <text x="96.259" y="-23.767">A</text>
      <text x="88.439" y="-10.967">C</text>
    </g>
  </g>
</svg>
