<?xml version="1.0" encoding="UTF-8" standalone="yes"?>
<svg xmlns="http://www.w3.org/2000/svg" height="452" width="452">
<script type="text/ecmascript">
      <![CDATA[
        var shown = 1;
        function click() {
             var seq = document.getElementById("seq");
             if (shown==1) {
               seq.setAttribute("style", "visibility: hidden");
               shown = 0;
             } else {
               seq.setAttribute("style", "visibility: visible");
               shown = 1;
             }
         }
        ]]>
</script>
  <rect style="stroke: white; fill: white" height="452" x="0" y="0" width="452" onclick="click(evt)" />
  <g transform="scale(1.681003,1.681003) translate(10.124649,22.751350)">
    <polyline style="stroke: black; fill: none; stroke-width: 1.5" id="outline" points="
      114.051,0.679
      113.348,15.663
      112.645,30.646
      111.942,45.630
      111.239,60.613
      110.536,75.597
      109.833,90.580
      94.920,91.238
      82.464,98.008
      74.680,108.949
      60.176,105.124
      45.672,101.298
      31.168,97.473
      6.439,98.706
      27.343,111.976
      41.847,115.802
      56.351,119.628
      70.855,123.453
      73.139,134.696
      79.585,144.185
      72.187,157.234
      64.788,170.283
      57.390,183.331
      49.992,196.380
      34.582,199.037
      24.525,211.012
      24.569,226.649
      34.695,238.566
      50.120,241.136
      63.561,233.145
      68.673,218.366
      63.040,203.778
      70.439,190.729
      77.837,177.681
      85.235,164.632
      92.633,151.584
      104.345,153.235
      116.157,150.059
      126.096,142.258
      132.380,130.832
      133.729,117.456
      148.692,118.510
      163.655,119.564
      178.618,120.618
      193.581,121.673
      201.682,134.907
      216.028,140.821
      231.102,137.140
      241.108,125.280
      242.199,109.801
      233.954,96.656
      219.545,90.898
      204.512,94.742
      194.635,106.710
      179.672,105.655
      164.709,104.601
      149.746,103.547
      134.783,102.493
      124.816,91.283
      125.519,76.300
      126.222,61.316
      126.925,46.333
      127.628,31.349
      128.332,16.366
      129.035,1.382
      132.126,-17.751
    " />
    <g style="stroke: black; stroke-width: 1" id="pairs">
      <line id="1,65" x1="114.051" y1=" 0.679" x2="129.035" y2=" 1.382" />
      <line id="2,64" x1="113.348" y1="15.663" x2="128.332" y2="16.366" />
      <line id="3,63" x1="112.645" y1="30.646" x2="127.628" y2="31.349" />
      <line id="4,62" x1="111.942" y1="45.630" x2="126.925" y2="46.333" />
      <line id="5,61" x1="111.239" y1="60.613" x2="126.222" y2="61.316" />
      <line id="6,60" x1="110.536" y1="75.597" x2="125.519" y2="76.300" />
      <line id="7,59" x1="109.833" y1="90.580" x2="124.816" y2="91.283" />
      <line id="10,18" x1="74.680" y1="108.949" x2="70.855" y2="123.453" />
      <line id="11,17" x1="60.176" y1="105.124" x2="56.351" y2="119.628" />
      <line id="12,16" x1="45.672" y1="101.298" x2="41.847" y2="115.802" />
      <line id="13,15" x1="31.168" y1="97.473" x2="27.343" y2="111.976" />
      <line id="20,36" x1="79.585" y1="144.185" x2="92.633" y2="151.584" />
      <line id="21,35" x1="72.187" y1="157.234" x2="85.235" y2="164.632" />
      <line id="22,34" x1="64.788" y1="170.283" x2="77.837" y2="177.681" />
      <line id="23,33" x1="57.390" y1="183.331" x2="70.439" y2="190.729" />
      <line id="24,32" x1="49.992" y1="196.380" x2="63.040" y2="203.778" />
      <line id="41,58" x1="133.729" y1="117.456" x2="134.783" y2="102.493" />
      <line id="42,57" x1="148.692" y1="118.510" x2="149.746" y2="103.547" />
      <line id="43,56" x1="163.655" y1="119.564" x2="164.709" y2="104.601" />
      <line id="44,55" x1="178.618" y1="120.618" x2="179.672" y2="105.655" />
      <line id="45,54" x1="193.581" y1="121.673" x2="194.635" y2="106.710" />
    </g>
    <g style="font-family: SansSerif" transform="translate(-4.6, 4)" id="seq">
      <text x="114.051" y="0.679">A</text>
      <text x="113.348" y="15.663">G</text>
      <text x="112.645" y="30.646">C</text>
      <text x="111.942" y="45.630">U</text>
      <text x="111.239" y="60.613">U</text>
      <text x="110.536" y="75.597">C</text>
      <text x="109.833" y="90.580">G</text>
      <text x="94.920" y="91.238">G</text>
      <text x="82.464" y="98.008">G</text>
      <text x="74.680" y="108.949">G</text>
      <text x="60.176" y="105.124">U</text>
      <text x="45.672" y="101.298">G</text>
      <text x="31.168" y="97.473">U</text>
      <text x="6.439" y="98.706">A</text>
      <text x="27.343" y="111.976">A</text>
      <text x="41.847" y="115.802">C</text>
      <text x="56.351" y="119.628">A</text>
      <text x="70.855" y="123.453">U</text>
      <text x="73.139" y="134.696">G</text>
      <text x="79.585" y="144.185">C</text>
      <text x="72.187" y="157.234">C</text>
      <text x="64.788" y="170.283">A</text>
      <text x="57.390" y="183.331">G</text>
      <text x="49.992" y="196.380">A</text>
      <text x="34.582" y="199.037">U</text>
      <text x="24.525" y="211.012">U</text>
      <text x="24.569" y="226.649">G</text>
      <text x="34.695" y="238.566">C</text>
      <text x="50.120" y="241.136">A</text>
      <text x="63.561" y="233.145">A</text>
      <text x="68.673" y="218.366">A</text>
      <text x="63.040" y="203.778">U</text>
      <text x="70.439" y="190.729">C</text>
      <text x="77.837" y="177.681">U</text>
      <text x="85.235" y="164.632">G</text>
      <text x="92.633" y="151.584">G</text>
      <text x="104.345" y="153.235">A</text>
      <text x="116.157" y="150.059">G</text>
      <text x="126.096" y="142.258">A</text>
      <text x="132.380" y="130.832">G</text>
      <text x="133.729" y="117.456">G</text>
      <text x="148.692" y="118.510">C</text>
      <text x="163.655" y="119.564">A</text>
      <text x="178.618" y="120.618">G</text>
      <text x="193.581" y="121.673">G</text>
      <text x="201.682" y="134.907">U</text>
      <text x="216.028" y="140.821">U</text>
      <text x="231.102" y="137.140">A</text>
      <text x="241.108" y="125.280">A</text>
      <text x="242.199" y="109.801">A</text>
      <text x="233.954" y="96.656">A</text>
      <text x="219.545" y="90.898">G</text>
      <text x="204.512" y="94.742">A</text>
      <text x="194.635" y="106.710">U</text>
      <text x="179.672" y="105.655">C</text>
      <text x="164.709" y="104.601">U</text>
      <text x="149.746" y="103.547">G</text>
      <text x="134.783" y="102.493">C</text>
      <text x="124.816" y="91.283">C</text>
      <text x="125.519" y="76.300">G</text>
      <text x="126.222" y="61.316">G</text>
      <text x="126.925" y="46.333">A</text>
      <text x="127.628" y="31.349">G</text>
      <text x="128.332" y="16.366">C</text>
      <text x="129.035" y="1.382">U</text>
      <text x="132.126" y="-17.751">U</text>
    </g>
  </g>
</svg>
