<?xml version="1.0" encoding="UTF-8" standalone="yes"?>
<svg xmlns="http://www.w3.org/2000/svg" height="452" width="452">
<script type="text/ecmascript">
      <![CDATA[
        var shown = 1;
        function click() {
             var seq = document.getElementById("seq");
             if (shown==1) {
               seq.setAttribute("style", "visibility: hidden");
               shown = 0;
             } else {
               seq.setAttribute("style", "visibility: visible");
               shown = 1;
             }
         }
        ]]>
</script>
  <rect style="stroke: white; fill: white" height="452" x="0" y="0" width="452" onclick="click(evt)" />
  <g transform="scale(1.618948,1.618948) translate(33.811111,34.154030)">
    <polyline style="stroke: black; fill: none; stroke-width: 1.5" id="outline" points="
      110.748,-10.654
      110.103,4.332
      109.458,19.318
      108.812,34.304
      108.167,49.290
      99.889,61.673
      107.026,75.793
      90.368,78.284
      77.534,87.816
      71.078,101.500
      56.109,100.533
      41.140,99.565
      26.172,98.597
      17.994,85.410
      3.614,79.579
      -11.439,83.347
      -21.376,95.265
      -22.377,110.749
      -14.057,123.847
      0.386,129.522
      15.396,125.591
      25.204,113.566
      40.173,114.534
      55.142,115.501
      70.110,116.469
      76.521,130.207
      88.769,139.142
      86.837,154.017
      84.906,168.892
      75.456,181.581
      81.491,195.199
      68.221,203.472
      63.422,218.355
      69.360,232.821
      83.232,240.040
      98.487,236.602
      107.923,224.132
      107.084,208.517
      96.366,197.130
      105.677,185.505
      99.781,170.824
      101.712,155.948
      103.644,141.073
      114.053,139.058
      123.476,133.447
      130.671,124.692
      134.600,113.674
      134.566,101.611
      149.479,100.000
      164.392,98.389
      178.944,104.600
      190.766,95.541
      201.920,106.501
      217.514,107.676
      230.184,98.511
      233.949,83.333
      227.030,69.309
      212.695,63.061
      197.712,67.538
      189.156,80.627
      175.671,74.302
      162.782,83.476
      147.868,85.087
      132.955,86.697
      122.012,76.439
      130.336,62.984
      123.153,49.936
      123.798,34.950
      124.444,19.964
      125.089,4.977
      125.734,-10.009
      128.752,-29.154
    " />
    <g style="stroke: black; stroke-width: 1" id="pairs">
      <line id="1,71" x1="110.748" y1="-10.654" x2="125.734" y2="-10.009" />
      <line id="2,70" x1="110.103" y1=" 4.332" x2="125.089" y2=" 4.977" />
      <line id="3,69" x1="109.458" y1="19.318" x2="124.444" y2="19.964" />
      <line id="4,68" x1="108.812" y1="34.304" x2="123.798" y2="34.950" />
      <line id="5,67" x1="108.167" y1="49.290" x2="123.153" y2="49.936" />
      <line id="7,65" x1="107.026" y1="75.793" x2="122.012" y2="76.439" />
      <line id="10,25" x1="71.078" y1="101.500" x2="70.110" y2="116.469" />
      <line id="11,24" x1="56.109" y1="100.533" x2="55.142" y2="115.501" />
      <line id="12,23" x1="41.140" y1="99.565" x2="40.173" y2="114.534" />
      <line id="13,22" x1="26.172" y1="98.597" x2="25.204" y2="113.566" />
      <line id="27,43" x1="88.769" y1="139.142" x2="103.644" y2="141.073" />
      <line id="28,42" x1="86.837" y1="154.017" x2="101.712" y2="155.948" />
      <line id="29,41" x1="84.906" y1="168.892" x2="99.781" y2="170.824" />
      <line id="31,39" x1="81.491" y1="195.199" x2="96.366" y2="197.130" />
      <line id="48,64" x1="134.566" y1="101.611" x2="132.955" y2="86.697" />
      <line id="49,63" x1="149.479" y1="100.000" x2="147.868" y2="85.087" />
      <line id="50,62" x1="164.392" y1="98.389" x2="162.782" y2="83.476" />
      <line id="52,60" x1="190.766" y1="95.541" x2="189.156" y2="80.627" />
    </g>
    <g style="font-family: SansSerif" transform="translate(-4.6, 4)" id="seq">
      <text x="110.748" y="-10.654">A</text>
      <text x="110.103" y="4.332">G</text>
      <text x="109.458" y="19.318">A</text>
      <text x="108.812" y="34.304">G</text>
      <text x="108.167" y="49.290">U</text>
      <text x="99.889" y="61.673">A</text>
      <text x="107.026" y="75.793">C</text>
      <text x="90.368" y="78.284">U</text>
      <text x="77.534" y="87.816">A</text>
      <text x="71.078" y="101.500">G</text>
      <text x="56.109" y="100.533">U</text>
      <text x="41.140" y="99.565">A</text>
      <text x="26.172" y="98.597">U</text>
      <text x="17.994" y="85.410">A</text>
      <text x="3.614" y="79.579">A</text>
      <text x="-11.439" y="83.347">U</text>
      <text x="-21.376" y="95.265">C</text>
      <text x="-22.377" y="110.749">G</text>
      <text x="-14.057" y="123.847">A</text>
      <text x="0.386" y="129.522">C</text>
      <text x="15.396" y="125.591">A</text>
      <text x="25.204" y="113.566">A</text>
      <text x="40.173" y="114.534">U</text>
      <text x="55.142" y="115.501">A</text>
      <text x="70.110" y="116.469">C</text>
      <text x="76.521" y="130.207">A</text>
      <text x="88.769" y="139.142">C</text>
      <text x="86.837" y="154.017">U</text>
      <text x="84.906" y="168.892">G</text>
      <text x="75.456" y="181.581">C</text>
      <text x="81.491" y="195.199">C</text>
      <text x="68.221" y="203.472">U</text>
      <text x="63.422" y="218.355">U</text>
      <text x="69.360" y="232.821">G</text>
      <text x="83.232" y="240.040">U</text>
      <text x="98.487" y="236.602">C</text>
      <text x="107.923" y="224.132">A</text>
      <text x="107.084" y="208.517">A</text>
      <text x="96.366" y="197.130">G</text>
      <text x="105.677" y="185.505">A</text>
      <text x="99.781" y="170.824">C</text>
      <text x="101.712" y="155.948">A</text>
      <text x="103.644" y="141.073">G</text>
      <text x="114.053" y="139.058">U</text>
      <text x="123.476" y="133.447">A</text>
      <text x="130.671" y="124.692">C</text>
      <text x="134.600" y="113.674">U</text>
      <text x="134.566" y="101.611">G</text>
      <text x="149.479" y="100.000">C</text>
      <text x="164.392" y="98.389">A</text>
      <text x="178.944" y="104.600">A</text>
      <text x="190.766" y="95.541">G</text>
      <text x="201.920" y="106.501">U</text>
      <text x="217.514" y="107.676">U</text>
      <text x="230.184" y="98.511">A</text>
      <text x="233.949" y="83.333">A</text>
      <text x="227.030" y="69.309">A</text>
      <text x="212.695" y="63.061">U</text>
      <text x="197.712" y="67.538">U</text>
      <text x="189.156" y="80.627">C</text>
      <text x="175.671" y="74.302">C</text>
      <text x="162.782" y="83.476">U</text>
      <text x="147.868" y="85.087">G</text>
      <text x="132.955" y="86.697">C</text>
      <text x="122.012" y="76.439">G</text>
      <text x="130.336" y="62.984">C</text>
      <text x="123.153" y="49.936">A</text>
      <text x="123.798" y="34.950">C</text>
      <text x="124.444" y="19.964">U</text>
      <text x="125.089" y="4.977">C</text>
      <text x="125.734" y="-10.009">U</text>
      <text x="128.752" y="-29.154">U</text>
    </g>
  </g>
</svg>
