<?xml version="1.0" encoding="UTF-8" standalone="yes"?>
<svg xmlns="http://www.w3.org/2000/svg" height="452" width="452">
<script type="text/ecmascript">
      <![CDATA[
        var shown = 1;
        function click() {
             var seq = document.getElementById("seq");
             if (shown==1) {
               seq.setAttribute("style", "visibility: hidden");
               shown = 0;
             } else {
               seq.setAttribute("style", "visibility: visible");
               shown = 1;
             }
         }
        ]]>
</script>
  <rect style="stroke: white; fill: white" height="452" x="0" y="0" width="452" onclick="click(evt)" />
  <g transform="scale(1.606493,1.606493) translate(33.593834,36.516289)">
    <polyline style="stroke: black; fill: none; stroke-width: 1.5" id="outline" points="
      111.278,-13.049
      110.605,1.935
      109.932,16.920
      109.259,31.905
      100.959,44.273
      108.069,58.406
      107.396,73.391
      90.905,75.641
      78.056,84.837
      71.370,98.219
      56.430,96.874
      41.490,95.529
      26.551,94.185
      16.616,81.894
      0.891,80.311
      -11.294,90.375
      -12.711,106.116
      -2.519,118.194
      13.236,119.444
      25.206,109.124
      40.146,110.469
      55.085,111.814
      70.025,113.158
      75.843,126.719
      87.367,135.935
      84.689,150.694
      82.010,165.453
      79.332,180.212
      76.654,194.971
      62.984,202.564
      57.441,217.186
      62.643,231.933
      76.133,239.842
      91.542,237.178
      101.594,225.199
      101.543,209.562
      91.413,197.649
      94.091,182.890
      96.769,168.131
      99.448,153.372
      102.126,138.613
      112.843,137.013
      122.666,131.618
      130.255,122.872
      134.476,111.692
      134.568,99.369
      149.507,98.025
      164.447,96.680
      179.387,95.336
      189.494,107.109
      204.599,110.661
      218.894,104.624
      226.882,91.321
      225.491,75.866
      215.256,64.203
      200.113,60.815
      185.885,67.007
      178.042,80.396
      163.102,81.741
      148.163,83.085
      133.223,84.430
      122.381,74.064
      123.054,59.079
      131.403,45.640
      124.244,32.578
      124.917,17.593
      125.590,2.608
      126.263,-12.376
      129.316,-31.516
    " />
    <g style="stroke: black; stroke-width: 1" id="pairs">
      <line id="1,68" x1="111.278" y1="-13.049" x2="126.263" y2="-12.376" />
      <line id="2,67" x1="110.605" y1=" 1.935" x2="125.590" y2=" 2.608" />
      <line id="3,66" x1="109.932" y1="16.920" x2="124.917" y2="17.593" />
      <line id="4,65" x1="109.259" y1="31.905" x2="124.244" y2="32.578" />
      <line id="6,63" x1="108.069" y1="58.406" x2="123.054" y2="59.079" />
      <line id="7,62" x1="107.396" y1="73.391" x2="122.381" y2="74.064" />
      <line id="10,23" x1="71.370" y1="98.219" x2="70.025" y2="113.158" />
      <line id="11,22" x1="56.430" y1="96.874" x2="55.085" y2="111.814" />
      <line id="12,21" x1="41.490" y1="95.529" x2="40.146" y2="110.469" />
      <line id="13,20" x1="26.551" y1="94.185" x2="25.206" y2="109.124" />
      <line id="25,41" x1="87.367" y1="135.935" x2="102.126" y2="138.613" />
      <line id="26,40" x1="84.689" y1="150.694" x2="99.448" y2="153.372" />
      <line id="27,39" x1="82.010" y1="165.453" x2="96.769" y2="168.131" />
      <line id="28,38" x1="79.332" y1="180.212" x2="94.091" y2="182.890" />
      <line id="29,37" x1="76.654" y1="194.971" x2="91.413" y2="197.649" />
      <line id="46,61" x1="134.568" y1="99.369" x2="133.223" y2="84.430" />
      <line id="47,60" x1="149.507" y1="98.025" x2="148.163" y2="83.085" />
      <line id="48,59" x1="164.447" y1="96.680" x2="163.102" y2="81.741" />
      <line id="49,58" x1="179.387" y1="95.336" x2="178.042" y2="80.396" />
    </g>
    <g style="font-family: SansSerif" transform="translate(-4.6, 4)" id="seq">
      <text x="111.278" y="-13.049">G</text>
      <text x="110.605" y="1.935">C</text>
      <text x="109.932" y="16.920">C</text>
      <text x="109.259" y="31.905">U</text>
      <text x="100.959" y="44.273">A</text>
      <text x="108.069" y="58.406">C</text>
      <text x="107.396" y="73.391">G</text>
      <text x="90.905" y="75.641">U</text>
      <text x="78.056" y="84.837">A</text>
      <text x="71.370" y="98.219">G</text>
      <text x="56.430" y="96.874">C</text>
      <text x="41.490" y="95.529">U</text>
      <text x="26.551" y="94.185">U</text>
      <text x="16.616" y="81.894">A</text>
      <text x="0.891" y="80.311">A</text>
      <text x="-11.294" y="90.375">A</text>
      <text x="-12.711" y="106.116">U</text>
      <text x="-2.519" y="118.194">C</text>
      <text x="13.236" y="119.444">A</text>
      <text x="25.206" y="109.124">A</text>
      <text x="40.146" y="110.469">A</text>
      <text x="55.085" y="111.814">G</text>
      <text x="70.025" y="113.158">C</text>
      <text x="75.843" y="126.719">G</text>
      <text x="87.367" y="135.935">U</text>
      <text x="84.689" y="150.694">A</text>
      <text x="82.010" y="165.453">G</text>
      <text x="79.332" y="180.212">C</text>
      <text x="76.654" y="194.971">A</text>
      <text x="62.984" y="202.564">C</text>
      <text x="57.441" y="217.186">U</text>
      <text x="62.643" y="231.933">G</text>
      <text x="76.133" y="239.842">A</text>
      <text x="91.542" y="237.178">A</text>
      <text x="101.594" y="225.199">G</text>
      <text x="101.543" y="209.562">A</text>
      <text x="91.413" y="197.649">U</text>
      <text x="94.091" y="182.890">G</text>
      <text x="96.769" y="168.131">C</text>
      <text x="99.448" y="153.372">U</text>
      <text x="102.126" y="138.613">A</text>
      <text x="112.843" y="137.013">A</text>
      <text x="122.666" y="131.618">U</text>
      <text x="130.255" y="122.872">A</text>
      <text x="134.476" y="111.692">U</text>
      <text x="134.568" y="99.369">G</text>
      <text x="149.507" y="98.025">G</text>
      <text x="164.447" y="96.680">A</text>
      <text x="179.387" y="95.336">G</text>
      <text x="189.494" y="107.109">C</text>
      <text x="204.599" y="110.661">C</text>
      <text x="218.894" y="104.624">C</text>
      <text x="226.882" y="91.321">U</text>
      <text x="225.491" y="75.866">U</text>
      <text x="215.256" y="64.203">A</text>
      <text x="200.113" y="60.815">A</text>
      <text x="185.885" y="67.007">A</text>
      <text x="178.042" y="80.396">C</text>
      <text x="163.102" y="81.741">U</text>
      <text x="148.163" y="83.085">C</text>
      <text x="133.223" y="84.430">C</text>
      <text x="122.381" y="74.064">C</text>
      <text x="123.054" y="59.079">G</text>
      <text x="131.403" y="45.640">A</text>
      <text x="124.244" y="32.578">A</text>
      <text x="124.917" y="17.593">G</text>
      <text x="125.590" y="2.608">G</text>
      <text x="126.263" y="-12.376">C</text>
      <text x="129.316" y="-31.516">A</text>
    </g>
  </g>
</svg>
