<?xml version="1.0" encoding="UTF-8" standalone="yes"?>
<svg xmlns="http://www.w3.org/2000/svg" height="452" width="452">
<script type="text/ecmascript">
      <![CDATA[
        var shown = 1;
        function click() {
             var seq = document.getElementById("seq");
             if (shown==1) {
               seq.setAttribute("style", "visibility: hidden");
               shown = 0;
             } else {
               seq.setAttribute("style", "visibility: visible");
               shown = 1;
             }
         }
        ]]>
</script>
  <rect style="stroke: white; fill: white" height="452" x="0" y="0" width="452" onclick="click(evt)" />
  <g transform="scale(1.640406,1.640406) translate(27.976929,25.236237)">
    <polyline style="stroke: black; fill: none; stroke-width: 1.5" id="outline" points="
      112.582,-1.736
      111.936,13.250
      111.291,28.236
      110.646,43.222
      110.000,58.208
      109.355,73.194
      108.710,88.180
      90.311,90.164
      75.866,100.349
      68.548,115.520
      53.580,114.553
      38.611,113.585
      31.877,99.781
      19.135,91.206
      3.811,90.167
      -9.972,96.944
      -18.507,109.713
      -19.497,125.040
      -12.678,138.802
      0.118,147.296
      15.448,148.239
      29.189,141.376
      37.643,128.554
      52.612,129.522
      67.581,130.489
      71.382,141.237
      78.627,150.040
      88.442,155.839
      86.511,170.714
      84.580,185.590
      82.649,200.465
      69.378,208.738
      64.580,223.621
      70.518,238.087
      84.390,245.305
      99.645,241.868
      109.081,229.398
      108.241,213.783
      97.524,202.396
      99.455,187.521
      101.386,172.646
      103.317,157.771
      112.985,156.176
      121.985,151.718
      129.470,144.658
      134.689,135.507
      137.064,124.993
      136.250,113.998
      151.163,112.387
      166.077,110.776
      180.990,109.166
      195.903,107.555
      207.057,118.515
      222.650,119.690
      235.320,110.525
      239.085,95.347
      232.167,81.324
      217.832,75.075
      202.849,79.553
      194.292,92.642
      179.379,94.252
      164.466,95.863
      149.553,97.474
      134.639,99.085
      123.696,88.826
      124.341,73.840
      124.987,58.854
      125.632,43.868
      126.277,28.881
      126.923,13.895
      127.568,-1.091
      130.585,-20.236
    " />
    <g style="stroke: black; stroke-width: 1" id="pairs">
      <line id="1,71" x1="112.582" y1="-1.736" x2="127.568" y2="-1.091" />
      <line id="2,70" x1="111.936" y1="13.250" x2="126.923" y2="13.895" />
      <line id="3,69" x1="111.291" y1="28.236" x2="126.277" y2="28.881" />
      <line id="4,68" x1="110.646" y1="43.222" x2="125.632" y2="43.868" />
      <line id="5,67" x1="110.000" y1="58.208" x2="124.987" y2="58.854" />
      <line id="6,66" x1="109.355" y1="73.194" x2="124.341" y2="73.840" />
      <line id="7,65" x1="108.710" y1="88.180" x2="123.696" y2="88.826" />
      <line id="10,25" x1="68.548" y1="115.520" x2="67.581" y2="130.489" />
      <line id="11,24" x1="53.580" y1="114.553" x2="52.612" y2="129.522" />
      <line id="12,23" x1="38.611" y1="113.585" x2="37.643" y2="128.554" />
      <line id="28,42" x1="88.442" y1="155.839" x2="103.317" y2="157.771" />
      <line id="29,41" x1="86.511" y1="170.714" x2="101.386" y2="172.646" />
      <line id="30,40" x1="84.580" y1="185.590" x2="99.455" y2="187.521" />
      <line id="31,39" x1="82.649" y1="200.465" x2="97.524" y2="202.396" />
      <line id="48,64" x1="136.250" y1="113.998" x2="134.639" y2="99.085" />
      <line id="49,63" x1="151.163" y1="112.387" x2="149.553" y2="97.474" />
      <line id="50,62" x1="166.077" y1="110.776" x2="164.466" y2="95.863" />
      <line id="51,61" x1="180.990" y1="109.166" x2="179.379" y2="94.252" />
      <line id="52,60" x1="195.903" y1="107.555" x2="194.292" y2="92.642" />
    </g>
    <g style="font-family: SansSerif" transform="translate(-4.6, 4)" id="seq">
      <text x="112.582" y="-1.736">A</text>
      <text x="111.936" y="13.250">U</text>
      <text x="111.291" y="28.236">C</text>
      <text x="110.646" y="43.222">U</text>
      <text x="110.000" y="58.208">U</text>
      <text x="109.355" y="73.194">U</text>
      <text x="108.710" y="88.180">C</text>
      <text x="90.311" y="90.164">U</text>
      <text x="75.866" y="100.349">A</text>
      <text x="68.548" y="115.520">G</text>
      <text x="53.580" y="114.553">U</text>
      <text x="38.611" y="113.585">A</text>
      <text x="31.877" y="99.781">A</text>
      <text x="19.135" y="91.206">U</text>
      <text x="3.811" y="90.167">A</text>
      <text x="-9.972" y="96.944">A</text>
      <text x="-18.507" y="109.713">A</text>
      <text x="-19.497" y="125.040">A</text>
      <text x="-12.678" y="138.802">U</text>
      <text x="0.118" y="147.296">U</text>
      <text x="15.448" y="148.239">A</text>
      <text x="29.189" y="141.376">A</text>
      <text x="37.643" y="128.554">U</text>
      <text x="52.612" y="129.522">A</text>
      <text x="67.581" y="130.489">C</text>
      <text x="71.382" y="141.237">A</text>
      <text x="78.627" y="150.040">A</text>
      <text x="88.442" y="155.839">G</text>
      <text x="86.511" y="170.714">U</text>
      <text x="84.580" y="185.590">G</text>
      <text x="82.649" y="200.465">G</text>
      <text x="69.378" y="208.738">C</text>
      <text x="64.580" y="223.621">U</text>
      <text x="70.518" y="238.087">U</text>
      <text x="84.390" y="245.305">C</text>
      <text x="99.645" y="241.868">C</text>
      <text x="109.081" y="229.398">A</text>
      <text x="108.241" y="213.783">A</text>
      <text x="97.524" y="202.396">C</text>
      <text x="99.455" y="187.521">C</text>
      <text x="101.386" y="172.646">A</text>
      <text x="103.317" y="157.771">C</text>
      <text x="112.985" y="156.176">A</text>
      <text x="121.985" y="151.718">A</text>
      <text x="129.470" y="144.658">A</text>
      <text x="134.689" y="135.507">A</text>
      <text x="137.064" y="124.993">U</text>
      <text x="136.250" y="113.998">C</text>
      <text x="151.163" y="112.387">U</text>
      <text x="166.077" y="110.776">U</text>
      <text x="180.990" y="109.166">G</text>
      <text x="195.903" y="107.555">G</text>
      <text x="207.057" y="118.515">U</text>
      <text x="222.650" y="119.690">U</text>
      <text x="235.320" y="110.525">U</text>
      <text x="239.085" y="95.347">A</text>
      <text x="232.167" y="81.324">A</text>
      <text x="217.832" y="75.075">U</text>
      <text x="202.849" y="79.553">U</text>
      <text x="194.292" y="92.642">C</text>
      <text x="179.379" y="94.252">C</text>
      <text x="164.466" y="95.863">A</text>
      <text x="149.553" y="97.474">A</text>
      <text x="134.639" y="99.085">G</text>
      <text x="123.696" y="88.826">G</text>
      <text x="124.341" y="73.840">A</text>
      <text x="124.987" y="58.854">A</text>
      <text x="125.632" y="43.868">A</text>
      <text x="126.277" y="28.881">G</text>
      <text x="126.923" y="13.895">A</text>
      <text x="127.568" y="-1.091">U</text>
      <text x="130.585" y="-20.236">A</text>
    </g>
  </g>
</svg>
