<?xml version="1.0" encoding="UTF-8" standalone="yes"?>
<svg xmlns="http://www.w3.org/2000/svg" height="452" width="452">
<script type="text/ecmascript">
      <![CDATA[
        var shown = 1;
        function click() {
             var seq = document.getElementById("seq");
             if (shown==1) {
               seq.setAttribute("style", "visibility: hidden");
               shown = 0;
             } else {
               seq.setAttribute("style", "visibility: visible");
               shown = 1;
             }
         }
        ]]>
</script>
  <rect style="stroke: white; fill: white" height="452" x="0" y="0" width="452" onclick="click(evt)" />
  <g transform="scale(1.619197,1.619197) translate(19.106796,30.791847)">
    <polyline style="stroke: black; fill: none; stroke-width: 1.5" id="outline" points="
      112.756,-7.325
      112.083,7.660
      111.410,22.645
      110.737,37.630
      110.064,52.615
      109.391,67.599
      108.718,82.584
      92.533,84.053
      79.422,92.259
      71.844,104.835
      57.085,102.157
      42.326,99.478
      33.533,86.346
      18.013,83.360
      4.975,92.291
      2.153,107.841
      11.222,120.785
      26.801,123.442
      39.648,114.237
      54.407,116.915
      69.165,119.594
      73.124,132.817
      82.445,142.997
      77.174,157.041
      71.904,171.084
      66.633,185.128
      61.363,199.171
      46.556,204.202
      38.492,217.600
      40.977,233.038
      52.838,243.229
      68.475,243.359
      80.505,233.367
      83.246,217.972
      75.406,204.442
      80.677,190.398
      85.947,176.355
      91.218,162.311
      96.489,148.268
      106.546,148.645
      116.464,145.725
      125.163,139.647
      131.642,130.898
      135.089,120.283
      134.983,108.849
      149.967,108.176
      164.952,107.503
      179.937,106.830
      194.922,106.157
      205.367,117.795
      220.856,119.944
      234.076,111.591
      238.784,96.680
      232.758,82.250
      218.843,75.115
      203.609,78.645
      194.249,91.172
      179.264,91.845
      164.279,92.518
      149.295,93.191
      134.310,93.864
      123.703,83.257
      124.376,68.272
      125.049,53.288
      125.722,38.303
      126.395,23.318
      127.068,8.333
      127.741,-6.652
      130.793,-25.792
    " />
    <g style="stroke: black; stroke-width: 1" id="pairs">
      <line id="1,68" x1="112.756" y1="-7.325" x2="127.741" y2="-6.652" />
      <line id="2,67" x1="112.083" y1=" 7.660" x2="127.068" y2=" 8.333" />
      <line id="3,66" x1="111.410" y1="22.645" x2="126.395" y2="23.318" />
      <line id="4,65" x1="110.737" y1="37.630" x2="125.722" y2="38.303" />
      <line id="5,64" x1="110.064" y1="52.615" x2="125.049" y2="53.288" />
      <line id="6,63" x1="109.391" y1="67.599" x2="124.376" y2="68.272" />
      <line id="7,62" x1="108.718" y1="82.584" x2="123.703" y2="83.257" />
      <line id="10,21" x1="71.844" y1="104.835" x2="69.165" y2="119.594" />
      <line id="11,20" x1="57.085" y1="102.157" x2="54.407" y2="116.915" />
      <line id="12,19" x1="42.326" y1="99.478" x2="39.648" y2="114.237" />
      <line id="23,39" x1="82.445" y1="142.997" x2="96.489" y2="148.268" />
      <line id="24,38" x1="77.174" y1="157.041" x2="91.218" y2="162.311" />
      <line id="25,37" x1="71.904" y1="171.084" x2="85.947" y2="176.355" />
      <line id="26,36" x1="66.633" y1="185.128" x2="80.677" y2="190.398" />
      <line id="27,35" x1="61.363" y1="199.171" x2="75.406" y2="204.442" />
      <line id="45,61" x1="134.983" y1="108.849" x2="134.310" y2="93.864" />
      <line id="46,60" x1="149.967" y1="108.176" x2="149.295" y2="93.191" />
      <line id="47,59" x1="164.952" y1="107.503" x2="164.279" y2="92.518" />
      <line id="48,58" x1="179.937" y1="106.830" x2="179.264" y2="91.845" />
      <line id="49,57" x1="194.922" y1="106.157" x2="194.249" y2="91.172" />
    </g>
    <g style="font-family: SansSerif" transform="translate(-4.6, 4)" id="seq">
      <text x="112.756" y="-7.325">G</text>
      <text x="112.083" y="7.660">G</text>
      <text x="111.410" y="22.645">A</text>
      <text x="110.737" y="37.630">A</text>
      <text x="110.064" y="52.615">C</text>
      <text x="109.391" y="67.599">C</text>
      <text x="108.718" y="82.584">G</text>
      <text x="92.533" y="84.053">U</text>
      <text x="79.422" y="92.259">G</text>
      <text x="71.844" y="104.835">C</text>
      <text x="57.085" y="102.157">C</text>
      <text x="42.326" y="99.478">U</text>
      <text x="33.533" y="86.346">G</text>
      <text x="18.013" y="83.360">A</text>
      <text x="4.975" y="92.291">A</text>
      <text x="2.153" y="107.841">U</text>
      <text x="11.222" y="120.785">A</text>
      <text x="26.801" y="123.442">A</text>
      <text x="39.648" y="114.237">A</text>
      <text x="54.407" y="116.915">G</text>
      <text x="69.165" y="119.594">G</text>
      <text x="73.124" y="132.817">G</text>
      <text x="82.445" y="142.997">C</text>
      <text x="77.174" y="157.041">U</text>
      <text x="71.904" y="171.084">A</text>
      <text x="66.633" y="185.128">C</text>
      <text x="61.363" y="199.171">U</text>
      <text x="46.556" y="204.202">U</text>
      <text x="38.492" y="217.600">U</text>
      <text x="40.977" y="233.038">G</text>
      <text x="52.838" y="243.229">A</text>
      <text x="68.475" y="243.359">U</text>
      <text x="80.505" y="233.367">A</text>
      <text x="83.246" y="217.972">G</text>
      <text x="75.406" y="204.442">A</text>
      <text x="80.677" y="190.398">G</text>
      <text x="85.947" y="176.355">U</text>
      <text x="91.218" y="162.311">A</text>
      <text x="96.489" y="148.268">G</text>
      <text x="106.546" y="148.645">A</text>
      <text x="116.464" y="145.725">C</text>
      <text x="125.163" y="139.647">U</text>
      <text x="131.642" y="130.898">A</text>
      <text x="135.089" y="120.283">U</text>
      <text x="134.983" y="108.849">G</text>
      <text x="149.967" y="108.176">G</text>
      <text x="164.952" y="107.503">G</text>
      <text x="179.937" y="106.830">G</text>
      <text x="194.922" y="106.157">A</text>
      <text x="205.367" y="117.795">U</text>
      <text x="220.856" y="119.944">U</text>
      <text x="234.076" y="111.591">A</text>
      <text x="238.784" y="96.680">C</text>
      <text x="232.758" y="82.250">A</text>
      <text x="218.843" y="75.115">U</text>
      <text x="203.609" y="78.645">C</text>
      <text x="194.249" y="91.172">U</text>
      <text x="179.264" y="91.845">C</text>
      <text x="164.279" y="92.518">C</text>
      <text x="149.295" y="93.191">C</text>
      <text x="134.310" y="93.864">C</text>
      <text x="123.703" y="83.257">C</text>
      <text x="124.376" y="68.272">G</text>
      <text x="125.049" y="53.288">G</text>
      <text x="125.722" y="38.303">U</text>
      <text x="126.395" y="23.318">U</text>
      <text x="127.068" y="8.333">C</text>
      <text x="127.741" y="-6.652">C</text>
      <text x="130.793" y="-25.792">U</text>
    </g>
  </g>
</svg>
