<?xml version="1.0" encoding="UTF-8" standalone="yes"?>
<svg xmlns="http://www.w3.org/2000/svg" height="452" width="452">
<script type="text/ecmascript">
      <![CDATA[
        var shown = 1;
        function click() {
             var seq = document.getElementById("seq");
             if (shown==1) {
               seq.setAttribute("style", "visibility: hidden");
               shown = 0;
             } else {
               seq.setAttribute("style", "visibility: visible");
               shown = 1;
             }
         }
        ]]>
</script>
  <rect style="stroke: white; fill: white" height="452" x="0" y="0" width="452" onclick="click(evt)" />
  <g transform="scale(1.582108,1.582108) translate(38.631027,39.392937)">
    <polyline style="stroke: black; fill: none; stroke-width: 1.5" id="outline" points="
      110.119,-15.882
      109.483,-0.896
      108.846,14.091
      108.210,29.077
      107.573,44.064
      99.302,56.451
      106.447,70.567
      89.207,73.489
      76.083,83.695
      69.710,98.116
      54.724,97.479
      39.737,96.842
      33.264,82.973
      21.080,73.710
      5.984,71.182
      -8.553,75.970
      -19.192,86.973
      -23.488,101.663
      -20.454,116.665
      -10.786,128.531
      3.293,134.534
      18.548,133.295
      31.474,125.099
      39.101,111.829
      54.087,112.465
      69.074,113.102
      76.324,127.747
      89.929,136.798
      88.657,151.744
      87.385,166.690
      86.113,181.636
      84.841,196.582
      71.949,205.433
      67.812,220.514
      74.384,234.703
      88.561,241.302
      103.650,237.194
      112.525,224.319
      110.997,208.757
      99.787,197.854
      101.059,182.908
      102.331,167.962
      103.603,153.016
      104.875,138.070
      113.863,136.232
      122.178,131.789
      129.064,124.982
      133.848,116.274
      136.010,106.314
      135.229,95.898
      150.013,93.363
      164.797,90.828
      179.581,88.293
      194.366,85.758
      207.122,95.087
      222.727,92.581
      231.921,79.727
      229.250,64.150
      216.299,55.092
      200.751,57.927
      191.831,70.974
      177.046,73.509
      162.262,76.044
      147.478,78.579
      132.694,81.114
      121.434,71.204
      129.750,57.744
      122.559,44.700
      123.196,29.714
      123.833,14.727
      124.469,-0.259
      125.106,-15.246
      128.112,-34.393
    " />
    <g style="stroke: black; stroke-width: 1" id="pairs">
      <line id="1,72" x1="110.119" y1="-15.882" x2="125.106" y2="-15.246" />
      <line id="2,71" x1="109.483" y1="-0.896" x2="124.469" y2="-0.259" />
      <line id="3,70" x1="108.846" y1="14.091" x2="123.833" y2="14.727" />
      <line id="4,69" x1="108.210" y1="29.077" x2="123.196" y2="29.714" />
      <line id="5,68" x1="107.573" y1="44.064" x2="122.559" y2="44.700" />
      <line id="7,66" x1="106.447" y1="70.567" x2="121.434" y2="71.204" />
      <line id="10,26" x1="69.710" y1="98.116" x2="69.074" y2="113.102" />
      <line id="11,25" x1="54.724" y1="97.479" x2="54.087" y2="112.465" />
      <line id="12,24" x1="39.737" y1="96.842" x2="39.101" y2="111.829" />
      <line id="28,44" x1="89.929" y1="136.798" x2="104.875" y2="138.070" />
      <line id="29,43" x1="88.657" y1="151.744" x2="103.603" y2="153.016" />
      <line id="30,42" x1="87.385" y1="166.690" x2="102.331" y2="167.962" />
      <line id="31,41" x1="86.113" y1="181.636" x2="101.059" y2="182.908" />
      <line id="32,40" x1="84.841" y1="196.582" x2="99.787" y2="197.854" />
      <line id="50,65" x1="135.229" y1="95.898" x2="132.694" y2="81.114" />
      <line id="51,64" x1="150.013" y1="93.363" x2="147.478" y2="78.579" />
      <line id="52,63" x1="164.797" y1="90.828" x2="162.262" y2="76.044" />
      <line id="53,62" x1="179.581" y1="88.293" x2="177.046" y2="73.509" />
      <line id="54,61" x1="194.366" y1="85.758" x2="191.831" y2="70.974" />
    </g>
    <g style="font-family: SansSerif" transform="translate(-4.6, 4)" id="seq">
      <text x="110.119" y="-15.882">C</text>
      <text x="109.483" y="-0.896">A</text>
      <text x="108.846" y="14.091">C</text>
      <text x="108.210" y="29.077">U</text>
      <text x="107.573" y="44.064">G</text>
      <text x="99.302" y="56.451">A</text>
      <text x="106.447" y="70.567">G</text>
      <text x="89.207" y="73.489">U</text>
      <text x="76.083" y="83.695">A</text>
      <text x="69.710" y="98.116">G</text>
      <text x="54.724" y="97.479">C</text>
      <text x="39.737" y="96.842">U</text>
      <text x="33.264" y="82.973">A</text>
      <text x="21.080" y="73.710">A</text>
      <text x="5.984" y="71.182">A</text>
      <text x="-8.553" y="75.970">C</text>
      <text x="-19.192" y="86.973">U</text>
      <text x="-23.488" y="101.663">G</text>
      <text x="-20.454" y="116.665">A</text>
      <text x="-10.786" y="128.531">C</text>
      <text x="3.293" y="134.534">U</text>
      <text x="18.548" y="133.295">A</text>
      <text x="31.474" y="125.099">A</text>
      <text x="39.101" y="111.829">A</text>
      <text x="54.087" y="112.465">G</text>
      <text x="69.074" y="113.102">C</text>
      <text x="76.324" y="127.747">G</text>
      <text x="89.929" y="136.798">U</text>
      <text x="88.657" y="151.744">U</text>
      <text x="87.385" y="166.690">A</text>
      <text x="86.113" y="181.636">G</text>
      <text x="84.841" y="196.582">C</text>
      <text x="71.949" y="205.433">C</text>
      <text x="67.812" y="220.514">U</text>
      <text x="74.384" y="234.703">U</text>
      <text x="88.561" y="241.302">U</text>
      <text x="103.650" y="237.194">U</text>
      <text x="112.525" y="224.319">A</text>
      <text x="110.997" y="208.757">A</text>
      <text x="99.787" y="197.854">G</text>
      <text x="101.059" y="182.908">C</text>
      <text x="102.331" y="167.962">U</text>
      <text x="103.603" y="153.016">A</text>
      <text x="104.875" y="138.070">A</text>
      <text x="113.863" y="136.232">A</text>
      <text x="122.178" y="131.789">G</text>
      <text x="129.064" y="124.982">A</text>
      <text x="133.848" y="116.274">U</text>
      <text x="136.010" y="106.314">U</text>
      <text x="135.229" y="95.898">G</text>
      <text x="150.013" y="93.363">G</text>
      <text x="164.797" y="90.828">U</text>
      <text x="179.581" y="88.293">G</text>
      <text x="194.366" y="85.758">G</text>
      <text x="207.122" y="95.087">C</text>
      <text x="222.727" y="92.581">U</text>
      <text x="231.921" y="79.727">A</text>
      <text x="229.250" y="64.150">C</text>
      <text x="216.299" y="55.092">A</text>
      <text x="200.751" y="57.927">A</text>
      <text x="191.831" y="70.974">U</text>
      <text x="177.046" y="73.509">C</text>
      <text x="162.262" y="76.044">A</text>
      <text x="147.478" y="78.579">C</text>
      <text x="132.694" y="81.114">C</text>
      <text x="121.434" y="71.204">C</text>
      <text x="129.750" y="57.744">G</text>
      <text x="122.559" y="44.700">C</text>
      <text x="123.196" y="29.714">A</text>
      <text x="123.833" y="14.727">G</text>
      <text x="124.469" y="-0.259">U</text>
      <text x="125.106" y="-15.246">G</text>
      <text x="128.112" y="-34.393">G</text>
    </g>
  </g>
</svg>
