<?xml version="1.0" encoding="UTF-8" standalone="yes"?>
<svg xmlns="http://www.w3.org/2000/svg" height="452" width="452">
<script type="text/ecmascript">
      <![CDATA[
        var shown = 1;
        function click() {
             var seq = document.getElementById("seq");
             if (shown==1) {
               seq.setAttribute("style", "visibility: hidden");
               shown = 0;
             } else {
               seq.setAttribute("style", "visibility: visible");
               shown = 1;
             }
         }
        ]]>
</script>
  <rect style="stroke: white; fill: white" height="452" x="0" y="0" width="452" onclick="click(evt)" />
  <g transform="scale(1.625842,1.625842) translate(31.849930,32.140594)">
    <polyline style="stroke: black; fill: none; stroke-width: 1.5" id="outline" points="
      110.900,-8.630
      110.264,6.356
      109.627,21.343
      108.990,36.329
      108.354,51.316
      100.083,63.703
      107.228,77.819
      90.287,80.244
      77.119,89.811
      70.321,103.675
      55.375,102.403
      40.429,101.131
      25.483,99.859
      17.575,86.508
      3.317,80.386
      -11.809,83.846
      -21.987,95.559
      -23.303,111.020
      -15.251,124.285
      -0.927,130.252
      14.160,126.628
      24.211,114.805
      39.157,116.077
      54.103,117.349
      69.049,118.621
      75.207,132.892
      87.466,142.448
      84.931,157.233
      82.396,172.017
      79.861,186.801
      65.620,192.734
      56.866,205.437
      56.392,220.857
      64.350,234.073
      78.200,240.869
      93.522,239.076
      105.428,229.265
      110.119,214.568
      106.096,199.674
      94.645,189.336
      97.180,174.552
      99.715,159.768
      102.250,144.983
      111.619,143.778
      120.452,139.755
      127.899,133.132
      133.196,124.385
      135.744,114.213
      135.167,103.481
      150.045,101.576
      164.924,99.671
      179.802,97.766
      194.681,95.860
      206.049,106.598
      221.663,107.464
      234.149,98.051
      237.613,82.801
      230.419,68.917
      215.963,62.953
      201.071,67.726
      192.776,80.982
      177.897,82.887
      163.019,84.792
      148.140,86.698
      133.262,88.603
      122.214,78.456
      130.530,64.997
      123.340,51.952
      123.977,36.966
      124.613,21.980
      125.250,6.993
      125.887,-7.993
      128.893,-27.141
    " />
    <g style="stroke: black; stroke-width: 1" id="pairs">
      <line id="1,72" x1="110.900" y1="-8.630" x2="125.887" y2="-7.993" />
      <line id="2,71" x1="110.264" y1=" 6.356" x2="125.250" y2=" 6.993" />
      <line id="3,70" x1="109.627" y1="21.343" x2="124.613" y2="21.980" />
      <line id="4,69" x1="108.990" y1="36.329" x2="123.977" y2="36.966" />
      <line id="5,68" x1="108.354" y1="51.316" x2="123.340" y2="51.952" />
      <line id="7,66" x1="107.228" y1="77.819" x2="122.214" y2="78.456" />
      <line id="10,25" x1="70.321" y1="103.675" x2="69.049" y2="118.621" />
      <line id="11,24" x1="55.375" y1="102.403" x2="54.103" y2="117.349" />
      <line id="12,23" x1="40.429" y1="101.131" x2="39.157" y2="116.077" />
      <line id="13,22" x1="25.483" y1="99.859" x2="24.211" y2="114.805" />
      <line id="27,43" x1="87.466" y1="142.448" x2="102.250" y2="144.983" />
      <line id="28,42" x1="84.931" y1="157.233" x2="99.715" y2="159.768" />
      <line id="29,41" x1="82.396" y1="172.017" x2="97.180" y2="174.552" />
      <line id="30,40" x1="79.861" y1="186.801" x2="94.645" y2="189.336" />
      <line id="49,65" x1="135.167" y1="103.481" x2="133.262" y2="88.603" />
      <line id="50,64" x1="150.045" y1="101.576" x2="148.140" y2="86.698" />
      <line id="51,63" x1="164.924" y1="99.671" x2="163.019" y2="84.792" />
      <line id="52,62" x1="179.802" y1="97.766" x2="177.897" y2="82.887" />
      <line id="53,61" x1="194.681" y1="95.860" x2="192.776" y2="80.982" />
    </g>
    <g style="font-family: SansSerif" transform="translate(-4.6, 4)" id="seq">
      <text x="110.900" y="-8.630">G</text>
      <text x="110.264" y="6.356">C</text>
      <text x="109.627" y="21.343">U</text>
      <text x="108.990" y="36.329">C</text>
      <text x="108.354" y="51.316">U</text>
      <text x="100.083" y="63.703">U</text>
      <text x="107.228" y="77.819">G</text>
      <text x="90.287" y="80.244">A</text>
      <text x="77.119" y="89.811">A</text>
      <text x="70.321" y="103.675">G</text>
      <text x="55.375" y="102.403">G</text>
      <text x="40.429" y="101.131">A</text>
      <text x="25.483" y="99.859">U</text>
      <text x="17.575" y="86.508">A</text>
      <text x="3.317" y="80.386">A</text>
      <text x="-11.809" y="83.846">C</text>
      <text x="-21.987" y="95.559">A</text>
      <text x="-23.303" y="111.020">G</text>
      <text x="-15.251" y="124.285">U</text>
      <text x="-0.927" y="130.252">U</text>
      <text x="14.160" y="126.628">C</text>
      <text x="24.211" y="114.805">A</text>
      <text x="39.157" y="116.077">U</text>
      <text x="54.103" y="117.349">C</text>
      <text x="69.049" y="118.621">C</text>
      <text x="75.207" y="132.892">C</text>
      <text x="87.466" y="142.448">U</text>
      <text x="84.931" y="157.233">U</text>
      <text x="82.396" y="172.017">G</text>
      <text x="79.861" y="186.801">G</text>
      <text x="65.620" y="192.734">A</text>
      <text x="56.866" y="205.437">C</text>
      <text x="56.392" y="220.857">U</text>
      <text x="64.350" y="234.073">U</text>
      <text x="78.200" y="240.869">A</text>
      <text x="93.522" y="239.076">G</text>
      <text x="105.428" y="229.265">G</text>
      <text x="110.119" y="214.568">A</text>
      <text x="106.096" y="199.674">C</text>
      <text x="94.645" y="189.336">C</text>
      <text x="97.180" y="174.552">C</text>
      <text x="99.715" y="159.768">A</text>
      <text x="102.250" y="144.983">A</text>
      <text x="111.619" y="143.778">A</text>
      <text x="120.452" y="139.755">A</text>
      <text x="127.899" y="133.132">A</text>
      <text x="133.196" y="124.385">C</text>
      <text x="135.744" y="114.213">U</text>
      <text x="135.167" y="103.481">C</text>
      <text x="150.045" y="101.576">U</text>
      <text x="164.924" y="99.671">U</text>
      <text x="179.802" y="97.766">G</text>
      <text x="194.681" y="95.860">G</text>
      <text x="206.049" y="106.598">U</text>
      <text x="221.663" y="107.464">G</text>
      <text x="234.149" y="98.051">C</text>
      <text x="237.613" y="82.801">A</text>
      <text x="230.419" y="68.917">A</text>
      <text x="215.963" y="62.953">A</text>
      <text x="201.071" y="67.726">U</text>
      <text x="192.776" y="80.982">C</text>
      <text x="177.897" y="82.887">C</text>
      <text x="163.019" y="84.792">A</text>
      <text x="148.140" y="86.698">A</text>
      <text x="133.262" y="88.603">G</text>
      <text x="122.214" y="78.456">C</text>
      <text x="130.530" y="64.997">C</text>
      <text x="123.340" y="51.952">A</text>
      <text x="123.977" y="36.966">G</text>
      <text x="124.613" y="21.980">A</text>
      <text x="125.250" y="6.993">G</text>
      <text x="125.887" y="-7.993">C</text>
      <text x="128.893" y="-27.141">U</text>
    </g>
  </g>
</svg>
