<?xml version="1.0" encoding="UTF-8" standalone="yes"?>
<svg xmlns="http://www.w3.org/2000/svg" height="452" width="452">
<script type="text/ecmascript">
      <![CDATA[
        var shown = 1;
        function click() {
             var seq = document.getElementById("seq");
             if (shown==1) {
               seq.setAttribute("style", "visibility: hidden");
               shown = 0;
             } else {
               seq.setAttribute("style", "visibility: visible");
               shown = 1;
             }
         }
        ]]>
</script>
  <rect style="stroke: white; fill: white" height="452" x="0" y="0" width="452" onclick="click(evt)" />
  <g transform="scale(1.634268,1.634268) translate(28.858154,25.431389)">
    <polyline style="stroke: black; fill: none; stroke-width: 1.5" id="outline" points="
      112.707,-1.921
      112.070,13.066
      111.434,28.052
      110.797,43.039
      110.160,58.025
      109.524,73.012
      108.887,87.998
      90.234,89.927
      75.475,100.128
      67.809,115.447
      52.863,114.175
      37.917,112.903
      31.466,98.964
      18.901,90.132
      3.601,88.781
      -10.317,95.276
      -19.110,107.869
      -20.412,123.172
      -13.874,137.070
      -1.254,145.823
      14.054,147.078
      27.931,140.496
      36.645,127.849
      51.591,129.121
      66.537,130.393
      70.108,141.466
      77.224,150.672
      87.040,156.918
      84.505,171.702
      81.970,186.487
      79.435,201.271
      65.839,208.997
      60.439,223.672
      65.784,238.368
      79.350,246.145
      94.732,243.332
      104.668,231.256
      104.465,215.620
      94.219,203.806
      96.754,189.022
      99.289,174.237
      101.824,159.453
      110.717,158.504
      119.228,155.205
      126.735,149.695
      132.664,142.277
      136.531,133.402
      137.984,123.643
      136.826,113.660
      151.705,111.755
      166.583,109.850
      181.462,107.944
      196.340,106.039
      207.708,116.777
      223.322,117.643
      235.809,108.229
      239.272,92.980
      232.078,79.096
      217.622,73.132
      202.731,77.905
      194.435,91.160
      179.556,93.066
      164.678,94.971
      149.799,96.876
      134.921,98.782
      123.874,88.635
      124.510,73.648
      125.147,58.662
      125.784,43.675
      126.420,28.689
      127.057,13.702
      127.693,-1.284
      130.700,-20.431
    " />
    <g style="stroke: black; stroke-width: 1" id="pairs">
      <line id="1,72" x1="112.707" y1="-1.921" x2="127.693" y2="-1.284" />
      <line id="2,71" x1="112.070" y1="13.066" x2="127.057" y2="13.702" />
      <line id="3,70" x1="111.434" y1="28.052" x2="126.420" y2="28.689" />
      <line id="4,69" x1="110.797" y1="43.039" x2="125.784" y2="43.675" />
      <line id="5,68" x1="110.160" y1="58.025" x2="125.147" y2="58.662" />
      <line id="6,67" x1="109.524" y1="73.012" x2="124.510" y2="73.648" />
      <line id="7,66" x1="108.887" y1="87.998" x2="123.874" y2="88.635" />
      <line id="10,25" x1="67.809" y1="115.447" x2="66.537" y2="130.393" />
      <line id="11,24" x1="52.863" y1="114.175" x2="51.591" y2="129.121" />
      <line id="12,23" x1="37.917" y1="112.903" x2="36.645" y2="127.849" />
      <line id="28,42" x1="87.040" y1="156.918" x2="101.824" y2="159.453" />
      <line id="29,41" x1="84.505" y1="171.702" x2="99.289" y2="174.237" />
      <line id="30,40" x1="81.970" y1="186.487" x2="96.754" y2="189.022" />
      <line id="31,39" x1="79.435" y1="201.271" x2="94.219" y2="203.806" />
      <line id="49,65" x1="136.826" y1="113.660" x2="134.921" y2="98.782" />
      <line id="50,64" x1="151.705" y1="111.755" x2="149.799" y2="96.876" />
      <line id="51,63" x1="166.583" y1="109.850" x2="164.678" y2="94.971" />
      <line id="52,62" x1="181.462" y1="107.944" x2="179.556" y2="93.066" />
      <line id="53,61" x1="196.340" y1="106.039" x2="194.435" y2="91.160" />
    </g>
    <g style="font-family: SansSerif" transform="translate(-4.6, 4)" id="seq">
      <text x="112.707" y="-1.921">U</text>
      <text x="112.070" y="13.066">A</text>
      <text x="111.434" y="28.052">G</text>
      <text x="110.797" y="43.039">G</text>
      <text x="110.160" y="58.025">C</text>
      <text x="109.524" y="73.012">G</text>
      <text x="108.887" y="87.998">G</text>
      <text x="90.234" y="89.927">A</text>
      <text x="75.475" y="100.128">G</text>
      <text x="67.809" y="115.447">G</text>
      <text x="52.863" y="114.175">U</text>
      <text x="37.917" y="112.903">C</text>
      <text x="31.466" y="98.964">G</text>
      <text x="18.901" y="90.132">G</text>
      <text x="3.601" y="88.781">U</text>
      <text x="-10.317" y="95.276">U</text>
      <text x="-19.110" y="107.869">G</text>
      <text x="-20.412" y="123.172">G</text>
      <text x="-13.874" y="137.070">U</text>
      <text x="-1.254" y="145.823">U</text>
      <text x="14.054" y="147.078">U</text>
      <text x="27.931" y="140.496">A</text>
      <text x="36.645" y="127.849">G</text>
      <text x="51.591" y="129.121">A</text>
      <text x="66.537" y="130.393">C</text>
      <text x="70.108" y="141.466">G</text>
      <text x="77.224" y="150.672">C</text>
      <text x="87.040" y="156.918">U</text>
      <text x="84.505" y="171.702">U</text>
      <text x="81.970" y="186.487">A</text>
      <text x="79.435" y="201.271">G</text>
      <text x="65.839" y="208.997">C</text>
      <text x="60.439" y="223.672">U</text>
      <text x="65.784" y="238.368">G</text>
      <text x="79.350" y="246.145">U</text>
      <text x="94.732" y="243.332">U</text>
      <text x="104.668" y="231.256">A</text>
      <text x="104.465" y="215.620">A</text>
      <text x="94.219" y="203.806">C</text>
      <text x="96.754" y="189.022">U</text>
      <text x="99.289" y="174.237">A</text>
      <text x="101.824" y="159.453">A</text>
      <text x="110.717" y="158.504">A</text>
      <text x="119.228" y="155.205">U</text>
      <text x="126.735" y="149.695">G</text>
      <text x="132.664" y="142.277">U</text>
      <text x="136.531" y="133.402">U</text>
      <text x="137.984" y="123.643">U</text>
      <text x="136.826" y="113.660">G</text>
      <text x="151.705" y="111.755">U</text>
      <text x="166.583" y="109.850">G</text>
      <text x="181.462" y="107.944">G</text>
      <text x="196.340" y="106.039">G</text>
      <text x="207.708" y="116.777">A</text>
      <text x="223.322" y="117.643">U</text>
      <text x="235.809" y="108.229">C</text>
      <text x="239.272" y="92.980">A</text>
      <text x="232.078" y="79.096">A</text>
      <text x="217.622" y="73.132">G</text>
      <text x="202.731" y="77.905">G</text>
      <text x="194.435" y="91.160">C</text>
      <text x="179.556" y="93.066">C</text>
      <text x="164.678" y="94.971">C</text>
      <text x="149.799" y="96.876">G</text>
      <text x="134.921" y="98.782">C</text>
      <text x="123.874" y="88.635">U</text>
      <text x="124.510" y="73.648">C</text>
      <text x="125.147" y="58.662">G</text>
      <text x="125.784" y="43.675">C</text>
      <text x="126.420" y="28.689">C</text>
      <text x="127.057" y="13.702">U</text>
      <text x="127.693" y="-1.284">A</text>
      <text x="130.700" y="-20.431">G</text>
    </g>
  </g>
</svg>
