<?xml version="1.0" encoding="UTF-8" standalone="yes"?>
<svg xmlns="http://www.w3.org/2000/svg" height="452" width="452">
<script type="text/ecmascript">
      <![CDATA[
        var shown = 1;
        function click() {
             var seq = document.getElementById("seq");
             if (shown==1) {
               seq.setAttribute("style", "visibility: hidden");
               shown = 0;
             } else {
               seq.setAttribute("style", "visibility: visible");
               shown = 1;
             }
         }
        ]]>
</script>
  <rect style="stroke: white; fill: white" height="452" x="0" y="0" width="452" onclick="click(evt)" />
  <g transform="scale(1.605119,1.605119) translate(25.927498,32.963692)">
    <polyline style="stroke: black; fill: none; stroke-width: 1.5" id="outline" points="
      112.329,-9.485
      111.666,5.500
      111.002,20.485
      110.339,35.470
      109.675,50.456
      109.012,65.441
      108.348,80.426
      91.950,82.133
      78.801,90.692
      71.403,103.616
      56.583,101.303
      41.762,98.989
      26.942,96.675
      16.360,84.617
      0.342,85.516
      -8.824,98.682
      -4.107,114.016
      10.874,119.755
      24.628,111.496
      39.449,113.809
      54.269,116.123
      69.090,118.437
      73.593,131.974
      83.678,142.066
      79.106,156.353
      74.534,170.639
      69.962,184.925
      65.390,199.211
      50.849,204.966
      43.455,218.744
      46.698,234.042
      59.047,243.635
      74.672,242.995
      86.194,232.422
      88.174,216.911
      79.676,203.783
      84.248,189.497
      88.820,175.211
      93.392,160.925
      97.964,146.639
      107.878,146.582
      117.534,143.347
      125.916,137.099
      132.086,128.327
      135.291,117.809
      135.052,106.546
      150.019,105.551
      164.986,104.556
      179.953,103.561
      194.920,102.566
      205.612,113.977
      221.144,115.793
      234.181,107.158
      238.568,92.148
      232.233,77.851
      218.168,71.018
      203.013,74.874
      193.925,87.599
      178.958,88.594
      163.991,89.589
      149.024,90.584
      134.057,91.579
      123.334,81.090
      123.997,66.105
      124.661,51.119
      125.324,36.134
      125.988,21.149
      126.651,6.163
      127.315,-8.822
      130.355,-27.964
    " />
    <g style="stroke: black; stroke-width: 1" id="pairs">
      <line id="1,69" x1="112.329" y1="-9.485" x2="127.315" y2="-8.822" />
      <line id="2,68" x1="111.666" y1=" 5.500" x2="126.651" y2=" 6.163" />
      <line id="3,67" x1="111.002" y1="20.485" x2="125.988" y2="21.149" />
      <line id="4,66" x1="110.339" y1="35.470" x2="125.324" y2="36.134" />
      <line id="5,65" x1="109.675" y1="50.456" x2="124.661" y2="51.119" />
      <line id="6,64" x1="109.012" y1="65.441" x2="123.997" y2="66.105" />
      <line id="7,63" x1="108.348" y1="80.426" x2="123.334" y2="81.090" />
      <line id="10,22" x1="71.403" y1="103.616" x2="69.090" y2="118.437" />
      <line id="11,21" x1="56.583" y1="101.303" x2="54.269" y2="116.123" />
      <line id="12,20" x1="41.762" y1="98.989" x2="39.449" y2="113.809" />
      <line id="13,19" x1="26.942" y1="96.675" x2="24.628" y2="111.496" />
      <line id="24,40" x1="83.678" y1="142.066" x2="97.964" y2="146.639" />
      <line id="25,39" x1="79.106" y1="156.353" x2="93.392" y2="160.925" />
      <line id="26,38" x1="74.534" y1="170.639" x2="88.820" y2="175.211" />
      <line id="27,37" x1="69.962" y1="184.925" x2="84.248" y2="189.497" />
      <line id="28,36" x1="65.390" y1="199.211" x2="79.676" y2="203.783" />
      <line id="46,62" x1="135.052" y1="106.546" x2="134.057" y2="91.579" />
      <line id="47,61" x1="150.019" y1="105.551" x2="149.024" y2="90.584" />
      <line id="48,60" x1="164.986" y1="104.556" x2="163.991" y2="89.589" />
      <line id="49,59" x1="179.953" y1="103.561" x2="178.958" y2="88.594" />
      <line id="50,58" x1="194.920" y1="102.566" x2="193.925" y2="87.599" />
    </g>
    <g style="font-family: SansSerif" transform="translate(-4.6, 4)" id="seq">
      <text x="112.329" y="-9.485">U</text>
      <text x="111.666" y="5.500">G</text>
      <text x="111.002" y="20.485">A</text>
      <text x="110.339" y="35.470">A</text>
      <text x="109.675" y="50.456">A</text>
      <text x="109.012" y="65.441">G</text>
      <text x="108.348" y="80.426">U</text>
      <text x="91.950" y="82.133">U</text>
      <text x="78.801" y="90.692">A</text>
      <text x="71.403" y="103.616">G</text>
      <text x="56.583" y="101.303">U</text>
      <text x="41.762" y="98.989">U</text>
      <text x="26.942" y="96.675">U</text>
      <text x="16.360" y="84.617">A</text>
      <text x="0.342" y="85.516">A</text>
      <text x="-8.824" y="98.682">A</text>
      <text x="-4.107" y="114.016">C</text>
      <text x="10.874" y="119.755">A</text>
      <text x="24.628" y="111.496">A</text>
      <text x="39.449" y="113.809">A</text>
      <text x="54.269" y="116.123">A</text>
      <text x="69.090" y="118.437">U</text>
      <text x="73.593" y="131.974">A</text>
      <text x="83.678" y="142.066">C</text>
      <text x="79.106" y="156.353">U</text>
      <text x="74.534" y="170.639">U</text>
      <text x="69.962" y="184.925">G</text>
      <text x="65.390" y="199.211">A</text>
      <text x="50.849" y="204.966">U</text>
      <text x="43.455" y="218.744">U</text>
      <text x="46.698" y="234.042">U</text>
      <text x="59.047" y="243.635">C</text>
      <text x="74.672" y="242.995">G</text>
      <text x="86.194" y="232.422">A</text>
      <text x="88.174" y="216.911">C</text>
      <text x="79.676" y="203.783">U</text>
      <text x="84.248" y="189.497">C</text>
      <text x="88.820" y="175.211">A</text>
      <text x="93.392" y="160.925">A</text>
      <text x="97.964" y="146.639">G</text>
      <text x="107.878" y="146.582">A</text>
      <text x="117.534" y="143.347">G</text>
      <text x="125.916" y="137.099">A</text>
      <text x="132.086" y="128.327">C</text>
      <text x="135.291" y="117.809">C</text>
      <text x="135.052" y="106.546">C</text>
      <text x="150.019" y="105.551">U</text>
      <text x="164.986" y="104.556">C</text>
      <text x="179.953" y="103.561">A</text>
      <text x="194.920" y="102.566">G</text>
      <text x="205.612" y="113.977">C</text>
      <text x="221.144" y="115.793">G</text>
      <text x="234.181" y="107.158">A</text>
      <text x="238.568" y="92.148">A</text>
      <text x="232.233" y="77.851">A</text>
      <text x="218.168" y="71.018">A</text>
      <text x="203.013" y="74.874">C</text>
      <text x="193.925" y="87.599">C</text>
      <text x="178.958" y="88.594">U</text>
      <text x="163.991" y="89.589">G</text>
      <text x="149.024" y="90.584">A</text>
      <text x="134.057" y="91.579">G</text>
      <text x="123.334" y="81.090">A</text>
      <text x="123.997" y="66.105">C</text>
      <text x="124.661" y="51.119">U</text>
      <text x="125.324" y="36.134">U</text>
      <text x="125.988" y="21.149">U</text>
      <text x="126.651" y="6.163">C</text>
      <text x="127.315" y="-8.822">A</text>
      <text x="130.355" y="-27.964">U</text>
    </g>
  </g>
</svg>
