<?xml version="1.0" encoding="UTF-8" standalone="yes"?>
<svg xmlns="http://www.w3.org/2000/svg" height="452" width="452">
<script type="text/ecmascript">
      <![CDATA[
        var shown = 1;
        function click() {
             var seq = document.getElementById("seq");
             if (shown==1) {
               seq.setAttribute("style", "visibility: hidden");
               shown = 0;
             } else {
               seq.setAttribute("style", "visibility: visible");
               shown = 1;
             }
         }
        ]]>
</script>
  <rect style="stroke: white; fill: white" height="452" x="0" y="0" width="452" onclick="click(evt)" />
  <g transform="scale(1.620464,1.620464) translate(26.861771,36.578285)">
    <polyline style="stroke: black; fill: none; stroke-width: 1.5" id="outline" points="
      102.617,-18.319
      110.665,-4.031
      110.011,10.955
      109.357,25.941
      108.702,40.926
      108.048,55.912
      107.394,70.898
      90.904,73.149
      78.064,82.355
      71.401,95.745
      56.458,94.438
      41.515,93.130
      34.428,79.427
      21.046,71.750
      5.640,72.549
      -6.876,81.570
      -12.506,95.933
      -9.455,111.056
      1.304,122.112
      16.337,125.575
      30.849,120.338
      40.207,108.073
      55.150,109.381
      70.093,110.688
      75.955,124.226
      87.515,133.392
      84.910,148.164
      82.305,162.937
      79.701,177.709
      77.096,192.481
      63.464,200.142
      57.994,214.792
      63.270,229.513
      76.799,237.354
      92.195,234.613
      102.187,222.585
      102.058,206.947
      91.868,195.085
      94.473,180.313
      97.077,165.541
      99.682,150.769
      102.287,135.997
      112.940,134.360
      122.695,128.964
      130.228,120.251
      134.421,109.126
      134.522,96.868
      149.465,95.560
      164.408,94.253
      179.351,92.946
      194.294,91.638
      205.223,102.823
      220.789,104.315
      233.643,95.409
      237.715,80.311
      231.083,66.149
      216.878,59.611
      201.807,63.783
      192.987,76.696
      178.044,78.003
      163.101,79.310
      148.158,80.618
      133.215,81.925
      122.380,71.552
      123.034,56.566
      123.688,41.581
      124.342,26.595
      124.997,11.609
      125.651,-3.376
      134.914,-16.909
      127.583,-31.578
    " />
    <g style="stroke: black; stroke-width: 1" id="pairs">
      <line id="2,69" x1="110.665" y1="-4.031" x2="125.651" y2="-3.376" />
      <line id="3,68" x1="110.011" y1="10.955" x2="124.997" y2="11.609" />
      <line id="4,67" x1="109.357" y1="25.941" x2="124.342" y2="26.595" />
      <line id="5,66" x1="108.702" y1="40.926" x2="123.688" y2="41.581" />
      <line id="6,65" x1="108.048" y1="55.912" x2="123.034" y2="56.566" />
      <line id="7,64" x1="107.394" y1="70.898" x2="122.380" y2="71.552" />
      <line id="10,24" x1="71.401" y1="95.745" x2="70.093" y2="110.688" />
      <line id="11,23" x1="56.458" y1="94.438" x2="55.150" y2="109.381" />
      <line id="12,22" x1="41.515" y1="93.130" x2="40.207" y2="108.073" />
      <line id="26,42" x1="87.515" y1="133.392" x2="102.287" y2="135.997" />
      <line id="27,41" x1="84.910" y1="148.164" x2="99.682" y2="150.769" />
      <line id="28,40" x1="82.305" y1="162.937" x2="97.077" y2="165.541" />
      <line id="29,39" x1="79.701" y1="177.709" x2="94.473" y2="180.313" />
      <line id="30,38" x1="77.096" y1="192.481" x2="91.868" y2="195.085" />
      <line id="47,63" x1="134.522" y1="96.868" x2="133.215" y2="81.925" />
      <line id="48,62" x1="149.465" y1="95.560" x2="148.158" y2="80.618" />
      <line id="49,61" x1="164.408" y1="94.253" x2="163.101" y2="79.310" />
      <line id="50,60" x1="179.351" y1="92.946" x2="178.044" y2="78.003" />
      <line id="51,59" x1="194.294" y1="91.638" x2="192.987" y2="76.696" />
    </g>
    <g style="font-family: SansSerif" transform="translate(-4.6, 4)" id="seq">
      <text x="102.617" y="-18.319">A</text>
      <text x="110.665" y="-4.031">A</text>
      <text x="110.011" y="10.955">G</text>
      <text x="109.357" y="25.941">A</text>
      <text x="108.702" y="40.926">A</text>
      <text x="108.048" y="55.912">A</text>
      <text x="107.394" y="70.898">G</text>
      <text x="90.904" y="73.149">U</text>
      <text x="78.064" y="82.355">G</text>
      <text x="71.401" y="95.745">G</text>
      <text x="56.458" y="94.438">C</text>
      <text x="41.515" y="93.130">A</text>
      <text x="34.428" y="79.427">G</text>
      <text x="21.046" y="71.750">A</text>
      <text x="5.640" y="72.549">G</text>
      <text x="-6.876" y="81.570">U</text>
      <text x="-12.506" y="95.933">G</text>
      <text x="-9.455" y="111.056">G</text>
      <text x="1.304" y="122.112">U</text>
      <text x="16.337" y="125.575">U</text>
      <text x="30.849" y="120.338">A</text>
      <text x="40.207" y="108.073">U</text>
      <text x="55.150" y="109.381">G</text>
      <text x="70.093" y="110.688">U</text>
      <text x="75.955" y="124.226">A</text>
      <text x="87.515" y="133.392">G</text>
      <text x="84.910" y="148.164">U</text>
      <text x="82.305" y="162.937">U</text>
      <text x="79.701" y="177.709">G</text>
      <text x="77.096" y="192.481">G</text>
      <text x="63.464" y="200.142">C</text>
      <text x="57.994" y="214.792">U</text>
      <text x="63.270" y="229.513">U</text>
      <text x="76.799" y="237.354">G</text>
      <text x="92.195" y="234.613">A</text>
      <text x="102.187" y="222.585">A</text>
      <text x="102.058" y="206.947">A</text>
      <text x="91.868" y="195.085">C</text>
      <text x="94.473" y="180.313">C</text>
      <text x="97.077" y="165.541">A</text>
      <text x="99.682" y="150.769">A</text>
      <text x="102.287" y="135.997">C</text>
      <text x="112.940" y="134.360">U</text>
      <text x="122.695" y="128.964">G</text>
      <text x="130.228" y="120.251">A</text>
      <text x="134.421" y="109.126">U</text>
      <text x="134.522" y="96.868">G</text>
      <text x="149.465" y="95.560">G</text>
      <text x="164.408" y="94.253">A</text>
      <text x="179.351" y="92.946">G</text>
      <text x="194.294" y="91.638">G</text>
      <text x="205.223" y="102.823">U</text>
      <text x="220.789" y="104.315">U</text>
      <text x="233.643" y="95.409">C</text>
      <text x="237.715" y="80.311">G</text>
      <text x="231.083" y="66.149">A</text>
      <text x="216.878" y="59.611">C</text>
      <text x="201.807" y="63.783">U</text>
      <text x="192.987" y="76.696">C</text>
      <text x="178.044" y="78.003">C</text>
      <text x="163.101" y="79.310">U</text>
      <text x="148.158" y="80.618">C</text>
      <text x="133.215" y="81.925">C</text>
      <text x="122.380" y="71.552">C</text>
      <text x="123.034" y="56.566">U</text>
      <text x="123.688" y="41.581">U</text>
      <text x="124.342" y="26.595">U</text>
      <text x="124.997" y="11.609">C</text>
      <text x="125.651" y="-3.376">U</text>
      <text x="134.914" y="-16.909">C</text>
      <text x="127.583" y="-31.578">G</text>
    </g>
  </g>
</svg>
