<?xml version="1.0" encoding="UTF-8" standalone="yes"?>
<svg xmlns="http://www.w3.org/2000/svg" height="452" width="452">
<script type="text/ecmascript">
      <![CDATA[
        var shown = 1;
        function click() {
             var seq = document.getElementById("seq");
             if (shown==1) {
               seq.setAttribute("style", "visibility: hidden");
               shown = 0;
             } else {
               seq.setAttribute("style", "visibility: visible");
               shown = 1;
             }
         }
        ]]>
</script>
  <rect style="stroke: white; fill: white" height="452" x="0" y="0" width="452" onclick="click(evt)" />
  <g transform="scale(1.697094,1.697094) translate(-0.870918,20.536430)">
    <polyline style="stroke: black; fill: none; stroke-width: 1.5" id="outline" points="
      114.247,2.907
      113.554,17.891
      112.862,32.875
      112.169,47.859
      111.476,62.843
      110.783,77.827
      110.090,92.811
      95.404,93.297
      83.048,99.782
      75.192,110.409
      64.036,99.190
      49.677,103.149
      36.097,92.999
      22.584,103.238
      28.683,119.057
      45.572,117.576
      55.696,128.501
      71.087,124.836
      73.036,135.711
      78.922,145.061
      71.025,157.814
      63.129,170.567
      55.232,183.320
      47.336,196.074
      31.835,198.134
      21.323,209.712
      20.764,225.339
      30.421,237.638
      45.736,240.801
      59.476,233.335
      65.154,218.765
      60.089,203.970
      67.986,191.217
      75.882,178.464
      83.778,165.710
      91.675,152.957
      103.378,155.004
      115.328,152.146
      125.491,144.540
      132.010,133.176
      133.537,119.755
      148.473,121.139
      163.409,122.523
      178.345,123.907
      193.281,125.291
      200.297,139.031
      213.639,146.776
      229.050,146.056
      241.612,137.100
      247.316,122.766
      244.343,107.628
      233.641,96.516
      218.625,92.976
      204.087,98.139
      194.665,110.355
      179.729,108.971
      164.793,107.587
      149.857,106.203
      134.921,104.819
      125.075,93.503
      125.767,78.519
      126.460,63.535
      127.153,48.551
      127.846,33.567
      128.538,18.583
      129.231,3.599
      132.309,-15.536
    " />
    <g style="stroke: black; stroke-width: 1" id="pairs">
      <line id="1,66" x1="114.247" y1=" 2.907" x2="129.231" y2=" 3.599" />
      <line id="2,65" x1="113.554" y1="17.891" x2="128.538" y2="18.583" />
      <line id="3,64" x1="112.862" y1="32.875" x2="127.846" y2="33.567" />
      <line id="4,63" x1="112.169" y1="47.859" x2="127.153" y2="48.551" />
      <line id="5,62" x1="111.476" y1="62.843" x2="126.460" y2="63.535" />
      <line id="6,61" x1="110.783" y1="77.827" x2="125.767" y2="78.519" />
      <line id="7,60" x1="110.090" y1="92.811" x2="125.075" y2="93.503" />
      <line id="10,18" x1="75.192" y1="110.409" x2="71.087" y2="124.836" />
      <line id="12,16" x1="49.677" y1="103.149" x2="45.572" y2="117.576" />
      <line id="20,36" x1="78.922" y1="145.061" x2="91.675" y2="152.957" />
      <line id="21,35" x1="71.025" y1="157.814" x2="83.778" y2="165.710" />
      <line id="22,34" x1="63.129" y1="170.567" x2="75.882" y2="178.464" />
      <line id="23,33" x1="55.232" y1="183.320" x2="67.986" y2="191.217" />
      <line id="24,32" x1="47.336" y1="196.074" x2="60.089" y2="203.970" />
      <line id="41,59" x1="133.537" y1="119.755" x2="134.921" y2="104.819" />
      <line id="42,58" x1="148.473" y1="121.139" x2="149.857" y2="106.203" />
      <line id="43,57" x1="163.409" y1="122.523" x2="164.793" y2="107.587" />
      <line id="44,56" x1="178.345" y1="123.907" x2="179.729" y2="108.971" />
      <line id="45,55" x1="193.281" y1="125.291" x2="194.665" y2="110.355" />
    </g>
    <g style="font-family: SansSerif" transform="translate(-4.6, 4)" id="seq">
      <text x="114.247" y="2.907">G</text>
      <text x="113.554" y="17.891">A</text>
      <text x="112.862" y="32.875">A</text>
      <text x="112.169" y="47.859">U</text>
      <text x="111.476" y="62.843">G</text>
      <text x="110.783" y="77.827">A</text>
      <text x="110.090" y="92.811">G</text>
      <text x="95.404" y="93.297">G</text>
      <text x="83.048" y="99.782">C</text>
      <text x="75.192" y="110.409">U</text>
      <text x="64.036" y="99.190">U</text>
      <text x="49.677" y="103.149">G</text>
      <text x="36.097" y="92.999">C</text>
      <text x="22.584" y="103.238">A</text>
      <text x="28.683" y="119.057">G</text>
      <text x="45.572" y="117.576">C</text>
      <text x="55.696" y="128.501">U</text>
      <text x="71.087" y="124.836">A</text>
      <text x="73.036" y="135.711">A</text>
      <text x="78.922" y="145.061">A</text>
      <text x="71.025" y="157.814">A</text>
      <text x="63.129" y="170.567">A</text>
      <text x="55.232" y="183.320">A</text>
      <text x="47.336" y="196.074">U</text>
      <text x="31.835" y="198.134">U</text>
      <text x="21.323" y="209.712">U</text>
      <text x="20.764" y="225.339">G</text>
      <text x="30.421" y="237.638">C</text>
      <text x="45.736" y="240.801">U</text>
      <text x="59.476" y="233.335">A</text>
      <text x="65.154" y="218.765">A</text>
      <text x="60.089" y="203.970">A</text>
      <text x="67.986" y="191.217">U</text>
      <text x="75.882" y="178.464">U</text>
      <text x="83.778" y="165.710">U</text>
      <text x="91.675" y="152.957">U</text>
      <text x="103.378" y="155.004">U</text>
      <text x="115.328" y="152.146">G</text>
      <text x="125.491" y="144.540">A</text>
      <text x="132.010" y="133.176">A</text>
      <text x="133.537" y="119.755">C</text>
      <text x="148.473" y="121.139">C</text>
      <text x="163.409" y="122.523">C</text>
      <text x="178.345" y="123.907">U</text>
      <text x="193.281" y="125.291">A</text>
      <text x="200.297" y="139.031">G</text>
      <text x="213.639" y="146.776">U</text>
      <text x="229.050" y="146.056">U</text>
      <text x="241.612" y="137.100">G</text>
      <text x="247.316" y="122.766">G</text>
      <text x="244.343" y="107.628">A</text>
      <text x="233.641" y="96.516">U</text>
      <text x="218.625" y="92.976">U</text>
      <text x="204.087" y="98.139">C</text>
      <text x="194.665" y="110.355">U</text>
      <text x="179.729" y="108.971">A</text>
      <text x="164.793" y="107.587">G</text>
      <text x="149.857" y="106.203">G</text>
      <text x="134.921" y="104.819">G</text>
      <text x="125.075" y="93.503">C</text>
      <text x="125.767" y="78.519">U</text>
      <text x="126.460" y="63.535">U</text>
      <text x="127.153" y="48.551">A</text>
      <text x="127.846" y="33.567">U</text>
      <text x="128.538" y="18.583">U</text>
      <text x="129.231" y="3.599">C</text>
      <text x="132.309" y="-15.536">A</text>
    </g>
  </g>
</svg>
