<?xml version="1.0" encoding="UTF-8" standalone="yes"?>
<svg xmlns="http://www.w3.org/2000/svg" height="452" width="452">
<script type="text/ecmascript">
      <![CDATA[
        var shown = 1;
        function click() {
             var seq = document.getElementById("seq");
             if (shown==1) {
               seq.setAttribute("style", "visibility: hidden");
               shown = 0;
             } else {
               seq.setAttribute("style", "visibility: visible");
               shown = 1;
             }
         }
        ]]>
</script>
  <rect style="stroke: white; fill: white" height="452" x="0" y="0" width="452" onclick="click(evt)" />
  <g transform="scale(1.592757,1.592757) translate(26.736954,34.894585)">
    <polyline style="stroke: black; fill: none; stroke-width: 1.5" id="outline" points="
      111.902,-11.405
      111.248,3.580
      110.593,18.566
      109.939,33.552
      109.285,48.538
      108.631,63.523
      107.976,78.509
      91.381,80.454
      78.211,89.358
      71.004,102.613
      56.132,100.656
      41.261,98.698
      33.975,84.997
      20.014,78.226
      4.744,80.988
      -5.961,92.220
      -7.987,107.604
      -0.553,121.225
      13.481,127.844
      28.720,124.917
      39.303,113.569
      54.174,115.527
      69.046,117.485
      74.100,131.302
      84.931,141.258
      81.048,155.747
      77.166,170.236
      73.284,184.724
      69.401,199.213
      55.153,205.658
      48.428,219.775
      52.400,234.900
      65.195,243.890
      80.771,242.501
      91.773,231.389
      93.007,215.801
      83.890,203.096
      87.773,188.607
      91.655,174.118
      95.537,159.629
      99.419,145.140
      109.168,144.675
      118.556,141.152
      126.622,134.758
      132.492,125.979
      135.467,115.568
      135.105,104.479
      150.048,103.172
      164.991,101.864
      179.934,100.557
      194.877,99.250
      205.805,110.434
      221.372,111.926
      234.225,103.020
      238.298,87.922
      231.666,73.761
      217.460,67.222
      202.390,71.394
      193.569,84.307
      178.626,85.614
      163.683,86.921
      148.740,88.229
      133.798,89.536
      122.962,79.163
      123.616,64.178
      124.271,49.192
      124.925,34.206
      125.579,19.220
      126.233,4.235
      126.888,-10.751
      129.917,-29.895
    " />
    <g style="stroke: black; stroke-width: 1" id="pairs">
      <line id="1,70" x1="111.902" y1="-11.405" x2="126.888" y2="-10.751" />
      <line id="2,69" x1="111.248" y1=" 3.580" x2="126.233" y2=" 4.235" />
      <line id="3,68" x1="110.593" y1="18.566" x2="125.579" y2="19.220" />
      <line id="4,67" x1="109.939" y1="33.552" x2="124.925" y2="34.206" />
      <line id="5,66" x1="109.285" y1="48.538" x2="124.271" y2="49.192" />
      <line id="6,65" x1="108.631" y1="63.523" x2="123.616" y2="64.178" />
      <line id="7,64" x1="107.976" y1="78.509" x2="122.962" y2="79.163" />
      <line id="10,23" x1="71.004" y1="102.613" x2="69.046" y2="117.485" />
      <line id="11,22" x1="56.132" y1="100.656" x2="54.174" y2="115.527" />
      <line id="12,21" x1="41.261" y1="98.698" x2="39.303" y2="113.569" />
      <line id="25,41" x1="84.931" y1="141.258" x2="99.419" y2="145.140" />
      <line id="26,40" x1="81.048" y1="155.747" x2="95.537" y2="159.629" />
      <line id="27,39" x1="77.166" y1="170.236" x2="91.655" y2="174.118" />
      <line id="28,38" x1="73.284" y1="184.724" x2="87.773" y2="188.607" />
      <line id="29,37" x1="69.401" y1="199.213" x2="83.890" y2="203.096" />
      <line id="47,63" x1="135.105" y1="104.479" x2="133.798" y2="89.536" />
      <line id="48,62" x1="150.048" y1="103.172" x2="148.740" y2="88.229" />
      <line id="49,61" x1="164.991" y1="101.864" x2="163.683" y2="86.921" />
      <line id="50,60" x1="179.934" y1="100.557" x2="178.626" y2="85.614" />
      <line id="51,59" x1="194.877" y1="99.250" x2="193.569" y2="84.307" />
    </g>
    <g style="font-family: SansSerif" transform="translate(-4.6, 4)" id="seq">
      <text x="111.902" y="-11.405">G</text>
      <text x="111.248" y="3.580">C</text>
      <text x="110.593" y="18.566">A</text>
      <text x="109.939" y="33.552">U</text>
      <text x="109.285" y="48.538">U</text>
      <text x="108.631" y="63.523">G</text>
      <text x="107.976" y="78.509">A</text>
      <text x="91.381" y="80.454">U</text>
      <text x="78.211" y="89.358">A</text>
      <text x="71.004" y="102.613">G</text>
      <text x="56.132" y="100.656">C</text>
      <text x="41.261" y="98.698">U</text>
      <text x="33.975" y="84.997">U</text>
      <text x="20.014" y="78.226">A</text>
      <text x="4.744" y="80.988">G</text>
      <text x="-5.961" y="92.220">U</text>
      <text x="-7.987" y="107.604">U</text>
      <text x="-0.553" y="121.225">C</text>
      <text x="13.481" y="127.844">A</text>
      <text x="28.720" y="124.917">U</text>
      <text x="39.303" y="113.569">A</text>
      <text x="54.174" y="115.527">G</text>
      <text x="69.046" y="117.485">C</text>
      <text x="74.100" y="131.302">G</text>
      <text x="84.931" y="141.258">A</text>
      <text x="81.048" y="155.747">U</text>
      <text x="77.166" y="170.236">A</text>
      <text x="73.284" y="184.724">G</text>
      <text x="69.401" y="199.213">U</text>
      <text x="55.153" y="205.658">U</text>
      <text x="48.428" y="219.775">U</text>
      <text x="52.400" y="234.900">U</text>
      <text x="65.195" y="243.890">G</text>
      <text x="80.771" y="242.501">U</text>
      <text x="91.773" y="231.389">A</text>
      <text x="93.007" y="215.801">A</text>
      <text x="83.890" y="203.096">G</text>
      <text x="87.773" y="188.607">C</text>
      <text x="91.655" y="174.118">U</text>
      <text x="95.537" y="159.629">A</text>
      <text x="99.419" y="145.140">U</text>
      <text x="109.168" y="144.675">A</text>
      <text x="118.556" y="141.152">G</text>
      <text x="126.622" y="134.758">G</text>
      <text x="132.492" y="125.979">U</text>
      <text x="135.467" y="115.568">C</text>
      <text x="135.105" y="104.479">G</text>
      <text x="150.048" y="103.172">G</text>
      <text x="164.991" y="101.864">G</text>
      <text x="179.934" y="100.557">G</text>
      <text x="194.877" y="99.250">G</text>
      <text x="205.805" y="110.434">U</text>
      <text x="221.372" y="111.926">U</text>
      <text x="234.225" y="103.020">C</text>
      <text x="238.298" y="87.922">G</text>
      <text x="231.666" y="73.761">A</text>
      <text x="217.460" y="67.222">C</text>
      <text x="202.390" y="71.394">U</text>
      <text x="193.569" y="84.307">C</text>
      <text x="178.626" y="85.614">C</text>
      <text x="163.683" y="86.921">C</text>
      <text x="148.740" y="88.229">U</text>
      <text x="133.798" y="89.536">C</text>
      <text x="122.962" y="79.163">U</text>
      <text x="123.616" y="64.178">C</text>
      <text x="124.271" y="49.192">A</text>
      <text x="124.925" y="34.206">A</text>
      <text x="125.579" y="19.220">U</text>
      <text x="126.233" y="4.235">G</text>
      <text x="126.888" y="-10.751">C</text>
      <text x="129.917" y="-29.895">U</text>
    </g>
  </g>
</svg>
