<?xml version="1.0" encoding="UTF-8" standalone="yes"?>
<svg xmlns="http://www.w3.org/2000/svg" height="452" width="452">
<script type="text/ecmascript">
      <![CDATA[
        var shown = 1;
        function click() {
             var seq = document.getElementById("seq");
             if (shown==1) {
               seq.setAttribute("style", "visibility: hidden");
               shown = 0;
             } else {
               seq.setAttribute("style", "visibility: visible");
               shown = 1;
             }
         }
        ]]>
</script>
  <rect style="stroke: white; fill: white" height="452" x="0" y="0" width="452" onclick="click(evt)" />
  <g transform="scale(1.611513,1.611513) translate(32.728935,31.972809)">
    <polyline style="stroke: black; fill: none; stroke-width: 1.5" id="outline" points="
      110.898,-8.473
      110.252,6.513
      109.607,21.499
      108.962,36.486
      108.316,51.472
      107.671,66.458
      107.026,81.444
      90.368,83.935
      77.534,93.467
      71.078,107.151
      56.109,106.183
      41.140,105.216
      26.172,104.248
      17.994,91.061
      3.614,85.230
      -11.439,88.998
      -21.376,100.915
      -22.377,116.400
      -14.057,129.498
      0.386,135.172
      15.396,131.241
      25.204,119.217
      40.173,120.184
      55.142,121.152
      70.110,122.120
      76.521,135.858
      88.769,144.793
      86.837,159.668
      84.906,174.543
      82.975,189.418
      68.987,195.925
      60.757,208.974
      60.911,224.401
      69.400,237.282
      83.515,243.509
      98.752,241.093
      110.249,230.806
      114.338,215.930
      109.713,201.213
      97.850,191.349
      99.781,176.474
      101.712,161.599
      103.644,146.724
      114.053,144.709
      123.476,139.098
      130.671,130.343
      134.600,119.325
      134.566,107.261
      149.479,105.651
      164.392,104.040
      179.306,102.429
      194.219,100.818
      205.373,111.779
      220.966,112.954
      233.636,103.789
      237.401,88.611
      230.482,74.587
      216.147,68.339
      201.165,72.816
      192.608,85.905
      177.695,87.516
      162.782,89.127
      147.868,90.737
      132.955,92.348
      122.012,82.089
      122.657,67.103
      123.302,52.117
      123.948,37.131
      124.593,22.145
      125.238,7.159
      125.884,-7.827
      128.901,-26.973
    " />
    <g style="stroke: black; stroke-width: 1" id="pairs">
      <line id="1,71" x1="110.898" y1="-8.473" x2="125.884" y2="-7.827" />
      <line id="2,70" x1="110.252" y1=" 6.513" x2="125.238" y2=" 7.159" />
      <line id="3,69" x1="109.607" y1="21.499" x2="124.593" y2="22.145" />
      <line id="4,68" x1="108.962" y1="36.486" x2="123.948" y2="37.131" />
      <line id="5,67" x1="108.316" y1="51.472" x2="123.302" y2="52.117" />
      <line id="6,66" x1="107.671" y1="66.458" x2="122.657" y2="67.103" />
      <line id="7,65" x1="107.026" y1="81.444" x2="122.012" y2="82.089" />
      <line id="10,25" x1="71.078" y1="107.151" x2="70.110" y2="122.120" />
      <line id="11,24" x1="56.109" y1="106.183" x2="55.142" y2="121.152" />
      <line id="12,23" x1="41.140" y1="105.216" x2="40.173" y2="120.184" />
      <line id="13,22" x1="26.172" y1="104.248" x2="25.204" y2="119.217" />
      <line id="27,43" x1="88.769" y1="144.793" x2="103.644" y2="146.724" />
      <line id="28,42" x1="86.837" y1="159.668" x2="101.712" y2="161.599" />
      <line id="29,41" x1="84.906" y1="174.543" x2="99.781" y2="176.474" />
      <line id="30,40" x1="82.975" y1="189.418" x2="97.850" y2="191.349" />
      <line id="48,64" x1="134.566" y1="107.261" x2="132.955" y2="92.348" />
      <line id="49,63" x1="149.479" y1="105.651" x2="147.868" y2="90.737" />
      <line id="50,62" x1="164.392" y1="104.040" x2="162.782" y2="89.127" />
      <line id="51,61" x1="179.306" y1="102.429" x2="177.695" y2="87.516" />
      <line id="52,60" x1="194.219" y1="100.818" x2="192.608" y2="85.905" />
    </g>
    <g style="font-family: SansSerif" transform="translate(-4.6, 4)" id="seq">
      <text x="110.898" y="-8.473">C</text>
      <text x="110.252" y="6.513">A</text>
      <text x="109.607" y="21.499">G</text>
      <text x="108.962" y="36.486">A</text>
      <text x="108.316" y="51.472">G</text>
      <text x="107.671" y="66.458">U</text>
      <text x="107.026" y="81.444">G</text>
      <text x="90.368" y="83.935">U</text>
      <text x="77.534" y="93.467">A</text>
      <text x="71.078" y="107.151">A</text>
      <text x="56.109" y="106.183">C</text>
      <text x="41.140" y="105.216">U</text>
      <text x="26.172" y="104.248">U</text>
      <text x="17.994" y="91.061">A</text>
      <text x="3.614" y="85.230">A</text>
      <text x="-11.439" y="88.998">U</text>
      <text x="-21.376" y="100.915">A</text>
      <text x="-22.377" y="116.400">G</text>
      <text x="-14.057" y="129.498">C</text>
      <text x="0.386" y="135.172">U</text>
      <text x="15.396" y="131.241">A</text>
      <text x="25.204" y="119.217">A</text>
      <text x="40.173" y="120.184">A</text>
      <text x="55.142" y="121.152">G</text>
      <text x="70.110" y="122.120">U</text>
      <text x="76.521" y="135.858">U</text>
      <text x="88.769" y="144.793">U</text>
      <text x="86.837" y="159.668">C</text>
      <text x="84.906" y="174.543">U</text>
      <text x="82.975" y="189.418">C</text>
      <text x="68.987" y="195.925">C</text>
      <text x="60.757" y="208.974">C</text>
      <text x="60.911" y="224.401">U</text>
      <text x="69.400" y="237.282">U</text>
      <text x="83.515" y="243.509">A</text>
      <text x="98.752" y="241.093">C</text>
      <text x="110.249" y="230.806">A</text>
      <text x="114.338" y="215.930">U</text>
      <text x="109.713" y="201.213">U</text>
      <text x="97.850" y="191.349">G</text>
      <text x="99.781" y="176.474">A</text>
      <text x="101.712" y="161.599">G</text>
      <text x="103.644" y="146.724">A</text>
      <text x="114.053" y="144.709">G</text>
      <text x="123.476" y="139.098">G</text>
      <text x="130.671" y="130.343">A</text>
      <text x="134.600" y="119.325">C</text>
      <text x="134.566" y="107.261">A</text>
      <text x="149.479" y="105.651">C</text>
      <text x="164.392" y="104.040">C</text>
      <text x="179.306" y="102.429">U</text>
      <text x="194.219" y="100.818">G</text>
      <text x="205.373" y="111.779">U</text>
      <text x="220.966" y="112.954">G</text>
      <text x="233.636" y="103.789">C</text>
      <text x="237.401" y="88.611">A</text>
      <text x="230.482" y="74.587">A</text>
      <text x="216.147" y="68.339">A</text>
      <text x="201.165" y="72.816">U</text>
      <text x="192.608" y="85.905">C</text>
      <text x="177.695" y="87.516">A</text>
      <text x="162.782" y="89.127">G</text>
      <text x="147.868" y="90.737">G</text>
      <text x="132.955" y="92.348">U</text>
      <text x="122.012" y="82.089">C</text>
      <text x="122.657" y="67.103">G</text>
      <text x="123.302" y="52.117">C</text>
      <text x="123.948" y="37.131">U</text>
      <text x="124.593" y="22.145">C</text>
      <text x="125.238" y="7.159">U</text>
      <text x="125.884" y="-7.827">G</text>
      <text x="128.901" y="-26.973">A</text>
    </g>
  </g>
</svg>
