<?xml version="1.0" encoding="UTF-8" standalone="yes"?>
<svg xmlns="http://www.w3.org/2000/svg" height="452" width="452">
<script type="text/ecmascript">
      <![CDATA[
        var shown = 1;
        function click() {
             var seq = document.getElementById("seq");
             if (shown==1) {
               seq.setAttribute("style", "visibility: hidden");
               shown = 0;
             } else {
               seq.setAttribute("style", "visibility: visible");
               shown = 1;
             }
         }
        ]]>
</script>
  <rect style="stroke: white; fill: white" height="452" x="0" y="0" width="452" onclick="click(evt)" />
  <g transform="scale(1.608008,1.608008) translate(23.033798,33.312744)">
    <polyline style="stroke: black; fill: none; stroke-width: 1.5" id="outline" points="
      112.307,-9.870
      111.614,5.114
      110.921,20.098
      110.228,35.082
      109.536,50.066
      108.843,65.050
      108.150,80.034
      92.054,81.793
      79.239,90.289
      72.154,103.011
      57.297,100.938
      42.441,98.866
      33.118,86.104
      17.490,83.756
      4.827,93.213
      2.644,108.866
      12.235,121.427
      27.910,123.445
      40.369,113.722
      55.225,115.795
      70.081,117.867
      74.772,130.906
      84.806,140.464
      80.701,154.892
      76.596,169.319
      72.491,183.746
      68.386,198.174
      54.040,204.398
      47.098,218.410
      50.837,233.594
      63.492,242.780
      79.087,241.632
      90.260,230.690
      91.734,215.122
      82.813,202.279
      86.918,187.851
      91.023,173.424
      95.128,158.997
      99.233,144.569
      110.401,143.847
      120.905,138.986
      129.217,130.393
      134.025,119.031
      134.434,106.318
      149.417,105.625
      164.401,104.932
      179.385,104.239
      194.369,103.547
      205.879,114.378
      221.673,113.815
      232.382,102.192
      231.652,86.404
      219.916,75.819
      204.137,76.716
      193.677,88.563
      178.693,89.255
      163.709,89.948
      148.725,90.641
      133.741,91.334
      123.134,80.727
      123.827,65.743
      124.520,50.759
      125.212,35.775
      125.905,20.791
      126.598,5.807
      127.291,-9.177
      130.369,-28.313
    " />
    <g style="stroke: black; stroke-width: 1" id="pairs">
      <line id="1,66" x1="112.307" y1="-9.870" x2="127.291" y2="-9.177" />
      <line id="2,65" x1="111.614" y1=" 5.114" x2="126.598" y2=" 5.807" />
      <line id="3,64" x1="110.921" y1="20.098" x2="125.905" y2="20.791" />
      <line id="4,63" x1="110.228" y1="35.082" x2="125.212" y2="35.775" />
      <line id="5,62" x1="109.536" y1="50.066" x2="124.520" y2="50.759" />
      <line id="6,61" x1="108.843" y1="65.050" x2="123.827" y2="65.743" />
      <line id="7,60" x1="108.150" y1="80.034" x2="123.134" y2="80.727" />
      <line id="10,21" x1="72.154" y1="103.011" x2="70.081" y2="117.867" />
      <line id="11,20" x1="57.297" y1="100.938" x2="55.225" y2="115.795" />
      <line id="12,19" x1="42.441" y1="98.866" x2="40.369" y2="113.722" />
      <line id="23,39" x1="84.806" y1="140.464" x2="99.233" y2="144.569" />
      <line id="24,38" x1="80.701" y1="154.892" x2="95.128" y2="158.997" />
      <line id="25,37" x1="76.596" y1="169.319" x2="91.023" y2="173.424" />
      <line id="26,36" x1="72.491" y1="183.746" x2="86.918" y2="187.851" />
      <line id="27,35" x1="68.386" y1="198.174" x2="82.813" y2="202.279" />
      <line id="44,59" x1="134.434" y1="106.318" x2="133.741" y2="91.334" />
      <line id="45,58" x1="149.417" y1="105.625" x2="148.725" y2="90.641" />
      <line id="46,57" x1="164.401" y1="104.932" x2="163.709" y2="89.948" />
      <line id="47,56" x1="179.385" y1="104.239" x2="178.693" y2="89.255" />
      <line id="48,55" x1="194.369" y1="103.547" x2="193.677" y2="88.563" />
    </g>
    <g style="font-family: SansSerif" transform="translate(-4.6, 4)" id="seq">
      <text x="112.307" y="-9.870">G</text>
      <text x="111.614" y="5.114">G</text>
      <text x="110.921" y="20.098">U</text>
      <text x="110.228" y="35.082">A</text>
      <text x="109.536" y="50.066">A</text>
      <text x="108.843" y="65.050">G</text>
      <text x="108.150" y="80.034">A</text>
      <text x="92.054" y="81.793">U</text>
      <text x="79.239" y="90.289">G</text>
      <text x="72.154" y="103.011">G</text>
      <text x="57.297" y="100.938">C</text>
      <text x="42.441" y="98.866">C</text>
      <text x="33.118" y="86.104">G</text>
      <text x="17.490" y="83.756">A</text>
      <text x="4.827" y="93.213">G</text>
      <text x="2.644" y="108.866">A</text>
      <text x="12.235" y="121.427">U</text>
      <text x="27.910" y="123.445">A</text>
      <text x="40.369" y="113.722">G</text>
      <text x="55.225" y="115.795">G</text>
      <text x="70.081" y="117.867">U</text>
      <text x="74.772" y="130.906">G</text>
      <text x="84.806" y="140.464">G</text>
      <text x="80.701" y="154.892">C</text>
      <text x="76.596" y="169.319">G</text>
      <text x="72.491" y="183.746">G</text>
      <text x="68.386" y="198.174">G</text>
      <text x="54.040" y="204.398">U</text>
      <text x="47.098" y="218.410">U</text>
      <text x="50.837" y="233.594">G</text>
      <text x="63.492" y="242.780">U</text>
      <text x="79.087" y="241.632">A</text>
      <text x="90.260" y="230.690">G</text>
      <text x="91.734" y="215.122">C</text>
      <text x="82.813" y="202.279">C</text>
      <text x="86.918" y="187.851">C</text>
      <text x="91.023" y="173.424">C</text>
      <text x="95.128" y="158.997">G</text>
      <text x="99.233" y="144.569">C</text>
      <text x="110.401" y="143.847">A</text>
      <text x="120.905" y="138.986">G</text>
      <text x="129.217" y="130.393">A</text>
      <text x="134.025" y="119.031">C</text>
      <text x="134.434" y="106.318">A</text>
      <text x="149.417" y="105.625">G</text>
      <text x="164.401" y="104.932">A</text>
      <text x="179.385" y="104.239">G</text>
      <text x="194.369" y="103.547">G</text>
      <text x="205.879" y="114.378">A</text>
      <text x="221.673" y="113.815">U</text>
      <text x="232.382" y="102.192">A</text>
      <text x="231.652" y="86.404">U</text>
      <text x="219.916" y="75.819">A</text>
      <text x="204.137" y="76.716">A</text>
      <text x="193.677" y="88.563">C</text>
      <text x="178.693" y="89.255">C</text>
      <text x="163.709" y="89.948">U</text>
      <text x="148.725" y="90.641">C</text>
      <text x="133.741" y="91.334">U</text>
      <text x="123.134" y="80.727">U</text>
      <text x="123.827" y="65.743">C</text>
      <text x="124.520" y="50.759">U</text>
      <text x="125.212" y="35.775">U</text>
      <text x="125.905" y="20.791">A</text>
      <text x="126.598" y="5.807">U</text>
      <text x="127.291" y="-9.177">C</text>
      <text x="130.369" y="-28.313">A</text>
    </g>
  </g>
</svg>
