<?xml version="1.0" encoding="UTF-8" standalone="yes"?>
<svg xmlns="http://www.w3.org/2000/svg" height="452" width="452">
<script type="text/ecmascript">
      <![CDATA[
        var shown = 1;
        function click() {
             var seq = document.getElementById("seq");
             if (shown==1) {
               seq.setAttribute("style", "visibility: hidden");
               shown = 0;
             } else {
               seq.setAttribute("style", "visibility: visible");
               shown = 1;
             }
         }
        ]]>
</script>
  <rect style="stroke: white; fill: white" height="452" x="0" y="0" width="452" onclick="click(evt)" />
  <g transform="scale(0.262416,0.262416) translate(470.442627,707.342773)">
    <polyline style="stroke: black; fill: none; stroke-width: 1.5" id="outline" points="
      121.257,101.802
      120.892,116.797
      120.527,131.793
      113.030,131.611
      111.864,116.656
      121.860,104.710
      120.464,89.560
      109.014,80.104
      120.301,69.282
      121.940,53.730
      113.156,40.793
      98.097,36.578
      83.874,43.076
      77.201,57.218
      81.231,72.328
      94.059,81.270
      84.213,92.387
      85.182,107.569
      96.909,117.822
      98.075,132.777
      73.751,151.571
      63.217,175.343
      50.580,167.262
      43.123,153.308
      28.232,152.969
      15.595,144.887
      2.959,136.806
      -9.678,128.724
      -22.315,120.642
      -34.952,112.561
      -47.588,104.479
      -44.621,92.800
      -47.367,79.988
      -56.143,68.876
      -69.868,62.302
      -86.147,62.420
      -97.314,52.405
      -108.481,42.390
      -119.647,32.375
      -130.798,22.341
      -141.932,12.290
      -137.223,2.412
      -137.197,-9.601
      -142.734,-21.460
      -153.592,-30.561
      -168.315,-34.531
      -178.385,-45.649
      -188.454,-56.767
      -191.834,-65.113
      -198.575,-67.904
      -208.680,-78.989
      -218.785,-90.074
      -203.998,-109.276
      -205.140,-138.872
      -228.063,-165.454
      -233.617,-179.388
      -230.726,-195.530
      -243.432,-205.897
      -258.665,-199.825
      -260.755,-183.559
      -247.551,-173.833
      -241.997,-159.900
      -248.361,-155.931
      -256.298,-168.658
      -264.236,-181.386
      -276.964,-173.447
      -269.026,-160.720
      -261.088,-147.993
      -267.452,-144.024
      -277.521,-155.142
      -287.591,-166.260
      -280.265,-172.694
      -274.540,-181.552
      -271.170,-192.391
      -270.779,-204.545
      -273.792,-217.164
      -280.391,-229.274
      -290.475,-239.848
      -303.649,-247.890
      -312.076,-260.299
      -306.128,-276.198
      -310.828,-292.335
      -324.115,-302.353
      -340.589,-302.430
      -348.975,-314.866
      -357.362,-327.302
      -350.555,-341.071
      -351.561,-356.397
      -360.108,-369.158
      -373.898,-375.921
      -389.221,-374.867
      -401.955,-366.280
      -408.675,-352.469
      -407.573,-337.150
      -398.946,-324.443
      -385.114,-317.766
      -369.798,-318.916
      -361.412,-306.479
      -353.025,-294.043
      -358.720,-282.046
      -357.767,-268.692
      -350.308,-257.445
      -338.184,-251.274
      -324.485,-251.872
      -316.059,-239.463
      -321.801,-234.639
      -331.450,-246.124
      -342.935,-236.476
      -333.287,-224.991
      -339.030,-220.167
      -349.798,-230.609
      -360.567,-241.051
      -371.319,-251.510
      -382.053,-261.987
      -375.550,-275.661
      -373.841,-290.707
      -377.113,-305.491
      -385.009,-318.411
      -396.675,-328.064
      -410.844,-333.405
      -425.979,-333.853
      -440.439,-329.360
      -452.655,-320.413
      -461.302,-307.983
      -465.443,-293.418
      -464.627,-278.298
      -458.943,-264.263
      -449.009,-252.836
      -435.901,-245.255
      -421.042,-242.344
      -406.042,-244.418
      -392.530,-251.252
      -381.796,-240.776
      -379.235,-233.944
      -371.009,-230.282
      -360.240,-219.840
      -349.472,-209.398
      -354.277,-203.640
      -369.056,-206.205
      -363.888,-192.123
      -368.693,-186.365
      -371.537,-198.860
      -381.772,-205.888
      -393.665,-204.167
      -405.893,-212.854
      -415.305,-226.955
      -431.461,-221.815
      -430.994,-204.868
      -414.580,-200.625
      -402.351,-191.938
      -395.837,-175.586
      -377.419,-174.164
      -359.684,-151.952
      -336.304,-142.200
      -314.183,-144.750
      -298.709,-156.190
      -288.639,-145.072
      -278.570,-133.954
      -283.205,-128.058
      -298.053,-130.191
      -292.476,-116.266
      -297.111,-110.370
      -310.292,-117.531
      -318.391,-131.790
      -334.789,-131.636
      -342.618,-117.226
      -333.823,-103.384
      -317.452,-104.350
      -304.272,-97.190
      -295.652,-83.597
      -284.312,-73.690
      -271.548,-67.869
      -258.662,-66.124
      -246.833,-68.066
      -237.017,-72.989
      -229.871,-79.969
      -219.765,-68.884
      -209.660,-57.799
      -199.572,-46.697
      -189.503,-35.579
      -179.433,-24.461
      -183.330,-18.053
      -196.147,-25.846
      -208.963,-33.639
      -221.780,-41.431
      -229.573,-28.614
      -216.756,-20.822
      -203.939,-13.029
      -191.123,-5.236
      -195.019,1.172
      -209.524,-2.651
      -224.028,-6.475
      -238.533,-10.298
      -243.373,-19.859
      -252.452,-25.131
      -262.720,-24.616
      -270.873,-18.717
      -285.402,-22.447
      -299.931,-26.176
      -314.460,-29.906
      -328.989,-33.635
      -340.322,-45.488
      -356.187,-41.339
      -360.264,-25.454
      -348.359,-14.176
      -332.718,-19.106
      -318.189,-15.377
      -303.660,-11.647
      -289.132,-7.918
      -274.603,-4.188
      -261.664,10.277
      -242.356,4.206
      -227.852,8.030
      -213.347,11.853
      -198.843,15.677
      -174.346,31.387
      -151.983,23.424
      -140.849,33.475
      -138.025,40.202
      -129.663,43.541
      -118.496,53.557
      -107.329,63.572
      -96.163,73.587
      -98.586,80.685
      -112.781,75.837
      -124.784,66.840
      -137.049,75.475
      -132.627,89.809
      -117.629,90.032
      -103.434,94.880
      -105.858,101.977
      -120.818,103.071
      -135.778,104.164
      -150.738,105.257
      -165.698,106.350
      -180.679,107.104
      -195.673,107.517
      -210.668,107.930
      -216.220,93.825
      -226.263,82.472
      -239.586,75.241
      -254.578,73.006
      -269.431,76.036
      -282.349,83.966
      -291.774,95.838
      -296.567,110.219
      -296.149,125.372
      -290.571,139.466
      -280.507,150.801
      -267.171,158.008
      -252.174,160.215
      -237.328,157.158
      -224.424,149.204
      -215.021,137.314
      -210.254,122.925
      -195.260,122.511
      -180.266,122.098
      -193.767,128.634
      -203.752,139.828
      -208.709,153.985
      -207.888,168.962
      -201.413,182.493
      -190.265,192.528
      -176.130,197.549
      -161.149,196.796
      -147.589,190.382
      -137.504,179.278
      -132.419,165.166
      -133.106,150.182
      -139.458,136.594
      -150.516,126.458
      -164.605,121.310
      -149.645,120.217
      -134.685,119.124
      -119.724,118.031
      -104.764,116.938
      -77.467,128.887
      -55.670,117.116
      -43.033,125.197
      -30.397,133.279
      -17.760,141.361
      -5.123,149.442
      7.514,157.524
      20.150,165.606
      26.704,178.981
      42.498,179.898
      55.135,187.980
      51.981,197.836
      50.965,208.134
      52.133,218.416
      55.433,228.224
      60.718,237.121
      67.752,244.711
      59.732,257.387
      51.712,270.063
      43.692,282.739
      39.849,278.455
      34.566,275.010
      28.047,272.786
      20.584,272.117
      12.549,273.263
      4.375,276.398
      -3.460,281.595
      -14.229,292.037
      -24.998,302.479
      -35.767,312.921
      -50.965,310.406
      -64.570,317.243
      -71.459,330.623
      -69.177,345.317
      -79.945,355.759
      -92.337,347.224
      -106.151,341.273
      -120.856,338.132
      -135.886,337.921
      -150.665,340.646
      -164.623,346.199
      -177.225,354.366
      -187.988,364.832
      -196.500,377.193
      -202.435,390.972
      -205.566,405.640
      -205.776,420.632
      -203.057,435.372
      -197.517,449.294
      -189.369,461.864
      -200.138,472.306
      -215.431,476.358
      -219.182,490.772
      -229.951,501.214
      -240.720,511.656
      -251.488,522.098
      -262.257,532.540
      -269.619,527.635
      -279.327,525.843
      -289.981,528.182
      -299.779,535.024
      -306.810,545.957
      -318.106,555.826
      -329.402,565.696
      -340.697,575.566
      -356.180,578.819
      -360.673,593.020
      -377.176,589.044
      -392.624,595.666
      -400.957,610.070
      -399.035,626.432
      -410.363,636.264
      -421.690,646.097
      -437.435,644.734
      -449.479,654.967
      -450.676,670.726
      -440.316,682.661
      -424.545,683.691
      -412.721,673.206
      -411.857,657.425
      -400.530,647.592
      -389.202,637.759
      -376.603,641.957
      -363.463,639.391
      -353.203,630.623
      -348.549,617.840
      -350.804,604.316
      -336.129,601.768
      -330.828,586.861
      -319.532,576.992
      -308.236,567.122
      -296.941,557.252
      -291.456,562.368
      -301.686,573.337
      -311.917,584.307
      -322.148,595.277
      -332.378,606.247
      -342.609,617.216
      -345.984,631.832
      -331.639,627.447
      -321.408,616.477
      -311.178,605.508
      -300.947,594.538
      -290.717,583.568
      -280.486,572.598
      -275.001,577.714
      -290.315,583.579
      -292.625,599.815
      -279.555,609.719
      -264.549,603.103
      -263.046,586.772
      -245.747,564.602
      -251.815,543.309
      -241.046,532.867
      -230.278,522.425
      -219.509,511.983
      -208.740,501.541
      -194.217,498.236
      -189.696,483.074
      -178.927,472.632
      -166.615,481.163
      -152.870,487.130
      -138.220,490.301
      -123.229,490.553
      -108.472,487.875
      -94.516,482.367
      -81.899,474.240
      -71.107,463.804
      -62.555,451.459
      -56.575,437.679
      -53.397,422.992
      -53.145,407.962
      -55.831,393.167
      -61.354,379.176
      -69.503,366.528
      -58.735,356.086
      -44.117,358.820
      -30.532,352.346
      -23.279,338.958
      -25.325,323.689
      -14.556,313.247
      -3.787,302.805
      6.982,292.363
      13.452,296.155
      5.868,309.097
      18.810,316.680
      26.394,303.739
      32.864,307.531
      29.017,322.030
      25.170,336.528
      21.323,351.026
      17.476,365.524
      13.629,380.023
      10.131,383.553
      8.424,387.650
      8.436,391.565
      9.816,394.681
      6.110,409.216
      -8.154,415.033
      -16.164,427.982
      -15.027,442.988
      -5.387,454.311
      -9.093,468.846
      -12.799,483.381
      -16.505,497.916
      -31.174,502.694
      -40.913,514.659
      -42.615,529.992
      -35.736,543.801
      -22.472,551.679
      -7.055,551.113
      5.595,542.283
      11.442,528.007
      8.621,512.840
      -1.970,501.622
      1.736,487.087
      5.442,472.552
      9.148,458.017
      23.032,452.691
      31.215,440.062
      30.383,424.858
      20.645,412.922
      24.351,398.387
      28.128,383.870
      31.975,369.372
      35.822,354.873
      39.669,340.375
      43.516,325.877
      47.363,311.378
      44.525,326.108
      44.325,341.106
      46.769,355.906
      51.780,370.044
      59.202,383.079
      68.803,394.604
      80.283,404.259
      93.283,411.741
      107.398,416.818
      122.186,419.331
      137.185,419.201
      151.928,416.433
      165.952,411.112
      178.821,403.405
      190.132,393.553
      199.532,381.864
      206.727,368.702
      211.492,354.479
      213.679,339.639
      213.220,324.646
      210.127,309.969
      204.500,296.064
      196.512,283.368
      186.413,272.277
      174.520,263.136
      161.203,256.232
      146.879,251.781
      131.995,249.921
      117.015,250.710
      102.409,254.124
      88.632,260.056
      76.115,268.322
      65.248,278.661
      56.367,290.759
      64.388,278.083
      72.408,265.407
      80.428,252.731
      130.817,261.601
      174.476,216.776
      177.756,231.413
      181.037,246.050
      170.851,253.757
      164.323,264.682
      162.374,277.212
      165.257,289.513
      172.514,299.798
      183.060,306.585
      195.336,308.914
      198.711,323.529
      202.086,338.145
      205.461,352.760
      196.875,366.029
      200.268,381.464
      213.627,389.909
      229.026,386.353
      237.330,372.906
      233.611,357.545
      220.077,349.385
      216.702,334.769
      213.326,320.154
      209.951,305.539
      223.007,294.157
      228.454,277.621
      224.681,260.532
      212.654,247.696
      195.673,242.769
      192.393,228.132
      189.113,213.495
      194.334,208.111
      204.230,219.384
      209.211,233.533
      223.863,236.744
      234.305,225.975
      230.643,211.429
      216.348,206.887
      204.776,197.342
      209.997,191.958
      224.728,194.786
      239.454,197.638
      254.176,200.513
      261.881,205.174
      268.950,203.374
      283.681,206.202
      298.412,209.030
      313.143,211.858
      327.874,214.686
      342.605,217.514
      357.337,220.342
      372.068,223.170
      374.404,244.041
      383.720,262.841
      398.882,277.314
      418.057,285.730
      438.934,287.088
      458.999,281.240
      475.844,268.902
      487.450,251.569
      501.809,255.907
      516.168,260.245
      530.527,264.584
      544.886,268.922
      529.901,291.966
      537.651,327.023
      573.685,355.392
      587.002,362.294
      600.319,369.197
      613.637,376.100
      626.954,383.003
      640.271,389.906
      653.589,396.809
      666.906,403.712
      680.212,410.636
      693.507,417.582
      690.787,427.119
      692.770,438.240
      700.151,448.568
      712.438,455.494
      721.880,467.150
      731.322,478.806
      740.763,490.461
      736.620,505.415
      742.089,519.936
      755.067,528.442
      770.564,527.661
      782.622,517.894
      786.603,502.896
      780.977,488.435
      767.907,480.070
      752.419,481.020
      742.977,469.364
      733.536,457.708
      724.094,446.053
      728.594,440.053
      740.594,449.053
      752.593,458.054
      764.593,467.055
      773.593,455.055
      761.594,446.055
      749.594,437.054
      737.595,428.053
      742.095,422.054
      755.928,427.855
      769.760,433.657
      783.593,439.459
      797.425,445.261
      811.258,451.063
      825.090,456.865
      824.332,465.930
      825.672,474.912
      829.032,483.335
      834.227,490.751
      840.975,496.768
      848.910,501.070
      857.608,503.433
      866.602,503.737
      875.412,501.972
      883.570,498.238
      890.642,492.742
      896.256,485.779
      910.216,491.266
      916.953,497.241
      924.231,496.748
      938.210,502.189
      942.501,506.948
      947.753,508.662
      952.296,507.620
      966.309,512.970
      980.323,518.321
      994.336,523.672
      1008.323,529.090
      1022.284,534.577
      1036.244,540.063
      1050.196,545.573
      1064.139,551.104
      1078.081,556.636
      1077.002,571.801
      1082.939,586.808
      1095.465,598.412
      1112.666,603.753
      1131.417,601.026
      1145.014,607.362
      1158.610,613.697
      1156.481,623.370
      1159.537,634.410
      1168.357,644.003
      1182.031,649.198
      1195.480,655.840
      1208.929,662.483
      1215.418,677.155
      1230.970,681.090
      1243.657,671.270
      1243.744,655.227
      1231.166,645.268
      1215.571,649.034
      1202.122,642.391
      1188.673,635.748
      1194.854,622.081
      1201.035,608.414
      1214.905,614.126
      1224.480,627.439
      1240.768,625.534
      1247.013,610.371
      1236.791,597.548
      1220.617,600.256
      1206.747,594.544
      1181.095,587.452
      1164.946,600.101
      1151.349,593.765
      1137.753,587.430
      1140.337,580.389
      1154.419,585.557
      1169.198,582.993
      1159.587,571.476
      1145.505,566.308
      1148.090,559.267
      1162.556,563.231
      1177.023,567.196
      1184.628,581.050
      1199.826,585.388
      1213.599,577.636
      1217.776,562.394
      1209.879,548.704
      1194.593,544.688
      1180.987,552.729
      1166.521,548.765
      1152.054,544.800
      1142.232,532.771
      1129.334,525.328
      1115.261,523.052
      1101.922,525.801
      1090.973,532.778
      1083.613,542.693
      1069.670,537.162
      1055.728,531.630
      1050.733,526.313
      1041.731,526.103
      1027.770,520.616
      1013.810,515.130
      1012.088,512.189
      1008.917,509.892
      1004.596,508.882
      999.686,509.658
      985.673,504.308
      971.660,498.957
      957.647,493.607
      943.651,488.211
      929.673,482.769
      915.703,477.305
      901.742,471.819
      899.920,450.977
      887.486,434.055
      867.996,426.031
      847.098,429.316
      830.892,443.033
      817.060,437.231
      803.227,431.429
      789.395,425.627
      775.562,419.825
      761.730,414.023
      747.897,408.221
      721.501,392.667
      700.453,404.287
      687.158,397.341
      682.741,391.535
      673.809,390.394
      660.491,383.491
      647.174,376.589
      633.857,369.686
      620.540,362.783
      607.222,355.880
      593.905,348.977
      580.588,342.074
      581.834,334.679
      596.625,337.172
      610.682,331.935
      599.118,322.380
      584.327,319.887
      585.573,312.492
      600.418,310.335
      615.262,308.178
      630.106,306.022
      644.950,303.865
      661.494,307.571
      669.635,292.700
      657.599,280.760
      642.793,289.021
      627.949,291.178
      613.105,293.334
      598.261,295.491
      583.417,297.647
      581.682,290.351
      596.275,286.881
      610.868,283.411
      625.461,279.942
      640.055,276.472
      650.958,266.171
      636.585,261.879
      621.992,265.348
      607.399,268.818
      592.805,272.288
      578.212,275.758
      576.477,268.461
      592.019,271.424
      601.636,260.051
      615.863,255.296
      630.089,250.541
      644.315,245.785
      658.542,241.030
      672.570,248.309
      687.611,243.458
      694.741,229.353
      689.731,214.364
      675.552,207.383
      660.617,212.552
      653.786,226.804
      639.560,231.559
      625.334,236.314
      611.107,241.070
      596.881,245.825
      582.357,242.522
      571.722,254.235
      583.689,245.191
      589.831,231.506
      588.633,216.554
      580.391,204.022
      567.136,197.000
      552.138,197.219
      539.094,204.625
      531.221,217.393
      530.460,232.374
      536.999,245.874
      549.224,254.563
      534.865,250.225
      520.506,245.886
      506.148,241.548
      491.789,237.210
      492.521,230.893
      492.582,224.535
      491.971,218.206
      490.695,211.976
      488.768,205.917
      486.212,200.094
      498.662,191.728
      511.112,183.361
      526.882,182.086
      533.130,168.566
      545.580,160.199
      559.012,167.536
      574.316,167.779
      587.974,160.872
      596.849,148.402
      598.900,133.235
      593.657,118.855
      582.324,108.568
      567.506,104.737
      552.607,108.243
      541.052,118.279
      535.495,132.540
      537.214,147.749
      524.763,156.115
      509.884,156.792
      502.746,170.911
      490.296,179.278
      477.845,187.644
      470.258,180.291
      461.496,174.375
      451.827,170.082
      441.549,167.545
      430.979,166.846
      420.443,168.009
      410.266,170.999
      400.764,175.727
      392.231,182.050
      384.931,189.773
      379.092,198.660
      374.895,208.439
      360.164,205.611
      345.433,202.783
      330.702,199.955
      315.971,197.127
      301.240,194.299
      286.509,191.471
      271.778,188.643
      257.052,185.792
      242.330,182.916
      236.443,178.607
      227.556,180.055
      212.825,177.227
      209.569,170.471
      223.853,165.890
      238.136,161.309
      252.420,156.728
      267.360,158.061
      279.621,149.420
      283.389,134.901
      276.878,121.387
      263.175,115.286
      248.776,119.490
      240.507,132.006
      228.024,140.323
      215.541,148.641
      203.058,156.958
      199.802,150.201
      206.770,136.917
      213.737,123.634
      226.999,115.007
      226.059,100.142
      233.027,86.858
      247.191,91.875
      261.924,94.824
      276.928,95.647
      291.896,94.326
      306.523,90.889
      320.512,85.404
      333.579,77.984
      345.456,68.781
      355.903,57.980
      364.706,45.803
      371.686,32.497
      376.702,18.333
      379.651,3.599
      380.472,-11.405
      379.151,-26.373
      375.712,-41.000
      370.227,-54.989
      362.806,-68.055
      353.602,-79.931
      342.801,-90.377
      330.623,-99.180
      317.316,-106.159
      303.152,-111.174
      288.418,-114.122
      273.414,-114.943
      258.446,-113.620
      243.819,-110.180
      229.831,-104.694
      216.765,-97.273
      204.889,-88.068
      194.444,-77.266
      185.642,-65.088
      178.663,-51.781
      173.649,-37.616
      170.703,-22.882
      169.883,-7.878
      171.206,7.090
      174.647,21.716
      180.134,35.705
      187.556,48.770
      196.762,60.645
      207.564,71.090
      219.743,79.891
      212.776,93.174
      200.012,100.851
      200.454,116.666
      193.486,129.950
      186.519,143.233
      179.364,140.983
      183.865,126.674
      188.366,112.365
      192.867,98.057
      197.368,83.748
      201.869,69.439
      206.370,55.130
      210.870,40.821
      196.561,36.321
      192.061,50.629
      187.560,64.938
      183.059,79.247
      178.558,93.556
      174.057,107.865
      169.556,122.173
      165.055,136.482
      157.901,134.232
      159.793,119.351
      161.684,104.471
      163.576,89.591
      165.467,74.711
      167.359,59.830
      169.250,44.950
      171.142,30.070
      173.034,15.190
      174.925,0.309
      185.276,-12.411
      179.183,-27.636
      162.915,-29.704
      153.206,-16.487
      160.045,-1.582
      158.153,13.298
      156.262,28.178
      154.370,43.059
      152.479,57.939
      150.587,72.819
      148.695,87.699
      146.804,102.580
      144.912,117.460
      143.021,132.340
      135.523,132.158
      135.888,117.162
      136.252,102.167
      136.617,87.171
      136.982,72.175
      129.800,59.007
      121.986,71.811
    " />
    <g style="stroke: black; stroke-width: 1" id="pairs">
      <line id="4,20" x1="113.030" y1="131.611" x2="98.075" y2="132.777" />
      <line id="5,19" x1="111.864" y1="116.656" x2="96.909" y2="117.822" />
      <line id="8,16" x1="109.014" y1="80.104" x2="94.059" y2="81.270" />
      <line id="22,287" x1="63.217" y1="175.343" x2="55.135" y2="187.980" />
      <line id="23,286" x1="50.580" y1="167.262" x2="42.498" y2="179.898" />
      <line id="25,284" x1="28.232" y1="152.969" x2="20.150" y2="165.606" />
      <line id="26,283" x1="15.595" y1="144.887" x2=" 7.514" y2="157.524" />
      <line id="27,282" x1=" 2.959" y1="136.806" x2="-5.123" y2="149.442" />
      <line id="28,281" x1="-9.678" y1="128.724" x2="-17.760" y2="141.361" />
      <line id="29,280" x1="-22.315" y1="120.642" x2="-30.397" y2="133.279" />
      <line id="30,279" x1="-34.952" y1="112.561" x2="-43.033" y2="125.197" />
      <line id="31,278" x1="-47.588" y1="104.479" x2="-55.670" y2="117.116" />
      <line id="36,223" x1="-86.147" y1="62.420" x2="-96.163" y2="73.587" />
      <line id="37,222" x1="-97.314" y1="52.405" x2="-107.329" y2="63.572" />
      <line id="38,221" x1="-108.481" y1="42.390" x2="-118.496" y2="53.557" />
      <line id="39,220" x1="-119.647" y1="32.375" x2="-129.663" y2="43.541" />
      <line id="40,218" x1="-130.798" y1="22.341" x2="-140.849" y2="33.475" />
      <line id="41,217" x1="-141.932" y1="12.290" x2="-151.983" y2="23.424" />
      <line id="46,181" x1="-168.315" y1="-34.531" x2="-179.433" y2="-24.461" />
      <line id="47,180" x1="-178.385" y1="-45.649" x2="-189.503" y2="-35.579" />
      <line id="48,179" x1="-188.454" y1="-56.767" x2="-199.572" y2="-46.697" />
      <line id="50,178" x1="-198.575" y1="-67.904" x2="-209.660" y2="-57.799" />
      <line id="51,177" x1="-208.680" y1="-78.989" x2="-219.765" y2="-68.884" />
      <line id="52,176" x1="-218.785" y1="-90.074" x2="-229.871" y2="-79.969" />
      <line id="55,62" x1="-228.063" y1="-165.454" x2="-241.997" y2="-159.900" />
      <line id="56,61" x1="-233.617" y1="-179.388" x2="-247.551" y2="-173.833" />
      <line id="69,158" x1="-267.452" y1="-144.024" x2="-278.570" y2="-133.954" />
      <line id="70,157" x1="-277.521" y1="-155.142" x2="-288.639" y2="-145.072" />
      <line id="71,156" x1="-287.591" y1="-166.260" x2="-298.709" y2="-156.190" />
      <line id="79,105" x1="-303.649" y1="-247.890" x2="-316.059" y2="-239.463" />
      <line id="80,104" x1="-312.076" y1="-260.299" x2="-324.485" y2="-251.872" />
      <line id="84,99" x1="-340.589" y1="-302.430" x2="-353.025" y2="-294.043" />
      <line id="85,98" x1="-348.975" y1="-314.866" x2="-361.412" y2="-306.479" />
      <line id="86,97" x1="-357.362" y1="-327.302" x2="-369.798" y2="-318.916" />
      <line id="110,137" x1="-339.030" y1="-220.167" x2="-349.472" y2="-209.398" />
      <line id="111,136" x1="-349.798" y1="-230.609" x2="-360.240" y2="-219.840" />
      <line id="112,135" x1="-360.567" y1="-241.051" x2="-371.009" y2="-230.282" />
      <line id="113,133" x1="-371.319" y1="-251.510" x2="-381.796" y2="-240.776" />
      <line id="114,132" x1="-382.053" y1="-261.987" x2="-392.530" y2="-251.252" />
      <line id="141,152" x1="-368.693" y1="-186.365" x2="-377.419" y2="-174.164" />
      <line id="144,150" x1="-393.665" y1="-204.167" x2="-402.351" y2="-191.938" />
      <line id="145,149" x1="-405.893" y1="-212.854" x2="-414.580" y2="-200.625" />
      <line id="162,169" x1="-297.111" y1="-110.370" x2="-304.272" y2="-97.190" />
      <line id="163,168" x1="-310.292" y1="-117.531" x2="-317.452" y2="-104.350" />
      <line id="190,215" x1="-195.019" y1=" 1.172" x2="-198.843" y2="15.677" />
      <line id="191,214" x1="-209.524" y1="-2.651" x2="-213.347" y2="11.853" />
      <line id="192,213" x1="-224.028" y1="-6.475" x2="-227.852" y2=" 8.030" />
      <line id="193,212" x1="-238.533" y1="-10.298" x2="-242.356" y2=" 4.206" />
      <line id="197,210" x1="-270.873" y1="-18.717" x2="-274.603" y2="-4.188" />
      <line id="198,209" x1="-285.402" y1="-22.447" x2="-289.132" y2="-7.918" />
      <line id="199,208" x1="-299.931" y1="-26.176" x2="-303.660" y2="-11.647" />
      <line id="200,207" x1="-314.460" y1="-29.906" x2="-318.189" y2="-15.377" />
      <line id="201,206" x1="-328.989" y1="-33.635" x2="-332.718" y2="-19.106" />
      <line id="231,276" x1="-105.858" y1="101.977" x2="-104.764" y2="116.938" />
      <line id="232,275" x1="-120.818" y1="103.071" x2="-119.724" y2="118.031" />
      <line id="233,274" x1="-135.778" y1="104.164" x2="-134.685" y2="119.124" />
      <line id="234,273" x1="-150.738" y1="105.257" x2="-149.645" y2="120.217" />
      <line id="235,272" x1="-165.698" y1="106.350" x2="-164.605" y2="121.310" />
      <line id="236,257" x1="-180.679" y1="107.104" x2="-180.266" y2="122.098" />
      <line id="237,256" x1="-195.673" y1="107.517" x2="-195.260" y2="122.511" />
      <line id="238,255" x1="-210.668" y1="107.930" x2="-210.254" y2="122.925" />
      <line id="293,502" x1="67.752" y1="244.711" x2="80.428" y2="252.731" />
      <line id="294,501" x1="59.732" y1="257.387" x2="72.408" y2="265.407" />
      <line id="295,500" x1="51.712" y1="270.063" x2="64.388" y2="278.083" />
      <line id="296,499" x1="43.692" y1="282.739" x2="56.367" y2="290.759" />
      <line id="303,419" x1="-3.460" y1="281.595" x2=" 6.982" y2="292.363" />
      <line id="304,418" x1="-14.229" y1="292.037" x2="-3.787" y2="302.805" />
      <line id="305,417" x1="-24.998" y1="302.479" x2="-14.556" y2="313.247" />
      <line id="306,416" x1="-35.767" y1="312.921" x2="-25.325" y2="323.689" />
      <line id="310,412" x1="-69.177" y1="345.317" x2="-58.735" y2="356.086" />
      <line id="311,411" x1="-79.945" y1="355.759" x2="-69.503" y2="366.528" />
      <line id="326,396" x1="-189.369" y1="461.864" x2="-178.927" y2="472.632" />
      <line id="327,395" x1="-200.138" y1="472.306" x2="-189.696" y2="483.074" />
      <line id="329,393" x1="-219.182" y1="490.772" x2="-208.740" y2="501.541" />
      <line id="330,392" x1="-229.951" y1="501.214" x2="-219.509" y2="511.983" />
      <line id="331,391" x1="-240.720" y1="511.656" x2="-230.278" y2="522.425" />
      <line id="332,390" x1="-251.488" y1="522.098" x2="-241.046" y2="532.867" />
      <line id="333,389" x1="-262.257" y1="532.540" x2="-251.815" y2="543.309" />
      <line id="338,368" x1="-306.810" y1="545.957" x2="-296.941" y2="557.252" />
      <line id="339,367" x1="-318.106" y1="555.826" x2="-308.236" y2="567.122" />
      <line id="340,366" x1="-329.402" y1="565.696" x2="-319.532" y2="576.992" />
      <line id="341,365" x1="-340.697" y1="575.566" x2="-330.828" y2="586.861" />
      <line id="343,363" x1="-360.673" y1="593.020" x2="-350.804" y2="604.316" />
      <line id="347,358" x1="-399.035" y1="626.432" x2="-389.202" y2="637.759" />
      <line id="348,357" x1="-410.363" y1="636.264" x2="-400.530" y2="647.592" />
      <line id="349,356" x1="-421.690" y1="646.097" x2="-411.857" y2="657.425" />
      <line id="382,387" x1="-275.001" y1="577.714" x2="-263.046" y2="586.772" />
      <line id="424,465" x1="32.864" y1="307.531" x2="47.363" y2="311.378" />
      <line id="425,464" x1="29.017" y1="322.030" x2="43.516" y2="325.877" />
      <line id="426,463" x1="25.170" y1="336.528" x2="39.669" y2="340.375" />
      <line id="427,462" x1="21.323" y1="351.026" x2="35.822" y2="354.873" />
      <line id="428,461" x1="17.476" y1="365.524" x2="31.975" y2="369.372" />
      <line id="429,460" x1="13.629" y1="380.023" x2="28.128" y2="383.870" />
      <line id="433,459" x1=" 9.816" y1="394.681" x2="24.351" y2="398.387" />
      <line id="434,458" x1=" 6.110" y1="409.216" x2="20.645" y2="412.922" />
      <line id="438,454" x1="-5.387" y1="454.311" x2=" 9.148" y2="458.017" />
      <line id="439,453" x1="-9.093" y1="468.846" x2=" 5.442" y2="472.552" />
      <line id="440,452" x1="-12.799" y1="483.381" x2=" 1.736" y2="487.087" />
      <line id="441,451" x1="-16.505" y1="497.916" x2="-1.970" y2="501.622" />
      <line id="504,533" x1="174.476" y1="216.776" x2="189.113" y2="213.495" />
      <line id="505,532" x1="177.756" y1="231.413" x2="192.393" y2="228.132" />
      <line id="506,531" x1="181.037" y1="246.050" x2="195.673" y2="242.769" />
      <line id="513,526" x1="195.336" y1="308.914" x2="209.951" y2="305.539" />
      <line id="514,525" x1="198.711" y1="323.529" x2="213.326" y2="320.154" />
      <line id="515,524" x1="202.086" y1="338.145" x2="216.702" y2="334.769" />
      <line id="516,523" x1="205.461" y1="352.760" x2="220.077" y2="349.385" />
      <line id="542,853" x1="209.997" y1="191.958" x2="212.825" y2="177.227" />
      <line id="543,852" x1="224.728" y1="194.786" x2="227.556" y2="180.055" />
      <line id="544,850" x1="239.454" y1="197.638" x2="242.330" y2="182.916" />
      <line id="545,849" x1="254.176" y1="200.513" x2="257.052" y2="185.792" />
      <line id="547,848" x1="268.950" y1="203.374" x2="271.778" y2="188.643" />
      <line id="548,847" x1="283.681" y1="206.202" x2="286.509" y2="191.471" />
      <line id="549,846" x1="298.412" y1="209.030" x2="301.240" y2="194.299" />
      <line id="550,845" x1="313.143" y1="211.858" x2="315.971" y2="197.127" />
      <line id="551,844" x1="327.874" y1="214.686" x2="330.702" y2="199.955" />
      <line id="552,843" x1="342.605" y1="217.514" x2="345.433" y2="202.783" />
      <line id="553,842" x1="357.337" y1="220.342" x2="360.164" y2="205.611" />
      <line id="554,841" x1="372.068" y1="223.170" x2="374.895" y2="208.439" />
      <line id="562,801" x1="487.450" y1="251.569" x2="491.789" y2="237.210" />
      <line id="563,800" x1="501.809" y1="255.907" x2="506.148" y2="241.548" />
      <line id="564,799" x1="516.168" y1="260.245" x2="520.506" y2="245.886" />
      <line id="565,798" x1="530.527" y1="264.584" x2="534.865" y2="250.225" />
      <line id="566,797" x1="544.886" y1="268.922" x2="549.224" y2="254.563" />
      <line id="569,737" x1="573.685" y1="355.392" x2="580.588" y2="342.074" />
      <line id="570,736" x1="587.002" y1="362.294" x2="593.905" y2="348.977" />
      <line id="571,735" x1="600.319" y1="369.197" x2="607.222" y2="355.880" />
      <line id="572,734" x1="613.637" y1="376.100" x2="620.540" y2="362.783" />
      <line id="573,733" x1="626.954" y1="383.003" x2="633.857" y2="369.686" />
      <line id="574,732" x1="640.271" y1="389.906" x2="647.174" y2="376.589" />
      <line id="575,731" x1="653.589" y1="396.809" x2="660.491" y2="383.491" />
      <line id="576,730" x1="666.906" y1="403.712" x2="673.809" y2="390.394" />
      <line id="577,728" x1="680.212" y1="410.636" x2="687.158" y2="397.341" />
      <line id="578,727" x1="693.507" y1="417.582" x2="700.453" y2="404.287" />
      <line id="582,597" x1="712.438" y1="455.494" x2="724.094" y2="446.053" />
      <line id="583,596" x1="721.880" y1="467.150" x2="733.536" y2="457.708" />
      <line id="584,595" x1="731.322" y1="478.806" x2="742.977" y2="469.364" />
      <line id="585,594" x1="740.763" y1="490.461" x2="752.419" y2="481.020" />
      <line id="606,725" x1="742.095" y1="422.054" x2="747.897" y2="408.221" />
      <line id="607,724" x1="755.928" y1="427.855" x2="761.730" y2="414.023" />
      <line id="608,723" x1="769.760" y1="433.657" x2="775.562" y2="419.825" />
      <line id="609,722" x1="783.593" y1="439.459" x2="789.395" y2="425.627" />
      <line id="610,721" x1="797.425" y1="445.261" x2="803.227" y2="431.429" />
      <line id="611,720" x1="811.258" y1="451.063" x2="817.060" y2="437.231" />
      <line id="612,719" x1="825.090" y1="456.865" x2="830.892" y2="443.033" />
      <line id="624,714" x1="896.256" y1="485.779" x2="901.742" y2="471.819" />
      <line id="625,713" x1="910.216" y1="491.266" x2="915.703" y2="477.305" />
      <line id="627,712" x1="924.231" y1="496.748" x2="929.673" y2="482.769" />
      <line id="628,711" x1="938.210" y1="502.189" x2="943.651" y2="488.211" />
      <line id="631,710" x1="952.296" y1="507.620" x2="957.647" y2="493.607" />
      <line id="632,709" x1="966.309" y1="512.970" x2="971.660" y2="498.957" />
      <line id="633,708" x1="980.323" y1="518.321" x2="985.673" y2="504.308" />
      <line id="634,707" x1="994.336" y1="523.672" x2="999.686" y2="509.658" />
      <line id="635,703" x1="1008.323" y1="529.090" x2="1013.810" y2="515.130" />
      <line id="636,702" x1="1022.284" y1="534.577" x2="1027.770" y2="520.616" />
      <line id="637,701" x1="1036.244" y1="540.063" x2="1041.731" y2="526.103" />
      <line id="638,699" x1="1050.196" y1="545.573" x2="1055.728" y2="531.630" />
      <line id="639,698" x1="1064.139" y1="551.104" x2="1069.670" y2="537.162" />
      <line id="640,697" x1="1078.081" y1="556.636" x2="1083.613" y2="542.693" />
      <line id="645,674" x1="1131.417" y1="601.026" x2="1137.753" y2="587.430" />
      <line id="646,673" x1="1145.014" y1="607.362" x2="1151.349" y2="593.765" />
      <line id="647,672" x1="1158.610" y1="613.697" x2="1164.946" y2="600.101" />
      <line id="651,661" x1="1182.031" y1="649.198" x2="1188.673" y2="635.748" />
      <line id="652,660" x1="1195.480" y1="655.840" x2="1202.122" y2="642.391" />
      <line id="653,659" x1="1208.929" y1="662.483" x2="1215.571" y2="649.034" />
      <line id="663,670" x1="1201.035" y1="608.414" x2="1206.747" y2="594.544" />
      <line id="664,669" x1="1214.905" y1="614.126" x2="1220.617" y2="600.256" />
      <line id="680,691" x1="1148.090" y1="559.267" x2="1152.054" y2="544.800" />
      <line id="681,690" x1="1162.556" y1="563.231" x2="1166.521" y2="548.765" />
      <line id="682,689" x1="1177.023" y1="567.196" x2="1180.987" y2="552.729" />
      <line id="743,755" x1="585.573" y1="312.492" x2="583.417" y2="297.647" />
      <line id="744,754" x1="600.418" y1="310.335" x2="598.261" y2="295.491" />
      <line id="745,753" x1="615.262" y1="308.178" x2="613.105" y2="293.334" />
      <line id="746,752" x1="630.106" y1="306.022" x2="627.949" y2="291.178" />
      <line id="747,751" x1="644.950" y1="303.865" x2="642.793" y2="289.021" />
      <line id="767,786" x1="576.477" y1="268.461" x2="571.722" y2="254.235" />
      <line id="769,784" x1="601.636" y1="260.051" x2="596.881" y2="245.825" />
      <line id="770,783" x1="615.863" y1="255.296" x2="611.107" y2="241.070" />
      <line id="771,782" x1="630.089" y1="250.541" x2="625.334" y2="236.314" />
      <line id="772,781" x1="644.315" y1="245.785" x2="639.560" y2="231.559" />
      <line id="773,780" x1="658.542" y1="241.030" x2="653.786" y2="226.804" />
      <line id="807,829" x1="486.212" y1="200.094" x2="477.845" y2="187.644" />
      <line id="808,828" x1="498.662" y1="191.728" x2="490.296" y2="179.278" />
      <line id="809,827" x1="511.112" y1="183.361" x2="502.746" y2="170.911" />
      <line id="811,825" x1="533.130" y1="168.566" x2="524.763" y2="156.115" />
      <line id="812,824" x1="545.580" y1="160.199" x2="537.214" y2="147.749" />
      <line id="868,921" x1="199.802" y1="150.201" x2="186.519" y2="143.233" />
      <line id="869,920" x1="206.770" y1="136.917" x2="193.486" y2="129.950" />
      <line id="870,919" x1="213.737" y1="123.634" x2="200.454" y2="116.666" />
      <line id="872,917" x1="226.059" y1="100.142" x2="212.776" y2="93.174" />
      <line id="873,916" x1="233.027" y1="86.858" x2="219.743" y2="79.891" />
      <line id="938,961" x1="157.901" y1="134.232" x2="143.021" y2="132.340" />
      <line id="939,960" x1="159.793" y1="119.351" x2="144.912" y2="117.460" />
      <line id="940,959" x1="161.684" y1="104.471" x2="146.804" y2="102.580" />
      <line id="941,958" x1="163.576" y1="89.591" x2="148.695" y2="87.699" />
      <line id="942,957" x1="165.467" y1="74.711" x2="150.587" y2="72.819" />
      <line id="943,956" x1="167.359" y1="59.830" x2="152.479" y2="57.939" />
      <line id="944,955" x1="169.250" y1="44.950" x2="154.370" y2="43.059" />
      <line id="945,954" x1="171.142" y1="30.070" x2="156.262" y2="28.178" />
      <line id="946,953" x1="173.034" y1="15.190" x2="158.153" y2="13.298" />
      <line id="947,952" x1="174.925" y1=" 0.309" x2="160.045" y2="-1.582" />
    </g>
    <g style="font-family: SansSerif" transform="translate(-4.6, 4)" id="seq">
      <text x="121.257" y="101.802">A</text>
      <text x="120.892" y="116.797">A</text>
      <text x="120.527" y="131.793">G</text>
      <text x="113.030" y="131.611">A</text>
      <text x="111.864" y="116.656">G</text>
      <text x="121.860" y="104.710">A</text>
      <text x="120.464" y="89.560">C</text>
      <text x="109.014" y="80.104">U</text>
      <text x="120.301" y="69.282">U</text>
      <text x="121.940" y="53.730">A</text>
      <text x="113.156" y="40.793">G</text>
      <text x="98.097" y="36.578">U</text>
      <text x="83.874" y="43.076">C</text>
      <text x="77.201" y="57.218">C</text>
      <text x="81.231" y="72.328">U</text>
      <text x="94.059" y="81.270">A</text>
      <text x="84.213" y="92.387">A</text>
      <text x="85.182" y="107.569">C</text>
      <text x="96.909" y="117.822">C</text>
      <text x="98.075" y="132.777">U</text>
      <text x="73.751" y="151.571">U</text>
      <text x="63.217" y="175.343">G</text>
      <text x="50.580" y="167.262">C</text>
      <text x="43.123" y="153.308">C</text>
      <text x="28.232" y="152.969">A</text>
      <text x="15.595" y="144.887">U</text>
      <text x="2.959" y="136.806">U</text>
      <text x="-9.678" y="128.724">A</text>
      <text x="-22.315" y="120.642">A</text>
      <text x="-34.952" y="112.561">U</text>
      <text x="-47.588" y="104.479">U</text>
      <text x="-44.621" y="92.800">C</text>
      <text x="-47.367" y="79.988">C</text>
      <text x="-56.143" y="68.876">C</text>
      <text x="-69.868" y="62.302">C</text>
      <text x="-86.147" y="62.420">G</text>
      <text x="-97.314" y="52.405">C</text>
      <text x="-108.481" y="42.390">U</text>
      <text x="-119.647" y="32.375">A</text>
      <text x="-130.798" y="22.341">A</text>
      <text x="-141.932" y="12.290">A</text>
      <text x="-137.223" y="2.412">C</text>
      <text x="-137.197" y="-9.601">A</text>
      <text x="-142.734" y="-21.460">U</text>
      <text x="-153.592" y="-30.561">A</text>
      <text x="-168.315" y="-34.531">U</text>
      <text x="-178.385" y="-45.649">A</text>
      <text x="-188.454" y="-56.767">C</text>
      <text x="-191.834" y="-65.113">A</text>
      <text x="-198.575" y="-67.904">U</text>
      <text x="-208.680" y="-78.989">G</text>
      <text x="-218.785" y="-90.074">C</text>
      <text x="-203.998" y="-109.276">A</text>
      <text x="-205.140" y="-138.872">A</text>
      <text x="-228.063" y="-165.454">G</text>
      <text x="-233.617" y="-179.388">U</text>
      <text x="-230.726" y="-195.530">A</text>
      <text x="-243.432" y="-205.897">U</text>
      <text x="-258.665" y="-199.825">C</text>
      <text x="-260.755" y="-183.559">C</text>
      <text x="-247.551" y="-173.833">G</text>
      <text x="-241.997" y="-159.900">C</text>
      <text x="-248.361" y="-155.931">A</text>
      <text x="-256.298" y="-168.658">C</text>
      <text x="-264.236" y="-181.386">G</text>
      <text x="-276.964" y="-173.447">C</text>
      <text x="-269.026" y="-160.720">C</text>
      <text x="-261.088" y="-147.993">A</text>
      <text x="-267.452" y="-144.024">G</text>
      <text x="-277.521" y="-155.142">U</text>
      <text x="-287.591" y="-166.260">G</text>
      <text x="-280.265" y="-172.694">U</text>
      <text x="-274.540" y="-181.552">A</text>
      <text x="-271.170" y="-192.391">A</text>
      <text x="-270.779" y="-204.545">A</text>
      <text x="-273.792" y="-217.164">U</text>
      <text x="-280.391" y="-229.274">G</text>
      <text x="-290.475" y="-239.848">C</text>
      <text x="-303.649" y="-247.890">C</text>
      <text x="-312.076" y="-260.299">C</text>
      <text x="-306.128" y="-276.198">A</text>
      <text x="-310.828" y="-292.335">C</text>
      <text x="-324.115" y="-302.353">A</text>
      <text x="-340.589" y="-302.430">G</text>
      <text x="-348.975" y="-314.866">C</text>
      <text x="-357.362" y="-327.302">C</text>
      <text x="-350.555" y="-341.071">G</text>
      <text x="-351.561" y="-356.397">C</text>
      <text x="-360.108" y="-369.158">C</text>
      <text x="-373.898" y="-375.921">U</text>
      <text x="-389.221" y="-374.867">U</text>
      <text x="-401.955" y="-366.280">A</text>
      <text x="-408.675" y="-352.469">C</text>
      <text x="-407.573" y="-337.150">C</text>
      <text x="-398.946" y="-324.443">A</text>
      <text x="-385.114" y="-317.766">A</text>
      <text x="-369.798" y="-318.916">G</text>
      <text x="-361.412" y="-306.479">G</text>
      <text x="-353.025" y="-294.043">C</text>
      <text x="-358.720" y="-282.046">A</text>
      <text x="-357.767" y="-268.692">A</text>
      <text x="-350.308" y="-257.445">A</text>
      <text x="-338.184" y="-251.274">A</text>
      <text x="-324.485" y="-251.872">G</text>
      <text x="-316.059" y="-239.463">G</text>
      <text x="-321.801" y="-234.639">A</text>
      <text x="-331.450" y="-246.124">G</text>
      <text x="-342.935" y="-236.476">C</text>
      <text x="-333.287" y="-224.991">A</text>
      <text x="-339.030" y="-220.167">G</text>
      <text x="-349.798" y="-230.609">G</text>
      <text x="-360.567" y="-241.051">C</text>
      <text x="-371.319" y="-251.510">A</text>
      <text x="-382.053" y="-261.987">U</text>
      <text x="-375.550" y="-275.661">C</text>
      <text x="-373.841" y="-290.707">A</text>
      <text x="-377.113" y="-305.491">G</text>
      <text x="-385.009" y="-318.411">G</text>
      <text x="-396.675" y="-328.064">C</text>
      <text x="-410.844" y="-333.405">G</text>
      <text x="-425.979" y="-333.853">C</text>
      <text x="-440.439" y="-329.360">A</text>
      <text x="-452.655" y="-320.413">C</text>
      <text x="-461.302" y="-307.983">U</text>
      <text x="-465.443" y="-293.418">U</text>
      <text x="-464.627" y="-278.298">A</text>
      <text x="-458.943" y="-264.263">C</text>
      <text x="-449.009" y="-252.836">G</text>
      <text x="-435.901" y="-245.255">A</text>
      <text x="-421.042" y="-242.344">C</text>
      <text x="-406.042" y="-244.418">U</text>
      <text x="-392.530" y="-251.252">G</text>
      <text x="-381.796" y="-240.776">U</text>
      <text x="-379.235" y="-233.944">A</text>
      <text x="-371.009" y="-230.282">G</text>
      <text x="-360.240" y="-219.840">C</text>
      <text x="-349.472" y="-209.398">C</text>
      <text x="-354.277" y="-203.640">C</text>
      <text x="-369.056" y="-206.205">A</text>
      <text x="-363.888" y="-192.123">A</text>
      <text x="-368.693" y="-186.365">G</text>
      <text x="-371.537" y="-198.860">A</text>
      <text x="-381.772" y="-205.888">C</text>
      <text x="-393.665" y="-204.167">G</text>
      <text x="-405.893" y="-212.854">C</text>
      <text x="-415.305" y="-226.955">C</text>
      <text x="-431.461" y="-221.815">U</text>
      <text x="-430.994" y="-204.868">U</text>
      <text x="-414.580" y="-200.625">G</text>
      <text x="-402.351" y="-191.938">C</text>
      <text x="-395.837" y="-175.586">U</text>
      <text x="-377.419" y="-174.164">U</text>
      <text x="-359.684" y="-151.952">A</text>
      <text x="-336.304" y="-142.200">G</text>
      <text x="-314.183" y="-144.750">C</text>
      <text x="-298.709" y="-156.190">C</text>
      <text x="-288.639" y="-145.072">A</text>
      <text x="-278.570" y="-133.954">C</text>
      <text x="-283.205" y="-128.058">A</text>
      <text x="-298.053" y="-130.191">C</text>
      <text x="-292.476" y="-116.266">C</text>
      <text x="-297.111" y="-110.370">C</text>
      <text x="-310.292" y="-117.531">C</text>
      <text x="-318.391" y="-131.790">C</text>
      <text x="-334.789" y="-131.636">A</text>
      <text x="-342.618" y="-117.226">C</text>
      <text x="-333.823" y="-103.384">G</text>
      <text x="-317.452" y="-104.350">G</text>
      <text x="-304.272" y="-97.190">G</text>
      <text x="-295.652" y="-83.597">A</text>
      <text x="-284.312" y="-73.690">A</text>
      <text x="-271.548" y="-67.869">C</text>
      <text x="-258.662" y="-66.124">U</text>
      <text x="-246.833" y="-68.066">C</text>
      <text x="-237.017" y="-72.989">A</text>
      <text x="-229.871" y="-79.969">G</text>
      <text x="-219.765" y="-68.884">C</text>
      <text x="-209.660" y="-57.799">A</text>
      <text x="-199.572" y="-46.697">G</text>
      <text x="-189.503" y="-35.579">U</text>
      <text x="-179.433" y="-24.461">A</text>
      <text x="-183.330" y="-18.053">A</text>
      <text x="-196.147" y="-25.846">U</text>
      <text x="-208.963" y="-33.639">U</text>
      <text x="-221.780" y="-41.431">A</text>
      <text x="-229.573" y="-28.614">A</text>
      <text x="-216.756" y="-20.822">C</text>
      <text x="-203.939" y="-13.029">A</text>
      <text x="-191.123" y="-5.236">U</text>
      <text x="-195.019" y="1.172">U</text>
      <text x="-209.524" y="-2.651">A</text>
      <text x="-224.028" y="-6.475">A</text>
      <text x="-238.533" y="-10.298">G</text>
      <text x="-243.373" y="-19.859">C</text>
      <text x="-252.452" y="-25.131">A</text>
      <text x="-262.720" y="-24.616">A</text>
      <text x="-270.873" y="-18.717">U</text>
      <text x="-285.402" y="-22.447">G</text>
      <text x="-299.931" y="-26.176">A</text>
      <text x="-314.460" y="-29.906">G</text>
      <text x="-328.989" y="-33.635">U</text>
      <text x="-340.322" y="-45.488">G</text>
      <text x="-356.187" y="-41.339">U</text>
      <text x="-360.264" y="-25.454">A</text>
      <text x="-348.359" y="-14.176">A</text>
      <text x="-332.718" y="-19.106">A</text>
      <text x="-318.189" y="-15.377">C</text>
      <text x="-303.660" y="-11.647">U</text>
      <text x="-289.132" y="-7.918">U</text>
      <text x="-274.603" y="-4.188">G</text>
      <text x="-261.664" y="10.277">A</text>
      <text x="-242.356" y="4.206">C</text>
      <text x="-227.852" y="8.030">U</text>
      <text x="-213.347" y="11.853">U</text>
      <text x="-198.843" y="15.677">A</text>
      <text x="-174.346" y="31.387">G</text>
      <text x="-151.983" y="23.424">U</text>
      <text x="-140.849" y="33.475">U</text>
      <text x="-138.025" y="40.202">A</text>
      <text x="-129.663" y="43.541">U</text>
      <text x="-118.496" y="53.557">A</text>
      <text x="-107.329" y="63.572">G</text>
      <text x="-96.163" y="73.587">C</text>
      <text x="-98.586" y="80.685">A</text>
      <text x="-112.781" y="75.837">A</text>
      <text x="-124.784" y="66.840">C</text>
      <text x="-137.049" y="75.475">C</text>
      <text x="-132.627" y="89.809">C</text>
      <text x="-117.629" y="90.032">A</text>
      <text x="-103.434" y="94.880">A</text>
      <text x="-105.858" y="101.977">G</text>
      <text x="-120.818" y="103.071">G</text>
      <text x="-135.778" y="104.164">G</text>
      <text x="-150.738" y="105.257">C</text>
      <text x="-165.698" y="106.350">C</text>
      <text x="-180.679" y="107.104">G</text>
      <text x="-195.673" y="107.517">G</text>
      <text x="-210.668" y="107.930">U</text>
      <text x="-216.220" y="93.825">A</text>
      <text x="-226.263" y="82.472">A</text>
      <text x="-239.586" y="75.241">A</text>
      <text x="-254.578" y="73.006">U</text>
      <text x="-269.431" y="76.036">C</text>
      <text x="-282.349" y="83.966">U</text>
      <text x="-291.774" y="95.838">U</text>
      <text x="-296.567" y="110.219">G</text>
      <text x="-296.149" y="125.372">U</text>
      <text x="-290.571" y="139.466">G</text>
      <text x="-280.507" y="150.801">C</text>
      <text x="-267.171" y="158.008">C</text>
      <text x="-252.174" y="160.215">A</text>
      <text x="-237.328" y="157.158">G</text>
      <text x="-224.424" y="149.204">C</text>
      <text x="-215.021" y="137.314">C</text>
      <text x="-210.254" y="122.925">A</text>
      <text x="-195.260" y="122.511">C</text>
      <text x="-180.266" y="122.098">C</text>
      <text x="-193.767" y="128.634">G</text>
      <text x="-203.752" y="139.828">C</text>
      <text x="-208.709" y="153.985">G</text>
      <text x="-207.888" y="168.962">G</text>
      <text x="-201.413" y="182.493">U</text>
      <text x="-190.265" y="192.528">C</text>
      <text x="-176.130" y="197.549">A</text>
      <text x="-161.149" y="196.796">C</text>
      <text x="-147.589" y="190.382">A</text>
      <text x="-137.504" y="179.278">C</text>
      <text x="-132.419" y="165.166">A</text>
      <text x="-133.106" y="150.182">A</text>
      <text x="-139.458" y="136.594">G</text>
      <text x="-150.516" y="126.458">A</text>
      <text x="-164.605" y="121.310">G</text>
      <text x="-149.645" y="120.217">G</text>
      <text x="-134.685" y="119.124">C</text>
      <text x="-119.724" y="118.031">C</text>
      <text x="-104.764" y="116.938">C</text>
      <text x="-77.467" y="128.887">A</text>
      <text x="-55.670" y="117.116">A</text>
      <text x="-43.033" y="125.197">A</text>
      <text x="-30.397" y="133.279">U</text>
      <text x="-17.760" y="141.361">U</text>
      <text x="-5.123" y="149.442">A</text>
      <text x="7.514" y="157.524">A</text>
      <text x="20.150" y="165.606">U</text>
      <text x="26.704" y="178.981">C</text>
      <text x="42.498" y="179.898">G</text>
      <text x="55.135" y="187.980">C</text>
      <text x="51.981" y="197.836">U</text>
      <text x="50.965" y="208.134">A</text>
      <text x="52.133" y="218.416">A</text>
      <text x="55.433" y="228.224">A</text>
      <text x="60.718" y="237.121">C</text>
      <text x="67.752" y="244.711">G</text>
      <text x="59.732" y="257.387">G</text>
      <text x="51.712" y="270.063">C</text>
      <text x="43.692" y="282.739">G</text>
      <text x="39.849" y="278.455">U</text>
      <text x="34.566" y="275.010">A</text>
      <text x="28.047" y="272.786">A</text>
      <text x="20.584" y="272.117">A</text>
      <text x="12.549" y="273.263">G</text>
      <text x="4.375" y="276.398">C</text>
      <text x="-3.460" y="281.595">G</text>
      <text x="-14.229" y="292.037">U</text>
      <text x="-24.998" y="302.479">G</text>
      <text x="-35.767" y="312.921">G</text>
      <text x="-50.965" y="310.406">C</text>
      <text x="-64.570" y="317.243">A</text>
      <text x="-71.459" y="330.623">C</text>
      <text x="-69.177" y="345.317">U</text>
      <text x="-79.945" y="355.759">A</text>
      <text x="-92.337" y="347.224">C</text>
      <text x="-106.151" y="341.273">C</text>
      <text x="-120.856" y="338.132">C</text>
      <text x="-135.886" y="337.921">U</text>
      <text x="-150.665" y="340.646">A</text>
      <text x="-164.623" y="346.199">U</text>
      <text x="-177.225" y="354.366">C</text>
      <text x="-187.988" y="364.832">A</text>
      <text x="-196.500" y="377.193">C</text>
      <text x="-202.435" y="390.972">A</text>
      <text x="-205.566" y="405.640">G</text>
      <text x="-205.776" y="420.632">C</text>
      <text x="-203.057" y="435.372">A</text>
      <text x="-197.517" y="449.294">A</text>
      <text x="-189.369" y="461.864">C</text>
      <text x="-200.138" y="472.306">U</text>
      <text x="-215.431" y="476.358">A</text>
      <text x="-219.182" y="490.772">A</text>
      <text x="-229.951" y="501.214">G</text>
      <text x="-240.720" y="511.656">A</text>
      <text x="-251.488" y="522.098">U</text>
      <text x="-262.257" y="532.540">C</text>
      <text x="-269.619" y="527.635">A</text>
      <text x="-279.327" y="525.843">A</text>
      <text x="-289.981" y="528.182">A</text>
      <text x="-299.779" y="535.024">A</text>
      <text x="-306.810" y="545.957">U</text>
      <text x="-318.106" y="555.826">G</text>
      <text x="-329.402" y="565.696">C</text>
      <text x="-340.697" y="575.566">A</text>
      <text x="-356.180" y="578.819">A</text>
      <text x="-360.673" y="593.020">U</text>
      <text x="-377.176" y="589.044">C</text>
      <text x="-392.624" y="595.666">G</text>
      <text x="-400.957" y="610.070">A</text>
      <text x="-399.035" y="626.432">G</text>
      <text x="-410.363" y="636.264">C</text>
      <text x="-421.690" y="646.097">U</text>
      <text x="-437.435" y="644.734">G</text>
      <text x="-449.479" y="654.967">U</text>
      <text x="-450.676" y="670.726">C</text>
      <text x="-440.316" y="682.661">A</text>
      <text x="-424.545" y="683.691">U</text>
      <text x="-412.721" y="673.206">A</text>
      <text x="-411.857" y="657.425">A</text>
      <text x="-400.530" y="647.592">G</text>
      <text x="-389.202" y="637.759">C</text>
      <text x="-376.603" y="641.957">C</text>
      <text x="-363.463" y="639.391">U</text>
      <text x="-353.203" y="630.623">A</text>
      <text x="-348.549" y="617.840">A</text>
      <text x="-350.804" y="604.316">G</text>
      <text x="-336.129" y="601.768">C</text>
      <text x="-330.828" y="586.861">U</text>
      <text x="-319.532" y="576.992">G</text>
      <text x="-308.236" y="567.122">C</text>
      <text x="-296.941" y="557.252">A</text>
      <text x="-291.456" y="562.368">C</text>
      <text x="-301.686" y="573.337">C</text>
      <text x="-311.917" y="584.307">A</text>
      <text x="-322.148" y="595.277">A</text>
      <text x="-332.378" y="606.247">A</text>
      <text x="-342.609" y="617.216">G</text>
      <text x="-345.984" y="631.832">A</text>
      <text x="-331.639" y="627.447">C</text>
      <text x="-321.408" y="616.477">C</text>
      <text x="-311.178" y="605.508">G</text>
      <text x="-300.947" y="594.538">C</text>
      <text x="-290.717" y="583.568">C</text>
      <text x="-280.486" y="572.598">U</text>
      <text x="-275.001" y="577.714">U</text>
      <text x="-290.315" y="583.579">A</text>
      <text x="-292.625" y="599.815">A</text>
      <text x="-279.555" y="609.719">A</text>
      <text x="-264.549" y="603.103">G</text>
      <text x="-263.046" y="586.772">A</text>
      <text x="-245.747" y="564.602">U</text>
      <text x="-251.815" y="543.309">G</text>
      <text x="-241.046" y="532.867">A</text>
      <text x="-230.278" y="522.425">U</text>
      <text x="-219.509" y="511.983">C</text>
      <text x="-208.740" y="501.541">U</text>
      <text x="-194.217" y="498.236">C</text>
      <text x="-189.696" y="483.074">A</text>
      <text x="-178.927" y="472.632">G</text>
      <text x="-166.615" y="481.163">C</text>
      <text x="-152.870" y="487.130">C</text>
      <text x="-138.220" y="490.301">C</text>
      <text x="-123.229" y="490.553">C</text>
      <text x="-108.472" y="487.875">U</text>
      <text x="-94.516" y="482.367">C</text>
      <text x="-81.899" y="474.240">U</text>
      <text x="-71.107" y="463.804">G</text>
      <text x="-62.555" y="451.459">A</text>
      <text x="-56.575" y="437.679">U</text>
      <text x="-53.397" y="422.992">U</text>
      <text x="-53.145" y="407.962">G</text>
      <text x="-55.831" y="393.167">A</text>
      <text x="-61.354" y="379.176">C</text>
      <text x="-69.503" y="366.528">U</text>
      <text x="-58.735" y="356.086">A</text>
      <text x="-44.117" y="358.820">C</text>
      <text x="-30.532" y="352.346">G</text>
      <text x="-23.279" y="338.958">C</text>
      <text x="-25.325" y="323.689">C</text>
      <text x="-14.556" y="313.247">C</text>
      <text x="-3.787" y="302.805">A</text>
      <text x="6.982" y="292.363">C</text>
      <text x="13.452" y="296.155">G</text>
      <text x="5.868" y="309.097">A</text>
      <text x="18.810" y="316.680">A</text>
      <text x="26.394" y="303.739">A</text>
      <text x="32.864" y="307.531">G</text>
      <text x="29.017" y="322.030">C</text>
      <text x="25.170" y="336.528">C</text>
      <text x="21.323" y="351.026">A</text>
      <text x="17.476" y="365.524">G</text>
      <text x="13.629" y="380.023">G</text>
      <text x="10.131" y="383.553">G</text>
      <text x="8.424" y="387.650">C</text>
      <text x="8.436" y="391.565">A</text>
      <text x="9.816" y="394.681">C</text>
      <text x="6.110" y="409.216">A</text>
      <text x="-8.154" y="415.033">A</text>
      <text x="-16.164" y="427.982">A</text>
      <text x="-15.027" y="442.988">C</text>
      <text x="-5.387" y="454.311">U</text>
      <text x="-9.093" y="468.846">G</text>
      <text x="-12.799" y="483.381">G</text>
      <text x="-16.505" y="497.916">G</text>
      <text x="-31.174" y="502.694">A</text>
      <text x="-40.913" y="514.659">U</text>
      <text x="-42.615" y="529.992">U</text>
      <text x="-35.736" y="543.801">A</text>
      <text x="-22.472" y="551.679">G</text>
      <text x="-7.055" y="551.113">A</text>
      <text x="5.595" y="542.283">U</text>
      <text x="11.442" y="528.007">A</text>
      <text x="8.621" y="512.840">C</text>
      <text x="-1.970" y="501.622">C</text>
      <text x="1.736" y="487.087">C</text>
      <text x="5.442" y="472.552">C</text>
      <text x="9.148" y="458.017">A</text>
      <text x="23.032" y="452.691">C</text>
      <text x="31.215" y="440.062">U</text>
      <text x="30.383" y="424.858">A</text>
      <text x="20.645" y="412.922">U</text>
      <text x="24.351" y="398.387">G</text>
      <text x="28.128" y="383.870">C</text>
      <text x="31.975" y="369.372">C</text>
      <text x="35.822" y="354.873">U</text>
      <text x="39.669" y="340.375">G</text>
      <text x="43.516" y="325.877">G</text>
      <text x="47.363" y="311.378">C</text>
      <text x="44.525" y="326.108">C</text>
      <text x="44.325" y="341.106">U</text>
      <text x="46.769" y="355.906">U</text>
      <text x="51.780" y="370.044">A</text>
      <text x="59.202" y="383.079">A</text>
      <text x="68.803" y="394.604">A</text>
      <text x="80.283" y="404.259">U</text>
      <text x="93.283" y="411.741">C</text>
      <text x="107.398" y="416.818">U</text>
      <text x="122.186" y="419.331">A</text>
      <text x="137.185" y="419.201">G</text>
      <text x="151.928" y="416.433">A</text>
      <text x="165.952" y="411.112">U</text>
      <text x="178.821" y="403.405">G</text>
      <text x="190.132" y="393.553">C</text>
      <text x="199.532" y="381.864">U</text>
      <text x="206.727" y="368.702">C</text>
      <text x="211.492" y="354.479">A</text>
      <text x="213.679" y="339.639">C</text>
      <text x="213.220" y="324.646">C</text>
      <text x="210.127" y="309.969">G</text>
      <text x="204.500" y="296.064">U</text>
      <text x="196.512" y="283.368">A</text>
      <text x="186.413" y="272.277">C</text>
      <text x="174.520" y="263.136">C</text>
      <text x="161.203" y="256.232">C</text>
      <text x="146.879" y="251.781">A</text>
      <text x="131.995" y="249.921">A</text>
      <text x="117.015" y="250.710">G</text>
      <text x="102.409" y="254.124">C</text>
      <text x="88.632" y="260.056">A</text>
      <text x="76.115" y="268.322">U</text>
      <text x="65.248" y="278.661">C</text>
      <text x="56.367" y="290.759">C</text>
      <text x="64.388" y="278.083">G</text>
      <text x="72.408" y="265.407">C</text>
      <text x="80.428" y="252.731">C</text>
      <text x="130.817" y="261.601">C</text>
      <text x="174.476" y="216.776">G</text>
      <text x="177.756" y="231.413">A</text>
      <text x="181.037" y="246.050">G</text>
      <text x="170.851" y="253.757">A</text>
      <text x="164.323" y="264.682">A</text>
      <text x="162.374" y="277.212">C</text>
      <text x="165.257" y="289.513">U</text>
      <text x="172.514" y="299.798">A</text>
      <text x="183.060" y="306.585">C</text>
      <text x="195.336" y="308.914">G</text>
      <text x="198.711" y="323.529">A</text>
      <text x="202.086" y="338.145">G</text>
      <text x="205.461" y="352.760">C</text>
      <text x="196.875" y="366.029">A</text>
      <text x="200.268" y="381.464">C</text>
      <text x="213.627" y="389.909">A</text>
      <text x="229.026" y="386.353">A</text>
      <text x="237.330" y="372.906">A</text>
      <text x="233.611" y="357.545">C</text>
      <text x="220.077" y="349.385">G</text>
      <text x="216.702" y="334.769">C</text>
      <text x="213.326" y="320.154">U</text>
      <text x="209.951" y="305.539">U</text>
      <text x="223.007" y="294.157">G</text>
      <text x="228.454" y="277.621">A</text>
      <text x="224.681" y="260.532">A</text>
      <text x="212.654" y="247.696">A</text>
      <text x="195.673" y="242.769">C</text>
      <text x="192.393" y="228.132">U</text>
      <text x="189.113" y="213.495">C</text>
      <text x="194.334" y="208.111">U</text>
      <text x="204.230" y="219.384">A</text>
      <text x="209.211" y="233.533">A</text>
      <text x="223.863" y="236.744">G</text>
      <text x="234.305" y="225.975">G</text>
      <text x="230.643" y="211.429">A</text>
      <text x="216.348" y="206.887">C</text>
      <text x="204.776" y="197.342">U</text>
      <text x="209.997" y="191.958">U</text>
      <text x="224.728" y="194.786">G</text>
      <text x="239.454" y="197.638">G</text>
      <text x="254.176" y="200.513">C</text>
      <text x="261.881" y="205.174">G</text>
      <text x="268.950" y="203.374">G</text>
      <text x="283.681" y="206.202">U</text>
      <text x="298.412" y="209.030">G</text>
      <text x="313.143" y="211.858">C</text>
      <text x="327.874" y="214.686">C</text>
      <text x="342.605" y="217.514">C</text>
      <text x="357.337" y="220.342">C</text>
      <text x="372.068" y="223.170">A</text>
      <text x="374.404" y="244.041">A</text>
      <text x="383.720" y="262.841">A</text>
      <text x="398.882" y="277.314">C</text>
      <text x="418.057" y="285.730">C</text>
      <text x="438.934" y="287.088">C</text>
      <text x="458.999" y="281.240">A</text>
      <text x="475.844" y="268.902">C</text>
      <text x="487.450" y="251.569">C</text>
      <text x="501.809" y="255.907">U</text>
      <text x="516.168" y="260.245">A</text>
      <text x="530.527" y="264.584">G</text>
      <text x="544.886" y="268.922">A</text>
      <text x="529.901" y="291.966">G</text>
      <text x="537.651" y="327.023">G</text>
      <text x="573.685" y="355.392">A</text>
      <text x="587.002" y="362.294">G</text>
      <text x="600.319" y="369.197">C</text>
      <text x="613.637" y="376.100">C</text>
      <text x="626.954" y="383.003">U</text>
      <text x="640.271" y="389.906">G</text>
      <text x="653.589" y="396.809">U</text>
      <text x="666.906" y="403.712">C</text>
      <text x="680.212" y="410.636">C</text>
      <text x="693.507" y="417.582">U</text>
      <text x="690.787" y="427.119">A</text>
      <text x="692.770" y="438.240">U</text>
      <text x="700.151" y="448.568">A</text>
      <text x="712.438" y="455.494">A</text>
      <text x="721.880" y="467.150">U</text>
      <text x="731.322" y="478.806">C</text>
      <text x="740.763" y="490.461">G</text>
      <text x="736.620" y="505.415">A</text>
      <text x="742.089" y="519.936">U</text>
      <text x="755.067" y="528.442">A</text>
      <text x="770.564" y="527.661">A</text>
      <text x="782.622" y="517.894">C</text>
      <text x="786.603" y="502.896">C</text>
      <text x="780.977" y="488.435">C</text>
      <text x="767.907" y="480.070">A</text>
      <text x="752.419" y="481.020">C</text>
      <text x="742.977" y="469.364">G</text>
      <text x="733.536" y="457.708">A</text>
      <text x="724.094" y="446.053">U</text>
      <text x="728.594" y="440.053">A</text>
      <text x="740.594" y="449.053">C</text>
      <text x="752.593" y="458.054">A</text>
      <text x="764.593" y="467.055">C</text>
      <text x="773.593" y="455.055">C</text>
      <text x="761.594" y="446.055">C</text>
      <text x="749.594" y="437.054">G</text>
      <text x="737.595" y="428.053">C</text>
      <text x="742.095" y="422.054">C</text>
      <text x="755.928" y="427.855">C</text>
      <text x="769.760" y="433.657">G</text>
      <text x="783.593" y="439.459">C</text>
      <text x="797.425" y="445.261">U</text>
      <text x="811.258" y="451.063">U</text>
      <text x="825.090" y="456.865">C</text>
      <text x="824.332" y="465.930">U</text>
      <text x="825.672" y="474.912">U</text>
      <text x="829.032" y="483.335">G</text>
      <text x="834.227" y="490.751">C</text>
      <text x="840.975" y="496.768">C</text>
      <text x="848.910" y="501.070">A</text>
      <text x="857.608" y="503.433">A</text>
      <text x="866.602" y="503.737">A</text>
      <text x="875.412" y="501.972">G</text>
      <text x="883.570" y="498.238">C</text>
      <text x="890.642" y="492.742">A</text>
      <text x="896.256" y="485.779">G</text>
      <text x="910.216" y="491.266">C</text>
      <text x="916.953" y="497.241">C</text>
      <text x="924.231" y="496.748">U</text>
      <text x="938.210" y="502.189">A</text>
      <text x="942.501" y="506.948">U</text>
      <text x="947.753" y="508.662">A</text>
      <text x="952.296" y="507.620">U</text>
      <text x="966.309" y="512.970">A</text>
      <text x="980.323" y="518.321">C</text>
      <text x="994.336" y="523.672">C</text>
      <text x="1008.323" y="529.090">G</text>
      <text x="1022.284" y="534.577">C</text>
      <text x="1036.244" y="540.063">C</text>
      <text x="1050.196" y="545.573">G</text>
      <text x="1064.139" y="551.104">U</text>
      <text x="1078.081" y="556.636">C</text>
      <text x="1077.002" y="571.801">A</text>
      <text x="1082.939" y="586.808">C</text>
      <text x="1095.465" y="598.412">C</text>
      <text x="1112.666" y="603.753">A</text>
      <text x="1131.417" y="601.026">G</text>
      <text x="1145.014" y="607.362">U</text>
      <text x="1158.610" y="613.697">C</text>
      <text x="1156.481" y="623.370">C</text>
      <text x="1159.537" y="634.410">A</text>
      <text x="1168.357" y="644.003">C</text>
      <text x="1182.031" y="649.198">C</text>
      <text x="1195.480" y="655.840">U</text>
      <text x="1208.929" y="662.483">C</text>
      <text x="1215.418" y="677.155">U</text>
      <text x="1230.970" y="681.090">G</text>
      <text x="1243.657" y="671.270">U</text>
      <text x="1243.744" y="655.227">G</text>
      <text x="1231.166" y="645.268">A</text>
      <text x="1215.571" y="649.034">G</text>
      <text x="1202.122" y="642.391">A</text>
      <text x="1188.673" y="635.748">G</text>
      <text x="1194.854" y="622.081">A</text>
      <text x="1201.035" y="608.414">A</text>
      <text x="1214.905" y="614.126">U</text>
      <text x="1224.480" y="627.439">A</text>
      <text x="1240.768" y="625.534">A</text>
      <text x="1247.013" y="610.371">U</text>
      <text x="1236.791" y="597.548">A</text>
      <text x="1220.617" y="600.256">G</text>
      <text x="1206.747" y="594.544">U</text>
      <text x="1181.095" y="587.452">G</text>
      <text x="1164.946" y="600.101">G</text>
      <text x="1151.349" y="593.765">G</text>
      <text x="1137.753" y="587.430">C</text>
      <text x="1140.337" y="580.389">A</text>
      <text x="1154.419" y="585.557">C</text>
      <text x="1169.198" y="582.993">A</text>
      <text x="1159.587" y="571.476">A</text>
      <text x="1145.505" y="566.308">U</text>
      <text x="1148.090" y="559.267">A</text>
      <text x="1162.556" y="563.231">G</text>
      <text x="1177.023" y="567.196">C</text>
      <text x="1184.628" y="581.050">C</text>
      <text x="1199.826" y="585.388">C</text>
      <text x="1213.599" y="577.636">C</text>
      <text x="1217.776" y="562.394">C</text>
      <text x="1209.879" y="548.704">G</text>
      <text x="1194.593" y="544.688">C</text>
      <text x="1180.987" y="552.729">G</text>
      <text x="1166.521" y="548.765">C</text>
      <text x="1152.054" y="544.800">U</text>
      <text x="1142.232" y="532.771">A</text>
      <text x="1129.334" y="525.328">A</text>
      <text x="1115.261" y="523.052">C</text>
      <text x="1101.922" y="525.801">A</text>
      <text x="1090.973" y="532.778">A</text>
      <text x="1083.613" y="542.693">G</text>
      <text x="1069.670" y="537.162">A</text>
      <text x="1055.728" y="531.630">C</text>
      <text x="1050.733" y="526.313">A</text>
      <text x="1041.731" y="526.103">G</text>
      <text x="1027.770" y="520.616">G</text>
      <text x="1013.810" y="515.130">U</text>
      <text x="1012.088" y="512.189">C</text>
      <text x="1008.917" y="509.892">A</text>
      <text x="1004.596" y="508.882">A</text>
      <text x="999.686" y="509.658">G</text>
      <text x="985.673" y="504.308">G</text>
      <text x="971.660" y="498.957">U</text>
      <text x="957.647" y="493.607">A</text>
      <text x="943.651" y="488.211">U</text>
      <text x="929.673" y="482.769">A</text>
      <text x="915.703" y="477.305">G</text>
      <text x="901.742" y="471.819">C</text>
      <text x="899.920" y="450.977">C</text>
      <text x="887.486" y="434.055">U</text>
      <text x="867.996" y="426.031">A</text>
      <text x="847.098" y="429.316">U</text>
      <text x="830.892" y="443.033">G</text>
      <text x="817.060" y="437.231">A</text>
      <text x="803.227" y="431.429">A</text>
      <text x="789.395" y="425.627">G</text>
      <text x="775.562" y="419.825">C</text>
      <text x="761.730" y="414.023">G</text>
      <text x="747.897" y="408.221">G</text>
      <text x="721.501" y="392.667">A</text>
      <text x="700.453" y="404.287">A</text>
      <text x="687.158" y="397.341">G</text>
      <text x="682.741" y="391.535">A</text>
      <text x="673.809" y="390.394">G</text>
      <text x="660.491" y="383.491">A</text>
      <text x="647.174" y="376.589">U</text>
      <text x="633.857" y="369.686">G</text>
      <text x="620.540" y="362.783">G</text>
      <text x="607.222" y="355.880">G</text>
      <text x="593.905" y="348.977">C</text>
      <text x="580.588" y="342.074">U</text>
      <text x="581.834" y="334.679">A</text>
      <text x="596.625" y="337.172">C</text>
      <text x="610.682" y="331.935">A</text>
      <text x="599.118" y="322.380">U</text>
      <text x="584.327" y="319.887">U</text>
      <text x="585.573" y="312.492">C</text>
      <text x="600.418" y="310.335">U</text>
      <text x="615.262" y="308.178">C</text>
      <text x="630.106" y="306.022">U</text>
      <text x="644.950" y="303.865">A</text>
      <text x="661.494" y="307.571">A</text>
      <text x="669.635" y="292.700">A</text>
      <text x="657.599" y="280.760">A</text>
      <text x="642.793" y="289.021">U</text>
      <text x="627.949" y="291.178">A</text>
      <text x="613.105" y="293.334">G</text>
      <text x="598.261" y="295.491">A</text>
      <text x="583.417" y="297.647">G</text>
      <text x="581.682" y="290.351">A</text>
      <text x="596.275" y="286.881">A</text>
      <text x="610.868" y="283.411">C</text>
      <text x="625.461" y="279.942">U</text>
      <text x="640.055" y="276.472">C</text>
      <text x="650.958" y="266.171">A</text>
      <text x="636.585" y="261.879">C</text>
      <text x="621.992" y="265.348">G</text>
      <text x="607.399" y="268.818">A</text>
      <text x="592.805" y="272.288">A</text>
      <text x="578.212" y="275.758">A</text>
      <text x="576.477" y="268.461">G</text>
      <text x="592.019" y="271.424">C</text>
      <text x="601.636" y="260.051">G</text>
      <text x="615.863" y="255.296">G</text>
      <text x="630.089" y="250.541">G</text>
      <text x="644.315" y="245.785">U</text>
      <text x="658.542" y="241.030">G</text>
      <text x="672.570" y="248.309">U</text>
      <text x="687.611" y="243.458">G</text>
      <text x="694.741" y="229.353">A</text>
      <text x="689.731" y="214.364">A</text>
      <text x="675.552" y="207.383">A</text>
      <text x="660.617" y="212.552">U</text>
      <text x="653.786" y="226.804">C</text>
      <text x="639.560" y="231.559">A</text>
      <text x="625.334" y="236.314">C</text>
      <text x="611.107" y="241.070">C</text>
      <text x="596.881" y="245.825">C</text>
      <text x="582.357" y="242.522">C</text>
      <text x="571.722" y="254.235">C</text>
      <text x="583.689" y="245.191">G</text>
      <text x="589.831" y="231.506">G</text>
      <text x="588.633" y="216.554">A</text>
      <text x="580.391" y="204.022">A</text>
      <text x="567.136" y="197.000">G</text>
      <text x="552.138" y="197.219">G</text>
      <text x="539.094" y="204.625">C</text>
      <text x="531.221" y="217.393">G</text>
      <text x="530.460" y="232.374">G</text>
      <text x="536.999" y="245.874">A</text>
      <text x="549.224" y="254.563">U</text>
      <text x="534.865" y="250.225">U</text>
      <text x="520.506" y="245.886">U</text>
      <text x="506.148" y="241.548">A</text>
      <text x="491.789" y="237.210">G</text>
      <text x="492.521" y="230.893">C</text>
      <text x="492.582" y="224.535">A</text>
      <text x="491.971" y="218.206">G</text>
      <text x="490.695" y="211.976">U</text>
      <text x="488.768" y="205.917">A</text>
      <text x="486.212" y="200.094">A</text>
      <text x="498.662" y="191.728">A</text>
      <text x="511.112" y="183.361">G</text>
      <text x="526.882" y="182.086">U</text>
      <text x="533.130" y="168.566">G</text>
      <text x="545.580" y="160.199">G</text>
      <text x="559.012" y="167.536">A</text>
      <text x="574.316" y="167.779">A</text>
      <text x="587.974" y="160.872">U</text>
      <text x="596.849" y="148.402">A</text>
      <text x="598.900" y="133.235">A</text>
      <text x="593.657" y="118.855">U</text>
      <text x="582.324" y="108.568">A</text>
      <text x="567.506" y="104.737">A</text>
      <text x="552.607" y="108.243">A</text>
      <text x="541.052" y="118.279">G</text>
      <text x="535.495" y="132.540">C</text>
      <text x="537.214" y="147.749">C</text>
      <text x="524.763" y="156.115">C</text>
      <text x="509.884" y="156.792">C</text>
      <text x="502.746" y="170.911">C</text>
      <text x="490.296" y="179.278">U</text>
      <text x="477.845" y="187.644">U</text>
      <text x="470.258" y="180.291">U</text>
      <text x="461.496" y="174.375">A</text>
      <text x="451.827" y="170.082">A</text>
      <text x="441.549" y="167.545">G</text>
      <text x="430.979" y="166.846">U</text>
      <text x="420.443" y="168.009">U</text>
      <text x="410.266" y="170.999">G</text>
      <text x="400.764" y="175.727">G</text>
      <text x="392.231" y="182.050">C</text>
      <text x="384.931" y="189.773">C</text>
      <text x="379.092" y="198.660">C</text>
      <text x="374.895" y="208.439">U</text>
      <text x="360.164" y="205.611">G</text>
      <text x="345.433" y="202.783">G</text>
      <text x="330.702" y="199.955">G</text>
      <text x="315.971" y="197.127">G</text>
      <text x="301.240" y="194.299">C</text>
      <text x="286.509" y="191.471">A</text>
      <text x="271.778" y="188.643">C</text>
      <text x="257.052" y="185.792">G</text>
      <text x="242.330" y="182.916">U</text>
      <text x="236.443" y="178.607">A</text>
      <text x="227.556" y="180.055">C</text>
      <text x="212.825" y="177.227">A</text>
      <text x="209.569" y="170.471">U</text>
      <text x="223.853" y="165.890">A</text>
      <text x="238.136" y="161.309">C</text>
      <text x="252.420" y="156.728">C</text>
      <text x="267.360" y="158.061">G</text>
      <text x="279.621" y="149.420">C</text>
      <text x="283.389" y="134.901">C</text>
      <text x="276.878" y="121.387">C</text>
      <text x="263.175" y="115.286">G</text>
      <text x="248.776" y="119.490">U</text>
      <text x="240.507" y="132.006">C</text>
      <text x="228.024" y="140.323">A</text>
      <text x="215.541" y="148.641">C</text>
      <text x="203.058" y="156.958">C</text>
      <text x="199.802" y="150.201">C</text>
      <text x="206.770" y="136.917">U</text>
      <text x="213.737" y="123.634">C</text>
      <text x="226.999" y="115.007">C</text>
      <text x="226.059" y="100.142">U</text>
      <text x="233.027" y="86.858">C</text>
      <text x="247.191" y="91.875">A</text>
      <text x="261.924" y="94.824">U</text>
      <text x="276.928" y="95.647">A</text>
      <text x="291.896" y="94.326">A</text>
      <text x="306.523" y="90.889">G</text>
      <text x="320.512" y="85.404">C</text>
      <text x="333.579" y="77.984">U</text>
      <text x="345.456" y="68.781">U</text>
      <text x="355.903" y="57.980">C</text>
      <text x="364.706" y="45.803">A</text>
      <text x="371.686" y="32.497">A</text>
      <text x="376.702" y="18.333">C</text>
      <text x="379.651" y="3.599">C</text>
      <text x="380.472" y="-11.405">G</text>
      <text x="379.151" y="-26.373">C</text>
      <text x="375.712" y="-41.000">C</text>
      <text x="370.227" y="-54.989">C</text>
      <text x="362.806" y="-68.055">A</text>
      <text x="353.602" y="-79.931">U</text>
      <text x="342.801" y="-90.377">A</text>
      <text x="330.623" y="-99.180">G</text>
      <text x="317.316" y="-106.159">C</text>
      <text x="303.152" y="-111.174">U</text>
      <text x="288.418" y="-114.122">A</text>
      <text x="273.414" y="-114.943">A</text>
      <text x="258.446" y="-113.620">U</text>
      <text x="243.819" y="-110.180">A</text>
      <text x="229.831" y="-104.694">C</text>
      <text x="216.765" y="-97.273">G</text>
      <text x="204.889" y="-88.068">C</text>
      <text x="194.444" y="-77.266">C</text>
      <text x="185.642" y="-65.088">C</text>
      <text x="178.663" y="-51.781">A</text>
      <text x="173.649" y="-37.616">C</text>
      <text x="170.703" y="-22.882">U</text>
      <text x="169.883" y="-7.878">A</text>
      <text x="171.206" y="7.090">G</text>
      <text x="174.647" y="21.716">C</text>
      <text x="180.134" y="35.705">C</text>
      <text x="187.556" y="48.770">A</text>
      <text x="196.762" y="60.645">A</text>
      <text x="207.564" y="71.090">A</text>
      <text x="219.743" y="79.891">G</text>
      <text x="212.776" y="93.174">A</text>
      <text x="200.012" y="100.851">C</text>
      <text x="200.454" y="116.666">G</text>
      <text x="193.486" y="129.950">A</text>
      <text x="186.519" y="143.233">G</text>
      <text x="179.364" y="140.983">G</text>
      <text x="183.865" y="126.674">U</text>
      <text x="188.366" y="112.365">A</text>
      <text x="192.867" y="98.057">A</text>
      <text x="197.368" y="83.748">G</text>
      <text x="201.869" y="69.439">U</text>
      <text x="206.370" y="55.130">C</text>
      <text x="210.870" y="40.821">G</text>
      <text x="196.561" y="36.321">U</text>
      <text x="192.061" y="50.629">A</text>
      <text x="187.560" y="64.938">A</text>
      <text x="183.059" y="79.247">C</text>
      <text x="178.558" y="93.556">A</text>
      <text x="174.057" y="107.865">A</text>
      <text x="169.556" y="122.173">G</text>
      <text x="165.055" y="136.482">G</text>
      <text x="157.901" y="134.232">U</text>
      <text x="159.793" y="119.351">A</text>
      <text x="161.684" y="104.471">A</text>
      <text x="163.576" y="89.591">G</text>
      <text x="165.467" y="74.711">U</text>
      <text x="167.359" y="59.830">G</text>
      <text x="169.250" y="44.950">U</text>
      <text x="171.142" y="30.070">A</text>
      <text x="173.034" y="15.190">C</text>
      <text x="174.925" y="0.309">C</text>
      <text x="185.276" y="-12.411">G</text>
      <text x="179.183" y="-27.636">G</text>
      <text x="162.915" y="-29.704">A</text>
      <text x="153.206" y="-16.487">A</text>
      <text x="160.045" y="-1.582">G</text>
      <text x="158.153" y="13.298">G</text>
      <text x="156.262" y="28.178">U</text>
      <text x="154.370" y="43.059">G</text>
      <text x="152.479" y="57.939">C</text>
      <text x="150.587" y="72.819">A</text>
      <text x="148.695" y="87.699">C</text>
      <text x="146.804" y="102.580">U</text>
      <text x="144.912" y="117.460">U</text>
      <text x="143.021" y="132.340">A</text>
      <text x="135.523" y="132.158">G</text>
      <text x="135.888" y="117.162">C</text>
      <text x="136.252" y="102.167">A</text>
      <text x="136.617" y="87.171">C</text>
      <text x="136.982" y="72.175">A</text>
      <text x="129.800" y="59.007">U</text>
      <text x="121.986" y="71.811">C</text>
    </g>
  </g>
</svg>
