<?xml version="1.0" encoding="UTF-8" standalone="yes"?>
<svg xmlns="http://www.w3.org/2000/svg" height="452" width="452">
<script type="text/ecmascript">
      <![CDATA[
        var shown = 1;
        function click() {
             var seq = document.getElementById("seq");
             if (shown==1) {
               seq.setAttribute("style", "visibility: hidden");
               shown = 0;
             } else {
               seq.setAttribute("style", "visibility: visible");
               shown = 1;
             }
         }
        ]]>
</script>
  <rect style="stroke: white; fill: white" height="452" x="0" y="0" width="452" onclick="click(evt)" />
  <g transform="scale(1.670085,1.670085) translate(20.652748,21.303246)">
    <polyline style="stroke: black; fill: none; stroke-width: 1.5" id="outline" points="
      113.739,2.164
      113.066,17.148
      112.393,32.133
      111.720,47.118
      111.047,62.103
      110.374,77.088
      109.701,92.073
      92.060,93.338
      77.788,102.371
      69.883,116.390
      55.019,114.377
      40.155,112.363
      25.290,110.350
      14.467,98.508
      -1.530,99.731
      -10.428,113.080
      -5.402,128.315
      9.693,133.750
      23.277,125.214
      38.141,127.228
      53.005,129.241
      67.870,131.255
      70.545,141.271
      76.256,149.923
      84.415,156.319
      80.424,170.779
      76.434,185.238
      72.443,199.698
      58.147,206.035
      51.316,220.102
      55.175,235.256
      67.902,244.342
      83.488,243.070
      94.573,232.040
      95.924,216.461
      86.902,203.688
      90.893,189.229
      94.883,174.769
      98.874,160.310
      109.045,159.897
      118.834,156.279
      127.230,149.661
      133.321,140.565
      136.382,129.788
      135.965,118.337
      150.950,117.664
      165.935,116.991
      180.920,116.318
      195.905,115.646
      206.350,127.283
      221.839,129.433
      235.059,121.080
      239.767,106.168
      233.741,91.738
      219.826,84.604
      204.592,88.133
      195.232,100.661
      180.247,101.334
      165.262,102.007
      150.277,102.680
      135.292,103.353
      124.686,92.746
      125.359,77.761
      126.032,62.776
      126.705,47.791
      127.378,32.806
      128.051,17.821
      128.724,2.837
      131.776,-16.303
    " />
    <g style="stroke: black; stroke-width: 1" id="pairs">
      <line id="1,68" x1="113.739" y1=" 2.164" x2="128.724" y2=" 2.837" />
      <line id="2,67" x1="113.066" y1="17.148" x2="128.051" y2="17.821" />
      <line id="3,66" x1="112.393" y1="32.133" x2="127.378" y2="32.806" />
      <line id="4,65" x1="111.720" y1="47.118" x2="126.705" y2="47.791" />
      <line id="5,64" x1="111.047" y1="62.103" x2="126.032" y2="62.776" />
      <line id="6,63" x1="110.374" y1="77.088" x2="125.359" y2="77.761" />
      <line id="7,62" x1="109.701" y1="92.073" x2="124.686" y2="92.746" />
      <line id="10,22" x1="69.883" y1="116.390" x2="67.870" y2="131.255" />
      <line id="11,21" x1="55.019" y1="114.377" x2="53.005" y2="129.241" />
      <line id="12,20" x1="40.155" y1="112.363" x2="38.141" y2="127.228" />
      <line id="13,19" x1="25.290" y1="110.350" x2="23.277" y2="125.214" />
      <line id="25,39" x1="84.415" y1="156.319" x2="98.874" y2="160.310" />
      <line id="26,38" x1="80.424" y1="170.779" x2="94.883" y2="174.769" />
      <line id="27,37" x1="76.434" y1="185.238" x2="90.893" y2="189.229" />
      <line id="28,36" x1="72.443" y1="199.698" x2="86.902" y2="203.688" />
      <line id="45,61" x1="135.965" y1="118.337" x2="135.292" y2="103.353" />
      <line id="46,60" x1="150.950" y1="117.664" x2="150.277" y2="102.680" />
      <line id="47,59" x1="165.935" y1="116.991" x2="165.262" y2="102.007" />
      <line id="48,58" x1="180.920" y1="116.318" x2="180.247" y2="101.334" />
      <line id="49,57" x1="195.905" y1="115.646" x2="195.232" y2="100.661" />
    </g>
    <g style="font-family: SansSerif" transform="translate(-4.6, 4)" id="seq">
      <text x="113.739" y="2.164">G</text>
      <text x="113.066" y="17.148">G</text>
      <text x="112.393" y="32.133">C</text>
      <text x="111.720" y="47.118">U</text>
      <text x="111.047" y="62.103">C</text>
      <text x="110.374" y="77.088">U</text>
      <text x="109.701" y="92.073">G</text>
      <text x="92.060" y="93.338">U</text>
      <text x="77.788" y="102.371">A</text>
      <text x="69.883" y="116.390">G</text>
      <text x="55.019" y="114.377">U</text>
      <text x="40.155" y="112.363">G</text>
      <text x="25.290" y="110.350">A</text>
      <text x="14.467" y="98.508">A</text>
      <text x="-1.530" y="99.731">A</text>
      <text x="-10.428" y="113.080">G</text>
      <text x="-5.402" y="128.315">A</text>
      <text x="9.693" y="133.750">U</text>
      <text x="23.277" y="125.214">U</text>
      <text x="38.141" y="127.228">C</text>
      <text x="53.005" y="129.241">A</text>
      <text x="67.870" y="131.255">U</text>
      <text x="70.545" y="141.271">G</text>
      <text x="76.256" y="149.923">U</text>
      <text x="84.415" y="156.319">U</text>
      <text x="80.424" y="170.779">G</text>
      <text x="76.434" y="185.238">A</text>
      <text x="72.443" y="199.698">G</text>
      <text x="58.147" y="206.035">U</text>
      <text x="51.316" y="220.102">U</text>
      <text x="55.175" y="235.256">G</text>
      <text x="67.902" y="244.342">C</text>
      <text x="83.488" y="243.070">A</text>
      <text x="94.573" y="232.040">A</text>
      <text x="95.924" y="216.461">A</text>
      <text x="86.902" y="203.688">C</text>
      <text x="90.893" y="189.229">U</text>
      <text x="94.883" y="174.769">C</text>
      <text x="98.874" y="160.310">A</text>
      <text x="109.045" y="159.897">U</text>
      <text x="118.834" y="156.279">C</text>
      <text x="127.230" y="149.661">G</text>
      <text x="133.321" y="140.565">A</text>
      <text x="136.382" y="129.788">U</text>
      <text x="135.965" y="118.337">G</text>
      <text x="150.950" y="117.664">U</text>
      <text x="165.935" y="116.991">A</text>
      <text x="180.920" y="116.318">C</text>
      <text x="195.905" y="115.646">A</text>
      <text x="206.350" y="127.283">U</text>
      <text x="221.839" y="129.433">U</text>
      <text x="235.059" y="121.080">A</text>
      <text x="239.767" y="106.168">A</text>
      <text x="233.741" y="91.738">G</text>
      <text x="219.826" y="84.604">A</text>
      <text x="204.592" y="88.133">G</text>
      <text x="195.232" y="100.661">U</text>
      <text x="180.247" y="101.334">G</text>
      <text x="165.262" y="102.007">U</text>
      <text x="150.277" y="102.680">G</text>
      <text x="135.292" y="103.353">C</text>
      <text x="124.686" y="92.746">C</text>
      <text x="125.359" y="77.761">G</text>
      <text x="126.032" y="62.776">G</text>
      <text x="126.705" y="47.791">G</text>
      <text x="127.378" y="32.806">G</text>
      <text x="128.051" y="17.821">C</text>
      <text x="128.724" y="2.837">C</text>
      <text x="131.776" y="-16.303">U</text>
    </g>
  </g>
</svg>
