<?xml version="1.0" encoding="UTF-8" standalone="yes"?>
<svg xmlns="http://www.w3.org/2000/svg" height="452" width="452">
<script type="text/ecmascript">
      <![CDATA[
        var shown = 1;
        function click() {
             var seq = document.getElementById("seq");
             if (shown==1) {
               seq.setAttribute("style", "visibility: hidden");
               shown = 0;
             } else {
               seq.setAttribute("style", "visibility: visible");
               shown = 1;
             }
         }
        ]]>
</script>
  <rect style="stroke: white; fill: white" height="452" x="0" y="0" width="452" onclick="click(evt)" />
  <g transform="scale(1.579831,1.579831) translate(35.541374,37.597687)">
    <polyline style="stroke: black; fill: none; stroke-width: 1.5" id="outline" points="
      110.898,-14.098
      110.252,0.888
      109.607,15.875
      108.962,30.861
      108.316,45.847
      107.671,60.833
      107.026,75.819
      90.368,78.310
      77.534,87.842
      71.078,101.526
      56.109,100.558
      41.140,99.591
      26.172,98.623
      17.994,85.436
      3.614,79.605
      -11.439,83.373
      -21.376,95.290
      -22.377,110.775
      -14.057,123.873
      0.386,129.547
      15.396,125.616
      25.204,113.592
      40.173,114.559
      55.142,115.527
      70.110,116.495
      76.521,130.233
      88.769,139.168
      86.837,154.043
      84.906,168.918
      82.975,183.793
      81.044,198.668
      67.774,206.941
      62.975,221.824
      68.913,236.290
      82.785,243.509
      98.040,240.072
      107.476,227.602
      106.637,211.987
      95.919,200.600
      97.850,185.724
      99.781,170.849
      101.712,155.974
      103.644,141.099
      114.053,139.084
      123.476,133.473
      130.671,124.718
      134.600,113.700
      134.566,101.636
      149.479,100.026
      164.392,98.415
      179.306,96.804
      194.219,95.194
      205.373,106.154
      220.966,107.329
      233.636,98.164
      237.401,82.986
      230.482,68.962
      216.147,62.714
      201.165,67.191
      192.608,80.280
      177.695,81.891
      162.782,83.502
      147.868,85.112
      132.955,86.723
      122.012,76.464
      122.657,61.478
      123.302,46.492
      123.948,31.506
      124.593,16.520
      125.238,1.534
      125.884,-13.452
      128.901,-32.598
    " />
    <g style="stroke: black; stroke-width: 1" id="pairs">
      <line id="1,71" x1="110.898" y1="-14.098" x2="125.884" y2="-13.452" />
      <line id="2,70" x1="110.252" y1=" 0.888" x2="125.238" y2=" 1.534" />
      <line id="3,69" x1="109.607" y1="15.875" x2="124.593" y2="16.520" />
      <line id="4,68" x1="108.962" y1="30.861" x2="123.948" y2="31.506" />
      <line id="5,67" x1="108.316" y1="45.847" x2="123.302" y2="46.492" />
      <line id="6,66" x1="107.671" y1="60.833" x2="122.657" y2="61.478" />
      <line id="7,65" x1="107.026" y1="75.819" x2="122.012" y2="76.464" />
      <line id="10,25" x1="71.078" y1="101.526" x2="70.110" y2="116.495" />
      <line id="11,24" x1="56.109" y1="100.558" x2="55.142" y2="115.527" />
      <line id="12,23" x1="41.140" y1="99.591" x2="40.173" y2="114.559" />
      <line id="13,22" x1="26.172" y1="98.623" x2="25.204" y2="113.592" />
      <line id="27,43" x1="88.769" y1="139.168" x2="103.644" y2="141.099" />
      <line id="28,42" x1="86.837" y1="154.043" x2="101.712" y2="155.974" />
      <line id="29,41" x1="84.906" y1="168.918" x2="99.781" y2="170.849" />
      <line id="30,40" x1="82.975" y1="183.793" x2="97.850" y2="185.724" />
      <line id="31,39" x1="81.044" y1="198.668" x2="95.919" y2="200.600" />
      <line id="48,64" x1="134.566" y1="101.636" x2="132.955" y2="86.723" />
      <line id="49,63" x1="149.479" y1="100.026" x2="147.868" y2="85.112" />
      <line id="50,62" x1="164.392" y1="98.415" x2="162.782" y2="83.502" />
      <line id="51,61" x1="179.306" y1="96.804" x2="177.695" y2="81.891" />
      <line id="52,60" x1="194.219" y1="95.194" x2="192.608" y2="80.280" />
    </g>
    <g style="font-family: SansSerif" transform="translate(-4.6, 4)" id="seq">
      <text x="110.898" y="-14.098">G</text>
      <text x="110.252" y="0.888">U</text>
      <text x="109.607" y="15.875">U</text>
      <text x="108.962" y="30.861">C</text>
      <text x="108.316" y="45.847">U</text>
      <text x="107.671" y="60.833">U</text>
      <text x="107.026" y="75.819">G</text>
      <text x="90.368" y="78.310">U</text>
      <text x="77.534" y="87.842">A</text>
      <text x="71.078" y="101.526">G</text>
      <text x="56.109" y="100.558">U</text>
      <text x="41.140" y="99.591">U</text>
      <text x="26.172" y="98.623">G</text>
      <text x="17.994" y="85.436">A</text>
      <text x="3.614" y="79.605">G</text>
      <text x="-11.439" y="83.373">A</text>
      <text x="-21.376" y="95.290">U</text>
      <text x="-22.377" y="110.775">U</text>
      <text x="-14.057" y="123.873">A</text>
      <text x="0.386" y="129.547">G</text>
      <text x="15.396" y="125.616">U</text>
      <text x="25.204" y="113.592">C</text>
      <text x="40.173" y="114.559">A</text>
      <text x="55.142" y="115.527">A</text>
      <text x="70.110" y="116.495">C</text>
      <text x="76.521" y="130.233">G</text>
      <text x="88.769" y="139.168">G</text>
      <text x="86.837" y="154.043">U</text>
      <text x="84.906" y="168.918">G</text>
      <text x="82.975" y="183.793">G</text>
      <text x="81.044" y="198.668">U</text>
      <text x="67.774" y="206.941">U</text>
      <text x="62.975" y="221.824">U</text>
      <text x="68.913" y="236.290">U</text>
      <text x="82.785" y="243.509">U</text>
      <text x="98.040" y="240.072">C</text>
      <text x="107.476" y="227.602">A</text>
      <text x="106.637" y="211.987">G</text>
      <text x="95.919" y="200.600">A</text>
      <text x="97.850" y="185.724">C</text>
      <text x="99.781" y="170.849">C</text>
      <text x="101.712" y="155.974">A</text>
      <text x="103.644" y="141.099">C</text>
      <text x="114.053" y="139.084">A</text>
      <text x="123.476" y="133.473">G</text>
      <text x="130.671" y="124.718">A</text>
      <text x="134.600" y="113.700">C</text>
      <text x="134.566" y="101.636">C</text>
      <text x="149.479" y="100.026">U</text>
      <text x="164.392" y="98.415">U</text>
      <text x="179.306" y="96.804">G</text>
      <text x="194.219" y="95.194">G</text>
      <text x="205.373" y="106.154">A</text>
      <text x="220.966" y="107.329">G</text>
      <text x="233.636" y="98.164">A</text>
      <text x="237.401" y="82.986">A</text>
      <text x="230.482" y="68.962">A</text>
      <text x="216.147" y="62.714">A</text>
      <text x="201.165" y="67.191">G</text>
      <text x="192.608" y="80.280">C</text>
      <text x="177.695" y="81.891">C</text>
      <text x="162.782" y="83.502">A</text>
      <text x="147.868" y="85.112">A</text>
      <text x="132.955" y="86.723">G</text>
      <text x="122.012" y="76.464">C</text>
      <text x="122.657" y="61.478">G</text>
      <text x="123.302" y="46.492">A</text>
      <text x="123.948" y="31.506">G</text>
      <text x="124.593" y="16.520">A</text>
      <text x="125.238" y="1.534">A</text>
      <text x="125.884" y="-13.452">U</text>
      <text x="128.901" y="-32.598">G</text>
    </g>
  </g>
</svg>
