<?xml version="1.0" encoding="UTF-8" standalone="yes"?>
<svg xmlns="http://www.w3.org/2000/svg" height="452" width="452">
<script type="text/ecmascript">
      <![CDATA[
        var shown = 1;
        function click() {
             var seq = document.getElementById("seq");
             if (shown==1) {
               seq.setAttribute("style", "visibility: hidden");
               shown = 0;
             } else {
               seq.setAttribute("style", "visibility: visible");
               shown = 1;
             }
         }
        ]]>
</script>
  <rect style="stroke: white; fill: white" height="452" x="0" y="0" width="452" onclick="click(evt)" />
  <g transform="scale(1.598885,1.598885) translate(35.412529,37.584496)">
    <polyline style="stroke: black; fill: none; stroke-width: 1.5" id="outline" points="
      110.947,-14.129
      110.264,0.855
      109.581,15.839
      108.899,30.824
      100.590,43.186
      107.691,57.324
      107.009,72.308
      90.339,74.810
      77.486,84.341
      70.993,98.026
      56.028,97.003
      41.063,95.979
      26.098,94.955
      15.901,82.880
      0.146,81.635
      -11.820,91.959
      -12.899,107.726
      -2.449,119.583
      13.329,120.495
      25.074,109.920
      40.039,110.944
      55.004,111.968
      69.969,112.991
      76.323,126.791
      88.541,135.819
      86.498,150.679
      84.456,165.540
      82.413,180.400
      80.371,195.260
      67.039,203.433
      62.129,218.280
      67.959,232.790
      81.777,240.113
      97.057,236.790
      106.586,224.390
      105.863,208.770
      95.231,197.303
      97.274,182.442
      99.316,167.582
      101.359,152.722
      103.401,137.861
      113.928,135.894
      123.469,130.267
      130.755,121.441
      134.721,110.313
      134.659,98.132
      149.249,104.252
      161.015,95.119
      175.918,93.416
      190.821,91.712
      204.224,100.528
      219.429,95.409
      224.771,80.282
      216.152,66.750
      200.185,65.195
      189.117,76.809
      174.214,78.513
      159.311,80.216
      145.788,73.975
      132.956,83.229
      121.993,72.991
      122.676,58.007
      131.033,44.573
      123.883,31.507
      124.566,16.522
      125.249,1.538
      125.931,-13.447
      128.996,-32.585
    " />
    <g style="stroke: black; stroke-width: 1" id="pairs">
      <line id="1,67" x1="110.947" y1="-14.129" x2="125.931" y2="-13.447" />
      <line id="2,66" x1="110.264" y1=" 0.855" x2="125.249" y2=" 1.538" />
      <line id="3,65" x1="109.581" y1="15.839" x2="124.566" y2="16.522" />
      <line id="4,64" x1="108.899" y1="30.824" x2="123.883" y2="31.507" />
      <line id="6,62" x1="107.691" y1="57.324" x2="122.676" y2="58.007" />
      <line id="7,61" x1="107.009" y1="72.308" x2="121.993" y2="72.991" />
      <line id="10,23" x1="70.993" y1="98.026" x2="69.969" y2="112.991" />
      <line id="11,22" x1="56.028" y1="97.003" x2="55.004" y2="111.968" />
      <line id="12,21" x1="41.063" y1="95.979" x2="40.039" y2="110.944" />
      <line id="13,20" x1="26.098" y1="94.955" x2="25.074" y2="109.920" />
      <line id="25,41" x1="88.541" y1="135.819" x2="103.401" y2="137.861" />
      <line id="26,40" x1="86.498" y1="150.679" x2="101.359" y2="152.722" />
      <line id="27,39" x1="84.456" y1="165.540" x2="99.316" y2="167.582" />
      <line id="28,38" x1="82.413" y1="180.400" x2="97.274" y2="182.442" />
      <line id="29,37" x1="80.371" y1="195.260" x2="95.231" y2="197.303" />
      <line id="46,60" x1="134.659" y1="98.132" x2="132.956" y2="83.229" />
      <line id="48,58" x1="161.015" y1="95.119" x2="159.311" y2="80.216" />
      <line id="49,57" x1="175.918" y1="93.416" x2="174.214" y2="78.513" />
      <line id="50,56" x1="190.821" y1="91.712" x2="189.117" y2="76.809" />
    </g>
    <g style="font-family: SansSerif" transform="translate(-4.6, 4)" id="seq">
      <text x="110.947" y="-14.129">G</text>
      <text x="110.264" y="0.855">U</text>
      <text x="109.581" y="15.839">C</text>
      <text x="108.899" y="30.824">C</text>
      <text x="100.590" y="43.186">C</text>
      <text x="107.691" y="57.324">C</text>
      <text x="107.009" y="72.308">A</text>
      <text x="90.339" y="74.810">U</text>
      <text x="77.486" y="84.341">A</text>
      <text x="70.993" y="98.026">G</text>
      <text x="56.028" y="97.003">C</text>
      <text x="41.063" y="95.979">U</text>
      <text x="26.098" y="94.955">U</text>
      <text x="15.901" y="82.880">A</text>
      <text x="0.146" y="81.635">C</text>
      <text x="-11.820" y="91.959">A</text>
      <text x="-12.899" y="107.726">A</text>
      <text x="-2.449" y="119.583">C</text>
      <text x="13.329" y="120.495">A</text>
      <text x="25.074" y="109.920">A</text>
      <text x="40.039" y="110.944">A</text>
      <text x="55.004" y="111.968">G</text>
      <text x="69.969" y="112.991">C</text>
      <text x="76.323" y="126.791">A</text>
      <text x="88.541" y="135.819">U</text>
      <text x="86.498" y="150.679">A</text>
      <text x="84.456" y="165.540">A</text>
      <text x="82.413" y="180.400">C</text>
      <text x="80.371" y="195.260">A</text>
      <text x="67.039" y="203.433">C</text>
      <text x="62.129" y="218.280">U</text>
      <text x="67.959" y="232.790">G</text>
      <text x="81.777" y="240.113">A</text>
      <text x="97.057" y="236.790">A</text>
      <text x="106.586" y="224.390">G</text>
      <text x="105.863" y="208.770">A</text>
      <text x="95.231" y="197.303">U</text>
      <text x="97.274" y="182.442">G</text>
      <text x="99.316" y="167.582">U</text>
      <text x="101.359" y="152.722">U</text>
      <text x="103.401" y="137.861">A</text>
      <text x="113.928" y="135.894">A</text>
      <text x="123.469" y="130.267">G</text>
      <text x="130.755" y="121.441">A</text>
      <text x="134.721" y="110.313">C</text>
      <text x="134.659" y="98.132">G</text>
      <text x="149.249" y="104.252">C</text>
      <text x="161.015" y="95.119">U</text>
      <text x="175.918" y="93.416">G</text>
      <text x="190.821" y="91.712">C</text>
      <text x="204.224" y="100.528">U</text>
      <text x="219.429" y="95.409">A</text>
      <text x="224.771" y="80.282">A</text>
      <text x="216.152" y="66.750">A</text>
      <text x="200.185" y="65.195">U</text>
      <text x="189.117" y="76.809">G</text>
      <text x="174.214" y="78.513">C</text>
      <text x="159.311" y="80.216">A</text>
      <text x="145.788" y="73.975">U</text>
      <text x="132.956" y="83.229">C</text>
      <text x="121.993" y="72.991">U</text>
      <text x="122.676" y="58.007">G</text>
      <text x="131.033" y="44.573">A</text>
      <text x="123.883" y="31.507">G</text>
      <text x="124.566" y="16.522">G</text>
      <text x="125.249" y="1.538">A</text>
      <text x="125.931" y="-13.447">C</text>
      <text x="128.996" y="-32.585">A</text>
    </g>
  </g>
</svg>
