<?xml version="1.0" encoding="UTF-8" standalone="yes"?>
<svg xmlns="http://www.w3.org/2000/svg" height="452" width="452">
<script type="text/ecmascript">
      <![CDATA[
        var shown = 1;
        function click() {
             var seq = document.getElementById("seq");
             if (shown==1) {
               seq.setAttribute("style", "visibility: hidden");
               shown = 0;
             } else {
               seq.setAttribute("style", "visibility: visible");
               shown = 1;
             }
         }
        ]]>
</script>
  <rect style="stroke: white; fill: white" height="452" x="0" y="0" width="452" onclick="click(evt)" />
  <g transform="scale(1.648020,1.648020) translate(24.377769,29.703003)">
    <polyline style="stroke: black; fill: none; stroke-width: 1.5" id="outline" points="
      111.588,-6.225
      110.925,8.761
      110.261,23.746
      101.969,36.118
      109.088,50.247
      108.424,65.233
      107.761,80.218
      91.454,82.230
      78.622,91.101
      71.759,104.180
      56.851,102.524
      41.943,100.868
      27.034,99.212
      17.358,86.716
      1.670,84.805
      -10.723,94.613
      -12.468,110.321
      -2.529,122.609
      13.196,124.188
      25.379,114.120
      40.287,115.776
      55.195,117.432
      70.104,119.088
      75.417,132.393
      86.265,141.751
      82.973,156.385
      79.682,171.020
      76.390,185.654
      61.863,190.847
      52.467,203.083
      51.202,218.459
      58.469,232.067
      71.952,239.565
      87.346,238.562
      99.741,229.376
      105.181,214.940
      101.929,199.859
      91.024,188.946
      94.316,174.311
      97.608,159.677
      100.899,145.043
      111.781,143.812
      121.867,138.658
      129.746,130.006
      134.217,118.787
      134.464,106.337
      149.431,105.342
      164.398,104.347
      179.365,103.353
      194.332,102.358
      205.025,113.768
      220.557,115.585
      233.594,106.950
      237.981,91.940
      231.646,77.643
      217.580,70.809
      202.426,74.665
      193.337,87.391
      178.370,88.386
      163.403,89.380
      148.436,90.375
      133.469,91.370
      122.746,80.881
      123.410,65.896
      124.073,50.911
      132.413,37.466
      125.247,24.409
      125.910,9.424
      126.574,-5.561
      129.614,-24.703
    " />
    <g style="stroke: black; stroke-width: 1" id="pairs">
      <line id="1,69" x1="111.588" y1="-6.225" x2="126.574" y2="-5.561" />
      <line id="2,68" x1="110.925" y1=" 8.761" x2="125.910" y2=" 9.424" />
      <line id="3,67" x1="110.261" y1="23.746" x2="125.247" y2="24.409" />
      <line id="5,65" x1="109.088" y1="50.247" x2="124.073" y2="50.911" />
      <line id="6,64" x1="108.424" y1="65.233" x2="123.410" y2="65.896" />
      <line id="7,63" x1="107.761" y1="80.218" x2="122.746" y2="80.881" />
      <line id="10,23" x1="71.759" y1="104.180" x2="70.104" y2="119.088" />
      <line id="11,22" x1="56.851" y1="102.524" x2="55.195" y2="117.432" />
      <line id="12,21" x1="41.943" y1="100.868" x2="40.287" y2="115.776" />
      <line id="13,20" x1="27.034" y1="99.212" x2="25.379" y2="114.120" />
      <line id="25,41" x1="86.265" y1="141.751" x2="100.899" y2="145.043" />
      <line id="26,40" x1="82.973" y1="156.385" x2="97.608" y2="159.677" />
      <line id="27,39" x1="79.682" y1="171.020" x2="94.316" y2="174.311" />
      <line id="28,38" x1="76.390" y1="185.654" x2="91.024" y2="188.946" />
      <line id="46,62" x1="134.464" y1="106.337" x2="133.469" y2="91.370" />
      <line id="47,61" x1="149.431" y1="105.342" x2="148.436" y2="90.375" />
      <line id="48,60" x1="164.398" y1="104.347" x2="163.403" y2="89.380" />
      <line id="49,59" x1="179.365" y1="103.353" x2="178.370" y2="88.386" />
      <line id="50,58" x1="194.332" y1="102.358" x2="193.337" y2="87.391" />
    </g>
    <g style="font-family: SansSerif" transform="translate(-4.6, 4)" id="seq">
      <text x="111.588" y="-6.225">G</text>
      <text x="110.925" y="8.761">C</text>
      <text x="110.261" y="23.746">A</text>
      <text x="101.969" y="36.118">A</text>
      <text x="109.088" y="50.247">G</text>
      <text x="108.424" y="65.233">U</text>
      <text x="107.761" y="80.218">A</text>
      <text x="91.454" y="82.230">U</text>
      <text x="78.622" y="91.101">A</text>
      <text x="71.759" y="104.180">G</text>
      <text x="56.851" y="102.524">U</text>
      <text x="41.943" y="100.868">U</text>
      <text x="27.034" y="99.212">U</text>
      <text x="17.358" y="86.716">U</text>
      <text x="1.670" y="84.805">A</text>
      <text x="-10.723" y="94.613">A</text>
      <text x="-12.468" y="110.321">C</text>
      <text x="-2.529" y="122.609">C</text>
      <text x="13.196" y="124.188">C</text>
      <text x="25.379" y="114.120">A</text>
      <text x="40.287" y="115.776">A</text>
      <text x="55.195" y="117.432">A</text>
      <text x="70.104" y="119.088">C</text>
      <text x="75.417" y="132.393">A</text>
      <text x="86.265" y="141.751">U</text>
      <text x="82.973" y="156.385">U</text>
      <text x="79.682" y="171.020">A</text>
      <text x="76.390" y="185.654">G</text>
      <text x="61.863" y="190.847">A</text>
      <text x="52.467" y="203.083">C</text>
      <text x="51.202" y="218.459">U</text>
      <text x="58.469" y="232.067">G</text>
      <text x="71.952" y="239.565">U</text>
      <text x="87.346" y="238.562">G</text>
      <text x="99.741" y="229.376">A</text>
      <text x="105.181" y="214.940">U</text>
      <text x="101.929" y="199.859">C</text>
      <text x="91.024" y="188.946">C</text>
      <text x="94.316" y="174.311">U</text>
      <text x="97.608" y="159.677">A</text>
      <text x="100.899" y="145.043">A</text>
      <text x="111.781" y="143.812">A</text>
      <text x="121.867" y="138.658">A</text>
      <text x="129.746" y="130.006">A</text>
      <text x="134.217" y="118.787">U</text>
      <text x="134.464" y="106.337">A</text>
      <text x="149.431" y="105.342">G</text>
      <text x="164.398" y="104.347">A</text>
      <text x="179.365" y="103.353">A</text>
      <text x="194.332" y="102.358">G</text>
      <text x="205.025" y="113.768">U</text>
      <text x="220.557" y="115.585">U</text>
      <text x="233.594" y="106.950">A</text>
      <text x="237.981" y="91.940">G</text>
      <text x="231.646" y="77.643">A</text>
      <text x="217.580" y="70.809">C</text>
      <text x="202.426" y="74.665">C</text>
      <text x="193.337" y="87.391">C</text>
      <text x="178.370" y="88.386">U</text>
      <text x="163.403" y="89.380">U</text>
      <text x="148.436" y="90.375">C</text>
      <text x="133.469" y="91.370">U</text>
      <text x="122.746" y="80.881">U</text>
      <text x="123.410" y="65.896">A</text>
      <text x="124.073" y="50.911">C</text>
      <text x="132.413" y="37.466">C</text>
      <text x="125.247" y="24.409">U</text>
      <text x="125.910" y="9.424">G</text>
      <text x="126.574" y="-5.561">C</text>
      <text x="129.614" y="-24.703">C</text>
    </g>
  </g>
</svg>
