<?xml version="1.0" encoding="UTF-8" standalone="yes"?>
<svg xmlns="http://www.w3.org/2000/svg" height="452" width="452">
<script type="text/ecmascript">
      <![CDATA[
        var shown = 1;
        function click() {
             var seq = document.getElementById("seq");
             if (shown==1) {
               seq.setAttribute("style", "visibility: hidden");
               shown = 0;
             } else {
               seq.setAttribute("style", "visibility: visible");
               shown = 1;
             }
         }
        ]]>
</script>
  <rect style="stroke: white; fill: white" height="452" x="0" y="0" width="452" onclick="click(evt)" />
  <g transform="scale(1.574274,1.574274) translate(34.364731,37.612061)">
    <polyline style="stroke: black; fill: none; stroke-width: 1.5" id="outline" points="
      111.354,-14.169
      110.661,0.815
      109.969,15.799
      109.276,30.783
      108.583,45.767
      107.890,60.751
      107.198,75.735
      90.237,78.176
      77.030,87.734
      70.157,101.595
      55.221,100.211
      40.285,98.827
      31.531,85.869
      16.482,81.620
      2.243,88.085
      -4.462,102.213
      -0.467,117.331
      12.341,126.303
      27.915,124.891
      38.901,113.763
      53.837,115.147
      68.773,116.531
      74.807,130.917
      86.993,140.658
      84.237,155.403
      81.480,170.147
      78.724,184.892
      75.968,199.636
      62.258,207.158
      56.638,221.751
      61.762,236.525
      75.211,244.504
      90.633,241.922
      100.748,229.996
      100.780,214.359
      90.712,202.393
      93.469,187.648
      96.225,172.904
      98.981,158.159
      101.737,143.414
      111.306,142.312
      120.349,138.296
      127.980,131.591
      133.400,122.689
      135.982,112.320
      135.339,101.389
      150.195,99.317
      165.051,97.245
      179.908,95.172
      194.764,93.100
      209.751,99.757
      222.849,89.889
      220.583,73.647
      205.285,67.739
      192.691,78.244
      177.835,80.316
      162.979,82.388
      148.123,84.461
      133.267,86.533
      122.182,76.428
      122.874,61.444
      123.567,46.460
      124.260,31.476
      124.953,16.492
      125.645,1.508
      126.338,-13.476
      129.416,-32.612
    " />
    <g style="stroke: black; stroke-width: 1" id="pairs">
      <line id="1,66" x1="111.354" y1="-14.169" x2="126.338" y2="-13.476" />
      <line id="2,65" x1="110.661" y1=" 0.815" x2="125.645" y2=" 1.508" />
      <line id="3,64" x1="109.969" y1="15.799" x2="124.953" y2="16.492" />
      <line id="4,63" x1="109.276" y1="30.783" x2="124.260" y2="31.476" />
      <line id="5,62" x1="108.583" y1="45.767" x2="123.567" y2="46.460" />
      <line id="6,61" x1="107.890" y1="60.751" x2="122.874" y2="61.444" />
      <line id="7,60" x1="107.198" y1="75.735" x2="122.182" y2="76.428" />
      <line id="10,22" x1="70.157" y1="101.595" x2="68.773" y2="116.531" />
      <line id="11,21" x1="55.221" y1="100.211" x2="53.837" y2="115.147" />
      <line id="12,20" x1="40.285" y1="98.827" x2="38.901" y2="113.763" />
      <line id="24,40" x1="86.993" y1="140.658" x2="101.737" y2="143.414" />
      <line id="25,39" x1="84.237" y1="155.403" x2="98.981" y2="158.159" />
      <line id="26,38" x1="81.480" y1="170.147" x2="96.225" y2="172.904" />
      <line id="27,37" x1="78.724" y1="184.892" x2="93.469" y2="187.648" />
      <line id="28,36" x1="75.968" y1="199.636" x2="90.712" y2="202.393" />
      <line id="46,59" x1="135.339" y1="101.389" x2="133.267" y2="86.533" />
      <line id="47,58" x1="150.195" y1="99.317" x2="148.123" y2="84.461" />
      <line id="48,57" x1="165.051" y1="97.245" x2="162.979" y2="82.388" />
      <line id="49,56" x1="179.908" y1="95.172" x2="177.835" y2="80.316" />
      <line id="50,55" x1="194.764" y1="93.100" x2="192.691" y2="78.244" />
    </g>
    <g style="font-family: SansSerif" transform="translate(-4.6, 4)" id="seq">
      <text x="111.354" y="-14.169">C</text>
      <text x="110.661" y="0.815">A</text>
      <text x="109.969" y="15.799">U</text>
      <text x="109.276" y="30.783">U</text>
      <text x="108.583" y="45.767">A</text>
      <text x="107.890" y="60.751">A</text>
      <text x="107.198" y="75.735">G</text>
      <text x="90.237" y="78.176">A</text>
      <text x="77.030" y="87.734">A</text>
      <text x="70.157" y="101.595">G</text>
      <text x="55.221" y="100.211">C</text>
      <text x="40.285" y="98.827">U</text>
      <text x="31.531" y="85.869">A</text>
      <text x="16.482" y="81.620">U</text>
      <text x="2.243" y="88.085">G</text>
      <text x="-4.462" y="102.213">C</text>
      <text x="-0.467" y="117.331">A</text>
      <text x="12.341" y="126.303">U</text>
      <text x="27.915" y="124.891">C</text>
      <text x="38.901" y="113.763">A</text>
      <text x="53.837" y="115.147">G</text>
      <text x="68.773" y="116.531">C</text>
      <text x="74.807" y="130.917">A</text>
      <text x="86.993" y="140.658">C</text>
      <text x="84.237" y="155.403">U</text>
      <text x="81.480" y="170.147">A</text>
      <text x="78.724" y="184.892">G</text>
      <text x="75.968" y="199.636">C</text>
      <text x="62.258" y="207.158">C</text>
      <text x="56.638" y="221.751">U</text>
      <text x="61.762" y="236.525">U</text>
      <text x="75.211" y="244.504">U</text>
      <text x="90.633" y="241.922">U</text>
      <text x="100.748" y="229.996">A</text>
      <text x="100.780" y="214.359">A</text>
      <text x="90.712" y="202.393">G</text>
      <text x="93.469" y="187.648">C</text>
      <text x="96.225" y="172.904">U</text>
      <text x="98.981" y="158.159">A</text>
      <text x="101.737" y="143.414">G</text>
      <text x="111.306" y="142.312">A</text>
      <text x="120.349" y="138.296">G</text>
      <text x="127.980" y="131.591">A</text>
      <text x="133.400" y="122.689">G</text>
      <text x="135.982" y="112.320">A</text>
      <text x="135.339" y="101.389">G</text>
      <text x="150.195" y="99.317">A</text>
      <text x="165.051" y="97.245">G</text>
      <text x="179.908" y="95.172">G</text>
      <text x="194.764" y="93.100">G</text>
      <text x="209.751" y="99.757">U</text>
      <text x="222.849" y="89.889">G</text>
      <text x="220.583" y="73.647">U</text>
      <text x="205.285" y="67.739">C</text>
      <text x="192.691" y="78.244">C</text>
      <text x="177.835" y="80.316">C</text>
      <text x="162.979" y="82.388">C</text>
      <text x="148.123" y="84.461">U</text>
      <text x="133.267" y="86.533">C</text>
      <text x="122.182" y="76.428">C</text>
      <text x="122.874" y="61.444">U</text>
      <text x="123.567" y="46.460">U</text>
      <text x="124.260" y="31.476">A</text>
      <text x="124.953" y="16.492">A</text>
      <text x="125.645" y="1.508">U</text>
      <text x="126.338" y="-13.476">G</text>
      <text x="129.416" y="-32.612">A</text>
    </g>
  </g>
</svg>
