<?xml version="1.0" encoding="UTF-8" standalone="yes"?>
<svg xmlns="http://www.w3.org/2000/svg" height="452" width="452">
<script type="text/ecmascript">
      <![CDATA[
        var shown = 1;
        function click() {
             var seq = document.getElementById("seq");
             if (shown==1) {
               seq.setAttribute("style", "visibility: hidden");
               shown = 0;
             } else {
               seq.setAttribute("style", "visibility: visible");
               shown = 1;
             }
         }
        ]]>
</script>
  <rect style="stroke: white; fill: white" height="452" x="0" y="0" width="452" onclick="click(evt)" />
  <g transform="scale(1.590464,1.590464) translate(37.063843,38.755745)">
    <polyline style="stroke: black; fill: none; stroke-width: 1.5" id="outline" points="
      109.912,-15.235
      109.284,-0.248
      108.656,14.739
      108.028,29.725
      107.400,44.712
      99.136,57.104
      106.289,71.217
      89.340,74.185
      76.558,84.342
      70.534,98.564
      55.537,98.249
      40.540,97.935
      34.254,84.027
      22.550,74.229
      7.753,70.489
      -7.201,73.548
      -19.341,82.798
      -26.258,96.404
      -26.577,111.664
      -20.237,125.548
      -8.494,135.299
      6.318,138.981
      21.259,135.864
      33.363,126.565
      40.226,112.932
      55.223,113.246
      70.219,113.560
      77.719,127.605
      91.266,135.972
      90.638,150.959
      90.010,165.946
      89.381,180.933
      88.753,195.920
      76.254,205.317
      72.770,220.561
      79.946,234.455
      94.394,240.438
      109.292,235.685
      117.605,222.441
      115.409,206.958
      103.740,196.548
      104.368,181.561
      104.996,166.574
      105.625,151.587
      106.253,136.600
      116.140,133.914
      124.902,127.947
      131.451,119.163
      134.887,108.385
      134.614,96.721
      149.453,94.529
      164.292,92.338
      179.131,90.147
      193.971,87.956
      205.543,98.473
      221.171,99.038
      233.474,89.386
      236.644,74.073
      229.183,60.330
      214.615,54.645
      199.819,59.704
      191.779,73.117
      176.940,75.308
      162.101,77.499
      147.262,79.690
      132.423,81.882
      121.276,71.845
      129.584,58.381
      122.387,45.340
      123.015,30.354
      123.643,15.367
      124.271,0.380
      124.899,-14.607
      127.895,-33.756
    " />
    <g style="stroke: black; stroke-width: 1" id="pairs">
      <line id="1,73" x1="109.912" y1="-15.235" x2="124.899" y2="-14.607" />
      <line id="2,72" x1="109.284" y1="-0.248" x2="124.271" y2=" 0.380" />
      <line id="3,71" x1="108.656" y1="14.739" x2="123.643" y2="15.367" />
      <line id="4,70" x1="108.028" y1="29.725" x2="123.015" y2="30.354" />
      <line id="5,69" x1="107.400" y1="44.712" x2="122.387" y2="45.340" />
      <line id="7,67" x1="106.289" y1="71.217" x2="121.276" y2="71.845" />
      <line id="10,27" x1="70.534" y1="98.564" x2="70.219" y2="113.560" />
      <line id="11,26" x1="55.537" y1="98.249" x2="55.223" y2="113.246" />
      <line id="12,25" x1="40.540" y1="97.935" x2="40.226" y2="112.932" />
      <line id="29,45" x1="91.266" y1="135.972" x2="106.253" y2="136.600" />
      <line id="30,44" x1="90.638" y1="150.959" x2="105.625" y2="151.587" />
      <line id="31,43" x1="90.010" y1="165.946" x2="104.996" y2="166.574" />
      <line id="32,42" x1="89.381" y1="180.933" x2="104.368" y2="181.561" />
      <line id="33,41" x1="88.753" y1="195.920" x2="103.740" y2="196.548" />
      <line id="50,66" x1="134.614" y1="96.721" x2="132.423" y2="81.882" />
      <line id="51,65" x1="149.453" y1="94.529" x2="147.262" y2="79.690" />
      <line id="52,64" x1="164.292" y1="92.338" x2="162.101" y2="77.499" />
      <line id="53,63" x1="179.131" y1="90.147" x2="176.940" y2="75.308" />
      <line id="54,62" x1="193.971" y1="87.956" x2="191.779" y2="73.117" />
    </g>
    <g style="font-family: SansSerif" transform="translate(-4.6, 4)" id="seq">
      <text x="109.912" y="-15.235">G</text>
      <text x="109.284" y="-0.248">C</text>
      <text x="108.656" y="14.739">U</text>
      <text x="108.028" y="29.725">A</text>
      <text x="107.400" y="44.712">G</text>
      <text x="99.136" y="57.104">C</text>
      <text x="106.289" y="71.217">G</text>
      <text x="89.340" y="74.185">U</text>
      <text x="76.558" y="84.342">G</text>
      <text x="70.534" y="98.564">G</text>
      <text x="55.537" y="98.249">C</text>
      <text x="40.540" y="97.935">A</text>
      <text x="34.254" y="84.027">G</text>
      <text x="22.550" y="74.229">A</text>
      <text x="7.753" y="70.489">G</text>
      <text x="-7.201" y="73.548">C</text>
      <text x="-19.341" y="82.798">C</text>
      <text x="-26.258" y="96.404">C</text>
      <text x="-26.577" y="111.664">G</text>
      <text x="-20.237" y="125.548">G</text>
      <text x="-8.494" y="135.299">C</text>
      <text x="6.318" y="138.981">A</text>
      <text x="21.259" y="135.864">A</text>
      <text x="33.363" y="126.565">G</text>
      <text x="40.226" y="112.932">U</text>
      <text x="55.223" y="113.246">G</text>
      <text x="70.219" y="113.560">C</text>
      <text x="77.719" y="127.605">A</text>
      <text x="91.266" y="135.972">A</text>
      <text x="90.638" y="150.959">A</text>
      <text x="90.010" y="165.946">A</text>
      <text x="89.381" y="180.933">G</text>
      <text x="88.753" y="195.920">G</text>
      <text x="76.254" y="205.317">C</text>
      <text x="72.770" y="220.561">U</text>
      <text x="79.946" y="234.455">U</text>
      <text x="94.394" y="240.438">A</text>
      <text x="109.292" y="235.685">A</text>
      <text x="117.605" y="222.441">G</text>
      <text x="115.409" y="206.958">C</text>
      <text x="103.740" y="196.548">C</text>
      <text x="104.368" y="181.561">C</text>
      <text x="104.996" y="166.574">U</text>
      <text x="105.625" y="151.587">U</text>
      <text x="106.253" y="136.600">U</text>
      <text x="116.140" y="133.914">A</text>
      <text x="124.902" y="127.947">C</text>
      <text x="131.451" y="119.163">C</text>
      <text x="134.887" y="108.385">C</text>
      <text x="134.614" y="96.721">A</text>
      <text x="149.453" y="94.529">G</text>
      <text x="164.292" y="92.338">A</text>
      <text x="179.131" y="90.147">G</text>
      <text x="193.971" y="87.956">G</text>
      <text x="205.543" y="98.473">U</text>
      <text x="221.171" y="99.038">U</text>
      <text x="233.474" y="89.386">C</text>
      <text x="236.644" y="74.073">A</text>
      <text x="229.183" y="60.330">A</text>
      <text x="214.615" y="54.645">A</text>
      <text x="199.819" y="59.704">U</text>
      <text x="191.779" y="73.117">C</text>
      <text x="176.940" y="75.308">C</text>
      <text x="162.101" y="77.499">U</text>
      <text x="147.262" y="79.690">C</text>
      <text x="132.423" y="81.882">U</text>
      <text x="121.276" y="71.845">C</text>
      <text x="129.584" y="58.381">C</text>
      <text x="122.387" y="45.340">C</text>
      <text x="123.015" y="30.354">U</text>
      <text x="123.643" y="15.367">A</text>
      <text x="124.271" y="0.380">G</text>
      <text x="124.899" y="-14.607">C</text>
      <text x="127.895" y="-33.756">U</text>
    </g>
  </g>
</svg>
