<?xml version="1.0" encoding="UTF-8" standalone="yes"?>
<svg xmlns="http://www.w3.org/2000/svg" height="452" width="452">
<script type="text/ecmascript">
      <![CDATA[
        var shown = 1;
        function click() {
             var seq = document.getElementById("seq");
             if (shown==1) {
               seq.setAttribute("style", "visibility: hidden");
               shown = 0;
             } else {
               seq.setAttribute("style", "visibility: visible");
               shown = 1;
             }
         }
        ]]>
</script>
  <rect style="stroke: white; fill: white" height="452" x="0" y="0" width="452" onclick="click(evt)" />
  <g transform="scale(1.568284,1.568284) translate(39.910370,38.679268)">
    <polyline style="stroke: black; fill: none; stroke-width: 1.5" id="outline" points="
      110.622,-15.159
      109.994,-0.172
      109.365,14.815
      108.737,29.802
      108.109,44.789
      107.481,59.776
      106.853,74.762
      89.763,77.427
      76.615,87.311
      70.033,101.454
      55.062,100.513
      40.092,99.571
      25.121,98.629
      17.702,85.103
      4.137,77.755
      -11.246,78.930
      -23.537,88.254
      -28.815,102.750
      -25.395,117.794
      -14.370,128.584
      0.744,131.678
      15.123,126.089
      24.180,113.599
      39.150,114.541
      54.120,115.483
      69.091,116.425
      75.800,130.874
      88.737,140.173
      86.857,155.054
      84.977,169.936
      83.097,184.818
      81.217,199.700
      67.975,208.018
      63.228,222.917
      69.216,237.363
      83.112,244.534
      98.356,241.044
      107.748,228.542
      106.855,212.930
      96.098,201.580
      97.978,186.698
      99.858,171.816
      101.738,156.934
      103.618,142.053
      112.777,140.515
      121.327,136.277
      128.472,129.569
      133.499,120.859
      135.849,110.816
      135.178,100.267
      150.017,98.075
      164.856,95.884
      179.695,93.693
      194.534,91.502
      206.107,102.019
      221.735,102.584
      234.038,92.932
      237.207,77.619
      229.747,63.876
      215.179,58.191
      200.382,63.250
      192.343,76.663
      177.504,78.854
      162.665,81.045
      147.826,83.236
      132.987,85.428
      121.840,75.391
      122.468,60.404
      123.096,45.417
      123.724,30.430
      124.352,15.443
      124.980,0.456
      125.609,-14.530
      128.604,-33.679
    " />
    <g style="stroke: black; stroke-width: 1" id="pairs">
      <line id="1,73" x1="110.622" y1="-15.159" x2="125.609" y2="-14.530" />
      <line id="2,72" x1="109.994" y1="-0.172" x2="124.980" y2=" 0.456" />
      <line id="3,71" x1="109.365" y1="14.815" x2="124.352" y2="15.443" />
      <line id="4,70" x1="108.737" y1="29.802" x2="123.724" y2="30.430" />
      <line id="5,69" x1="108.109" y1="44.789" x2="123.096" y2="45.417" />
      <line id="6,68" x1="107.481" y1="59.776" x2="122.468" y2="60.404" />
      <line id="7,67" x1="106.853" y1="74.762" x2="121.840" y2="75.391" />
      <line id="10,26" x1="70.033" y1="101.454" x2="69.091" y2="116.425" />
      <line id="11,25" x1="55.062" y1="100.513" x2="54.120" y2="115.483" />
      <line id="12,24" x1="40.092" y1="99.571" x2="39.150" y2="114.541" />
      <line id="13,23" x1="25.121" y1="98.629" x2="24.180" y2="113.599" />
      <line id="28,44" x1="88.737" y1="140.173" x2="103.618" y2="142.053" />
      <line id="29,43" x1="86.857" y1="155.054" x2="101.738" y2="156.934" />
      <line id="30,42" x1="84.977" y1="169.936" x2="99.858" y2="171.816" />
      <line id="31,41" x1="83.097" y1="184.818" x2="97.978" y2="186.698" />
      <line id="32,40" x1="81.217" y1="199.700" x2="96.098" y2="201.580" />
      <line id="50,66" x1="135.178" y1="100.267" x2="132.987" y2="85.428" />
      <line id="51,65" x1="150.017" y1="98.075" x2="147.826" y2="83.236" />
      <line id="52,64" x1="164.856" y1="95.884" x2="162.665" y2="81.045" />
      <line id="53,63" x1="179.695" y1="93.693" x2="177.504" y2="78.854" />
      <line id="54,62" x1="194.534" y1="91.502" x2="192.343" y2="76.663" />
    </g>
    <g style="font-family: SansSerif" transform="translate(-4.6, 4)" id="seq">
      <text x="110.622" y="-15.159">U</text>
      <text x="109.994" y="-0.172">A</text>
      <text x="109.365" y="14.815">G</text>
      <text x="108.737" y="29.802">A</text>
      <text x="108.109" y="44.789">C</text>
      <text x="107.481" y="59.776">A</text>
      <text x="106.853" y="74.762">A</text>
      <text x="89.763" y="77.427">A</text>
      <text x="76.615" y="87.311">A</text>
      <text x="70.033" y="101.454">G</text>
      <text x="55.062" y="100.513">C</text>
      <text x="40.092" y="99.571">C</text>
      <text x="25.121" y="98.629">U</text>
      <text x="17.702" y="85.103">G</text>
      <text x="4.137" y="77.755">C</text>
      <text x="-11.246" y="78.930">U</text>
      <text x="-23.537" y="88.254">G</text>
      <text x="-28.815" y="102.750">G</text>
      <text x="-25.395" y="117.794">U</text>
      <text x="-14.370" y="128.584">U</text>
      <text x="0.744" y="131.678">C</text>
      <text x="15.123" y="126.089">G</text>
      <text x="24.180" y="113.599">G</text>
      <text x="39.150" y="114.541">G</text>
      <text x="54.120" y="115.483">G</text>
      <text x="69.091" y="116.425">C</text>
      <text x="75.800" y="130.874">A</text>
      <text x="88.737" y="140.173">U</text>
      <text x="86.857" y="155.054">C</text>
      <text x="84.977" y="169.936">U</text>
      <text x="83.097" y="184.818">A</text>
      <text x="81.217" y="199.700">G</text>
      <text x="67.975" y="208.018">C</text>
      <text x="63.228" y="222.917">U</text>
      <text x="69.216" y="237.363">G</text>
      <text x="83.112" y="244.534">U</text>
      <text x="98.356" y="241.044">U</text>
      <text x="107.748" y="228.542">A</text>
      <text x="106.855" y="212.930">A</text>
      <text x="96.098" y="201.580">U</text>
      <text x="97.978" y="186.698">U</text>
      <text x="99.858" y="171.816">A</text>
      <text x="101.738" y="156.934">G</text>
      <text x="103.618" y="142.053">A</text>
      <text x="112.777" y="140.515">G</text>
      <text x="121.327" y="136.277">U</text>
      <text x="128.472" y="129.569">U</text>
      <text x="133.499" y="120.859">U</text>
      <text x="135.849" y="110.816">U</text>
      <text x="135.178" y="100.267">G</text>
      <text x="150.017" y="98.075">U</text>
      <text x="164.856" y="95.884">G</text>
      <text x="179.695" y="93.693">G</text>
      <text x="194.534" y="91.502">G</text>
      <text x="206.107" y="102.019">A</text>
      <text x="221.735" y="102.584">U</text>
      <text x="234.038" y="92.932">C</text>
      <text x="237.207" y="77.619">G</text>
      <text x="229.747" y="63.876">A</text>
      <text x="215.179" y="58.191">G</text>
      <text x="200.382" y="63.250">G</text>
      <text x="192.343" y="76.663">C</text>
      <text x="177.504" y="78.854">C</text>
      <text x="162.665" y="81.045">C</text>
      <text x="147.826" y="83.236">A</text>
      <text x="132.987" y="85.428">C</text>
      <text x="121.840" y="75.391">U</text>
      <text x="122.468" y="60.404">U</text>
      <text x="123.096" y="45.417">G</text>
      <text x="123.724" y="30.430">U</text>
      <text x="124.352" y="15.443">C</text>
      <text x="124.980" y="0.456">U</text>
      <text x="125.609" y="-14.530">A</text>
      <text x="128.604" y="-33.679">G</text>
    </g>
  </g>
</svg>
