<?xml version="1.0" encoding="UTF-8" standalone="yes"?>
<svg xmlns="http://www.w3.org/2000/svg" height="452" width="452">
<script type="text/ecmascript">
      <![CDATA[
        var shown = 1;
        function click() {
             var seq = document.getElementById("seq");
             if (shown==1) {
               seq.setAttribute("style", "visibility: hidden");
               shown = 0;
             } else {
               seq.setAttribute("style", "visibility: visible");
               shown = 1;
             }
         }
        ]]>
</script>
  <rect style="stroke: white; fill: white" height="452" x="0" y="0" width="452" onclick="click(evt)" />
  <g transform="scale(1.569358,1.569358) translate(44.731697,38.935028)">
    <polyline style="stroke: black; fill: none; stroke-width: 1.5" id="outline" points="
      109.641,-15.404
      109.021,-0.417
      108.401,14.570
      107.781,29.557
      107.161,44.544
      106.541,59.532
      105.921,74.519
      88.847,77.725
      76.109,88.179
      70.308,102.646
      55.308,102.646
      40.308,102.646
      25.308,102.646
      18.252,89.064
      5.685,80.326
      -9.504,78.441
      -23.825,83.842
      -33.987,95.286
      -37.656,110.146
      -33.987,125.005
      -23.825,136.450
      -9.504,141.850
      5.685,139.965
      18.252,131.228
      25.308,117.646
      40.308,117.646
      55.308,117.646
      70.308,117.646
      78.345,131.801
      92.500,139.838
      92.500,154.838
      92.500,169.838
      92.500,184.838
      92.500,199.838
      80.405,209.750
      77.563,225.127
      85.314,238.708
      100.000,244.081
      114.686,238.708
      122.437,225.127
      119.595,209.750
      107.500,199.838
      107.500,184.838
      107.500,169.838
      107.500,154.838
      107.500,139.838
      117.114,136.856
      125.551,130.746
      131.791,121.972
      134.998,111.326
      134.621,99.863
      149.416,97.394
      164.212,94.925
      179.007,92.456
      193.803,89.987
      205.571,100.285
      221.206,100.558
      233.326,90.677
      236.208,75.307
      228.492,61.706
      213.820,56.296
      199.120,61.631
      191.334,75.192
      176.538,77.661
      161.743,80.130
      146.948,82.599
      132.152,85.068
      120.909,75.139
      121.529,60.151
      122.148,45.164
      122.768,30.177
      123.388,15.190
      124.008,0.203
      124.628,-14.785
      127.613,-33.935
    " />
    <g style="stroke: black; stroke-width: 1" id="pairs">
      <line id="1,74" x1="109.641" y1="-15.404" x2="124.628" y2="-14.785" />
      <line id="2,73" x1="109.021" y1="-0.417" x2="124.008" y2=" 0.203" />
      <line id="3,72" x1="108.401" y1="14.570" x2="123.388" y2="15.190" />
      <line id="4,71" x1="107.781" y1="29.557" x2="122.768" y2="30.177" />
      <line id="5,70" x1="107.161" y1="44.544" x2="122.148" y2="45.164" />
      <line id="6,69" x1="106.541" y1="59.532" x2="121.529" y2="60.151" />
      <line id="7,68" x1="105.921" y1="74.519" x2="120.909" y2="75.139" />
      <line id="10,28" x1="70.308" y1="102.646" x2="70.308" y2="117.646" />
      <line id="11,27" x1="55.308" y1="102.646" x2="55.308" y2="117.646" />
      <line id="12,26" x1="40.308" y1="102.646" x2="40.308" y2="117.646" />
      <line id="13,25" x1="25.308" y1="102.646" x2="25.308" y2="117.646" />
      <line id="30,46" x1="92.500" y1="139.838" x2="107.500" y2="139.838" />
      <line id="31,45" x1="92.500" y1="154.838" x2="107.500" y2="154.838" />
      <line id="32,44" x1="92.500" y1="169.838" x2="107.500" y2="169.838" />
      <line id="33,43" x1="92.500" y1="184.838" x2="107.500" y2="184.838" />
      <line id="34,42" x1="92.500" y1="199.838" x2="107.500" y2="199.838" />
      <line id="51,67" x1="134.621" y1="99.863" x2="132.152" y2="85.068" />
      <line id="52,66" x1="149.416" y1="97.394" x2="146.948" y2="82.599" />
      <line id="53,65" x1="164.212" y1="94.925" x2="161.743" y2="80.130" />
      <line id="54,64" x1="179.007" y1="92.456" x2="176.538" y2="77.661" />
      <line id="55,63" x1="193.803" y1="89.987" x2="191.334" y2="75.192" />
    </g>
    <g style="font-family: SansSerif" transform="translate(-4.6, 4)" id="seq">
      <text x="109.641" y="-15.404">A</text>
      <text x="109.021" y="-0.417">A</text>
      <text x="108.401" y="14.570">G</text>
      <text x="107.781" y="29.557">A</text>
      <text x="107.161" y="44.544">A</text>
      <text x="106.541" y="59.532">A</text>
      <text x="105.921" y="74.519">G</text>
      <text x="88.847" y="77.725">A</text>
      <text x="76.109" y="88.179">A</text>
      <text x="70.308" y="102.646">G</text>
      <text x="55.308" y="102.646">C</text>
      <text x="40.308" y="102.646">A</text>
      <text x="25.308" y="102.646">U</text>
      <text x="18.252" y="89.064">G</text>
      <text x="5.685" y="80.326">A</text>
      <text x="-9.504" y="78.441">G</text>
      <text x="-23.825" y="83.842">U</text>
      <text x="-33.987" y="95.286">G</text>
      <text x="-37.656" y="110.146">G</text>
      <text x="-33.987" y="125.005">U</text>
      <text x="-23.825" y="136.450">U</text>
      <text x="-9.504" y="141.850">U</text>
      <text x="5.685" y="139.965">G</text>
      <text x="18.252" y="131.228">U</text>
      <text x="25.308" y="117.646">A</text>
      <text x="40.308" y="117.646">U</text>
      <text x="55.308" y="117.646">G</text>
      <text x="70.308" y="117.646">C</text>
      <text x="78.345" y="131.801">G</text>
      <text x="92.500" y="139.838">G</text>
      <text x="92.500" y="154.838">U</text>
      <text x="92.500" y="169.838">U</text>
      <text x="92.500" y="184.838">G</text>
      <text x="92.500" y="199.838">G</text>
      <text x="80.405" y="209.750">C</text>
      <text x="77.563" y="225.127">U</text>
      <text x="85.314" y="238.708">U</text>
      <text x="100.000" y="244.081">G</text>
      <text x="114.686" y="238.708">A</text>
      <text x="122.437" y="225.127">A</text>
      <text x="119.595" y="209.750">A</text>
      <text x="107.500" y="199.838">C</text>
      <text x="107.500" y="184.838">C</text>
      <text x="107.500" y="169.838">A</text>
      <text x="107.500" y="154.838">G</text>
      <text x="107.500" y="139.838">C</text>
      <text x="117.114" y="136.856">A</text>
      <text x="125.551" y="130.746">G</text>
      <text x="131.791" y="121.972">G</text>
      <text x="134.998" y="111.326">U</text>
      <text x="134.621" y="99.863">G</text>
      <text x="149.416" y="97.394">A</text>
      <text x="164.212" y="94.925">G</text>
      <text x="179.007" y="92.456">G</text>
      <text x="193.803" y="89.987">G</text>
      <text x="205.571" y="100.285">U</text>
      <text x="221.206" y="100.558">U</text>
      <text x="233.326" y="90.677">C</text>
      <text x="236.208" y="75.307">G</text>
      <text x="228.492" y="61.706">A</text>
      <text x="213.820" y="56.296">U</text>
      <text x="199.120" y="61.631">U</text>
      <text x="191.334" y="75.192">C</text>
      <text x="176.538" y="77.661">C</text>
      <text x="161.743" y="80.130">U</text>
      <text x="146.948" y="82.599">U</text>
      <text x="132.152" y="85.068">C</text>
      <text x="120.909" y="75.139">C</text>
      <text x="121.529" y="60.151">U</text>
      <text x="122.148" y="45.164">U</text>
      <text x="122.768" y="30.177">U</text>
      <text x="123.388" y="15.190">C</text>
      <text x="124.008" y="0.203">U</text>
      <text x="124.628" y="-14.785">U</text>
      <text x="127.613" y="-33.935">G</text>
    </g>
  </g>
</svg>
