<?xml version="1.0" encoding="UTF-8" standalone="yes"?>
<svg xmlns="http://www.w3.org/2000/svg" height="452" width="452">
<script type="text/ecmascript">
      <![CDATA[
        var shown = 1;
        function click() {
             var seq = document.getElementById("seq");
             if (shown==1) {
               seq.setAttribute("style", "visibility: hidden");
               shown = 0;
             } else {
               seq.setAttribute("style", "visibility: visible");
               shown = 1;
             }
         }
        ]]>
</script>
  <rect style="stroke: white; fill: white" height="452" x="0" y="0" width="452" onclick="click(evt)" />
  <g transform="scale(1.614378,1.614378) translate(25.110962,31.970467)">
    <polyline style="stroke: black; fill: none; stroke-width: 1.5" id="outline" points="
      111.620,-8.470
      110.975,6.516
      110.330,21.502
      109.684,36.488
      109.039,51.474
      108.394,66.460
      107.748,81.446
      91.437,83.465
      78.613,92.355
      71.777,105.451
      56.864,103.840
      41.951,102.230
      35.144,88.385
      21.921,80.438
      6.501,80.924
      -6.195,89.688
      -12.116,103.934
      -9.373,119.115
      1.159,130.388
      16.119,134.156
      30.734,129.215
      40.340,117.143
      55.253,118.754
      70.166,120.364
      75.536,133.657
      86.439,142.965
      83.236,157.619
      80.033,172.274
      69.528,184.103
      74.369,198.189
      60.437,205.291
      54.376,219.706
      59.049,234.629
      72.249,243.014
      87.743,240.900
      98.216,229.288
      98.722,213.658
      89.023,201.392
      99.299,190.610
      94.687,175.476
      97.890,160.822
      101.093,146.168
      111.909,144.888
      121.920,139.724
      129.736,131.100
      134.171,119.936
      134.422,107.552
      149.391,106.585
      164.360,105.617
      179.328,104.649
      194.297,103.682
      204.105,115.706
      219.116,119.637
      233.558,113.963
      241.878,100.865
      240.877,85.380
      230.940,73.463
      215.887,69.695
      201.507,75.526
      193.329,88.713
      178.361,89.681
      163.392,90.648
      148.423,91.616
      133.454,92.583
      122.734,82.092
      123.380,67.105
      124.025,52.119
      124.670,37.133
      125.316,22.147
      125.961,7.161
      126.606,-7.825
      129.624,-26.970
    " />
    <g style="stroke: black; stroke-width: 1" id="pairs">
      <line id="1,71" x1="111.620" y1="-8.470" x2="126.606" y2="-7.825" />
      <line id="2,70" x1="110.975" y1=" 6.516" x2="125.961" y2=" 7.161" />
      <line id="3,69" x1="110.330" y1="21.502" x2="125.316" y2="22.147" />
      <line id="4,68" x1="109.684" y1="36.488" x2="124.670" y2="37.133" />
      <line id="5,67" x1="109.039" y1="51.474" x2="124.025" y2="52.119" />
      <line id="6,66" x1="108.394" y1="66.460" x2="123.380" y2="67.105" />
      <line id="7,65" x1="107.748" y1="81.446" x2="122.734" y2="82.092" />
      <line id="10,24" x1="71.777" y1="105.451" x2="70.166" y2="120.364" />
      <line id="11,23" x1="56.864" y1="103.840" x2="55.253" y2="118.754" />
      <line id="12,22" x1="41.951" y1="102.230" x2="40.340" y2="117.143" />
      <line id="26,42" x1="86.439" y1="142.965" x2="101.093" y2="146.168" />
      <line id="27,41" x1="83.236" y1="157.619" x2="97.890" y2="160.822" />
      <line id="28,40" x1="80.033" y1="172.274" x2="94.687" y2="175.476" />
      <line id="30,38" x1="74.369" y1="198.189" x2="89.023" y2="201.392" />
      <line id="47,64" x1="134.422" y1="107.552" x2="133.454" y2="92.583" />
      <line id="48,63" x1="149.391" y1="106.585" x2="148.423" y2="91.616" />
      <line id="49,62" x1="164.360" y1="105.617" x2="163.392" y2="90.648" />
      <line id="50,61" x1="179.328" y1="104.649" x2="178.361" y2="89.681" />
      <line id="51,60" x1="194.297" y1="103.682" x2="193.329" y2="88.713" />
    </g>
    <g style="font-family: SansSerif" transform="translate(-4.6, 4)" id="seq">
      <text x="111.620" y="-8.470">C</text>
      <text x="110.975" y="6.516">A</text>
      <text x="110.330" y="21.502">A</text>
      <text x="109.684" y="36.488">G</text>
      <text x="109.039" y="51.474">A</text>
      <text x="108.394" y="66.460">C</text>
      <text x="107.748" y="81.446">G</text>
      <text x="91.437" y="83.465">U</text>
      <text x="78.613" y="92.355">A</text>
      <text x="71.777" y="105.451">G</text>
      <text x="56.864" y="103.840">C</text>
      <text x="41.951" y="102.230">U</text>
      <text x="35.144" y="88.385">A</text>
      <text x="21.921" y="80.438">U</text>
      <text x="6.501" y="80.924">A</text>
      <text x="-6.195" y="89.688">A</text>
      <text x="-12.116" y="103.934">U</text>
      <text x="-9.373" y="119.115">A</text>
      <text x="1.159" y="130.388">U</text>
      <text x="16.119" y="134.156">A</text>
      <text x="30.734" y="129.215">A</text>
      <text x="40.340" y="117.143">A</text>
      <text x="55.253" y="118.754">G</text>
      <text x="70.166" y="120.364">C</text>
      <text x="75.536" y="133.657">A</text>
      <text x="86.439" y="142.965">C</text>
      <text x="83.236" y="157.619">U</text>
      <text x="80.033" y="172.274">C</text>
      <text x="69.528" y="184.103">A</text>
      <text x="74.369" y="198.189">G</text>
      <text x="60.437" y="205.291">C</text>
      <text x="54.376" y="219.706">U</text>
      <text x="59.049" y="234.629">U</text>
      <text x="72.249" y="243.014">A</text>
      <text x="87.743" y="240.900">C</text>
      <text x="98.216" y="229.288">A</text>
      <text x="98.722" y="213.658">C</text>
      <text x="89.023" y="201.392">C</text>
      <text x="99.299" y="190.610">C</text>
      <text x="94.687" y="175.476">G</text>
      <text x="97.890" y="160.822">A</text>
      <text x="101.093" y="146.168">G</text>
      <text x="111.909" y="144.888">A</text>
      <text x="121.920" y="139.724">G</text>
      <text x="129.736" y="131.100">A</text>
      <text x="134.171" y="119.936">U</text>
      <text x="134.422" y="107.552">A</text>
      <text x="149.391" y="106.585">U</text>
      <text x="164.360" y="105.617">C</text>
      <text x="179.328" y="104.649">U</text>
      <text x="194.297" y="103.682">G</text>
      <text x="204.105" y="115.706">C</text>
      <text x="219.116" y="119.637">C</text>
      <text x="233.558" y="113.963">A</text>
      <text x="241.878" y="100.865">C</text>
      <text x="240.877" y="85.380">C</text>
      <text x="230.940" y="73.463">U</text>
      <text x="215.887" y="69.695">C</text>
      <text x="201.507" y="75.526">C</text>
      <text x="193.329" y="88.713">C</text>
      <text x="178.361" y="89.681">A</text>
      <text x="163.392" y="90.648">G</text>
      <text x="148.423" y="91.616">A</text>
      <text x="133.454" y="92.583">U</text>
      <text x="122.734" y="82.092">C</text>
      <text x="123.380" y="67.105">G</text>
      <text x="124.025" y="52.119">U</text>
      <text x="124.670" y="37.133">C</text>
      <text x="125.316" y="22.147">U</text>
      <text x="125.961" y="7.161">U</text>
      <text x="126.606" y="-7.825">G</text>
      <text x="129.624" y="-26.970">A</text>
    </g>
  </g>
</svg>
